<svg width="24" height="24" viewBox="0 0 24 24" fill="none" xmlns="http://www.w3.org/2000/svg">
<path d="M2.49994 21V8C2.49994 7.20435 2.81601 6.44129 3.37862 5.87868C3.94123 5.31607 4.70429 5 5.49994 5H18.4999C19.2956 5 20.0587 5.31607 20.6213 5.87868C21.1839 6.44129 21.4999 7.20435 21.4999 8V14C21.4999 14.7956 21.1839 15.5587 20.6213 16.1213C20.0587 16.6839 19.2956 17 18.4999 17H6.49994L2.49994 21Z" stroke="#2A4A50" stroke-linecap="round" stroke-linejoin="round"/>
<path d="M8.25 8H5.25V14H8.25" stroke="#2A4A50" stroke-linecap="round" stroke-linejoin="round"/>
<path d="M5.25 11H7.125" stroke="#2A4A50" stroke-linecap="round" stroke-linejoin="round"/>
<path d="M10.5 14V8L13.5 14V8" stroke="#2A4A50" stroke-linecap="round" stroke-linejoin="round"/>
<path d="M18.75 8H17.25C16.8522 8 16.4706 8.15804 16.1893 8.43934C15.908 8.72064 15.75 9.10218 15.75 9.5V12.5C15.75 12.8978 15.908 13.2794 16.1893 13.5607C16.4706 13.842 16.8522 14 17.25 14H18.75V11H18" stroke="#2A4A50" stroke-linecap="round" stroke-linejoin="round"/>
</svg>
