<?xml version="1.0" encoding="UTF-8"?><svg version="1.1" width="30px" height="30px" viewBox="0 0 30.0 30.0" xmlns="http://www.w3.org/2000/svg" xmlns:xlink="http://www.w3.org/1999/xlink"><defs><clipPath id="i0"><path d="M2655,0 L2655,1581 L0,1581 L0,0 L2655,0 Z"></path></clipPath><clipPath id="i1"><path d="M15,0 C23.2842712,0 30,6.71572875 30,15 C30,23.2842712 23.2842712,30 15,30 C6.71572875,30 0,23.2842712 0,15 C0,6.71572875 6.71572875,0 15,0 Z"></path></clipPath><clipPath id="i2"><path d="M0.403294336,0.000183642108 L0.472932124,0.00861178573 C1.45244613,0.214334686 2.46336375,0.220642774 3.44536878,0.0271596778 C3.56035494,0.00432591513 3.67952372,0.0341898972 3.77015254,0.108551272 C3.86058373,0.18293175 3.91300553,0.293861562 3.9130574,0.410952347 L3.9130574,2.51617722 C3.9130574,2.73228942 3.73786385,2.90748296 3.52175166,2.90748296 L0.391305747,2.90748296 C0.175193555,2.90748296 0,2.73228942 0,2.51617722 L0,0.39138706 C0,0.273267241 0.05331072,0.161457425 0.145125821,0.0871453849 C0.236940922,0.0128333446 0.357410816,-0.0160280113 0.472932124,0.00861178573 Z"></path></clipPath><clipPath id="i3"><path d="M1.75496471,0.114601082 C1.9061436,0.265769278 1.90801174,0.51029027 1.75916023,0.663750709 L0.667925916,1.75498502 C0.594639643,1.82849483 0.49507331,1.86975782 0.391272758,1.86963787 C0.233003058,1.86963787 0.0903287056,1.7742633 0.0297794544,1.62803373 C-0.0307697967,1.48180417 0.00273039728,1.31349927 0.114658731,1.20160045 L1.20581478,0.110444394 C1.3592647,-0.0384179717 1.60378582,-0.0365671149 1.75496471,0.114601082 Z"></path></clipPath><clipPath id="i4"><path d="M1.75488643,0.114601082 C1.90606532,0.265769278 1.90793347,0.51029027 1.75908195,0.663750709 L0.667886768,1.75494589 C0.594603634,1.82843172 0.4950541,1.86967951 0.391272741,1.86955961 C0.233013114,1.86955961 0.0903457647,1.77419702 0.0297900283,1.62798104 C-0.030765708,1.48176506 0.00271419946,1.31346885 0.114619583,1.20156132 L1.20573651,0.110444394 C1.35918642,-0.0384179717 1.60370754,-0.0365671149 1.75488643,0.114601082 Z"></path></clipPath><clipPath id="i5"><path d="M6.65219757,0 C7.30023913,0.000711672106 7.82540311,0.525875654 7.82611478,1.17391722 L7.82611478,2.34783443 C7.82611478,2.56394663 7.65092124,2.73914017 7.43480904,2.73914017 L0.391305739,2.73914017 C0.175193547,2.73914017 0,2.56394663 0,2.34783443 L0,1.17391722 C0.000711672106,0.525875654 0.525875654,0.000711672106 1.17391722,0 Z"></path></clipPath><clipPath id="i6"><path d="M5.08697461,0 C7.89643311,0 10.1739492,2.27751611 10.1739492,5.08697461 C10.1739492,7.89643311 7.89643311,10.1739492 5.08697461,10.1739492 C2.27751611,10.1739492 0,7.89643311 0,5.08697461 C0,2.27751611 2.27751611,0 5.08697461,0 Z"></path></clipPath><clipPath id="i7"><path d="M11.1353234,0.11458858 C11.2881327,-0.0381961935 11.5358596,-0.0381961935 11.6886689,0.11458858 C14.0301613,2.45512086 14.730899,5.97581121 13.4640417,9.0345284 C12.1971844,12.0932456 9.21230064,14.0874279 5.90160916,14.0869689 C3.72972302,14.092461 1.64589166,13.2288736 0.11458858,11.6886689 C-0.0381961935,11.5358596 -0.0381961935,11.2881327 0.11458858,11.1353234 L1.21360988,10.0363021 C1.36621866,9.88365257 1.61361392,9.88340745 1.76652489,10.0357543 C4.05000954,12.3192929 7.75231341,12.3193367 10.0358521,10.0358521 C12.3193907,7.75236743 12.3194345,4.05006357 10.0359499,1.76652489 C9.88354911,1.61366785 9.88370669,1.36627265 10.0363021,1.21360988 Z"></path></clipPath><clipPath id="i8"><path d="M4.47263442,0 L4.59785226,0.0939133774 C4.65263506,0.133043951 5.88916119,1.06435161 5.77176947,2.250008 C5.70133444,2.92305387 5.04785386,3.3339249 4.46872136,3.70175229 C4.1439376,3.90523128 3.65089237,4.21436281 3.68610988,4.38262428 C3.79814968,4.95593859 3.63441053,5.54858736 3.2439344,5.98306475 C2.84088949,6.4565447 2.03871272,6.9887205 0.461750592,7.16872114 C-0.213931689,5.69276913 -0.144828668,3.98300212 0.647761197,2.56639273 C1.44035106,1.14978333 2.86129313,0.196367315 4.47263442,0 Z"></path></clipPath><clipPath id="i9"><path d="M6.5507553,0.819402997 C5.33680709,3.16422302 2.5318697,4.19207712 0.0902975508,3.18680272 L0.0511669769,2.9676715 C0.0159494603,2.76027946 -0.140572835,1.69984091 0.356385453,1.18331733 C0.67868928,0.851867896 1.14831287,0.708617933 1.6007377,0.803750767 C1.98793078,0.894090535 2.29529418,1.18795993 2.40291447,1.57071002 C2.41120869,1.60086916 2.42588804,1.62889338 2.4459581,1.65288422 C2.65547334,1.49062782 2.79086465,1.25087237 2.82161161,0.987664465 C2.87769704,0.605877937 3.1238196,0.278697041 3.47509219,0.118965724 C4.11292055,-0.166687466 5.12248936,0.0602698628 6.5507553,0.819402997 Z"></path></clipPath><clipPath id="i10"><path d="M2.06997078,0 C2.75414524,0.886590342 3.12440517,1.97534724 3.12258991,3.0952284 C3.12200532,3.432794 3.08924833,3.76953583 3.02475678,4.10088415 L2.65692938,4.06175357 C2.46910263,4.04218829 0.837357697,3.84653542 0.301268835,2.87609718 C-0.088877138,2.24855444 -0.100916805,1.4569463 0.269964376,0.817828995 C0.614313426,0.316957649 1.21692426,0.0430436313 2.06997078,0 Z"></path></clipPath></defs><g transform="translate(-1280.0 -476.0)"><g clip-path="url(#i0)"><g transform="translate(1280.0 476.0)"><g clip-path="url(#i1)"><polygon points="0,0 30,0 30,30 0,30 0,0" stroke="none" fill="#FFFFFF"></polygon><g transform="translate(8.0 6.0)"><g transform="translate(1.098990295980002 1.1031263546392447)"><g transform="translate(2.814003086691628 12.03286198705791)"><g clip-path="url(#i2)"><polygon points="0,-1.71737624e-16 3.9130574,-1.71737624e-16 3.9130574,2.90748296 0,2.90748296 0,-1.71737624e-16" stroke="none" fill="#F3CC53"></polygon></g></g><g transform="translate(7.731536168876573 0.0)"><g clip-path="url(#i3)"><polygon points="-6.76542156e-16,-5.55111512e-17 1.86958536,-5.55111512e-17 1.86958536,1.86963813 -6.76542156e-16,1.86963813 -6.76542156e-16,-5.55111512e-17" stroke="none" fill="#F3CC53"></polygon></g></g><g transform="translate(0.0 7.731614447086031)"><g clip-path="url(#i4)"><polygon points="-6.59194921e-17,6.9388939e-16 1.86950708,6.9388939e-16 1.86950708,1.86955987 -6.59194921e-17,1.86955987 -6.59194921e-17,6.9388939e-16" stroke="none" fill="#F3CC53"></polygon></g></g></g><g transform="translate(1.9564646946619182 15.260859825917581)"><g clip-path="url(#i5)"><polygon points="0,0 7.82611478,0 7.82611478,2.73914017 0,2.73914017 0,0" stroke="none" fill="#F3CC53"></polygon></g></g><g transform="translate(0.7825474771980225 0.7825474771980225)"><g clip-path="url(#i6)"><polygon points="0,0 10.1739492,0 10.1739492,10.1739492 0,10.1739492 0,0" stroke="none" fill="#3F5B73"></polygon></g></g><g clip-path="url(#i7)"><polygon points="0,-2.77555756e-17 14.0871687,-2.77555756e-17 14.0871687,14.0869949 0,14.0869949 0,-2.77555756e-17" stroke="none" fill="#F3CC53"></polygon></g><g transform="translate(0.7825376571749985 0.82167805111385)"><g clip-path="url(#i8)"><polygon points="-2.22044605e-16,0 5.77962364,0 5.77962364,7.16872114 -2.22044605e-16,7.16872114 -2.22044605e-16,0" stroke="none" fill="#82B1B0"></polygon></g></g><g transform="translate(3.8383480692255034 7.386214352232854)"><g clip-path="url(#i9)"><polygon points="2.77555756e-16,1.2490009e-16 6.5507553,1.2490009e-16 6.5507553,3.57119065 2.77555756e-16,3.57119065 2.77555756e-16,1.2490009e-16" stroke="none" fill="#82B1B0"></polygon></g></g><g transform="translate(7.833913481195396 2.7742936894956065)"><g clip-path="url(#i10)"><polygon points="7.21644966e-16,0 3.12259655,0 3.12259655,4.10088415 7.21644966e-16,4.10088415 7.21644966e-16,0" stroke="none" fill="#82B1B0"></polygon></g></g></g></g></g></g></g></svg>