<?xml version="1.0" encoding="UTF-8"?>
<svg width="30px" height="30px" viewBox="0 0 30 30" version="1.1" xmlns="http://www.w3.org/2000/svg" xmlns:xlink="http://www.w3.org/1999/xlink">
    <title>Gesundheit</title>
    <defs>
        <circle id="path-1" cx="15" cy="15" r="15"></circle>
    </defs>
    <g id="Icons" stroke="none" stroke-width="1" fill="none" fill-rule="evenodd">
        <g transform="translate(-747.000000, -1141.000000)" id="Gesundheit">
            <g transform="translate(747.000000, 1141.000000)">
                <g id="icon_vietnamesisch-copy">
                    <mask id="mask-2" fill="white">
                        <use xlink:href="#path-1"></use>
                    </mask>
                    <use id="Oval" fill="#FFFFFF" xlink:href="#path-1"></use>
                </g>
                <g id="heartbeat" transform="translate(5.500000, 8.000000)" fill-rule="nonzero">
                    <path d="M17.6046189,4.50996076 C17.6618779,2.08319207 15.73464,0.0266501857 13.3072915,0.00026751963 C11.6821494,-0.0174175333 10.2605306,0.857413674 9.49992752,2.16436945 C8.73917953,0.857413674 7.31770566,-0.017562491 5.69256359,0.00026751963 C3.26521503,0.0266501857 1.33797714,2.08319207 1.39523616,4.50996076 C1.52338045,9.9327545 8.00916298,14.64945 9.28379275,15.5248611 C9.41411144,15.6144461 9.58574361,15.6144461 9.71606226,15.5248611 C10.9906921,14.64945 17.4764746,9.9327545 17.6046189,4.50996076 L17.6046189,4.50996076 Z" id="Path" fill="#405B73"></path>
                    <path d="M9.4461475,12.3074827 C9.21044317,12.3074827 9.00793462,12.1397644 8.96415684,11.9078291 L7.76650059,5.54598704 L6.49216072,8.57448304 C6.4179414,8.75089887 6.24804878,8.86788128 6.05684706,8.87440445 C5.86535543,8.88092762 5.68806983,8.77554198 5.6021088,8.60463464 L5.26145371,7.92752833 L0.490398343,7.92752833 C0.219613806,7.92752833 0,7.70791453 0,7.43712999 C0,7.1662005 0.219613806,6.94673165 0.490398343,6.94673165 L5.56369447,6.94673165 C5.74808309,6.94673165 5.91681606,7.05008787 6.00045775,7.21418214 L7.49484631,3.66310678 C7.57877789,3.46349738 7.78375079,3.34260109 7.99872589,3.36564964 C8.21399089,3.38855327 8.3886672,3.54974835 8.428821,3.76254905 L9.41628584,9.00849207 L9.82492693,6.55389114 C9.864211,6.31731707 10.068749,6.14394539 10.3085122,6.14394539 L11.9090111,6.14394539 C12.0748449,6.14394539 12.2295168,6.22773202 12.3199716,6.36660334 L13.0714422,7.52004688 L13.3955718,7.12575676 C13.4887809,7.01239837 13.6277972,6.94673165 13.7744963,6.94673165 L18.5097466,6.94673165 C18.7805311,6.94673165 19,7.16634545 19,7.43712999 C19,7.70791453 18.7805311,7.92752833 18.5097466,7.92752833 L14.0062867,7.92752833 L13.4047043,8.65942935 C13.3055519,8.78003574 13.154649,8.84628227 12.9988174,8.83772968 C12.8426959,8.82917706 12.7002006,8.74669505 12.6149644,8.61579652 L11.6434451,7.12474207 L10.7241114,7.12474207 L9.92987769,11.897537 C9.89088356,12.1320816 9.6890998,12.3048734 9.45136605,12.3073378 C9.44962653,12.3073378 9.44774207,12.3074827 9.4461475,12.3074827 L9.4461475,12.3074827 Z" id="Path" fill="#F4CC54"></path>
                </g>
            </g>
        </g>
    </g>
</svg>