<?xml version="1.0" encoding="UTF-8"?><svg version="1.1" width="30px" height="30px" viewBox="0 0 30.0 30.0" xmlns="http://www.w3.org/2000/svg" xmlns:xlink="http://www.w3.org/1999/xlink"><defs><clipPath id="i0"><path d="M2655,0 L2655,1581 L0,1581 L0,0 L2655,0 Z"></path></clipPath><clipPath id="i1"><path d="M15,0 C23.2842712,0 30,6.71572875 30,15 C30,23.2842712 23.2842712,30 15,30 C6.71572875,30 0,23.2842712 0,15 C0,6.71572875 6.71572875,0 15,0 Z"></path></clipPath><clipPath id="i2"><path d="M7.77193548,0.0304840174 L17.1290323,1.1308066 L17.0651613,1.13951628 L9.87096774,2.00177434 L2.8016129,1.16854853 L1.46612903,1.01177434 L0,0.840484017 L6.74419355,0.0304840174 C7.08556861,-0.0101613391 7.43056043,-0.0101613391 7.77193548,0.0304840174 Z"></path></clipPath><clipPath id="i3"><path d="M7.77483871,0 C7.48451613,0.0725806452 7.25806452,0.624193548 7.25806452,1.29774194 C7.25806452,2.02064516 7.51935484,2.60419355 7.83870968,2.60419355 L7.77483871,2.61290323 L0.580645161,3.4751673 C0.559048437,3.47531869 0.537540252,3.47238576 0.516774194,3.46645161 C0.226451613,3.39387097 0,2.84225806 0,2.16870968 C0,1.44580645 0.261290323,0.862258065 0.580645161,0.862258065 L7.77483871,0 Z"></path></clipPath><clipPath id="i4"><path d="M7.77483871,0 C7.48451613,0.0725806452 7.25806452,0.624193548 7.25806452,1.29774194 C7.25806452,2.02064516 7.51935484,2.60419355 7.83870968,2.60419355 C7.80830984,2.60376073 7.77800395,2.60767117 7.74870968,2.61580645 L0.580645161,3.4751673 C0.559048437,3.47531869 0.537540252,3.47238576 0.516774194,3.46645161 C0.226451613,3.39387097 0,2.84225806 0,2.16870968 C0,1.44580645 0.261290323,0.862258065 0.580645161,0.862258065 L7.77483871,0 Z"></path></clipPath><clipPath id="i5"><path d="M7.77483871,0 C7.58903226,0.0464516129 7.42935484,0.287419355 7.33935484,0.632903226 L0.580645161,1.44290323 C0.307741935,1.44290323 0.075483871,1.87258065 0.014516129,2.45322581 C0.00580645161,2.36322581 0,2.26741935 0,2.16870968 C0,1.44580645 0.261290323,0.862258065 0.580645161,0.862258065 L7.77483871,0 Z"></path></clipPath><clipPath id="i6"><path d="M7.77483871,0 C7.58903226,0.0464516129 7.42935484,0.287419355 7.33935484,0.632903226 L0.580645161,1.44290323 C0.307741935,1.44290323 0.075483871,1.87258065 0.014516129,2.45322581 C0.00580645161,2.36322581 0,2.26741935 0,2.16870968 C0,1.44580645 0.261290323,0.862258065 0.580645161,0.862258065 L7.77483871,0 Z"></path></clipPath><clipPath id="i7"><path d="M8.03907009,0 C8.02846722,0.000956759354 8.0183756,0.00499340461 8.01003783,0.0116129032 C7.58616686,0.139354839 7.25810234,0.99 7.25810234,2.02064516 C7.25810234,3.14419355 7.6471346,4.05290323 8.12907009,4.05290323 L7.92003783,4.07903226 L5.22584428,4.40129032 L5.22584428,2.07870968 L3.4839088,2.28774194 L3.4839088,4.61032258 L0.87100557,4.92387097 L0.78100557,4.91225806 C0.752666759,4.90649308 0.725294587,4.89671731 0.699715247,4.88322581 C0.673343824,4.87091627 0.648088151,4.85634568 0.624231376,4.83967742 C0.598102344,4.82225806 0.574876537,4.80483871 0.554553957,4.78741935 C0.525272613,4.76050575 0.49809631,4.73138828 0.473263634,4.70032258 C0.448712996,4.67209343 0.426388029,4.64200325 0.406489441,4.61032258 C0.361549084,4.54478951 0.321752622,4.47587368 0.287457183,4.40419355 C0.264231376,4.35483871 0.243908795,4.30258065 0.220682989,4.24741935 C0.20616686,4.20677419 0.191650731,4.16322581 0.177134602,4.11967742 C0.159180588,4.07041077 0.144630246,4.01996959 0.133586215,3.96870968 C0.119070086,3.91935484 0.107457183,3.86709677 0.0958442794,3.81483871 C0.0592469017,3.65423499 0.034023023,3.49124992 0.0203604084,3.32709677 C0.00621047331,3.1765762 -0.000572836601,3.03412669 0,2.8916129 C0,1.76806452 0.389070086,0.859354839 0.87100557,0.859354839 L8.03907009,0 Z"></path></clipPath><clipPath id="i8"><path d="M8.03907009,0 C8.02846722,0.000956759354 8.0183756,0.00499340461 8.01003783,0.0116129032 C7.58616686,0.139354839 7.25810234,0.99 7.25810234,2.02064516 C7.25810234,3.14419355 7.6471346,4.05290323 8.12907009,4.05290323 L7.92003783,4.07903226 L5.22584428,4.40129032 L5.22584428,3.53032258 C5.89969227,3.44442812 6.40044787,2.86442794 6.3871346,2.18525806 L6.3871346,2.12806452 C6.39143316,1.86220638 6.28118541,1.60734058 6.0844909,1.42842636 C5.8877964,1.24951215 5.62365593,1.16383275 5.35939267,1.19322581 L0.87100557,1.73032258 C0.671999004,1.75082098 0.496605154,1.86993173 0.40416686,2.04735484 C0.084521137,2.53536829 0.0676673013,3.1619939 0.360618473,3.66648387 C0.44407057,3.8432968 0.595815062,3.97858833 0.78100557,4.04129032 L0.87100557,4.05290323 L3.4839088,3.73935484 L3.4839088,4.61032258 L0.87100557,4.92387097 L0.78100557,4.91225806 C0.752666759,4.90649308 0.725294587,4.89671731 0.699715247,4.88322581 C0.673343824,4.87091627 0.648088151,4.85634568 0.624231376,4.83967742 C0.598102344,4.82225806 0.574876537,4.80483871 0.554553957,4.78741935 C0.525272613,4.76050575 0.49809631,4.73138828 0.473263634,4.70032258 C0.448712996,4.67209343 0.426388029,4.64200325 0.406489441,4.61032258 C0.361549084,4.54478951 0.321752622,4.47587368 0.287457183,4.40419355 C0.264231376,4.35483871 0.243908795,4.30258065 0.220682989,4.24741935 C0.20616686,4.20677419 0.191650731,4.16322581 0.177134602,4.11967742 C0.159180588,4.07041077 0.144630246,4.01996959 0.133586215,3.96870968 C0.119070086,3.91935484 0.107457183,3.86709677 0.0958442794,3.81483871 C0.0592469017,3.65423499 0.034023023,3.49124992 0.0203604084,3.32709677 C0.00621047331,3.1765762 -0.000572836601,3.03412669 0,2.8916129 C0,1.76806452 0.389070086,0.859354839 0.87100557,0.859354839 L8.03907009,0 Z"></path></clipPath><clipPath id="i9"><path d="M1.74193548,0 L1.74193548,3.71612903 L0.870967742,2.55483871 L0,4.00645161 L0,0.211935484 L1.74193548,0 Z"></path></clipPath><clipPath id="i10"><path d="M1.74193548,0 L1.74193548,3.71612903 L0.870967742,2.55483871 L0,4.00645161 L0,2.30225806 L0.0119032258,2.29790323 C0.711602978,2.02671039 1.16964508,1.34988637 1.16129032,0.599516129 L1.16129032,0.0696774194 L1.74193548,0 Z"></path></clipPath><clipPath id="i11"><path d="M0.335274126,0 L7.40462896,0.833225806 C7.08527413,0.833225806 6.8239838,1.41677419 6.8239838,2.13967742 C6.8239838,2.81322581 7.05043542,3.36483871 7.340758,3.43741935 L5.25624187,3.19354839 L3.97882251,3.04258065 L0.184306384,2.59548387 C0.0516567638,2.21609606 -0.0103351288,1.81560875 0.00140315788,1.41387097 C0.00140315788,0.731612903 0.140757997,0.156774194 0.3323709,0 Z"></path></clipPath><clipPath id="i12"><path d="M0.393306095,0 L2.47782222,0.243870968 C2.49858828,0.249805112 2.52009647,0.252738046 2.54169319,0.252580645 C2.22233835,0.252580645 1.96104803,0.836129032 1.96104803,1.55903226 C1.96104803,2.23258065 2.18749964,2.78419355 2.47782222,2.85677419 L0.698144805,2.64774194 L0.213306095,2.59258065 C0.0611382244,2.21878428 -0.0110566642,1.81726202 0.00137061157,1.41387097 C0.00137061157,0.725806452 0.169757708,0.148064516 0.393306095,0 Z"></path></clipPath><clipPath id="i13"><path d="M0.479032258,0 L2.25870968,0.209032258 C2.27947574,0.214966402 2.30098392,0.217899337 2.32258065,0.217741935 C1.84064516,0.217741935 1.4516129,1.12645161 1.4516129,2.25 C1.4516129,3.30387097 1.79419355,4.16903226 2.23258065,4.27064516 L0.499354839,4.06741935 C0.206129032,3.70741935 0,2.92645161 0,2.02064516 C0,1.13806452 0.194516129,0.374516129 0.479032258,0 Z"></path></clipPath><clipPath id="i14"><path d="M0.490645161,0 L1.15548387,0.0783870968 L1.64032258,0.133548387 C1.35580645,0.508064516 1.16129032,1.2716129 1.16129032,2.15419355 C1.16129032,3.06 1.36741935,3.84096774 1.66064516,4.20096774 L0.487741935,4.06451613 C0.197419355,3.69580645 0,2.92354839 0,2.03225806 C0,1.14096774 0.200322581,0.365806452 0.490645161,0 Z"></path></clipPath><clipPath id="i15"><path d="M0.353491234,0 L1.63091059,0.150967742 C1.4073622,0.299032258 1.2389751,0.876774194 1.2389751,1.56483871 C1.22654783,1.96822977 1.29874272,2.36975202 1.45091059,2.74354839 L0.786071879,2.66516129 L0.312846073,2.61 C0.0815784622,2.20462715 -0.0254373515,1.7402189 0.0051041372,1.27451613 C0.000968223034,0.825612726 0.12157857,0.384379874 0.353491234,0 Z"></path></clipPath><clipPath id="i16"><path d="M0.578536964,0 L4.66047245,0.481935484 L5.13369825,0.537096774 C4.84337567,0.902903226 4.64305309,1.67516129 4.64305309,2.56935484 C4.64305309,3.46354839 4.84047245,4.23290323 5.13079503,4.6016129 L0.42176277,4.04709677 C0.11852357,3.45131152 -0.0254933439,2.78723352 0.00369825407,2.11935484 C0.00369825407,1.14387097 0.244665996,0.313548387 0.578536964,0 Z"></path></clipPath><clipPath id="i17"><path d="M0.580645161,0 L2.00032258,0.165483871 L3.23129032,0.310645161 L7.02580645,0.757741935 C6.79389379,1.14212181 6.67328344,1.58335466 6.67741935,2.03225806 C6.64687787,2.49796084 6.75389368,2.96236909 6.98516129,3.36774194 L2.90322581,2.88580645 L1.73903226,2.74935484 L0.580645161,2.61290323 C0.261290323,2.61290323 0,2.02935484 0,1.30645161 C0,0.583548387 0.261290323,0 0.580645161,0 Z"></path></clipPath><clipPath id="i18"><path d="M0,0 L1.98290323,0.226451613 C2.0583871,0.66483871 2.2383871,0.984193548 2.45612903,1.03935484 L0.676451613,0.830322581 L0.191612903,0.77516129 C0.0854863965,0.529090532 0.0207436358,0.267176636 0,0 Z"></path></clipPath><clipPath id="i19"><path d="M0,0 L1.21354839,0.139354839 C1.23429202,0.406531475 1.29903478,0.668445371 1.40516129,0.914516129 L0.740322581,0.836129032 L0.267096774,0.780967742 C0.114343925,0.546985928 0.0225266323,0.278520149 0,0 Z"></path></clipPath><clipPath id="i20"><path d="M0,0 L1.68096774,0.191612903 L3.64935484,0.418064516 L6.6716129,0.766451613 C6.69413954,1.04497176 6.78595683,1.31343754 6.93870968,1.54741935 L2.85677419,1.06548387 L1.69258065,0.929032258 L0.534193548,0.792580645 C0.296129032,0.792580645 0.09,0.467419355 0,0 Z"></path></clipPath><clipPath id="i21"><path d="M0.309138419,0 L1.64171906,0.156774194 C1.45010616,0.313548387 1.31075132,0.888387097 1.31075132,1.57064516 C1.29901304,1.97238295 1.36100493,2.37287025 1.49365455,2.75225806 L0.262686806,2.61 C0.0675362718,2.19321663 -0.0212744589,1.7371885 0.00429970924,1.28032258 C0.000281739762,0.835108575 0.104918641,0.39563359 0.309138419,0 Z"></path></clipPath><clipPath id="i22"><path d="M0.575756354,0 L1.7399499,0.136451613 C1.40607894,0.45 1.16511119,1.28032258 1.16511119,2.25580645 C1.1359196,2.92368514 1.27993651,3.58776313 1.58317571,4.18354839 L0.424788612,4.04709677 C0.119095108,3.45105867 -0.0259949018,2.78564587 0.0038208705,2.11645161 C0.0038208705,1.14387097 0.241885387,0.313548387 0.575756354,0 Z"></path></clipPath><clipPath id="i23"><path d="M0.580645161,0 L2.04677419,0.171290323 C1.84255442,0.566923912 1.73791751,1.0063989 1.74193548,1.4516129 C1.71636132,1.90847882 1.80517205,2.36450695 2.00032258,2.7783871 L0.580645161,2.61290323 C0.261290323,2.61290323 0,2.02935484 0,1.30645161 C0,0.583548387 0.261290323,0 0.580645161,0 Z"></path></clipPath><clipPath id="i24"><path d="M0.870967742,0 L2.02935484,0.136451613 C1.69548387,0.45 1.45741935,1.28032258 1.45741935,2.25290323 C1.42760358,2.92209748 1.57269359,3.58751029 1.8783871,4.18354839 L0.870967742,4.06451613 C0.389032258,4.06451613 0,3.15580645 0,2.03225806 C0,0.908709677 0.389032258,0 0.870967742,0 Z"></path></clipPath><clipPath id="i25"><path d="M3.12995334,0.256105268 C3.14895372,0.415403784 3.03521961,0.559943595 2.8759211,0.578943977 L0.323695289,0.886685912 C0.312329533,0.888077576 0.3008878,0.888756323 0.289437225,0.888719693 C0.135938213,0.888246219 0.00933191213,0.768366158 0.000489385362,0.615121324 C-0.0083531414,0.461876491 0.103624164,0.328229689 0.256050128,0.310105267 L2.80711464,0.00207300926 C2.96641316,-0.0169273619 3.11095297,0.0968067532 3.12995334,0.256105268 Z"></path></clipPath></defs><g transform="translate(-1280.0 -384.0)"><g clip-path="url(#i0)"><g transform="translate(1280.0 384.0)"><g clip-path="url(#i1)"><polygon points="0,0 30,0 30,30 0,30 0,0" stroke="none" fill="#FFFFFF"></polygon><g transform="translate(6.0 9.0)"><g transform="translate(0.8709677419356012 0.0)"><g clip-path="url(#i2)"><polygon points="0,3.88578059e-16 17.1290323,3.88578059e-16 17.1290323,2.00177434 0,2.00177434 0,3.88578059e-16" stroke="none" fill="#3F5B73"></polygon></g></g><g transform="translate(10.1612903225805 1.139516275501592)"><g clip-path="url(#i3)"><polygon points="0,0 7.83870968,0 7.83870968,3.47517288 0,3.47517288 0,0" stroke="none" fill="#E7E8E8"></polygon></g></g><g transform="translate(10.16129032258064 3.7524195013084634)"><g clip-path="url(#i4)"><polygon points="0,0 7.83870968,0 7.83870968,3.47517288 0,3.47517288 0,0" stroke="none" fill="#E7E8E8"></polygon></g></g><g transform="translate(10.16129032258064 3.7524195013084642)"><g clip-path="url(#i5)"><polygon points="0,0 7.77483871,0 7.77483871,2.45322581 0,2.45322581 0,0" stroke="none" fill="#9A9A9A"></polygon></g></g><g transform="translate(10.1612903225805 1.1395162755015922)"><g clip-path="url(#i6)"><polygon points="0,0 7.77483871,0 7.77483871,2.45322581 0,2.45322581 0,0" stroke="none" fill="#9A9A9A"></polygon></g></g><g transform="translate(9.870929914178753 6.368225952921371)"><g clip-path="url(#i7)"><polygon points="-3.34552579e-05,0 8.12907009,0 8.12907009,4.92387097 -3.34552579e-05,4.92387097 -3.34552579e-05,0" stroke="none" fill="#E7E8E8"></polygon></g></g><g transform="translate(9.870929914178753 6.368225952921371)"><g clip-path="url(#i8)"><polygon points="-3.34552579e-05,0 8.12907009,0 8.12907009,4.92387097 -3.34552579e-05,4.92387097 -3.34552579e-05,0" stroke="none" fill="#9A9A9A"></polygon></g></g><g transform="translate(13.35483870967755 8.446935630341613)"><g clip-path="url(#i9)"><polygon points="0,0 1.74193548,0 1.74193548,4.00645161 0,4.00645161 0,0" stroke="none" fill="#D35D3A"></polygon></g></g><g transform="translate(13.35483870967755 8.446935630341613)"><g clip-path="url(#i10)"><polygon points="0,0 1.74193548,0 1.74193548,4.00645161 0,4.00645161 0,0" stroke="none" fill="#D35D3A"></polygon></g></g><g transform="translate(3.3373065195414715 1.1685485335656272)"><g clip-path="url(#i11)"><polygon points="1.38777878e-16,0 7.40462896,0 7.40462896,3.43741935 1.38777878e-16,3.43741935 1.38777878e-16,0" stroke="none" fill="#3F5B73"></polygon></g></g><g transform="translate(8.200242291653922 4.362096920664044)"><g clip-path="url(#i12)"><polygon points="-4.4408921e-16,0 2.54169319,0 2.54169319,2.85677419 -4.4408921e-16,2.85677419 -4.4408921e-16,0" stroke="none" fill="#82B1B0"></polygon></g></g><g transform="translate(8.41935483870968 7.009838856147176)"><g clip-path="url(#i13)"><polygon points="0,0 2.32258065,0 2.32258065,4.27064516 0,4.27064516 0,0" stroke="none" fill="#F3CC53"></polygon></g></g><g transform="translate(7.258064516129028 6.876290469050394)"><g clip-path="url(#i14)"><polygon points="0,0 1.66064516,0 1.66064516,4.20096774 0,4.20096774 0,0" stroke="none" fill="#3F5B73"></polygon></g></g><g transform="translate(6.962637798287718 4.211129178727818)"><g clip-path="url(#i15)"><polygon points="5.55111512e-17,0 1.63091059,0 1.63091059,2.74354839 5.55111512e-17,2.74354839 5.55111512e-17,0" stroke="none" fill="#F3CC53"></polygon></g></g><g transform="translate(2.61501142334555 6.339193694857386)"><g clip-path="url(#i16)"><polygon points="-2.22044605e-16,0 5.13369825,0 5.13369825,4.6016129 -2.22044605e-16,4.6016129 -2.22044605e-16,0" stroke="none" fill="#F3CC53"></polygon></g></g><g transform="translate(0.290322580645352 3.453387243243924)"><g clip-path="url(#i17)"><polygon points="0,0 7.02580645,0 7.02580645,3.36774194 0,3.36774194 0,0" stroke="none" fill="#82B1B0"></polygon></g></g><g transform="translate(8.221935483870766 6.179516275502465)"><g clip-path="url(#i18)"><polygon points="0,0 2.45612903,0 2.45612903,1.03935484 0,1.03935484 0,0" stroke="none" fill="#82B1B0"></polygon></g></g><g transform="translate(7.008387096774186 6.040161436792914)"><g clip-path="url(#i19)"><polygon points="0,0 1.40516129,0 1.40516129,0.914516129 0,0.914516129 0,0" stroke="none" fill="#F3CC53"></polygon></g></g><g transform="translate(0.33677419354853555 5.2737098238885665)"><g clip-path="url(#i20)"><polygon points="0,0 6.93870968,0 6.93870968,1.54741935 0,1.54741935 0,0" stroke="none" fill="#82B1B0"></polygon></g></g><g transform="translate(2.027958355281044 1.011774340018746)"><g clip-path="url(#i21)"><polygon points="2.22044605e-16,0 1.64171906,0 1.64171906,2.75225806 2.22044605e-16,2.75225806 2.22044605e-16,0" stroke="none" fill="#82B1B0"></polygon></g></g><g transform="translate(1.4535984843405458 6.202742081954057)"><g clip-path="url(#i22)"><polygon points="-5.55111512e-17,0 1.7399499,0 1.7399499,4.18354839 -5.55111512e-17,4.18354839 -5.55111512e-17,0" stroke="none" fill="#3F5B73"></polygon></g></g><g transform="translate(0.290322580645352 0.8404840174371204)"><g clip-path="url(#i23)"><polygon points="0,0 2.04677419,0 2.04677419,2.7783871 0,2.7783871 0,0" stroke="none" fill="#3F5B73"></polygon></g></g><g transform="translate(0.0 6.0662904690507276)"><g clip-path="url(#i24)"><polygon points="0,0 2.02935484,0 2.02935484,4.18354839 0,4.18354839 0,0" stroke="none" fill="#F3CC53"></polygon></g></g><g transform="translate(12.693498259067837 8.104023911400873)"><g clip-path="url(#i25)"><polygon points="-2.08925759e-16,7.73252989e-16 3.13202635,7.73252989e-16 3.13202635,0.8887211 -2.08925759e-16,0.8887211 -2.08925759e-16,7.73252989e-16" stroke="none" fill="#9A9A9A"></polygon></g></g></g></g></g></g></g></svg>