<?xml version="1.0" encoding="UTF-8"?>
<svg width="30px" height="30px" viewBox="0 0 30 30" version="1.1" xmlns="http://www.w3.org/2000/svg" xmlns:xlink="http://www.w3.org/1999/xlink">
    <title>icon_chinesisch</title>
    <defs>
        <circle id="path-1" cx="15" cy="15" r="15"></circle>
    </defs>
    <g id="Icons" stroke="none" stroke-width="1" fill="none" fill-rule="evenodd">
        <g transform="translate(-747.000000, -490.000000)" id="icon_chinesisch">
            <g transform="translate(747.000000, 490.000000)">
                <mask id="mask-2" fill="white">
                    <use xlink:href="#path-1"></use>
                </mask>
                <use id="Oval" fill="#FFFFFF" xlink:href="#path-1"></use>
                <g id="lowentanz" mask="url(#mask-2)">
                    <g transform="translate(7.000000, 5.000000)">
                        <path d="M6.05374973,1.72543456 L4.21613263,4.0566454 L2.34175771,3.30762199 C1.80816398,1.99016111 2.0316796,1.02566897 2.37679677,0.397661183 C2.49062489,0.19105963 2.67988269,0.0619971358 2.88562487,0.0178955752 C3.14664049,-0.0390184847 3.43406235,0.0401611992 3.62664046,0.269028377 C4.56597636,1.38523926 6.05374973,1.72543456 6.05374973,1.72543456 Z" id="Path" fill="#405B73" fill-rule="nonzero"></path>
                        <path d="M13.8348041,3.30762199 L11.5932807,4.63250475 L10.6300386,2.7274267 L10.1232417,1.72543456 C10.1232417,1.72543456 11.6105854,1.38523926 12.550351,0.269028377 C12.7462104,0.0360596369 13.0406244,-0.0418700471 13.3049603,0.0207862001 C13.505351,0.0677783855 13.6888666,0.195629942 13.8001947,0.397661183 C14.1453119,1.02566897 14.3683978,1.99016111 13.8348041,3.30762199 L13.8348041,3.30762199 Z" id="Path" fill="#405B73" fill-rule="nonzero"></path>
                        <path d="M14.7786712,13.6051997 L16.1765227,17.6726604 C15.5670696,17.8318401 14.7489837,17.6000823 14.2001166,17.8499651 C13.5407806,18.1501604 13.1515229,19.1719572 12.4649604,19.3732072 C11.7714057,19.5760978 10.8922651,18.9245744 10.1817964,19.0260197 C9.46843708,19.1282463 8.80742148,19.999965 8.08828089,19.999965 C7.3691403,19.999965 6.70816376,19.1282463 5.99476536,19.0259807 C5.28429664,18.9245354 4.40515605,19.5760588 3.71156234,19.3731682 C3.02499987,19.1719572 2.63574207,18.1501213 1.97640616,17.849926 C1.42757806,17.6000432 0.609453098,17.831801 0,17.6726214 L1.3978515,13.6051997" id="Path" fill="#F4CC54" fill-rule="nonzero"></path>
                        <path d="M8.08835902,17.933051 C6.6409372,17.933051 5.24710914,17.4935589 4.16371075,16.695473 C2.8347655,15.7165668 2.0726171,14.2753949 2.0726171,12.7415278 C2.0726171,11.2076607 2.8347655,9.76648889 4.16367169,8.78758269 C5.2471482,7.98949678 6.6409372,7.55000462 8.08835902,7.55000462 C9.53574176,7.55000462 10.9295308,7.98949678 12.0129682,8.78758269 C13.3419135,9.76644983 14.1041009,11.2076216 14.1041009,12.7415278 C14.1041009,14.275434 13.3419135,15.7166058 12.0129682,16.695473 C10.9295698,17.4935589 9.53574176,17.933051 8.08835902,17.933051 Z" id="Path" fill="#405B73" fill-rule="nonzero"></path>
                        <path d="M12.8669916,12.7415669 C12.8669916,13.7858247 12.3780463,14.7810199 11.5160932,15.5118011 C11.4400386,15.5769964 11.3611714,15.6393793 11.2794917,15.6993402 C11.1982026,15.7593011 11.1148823,15.8164496 11.0296089,15.8711761 C10.7128901,16.0739886 10.3680464,16.2414105 10.0030464,16.3713714 L10.0026558,16.3713714 C9.8143355,16.4385589 9.62117145,16.4953167 9.42355427,16.5419964 C9.08914022,16.6212542 8.74265586,16.6703558 8.39015588,16.6884808 C8.28996057,16.6937151 8.18933557,16.696137 8.08835902,16.696137 C7.9873434,16.696137 7.88675746,16.6937151 7.78656215,16.6884808 C7.43363248,16.6703558 7.08757781,16.6208636 6.75316376,16.5416058 C6.55558565,16.4953167 6.36203097,16.4381683 6.17406223,16.3713714 C5.80906224,16.2414105 5.46378882,16.073598 5.14710915,15.8707855 C5.06179665,15.8164496 4.9785154,15.7589105 4.89761697,15.6993402 C4.81593729,15.6393793 4.7370701,15.5769964 4.66101542,15.5118011 C3.79863264,14.7810199 3.30968735,13.7858247 3.30968735,12.7415669 C3.30968735,11.6051607 3.8883592,10.5266842 4.89761697,9.78340295 C5.77007787,9.14074673 6.90328094,8.78703581 8.08835902,8.78703581 C9.27386678,8.78703581 10.4070699,9.14074673 11.2795307,9.78340295 C12.2883198,10.5266842 12.8669916,11.6051607 12.8669916,12.7415669 L12.8669916,12.7415669 Z" id="Path" fill="#EEF5F6" fill-rule="nonzero"></path>
                        <g id="Group" stroke-width="1" fill="none" fill-rule="evenodd" transform="translate(4.660898, 14.004340)">
                            <path d="M3.72917952,0.740078092 L3.72917952,2.68414051 C3.62898421,2.68937488 3.52835922,2.69179676 3.42738266,2.69179676 C3.32636704,2.69179676 3.22578111,2.68937488 3.1255858,2.68414051 L3.1255858,0.740078092 L3.72917952,0.740078092 Z" id="Path" fill="#F9F7F8" fill-rule="nonzero"></path>
                            <path d="M5.34167945,2.36703114 C5.15335915,2.43421864 4.96019509,2.49097645 4.76257791,2.53765614 L4.17624981,0.691367157 L4.75171854,0.508671852 L5.34167945,2.36703114 Z" id="Path" fill="#F9F7F8" fill-rule="nonzero"></path>
                            <path d="M6.85515595,1.50746087 C6.77910126,1.57265618 6.70023408,1.63503899 6.61855439,1.69499992 C6.53726533,1.75496086 6.45394503,1.81210929 6.36867159,1.86683585 L5.13203102,0.38714842 L5.59523413,3.90624983e-05 L6.85515595,1.50746087 Z" id="Path" fill="#F9F7F8" fill-rule="nonzero"></path>
                            <path d="M2.67847644,0.690976532 L2.09214834,2.53726551 C1.89457023,2.49097645 1.70101555,2.43382802 1.51304681,2.36703114 L2.10339834,0.508281227 L2.67847644,0.690976532 Z" id="Path" fill="#F9F7F8" fill-rule="nonzero"></path>
                            <path d="M1.7227343,0.38714842 L0.486093728,1.86644523 C0.400781232,1.81210929 0.317499986,1.75457023 0.236601552,1.69499992 C0.154921868,1.63503899 0.0760546841,1.57265618 -2.22044595e-15,1.50746087 L1.25957026,-2.22044595e-15 L1.7227343,0.38714842 Z" id="Path" fill="#F9F7F8" fill-rule="nonzero"></path>
                        </g>
                        <path d="M13.572851,6.21437967 C13.572851,7.74840304 13.3417963,9.18945767 12.0130463,10.1685201 C10.9297261,10.9665279 9.53578083,11.4059419 8.08828089,11.4059419 C7.42871061,11.4059419 6.7812497,11.3150044 6.16874973,11.1399263 C5.43593726,10.9314888 4.75386698,10.6030904 4.16390607,10.1684811 C2.83472644,9.18941861 2.54609364,7.74836398 2.54609364,6.21434061 C2.54609364,5.73793438 2.14605459,5.27051253 2.28722646,4.82309067 C2.60058582,3.82984853 3.24738267,2.93531732 4.16351544,2.26059079 C5.24722633,1.46227051 6.64078095,1.02281741 8.08828089,1.02281741 C9.53578083,1.02281741 10.9297261,1.46227051 12.0130463,2.26066891 C12.8878119,2.90496576 13.5170306,3.74965322 13.8448822,4.68934068 C14.0150384,5.17699691 13.572851,5.69027814 13.572851,6.21437967 Z" id="Path" fill="#405B73" fill-rule="nonzero"></path>
                        <ellipse id="Oval" fill="#393939" fill-rule="nonzero" cx="8.08835902" cy="12.7415278" rx="3.12929674" ry="2.30507802"></ellipse>
                        <path d="M15.8225774,10.4289498 L16.0997258,11.3532466 C16.3971086,12.3450044 15.7897649,13.3805903 14.7790228,13.6051997 L12.3271088,14.1500824 C10.8011323,14.489184 9.23789021,13.759809 8.51738243,12.3725825 C8.33695275,12.0251607 7.83992153,12.0251607 7.65949185,12.3725825 C6.93898407,13.759809 5.37574195,14.489184 3.84976545,14.1500824 L1.3978515,13.6051997 C0.387109358,13.3805903 -0.220234365,12.3450044 0.0771484341,11.3532466 L0.354296859,10.4289498" id="Path" fill="#405B73" fill-rule="nonzero"></path>
                        <g id="Group" stroke-width="1" fill="none" fill-rule="evenodd" transform="translate(0.178203, 3.307700)">
                            <path d="M1.46617181,4.92988259 L1.14332026,4.92988259 C0.511874977,4.92988259 0,5.44175757 0,6.07320286 C0,7.83851528 1.43105462,9.26960896 3.19640611,9.26960896 C4.96171853,9.26960896 6.39281222,7.83855434 6.39281222,6.07320286 L6.39281222,5.16343727 L6.39281222,4.92984353 L6.39281222,3.10085924 C6.39281222,1.38832025 5.00453103,0 3.29195298,0 L2.16371084,0 C1.30820307,0 0.614687473,0.693515594 0.614687473,1.54902337 C0.614687473,2.40453114 1.30820307,3.09804674 2.16371084,3.09804674 L2.20839834,3.09804674" id="Path" fill="#F4CC54" fill-rule="nonzero"></path>
                            <circle id="Oval" fill="#405B73" fill-rule="nonzero" cx="3.92945295" cy="4.92988259" r="2.46328114"></circle>
                            <circle id="Oval" fill="#EEF5F6" fill-rule="nonzero" cx="4.63117167" cy="4.92988259" r="1.76160148"></circle>
                            <circle id="Oval" fill="#393939" fill-rule="nonzero" cx="5.56949194" cy="4.92988259" r="1"></circle>
                        </g>
                        <g id="Group" stroke-width="1" fill="none" fill-rule="evenodd" transform="translate(3.047969, 3.307700)">
                            <path d="M11.4844136,4.92988259 L11.8072651,4.92988259 C12.4387104,4.92988259 12.9505854,5.44175757 12.9505854,6.07320286 C12.9505854,7.83851528 11.5195307,9.26960896 9.75417925,9.26960896 C7.98886683,9.26960896 6.55777315,7.83855434 6.55777315,6.07320286 L6.55777315,5.16343727 L6.55777315,4.92984353 L6.55777315,3.10085924 C6.55777315,1.38832025 7.94605433,0 9.65863238,0 L10.7868745,0 C11.6423823,0 12.3358979,0.693515594 12.3358979,1.54902337 C12.3358979,2.40453114 11.6423823,3.09804674 10.7868745,3.09804674 L10.742187,3.09804674" id="Path" fill="#F4CC54" fill-rule="nonzero"></path>
                            <circle id="Oval" fill="#405B73" fill-rule="nonzero" cx="9.02109335" cy="4.92988259" r="2.46328114"></circle>
                            <circle id="Oval" fill="#EEF5F6" fill-rule="nonzero" cx="8.31941369" cy="4.92988259" r="1.76160148"></circle>
                            <path d="M2.26835927,6.61738252 C2.10781241,6.66582002 1.93789054,6.69160127 1.76171867,6.69160127 C0.78867184,6.69160127 0,5.90292943 0,4.92988259 C0,3.95722639 0.78867184,3.16855455 1.76171867,3.16855455 C1.93789054,3.16855455 2.10781241,3.1943358 2.26835927,3.24277329 C1.54218743,3.45996078 1.0132812,4.13339825 1.0132812,4.92988259 C1.0132812,5.72675756 1.54218743,6.40019503 2.26835927,6.61738252 L2.26835927,6.61738252 Z" id="Path" fill="#F9F7F8" fill-rule="nonzero"></path>
                            <path d="M8.82617148,6.61738252 C8.66601524,6.66582002 8.49570275,6.69160127 8.31953088,6.69160127 C7.34687467,6.69160127 6.55781221,5.90292943 6.55781221,4.92988259 C6.55781221,3.95722639 7.34687467,3.16855455 8.31953088,3.16855455 C8.49570275,3.16855455 8.66601524,3.1943358 8.82617148,3.24277329 C8.09999964,3.45996078 7.57109341,4.13339825 7.57109341,4.92988259 C7.57109341,5.72675756 8.09999964,6.40019503 8.82617148,6.61738252 L8.82617148,6.61738252 Z" id="Path" fill="#F9F7F8" fill-rule="nonzero"></path>
                            <circle id="Oval" fill="#393939" fill-rule="nonzero" cx="7.38109342" cy="4.92988259" r="1"></circle>
                        </g>
                        <path d="M8.97195273,9.81555139 L8.97195273,9.63512171 C8.97195273,9.14715298 8.57636681,8.75156706 8.08839808,8.75156706 C7.60042935,8.75156706 7.20484343,9.14715298 7.20484343,9.63512171 L7.20484343,9.81555139 C6.83851532,9.92332482 6.57097627,10.2618795 6.57097627,10.6630904 C6.57097627,11.1510591 6.96656219,11.5466451 7.45453092,11.5466451 L8.72222617,11.5466451 C9.2101949,11.5466451 9.60578082,11.1510591 9.60578082,10.6630904 C9.60578082,10.2618795 9.33824177,9.92332482 8.97195273,9.81555139 L8.97195273,9.81555139 Z" id="Path" fill="#F4CC54" fill-rule="nonzero"></path>
                        <circle id="Oval" fill="#F4CC54" fill-rule="nonzero" cx="8.08835902" cy="3.75496572" r="1.20667963"></circle>
                        <path d="M8.08835902,4.24629382 C7.82042934,4.24629382 7.60331997,4.0291454 7.60331997,3.76125478 L7.60331997,3.72809072 C7.60331997,3.46020011 7.8204684,3.24305168 8.08835902,3.24305168 C8.35628869,3.24305168 8.57339806,3.46020011 8.57339806,3.72809072 L8.57339806,3.76121572 C8.57339806,4.02910633 8.35628869,4.24629382 8.08835902,4.24629382 L8.08835902,4.24629382 Z" id="Path" fill="#D45D3A" fill-rule="nonzero"></path>
                    </g>
                </g>
            </g>
        </g>
    </g>
</svg>