<?xml version="1.0" encoding="UTF-8"?><svg version="1.1" width="30px" height="30px" viewBox="0 0 30.0 30.0" xmlns="http://www.w3.org/2000/svg" xmlns:xlink="http://www.w3.org/1999/xlink"><defs><clipPath id="i0"><path d="M2655,0 L2655,1581 L0,1581 L0,0 L2655,0 Z"></path></clipPath><clipPath id="i1"><path d="M15,0 C23.2842712,0 30,6.71572875 30,15 C30,23.2842712 23.2842712,30 15,30 C6.71572875,30 0,23.2842712 0,15 C0,6.71572875 6.71572875,0 15,0 Z"></path></clipPath><clipPath id="i2"><path d="M11.7246094,0 L11.7246094,1.40625 L10.6699219,1.40625 C10.0862732,1.40625 9.61523438,1.87728884 9.61523438,2.4609375 L9.61523438,2.72460938 L11.4960938,2.72460938 C14.7972107,2.72460938 17.4726562,5.40005491 17.4726562,8.70117188 C17.4726562,12.0022888 14.7972107,14.6777344 11.4960938,14.6777344 L9.61523438,14.6777344 L9.61523438,14.9765625 C9.61523438,15.5602112 10.0862732,16.03125 10.6699219,16.03125 L11.7246094,16.03125 L11.7246094,17.4375 L5.74804688,17.4375 L5.74804688,16.03125 L6.80273438,16.03125 C7.38638304,16.03125 7.85742188,15.5602112 7.85742188,14.9765625 L7.85742188,14.6777344 L5.9765625,14.6777344 C2.67544554,14.6777344 0,12.0022888 0,8.70117188 C0,5.40005491 2.67544554,2.72460938 5.9765625,2.72460938 L7.85742188,2.72460938 L7.85742188,2.4609375 C7.85742188,1.87728884 7.38638304,1.40625 6.80273438,1.40625 L5.74804688,1.40625 L5.74804688,0 L11.7246094,0 Z M7.85742188,3.77929688 L7.33007812,3.77929688 C4.61247254,3.77929688 2.40820312,5.98356629 2.40820312,8.70117188 C2.40820312,11.4187775 4.61247254,13.6230469 7.33007812,13.6230469 L7.85742188,13.6230469 L7.85742188,3.77929688 Z M10.1425781,3.77929688 L9.61523438,3.77929688 L9.61523438,13.6230469 L10.1425781,13.6230469 C12.8601837,13.6230469 15.0644531,11.4187775 15.0644531,8.70117188 C15.0644531,5.98356629 12.8601837,3.77929688 10.1425781,3.77929688 Z"></path></clipPath><clipPath id="i3"><path d="M0.52734375,0 L0.52734375,0.52734375 L0,0.52734375 L0,0 L0.52734375,0 Z"></path></clipPath></defs><g transform="translate(-1131.0 -658.0)"><g clip-path="url(#i0)"><g transform="translate(1131.0 658.0)"><g clip-path="url(#i1)"><polygon points="0,0 30,0 30,30 0,30 0,0" stroke="none" fill="#FFFFFF"></polygon><g transform="translate(6.263671875 6.263671874999998)"><g clip-path="url(#i2)"><polygon points="0,0 17.4726562,0 17.4726562,17.4375 0,17.4375 0,0" stroke="none" fill="#3F5B73"></polygon></g><g transform="translate(16.06640625 8.40234375)"><g clip-path="url(#i3)"><polygon points="0,0 0.52734375,0 0.52734375,0.52734375 0,0.52734375 0,0" stroke="none" fill="#F3CC53"></polygon></g></g><g transform="translate(0.9140625 8.40234375)"><g clip-path="url(#i3)"><polygon points="0,0 0.52734375,0 0.52734375,0.52734375 0,0.52734375 0,0" stroke="none" fill="#F3CC53"></polygon></g></g></g></g></g></g></g></svg>