<?xml version="1.0" encoding="UTF-8"?><svg version="1.1" width="30px" height="30px" viewBox="0 0 30.0 30.0" xmlns="http://www.w3.org/2000/svg" xmlns:xlink="http://www.w3.org/1999/xlink"><defs><clipPath id="i0"><path d="M2655,0 L2655,1581 L0,1581 L0,0 L2655,0 Z"></path></clipPath><clipPath id="i1"><path d="M15,0 C23.2842712,0 30,6.71572875 30,15 C30,23.2842712 23.2842712,30 15,30 C6.71572875,30 0,23.2842712 0,15 C0,6.71572875 6.71572875,0 15,0 Z"></path></clipPath><clipPath id="i2"><path d="M18.5449791,0 C19.3485315,0 19.999941,0.651409557 19.999941,1.45496187 L19.999941,10.6725121 C19.999941,11.0583923 19.8466523,11.4284682 19.5737937,11.7013267 C19.3009352,11.9741852 18.9308594,12.1274751 18.5449791,12.127474 L7.12334312,12.127474 L5.7182672,14.8498013 C5.09083766,16.0654315 3.27564312,15.7748451 3.05905143,14.4240939 L2.69080446,12.1274822 L1.45495776,12.1274822 C1.06907792,12.1274833 0.699002468,11.9741933 0.426144604,11.7013347 C0.153286741,11.428476 0,11.0584001 0,10.6725203 L0,1.45496187 C0,0.651410222 0.651406112,0 1.45495776,0 Z"></path></clipPath><clipPath id="i3"><path d="M10.92,0 C11.658,0 12.27,0.252 12.678,0.726 L12.054,1.302 C11.748,0.978 11.394,0.828 10.968,0.828 C10.152,0.828 9.594,1.374 9.594,2.172 C9.594,2.958 10.152,3.516 10.956,3.516 C11.22,3.516 11.466,3.468 11.712,3.336 L11.712,2.106 L12.6,2.106 L12.6,3.81 C12.138,4.158 11.502,4.344 10.902,4.344 C9.582,4.344 8.61,3.438 8.61,2.172 C8.61,0.906 9.582,0 10.92,0 Z M3.174,0.072 L3.174,0.852 L0.966,0.852 L0.966,1.764 L2.916,1.764 L2.916,2.52 L0.966,2.52 L0.966,3.492 L3.252,3.492 L3.252,4.272 L0,4.272 L0,0.072 L3.174,0.072 Z M4.83,0.072 L6.918,2.622 L6.918,0.072 L7.878,0.072 L7.878,4.272 L7.08,4.272 L4.986,1.722 L4.986,4.272 L4.026,4.272 L4.026,0.072 L4.83,0.072 Z"></path></clipPath></defs><g transform="translate(-1131.0 -200.0)"><g clip-path="url(#i0)"><g transform="translate(1131.0 200.0)"><g clip-path="url(#i1)"><polygon points="0,0 30,0 30,30 0,30 0,0" stroke="none" fill="#FFFFFF"></polygon><g transform="translate(5.000058992348386 8.0)"><g clip-path="url(#i2)"><polygon points="0,0 19.999941,0 19.999941,15.6179345 0,15.6179345 0,0" stroke="none" fill="#3F5B73"></polygon></g><g transform="translate(3.7479410076513133 3.7279999999996365)"><g clip-path="url(#i3)"><polygon points="0,0 12.678,0 12.678,4.344 0,4.344 0,0" stroke="none" fill="#F3CC53"></polygon></g></g></g></g></g></g></g></svg>