<?xml version="1.0" encoding="UTF-8"?><svg version="1.1" width="31px" height="30px" viewBox="0 0 31.0 30.0" xmlns="http://www.w3.org/2000/svg" xmlns:xlink="http://www.w3.org/1999/xlink"><defs><clipPath id="i0"><path d="M2655,0 L2655,1581 L0,1581 L0,0 L2655,0 Z"></path></clipPath><clipPath id="i1"><path d="M15,0 C23.2842712,0 30,6.71572875 30,15 C30,23.2842712 23.2842712,30 15,30 C6.71572875,30 0,23.2842712 0,15 C0,6.71572875 6.71572875,0 15,0 Z"></path></clipPath><clipPath id="i2"><path d="M18.5449791,0 C19.3485315,0 19.999941,0.651409557 19.999941,1.45496187 L19.999941,10.6725121 C19.999941,11.0583923 19.8466523,11.4284682 19.5737937,11.7013267 C19.3009352,11.9741852 18.9308594,12.1274751 18.5449791,12.127474 L7.12334312,12.127474 L5.7182672,14.8498013 C5.09083766,16.0654315 3.27564312,15.7748451 3.05905143,14.4240939 L2.69080446,12.1274822 L1.45495776,12.1274822 C1.06907792,12.1274833 0.699002468,11.9741933 0.426144604,11.7013347 C0.153286741,11.428476 0,11.0584001 0,10.6725203 L0,1.45496187 C0,0.651410222 0.651406112,0 1.45495776,0 Z"></path></clipPath><clipPath id="i3"><path d="M2.38314607,0 C3.85393258,0 4.7741573,0.762921348 4.7741573,1.99775281 C4.7741573,2.82359551 4.35730337,3.42921348 3.64157303,3.73595506 L4.87640449,5.50561798 L3.50786517,5.50561798 L2.44606742,3.97191011 L1.2741573,3.97191011 L1.2741573,5.50561798 L0,5.50561798 L0,0 Z M2.31235955,1.03820225 L1.2741573,1.03820225 L1.2741573,2.95730337 L2.31235955,2.95730337 C3.09101124,2.95730337 3.48426966,2.59550562 3.48426966,1.99775281 C3.48426966,1.39213483 3.09101124,1.03820225 2.31235955,1.03820225 Z"></path></clipPath><clipPath id="i4"><path d="M1.2741573,0 L1.2741573,3.03595506 C1.2741573,4.08202247 1.73033708,4.51460674 2.5011236,4.51460674 C3.27977528,4.51460674 3.72808989,4.08202247 3.72808989,3.03595506 L3.72808989,0 L4.98651685,0 L4.98651685,3.08314607 C4.98651685,4.70337079 4.05842697,5.6 2.49325843,5.6 C0.928089888,5.6 0,4.70337079 0,3.08314607 L0,0 L1.2741573,0 Z"></path></clipPath></defs><g transform="translate(-1281.0 -1022.0)"><g clip-path="url(#i0)"><g transform="translate(1281.5 1022.0)"><g clip-path="url(#i1)"><polygon points="0,0 30,0 30,30 0,30 0,0" stroke="none" fill="#FFFFFF"></polygon><g transform="translate(5.000000000000012 6.99999999999935)"><g clip-path="url(#i2)"><polygon points="0,0 19.999941,0 19.999941,15.6179345 0,15.6179345 0,0" stroke="none" fill="#3F5B73"></polygon></g><g transform="translate(4.250500000000347 3.0999999999996364)"><g clip-path="url(#i3)"><polygon points="0,0 4.87640449,0 4.87640449,5.50561798 0,5.50561798 0,0" stroke="none" fill="#F3CC53"></polygon></g><g transform="translate(5.733707865168495 0.0)"><g clip-path="url(#i4)"><polygon points="0,0 4.98651685,0 4.98651685,5.6 0,5.6 0,0" stroke="none" fill="#F3CC53"></polygon></g></g></g></g></g></g></g></g></svg>