<?xml version="1.0" encoding="UTF-8"?><svg version="1.1" width="30px" height="30px" viewBox="0 0 30.0 30.0" xmlns="http://www.w3.org/2000/svg" xmlns:xlink="http://www.w3.org/1999/xlink"><defs><clipPath id="i0"><path d="M2655,0 L2655,1581 L0,1581 L0,0 L2655,0 Z"></path></clipPath><clipPath id="i1"><path d="M15,0 C23.2842712,0 30,6.71572875 30,15 C30,23.2842712 23.2842712,30 15,30 C6.71572875,30 0,23.2842712 0,15 C0,6.71572875 6.71572875,0 15,0 Z"></path></clipPath><clipPath id="i2"><path d="M17.5909344,0 C17.7564629,0 17.9056917,0.0998310368 17.9689346,0.252818361 C18.0317941,0.405575572 17.9965866,0.581152401 17.8797272,0.697896802 C15.8610155,2.62935698 14.473506,5.12605336 13.899257,7.86026553 C13.3085549,10.5463456 12.208074,15.5454528 6.95453761,15.5454528 C2.79492386,15.5454528 0,13.0794383 0,9.40908481 C0,6.57983564 1.71818304,0 17.5909344,0 Z"></path></clipPath><clipPath id="i3"><path d="M11.4136445,0.230822437 C11.4998221,0.408748345 11.4455542,0.618328083 11.2944162,0.733948358 L11.2238389,0.777381064 C4.5090032,4.03130525 0.818169615,11.5880507 0.818169615,13.5001429 C0.818169615,13.7260763 0.635037383,13.9092086 0.409103984,13.9092086 C0.183170585,13.9092086 0,13.726038 0,13.5001046 C0,11.0676483 4.21771748,3.26299362 10.8670858,0.0410169046 C11.0704297,-0.0574718017 11.3151174,0.0274785427 11.4136445,0.230822437 Z"></path></clipPath></defs><g transform="translate(-1280.0 -200.0)"><g clip-path="url(#i0)"><g transform="translate(1280.0 200.0)"><g clip-path="url(#i1)"><polygon points="0,0 30,0 30,30 0,30 0,0" stroke="none" fill="#FFFFFF"></polygon><g transform="translate(6.0 6.0)"><g clip-path="url(#i2)"><polygon points="0,0 17.999717,0 17.999717,15.5454528 0,15.5454528 0,0" stroke="none" fill="#3F5B73"></polygon></g><g transform="translate(0.0 4.090791427674048)"><g clip-path="url(#i3)"><polygon points="0,-3.46944695e-17 11.4546614,-3.46944695e-17 11.4546614,13.9092086 0,13.9092086 0,-3.46944695e-17" stroke="none" fill="#F3CC53"></polygon></g></g></g></g></g></g></g></svg>