<?xml version="1.0" encoding="UTF-8"?><svg version="1.1" width="30px" height="30px" viewBox="0 0 30.0 30.0" xmlns="http://www.w3.org/2000/svg" xmlns:xlink="http://www.w3.org/1999/xlink"><defs><clipPath id="i0"><path d="M2655,0 L2655,1581 L0,1581 L0,0 L2655,0 Z"></path></clipPath><clipPath id="i1"><path d="M15,0 C23.2842712,0 30,6.71572875 30,15 C30,23.2842712 23.2842712,30 15,30 C6.71572875,30 0,23.2842712 0,15 C0,6.71572875 6.71572875,0 15,0 Z"></path></clipPath><clipPath id="i2"><path d="M12.4205916,0.0876060558 C12.5689665,0.18535062 12.6575695,0.350602221 12.6575695,0.527808194 L12.6575695,9.49358657 C12.6575695,10.6570282 11.4751415,11.6031815 10.0205758,11.6031815 C9.3300351,11.6031815 8.70032102,11.3897608 8.23023295,11.041326 C7.7098662,10.6556218 7.38358219,10.1046659 7.38358219,9.49358657 C7.38358219,8.88250724 7.7098662,8.33155137 8.23023295,7.9458471 C8.70032102,7.59741234 9.3300351,7.38399166 10.0205758,7.38399166 C10.6165364,7.38399166 11.1608119,7.54889166 11.602772,7.81645861 L11.602772,3.43729118 L8.23023295,4.88271529 L5.27398728,6.14952703 L5.27398728,12.6579789 C5.27398728,13.8214205 4.09155933,14.7675738 2.63699364,14.7675738 C1.18242795,14.7675738 0,13.8214205 0,12.6579789 C0,11.4945373 1.18242795,10.548384 2.63699364,10.548384 C3.2329542,10.548384 3.77722969,10.713284 4.21918982,10.980851 L4.21918982,3.69220056 C4.21918982,3.48088947 4.34471072,3.29032273 4.53844185,3.20769693 L11.922024,0.0433045627 C12.0858692,-0.0280700652 12.2732716,-0.00978690927 12.4205916,0.0876060558 Z"></path></clipPath><clipPath id="i3"><path d="M5.1157325,0.156307878 C5.46388598,0.493843064 8.43841481,3.54224287 8.43841481,5.79950943 C8.43841481,7.03358729 7.35193827,8.16225573 7.22536257,8.27824829 C7.02495106,8.48920778 6.68748619,8.48920778 6.48703951,8.27824829 C6.27608002,8.07783677 6.27608002,7.74030159 6.48703951,7.53989007 C6.72960777,7.28673868 7.38358219,6.48509261 7.38358219,5.79950943 C7.38358219,4.67087615 6.22334015,3.02539212 5.27398728,1.89675884 L5.27398728,9.49130052 C5.27398728,9.57564916 5.2634393,9.68116406 5.25285617,9.78660865 C5.14741158,10.3562344 4.7676845,10.8519541 4.21918982,11.1789413 C3.78675803,11.4426407 3.22768022,11.6008954 2.63699364,11.6008954 C1.18137315,11.6008954 0,10.6515426 0,9.49130052 C0,8.33098816 1.18137315,7.38170561 2.63699364,7.38170561 C3.23822819,7.38170561 3.77621005,7.55043804 4.21918982,7.81413741 L4.21918982,0.525522147 C4.21918982,0.314562656 4.34576552,0.124699114 4.54617703,0.0402801575 C4.74658855,-0.0441387989 4.97860883,0.00867139378 5.1157325,0.156307878 Z"></path></clipPath><clipPath id="i4"><path d="M0.896542678,0.156307878 C1.24469616,0.493843064 4.21922498,3.54224287 4.21922498,5.79950943 C4.21922498,6.90368436 3.34944183,7.92347335 3.07566529,8.20901489 L3.00617275,8.27824829 C2.80576123,8.48920778 2.46829637,8.48920778 2.26784969,8.27824829 C2.0568902,8.07783677 2.0568902,7.74030159 2.26784969,7.53989007 C2.51041795,7.28673868 3.16439237,6.48509261 3.16439237,5.79950943 C3.16439237,4.67087615 2.00415033,3.02539212 1.05479746,1.89675884 L1.05479746,9.49130052 C1.05479746,9.57564916 1.04424948,9.68116406 1.03366635,9.78660865 C0.928221761,10.3562344 0.548494677,10.8519541 0,11.1789413 L0,0.525522147 C0,0.314562656 0.126575695,0.124699114 0.326987211,0.0402801575 C0.527398728,-0.0441387989 0.759419008,0.00867139378 0.896542678,0.156307878 Z"></path></clipPath><clipPath id="i5"><path d="M4.53844185,0.0433045627 C4.70228706,-0.0280700652 4.88968941,-0.00978690927 5.03700945,0.0876060558 C5.18538429,0.18535062 5.27398728,0.350602221 5.27398728,0.527808194 L5.27398728,9.49358657 C5.27398728,10.6570282 4.09155933,11.6031815 2.63699364,11.6031815 C1.94645291,11.6031815 1.31673882,11.3897608 0.846650758,11.041326 C0.326284013,10.6556218 0,10.1046659 0,9.49358657 C0,8.88250724 0.326284013,8.33155137 0.846650758,7.9458471 C1.31673882,7.59741234 1.94645291,7.38399166 2.63699364,7.38399166 C3.2329542,7.38399166 3.77722969,7.54889166 4.21918982,7.81645861 L4.21918982,3.43729118 L0.846650758,4.88271529 L0.846650758,1.62550075 Z"></path></clipPath></defs><g transform="translate(-1131.0 -749.0)"><g clip-path="url(#i0)"><g transform="translate(1131.0 749.0)"><g clip-path="url(#i1)"><polygon points="0,0 30,0 30,30 0,30 0,0" stroke="none" fill="#FFFFFF"></polygon><g transform="translate(6.0 6.0)"><g transform="translate(5.344342269835399 3.232426151193538)"><g clip-path="url(#i2)"><polygon points="0,-8.32667268e-17 12.6575695,-8.32667268e-17 12.6575695,14.7675738 0,14.7675738 0,-8.32667268e-17" stroke="none" fill="#3F5B73"></polygon></g></g><g clip-path="url(#i3)"><polygon points="0,0 8.43841481,0 8.43841481,11.6008954 0,11.6008954 0,0" stroke="none" fill="#F3CC53"></polygon></g><g transform="translate(4.219189823621212 0.0)"><g clip-path="url(#i4)"><polygon points="0,-6.9388939e-18 4.21922498,-6.9388939e-18 4.21922498,11.1789413 0,11.1789413 0,-6.9388939e-18" stroke="none" fill="#F3CC53"></polygon></g></g><g transform="translate(12.72792446117252 3.2324261511935353)"><g clip-path="url(#i5)"><polygon points="0,5.55111512e-17 5.27398728,5.55111512e-17 5.27398728,11.6031815 0,11.6031815 0,5.55111512e-17" stroke="none" fill="#3F5B73"></polygon></g></g></g></g></g></g></g></svg>