<?xml version="1.0" encoding="UTF-8"?><svg version="1.1" width="30px" height="30px" viewBox="0 0 30.0 30.0" xmlns="http://www.w3.org/2000/svg" xmlns:xlink="http://www.w3.org/1999/xlink"><defs><clipPath id="i0"><path d="M2655,0 L2655,1581 L0,1581 L0,0 L2655,0 Z"></path></clipPath><clipPath id="i1"><path d="M15,0 C23.2842712,0 30,6.71572875 30,15 C30,23.2842712 23.2842712,30 15,30 C6.71572875,30 0,23.2842712 0,15 C0,6.71572875 6.71572875,0 15,0 Z"></path></clipPath><clipPath id="i2"><path d="M3.37289062,0 L3.37289062,3.62179687 L0,3.62179687 L0,0 L3.37289062,0 Z"></path></clipPath><clipPath id="i3"><path d="M17.420625,0 C17.7405469,0 18,0.259453125 18,0.579375 L18,9.82757812 C18,10.1475 17.5113281,11.0475 17.1914062,11.0475 L0.747246094,11.2449727 C0.427675781,11.2449727 0,10.1475 0,9.82757812 L0,0.579375 C0,0.259453125 0.259804687,0 0.579375,0 L17.420625,0 Z"></path></clipPath><clipPath id="i4"><path d="M5.61234375,0 C5.96179687,0 6.24515625,0.283359375 6.24515625,0.6328125 L6.24515625,1.5328125 C6.24515625,1.68820312 6.11929688,1.8140625 5.96390625,1.8140625 L0.28125,1.8140625 C0.126210938,1.8140625 0,1.68820312 0,1.5328125 L0,0.6328125 C0,0.283359375 0.283359375,0 0.6328125,0 L5.61234375,0 Z"></path></clipPath><clipPath id="i5"><path d="M18,0 L18,1.50222656 C18,1.82214844 17.7405469,2.08160156 17.420625,2.08160156 L0.579375,2.08160156 C0.259804688,2.08160156 0,1.82214844 0,1.50222656 L0,0 L18,0 Z"></path></clipPath><clipPath id="i6"><path d="M2.42725781,0 C2.57291016,0 2.69092969,0.118054688 2.69092969,0.263671875 C2.69092969,0.409289062 2.572875,0.52734375 2.42725781,0.52734375 L0.263671875,0.52734375 C0.118054688,0.52734375 0,0.409289062 0,0.263671875 C0,0.118054688 0.118054688,0 0.263671875,0 L2.42725781,0 Z"></path></clipPath><clipPath id="i7"><path d="M1.58365218,0.0186984186 C1.71900374,0.0725226374 1.78506233,0.225839044 1.73120296,0.36115545 L0.508749832,3.43479607 C0.467687332,3.53815545 0.368511551,3.60108514 0.263675614,3.60108514 C0.231261551,3.60108514 0.198284989,3.59507342 0.166292801,3.58234686 C0.0309763948,3.52852264 -0.035082199,3.37520623 0.0187420198,3.23988982 L1.2412303,0.1662492 C1.29505452,0.0309327936 1.44844124,-0.0350203314 1.58365218,0.0186984186 Z"></path></clipPath><clipPath id="i8"><path d="M0.489544778,0.127544642 L1.31047837,1.48918136 C1.360119,1.5715173 1.36103306,1.67431417 1.31283384,1.75749386 L0.491900247,3.17471261 C0.443033059,3.25912277 0.354474465,3.3062673 0.26349009,3.30630245 C0.218630715,3.30630245 0.17320884,3.29484152 0.13158384,3.27072433 C0.0055486841,3.19773995 -0.0374474096,3.03640792 0.0355721216,2.91040792 L0.778388528,1.62801339 L0.0379275904,0.399829798 C-0.0372716284,0.275130579 0.0028768091,0.113060267 0.127611184,0.0378962042 C0.252275247,-0.0372678583 0.414345559,0.00284542299 0.489544778,0.127544642 Z"></path></clipPath><clipPath id="i9"><path d="M1.22074511,0.0379274401 C1.34544432,0.113126659 1.38559276,0.275161815 1.31039354,0.399861034 L0.569932606,1.62804463 L1.31274901,2.91043916 C1.38573339,3.03643916 1.34277245,3.19777119 1.21677245,3.27075557 C1.17521776,3.29480244 1.12972557,3.30626338 1.0848662,3.30629853 C0.993881825,3.30629853 0.905358387,3.259154 0.856456044,3.17474385 L0.0355224498,1.7575251 C-0.012676769,1.67434541 -0.0117627065,1.57154853 0.0378779185,1.4892126 L0.858811512,0.127575878 C0.933975575,0.0028766589 1.09601073,-0.0373069349 1.22074511,0.0379274401 Z"></path></clipPath><clipPath id="i10"><path d="M15.1158164,0 C15.2614687,0 15.3794883,0.118054687 15.3794883,0.263671875 C15.3794883,0.409289062 15.2614336,0.52734375 15.1158164,0.52734375 L0.263671875,0.52734375 C0.118054687,0.52734375 0,0.409289062 0,0.263671875 C0,0.118054687 0.118054687,0 0.263671875,0 L15.1158164,0 Z"></path></clipPath><clipPath id="i11"><path d="M15.1158164,0 C15.2614687,0 15.3794883,0.118054687 15.3794883,0.263671875 C15.3794883,0.409289062 15.2614336,0.52734375 15.1158164,0.52734375 L0.263671875,0.52734375 C0.118054687,0.52734375 0,0.409289062 0,0.263671875 C0,0.118054687 0.118054687,0 0.263671875,0 L15.1158164,0 Z"></path></clipPath></defs><g transform="translate(-1131.0 -384.0)"><g clip-path="url(#i0)"><g transform="translate(1131.0 384.0)"><g clip-path="url(#i1)"><polygon points="0,0 30,0 30,30 0,30 0,0" stroke="none" fill="#FFFFFF"></polygon><g transform="translate(6.0 7.0)"><g transform="translate(7.313554687499999 10.531757812499983)"><g clip-path="url(#i2)"><polygon points="0,0 3.37289062,0 3.37289062,3.62179687 0,3.62179687 0,0" stroke="none" fill="#3F5B73"></polygon></g></g><g clip-path="url(#i3)"><polygon points="0,0 18,0 18,11.2449727 0,11.2449727 0,0" stroke="none" fill="#D8F2FC"></polygon></g><g transform="translate(5.877421874999982 13.58929687499949)"><g clip-path="url(#i4)"><polygon points="0,0 6.24515625,0 6.24515625,1.8140625 0,1.8140625 0,0" stroke="none" fill="#3F5B73"></polygon></g></g><g transform="translate(0.0 9.82757812499949)"><g clip-path="url(#i5)"><polygon points="0,0 18,0 18,2.08160156 0,2.08160156 0,0" stroke="none" fill="#3F5B73"></polygon></g></g><g transform="translate(1.3102031250000445 0.9401531438907114)"><g transform="translate(6.34426171875 9.664413262359144)"><g clip-path="url(#i6)"><polygon points="0,0 2.69092969,0 2.69092969,0.52734375 0,0.52734375 0,0" stroke="none" fill="#F3CC53"></polygon></g></g><g transform="translate(6.814718917734906 0.0)"><g clip-path="url(#i7)"><polygon points="-3.88578059e-16,0 1.74996401,0 1.74996401,3.60108514 -3.88578059e-16,3.60108514 -3.88578059e-16,0" stroke="none" fill="#3F5B73"></polygon></g></g><g transform="translate(9.123756003399064 0.1474076831215243)"><g clip-path="url(#i8)"><polygon points="7.77156117e-16,1.5959456e-16 1.34835629,1.5959456e-16 1.34835629,3.30630245 7.77156117e-16,3.30630245 7.77156117e-16,1.5959456e-16" stroke="none" fill="#3F5B73"></polygon></g></g><g transform="translate(4.907340831459829 0.1474116034611863)"><g clip-path="url(#i9)"><polygon points="-3.53883589e-16,2.77555756e-16 1.34830678,2.77555756e-16 1.34830678,3.30629853 -3.53883589e-16,3.30629853 -3.53883589e-16,2.77555756e-16" stroke="none" fill="#3F5B73"></polygon></g></g><g transform="translate(0.0 4.16017498110915)"><g clip-path="url(#i10)"><polygon points="0,0 15.3794883,0 15.3794883,0.52734375 0,0.52734375 0,0" stroke="none" fill="#3F5B73"></polygon></g></g><g transform="translate(0.0 5.246714043609147)"><g clip-path="url(#i11)"><polygon points="0,0 15.3794883,0 15.3794883,0.52734375 0,0.52734375 0,0" stroke="none" fill="#3F5B73"></polygon></g></g><g transform="translate(0.0 6.333217949859144)"><g clip-path="url(#i10)"><polygon points="0,0 15.3794883,0 15.3794883,0.52734375 0,0.52734375 0,0" stroke="none" fill="#3F5B73"></polygon></g></g><g transform="translate(0.0 7.419721856109144)"><g clip-path="url(#i10)"><polygon points="0,0 15.3794883,0 15.3794883,0.52734375 0,0.52734375 0,0" stroke="none" fill="#3F5B73"></polygon></g></g></g></g></g></g></g></g></svg>