<?xml version="1.0" encoding="UTF-8"?><svg version="1.1" width="30px" height="30px" viewBox="0 0 30.0 30.0" xmlns="http://www.w3.org/2000/svg" xmlns:xlink="http://www.w3.org/1999/xlink"><defs><clipPath id="i0"><path d="M2655,0 L2655,1581 L0,1581 L0,0 L2655,0 Z"></path></clipPath><clipPath id="i1"><path d="M15,0 C23.2842712,0 30,6.71572875 30,15 C30,23.2842712 23.2842712,30 15,30 C6.71572875,30 0,23.2842712 0,15 C0,6.71572875 6.71572875,0 15,0 Z"></path></clipPath><clipPath id="i2"><path d="M1.75901659,0 C1.90481517,0 2.02301692,0.118201747 2.02301692,0.264000329 C2.02301692,0.40979891 1.90481517,0.528000657 1.75901659,0.528000657 L0.264000329,0.528000657 C0.118201747,0.528000657 0,0.40979891 0,0.264000329 C0,0.118201747 0.118201747,0 0.264000329,0 L1.75901659,0 Z"></path></clipPath><clipPath id="i3"><path d="M1.69153811,0 C1.83737189,0 1.95553843,0.118201747 1.95553843,0.264000329 C1.95553843,0.40979891 1.83737189,0.528000657 1.69153811,0.528000657 L0.264000329,0.528000657 C0.118166547,0.528000657 0,0.40979891 0,0.264000329 C0,0.118201747 0.118166547,0 0.264000329,0 L1.69153811,0 Z"></path></clipPath><clipPath id="i4"><path d="M0.874087488,0 C1.22904473,0 1.51680509,0.287760358 1.51680509,0.6427176 L1.51680509,1.1254158 C1.51680509,1.48037304 1.22904473,1.7681334 0.874087488,1.7681334 L0,1.7681334 L0,0 Z"></path></clipPath><clipPath id="i5"><path d="M11.0250057,0 L11.0123337,3.59638848 L11.243598,3.82765276 C11.3048461,3.88854884 11.3389901,3.97162094 11.3389901,4.05821305 L11.3389901,7.04247276 C11.3389901,7.12906487 11.3048461,7.21213698 11.243598,7.27338505 L10.9718537,7.54477739 C10.8852615,7.6313695 10.8852615,7.77216967 10.9718537,7.85876178 L11.24219,8.12909812 C11.271758,8.15866615 11.288302,8.1987942 11.288302,8.24068226 L11.288302,10.476941 L11.1038538,10.9690377 C11.0862538,11.0165577 11.0771018,11.0668938 11.0771018,11.1175818 L11.0989258,15.3373631 L0.051392064,15.3373631 L0.051392064,10.9736137 L0.30553638,10.7194693 C0.370656461,10.6543493 0.370656461,10.5483971 0.30553638,10.483277 L0.079552099,10.2569408 C0.0285120355,10.2062527 0,10.1372606 0,10.0651005 L0,9.30865158 C0,9.24845951 0.0239360298,9.19073144 0.0665280828,9.14813938 L0.558976696,8.65569077 C0.653312813,8.56135465 0.706112879,8.4335785 0.706112879,8.30017033 L0.706112879,7.30436109 C0.706112879,7.17095292 0.653312813,7.04317676 0.558976696,6.94884065 L0.218592272,6.60845622 C0.16896021,6.55882416 0.141152176,6.49159208 0.141152176,6.42154399 L0.141152176,4.61789375 L0.379808473,4.37958945 C0.474848591,4.28419733 0.474848591,4.13002114 0.379808473,4.03462902 L0.231264288,3.88608484 L0.231264288,0 L11.0250057,0 Z"></path></clipPath><clipPath id="i6"><path d="M12.9792418,0 L12.9792418,2.22228437 L0,2.22228437 L0,0 L12.9792418,0 Z"></path></clipPath><clipPath id="i7"><path d="M0.683690451,0 C0.929949957,0 1.12956941,0.199619448 1.12956941,0.445878955 L1.12956941,2.3276733 C1.12956941,2.5739328 0.929949957,2.77355225 0.683690451,2.77355225 L0.445878955,2.77355225 C0.199619448,2.77355225 -3.52000438e-05,2.5738976 0,2.3276381 L0,0.445878955 C0,0.199619448 0.199619448,0 0.445878955,0 Z"></path></clipPath><clipPath id="i8"><path d="M1.72054294,0 C1.86634152,0 1.98454327,0.118201747 1.98454327,0.264000329 C1.98454327,0.40979891 1.86634152,0.528000657 1.72054294,0.528000657 L0.264000329,0.528000657 C0.118201747,0.528000657 0,0.40979891 0,0.264000329 C0,0.118201747 0.118201747,0 0.264000329,0 L1.72054294,0 Z"></path></clipPath><clipPath id="i9"><path d="M1.51680509,0 L1.51680509,1.7681334 L0.6427176,1.7681334 C0.287760358,1.7681334 0,1.48037304 0,1.1254158 L0,0.6427176 C0,0.287760358 0.287760358,0 0.6427176,0 L1.51680509,0 Z"></path></clipPath><clipPath id="i10"><path d="M0.683690451,0 C0.929949957,0 1.12956941,0.199619448 1.12956941,0.445878955 L1.12956941,2.3276381 C1.12956941,2.5738976 0.929914757,2.77355225 0.683690451,2.77355225 L0.445878955,2.77355225 C0.199619448,2.77355225 0,2.5739328 0,2.3276733 L0,0.445878955 C0,0.199619448 0.199619448,0 0.445878955,0 L0.683690451,0 Z"></path></clipPath><clipPath id="i11"><path d="M13.2535205,0 L13.2535205,2.20362834 L0,2.20362834 L0,0 L13.2535205,0 Z"></path></clipPath><clipPath id="i12"><path d="M1.9262168,0 C2.07205058,0 2.19021713,0.118201747 2.19021713,0.264000329 C2.19021713,0.40979891 2.07205058,0.528000657 1.9262168,0.528000657 L0.264000329,0.528000657 C0.118166547,0.528000657 0,0.40979891 0,0.264000329 C0,0.118201747 0.118166547,0 0.264000329,0 L1.9262168,0 Z"></path></clipPath><clipPath id="i13"><path d="M0.768487356,0 C1.1234446,0 1.41120496,0.287760358 1.41120496,0.6427176 L1.41120496,1.1254158 C1.41120496,1.48037304 1.1234446,1.7681334 0.768487356,1.7681334 L0,1.7681334 L0,0 Z"></path></clipPath><clipPath id="i14"><path d="M0.683690451,0 C0.929949957,0 1.12956941,0.199619448 1.12956941,0.445878955 L1.12956941,2.3276381 C1.12956941,2.5738976 0.929949957,2.77351705 0.683690451,2.77351705 L0.445878955,2.77351705 C0.199619448,2.77351705 -3.52000438e-05,2.5738624 0,2.3276381 L0,0.445878955 C0,0.199619448 0.199619448,0 0.445878955,0 Z"></path></clipPath><clipPath id="i15"><path d="M1.51680509,0 L1.51680509,1.7681334 L0.6427176,1.7681334 C0.287760358,1.7681334 0,1.48037304 0,1.1254158 L0,0.6427176 C0,0.287760358 0.287760358,0 0.6427176,0 L1.51680509,0 Z"></path></clipPath><clipPath id="i16"><path d="M0.683690451,0 C0.929949957,0 1.12956941,0.199619448 1.12956941,0.445878955 L1.12956941,2.3276381 C1.12956941,2.5738624 0.929914757,2.77351705 0.683690451,2.77351705 L0.445878955,2.77351705 C0.199619448,2.77351705 0,2.5738976 0,2.3276381 L0,0.445878955 C0,0.199619448 0.199619448,0 0.445878955,0 L0.683690451,0 Z"></path></clipPath><clipPath id="i17"><path d="M6.73599967,0.235999671 C6.88180303,0.235999671 7,0.354196645 7,0.5 C7,0.645803355 6.88180303,0.764000329 6.73599967,0.764000329 L0.264000329,0.764000329 C0.118196973,0.764000329 1.78557612e-17,0.645803355 0,0.5 C-1.78557612e-17,0.354196645 0.118196973,0.235999671 0.264000329,0.235999671 Z"></path></clipPath></defs><g transform="translate(-1131.0 -931.0)"><g clip-path="url(#i0)"><g transform="translate(1131.0 931.0)"><g clip-path="url(#i1)"><polygon points="0,0 30,0 30,30 0,30 0,0" stroke="none" fill="#FFFFFF"></polygon><g transform="translate(6.0 6.0)"><g transform="translate(0.0 15.842870915572668)"><g clip-path="url(#i2)"><polygon points="0,0 2.02301692,0 2.02301692,0.528000657 0,0.528000657 0,0" stroke="none" fill="#F3CC53"></polygon></g></g><g transform="translate(16.04446156644099 1.1227757972319523)"><g clip-path="url(#i3)"><polygon points="0,0 1.95553843,0 1.95553843,0.528000657 0,0.528000657 0,0" stroke="none" fill="#F3CC53"></polygon></g></g><g transform="translate(15.47327045562542 0.5026918255716737)"><g clip-path="url(#i4)"><polygon points="0,0 1.51680509,0 1.51680509,1.7681334 0,1.7681334 0,0" stroke="none" fill="#F3CC53"></polygon></g></g><g transform="translate(3.4317226705879875 1.121930996181618)"><g clip-path="url(#i5)"><polygon points="0,0 11.3389901,0 11.3389901,15.3373631 0,15.3373631 0,0" stroke="none" fill="#3F5B73"></polygon></g></g><g transform="translate(2.53686715699041 0.27561634298945137)"><g clip-path="url(#i6)"><polygon points="0,0 12.9792418,0 12.9792418,2.22228437 0,2.22228437 0,0" stroke="none" fill="#3F5B73"></polygon></g></g><g transform="translate(14.73090153178873 0.0)"><g clip-path="url(#i7)"><polygon points="0,0 1.12956941,0 1.12956941,2.77355225 0,2.77355225 0,0" stroke="none" fill="#F3CC53"></polygon></g></g><g transform="translate(0.0 1.1227757972319523)"><g clip-path="url(#i8)"><polygon points="0,0 1.98454327,0 1.98454327,0.528000657 0,0.528000657 0,0" stroke="none" fill="#F3CC53"></polygon></g></g><g transform="translate(1.045124500599286 0.5026918255716737)"><g clip-path="url(#i9)"><polygon points="0,0 1.51680509,0 1.51680509,1.7681334 0,1.7681334 0,0" stroke="none" fill="#F3CC53"></polygon></g></g><g transform="translate(2.174764306373163 0.0)"><g clip-path="url(#i10)"><polygon points="0,0 1.12956941,0 1.12956941,2.77355225 0,2.77355225 0,0" stroke="none" fill="#F3CC53"></polygon></g></g><g transform="translate(2.360550137573682 14.995711461329849)"><g clip-path="url(#i11)"><polygon points="0,0 13.2535205,0 13.2535205,2.20362834 0,2.20362834 0,0" stroke="none" fill="#3F5B73"></polygon></g></g><g transform="translate(15.809782874396468 15.842870915572668)"><g clip-path="url(#i12)"><polygon points="0,0 2.19021713,0 2.19021713,0.528000657 0,0.528000657 0,0" stroke="none" fill="#F3CC53"></polygon></g></g><g transform="translate(15.57887058703909 15.222786943912068)"><g clip-path="url(#i13)"><polygon points="0,0 1.41120496,0 1.41120496,1.7681334 0,1.7681334 0,0" stroke="none" fill="#F3CC53"></polygon></g></g><g transform="translate(14.73090153178857 14.72013031838438)"><g clip-path="url(#i14)"><polygon points="0,0 1.12956941,0 1.12956941,2.77351705 0,2.77351705 0,0" stroke="none" fill="#F3CC53"></polygon></g></g><g transform="translate(1.045124500599286 15.222786943912068)"><g clip-path="url(#i15)"><polygon points="0,0 1.51680509,0 1.51680509,1.7681334 0,1.7681334 0,0" stroke="none" fill="#F3CC53"></polygon></g></g><g transform="translate(2.174764306373163 14.720130318384689)"><g clip-path="url(#i16)"><polygon points="0,0 1.12956941,0 1.12956941,2.77351705 0,2.77351705 0,0" stroke="none" fill="#F3CC53"></polygon></g></g><g transform="translate(5.578878409271056 12.60357221777849)"><g clip-path="url(#i17)"><polygon points="0,0.235999671 7,0.235999671 7,0.764000329 0,0.764000329 0,0.235999671" stroke="none" fill="#F3CC53"></polygon></g></g><g transform="translate(5.578878409271056 9.603572217778492)"><g clip-path="url(#i17)"><polygon points="0,0.235999671 7,0.235999671 7,0.764000329 0,0.764000329 0,0.235999671" stroke="none" fill="#F3CC53"></polygon></g></g><g transform="translate(5.578878409271056 6.603572217778492)"><g clip-path="url(#i17)"><polygon points="0,0.235999671 7,0.235999671 7,0.764000329 0,0.764000329 0,0.235999671" stroke="none" fill="#F3CC53"></polygon></g></g><g transform="translate(5.578878409271056 3.603572217778492)"><g clip-path="url(#i17)"><polygon points="0,0.235999671 7,0.235999671 7,0.764000329 0,0.764000329 0,0.235999671" stroke="none" fill="#F3CC53"></polygon></g></g></g></g></g></g></g></svg>