<?xml version="1.0" encoding="UTF-8"?>
<svg width="30px" height="30px" viewBox="0 0 30 30" version="1.1" xmlns="http://www.w3.org/2000/svg" xmlns:xlink="http://www.w3.org/1999/xlink">
    <title>Religion</title>
    <defs>
        <circle id="path-1" cx="15" cy="15" r="15"></circle>
    </defs>
    <g id="Icons" stroke="none" stroke-width="1" fill="none" fill-rule="evenodd">
        <g transform="translate(-896.000000, -1141.000000)" id="Religion">
            <g transform="translate(896.000000, 1141.000000)" id="icon_vietnamesisch-copy">
                <mask id="mask-2" fill="white">
                    <use xlink:href="#path-1"></use>
                </mask>
                <use id="Oval" fill="#FFFFFF" xlink:href="#path-1"></use>
                <g id="Group-14" mask="url(#mask-2)">
                    <g transform="translate(5.500000, 4.000000)">
                        <g id="beten-(2)" transform="translate(2.500000, 5.000000)">
                            <path d="M6.88191332,5.25540908 C6.48395888,4.7967157 6.07781491,4.25508336 6.33096741,3.70309369 C7.34538392,1.4914417 7.03313842,0.813959681 6.56669711,0.000989293487 L6.56770073,0.000146254716 C6.27488526,0.00303667336 5.99218626,0.278148326 5.88524077,0.824437449 C5.54469325,2.56073601 3.18723569,5.33726413 3.0640316,6.10691839 C2.92099602,7.00041905 3.26134282,9.75944408 2.0609359,10.7802436 C7.9735281,15.5776561 7.26348873,5.69519431 6.88191332,5.25540908 L6.88191332,5.25540908 Z" id="Path" fill="#405B73" fill-rule="nonzero"></path>
                            <path d="M5.72791368,5.16143033 C6.1783774,4.72132395 6.68640862,5.13043862 6.68640862,5.57949727 L6.68640862,7.6836819 C6.68640862,12.4170234 3.35584345,11.6770763 2.06073517,10.7802436 C2.04572105,10.8155308 1.68502089,14.2393521 4.74697785,13.4665264 C5.60085569,11.3100332 7.40331273,12.3817362 7.40331273,8.40058601 L7.40331273,5.33228619 C7.40331274,4.72280881 6.90929249,4.2286987 6.29981512,4.22858786 C6.29981512,4.22858786 7.40351345,2.93315843 7.40351345,1.57859585 C7.40351345,0.520863202 6.97585193,-0.00382807092 6.56790145,0.000123846742 L6.56689784,0.000989293487 C7.32888445,2.35928989 4.62923344,3.68583147 5.65071542,4.87820945 L5.72791368,5.16143033 Z" id="Path" fill="#405B73" fill-rule="nonzero"></path>
                            <path d="M2.86429968,10.1740677 C3.46812164,10.1740677 3.95761605,10.6635621 3.95761605,11.2673841 L3.95761605,14.9955815 C3.95761605,15.5994035 3.46812164,16.0888979 2.86429968,16.0888979 C2.26047772,16.0888979 1.7709833,15.5994035 1.7709833,14.9955815 L1.7709833,11.2673841 C1.7709833,10.6635621 2.26047772,10.1740677 2.86429968,10.1740677 Z" id="Rectangle" fill="#82B1B0" fill-rule="nonzero" transform="translate(2.864300, 13.131483) rotate(-45.000000) translate(-2.864300, -13.131483) "></path>
                            <circle id="Oval" fill="#2B4B51" fill-rule="nonzero" cx="4.26540199" cy="14.5313647" r="1"></circle>
                            <path d="M4.94645688,7.61089955 C5.9278343,5.32614405 5.2324879,4.06804919 6.2996144,4.06804919 C6.51238133,4.06804919 6.5118193,4.38920682 6.2996144,4.38920682 C5.63927417,4.38920682 6.19375282,5.52088601 5.2415606,7.73763638 C5.15850121,7.93097327 4.86147055,7.80865236 4.94645688,7.61089955 L4.94645688,7.61089955 Z" id="Path" fill="#FFFFFF" fill-rule="nonzero"></path>
                            <path d="M9.56237517,12.6144952 C9.77346649,12.8695021 9.9414401,13.1573096 10.0596476,13.4665264 C13.1216046,14.2393521 12.7609446,10.8155308 12.7458903,10.7802436 C12.3404288,10.4356013 12.1111222,9.89272449 11.9791265,9.29047365 L9.56237517,12.6144952 Z" id="Path" fill="#405B73" fill-rule="nonzero"></path>
                            <path d="M11.9791666,9.29047365 C11.7203537,8.10897489 11.8375361,6.6987316 11.7427946,6.10699868 C11.6195905,5.33734442 9.26217308,2.5608163 8.92158541,0.824517738 C8.66514105,-0.48299525 7.40331273,-0.238192849 7.40331273,1.57867614 C7.40331273,2.93323872 8.50701106,4.22866815 8.50701106,4.22866815 C7.8974553,4.22866815 7.40331273,4.72281072 7.40331273,5.33236648 L7.40331273,8.4006663 C7.40331273,11.7134875 8.65133127,11.5279387 9.56237517,12.6145755 C10.4845391,11.7320344 11.3021262,10.6049718 11.9791666,9.29047365 L11.9791666,9.29047365 Z" id="Path" fill="#405B73" fill-rule="nonzero"></path>
                            <path d="M11.940024,10.1782853 C12.5438459,10.1782853 13.0333403,10.6677797 13.0333403,11.2716016 L13.0333403,14.999799 C13.0333403,15.603621 12.5438459,16.0931154 11.940024,16.0931154 C11.336202,16.0931154 10.8467076,15.603621 10.8467076,14.999799 L10.8467076,11.2716016 C10.8467076,10.6677797 11.336202,10.1782853 11.940024,10.1782853 Z" id="Rectangle" fill="#82B1B0" fill-rule="nonzero" transform="translate(11.940024, 13.135700) rotate(-135.000000) translate(-11.940024, -13.135700) "></path>
                            <circle id="Oval" fill="#2B4B51" fill-rule="nonzero" cx="10.5412235" cy="14.5313647" r="1"></circle>
                            <path d="M9.56506486,7.73759624 C8.61026324,5.51470372 9.1676323,4.38916667 8.50701106,4.38916667 C8.29424413,4.38916667 8.2948463,4.06800905 8.50701106,4.06800905 C9.57381641,4.06800905 8.87895174,5.32650535 9.86016858,7.61085941 C9.94495419,7.80817063 9.64840527,7.9315353 9.56506486,7.73759624 L9.56506486,7.73759624 Z" id="Path" fill="#FFFFFF" fill-rule="nonzero"></path>
                        </g>
                        <g id="Group-14-Copy">
                            <path d="M14.8779307,5.31088682 C14.6230476,5.05583371 14.6230476,4.64247755 14.8779307,4.38742439 L16.2766422,2.98871287 C16.5316954,2.73365971 16.9450515,2.73365971 17.2001047,2.98871287 C17.4549878,3.243596 17.4549878,3.65712218 17.2001047,3.91200531 L15.8013931,5.31088682 C15.54634,5.56594002 15.1328139,5.56576995 14.8779307,5.31088682 Z" id="Path" fill="#F4CC54" fill-rule="nonzero"></path>
                            <path d="M18.8365257,10.397667 L17.4378142,10.397667 C17.077169,10.397667 16.7848781,10.105206 16.7848781,9.74473092 C16.7848781,9.38408573 17.077169,9.09179484 17.4378142,9.09179484 L18.8365257,9.09179484 C19.1971709,9.09179484 19.4894618,9.38408573 19.4894618,9.74473092 C19.4894618,10.105206 19.1971709,10.397667 18.8365257,10.397667 Z" id="Path" fill="#F4CC54" fill-rule="nonzero"></path>
                            <path d="M9.74473092,2.70458364 C9.38408573,2.70458364 9.09179484,2.41229276 9.09179484,2.05164756 L9.09179484,0.652936078 C9.09179484,0.292290927 9.38408573,0 9.74473092,0 C10.1053761,0 10.397667,0.292290927 10.397667,0.652936078 L10.397667,2.05164756 C10.397667,2.41229276 10.1053761,2.70458364 9.74473092,2.70458364 Z" id="Path" fill="#F4CC54" fill-rule="nonzero"></path>
                            <path d="M3.68806861,5.31088682 L2.28935713,3.91200531 C2.03447399,3.65712218 2.03447399,3.24376602 2.28935713,2.98871287 C2.54441028,2.73365971 2.95776644,2.73365971 3.21281959,2.98871287 L4.61153108,4.38742439 C4.86658423,4.64247755 4.86658423,5.05583371 4.61153108,5.31088682 C4.35647792,5.56594002 3.94295174,5.56576995 3.68806861,5.31088682 Z" id="Path" fill="#F4CC54" fill-rule="nonzero"></path>
                            <path d="M2.05164756,10.397667 L0.652936078,10.397667 C0.292290927,10.397667 0,10.105206 0,9.74473092 C0,9.38408573 0.292290927,9.09179484 0.652936078,9.09179484 L2.05164756,9.09179484 C2.41229276,9.09179484 2.70458364,9.38408573 2.70458364,9.74473092 C2.70458364,10.105206 2.41229276,10.397667 2.05164756,10.397667 Z" id="Path" fill="#F4CC54" fill-rule="nonzero"></path>
                        </g>
                    </g>
                </g>
            </g>
        </g>
    </g>
</svg>