<?xml version="1.0" encoding="UTF-8"?><svg version="1.1" width="30px" height="30px" viewBox="0 0 30.0 30.0" xmlns="http://www.w3.org/2000/svg" xmlns:xlink="http://www.w3.org/1999/xlink"><defs><clipPath id="i0"><path d="M2655,0 L2655,1581 L0,1581 L0,0 L2655,0 Z"></path></clipPath><clipPath id="i1"><path d="M15,0 C23.2842712,0 30,6.71572875 30,15 C30,23.2842712 23.2842712,30 15,30 C6.71572875,30 0,23.2842712 0,15 C0,6.71572875 6.71572875,0 15,0 Z"></path></clipPath><clipPath id="i2"><path d="M5.05796484,0 L7.56428906,0.899332031 C7.56428906,5.78819531 7.71560156,5.89391016 9.09587109,8.36092969 L9.27291797,8.677125 C5.58805078,12.265207 3.7569375,8.79314063 0,10.1862773 L1.02107813,8.36092969 C2.40134766,5.89391016 2.55164063,5.78816016 2.55164063,0.899332031 L5.05796484,0 Z"></path></clipPath><clipPath id="i3"><path d="M0.782261719,0 C1.21355859,0 1.56350391,0.34903125 1.56350391,0.779203125 C1.56350391,1.21039453 1.21352344,1.55946094 0.782261719,1.55946094 C0.349945313,1.55946094 0,1.21039453 0,0.779203125 C0,0.34903125 0.349945312,-3.515625e-05 0.782261719,0 Z"></path></clipPath><clipPath id="i4"><path d="M0.636117188,0 C0.988136719,0 1.27223438,0.284378906 1.27223438,0.634464844 C1.27223438,0.984550781 0.988136719,1.26892969 0.636117188,1.26892969 C0.285117188,1.26892969 3.515625e-05,0.984550781 0,0.634464844 C0,0.284378906 0.285117187,0 0.636117188,0 Z"></path></clipPath><clipPath id="i5"><path d="M4.67369168,0 C4.94748855,0 5.09468777,0.233050781 5.02363699,0.496863281 L4.66029714,1.84587891 L2.52040652,2.22472266 L0.380515895,1.84591406 L0.0181955822,0.496898438 C-0.0538747303,0.233050781 0.0933244884,0 0.368140895,0 Z"></path></clipPath><clipPath id="i6"><path d="M11.1786047,0 L13.7477531,4.59421875 C14.1574289,5.32722656 13.8846516,6.57766406 12.7544836,6.57766406 L1.17387423,6.57766406 C0.0426515725,6.57766406 -0.230090615,5.32722656 0.180604697,4.59418359 L1.90568673,1.50915234 C5.34045235,-1.29765234 7.20243282,2.30786719 11.1786047,0 Z"></path></clipPath><clipPath id="i7"><path d="M5.58291797,0 C5.89686328,0 6.15417187,0.255621094 6.15417187,0.568757813 L6.15417187,1.22990625 C6.15417187,1.54304297 5.89686328,1.79866406 5.58291797,1.79866406 L0.570234375,1.79866406 C0.256289062,1.79866406 0,1.54304297 0,1.22990625 L0,0.568757813 C0,0.255621094 0.256289062,0 0.570234375,0 Z"></path></clipPath></defs><g transform="translate(-1131.0 -292.0)"><g clip-path="url(#i0)"><g transform="translate(1131.0 292.0)"><g clip-path="url(#i1)"><polygon points="0,0 30,0 30,30 0,30 0,0" stroke="none" fill="#FFFFFF"></polygon><g transform="translate(7.999999999999999 6.0)"><g transform="translate(1.9056867287254136 2.745210937500815)"><g clip-path="url(#i2)"><polygon points="0,0 9.27291797,0 9.27291797,10.3643521 0,10.3643521 0,0" stroke="none" fill="#D8F2FC"></polygon></g></g><g transform="translate(6.315194541225456 8.83114453125)"><g clip-path="url(#i3)"><polygon points="0,0 1.56350391,0 1.56350391,1.55946094 0,1.55946094 0,0" stroke="none" fill="#3F5B73"></polygon></g></g><g transform="translate(5.805675009975403 5.640328125000451)"><g clip-path="url(#i4)"><polygon points="0,0 1.27223438,0 1.27223438,1.26892969 0,1.26892969 0,0" stroke="none" fill="#3F5B73"></polygon></g></g><g transform="translate(4.443245052776092 0.0)"><g clip-path="url(#i5)"><polygon points="2.77555756e-16,0 5.04140185,0 5.04140185,2.22472266 2.77555756e-16,2.22472266 2.77555756e-16,0" stroke="none" fill="#F3CC53"></polygon></g></g><g transform="translate(0.0 11.42233593749916)"><g clip-path="url(#i6)"><polygon points="-5.55111512e-17,0 13.9277223,0 13.9277223,6.57766406 -5.55111512e-17,6.57766406 -5.55111512e-17,0" stroke="none" fill="#3F5B73"></polygon></g></g><g transform="translate(3.887092978725377 1.845878906249709)"><g clip-path="url(#i7)"><polygon points="0,0 6.15417187,0 6.15417187,1.79866406 0,1.79866406 0,0" stroke="none" fill="#3F5B73"></polygon></g></g></g></g></g></g></g></svg>