<?xml version="1.0" encoding="UTF-8"?><svg version="1.1" width="30px" height="30px" viewBox="0 0 30.0 30.0" xmlns="http://www.w3.org/2000/svg" xmlns:xlink="http://www.w3.org/1999/xlink"><defs><clipPath id="i0"><path d="M2655,0 L2655,1581 L0,1581 L0,0 L2655,0 Z"></path></clipPath><clipPath id="i1"><path d="M15,0 C23.2842712,0 30,6.71572875 30,15 C30,23.2842712 23.2842712,30 15,30 C6.71572875,30 0,23.2842712 0,15 C0,6.71572875 6.71572875,0 15,0 Z"></path></clipPath><clipPath id="i2"><path d="M2.594785,0.0237924045 C2.874422,-0.0622362259 3.16847327,0.0922778037 3.25552145,0.3703679 C3.56760815,1.37251179 4.293244,3.91040913 4.293244,5.83854734 C4.293244,6.13003217 4.05737719,6.36589898 3.76589236,6.36589898 L1.65648582,6.36589898 C1.36500099,6.36589898 1.12913418,6.13003217 1.12913418,5.83854734 C1.12913418,4.38134117 0.51278246,2.22108949 0.261237698,1.40024683 L0.206519452,1.2241225 C0.175864452,1.12688515 0.157614179,1.07158151 0.156311034,1.06766739 L0.0291138196,0.699435322 C-0.0661610428,0.424439022 0.0800911445,0.124200156 0.355614797,0.0289252937 Z"></path></clipPath><clipPath id="i3"><path d="M5.80059001,0 L6.85529328,1.00885884 L6.85529328,5.24292998 L5.80059001,6.32793839 L2.10912855,6.32786808 C0.853504297,6.32786808 0.0122378092,5.00660613 7.35647225e-05,3.16410982 C-0.00737967175,1.59590668 0.55055836,0 2.10912855,0 L5.80059001,0 Z"></path></clipPath><clipPath id="i4"><path d="M1.58205491,0 C1.87353974,0 2.10940655,0.235866809 2.10940655,0.527351637 C2.10940655,0.818836465 1.87353974,1.05470327 1.58205491,1.05470327 L0.527351637,1.05470327 C0.235866809,1.05470327 0,0.818836465 0,0.527351637 C0,0.235866809 0.235866809,0 0.527351637,0 L1.58205491,0 Z"></path></clipPath><clipPath id="i5"><path d="M1.95490131,0.154487662 C2.16088486,0.360471212 2.16088486,0.694214484 1.95490131,0.900198034 L0.900198034,1.95490131 C0.694179328,2.16088486 0.360471212,2.16092001 0.154487662,1.95490131 C-0.0514958874,1.74891776 -0.0514958874,1.41517449 0.154487662,1.20919094 L1.20919094,0.154487662 C1.41517449,-0.0514958874 1.74891776,-0.0514958874 1.95490131,0.154487662 Z"></path></clipPath><clipPath id="i6"><path d="M0.900198034,0.154487662 L1.95490131,1.20919094 C2.16088486,1.41517449 2.16088486,1.74891776 1.95490131,1.95490131 C1.7488826,2.16088486 1.41517449,2.16092001 1.20919094,1.95490131 L0.154487662,0.900198034 C-0.0514958874,0.694214484 -0.0514958874,0.360471212 0.154487662,0.154487662 C0.360471212,-0.0514958874 0.694214484,-0.0514958874 0.900198034,0.154487662 Z"></path></clipPath><clipPath id="i7"><path d="M8.27361983,0 L8.27207294,5.2189179 L8.27052604,10.4357967 C8.2293223,10.4151948 4.03990026,8.40116862 0,8.38274647 L0,2.05480808 C0.110919628,2.02710454 4.98642614,1.66435692 8.27361983,0 Z"></path></clipPath><clipPath id="i8"><path d="M0.527351637,0 C0.818836465,0 1.05470327,0.235866809 1.05470327,0.527351637 L1.05470327,13.1837909 C1.05470327,13.4752758 0.818836465,13.7111426 0.527351637,13.7111426 C0.235866809,13.7111426 0,13.4752758 0,13.1837909 L0,0.527351637 C0,0.235866809 0.235866809,0 0.527351637,0 Z"></path></clipPath></defs><g transform="translate(-1280.0 -567.0)"><g clip-path="url(#i0)"><g transform="translate(1280.0 567.0)"><g clip-path="url(#i1)"><polygon points="0,0 30,0 30,30 0,30 0,0" stroke="none" fill="#FFFFFF"></polygon><g transform="translate(4.322714084590613 9.590563836505623) rotate(-14.999999999999998)"><g transform="translate(2.0346976418182985 8.964916250342867)"><g clip-path="url(#i2)"><polygon points="1.11022302e-16,-1.48214774e-14 4.293244,-1.48214774e-14 4.293244,6.36589898 1.11022302e-16,6.36589898 1.11022302e-16,-1.48214774e-14" stroke="none" fill="#3F5B73"></polygon></g></g><g transform="translate(5.684341886080801e-13 3.729079209986594)"><g clip-path="url(#i3)"><polygon points="4.4408921e-16,-2.84217094e-14 6.85529328,-2.84217094e-14 6.85529328,6.32793839 4.4408921e-16,6.32793839 4.4408921e-16,-2.84217094e-14" stroke="none" fill="#3F5B73"></polygon></g></g><g transform="translate(15.89058466230665 6.893189032745795)"><g clip-path="url(#i4)"><polygon points="-5.68434189e-14,-1.42108547e-14 2.10940655,-1.42108547e-14 2.10940655,1.05470327 -5.68434189e-14,1.05470327 -5.68434189e-14,-1.42108547e-14" stroke="none" fill="#F3CC53"></polygon></g></g><g transform="translate(15.890611029887618 2.6743671465483194)"><g clip-path="url(#i5)"><polygon points="4.99600361e-16,-1.40720768e-14 2.10938897,-1.40720768e-14 2.10938897,2.10940215 4.99600361e-16,2.10940215 4.99600361e-16,-1.40720768e-14" stroke="none" fill="#F3CC53"></polygon></g></g><g transform="translate(15.89061102988819 10.05729006629554)"><g clip-path="url(#i6)"><polygon points="4.99600361e-16,-2.49800181e-16 2.10938897,-2.49800181e-16 2.10938897,2.10940215 4.99600361e-16,2.10940215 4.99600361e-16,-2.49800181e-16" stroke="none" fill="#F3CC53"></polygon></g></g><g transform="translate(5.800590005331742 1.6742711343267729)"><g clip-path="url(#i7)"><polygon points="0,0 8.27361983,0 8.27361983,10.4357967 0,10.4357967 0,0" stroke="none" fill="#3F5B73"></polygon></g></g><g transform="translate(13.78117811381173 -1.8189894035458565e-12)"><g clip-path="url(#i8)"><polygon points="0,-1.42108547e-14 1.05470327,-1.42108547e-14 1.05470327,13.7111426 0,13.7111426 0,-1.42108547e-14" stroke="none" fill="#3F5B73"></polygon></g></g></g></g></g></g></g></svg>