<?xml version="1.0" encoding="UTF-8"?><svg version="1.1" width="30px" height="30px" viewBox="0 0 30.0 30.0" xmlns="http://www.w3.org/2000/svg" xmlns:xlink="http://www.w3.org/1999/xlink"><defs><clipPath id="i0"><path d="M2655,0 L2655,1581 L0,1581 L0,0 L2655,0 Z"></path></clipPath><clipPath id="i1"><path d="M15,0 C23.2842712,0 30,6.71572875 30,15 C30,23.2842712 23.2842712,30 15,30 C6.71572875,30 0,23.2842712 0,15 C0,6.71572875 6.71572875,0 15,0 Z"></path></clipPath><clipPath id="i2"><path d="M5.13087706,0.146008159 C5.32502176,-0.0481697808 5.63970102,-0.0487347346 5.83454361,0.144712088 L14.0241469,8.27413121 L14.0241469,7.47734698 C14.0241469,7.20204832 14.2473369,6.97885834 14.5226356,6.97885834 C14.7979342,6.97885834 15.0211242,7.20204832 15.0211242,7.47734698 L15.0211242,9.47130152 C15.0211242,9.74660018 14.7979342,9.96979015 14.5226356,9.96979015 L12.528681,9.96979015 C12.2533824,9.96979015 12.0301924,9.74660018 12.0301924,9.47130152 C12.0301924,9.19600286 12.2533824,8.97281288 12.528681,8.97281288 L13.3128701,8.97281288 L10.96675,6.64387398 L10.96675,11 L7.97581816,11 L7.97581816,3.67497537 L6.97884089,2.6853425 L6.97884089,11 L3.98790908,11 L3.98790908,2.69893462 L2.99093181,3.69591189 L2.99093181,11 L0,11 L0,0.292032096 L2.49244318,2.78447527 Z"></path></clipPath><clipPath id="i3"><path d="M3.28729282,0 C4.12983425,0 4.82044199,0.303867403 5.27624309,0.856353591 L4.56491713,1.51933702 C4.23342541,1.14640884 3.82596685,0.953038674 3.34254144,0.953038674 C2.72790055,0.953038674 2.23066298,1.25 1.97513812,1.73342541 L3.72237569,1.73342541 L3.72237569,2.31353591 L1.80248619,2.31353591 C1.79558011,2.37569061 1.79558011,2.4378453 1.79558011,2.5 C1.79558011,2.5621547 1.79558011,2.62430939 1.80248619,2.68646409 L3.72237569,2.68646409 L3.72237569,3.26657459 L1.97513812,3.26657459 C2.23066298,3.75 2.72790055,4.04696133 3.34254144,4.04696133 C3.82596685,4.04696133 4.23342541,3.85359116 4.56491713,3.47375691 L5.27624309,4.13674033 C4.82044199,4.6961326 4.12983425,5 3.28729282,5 C2.06491713,5 1.0980663,4.30939227 0.78038674,3.26657459 L0,3.26657459 L0,2.68646409 L0.67679558,2.68646409 C0.669889503,2.62430939 0.669889503,2.5621547 0.669889503,2.5 C0.669889503,2.4378453 0.669889503,2.37569061 0.67679558,2.31353591 L0,2.31353591 L0,1.73342541 L0.78038674,1.73342541 C1.0980663,0.690607735 2.06491713,0 3.28729282,0 Z"></path></clipPath><clipPath id="i4"><path d="M0.52734375,0 C0.818578125,0 1.0546875,0.236109375 1.0546875,0.52734375 L1.0546875,16.9453125 L17.4726562,16.9453125 C17.7638906,16.9453125 18,17.1814219 18,17.4726562 C18,17.7638906 17.7638906,18 17.4726562,18 L0.52734375,18 C0.236109375,18 0,17.7638906 0,17.4726562 L0,0.52734375 C0,0.236109375 0.236109375,0 0.52734375,0 Z"></path></clipPath></defs><g transform="translate(-1131.0 -567.0)"><g clip-path="url(#i0)"><g transform="translate(1131.0 567.0)"><g clip-path="url(#i1)"><polygon points="0,0 30,0 30,30 0,30 0,0" stroke="none" fill="#FFFFFF"></polygon><g transform="translate(6.0 6.0)"><g transform="translate(2.109375000000103 5.25388778573506)"><g clip-path="url(#i2)"><polygon points="0,1.66533454e-16 15.0211242,1.66533454e-16 15.0211242,11 0,11 0,1.66533454e-16" stroke="none" fill="#3F5B73"></polygon></g></g><g transform="translate(12.0000000000001 1.0)"><g clip-path="url(#i3)"><polygon points="0,0 5.27624309,0 5.27624309,5 0,5 0,0" stroke="none" fill="#3F5B73"></polygon></g></g><g clip-path="url(#i4)"><polygon points="0,0 18,0 18,18 0,18 0,0" stroke="none" fill="#F3CC53"></polygon></g></g></g></g></g></g></svg>