<?xml version="1.0" encoding="UTF-8"?><svg version="1.1" width="30px" height="30px" viewBox="0 0 30.0 30.0" xmlns="http://www.w3.org/2000/svg" xmlns:xlink="http://www.w3.org/1999/xlink"><defs><clipPath id="i0"><path d="M2655,0 L2655,1581 L0,1581 L0,0 L2655,0 Z"></path></clipPath><clipPath id="i1"><path d="M15,0 C23.2842712,0 30,6.71572875 30,15 C30,23.2842712 23.2842712,30 15,30 C6.71572875,30 0,23.2842712 0,15 C0,6.71572875 6.71572875,0 15,0 Z"></path></clipPath><clipPath id="i2"><path d="M6.20617522,9.80204773 C9.40100629,11.4280463 8.06670938,13.8197507 8.06670938,13.8197507 C5.26683751,13.8274041 6.20617522,9.80204773 6.20617522,9.80204773 Z M11.3422972,9.64605396 L11.3501303,9.67083294 C11.4534852,10.0042291 12.5025392,13.5934997 9.83604502,13.8197749 C9.83604502,13.8197749 8.29467052,11.5488474 11.3422972,9.64605396 Z M13.1841627,6.90823506 C13.1841627,6.90823506 14.8007742,8.99180831 14.1547906,10.4238782 C14.4695556,10.314011 14.834877,10.2464384 15.2556418,10.2464032 C15.8104269,10.2464032 16.4630202,10.364005 17.2276955,10.6573239 C17.2276955,10.6573239 15.6395967,12.938658 13.9317867,12.938658 C13.4066041,12.938658 12.8704876,12.722791 12.3656965,12.1597087 C12.3656965,12.1597087 12.5331867,11.6675391 12.9907966,11.1824713 C12.5123735,10.7128024 11.3614932,9.21101523 13.1841627,6.90823506 Z M4.8163998,6.9081999 C6.63981942,9.21187275 5.48748463,10.7138391 5.00943,11.1829378 C5.46721419,11.6675235 5.63486607,12.1596736 5.63486607,12.1596736 C3.48758745,14.5563946 0.773429535,10.6573239 0.773429535,10.6573239 C2.11796725,10.1407924 3.11654603,10.1689676 3.84673903,10.4241453 C3.19917187,8.99269077 4.8163998,6.9081999 4.8163998,6.9081999 Z M17.5111352,6.66160529 C17.6660039,6.66160529 17.8291698,6.66817974 18,6.68248884 C18,6.68248884 17.1265826,9.28628741 15.5198503,9.28628741 C15.2171795,9.28628741 14.8880703,9.19396385 14.5338235,8.9737022 C14.5338235,8.9737022 14.6354637,6.66157013 17.5111352,6.66160529 Z M3.45453669,8.85850188 L3.4632727,8.93058805 C3.46603467,8.9585098 3.46670391,8.9737022 3.46670391,8.9737022 C1.23430902,10.3601728 0,6.68248884 0,6.68248884 C2.92365327,6.44160958 3.38444082,8.36210734 3.45453669,8.85850188 Z M0.99151142,2.47466512 C2.66908262,3.17396215 2.96836737,4.21526605 2.94642825,4.92160168 C3.63450162,4.01849532 4.8779254,3.44420312 4.8779254,3.44420312 C5.53160853,6.82248595 2.93389221,7.22296487 2.93389221,7.22296487 C2.50529489,6.67589868 2.42838832,6.15906742 2.54993615,5.69341987 C0.502600317,5.63337809 0.99151142,2.47466512 0.99151142,2.47466512 Z M17.0090511,2.47466512 C17.0090511,2.47466512 17.4979159,5.63268631 15.4506252,5.69421191 C15.572024,6.15945092 15.4951346,6.67584407 15.0666703,7.22296487 C15.0666703,7.22296487 12.4689188,6.8225211 13.1226371,3.44420312 C13.1226371,3.44420312 14.3646456,4.01765687 15.0540488,4.91965733 C15.0326027,4.21323797 15.3330937,3.17282248 17.0090511,2.47466512 Z M4.84276791,3.51574854e-05 C5.156443,2.82079057 2.99376541,2.97734686 2.99376541,2.97734686 C1.7715154,1.1283092 4.84276791,3.51574854e-05 4.84276791,3.51574854e-05 Z M13.1577946,0 C13.1577946,0 16.2290471,1.1283092 15.0067971,2.9773117 C15.0067971,2.9773117 12.8441195,2.82079057 13.1577946,0 Z"></path></clipPath><clipPath id="i3"><path d="M0.883598276,0.0186493459 C1.05565462,0.0748837448 1.15958289,0.243848425 1.13982212,0.41694157 L1.12361843,0.491060485 C1.12031363,0.500939739 0.811630902,1.46664556 0.757804791,2.83005287 C0.709463247,4.07315126 0.869886856,5.9150168 1.90973982,7.62943644 C3.36870517,10.0337866 6.14829117,11.5955173 10.1703427,12.2700488 C10.3747132,12.3046438 10.5125657,12.4980099 10.4785684,12.7018179 C10.4477705,12.8854103 10.2890344,13.0150359 10.1088171,13.0150359 C10.0884961,13.0150359 10.0676126,13.0133835 10.0462016,13.0100436 C5.79506391,12.2964872 2.84028816,10.6144828 1.26428353,8.01124674 C0.760582232,7.17847137 0.401870402,6.25231772 0.199152338,5.25806401 C0.0376388474,4.46649322 -0.0260665173,3.62988568 0.00961833101,2.77239459 C0.0705814117,1.31339408 0.396913197,0.301034274 0.410624616,0.25870466 C0.474892501,0.0615063214 0.686927299,-0.0456185385 0.883598276,0.0186493459 Z"></path></clipPath><clipPath id="i4"><path d="M10.0730079,0.25870466 C10.0867545,0.301034274 10.4130511,1.31339408 10.4740142,2.77239459 C10.5097342,3.62988568 10.4459937,4.46649322 10.2845153,5.25806401 C10.0817621,6.25228256 9.72308545,7.17903389 9.21938414,8.01124674 C7.64344983,10.6144828 4.68863892,12.2964872 0.43746603,13.0100436 C0.416019963,13.0133835 0.395171574,13.0150008 0.374850547,13.0150008 C0.195230951,13.0150008 0.035932382,12.88534 0.00516958179,12.7018882 C-0.0288980222,12.4980803 0.108989638,12.3047141 0.313360104,12.2701191 C4.33927898,11.5944626 7.12048223,10.0310795 8.57779518,7.62289715 C9.61986307,5.90130538 9.77641935,4.05230287 9.72480816,2.80371991 C9.66820461,1.44688706 9.36335405,0.500974896 9.36004925,0.491623005 C9.29578136,0.294952028 9.40343358,0.0829172303 9.6000694,0.0186493459 C9.79674038,-0.0456185385 10.0087752,0.0615063214 10.0730079,0.25870466 Z"></path></clipPath></defs><g transform="translate(-1280.0 -840.0)"><g clip-path="url(#i0)"><g transform="translate(1280.0 840.0)"><g clip-path="url(#i1)"><polygon points="0,0 30,0 30,30 0,30 0,0" stroke="none" fill="#FFFFFF"></polygon><g transform="translate(6.0 7.0)"><g clip-path="url(#i2)"><polygon points="0,0 18,0 18,13.8197749 0,13.8197749 0,0" stroke="none" fill="#3F5B73"></polygon></g><g transform="translate(2.3188971246113406 2.3329294205213964)"><g clip-path="url(#i3)"><polygon points="2.49800181e-16,5.55111512e-17 10.4837196,5.55111512e-17 10.4837196,13.0150359 2.49800181e-16,13.0150359 2.49800181e-16,5.55111512e-17" stroke="none" fill="#F3CC53"></polygon></g></g><g transform="translate(5.197962559578627 2.332964578006794)"><g clip-path="url(#i4)"><polygon points="4.25007252e-16,-1.38777878e-17 10.4836455,-1.38777878e-17 10.4836455,13.0150008 4.25007252e-16,13.0150008 4.25007252e-16,-1.38777878e-17" stroke="none" fill="#F3CC53"></polygon></g></g></g></g></g></g></g></svg>