<?xml version="1.0" encoding="UTF-8"?><svg version="1.1" width="30px" height="30px" viewBox="0 0 30.0 30.0" xmlns="http://www.w3.org/2000/svg" xmlns:xlink="http://www.w3.org/1999/xlink"><defs><clipPath id="i0"><path d="M2655,0 L2655,1581 L0,1581 L0,0 L2655,0 Z"></path></clipPath><clipPath id="i1"><path d="M15,0 C23.2842712,0 30,6.71572875 30,15 C30,23.2842712 23.2842712,30 15,30 C6.71572875,30 0,23.2842712 0,15 C0,6.71572875 6.71572875,0 15,0 Z"></path></clipPath><clipPath id="i2"><path d="M6.84615385,0 C7.3984386,-2.12475365e-16 7.84615385,0.44771525 7.84615385,1 L7.84615385,6.84615385 C7.84615385,7.3984386 7.3984386,7.84615385 6.84615385,7.84615385 L1,7.84615385 C0.44771525,7.84615385 6.76353751e-17,7.3984386 0,6.84615385 L0,1 C-1.78657678e-16,0.44771525 0.44771525,1.01453063e-16 1,0 L6.84615385,0 Z"></path></clipPath><clipPath id="i3"><path d="M6.84615385,0 C7.3984386,-1.01453063e-16 7.84615385,0.44771525 7.84615385,1 L7.84615385,6.84615385 C7.84615385,7.3984386 7.3984386,7.84615385 6.84615385,7.84615385 L1,7.84615385 C0.44771525,7.84615385 6.76353751e-17,7.3984386 0,6.84615385 L0,1 C-6.76353751e-17,0.44771525 0.44771525,1.01453063e-16 1,0 L6.84615385,0 Z"></path></clipPath><clipPath id="i4"><path d="M6.84615385,0 C7.3984386,-5.91980459e-16 7.84615385,0.44771525 7.84615385,1 L7.84615385,6.84615385 C7.84615385,7.3984386 7.3984386,7.84615385 6.84615385,7.84615385 L1,7.84615385 C0.44771525,7.84615385 6.76353751e-17,7.3984386 0,6.84615385 L0,1 C-6.76353751e-17,0.44771525 0.44771525,1.01453063e-16 1,0 L6.84615385,0 Z"></path></clipPath><clipPath id="i5"><path d="M3.92307692,0 C6.08973248,0 7.84615385,1.75642137 7.84615385,3.92307692 C7.84615385,6.08973248 6.08973248,7.84615385 3.92307692,7.84615385 C1.75642137,7.84615385 0,6.08973248 0,3.92307692 C0,1.75642137 1.75642137,0 3.92307692,0 Z"></path></clipPath></defs><g transform="translate(-1282.0 -1110.0)"><g clip-path="url(#i0)"><g transform="translate(1282.0 1110.0)"><g clip-path="url(#i1)"><polygon points="0,0 30,0 30,30 0,30 0,0" stroke="none" fill="#FFFFFF"></polygon><g transform="translate(7.0 7.000000000001819)"><g clip-path="url(#i2)"><polygon points="0,0 7.84615385,0 7.84615385,7.84615385 0,7.84615385 0,0" stroke="none" fill="#3F5B73"></polygon></g><g transform="translate(9.153846153846153 0.0)"><g clip-path="url(#i3)"><polygon points="0,0 7.84615385,0 7.84615385,7.84615385 0,7.84615385 0,0" stroke="none" fill="#3F5B73"></polygon></g></g><g transform="translate(0.0 9.153846153843915)"><g clip-path="url(#i4)"><polygon points="0,0 7.84615385,0 7.84615385,7.84615385 0,7.84615385 0,0" stroke="none" fill="#3F5B73"></polygon></g></g><g transform="translate(9.153846153846189 9.153846153843915)"><g clip-path="url(#i5)"><polygon points="0,0 7.84615385,0 7.84615385,7.84615385 0,7.84615385 0,0" stroke="none" fill="#F3CC53"></polygon></g></g></g></g></g></g></g></svg>