<?xml version="1.0" encoding="UTF-8"?><svg version="1.1" width="30px" height="30px" viewBox="0 0 30.0 30.0" xmlns="http://www.w3.org/2000/svg" xmlns:xlink="http://www.w3.org/1999/xlink"><defs><clipPath id="i0"><path d="M2655,0 L2655,1581 L0,1581 L0,0 L2655,0 Z"></path></clipPath><clipPath id="i1"><path d="M15,0 C23.2842712,0 30,6.71572875 30,15 C30,23.2842712 23.2842712,30 15,30 C6.71572875,30 0,23.2842712 0,15 C0,6.71572875 6.71572875,0 15,0 Z"></path></clipPath><clipPath id="i2"><path d="M12.1736953,11.2355508 L12.6783984,12.1614961 L8.03425781,14.7241758 L7.52958984,13.7982305 L12.1736953,11.2355508 Z M1.63919531,11.109375 L6.20557031,13.78125 L5.67822656,14.6948203 L1.11185156,12.0229453 L1.63919531,11.109375 Z M7.3828125,11.5661602 L7.3828125,13.7106914 L6.328125,13.7106914 L6.328125,11.5661602 L7.3828125,11.5661602 Z M10.772795,9.0018552 L12.5998182,10.0567185 L12.0723866,10.9702301 L10.2453634,9.9153668 L10.772795,9.0018552 Z M2.9390343,8.99876137 L3.46646595,9.91227298 L1.63944274,10.9671363 L1.1120111,10.0536247 L2.9390343,8.99876137 Z M13.7109375,4.71069141 L13.7109375,9.98620312 L12.65625,9.98620312 L12.65625,4.71069141 L13.7109375,4.71069141 Z M1.0546875,4.71069141 L1.0546875,9.98620312 L0,9.98620312 L0,4.71069141 L1.0546875,4.71069141 Z M1.63869152,3.72733242 L3.46571473,4.7821957 L2.93828309,5.6957073 L1.11125988,4.64084402 L1.63869152,3.72733242 Z M12.0717186,3.72495473 L12.5991502,4.63846634 L10.772127,5.69332962 L10.2446954,4.77981802 L12.0717186,3.72495473 Z M8.03271094,0 L12.5990859,2.671875 L12.0717422,3.58544531 L7.50536719,0.913570313 L8.03271094,0 Z M5.67822656,0 L6.20557031,0.913570313 L1.63919531,3.58544531 L1.11185156,2.671875 L5.67822656,0 Z M7.3828125,0.984128906 L7.3828125,3.12866016 L6.328125,3.12866016 L6.328125,0.984128906 L7.3828125,0.984128906 Z"></path></clipPath><clipPath id="i3"><path d="M2.37213419,0.211447628 C3.12813419,0.648158565 3.38765763,1.61787341 2.95147403,2.37281872 C2.51180997,3.13419763 1.5430795,3.38651403 0.790595127,2.95219372 C0.0356146584,2.51601013 -0.224436123,1.54678747 0.211255283,0.791314815 C0.647438877,0.0358421589 1.61613419,-0.224735966 2.37213419,0.211447628 Z"></path></clipPath><clipPath id="i4"><path d="M2.37259052,0.212591565 C3.12757099,0.648775158 3.38762177,1.61799781 2.95193036,2.37347047 C2.51486786,3.13003297 1.54515302,3.38825563 0.791051454,2.9533025 C0.0350514541,2.51659156 -0.22450714,1.54687672 0.21171161,0.791931408 C0.645012392,0.0415915647 1.60822333,-0.228373279 2.37259052,0.212591565 Z"></path></clipPath><clipPath id="i5"><path d="M2.95146638,0.79212197 C3.38764998,1.5465751 3.12809138,2.51628994 2.37314607,2.95300088 C1.62248982,3.38503603 0.651403884,3.13479385 0.211247634,2.37362588 C-0.224443773,1.61762588 0.035642165,0.648438376 0.790587477,0.212254783 C1.54349373,-0.223155374 2.5127867,0.0313758763 2.95146638,0.79212197 Z"></path></clipPath><clipPath id="i6"><path d="M2.95194339,0.791040536 C3.3876348,1.54704054 3.12754886,2.51622804 2.37260355,2.95241163 C1.61227933,3.39130226 0.646712921,3.12696241 0.211724639,2.3725796 C-0.224458954,1.61812647 0.0350996393,0.64841163 0.790044952,0.211700693 C1.54551761,-0.225010245 2.51523245,0.036095224 2.95194339,0.791040536 Z"></path></clipPath><clipPath id="i7"><path d="M0.52734375,0 L0.52734375,2.14453125 L0,2.14453125 L0,0 L0.52734375,0 Z"></path></clipPath><clipPath id="i8"><path d="M1.58203125,0 C2.45439844,0 3.1640625,0.709664063 3.1640625,1.58203125 C3.1640625,2.45439844 2.45439844,3.1640625 1.58203125,3.1640625 C0.709664063,3.1640625 0,2.45439844 0,1.58203125 C0,0.709664063 0.709664063,0 1.58203125,0 Z"></path></clipPath><clipPath id="i9"><path d="M1.58203125,0 C2.45439844,0 3.1640625,0.709664062 3.1640625,1.58203125 C3.1640625,2.45439844 2.45439844,3.1640625 1.58203125,3.1640625 C0.709664063,3.1640625 0,2.45439844 0,1.58203125 C0,0.709664062 0.709664063,0 1.58203125,0 Z"></path></clipPath><clipPath id="i10"><path d="M4.74609375,0 C7.36168359,0 9.4921875,2.13043359 9.4921875,4.74609375 C9.4921875,6.60234375 8.41637109,8.21598047 6.85546875,8.99644922 L4.74609375,7.91015625 L2.63671875,8.99644922 C1.07581641,8.21598047 0,6.60234375 0,4.74609375 C0,2.13043359 2.13050391,0 4.74609375,0 Z"></path></clipPath><clipPath id="i11"><path d="M0,0 C2.61558984,0 4.74609375,2.13043359 4.74609375,4.74609375 C4.74609375,6.60234375 3.67027734,8.21598047 2.109375,8.99644922 L0,7.91015625 Z"></path></clipPath><clipPath id="i12"><path d="M1.58203125,0 C2.45439844,0 3.1640625,0.709664063 3.1640625,1.58203125 C3.1640625,2.45439844 2.45439844,3.1640625 1.58203125,3.1640625 C0.709664063,3.1640625 0,2.45439844 0,1.58203125 C0,0.709664063 0.709664063,0 1.58203125,0 Z"></path></clipPath><clipPath id="i13"><path d="M2.109375,0 C3.26949609,0 4.21875,0.949183594 4.21875,2.109375 L4.21875,3.19566797 C3.58597266,3.51207422 2.86871484,3.69140625 2.109375,3.69140625 C1.35003516,3.69140625 0.632777344,3.51207422 0,3.19566797 L0,2.109375 C0,0.949183594 0.949253906,0 2.109375,0 Z"></path></clipPath><clipPath id="i14"><path d="M0,0 C1.16012109,0 2.109375,0.949183594 2.109375,2.109375 L2.109375,3.19566797 C1.47659766,3.51207422 0.759339844,3.69140625 0,3.69140625 Z"></path></clipPath><clipPath id="i15"><path d="M0,0 C0.872367188,0 1.58203125,0.709664063 1.58203125,1.58203125 C1.58203125,2.45439844 0.872367188,3.1640625 0,3.1640625 Z"></path></clipPath></defs><g transform="translate(-1280.0 -749.0)"><g clip-path="url(#i0)"><g transform="translate(1280.0 749.0)"><g clip-path="url(#i1)"><polygon points="0,0 30,0 30,30 0,30 0,0" stroke="none" fill="#FFFFFF"></polygon><g transform="translate(7.000000000000001 6.0)"><g transform="translate(1.1196851337049338 1.652589843750321)"><g clip-path="url(#i2)"><polygon points="0,0 13.7109375,0 13.7109375,14.7241758 0,14.7241758 0,0" stroke="none" fill="#3F5B73"></polygon></g></g><g transform="translate(0.0 3.7265024322587115)"><g transform="translate(2.750659783212761e-05 0.00025306509602107674)"><g clip-path="url(#i3)"><polygon points="0,2.22044605e-16 3.16320634,2.22044605e-16 3.16320634,3.16422837 0,3.16422837 0,2.22044605e-16" stroke="none" fill="#F3CC53"></polygon></g></g><g transform="translate(12.78712977334025 7.381956784281645)"><g clip-path="url(#i4)"><polygon points="6.66133815e-16,-7.77156117e-16 3.16318564,-7.77156117e-16 3.16318564,3.16444948 6.66133815e-16,3.16444948 6.66133815e-16,-7.77156117e-16" stroke="none" fill="#F3CC53"></polygon></g></g><g transform="translate(0.0 7.382293566423684)"><g clip-path="url(#i5)"><polygon points="-5.55111512e-17,5.82867088e-16 3.16319102,5.82867088e-16 3.16319102,3.16397372 -5.55111512e-17,3.16397372 -5.55111512e-17,5.82867088e-16" stroke="none" fill="#F3CC53"></polygon></g></g><g transform="translate(12.78711674436695 0.0)"><g clip-path="url(#i6)"><polygon points="5.27355937e-16,2.77555756e-17 3.16319102,2.77555756e-17 3.16319102,3.16483413 5.27355937e-16,3.16483413 5.27355937e-16,2.77555756e-17" stroke="none" fill="#F3CC53"></polygon></g></g></g><g transform="translate(7.975153883704891 2.63671875)"><g clip-path="url(#i7)"><polygon points="0,0 0.52734375,0 0.52734375,2.14453125 0,2.14453125 0,0" stroke="none" fill="#E1E6F0"></polygon></g></g><g transform="translate(6.393122633704891 0.0)"><g clip-path="url(#i8)"><polygon points="0,0 3.1640625,0 3.1640625,3.1640625 0,3.1640625 0,0" stroke="none" fill="#F3CC53"></polygon></g></g><g transform="translate(6.393122633704891 14.8359375)"><g clip-path="url(#i9)"><polygon points="0,0 3.1640625,0 3.1640625,3.1640625 0,3.1640625 0,0" stroke="none" fill="#F3CC53"></polygon></g></g><g transform="translate(3.229060133704894 4.25390625)"><g clip-path="url(#i10)"><polygon points="0,0 9.4921875,0 9.4921875,8.99644922 0,8.99644922 0,0" stroke="none" fill="#3F5B73"></polygon></g></g><g transform="translate(7.975153883704891 4.25390625)"><g clip-path="url(#i11)"><polygon points="0,0 4.74609375,0 4.74609375,8.99644922 0,8.99644922 0,0" stroke="none" fill="#3F5B73"></polygon></g></g><g transform="translate(6.393122633704891 6.36328125)"><g clip-path="url(#i12)"><polygon points="0,0 3.1640625,0 3.1640625,3.1640625 0,3.1640625 0,0" stroke="none" fill="#E7E8E8"></polygon></g></g><g transform="translate(5.865778883704893 10.0546875)"><g clip-path="url(#i13)"><polygon points="0,0 4.21875,0 4.21875,3.69140625 0,3.69140625 0,0" stroke="none" fill="#E7E8E8"></polygon></g></g><g transform="translate(7.975153883704891 6.36328125)"><g transform="translate(0.0 3.69140625)"><g clip-path="url(#i14)"><polygon points="0,0 2.109375,0 2.109375,3.69140625 0,3.69140625 0,0" stroke="none" fill="#E7E8E8"></polygon></g></g><g clip-path="url(#i15)"><polygon points="0,0 1.58203125,0 1.58203125,3.1640625 0,3.1640625 0,0" stroke="none" fill="#E7E8E8"></polygon></g></g></g></g></g></g></g></svg>