<?xml version="1.0" encoding="UTF-8"?><svg version="1.1" width="30px" height="30px" viewBox="0 0 30.0 30.0" xmlns="http://www.w3.org/2000/svg" xmlns:xlink="http://www.w3.org/1999/xlink"><defs><clipPath id="i0"><path d="M2655,0 L2655,1581 L0,1581 L0,0 L2655,0 Z"></path></clipPath><clipPath id="i1"><path d="M15,0 C23.2842712,0 30,6.71572875 30,15 C30,23.2842712 23.2842712,30 15,30 C6.71572875,30 0,23.2842712 0,15 C0,6.71572875 6.71572875,0 15,0 Z"></path></clipPath><clipPath id="i2"><path d="M4.70810194,0 C4.70810194,0 4.92445198,0.0223701231 5.21547462,0.0447754194 L5.87954369,0.67898248 L6.64807701,1.41765379 L6.55849099,1.85042423 C6.55852617,2.89499642 6.39437308,3.82019095 5.38711959,4.72298018 C3.75308058,6.19290128 1.20872529,5.93177581 1.09680432,5.92428393 L0.67898248,5.87950851 L0,5.81236297 L0.783446734,5.02891624 C1.13415821,4.67820476 1.1491068,4.23055609 1.14903645,3.5142549 C1.16398504,1.06690715 2.7234218,-7.03462992e-05 4.70810194,0 Z"></path></clipPath><clipPath id="i3"><path d="M5.20056121,0 L5.96909453,0.738671315 L5.87950851,1.17144175 C5.87954369,2.21604912 5.7153906,3.14124364 4.70813711,4.04403288 C3.0740981,5.51395397 0.529742806,5.25282851 0.417821844,5.24533663 L0,5.20056121 L5.20056121,0 Z"></path></clipPath><clipPath id="i4"><path d="M8.52407211,0 L9.7327974,1.20872529 C9.5591055,1.43012344 8.21533961,3.13259248 6.76626743,4.96030296 L6.35030112,5.48474267 C4.75183096,7.49917929 3.14868277,9.50895547 2.93973667,9.7327974 L1.47734263,9.7626594 L0.335727713,8.62104449 C0.208893335,7.80773575 0.052196954,6.84522251 0,6.79306073 C0.223841924,6.58411463 2.23361811,4.98097523 4.24805473,3.38250947 L4.77249444,2.96654419 C6.60020492,1.51747524 8.30267396,0.173707952 8.52407211,0 Z"></path></clipPath><clipPath id="i5"><path d="M8.40472962,0 L9.00910985,0.60438023 C8.81885828,0.846863923 7.22506615,2.86596099 5.62660038,4.88039322 L5.21042307,5.40462024 C3.75986986,7.23084591 2.40682599,8.92405582 2.21604912,9.12841717 L0.753619903,9.15827917 L0,8.40465927 L8.40472962,0 Z"></path></clipPath><clipPath id="i6"><path d="M3.55906549,0 L6.49880216,2.93973667 C6.26008199,3.20831884 5.87208698,3.61126244 5.77507943,3.70826999 C4.60363769,4.86476315 3.26062131,5.81978451 1.85038905,6.49880216 L0,4.6484131 C0.679017653,3.23821602 1.63403901,1.89516447 2.79053217,0.723722726 C2.88753972,0.62671518 3.29048332,0.238720166 3.55906549,0 Z"></path></clipPath><clipPath id="i7"><path d="M4.10375688,0 L5.57360763,1.46985075 C5.33488747,1.73846809 4.94689245,2.14141169 4.84988491,2.23841924 C3.67844316,3.3949124 2.33542679,4.34993376 0.925194527,5.02895141 L0,4.10375688 L4.10375688,0 Z"></path></clipPath></defs><g transform="translate(-1280.0 -658.0)"><g clip-path="url(#i0)"><g transform="translate(1280.0 658.0)"><g clip-path="url(#i1)"><polygon points="0,0 30,0 30,30 0,30 0,0" stroke="none" fill="#FFFFFF"></polygon><g transform="translate(6.0 6.0)"><g transform="translate(0.0 11.44147383313077)"><g clip-path="url(#i2)"><polygon points="0,0 6.64807701,0 6.64807701,5.9467577 0,5.9467577 0,0" stroke="none" fill="#F3CC53"></polygon></g></g><g transform="translate(0.6789824798634072 12.120421139845348)"><g clip-path="url(#i3)"><polygon points="0,0 5.96909453,0 5.96909453,5.26781039 0,5.26781039 0,0" stroke="none" fill="#F3CC53"></polygon></g></g><g transform="translate(8.267167428100212 0.0)"><g clip-path="url(#i4)"><polygon points="0,0 9.7327974,0 9.7327974,9.7626594 0,9.7626594 0,0" stroke="none" fill="#3F5B73"></polygon></g></g><g transform="translate(8.990890154253975 0.6043802295625937)"><g clip-path="url(#i5)"><polygon points="0,0 9.00910985,0 9.00910985,9.15827917 0,9.15827917 0,0" stroke="none" fill="#3F5B73"></polygon></g></g><g transform="translate(4.708101939603694 6.793060728396085)"><g clip-path="url(#i6)"><polygon points="0,0 6.49880216,0 6.49880216,6.49880216 0,6.49880216 0,0" stroke="none" fill="#3F5B73"></polygon></g></g><g transform="translate(5.633296466661713 8.26291147699872)"><g clip-path="url(#i7)"><polygon points="0,0 5.57360763,0 5.57360763,5.02895141 0,5.02895141 0,0" stroke="none" fill="#3F5B73"></polygon></g></g></g></g></g></g></g></svg>