<?xml version="1.0" encoding="UTF-8"?><svg version="1.1" width="30px" height="30px" viewBox="0 0 30.0 30.0" xmlns="http://www.w3.org/2000/svg" xmlns:xlink="http://www.w3.org/1999/xlink"><defs><clipPath id="i0"><path d="M2655,0 L2655,1581 L0,1581 L0,0 L2655,0 Z"></path></clipPath><clipPath id="i1"><path d="M15,0 C23.2842712,0 30,6.71572875 30,15 C30,23.2842712 23.2842712,30 15,30 C6.71572875,30 0,23.2842712 0,15 C0,6.71572875 6.71572875,0 15,0 Z"></path></clipPath><clipPath id="i2"><path d="M17.8993481,1.54234614 L17.8993481,4.01954622 L10.2328515,4.01954622 C10.2328515,4.43763734 9.89414473,4.77675117 9.47646071,4.77675117 L8.42288736,4.77675117 C8.00520334,4.77675117 7.66649661,4.43763734 7.66649661,4.01954622 L0,4.01954622 L0,1.54234614 C0.887981022,1.45471799 2.07753788,1.11573169 3.30522705,0.777799928 L3.79771198,0.643281777 C6.0174258,0.0435879879 8.2468807,-0.443646829 8.94967403,0.65364807 C10.0948855,-1.13441408 15.2948073,1.28534427 17.8993481,1.54234614 Z"></path></clipPath><clipPath id="i3"><path d="M4.80947275,0.61047278 C3.91112643,0.420275923 2.61834145,0.206304459 1.84591098,0.643692095 C1.20558427,1.00625485 0.990106542,0.454146596 0,0.395524277 C0.968693112,-0.438256081 3.46376485,0.249701259 4.80947275,0.61047278 Z"></path></clipPath><clipPath id="i4"><path d="M8.72251255,0.394218274 C6.63694213,0.478487857 3.47907179,1.78894095 1.62839775,1.97702089 L1.62839775,4.01984586 L0,4.01984586 L0,1.54264579 C2.45717078,1.30017736 7.24343887,-0.873367245 8.72251255,0.394218274 Z"></path></clipPath><clipPath id="i5"><path d="M8.48720907,0 C8.6670656,0 8.81288862,0.145823019 8.81288862,0.32567955 C8.81288862,0.563629171 9.00609802,0.757204954 9.24359983,0.757204954 L10.2971732,0.757204954 C10.534675,0.757204954 10.7278844,0.563629171 10.7278844,0.32567955 C10.7278844,0.145823019 10.8737074,0 11.0535639,0 L19.2150935,0 C19.39495,0 19.540773,0.145823019 19.540773,0.32567955 C19.540773,0.505536081 19.39495,0.6513591 19.2150935,0.6513591 L11.3292517,0.6513591 C11.1908379,1.0898459 10.7804816,1.40856405 10.2971732,1.40856405 L9.24359983,1.40856405 C8.76025067,1.40856405 8.34993514,1.0898459 8.21152133,0.6513591 L0.32567955,0.6513591 C0.145823019,0.6513591 0,0.505536081 0,0.32567955 C0,0.145823019 0.145823019,0 0.32567955,0 L8.48720907,0 Z"></path></clipPath><clipPath id="i6"><path d="M8.12842937,0 C8.09814118,2.64427369 7.52368316,5.65338989 6.26717075,7.90994207 C5.0076458,10.1699546 3.11670962,11.5586522 0.634542929,10.9009016 C0.631693233,10.8964643 0.628843537,10.8923525 0.625993841,10.8879152 C-2.48994525,6.19035405 6.98040896,1.58402391 8.12842937,0 Z"></path></clipPath><clipPath id="i7"><path d="M8.12842937,0 C8.11601284,1.10926455 7.57269793,2.08443054 6.74030171,2.69487615 C4.11833708,4.61772892 0.639143153,7.37582761 1.30414008,10.2680656 C1.39370196,10.657619 1.03097636,11.0051191 0.644394736,10.9035071 C0.632507432,10.9003724 0.635927068,10.9034664 0.625993841,10.8879152 C-2.48994525,6.19035405 6.98040896,1.58402391 8.12842937,0 Z"></path></clipPath><clipPath id="i8"><path d="M6.45582043,0.142774797 C6.55686251,0.291569641 6.51814735,0.494142321 6.3693118,0.595143692 C3.2480397,2.71450336 1.26436627,5.88336539 0.646959265,9.57457669 C0.620334962,9.73383399 0.482409672,9.84660054 0.326164908,9.84660054 C0.125139206,9.84660054 -0.0287850912,9.66637762 0.00455635273,9.46718386 C0.656159712,5.57067231 2.75711849,2.26046536 6.00341082,0.0563068765 C6.15224638,-0.0447759139 6.35473764,-0.00606075736 6.45582043,0.142774797 Z"></path></clipPath><clipPath id="i9"><path d="M3.25316116,0.0320832005 C3.03686922,0.420211804 2.78788721,0.789695254 2.7837755,0.789695254 C1.95117573,1.07702604 1.07652259,1.09135594 0.230447832,0.832440695 C0.0586518692,0.779924867 -0.038237797,0.597951419 0.0142780305,0.425748357 C0.0667938579,0.253952394 0.248767306,0.156696338 0.420970369,0.209578555 C2.11230569,0.726350581 2.89483223,-0.17728804 3.25316116,0.0320832005 Z"></path></clipPath><clipPath id="i10"><path d="M1.68520227,0.010260805 C1.61778661,0.251833611 1.55680311,0.457459537 1.47717446,0.701882039 C1.0953559,0.80968197 0.704377599,0.854137229 0.314091369,0.840295848 C0.134153417,0.834189357 -0.00629588865,0.683155465 0.000217702353,0.503624613 C0.00632419392,0.323645952 0.156950986,0.184417944 0.336888937,0.189303138 C1.17946264,0.219672756 1.45775582,-0.0557707237 1.68520227,0.010260805 Z"></path></clipPath></defs><g transform="translate(-1131.0 -476.0)"><g clip-path="url(#i0)"><g transform="translate(1131.0 476.0)"><g clip-path="url(#i1)"><polygon points="0,0 30,0 30,30 0,30 0,0" stroke="none" fill="#FFFFFF"></polygon><g transform="translate(5.0 6.0)"><g transform="translate(0.8207124660000016 13.868403064912682)"><g clip-path="url(#i2)"><polygon points="0,8.8817842e-16 17.8993481,8.8817842e-16 17.8993481,4.77675117 0,4.77675117 0,8.8817842e-16" stroke="none" fill="#3F5B73"></polygon></g></g><g transform="translate(9.994698290062491 13.86924001259312)"><g clip-path="url(#i3)"><polygon points="0,-1.66533454e-16 4.80947275,-1.66533454e-16 4.80947275,0.766176467 0,0.766176467 0,-1.66533454e-16" stroke="none" fill="#3F5B73"></polygon></g></g><g transform="translate(0.8207124659999989 13.868103419686651)"><g clip-path="url(#i4)"><polygon points="0,-1.77635684e-15 8.72251255,-1.77635684e-15 8.72251255,4.01984586 0,4.01984586 0,-1.77635684e-15" stroke="none" fill="#3F5B73"></polygon></g></g><g transform="translate(0.0 17.56226973375003)"><g clip-path="url(#i5)"><polygon points="0,0 19.540773,0 19.540773,1.40856405 0,1.40856405 0,0" stroke="none" fill="#3F5B73"></polygon></g></g><g transform="translate(7.46795717508347 0.0)"><g clip-path="url(#i6)"><polygon points="6.66133815e-16,0 8.12842937,0 8.12842937,11.0647076 6.66133815e-16,11.0647076 6.66133815e-16,0" stroke="none" fill="#F3CC53"></polygon></g></g><g transform="translate(7.46795717508347 1.7763568394002505e-15)"><g clip-path="url(#i7)"><polygon points="2.22044605e-16,0 8.12842937,0 8.12842937,10.9213893 2.22044605e-16,10.9213893 2.22044605e-16,0" stroke="none" fill="#F3CC53"></polygon></g></g><g transform="translate(7.386333935081307 3.042615461673642)"><g clip-path="url(#i8)"><polygon points="2.22044605e-16,1.2490009e-16 6.51209646,1.2490009e-16 6.51209646,9.84660054 2.22044605e-16,9.84660054 2.22044605e-16,1.2490009e-16" stroke="none" fill="#F3CC53"></polygon></g><g transform="translate(3.0956328314959265 4.835243408425785)"><g clip-path="url(#i9)"><polygon points="1.11022302e-16,-3.60822483e-16 3.25316116,-3.60822483e-16 3.25316116,1.01646932 1.11022302e-16,1.01646932 1.11022302e-16,-3.60822483e-16" stroke="none" fill="#F3CC53"></polygon></g></g><g transform="translate(5.84255168356573 1.896231594983261)"><g clip-path="url(#i10)"><polygon points="7.21644966e-16,-8.32667268e-16 1.68520227,-8.32667268e-16 1.68520227,0.842752238 7.21644966e-16,0.842752238 7.21644966e-16,-8.32667268e-16" stroke="none" fill="#F3CC53"></polygon></g></g></g></g></g></g></g></g></svg>