<?xml version="1.0" encoding="UTF-8"?><svg version="1.1" width="30px" height="30px" viewBox="0 0 30.0 30.0" xmlns="http://www.w3.org/2000/svg" xmlns:xlink="http://www.w3.org/1999/xlink"><defs><clipPath id="i0"><path d="M2655,0 L2655,1581 L0,1581 L0,0 L2655,0 Z"></path></clipPath><clipPath id="i1"><path d="M15,0 C23.2842712,0 30,6.71572875 30,15 C30,23.2842712 23.2842712,30 15,30 C6.71572875,30 0,23.2842712 0,15 C0,6.71572875 6.71572875,0 15,0 Z"></path></clipPath><clipPath id="i2"><path d="M18.5449791,0 C19.3485315,0 19.999941,0.651409557 19.999941,1.45496187 L19.999941,10.6725121 C19.999941,11.0583923 19.8466523,11.4284682 19.5737937,11.7013267 C19.3009352,11.9741852 18.9308594,12.1274751 18.5449791,12.127474 L7.12334312,12.127474 L5.7182672,14.8498013 C5.09083766,16.0654315 3.27564312,15.7748451 3.05905143,14.4240939 L2.69080446,12.1274822 L1.45495776,12.1274822 C1.06907792,12.1274833 0.699002468,11.9741933 0.426144604,11.7013347 C0.153286741,11.428476 0,11.0584001 0,10.6725203 L0,1.45496187 C0,0.651410222 0.651406112,0 1.45495776,0 Z"></path></clipPath><clipPath id="i3"><path d="M2.04428571,0 C3.51642857,0 4.52571429,0.887142857 4.52571429,2.25 C4.52571429,3.61285714 3.51642857,4.5 2.04428571,4.5 L0,4.5 L0,0 Z M1.99285714,0.855 L1.04142857,0.855 L1.04142857,3.645 L1.99285714,3.645 C2.88642857,3.645 3.47142857,3.11142857 3.47142857,2.25 C3.47142857,1.38857143 2.88642857,0.855 1.99285714,0.855 Z"></path></clipPath><clipPath id="i4"><path d="M3.40071429,0 L3.40071429,0.835714286 L1.035,0.835714286 L1.035,1.81285714 L3.12428571,1.81285714 L3.12428571,2.62285714 L1.035,2.62285714 L1.035,3.66428571 L3.48428571,3.66428571 L3.48428571,4.5 L0,4.5 L0,0 L3.40071429,0 Z"></path></clipPath></defs><g transform="translate(-1280.0 -108.0)"><g clip-path="url(#i0)"><g transform="translate(1280.0 108.0)"><g clip-path="url(#i1)"><polygon points="0,0 30,0 30,30 0,30 0,0" stroke="none" fill="#FFFFFF"></polygon><g transform="translate(5.000058992348386 8.0)"><g clip-path="url(#i2)"><polygon points="0,0 19.999941,0 19.999941,15.6179345 0,15.6179345 0,0" stroke="none" fill="#3F5B73"></polygon></g><g transform="translate(4.999999999999994 4.0)"><g clip-path="url(#i3)"><polygon points="0,0 4.52571429,0 4.52571429,4.5 0,4.5 0,0" stroke="none" fill="#F3CC53"></polygon></g><g transform="translate(5.309999999999894 0.0)"><g clip-path="url(#i4)"><polygon points="0,0 3.48428571,0 3.48428571,4.5 0,4.5 0,0" stroke="none" fill="#F3CC53"></polygon></g></g></g></g></g></g></g></g></svg>