<?xml version="1.0" encoding="UTF-8"?><svg version="1.1" width="30px" height="30px" viewBox="0 0 30.0 30.0" xmlns="http://www.w3.org/2000/svg" xmlns:xlink="http://www.w3.org/1999/xlink"><defs><clipPath id="i0"><path d="M2655,0 L2655,1581 L0,1581 L0,0 L2655,0 Z"></path></clipPath><clipPath id="i1"><path d="M15,0 C23.2842712,0 30,6.71572875 30,15 C30,23.2842712 23.2842712,30 15,30 C6.71572875,30 0,23.2842712 0,15 C0,6.71572875 6.71572875,0 15,0 Z"></path></clipPath><clipPath id="i2"><path d="M18.5449791,0 C19.3485315,0 19.999941,0.651409557 19.999941,1.45496187 L19.999941,10.6725121 C19.999941,11.0583923 19.8466523,11.4284682 19.5737937,11.7013267 C19.3009352,11.9741852 18.9308594,12.1274751 18.5449791,12.127474 L7.12334312,12.127474 L5.7182672,14.8498013 C5.09083766,16.0654315 3.27564312,15.7748451 3.05905143,14.4240939 L2.69080446,12.1274822 L1.45495776,12.1274822 C1.06907792,12.1274833 0.699002468,11.9741933 0.426144604,11.7013347 C0.153286741,11.428476 0,11.0584001 0,10.6725203 L0,1.45496187 C0,0.651410222 0.651406112,0 1.45495776,0 Z"></path></clipPath><clipPath id="i3"><path d="M5.55,0 C6.078,0 6.618,0.126 7.008,0.372 L6.708,1.11 C6.318,0.888 5.916,0.78 5.544,0.78 C4.968,0.78 4.746,0.996 4.746,1.26 C4.746,2.034 7.188,1.5 7.188,3.042 C7.188,3.744 6.606,4.344 5.406,4.344 C4.74,4.344 4.068,4.146 3.696,3.858 L4.026,3.126 C4.38,3.384 4.908,3.564 5.412,3.564 C5.988,3.564 6.222,3.372 6.222,3.114 C6.222,2.328 3.78,2.868 3.78,1.308 C3.78,0.594 4.356,0 5.55,0 Z M3.174,0.072 L3.174,0.852 L0.966,0.852 L0.966,1.764 L2.916,1.764 L2.916,2.52 L0.966,2.52 L0.966,3.492 L3.252,3.492 L3.252,4.272 L0,4.272 L0,0.072 L3.174,0.072 Z M9.672,0.072 C10.794,0.072 11.496,0.654 11.496,1.596 C11.496,2.532 10.794,3.114 9.672,3.114 L8.826,3.114 L8.826,4.272 L7.854,4.272 L7.854,0.072 Z M9.618,0.864 L8.826,0.864 L8.826,2.322 L9.618,2.322 C10.212,2.322 10.512,2.052 10.512,1.596 C10.512,1.134 10.212,0.864 9.618,0.864 Z"></path></clipPath></defs><g transform="translate(-1280.0 -931.0)"><g clip-path="url(#i0)"><g transform="translate(1280.0 931.0)"><g clip-path="url(#i1)"><polygon points="0,0 30,0 30,30 0,30 0,0" stroke="none" fill="#FFFFFF"></polygon><g transform="translate(5.000000000000012 6.99999999999935)"><g clip-path="url(#i2)"><polygon points="0,0 19.999941,0 19.999941,15.6179345 0,15.6179345 0,0" stroke="none" fill="#3F5B73"></polygon></g><g transform="translate(4.375000000000455 3.727999999999156)"><g clip-path="url(#i3)"><polygon points="0,0 11.496,0 11.496,4.344 0,4.344 0,0" stroke="none" fill="#F3CC53"></polygon></g></g></g></g></g></g></g></svg>