<?xml version="1.0" encoding="UTF-8"?><svg version="1.1" width="30px" height="30px" viewBox="0 0 30.0 30.0" xmlns="http://www.w3.org/2000/svg" xmlns:xlink="http://www.w3.org/1999/xlink"><defs><clipPath id="i0"><path d="M2655,0 L2655,1581 L0,1581 L0,0 L2655,0 Z"></path></clipPath><clipPath id="i1"><path d="M15,0 C23.2842712,0 30,6.71572875 30,15 C30,23.2842712 23.2842712,30 15,30 C6.71572875,30 0,23.2842712 0,15 C0,6.71572875 6.71572875,0 15,0 Z"></path></clipPath><clipPath id="i2"><path d="M14.8518112,9.04240899 C15.4842607,9.04240899 16.0000719,9.55822022 16.0000719,10.1906697 L16.0000719,14.8517753 C16.0000719,15.4841888 15.4842247,16 14.8518112,16 L10.1907056,16 C9.55825618,16 9.04244494,15.4841888 9.04244494,14.8517393 L9.04244494,10.1906697 C9.04244494,9.55822022 9.55825618,9.04240899 10.1907056,9.04240899 L14.8518112,9.04240899 Z M5.80936629,9.04240899 C6.44181573,9.04240899 6.95762697,9.55822022 6.95762697,10.1906697 L6.95762697,14.8517393 C6.95762697,15.4841888 6.44177978,16 5.80936629,16 L1.14826067,16 C0.515847191,16 0,15.4841888 0,14.8517753 L0,10.1906697 C0,9.55822022 0.515847191,9.04240899 1.14826067,9.04240899 Z M14.8518112,0 C15.4842247,0 16.0000719,0.515811236 16.0000719,1.14826067 L16.0000719,5.80936629 C16.0000719,6.44181573 15.4842607,6.95762697 14.8518112,6.95762697 L10.1907056,6.95762697 C9.55825618,6.95762697 9.04244494,6.44181573 9.04244494,5.80936629 L9.04244494,1.14826067 C9.04244494,0.515811236 9.55825618,0 10.1907056,0 Z M5.80936629,0 C6.44177978,0 6.95762697,0.515811236 6.95762697,1.14826067 L6.95762697,5.80936629 C6.95762697,6.44181573 6.44181573,6.95762697 5.80936629,6.95762697 L1.14826067,6.95762697 C0.515847191,6.95762697 0,6.44181573 0,5.80936629 L0,1.14826067 C0,0.515811236 0.515847191,0 1.14826067,0 L5.80936629,0 Z"></path></clipPath><clipPath id="i3"><path d="M3.30786517,0 C3.54613933,0 3.73932584,0.193186517 3.73932584,0.431460674 C3.73932584,0.669734831 3.54613933,0.862921348 3.30786517,0.862921348 L0.431460674,0.862921348 C0.193186517,0.862921348 0,0.669734831 0,0.431460674 C0,0.193186517 0.193186517,0 0.431460674,0 Z"></path></clipPath><clipPath id="i4"><path d="M3.43311461,0.126364045 C3.6016,0.294849438 3.6016,0.568 3.43311461,0.736485393 L2.3898427,1.7797573 L3.43311461,2.82302921 C3.6016,2.99151461 3.6016,3.26466517 3.43311461,3.43315056 C3.26462921,3.60163596 2.99147865,3.60163596 2.82299326,3.43315056 L1.7797573,2.38991461 L0.736485393,3.43315056 C0.568,3.60163596 0.294849438,3.60163596 0.126364045,3.43315056 C-0.0421213483,3.26466517 -0.0421213483,2.99151461 0.126364045,2.82302921 L1.16963596,1.7797573 L0.126364045,0.736485393 C-0.0421213483,0.568 -0.0421213483,0.294849438 0.126364045,0.126364045 C0.294849438,-0.0421213483 0.568,-0.0421213483 0.736485393,0.126364045 L1.7797573,1.16963596 L2.82299326,0.126364045 C2.99147865,-0.0421213483 3.26462921,-0.0421213483 3.43311461,0.126364045 Z"></path></clipPath><clipPath id="i5"><path d="M3.30786517,0 C3.54613933,0 3.73932584,0.193186517 3.73932584,0.431460674 C3.73932584,0.669734831 3.54613933,0.862921348 3.30786517,0.862921348 L0.431460674,0.862921348 C0.193186517,0.862921348 0,0.669734831 0,0.431460674 C0,0.193186517 0.193186517,0 0.431460674,0 L3.30786517,0 Z"></path></clipPath><clipPath id="i6"><path d="M1.86966292,0 C2.10793708,0 2.3011236,0.193186517 2.3011236,0.431460674 L2.3011236,1.43820225 L3.30786517,1.43820225 C3.54613933,1.43820225 3.73932584,1.63138876 3.73932584,1.86966292 C3.73932584,2.10793708 3.54613933,2.3011236 3.30786517,2.3011236 L2.3011236,2.3011236 L2.3011236,3.30782921 C2.3011236,3.54610337 2.10793708,3.73928989 1.86966292,3.73928989 C1.63138876,3.73928989 1.43820225,3.54610337 1.43820225,3.30782921 L1.43820225,2.3011236 L0.431460674,2.3011236 C0.193186517,2.3011236 0,2.10793708 0,1.86966292 C0,1.63138876 0.193186517,1.43820225 0.431460674,1.43820225 L1.43820225,1.43820225 L1.43820225,0.431460674 C1.43820225,0.193186517 1.63135281,0 1.86966292,0 Z"></path></clipPath></defs><g transform="translate(-1130.0 -108.0)"><g clip-path="url(#i0)"><g transform="translate(1130.0 108.0)"><g clip-path="url(#i1)"><polygon points="0,0 30,0 30,30 0,30 0,0" stroke="none" fill="#FFFFFF"></polygon><g transform="translate(7.0 7.0)"><g clip-path="url(#i2)"><polygon points="0,0 16.0000719,0 16.0000719,16 0,16 0,0" stroke="none" fill="#3F5B73"></polygon></g><g transform="translate(10.65157752808988 11.12305617977528)"><g clip-path="url(#i3)"><polygon points="0,0 3.73932584,0 3.73932584,0.862921348 0,0.862921348 0,0" stroke="none" fill="#F3CC53"></polygon></g></g><g transform="translate(10.65157752808988 13.05643146067416)"><g clip-path="url(#i3)"><polygon points="0,0 3.73932584,0 3.73932584,0.862921348 0,0.862921348 0,0" stroke="none" fill="#F3CC53"></polygon></g></g><g transform="translate(1.69911011235955 10.74148314606741)"><g clip-path="url(#i4)"><polygon points="0,4.99600361e-16 3.55947865,4.99600361e-16 3.55947865,3.55951461 0,3.55951461 0,4.99600361e-16" stroke="none" fill="#F3CC53"></polygon></g></g><g transform="translate(10.65157752808991 3.0473348314611943)"><g clip-path="url(#i5)"><polygon points="0,0 3.73932584,0 3.73932584,0.862921348 0,0.862921348 0,0" stroke="none" fill="#F3CC53"></polygon></g></g><g transform="translate(1.6091685393257662 1.609132584270265)"><g clip-path="url(#i6)"><polygon points="0,0 3.73932584,0 3.73932584,3.73928989 0,3.73928989 0,0" stroke="none" fill="#F3CC53"></polygon></g></g></g></g></g></g></g></svg>