<?xml version="1.0" encoding="UTF-8"?>
<svg id="Ebene_1" data-name="Ebene 1" xmlns="http://www.w3.org/2000/svg" viewBox="22.72 12.53 133.98 133.98" width="30px" height="30px">
  <defs>
    <style>
      .cls-1 {
        fill: #11273c;
      }

      .cls-1, .cls-2, .cls-3 {
        stroke-width: 0px;
      }

      .cls-2 {
        fill: #fff;
      }

      .cls-3 {
        fill: #fdc745;
      }
    </style>
  </defs>
  <circle class="cls-2" cx="89.71" cy="79.52" r="66.99"/>
  <g>
    <path class="cls-3" d="m117.98,116.41c-.42.12-1.03.39-1.65.43-1.44.1-2.45.83-3.48,1.82-2.66,2.56-5.81,4.28-9.55,4.64-2.92.28-5.62-.47-8.13-1.94-1.46-.85-2.86-1.8-3.88-3.2-.29-.4-.54-.82-.8-1.22-.07.02-.13.02-.14.04-1.59,2.84-4.19,4.41-7.08,5.52-4.37,1.68-8.48.84-12.36-1.58-1.52-.95-2.88-2.11-4.11-3.43-.17-.18-.45-.32-.7-.36-3.07-.5-5.9-1.52-8.19-3.75-2.12-2.05-3.2-4.62-3.56-7.51-.12-.97-.08-1.95-.13-2.93-.01-.2-.08-.43-.21-.58-3.05-3.51-3.77-7.54-2.58-11.97.26-.98.65-1.92,1.05-2.85.18-.43.19-.77.01-1.19-1.03-2.44-1.59-4.97-1.4-7.63.21-2.94,1.29-5.5,3.31-7.63.34-.36.43-.67.34-1.16-.59-3.03-.59-6.03.55-8.95,1.04-2.64,2.81-4.65,5.25-6.06.36-.21.49-.42.47-.84-.1-2.26.3-4.41,1.5-6.36,1.47-2.4,3.61-3.92,6.19-4.88.47-.18.8-.44,1.09-.85,1.45-2.02,3.1-3.83,5.22-5.16,3.71-2.32,7.38-2.1,11.03.13,1.84,1.13,3.39,2.55,4.35,4.64.14-.2.22-.32.3-.45,2.31-3.76,5.64-5.83,10.02-5.94,2.65-.07,4.94,1.12,6.85,2.9,1.3,1.21,2.39,2.65,3.59,3.96.27.29.6.58.96.72,3.24,1.24,5.75,3.25,7.05,6.58.6,1.53.78,3.13.69,4.76-.02.36.08.56.41.75,3.69,2.16,5.69,5.42,6.16,9.67.2,1.84.01,3.66-.31,5.48-.05.27.02.66.19.85,3.07,3.25,4,7.12,3.24,11.45-.23,1.32-.69,2.62-1.14,3.89-.19.54-.21.95.04,1.46,1.05,2.15,1.57,4.43,1.51,6.83-.06,2.81-1,5.31-2.82,7.45-.37.44-.53.86-.51,1.44.09,3.12-.66,6.01-2.45,8.59-.75,1.08-1.64,2.05-2.78,2.65-.69.37-1.44.61-2.02,1.17-.04.04-.11.03,0,0m7.7-27.09c-.16.17-.31.32-.44.48-1.49,1.87-3.22,3.46-5.29,4.66-1.75,1.02-3.62,1.7-5.64,1.91-.52.06-.86-.19-.92-.71-.06-.53.26-.81.75-.91.41-.08.82-.12,1.23-.22,4.04-.98,7.05-3.44,9.35-6.83,1.18-1.74,1.71-3.78,1.95-5.85.43-3.73-.54-7.01-3.35-9.6-.42-.38-.46-.79-.38-1.29.18-1.04.4-2.08.48-3.13.26-3.62-.62-6.86-3.31-9.42-.92-.88-1.91-1.75-3.21-1.94-2.54-.37-5.1-.33-7.63.15-4.04.76-7.42,2.49-9.33,6.42-.24.49-.7.62-1.09.38-.45-.27-.54-.66-.33-1.13.62-1.36,1.45-2.58,2.57-3.55.94-.81,1.97-1.52,3-2.3-.03-.09-.08-.26-.14-.43-.85-2.59-.1-5.38,1.9-7.07.49-.41.93-.44,1.26-.07.33.36.2.85-.19,1.32-.5.61-1.02,1.23-1.35,1.94-.57,1.23-.45,2.5.08,3.74.14-.02.2-.02.25-.04,3.38-1.16,6.85-1.41,10.37-1.06.52.05.54-.19.55-.59.03-3.74-1.6-6.52-4.8-8.35-1.9-1.09-3.9-1.76-6.14-1.24-1.77.41-3.15,1.43-4.31,2.81-.36.43-.85.48-1.2.18-.37-.31-.41-.76-.04-1.22,1.39-1.72,3.12-2.94,5.31-3.39.64-.13,1.3-.19,2.15-.31-.96-.98-1.76-1.92-2.69-2.71-3.07-2.64-6.32-3.32-9.89-1.53-3.56,1.78-5.51,4.51-5.4,8.7.13,4.81.03,9.63.03,14.44v.59c1.05-.28,2.02-.58,3.01-.8.6-.13,1.06.2,1.12.69.07.52-.27.8-.9.95-.74.17-1.5.36-2.17.72-.62.33-1.08.89-1.08,1.73.01,10.65,0,21.29,0,31.94,0,.2.02.41.03.61.3-.29.46-.6.63-.91,1.39-2.59,3.34-4.64,5.87-6.12.49-.29.94-.2,1.2.21.25.4.12.86-.35,1.17-.39.27-.81.5-1.19.79-4.12,3.1-5.88,7.42-6.15,12.42-.15,2.77-.04,5.55-.02,8.33.01,1.52.45,2.96,1.48,4.07,2.49,2.67,5.55,4.22,9.22,4.33,2.88.09,5.43-.96,7.75-2.6.9-.63,1.72-1.37,2.68-2.14-.33-.14-.49-.22-.65-.27-1.68-.54-3.21-1.35-4.57-2.49-1.63-1.37-2.74-3.08-3.28-5.16-.16-.63.06-1.07.56-1.18.49-.11.85.16,1.02.76.06.21.11.42.18.63,1.02,2.9,3.2,4.57,5.93,5.64.91.36,1.84.8,2.87.6.95-.18,1.9-.39,2.83-.68,2.32-.74,4.31-2.01,5.73-4.05,1.56-2.25,2.07-4.8,1.98-7.5,0-.21-.25-.52-.45-.59-.99-.35-1.99-.65-3-.92-.74-.2-1.04-.48-.93-1.05.1-.52.53-.76,1.22-.58,1.11.29,2.21.62,3.29,1,.37.13.56.07.79-.21,2.94-3.45,3.01-8.21,1.16-12.16Zm-55.32-46.65c.75.11,1.42.16,2.07.3,2.15.48,3.87,1.67,5.25,3.38.26.32.42.71.09,1.02-.21.2-.57.33-.87.33-.2,0-.4-.28-.59-.44-.75-.64-1.44-1.4-2.27-1.9-2.24-1.35-4.56-1.14-6.89-.13-3.86,1.67-5.98,4.82-5.98,8.89,0,.52.11.7.67.64,2.27-.25,4.55-.2,6.81.2,1.24.22,2.45.56,3.73.86.07-.2.17-.41.23-.64.49-1.99-.06-3.66-1.55-5.03-.42-.39-.48-.91-.16-1.27.32-.36.75-.37,1.2.03,1.83,1.61,2.58,3.63,2.21,6.06-.08.54-.26,1.07-.4,1.62.2.11.37.21.54.31,2.18,1.27,3.89,2.99,4.99,5.29.18.37.25.72-.04,1.06-.44.51-1.06.38-1.41-.34-1.47-2.99-3.92-4.74-6.99-5.71-2.7-.85-5.47-1.01-8.28-.88-1.55.07-2.89.5-4.1,1.48-2.73,2.22-4.02,5.15-4.04,8.62-.01,1.5.28,3.01.49,4.51.07.52.1.95-.35,1.35-2.19,1.96-3.3,4.46-3.44,7.38-.33,7.17,4.51,12.68,10.45,14.64.69.23,1.42.33,2.14.47.49.1.78.38.76.9-.02.45-.38.74-.91.72-.22,0-.43-.04-.65-.08-3.56-.6-6.46-2.4-8.94-4.96-.62-.64-1.18-1.33-1.8-2.03-.08.15-.14.25-.18.35-.58,1.41-.94,2.88-1.04,4.4-.17,2.79.62,5.28,2.4,7.44.24.29.46.3.81.18,1.12-.38,2.26-.72,3.4-1.02.59-.15,1,.14,1.08.63.08.53-.18.81-.79.98-1.05.29-2.09.59-3.12.95-.21.07-.47.41-.48.63-.16,4.45,1.5,8.9,6.26,11,2.3,1.02,4.64,1.75,7.2.62,2.93-1.3,5.24-3.11,6.09-6.39.13-.49.46-.74.98-.65.46.08.73.53.58,1.07-.17.63-.38,1.27-.66,1.85-1.47,3.08-4.05,4.81-7.14,5.9-.19.07-.37.15-.67.27.61.53,1.1.99,1.62,1.41,2.54,2.01,5.34,3.37,8.64,3.36,3.24,0,5.98-1.37,8.44-3.38,1.34-1.09,2.15-2.52,2.31-4.24.21-2.27.21-4.55-.23-6.8-.72-3.72-2.32-6.94-5.31-9.35-.59-.47-1.24-.86-1.85-1.3-.38-.27-.47-.66-.24-1.05.24-.42.62-.54,1.07-.33.13.06.25.13.36.2,2.53,1.58,4.5,3.69,5.84,6.39.1.2.22.38.33.57.11-.19.12-.33.12-.47,0-14,0-28.01-.01-42.01,0-.54-.13-1.11-.31-1.63-.72-2.05-2.14-3.17-4.04-3.24-.64-.03-.97-.29-.98-.79-.01-.52.35-.84,1-.84,1.48,0,2.73.56,3.82,1.54.13.11.25.23.44.41.04-.22.07-.35.07-.48,0-3.26.05-6.51-.05-9.77-.03-.99-.35-2-.73-2.93-.77-1.9-2.33-3.09-4.05-4.07-1.92-1.09-3.96-1.62-6.16-1.08-2.6.64-4.51,2.31-6.23,4.27-.2.23-.38.49-.6.77Z"/>
    <path class="cls-1" d="m127.1,88.76c1.85,3.95,1.78,8.71-1.16,12.16-.24.28-.42.34-.79.21-1.08-.38-2.18-.7-3.29-1-.69-.18-1.13.06-1.22.58-.11.57.19.85.93,1.05,1.01.27,2.01.58,3,.92.2.07.44.38.45.59.1,2.7-.41,5.25-1.98,7.5-1.42,2.04-3.41,3.31-5.73,4.05-.92.29-1.87.5-2.83.68-1.02.19-1.95-.25-2.87-.6-2.73-1.07-4.91-2.74-5.93-5.64-.07-.21-.13-.42-.18-.63-.17-.6-.52-.87-1.02-.76-.51.11-.73.55-.56,1.18.53,2.08,1.65,3.79,3.28,5.16,1.35,1.14,2.89,1.95,4.57,2.49.16.05.32.13.65.27-.96.77-1.78,1.51-2.68,2.14-2.32,1.64-4.87,2.69-7.75,2.6-3.67-.11-6.73-1.67-9.22-4.33-1.04-1.11-1.47-2.55-1.48-4.07-.02-2.78-.13-5.56.02-8.33.26-5,2.03-9.32,6.15-12.42.38-.29.8-.52,1.19-.79.47-.32.6-.78.35-1.17-.26-.41-.71-.5-1.2-.21-2.53,1.48-4.48,3.53-5.87,6.12-.17.31-.33.62-.63.91-.01-.2-.03-.41-.03-.61,0-10.65,0-21.29,0-31.94,0-.84.46-1.39,1.08-1.73.66-.35,1.43-.54,2.17-.72.63-.15.97-.43.9-.95-.07-.49-.52-.82-1.12-.69-.99.22-1.96.52-3.01.8v-.59c0-4.81.1-9.63-.03-14.44-.12-4.19,1.84-6.92,5.4-8.7,3.57-1.79,6.82-1.11,9.89,1.53.92.8,1.73,1.74,2.69,2.71-.84.12-1.5.18-2.15.31-2.19.45-3.91,1.67-5.31,3.39-.37.46-.34.91.04,1.22.35.3.84.24,1.2-.18,1.16-1.38,2.54-2.4,4.31-2.81,2.23-.52,4.24.16,6.14,1.24,3.2,1.83,4.83,4.61,4.8,8.35,0,.39-.03.64-.55.59-3.53-.36-7-.11-10.37,1.06-.06.02-.12.02-.25.04-.53-1.23-.65-2.51-.08-3.74.33-.71.85-1.33,1.35-1.94.39-.47.51-.96.19-1.32-.33-.37-.77-.34-1.26.07-2,1.69-2.75,4.49-1.9,7.07.05.17.11.34.14.43-1.03.78-2.06,1.49-3,2.3-1.12.97-1.95,2.2-2.57,3.55-.21.47-.12.86.33,1.13.4.24.86.11,1.09-.38,1.9-3.93,5.29-5.66,9.33-6.42,2.53-.48,5.08-.52,7.63-.15,1.3.19,2.29,1.06,3.21,1.94,2.68,2.57,3.57,5.81,3.31,9.42-.08,1.05-.3,2.09-.48,3.13-.09.5-.04.9.38,1.29,2.81,2.59,3.78,5.86,3.35,9.6-.24,2.08-.77,4.11-1.95,5.85-2.29,3.39-5.3,5.85-9.35,6.83-.4.1-.82.14-1.23.22-.49.1-.81.38-.75.91.06.52.4.76.92.71,2.02-.22,3.89-.89,5.64-1.91,2.06-1.21,3.8-2.8,5.29-4.66.13-.16.28-.31.44-.48Zm-16.75-12.89s.01,0,.03.03c.07.16.14.33.21.5,1.11,2.56,2.94,4.31,5.63,5.09.64.18,1.12-.03,1.25-.55.11-.43-.2-.85-.78-1.02-2.23-.64-3.72-2.09-4.63-4.22-.34-.8-.36-1.39.27-2.13,1.44-1.7,2.23-3.75,2.76-5.9.13-.54-.12-.97-.58-1.07-.47-.1-.84.16-1,.7-.05.15-.08.31-.12.46-.79,2.83-2.15,5.27-4.58,7-2.14,1.52-4.57,2.2-7.15,2.25-1.46.03-2.92-.18-4.37-.3-.56-.05-.97.18-1.05.63-.08.48.19.87.73.97.62.12,1.25.23,1.88.29,2.63.25,5.24.11,7.72-.87,1.28-.5,2.48-1.21,3.79-1.85Zm-3.72,22.65c-.23-2.16.06-4.16,1.77-5.72.42-.39.46-.92.14-1.27-.31-.33-.83-.35-1.21.05-.47.48-.94.98-1.29,1.55-1.09,1.74-1.27,3.67-.99,5.65.07.52-.04.81-.49,1.06-.4.21-.79.48-1.11.79-1.14,1.1-2.26,2.22-3.36,3.36-.38.4-.3.93.06,1.22.38.3.84.23,1.2-.2.16-.18.29-.38.45-.56,1.97-2.29,4.27-4.09,7.24-4.85.68-.18,1.4-.22,2.11-.3.6-.07.95-.38.92-.88-.03-.47-.38-.77-.95-.76-.33,0-.68,0-1,.08-1.13.24-2.26.51-3.48.79Z"/>
    <path class="cls-1" d="m71.78,42.11c.22-.29.4-.54.6-.77,1.72-1.96,3.63-3.63,6.23-4.27,2.21-.54,4.25-.02,6.16,1.08,1.71.98,3.28,2.16,4.05,4.07.37.93.7,1.94.73,2.93.09,3.25.04,6.51.05,9.77,0,.13-.04.26-.07.48-.19-.18-.32-.29-.44-.41-1.09-.98-2.35-1.55-3.82-1.54-.65,0-1.02.32-1,.84.01.5.34.76.98.79,1.9.08,3.32,1.2,4.04,3.24.18.52.31,1.08.31,1.63.02,14,.01,28.01.01,42.01,0,.14-.01.28-.12.47-.11-.19-.24-.37-.33-.57-1.34-2.7-3.31-4.8-5.84-6.39-.12-.07-.24-.14-.36-.2-.45-.21-.83-.09-1.07.33-.22.39-.14.78.24,1.05.61.44,1.26.83,1.85,1.3,2.99,2.41,4.58,5.64,5.31,9.35.44,2.25.44,4.53.23,6.8-.16,1.72-.97,3.15-2.31,4.24-2.46,2.01-5.2,3.37-8.44,3.38-3.3,0-6.1-1.35-8.64-3.36-.53-.42-1.01-.88-1.62-1.41.3-.12.48-.2.67-.27,3.1-1.08,5.68-2.82,7.14-5.9.28-.59.48-1.22.66-1.85.15-.54-.13-.99-.58-1.07-.52-.09-.85.16-.98.65-.85,3.28-3.15,5.09-6.09,6.39-2.56,1.13-4.9.4-7.2-.62-4.75-2.1-6.42-6.54-6.26-11,0-.22.27-.55.48-.63,1.03-.36,2.07-.66,3.12-.95.61-.17.87-.45.79-.98-.08-.5-.5-.79-1.08-.63-1.15.3-2.28.64-3.4,1.02-.36.12-.57.11-.81-.18-1.78-2.16-2.57-4.65-2.4-7.44.09-1.53.46-2.99,1.04-4.4.04-.11.1-.2.18-.35.62.7,1.18,1.39,1.8,2.03,2.48,2.56,5.39,4.36,8.94,4.96.21.04.43.07.65.08.53.02.89-.26.91-.72.02-.53-.27-.8-.76-.9-.72-.15-1.45-.25-2.14-.47-5.94-1.96-10.78-7.46-10.45-14.64.13-2.92,1.25-5.42,3.44-7.38.44-.4.42-.83.35-1.35-.2-1.5-.5-3.01-.49-4.51.03-3.47,1.31-6.4,4.04-8.62,1.2-.98,2.55-1.4,4.1-1.48,2.81-.13,5.58.03,8.28.88,3.08.97,5.53,2.73,6.99,5.71.35.71.97.84,1.41.34.29-.34.22-.69.04-1.06-1.1-2.3-2.81-4.03-4.99-5.29-.17-.1-.34-.2-.54-.31.14-.54.31-1.07.4-1.62.37-2.42-.38-4.45-2.21-6.06-.45-.4-.88-.39-1.2-.03-.32.36-.26.88.16,1.27,1.49,1.38,2.04,3.04,1.55,5.03-.06.23-.16.44-.23.64-1.27-.3-2.49-.64-3.73-.86-2.25-.4-4.53-.45-6.81-.2-.56.06-.67-.12-.67-.64,0-4.07,2.12-7.22,5.98-8.89,2.33-1.01,4.65-1.22,6.89.13.83.5,1.52,1.26,2.27,1.9.19.16.39.44.59.44.29,0,.66-.12.87-.33.32-.31.16-.7-.09-1.02-1.38-1.71-3.1-2.9-5.25-3.38-.65-.14-1.32-.19-2.07-.3Zm-1.15,33.66c.39.26.77.55,1.17.79,3.83,2.25,7.93,2.52,12.18,1.74.48-.09.73-.52.63-.99-.09-.43-.5-.69-1.01-.6-1.88.37-3.77.44-5.67.21-2.17-.27-4.21-.94-5.99-2.25-2.46-1.81-3.78-4.34-4.55-7.23-.18-.68-.54-.97-1.06-.84-.48.12-.67.55-.51,1.21.56,2.28,1.5,4.37,3.02,6.17.27.32.36.6.22,1.02-.81,2.46-2.34,4.17-4.86,4.91-.65.19-.93.59-.79,1.05.15.51.61.7,1.26.51,1.94-.56,3.51-1.64,4.63-3.34.49-.74.87-1.55,1.33-2.36Zm3.59,22.87c-.28-.1-.45-.19-.64-.22-1.27-.26-2.54-.55-3.82-.75-.57-.09-.95.31-.95.81,0,.47.34.77.92.81.28.02.55.03.83.06,2.61.32,4.81,1.53,6.73,3.28.79.72,1.48,1.55,2.2,2.34.39.43.82.54,1.2.27.4-.29.44-.77.09-1.27-.04-.07-.1-.13-.15-.19-1.24-1.55-2.67-2.89-4.34-3.95-.45-.28-.51-.57-.49-1.07.05-1.05.09-2.12-.05-3.16-.23-1.63-1.03-3-2.28-4.08-.37-.32-.76-.31-1.12.01-.34.31-.32.81.01,1.18.11.12.23.22.34.33,1.51,1.55,1.75,3.45,1.52,5.6Z"/>
    <path class="cls-3" d="m110.35,75.87c-1.3.64-2.51,1.35-3.79,1.85-2.48.97-5.09,1.11-7.72.87-.63-.06-1.25-.17-1.88-.29-.54-.1-.81-.49-.73-.97.08-.45.49-.68,1.05-.63,1.46.12,2.92.33,4.37.3,2.58-.05,5.01-.73,7.15-2.25,2.43-1.73,3.79-4.17,4.58-7,.04-.15.08-.31.12-.46.16-.54.53-.8,1-.7.46.1.71.52.58,1.07-.53,2.15-1.32,4.21-2.76,5.9-.63.74-.61,1.33-.27,2.13.9,2.13,2.39,3.58,4.63,4.22.58.17.89.59.78,1.02-.13.51-.61.73-1.25.55-2.69-.78-4.53-2.53-5.63-5.09-.07-.16-.14-.33-.21-.5-.01-.03-.06-.05-.03-.03Z"/>
    <path class="cls-3" d="m106.63,98.52c1.22-.28,2.35-.55,3.48-.79.33-.07.67-.07,1-.08.57,0,.92.29.95.76.03.5-.32.81-.92.88-.7.08-1.42.13-2.11.3-2.97.77-5.27,2.56-7.24,4.85-.16.18-.29.38-.45.56-.37.42-.82.49-1.2.2-.36-.28-.44-.81-.06-1.22,1.09-1.15,2.22-2.26,3.36-3.36.32-.31.71-.58,1.11-.79.45-.24.57-.53.49-1.06-.28-1.98-.1-3.91.99-5.65.36-.57.83-1.07,1.29-1.55.38-.4.9-.38,1.21-.05.32.35.28.88-.14,1.27-1.71,1.57-2,3.56-1.77,5.72Z"/>
    <path class="cls-3" d="m70.63,75.77c-.45.82-.84,1.62-1.33,2.36-1.12,1.7-2.69,2.78-4.63,3.34-.66.19-1.11,0-1.26-.51-.14-.47.14-.86.79-1.05,2.51-.74,4.05-2.45,4.86-4.91.14-.42.05-.7-.22-1.02-1.52-1.8-2.46-3.89-3.02-6.17-.16-.66.03-1.09.51-1.21.52-.13.88.16,1.06.84.77,2.89,2.09,5.43,4.55,7.23,1.79,1.31,3.82,1.98,5.99,2.25,1.9.23,3.79.16,5.67-.21.51-.1.92.16,1.01.6.1.47-.15.9-.63.99-4.25.78-8.36.51-12.18-1.74-.41-.24-.78-.52-1.17-.79Z"/>
    <path class="cls-3" d="m74.22,98.64c.23-2.15,0-4.06-1.52-5.6-.11-.11-.23-.22-.34-.33-.33-.37-.35-.87-.01-1.18.36-.32.75-.34,1.12-.01,1.26,1.08,2.05,2.46,2.28,4.08.15,1.03.11,2.11.05,3.16-.02.5.04.79.49,1.07,1.67,1.06,3.11,2.4,4.34,3.95.05.06.1.12.15.19.34.51.31.98-.09,1.27-.38.27-.81.16-1.2-.27-.72-.79-1.41-1.62-2.2-2.34-1.92-1.75-4.12-2.96-6.73-3.28-.27-.03-.55-.04-.83-.06-.58-.04-.92-.34-.92-.81,0-.5.38-.9.95-.81,1.28.2,2.55.49,3.82.75.19.04.36.13.64.22Z"/>
  </g>
</svg>