<?xml version="1.0" encoding="UTF-8"?>
<svg width="30px" height="30px" viewBox="0 0 30 30" version="1.1" xmlns="http://www.w3.org/2000/svg" xmlns:xlink="http://www.w3.org/1999/xlink">
    <title>Ethik</title>
    <defs>
        <circle id="path-1" cx="15" cy="15" r="15"></circle>
    </defs>
    <g id="Icons" stroke="none" stroke-width="1" fill="none" fill-rule="evenodd">
        <g transform="translate(-747.000000, -1234.000000)" id="Ethik">
            <g transform="translate(747.000000, 1234.000000)" id="Group-18">
                <mask id="mask-2" fill="white">
                    <use xlink:href="#path-1"></use>
                </mask>
                <use id="Oval" fill="#FFFFFF" xlink:href="#path-1"></use>
                <g id="ethik" mask="url(#mask-2)">
                    <g transform="translate(6.000000, 6.205234)">
                        <g id="Group" stroke-width="1" fill="none" fill-rule="evenodd" transform="translate(0.000000, -0.000000)">
                            <g fill-rule="nonzero" id="Path">
                                <g transform="translate(0.166273, 5.869425)">
                                    <polygon fill="#F4CC54" transform="translate(9.333707, 4.453443) rotate(90.000000) translate(-9.333707, -4.453443) " points="5.19210566 3.52885451 13.4753087 3.52885451 13.4753087 5.37803238 5.19210566 5.37803238"></polygon>
                                    <path d="M12.102954,8.59504496 L11.1331647,8.59504496 C11.4397198,8.53358058 11.6706854,8.26298394 11.6706854,7.9383487 C11.6706854,7.5683517 11.3707489,7.26841521 11.0007519,7.26841521 L7.66662206,7.26841521 C7.29662506,7.26841521 6.99668857,7.5683517 6.99668857,7.9383487 C6.99668857,8.26298394 7.22765419,8.53358058 7.5342093,8.59504496 L6.56442003,8.59504496 C5.54184323,8.59504496 4.71286107,9.42398676 4.71286107,10.4466039 L4.71286107,10.4489447 L13.9544322,10.4489447 L13.9544322,10.4465636 C13.9544322,9.42398676 13.1255308,8.59504496 12.102954,8.59504496 L12.102954,8.59504496 Z" fill="#405B73"></path>
                                    <path d="M12.102954,8.59504496 L11.1331647,8.59504496 C11.4397198,8.53358058 11.6706854,8.26298394 11.6706854,7.9383487 C11.6706854,7.5683517 11.3707489,7.26841521 11.0007519,7.26841521 L9.33774291,7.26841521 C9.70773992,7.26841521 10.0076764,7.5683517 10.0076764,7.9383487 C10.0076764,8.26298394 9.77671078,8.53358058 9.47015567,8.59504496 L10.4399449,8.59504496 C11.4625217,8.59504496 12.2915039,9.42398676 12.2915039,10.4466039 L12.2915039,10.4489447 L13.9545129,10.4489447 L13.9545129,10.4465636 C13.9545129,9.42398676 13.1255308,8.59504496 12.102954,8.59504496 L12.102954,8.59504496 Z" fill="#405B73"></path>
                                    <g>
                                        <g>
                                            <path d="M0.831403611,5.22120337 C0.791490103,5.22120337 0.750930876,5.2134951 0.71178416,5.1971907 C0.552775848,5.13108521 0.477468866,4.94858887 0.54361471,4.7895402 L2.4555484,0.192101412 C2.50389662,0.0757912713 2.61750281,-2.29405484e-16 2.74345838,-2.29405484e-16 C2.86941395,-2.29405484e-16 2.98302014,0.0757912713 3.03136835,0.192101412 L4.94330205,4.7895402 C5.00940753,4.94854851 4.93414091,5.13104485 4.77509224,5.1971907 C4.61608393,5.2633769 4.43358759,5.18802956 4.36744174,5.02902125 L2.74345838,1.12387397 L1.11943466,5.02902125 C1.06959322,5.1489232 0.953605937,5.22120337 0.831403611,5.22120337 L0.831403611,5.22120337 Z" fill="#F4CC54"></path>
                                            <path d="M2.76404067,7.63564598 C1.25265456,7.64111616 0.0151340398,6.4202229 0,4.90928072 L5.4868764,4.90928072 C5.47206522,6.39213412 4.26041381,7.63564598 2.76404067,7.63564598 Z" fill="#405B73"></path>
                                        </g>
                                        <g transform="translate(13.180498, 0.000000)">
                                            <path d="M4.65551314,5.22120337 C4.53331082,5.22120337 4.41732354,5.1489232 4.3674821,5.02902125 L2.74345838,1.12387397 L1.11947501,5.02902125 C1.05332917,5.18806992 0.870832829,5.26333654 0.711824517,5.1971907 C0.552816206,5.13108521 0.477509224,4.94858887 0.54361471,4.7895402 L2.4555484,0.192101412 C2.50389662,0.0757912713 2.61750281,-2.29405484e-16 2.74345838,-2.29405484e-16 C2.86941395,-2.29405484e-16 2.98302014,0.0757912713 3.03136835,0.192101412 L4.94330205,4.7895402 C5.00944789,4.94854851 4.93414091,5.13104485 4.7751326,5.1971907 C4.73598588,5.2134951 4.6953863,5.22120337 4.65551314,5.22120337 L4.65551314,5.22120337 Z" fill="#F4CC54"></path>
                                            <path d="M2.76404067,7.63564598 C1.25265456,7.64111616 0.0151340398,6.4202229 0,4.90928072 L5.4868764,4.90928072 C5.47206522,6.39213412 4.26041381,7.63564598 2.76404067,7.63564598 L2.76404067,7.63564598 Z" fill="#405B73"></path>
                                        </g>
                                    </g>
                                </g>
                                <path d="M17.1507818,4.3273668 L14.7477384,4.3273668 C14.1077098,4.3273668 13.5297509,3.97024382 13.2134293,3.41242329 C12.8594138,2.78817442 12.1780591,2.45034229 11.4715215,2.47346711 L11.4715215,1.97158199 C11.4715215,0.882697916 10.5888235,0 9.49993946,0 C8.41105539,0 7.52835747,0.882697916 7.52835747,1.97158199 L7.52835747,2.47346711 C6.81964048,2.45187588 6.14143371,2.78647941 5.78644967,3.41242329 C5.47012806,3.97024382 4.89216917,4.3273668 4.25214054,4.3273668 L1.84917788,4.3273668 C0.827892513,4.3273668 8.60270563e-16,5.15739826 8.60270563e-16,6.1812665 L19,6.1812665 C19,5.15739826 18.1720671,4.3273668 17.1507818,4.3273668 Z" fill="#405B73"></path>
                                <g transform="translate(8.668415, 0.000000)" fill="#405B73">
                                    <path d="M1.14009767,1.97158199 L1.14009767,2.47346711 C1.846595,2.45038265 2.52799001,2.78817442 2.88200547,3.41242329 C3.19832708,3.97024382 3.77628597,4.3273668 4.4163146,4.3273668 L6.07932361,4.3273668 C5.43929498,4.3273668 4.86133609,3.97024382 4.54501448,3.41242329 C4.19099902,2.78817442 3.50964437,2.45034229 2.80310667,2.47346711 L2.80310667,1.97158199 C2.80310667,0.882697916 1.92040876,0 0.831524683,0 C0.534332499,0 0.252718286,0.0661458433 0,0.183908852 C0.673283163,0.497607229 1.14009767,1.1798901 1.14009767,1.97158199 L1.14009767,1.97158199 Z"></path>
                                    <path d="M8.48236699,4.3273668 L6.81935798,4.3273668 C7.84064334,4.3273668 8.66853585,5.15739826 8.66853585,6.1812665 L10.3315449,6.1812665 C10.3315449,5.15739826 9.50365235,4.3273668 8.48236699,4.3273668 Z"></path>
                                </g>
                            </g>
                        </g>
                        <circle id="Oval" fill="#EDF4F3" fill-rule="nonzero" cx="9.49997982" cy="2.00947763" r="1"></circle>
                        <path d="M11.8836516,4.21989494 L7.11630802,4.21989494 C6.94410282,4.21989494 6.80450644,4.35949133 6.80450644,4.53169652 C6.80450644,4.70390171 6.94410282,4.8434981 7.11630802,4.8434981 L11.8836516,4.8434981 C12.0558568,4.8434981 12.1954532,4.70390171 12.1954532,4.53169652 C12.1954532,4.35949133 12.0558568,4.21989494 11.8836516,4.21989494 Z" id="Path" fill="#EDF4F3" fill-rule="nonzero"></path>
                    </g>
                </g>
            </g>
        </g>
    </g>
</svg>