<?xml version="1.0" encoding="UTF-8"?><svg version="1.1" width="30px" height="30px" viewBox="0 0 30.0 30.0" xmlns="http://www.w3.org/2000/svg" xmlns:xlink="http://www.w3.org/1999/xlink"><defs><clipPath id="i0"><path d="M2655,0 L2655,1581 L0,1581 L0,0 L2655,0 Z"></path></clipPath><clipPath id="i1"><path d="M15,0 C23.2842712,0 30,6.71572875 30,15 C30,23.2842712 23.2842712,30 15,30 C6.71572875,30 0,23.2842712 0,15 C0,6.71572875 6.71572875,0 15,0 Z"></path></clipPath><clipPath id="i2"><path d="M18.5449791,0 C19.3485315,0 19.999941,0.651409557 19.999941,1.45496187 L19.999941,10.6725121 C19.999941,11.0583923 19.8466523,11.4284682 19.5737937,11.7013267 C19.3009352,11.9741852 18.9308594,12.1274751 18.5449791,12.127474 L7.12334312,12.127474 L5.7182672,14.8498013 C5.09083766,16.0654315 3.27564312,15.7748451 3.05905143,14.4240939 L2.69080446,12.1274822 L1.45495776,12.1274822 C1.06907792,12.1274833 0.699002468,11.9741933 0.426144604,11.7013347 C0.153286741,11.428476 0,11.0584001 0,10.6725203 L0,1.45496187 C0,0.651410222 0.651406112,0 1.45495776,0 Z"></path></clipPath><clipPath id="i3"><path d="M1.072,0 L3.856,3.4 L3.856,0 L5.136,0 L5.136,5.6 L4.072,5.6 L1.28,2.2 L1.28,5.6 L0,5.6 L0,0 L1.072,0 Z"></path></clipPath><clipPath id="i4"><path d="M1.296,0 L1.296,4.544 L4.104,4.544 L4.104,5.6 L0,5.6 L0,0 L1.296,0 Z"></path></clipPath></defs><g transform="translate(-1131.0 -1113.0)"><g clip-path="url(#i0)"><g transform="translate(1131.0 1113.0)"><g clip-path="url(#i1)"><polygon points="0,0 30,0 30,30 0,30 0,0" stroke="none" fill="#FFFFFF"></polygon><g transform="translate(5.0 7.0)"><g clip-path="url(#i2)"><polygon points="0,0 19.999941,0 19.999941,15.6179345 0,15.6179345 0,0" stroke="none" fill="#3F5B73"></polygon></g><g transform="translate(5.01600000000053 3.399999999999636)"><g clip-path="url(#i3)"><polygon points="0,0 5.136,0 5.136,5.6 0,5.6 0,0" stroke="none" fill="#F3CC53"></polygon></g><g transform="translate(6.463999999999942 0.0)"><g clip-path="url(#i4)"><polygon points="0,0 4.104,0 4.104,5.6 0,5.6 0,0" stroke="none" fill="#F3CC53"></polygon></g></g></g></g></g></g></g></g></svg>