<?xml version="1.0" encoding="UTF-8"?><svg version="1.1" width="30px" height="30px" viewBox="0 0 30.0 30.0" xmlns="http://www.w3.org/2000/svg" xmlns:xlink="http://www.w3.org/1999/xlink"><defs><clipPath id="i0"><path d="M2655,0 L2655,1581 L0,1581 L0,0 L2655,0 Z"></path></clipPath><clipPath id="i1"><path d="M15,0 C23.2842712,0 30,6.71572875 30,15 C30,23.2842712 23.2842712,30 15,30 C6.71572875,30 0,23.2842712 0,15 C0,6.71572875 6.71572875,0 15,0 Z"></path></clipPath><clipPath id="i2"><path d="M18.5449791,0 C19.3485315,0 19.999941,0.651409557 19.999941,1.45496187 L19.999941,10.6725121 C19.999941,11.0583923 19.8466523,11.4284682 19.5737937,11.7013267 C19.3009352,11.9741852 18.9308594,12.1274751 18.5449791,12.127474 L7.12334312,12.127474 L5.7182672,14.8498013 C5.09083766,16.0654315 3.27564312,15.7748451 3.05905143,14.4240939 L2.69080446,12.1274822 L1.45495776,12.1274822 C1.06907792,12.1274833 0.699002468,11.9741933 0.426144604,11.7013347 C0.153286741,11.428476 0,11.0584001 0,10.6725203 L0,1.45496187 C0,0.651410222 0.651406112,0 1.45495776,0 Z"></path></clipPath><clipPath id="i3"><path d="M3.174,0 L3.174,0.78 L0.972,0.78 L0.972,1.89 L2.916,1.89 L2.916,2.67 L0.972,2.67 L0.972,4.2 L0,4.2 L0,0 L3.174,0 Z M5.652,0 C6.774,0 7.476,0.582 7.476,1.524 C7.476,2.154 7.158,2.616 6.612,2.85 L7.554,4.2 L6.51,4.2 L5.7,3.03 L4.806,3.03 L4.806,4.2 L3.834,4.2 L3.834,0 Z M10.524,0 L12.402,4.2 L11.382,4.2 L11.01,3.3 L9.06,3.3 L8.688,4.2 L7.692,4.2 L9.564,0 L10.524,0 Z M10.038,0.954 L9.372,2.562 L10.704,2.562 L10.038,0.954 Z M5.598,0.792 L4.806,0.792 L4.806,2.256 L5.598,2.256 C6.192,2.256 6.492,1.98 6.492,1.524 C6.492,1.062 6.192,0.792 5.598,0.792 Z"></path></clipPath></defs><g transform="translate(-1131.0 -840.0)"><g clip-path="url(#i0)"><g transform="translate(1131.0 840.0)"><g clip-path="url(#i1)"><polygon points="0,0 30,0 30,30 0,30 0,0" stroke="none" fill="#FFFFFF"></polygon><g transform="translate(5.000000000000012 6.99999999999935)"><g clip-path="url(#i2)"><polygon points="0,0 19.999941,0 19.999941,15.6179345 0,15.6179345 0,0" stroke="none" fill="#3F5B73"></polygon></g><g transform="translate(4.078000000000901 3.799999999999636)"><g clip-path="url(#i3)"><polygon points="0,0 12.402,0 12.402,4.2 0,4.2 0,0" stroke="none" fill="#F3CC53"></polygon></g></g></g></g></g></g></g></svg>