<?xml version="1.0" encoding="UTF-8"?>
<svg width="30px" height="30px" viewBox="0 0 30 30" version="1.1" xmlns="http://www.w3.org/2000/svg" xmlns:xlink="http://www.w3.org/1999/xlink">
    <title>Group 5</title>
    <defs>
        <circle id="path-1" cx="15" cy="15" r="15"></circle>
    </defs>
    <g id="Icons" stroke="none" stroke-width="1" fill="none" fill-rule="evenodd">
        <g transform="translate(-1131.000000, -1208.000000)" id="Group-5">
            <g transform="translate(1131.000000, 1208.000000)">
                <g id="Group-Copy-7">
                    <mask id="mask-2" fill="white">
                        <use xlink:href="#path-1"></use>
                    </mask>
                    <use id="Oval" fill="#FFFFFF" xlink:href="#path-1"></use>
                </g>
                <g id="die-gluhbirne" transform="translate(9.000000, 6.000000)">
                    <g id="Group" transform="translate(3.015534, 15.984773)" fill="#405B73">
                        <g transform="translate(0.000000, 2.010151)" id="Path">
                            <path d="M0.406050594,0.908588458 L6.43650496,0.908588458 C6.66063685,0.908588458 6.84255556,0.726669751 6.84255556,0.502537864 C6.84255556,0.278405977 6.66063685,0.0964872699 6.43650496,0.0964872699 L0.406050594,0.0964872699 C0.181918707,0.0964872699 0,0.278405977 0,0.502537864 C0,0.726669751 0.181918707,0.908588458 0.406050594,0.908588458 Z"></path>
                        </g>
                        <g id="Path">
                            <path d="M0.406050594,0.908588458 L6.43650496,0.908588458 C6.66063685,0.908588458 6.84255556,0.726669751 6.84255556,0.502537864 C6.84255556,0.278405977 6.66063685,0.0964872699 6.43650496,0.0964872699 L0.406050594,0.0964872699 C0.181918707,0.0964872699 0,0.278405977 0,0.502537864 C0,0.726669751 0.181918707,0.908588458 0.406050594,0.908588458 Z"></path>
                        </g>
                    </g>
                    <g id="Group" fill="#F4CC54">
                        <path d="M4.42647579,14.8832213 C3.64710089,14.8832213 3.0152641,14.2514215 3.0152641,13.4720097 L3.0152641,11.8881533 C1.20441464,10.748905 0,8.73221844 0,6.43651648 C0,3.01757111 2.67152963,0.217637037 6.0392099,0.0120932513 C6.08034896,0.00951531582 6.1303644,0.00697355029 6.18053008,0.00500750881 C6.26562499,0.00167829723 6.35093167,0 6.43662724,0 L6.21265655,0.00382790283 C6.2869961,0.00128209384 6.36166116,0 6.43662724,0 L6.66733987,0.00406625089 C10.1131335,0.125712305 12.8732545,2.96134514 12.8732545,6.43651648 C12.8732545,8.73188614 11.6692091,10.7483512 9.85854421,11.887821 L9.85854421,13.4720097 C9.85854421,14.2514215 9.22674434,14.8832213 8.44733252,14.8832213 Z" id="Combined-Shape"></path>
                    </g>
                    <g id="Group" transform="translate(3.015534, 7.035579)" fill="#405B73">
                        <path d="M5.43142923,0 C4.65149047,0 4.02030291,0.631187557 4.02030291,1.41112632 L4.02030291,2.01015146 L2.82225264,2.01015146 L2.82225264,1.41112632 C2.82225264,0.631187557 2.19006001,0 1.41112632,0 C0.631187557,0 0,0.631187557 0,1.41112632 C0,2.19006001 0.631187557,2.82225264 1.41112632,2.82225264 L2.01015146,2.82225264 L2.01015146,5.43142923 C2.01015146,5.65556112 2.19207016,5.83747983 2.41620205,5.83747983 C2.64033394,5.83747983 2.82225264,5.65556112 2.82225264,5.43142923 L2.82225264,2.82225264 L4.02030291,2.82225264 L4.02030291,5.43142923 C4.02030291,5.65556112 4.20222162,5.83747983 4.42635351,5.83747983 C4.65048539,5.83747983 4.8324041,5.65556112 4.8324041,5.43142923 L4.8324041,2.82225264 L5.43142923,2.82225264 C6.21036292,2.82225264 6.84255556,2.19006001 6.84255556,1.41112632 C6.84255556,0.631187557 6.21036292,0 5.43142923,0 Z M1.41112632,0.812101188 C1.08045641,0.812101188 0.812101188,1.08045641 0.812101188,1.41112632 C0.812101188,1.74179624 1.08045641,2.01015146 1.41112632,2.01015146 L2.01015146,2.01015146 L2.01015146,1.41112632 C2.01015146,1.08045641 1.74179624,0.812101188 1.41112632,0.812101188 Z M4.8324041,2.01015146 L5.43142923,2.01015146 C5.76209915,2.01015146 6.03045437,1.74179624 6.03045437,1.41112632 C6.03045437,1.08045641 5.76209915,0.812101188 5.43142923,0.812101188 C5.10075932,0.812101188 4.8324041,1.08045641 4.8324041,1.41112632 L4.8324041,2.01015146 Z" id="Shape"></path>
                    </g>
                </g>
            </g>
        </g>
    </g>
</svg>