<?xml version="1.0" encoding="UTF-8"?><svg version="1.1" width="30px" height="30px" viewBox="0 0 30.0 30.0" xmlns="http://www.w3.org/2000/svg" xmlns:xlink="http://www.w3.org/1999/xlink"><defs><clipPath id="i0"><path d="M2655,0 L2655,1581 L0,1581 L0,0 L2655,0 Z"></path></clipPath><clipPath id="i1"><path d="M15,0 C23.2842712,0 30,6.71572875 30,15 C30,23.2842712 23.2842712,30 15,30 C6.71572875,30 0,23.2842712 0,15 C0,6.71572875 6.71572875,0 15,0 Z"></path></clipPath><clipPath id="i2"><path d="M9.03216797,0 L9.38376563,0.530648438 L9.03216797,1.0546875 C8.47174219,1.0546875 7.82574609,1.87263281 7.34632031,3.189375 C7.27024219,3.39837891 7.19894531,3.61719141 7.13225391,3.84426562 C7.74671484,4.11999609 8.37330469,4.43207813 9.00263672,4.77544922 L9.03220313,4.75952344 L9.38376563,5.29400391 L9.03220313,6.00008203 L9.00232031,5.98275 C8.18616797,6.44878125 7.37036719,6.96561328 6.58332422,7.51897266 L6.51941016,7.56421875 C6.48980859,8.03327344 6.47462109,8.51322656 6.47462109,9.00003516 C6.47462109,9.48673828 6.48977344,9.96658594 6.519375,10.4355703 L6.58328906,10.4810273 C7.37532422,11.0379023 8.18827734,11.5542773 9,12.0185156 C9.01072266,12.0123984 9.02144531,12.006 9.03216797,11.9998125 L9.38376563,12.5967305 L9.03216797,13.2433242 L9,13.225957 C8.37154688,13.5688008 7.74583594,13.8803555 7.13221875,14.1557344 C7.19891016,14.3828438 7.27020703,14.6016563 7.34628516,14.810625 C7.82574609,16.127332 8.47170703,16.9453125 9.03216797,16.9453125 L9.38376563,17.4762773 L9.03216797,18 C8.31353906,18 7.76517188,17.5382227 7.43175,17.1508711 C7.02267188,16.6756641 6.66049219,16.0096992 6.35530078,15.1715039 C6.28463672,14.9774414 6.21783984,14.77575 6.15473438,14.5676602 C5.90804297,14.6646211 5.66416406,14.7552539 5.42401172,14.8385742 C4.46037891,15.1729453 3.29146875,15.4838672 2.27724609,15.4838672 C1.65832031,15.4839023 1.09708594,15.368168 0.674964844,15.0713789 C0.233402344,14.7609141 0,14.2964297 0,13.7280937 C0,12.6185977 0.913746094,11.3214023 1.68032813,10.4286797 C2.08371094,9.95881641 2.54752734,9.4798125 3.06277734,8.99933203 C2.71279688,8.67311719 2.38591406,8.34778125 2.08726172,8.02645312 C1.88898047,7.81316016 1.90117969,7.47949219 2.11450781,7.28117578 C2.32780078,7.08285938 2.66150391,7.09505859 2.85978516,7.30842188 C3.16212891,7.63372266 3.49484766,7.96380469 3.85361719,8.29511719 C4.36693359,7.85777344 4.91955469,7.42232813 5.50480078,6.99454688 C5.58172266,6.09982031 5.71011328,5.24622656 5.88589453,4.46020312 C5.612625,4.35086719 5.34301172,4.2496875 5.07825,4.15782422 C2.39579297,3.22692187 1.49407031,3.64201172 1.28158594,3.79139063 C1.10974219,3.9121875 0.787992188,4.33072266 1.50932813,5.60478516 C1.65283594,5.85826172 1.56367969,6.18001172 1.31023828,6.32348437 C1.05686719,6.4670625 0.735011719,6.37783594 0.591539063,6.12442969 C0.215507813,5.46022266 0.0179648438,4.86119531 0.004359375,4.34390625 C-0.0116015625,3.73763672 0.220289063,3.24826172 0.674964844,2.92858594 C1.78882031,2.14544531 3.87232031,2.62290234 5.42397656,3.16139062 C5.66412891,3.24471094 5.90800781,3.33534375 6.15469922,3.43230469 C6.21783984,3.22421484 6.28460156,3.02255859 6.35526563,2.82849609 C6.66045703,1.99026563 7.02263672,1.32433594 7.43171484,0.84909375 C7.76520703,0.461777344 8.31353906,0 9.03216797,0 Z M3.85365234,9.70393359 C3.33875391,10.1795977 2.87778516,10.6529414 2.48051953,11.1156328 C1.57440234,12.1710234 1.0546875,13.1232305 1.0546875,13.7280938 C1.0546875,14.0126133 1.17594141,14.1343594 1.28158594,14.2086094 C1.49403516,14.3580234 2.39575781,14.7730078 5.07825,13.8421758 C5.34297656,13.7503125 5.612625,13.649168 5.88592969,13.539832 C5.71007813,12.7536328 5.5816875,11.899793 5.50476563,11.0048906 C4.92191016,10.5785859 4.36833984,10.142543 3.85365234,9.70393359 Z M6.651,11.8049766 C6.71041406,12.2592305 6.78452344,12.6975586 6.87244922,13.1158477 C7.21771875,12.9576094 7.56689063,12.7874883 7.91820703,12.6064687 C7.49351953,12.3516914 7.07016797,12.0840469 6.651,11.8049766 Z M5.42808984,8.37316406 C5.16100781,8.58104297 4.90260938,8.78994141 4.65387891,8.99919141 C4.90306641,9.20893359 5.16139453,9.41804297 5.42808984,9.62585156 C5.42271094,9.41846484 5.41989844,9.2098125 5.41989844,9 C5.41989844,8.78987109 5.42271094,8.58083203 5.42808984,8.37316406 Z M6.87244922,4.88411719 C6.78448828,5.30251172 6.71037891,5.74094531 6.65092969,6.19530469 C7.06928906,5.91718359 7.49351953,5.64953906 7.91985938,5.39433984 C7.56798047,5.21300391 7.21824609,5.04260156 6.87244922,4.88411719 Z"></path></clipPath><clipPath id="i3"><path d="M0.519609375,0.111380062 C0.749320313,-0.0675652507 1.08070313,-0.0265379069 1.25971875,0.203173031 C1.43876953,0.432919124 1.39763672,0.764266781 1.16792578,0.943317562 C0.799910156,1.23008709 0.40696875,1.3755285 0,1.3755285 L0,0.320840999 C0.166429687,0.320840999 0.341261719,0.250352718 0.519609375,0.111380062 Z"></path></clipPath><clipPath id="i4"><path d="M0,0 C0.718664063,0 1.26703125,0.461777344 1.60052344,0.849164062 C2.00960156,1.32440625 2.37178125,1.99033594 2.67697266,2.82856641 C2.74510547,3.01573828 2.80961719,3.21008203 2.87075391,3.41033203 C3.21539063,3.27561328 3.55289063,3.1545 3.88072266,3.04843359 C4.15789453,2.95878516 4.45514063,3.11073047 4.54478906,3.38783203 C4.6344375,3.66493359 4.48249219,3.96225 4.20539063,4.05189844 C3.86114063,4.16323828 3.50525391,4.29254297 3.14117578,4.43731641 C3.32293359,5.24443359 3.45469922,6.12323437 3.53183203,7.04503125 C4.09180078,7.45674609 4.6215,7.87524609 5.1148125,8.29553906 C5.62946484,7.82001562 6.09022266,7.34688281 6.48734766,6.88436719 C7.39346484,5.82894141 7.91317969,4.87673437 7.91317969,4.27187109 C7.91317969,3.98735156 7.79189063,3.86560547 7.68628125,3.79135547 C7.42809375,3.60980859 6.94729688,3.53664844 6.33227344,3.58523437 C6.04209375,3.6084375 5.78794922,3.39145312 5.76499219,3.10109766 C5.74203516,2.81074219 5.95880859,2.55677344 6.24912891,2.53381641 C7.13337891,2.46392578 7.821,2.59674609 8.29290234,2.92858594 C8.73442969,3.23905078 8.96783203,3.70353516 8.96783203,4.27187109 C8.96783203,5.38136719 8.05408594,6.6785625 7.28753906,7.57135547 C6.88433203,8.04097266 6.42079688,8.51973047 5.90586328,8.99996484 C6.42079688,9.48023437 6.88433203,9.95895703 7.28750391,10.4286797 C8.05405078,11.3214727 8.96783203,12.618668 8.96783203,13.7281641 C8.96783203,14.2965 8.73439453,14.7610195 8.29283203,15.0714492 C7.87078125,15.368168 7.30937109,15.4839375 6.69058594,15.4839375 C5.67625781,15.4840078 4.50755859,15.1730859 3.54378516,14.8386445 C3.31860938,14.7605273 3.09012891,14.6758711 2.85915234,14.5857305 C2.76967969,14.886457 2.67314063,15.1726641 2.56999219,15.4410469 C2.46554297,15.712875 2.16038672,15.848543 1.88859375,15.7441289 C1.61673047,15.6396445 1.48102734,15.3345234 1.58551172,15.0626953 C1.69157813,14.7866836 1.79001563,14.489543 1.88057813,14.1759844 C1.26302344,13.9003594 0.632953125,13.5876445 0,13.2433945 L0,11.999918 C0.801035156,11.5404609 1.60294922,11.0305898 2.38454297,10.4810625 L2.51057813,10.3918711 C2.54144531,9.93005859 2.55761719,9.46388672 2.55761719,9.00003516 C2.55761719,8.52964453 2.54337891,8.06572266 2.51571094,7.61178516 C2.47211719,7.5808125 2.42848828,7.549875 2.38454297,7.51897266 C1.60294922,6.96944531 0.801035156,6.45953906 0,6.00008203 L0,4.75948828 C0.637839844,4.41284766 1.27300781,4.09767187 1.89305859,3.82057031 C1.82837109,3.60189844 1.75932422,3.39110156 1.68588281,3.18933984 C1.20645703,1.87263281 0.560460938,1.0546875 0,1.0546875 Z M5.11477734,9.70446094 C4.61900391,10.1268281 4.08645703,10.5474375 3.52339453,10.9611211 C3.44211328,11.8643555 3.30672656,12.7450195 3.12507422,13.5571992 C3.38361328,13.6599609 3.63874219,13.7551289 3.88958203,13.8421758 C6.57207422,14.7731133 7.47379688,14.3580234 7.68624609,14.2086094 C7.79189063,14.1343594 7.91314453,14.0126133 7.91314453,13.7280937 C7.91314453,13.1232305 7.39342969,12.1710234 6.4873125,11.1156328 C6.0901875,10.653082 5.62939453,10.1799844 5.11477734,9.70446094 Z M2.37301172,11.7677813 C1.93552734,12.0603516 1.49329687,12.3403711 1.04966016,12.6065039 C1.41563672,12.795082 1.77932813,12.9719531 2.13866016,13.1357813 C2.23133203,12.6976289 2.30983594,12.2390156 2.37301172,11.7677813 Z M3.60523828,8.42421094 C3.60980859,8.61510937 3.61230469,8.8070625 3.61230469,9 C3.61230469,9.19184766 3.60942188,9.3841875 3.60421875,9.5765625 C3.84883594,9.38503125 4.08589453,9.19265625 4.31490234,9 C4.08621094,8.80758984 3.84946875,8.61549609 3.60523828,8.42421094 Z M2.15444531,4.85901562 C1.79138672,5.02463672 1.42305469,5.20379297 1.05212109,5.3949375 C1.49976563,5.66356641 1.94596875,5.94636328 2.38732031,6.24185156 C2.32569141,5.76175781 2.24775,5.29920703 2.15444531,4.85901562 Z"></path></clipPath><clipPath id="i5"><path d="M1.32612891,0 C2.05734375,0 2.65225781,0.594914063 2.65225781,1.32612891 C2.65222266,2.05737891 2.05730859,2.65229297 1.32609375,2.65229297 C0.649757813,2.65229297 0.0831796875,2.14607812 0.00826171875,1.47480469 C0.00277734375,1.42583203 0,1.37591016 0,1.32612891 C0,0.594914063 0.594878906,0 1.32612891,0 Z"></path></clipPath><clipPath id="i6"><path d="M1.32612891,0 C2.05852968,0 2.65225781,0.593728135 2.65225781,1.32612891 C2.65225781,2.05852968 2.05852968,2.65225781 1.32612891,2.65225781 C0.593728135,2.65225781 0,2.05852968 0,1.32612891 C0,0.593728135 0.593728135,0 1.32612891,0 Z"></path></clipPath><clipPath id="i7"><path d="M1.3264372,0 C2.05900823,0 2.65287439,0.593866161 2.65287439,1.3264372 C2.65287439,2.05900823 2.05900823,2.65287439 1.3264372,2.65287439 C0.593866161,2.65287439 0,2.05900823 0,1.3264372 C0,0.593866161 0.593866161,0 1.3264372,0 Z"></path></clipPath><clipPath id="i8"><path d="M1.32612891,0 L1.67769141,1.32563672 L1.32612891,2.65225781 C0.594878906,2.65225781 0,2.05734375 0,1.32612891 C0,0.594878906 0.594878906,-3.515625e-05 1.32612891,0 Z"></path></clipPath><clipPath id="i9"><path d="M0,0 C0.73125,0 1.32612891,0.594914063 1.32612891,1.32612891 C1.32612891,2.05734375 0.731214844,2.65225781 0,2.65225781 Z"></path></clipPath></defs><g transform="translate(-1280.0 -292.0)"><g clip-path="url(#i0)"><g transform="translate(1280.0 292.0)"><g clip-path="url(#i1)"><polygon points="0,0 30,0 30,30 0,30 0,0" stroke="none" fill="#FFFFFF"></polygon><g transform="translate(6.0 6.0)"><g transform="translate(0.018050238280466147 0.0)"><g clip-path="url(#i2)"><polygon points="0,0 9.38376563,0 9.38376563,18 0,18 0,0" stroke="none" fill="#3F5B73"></polygon></g><g transform="translate(9.032167968749945 0.0)"><g transform="translate(2.220446049250313e-16 16.62447150066221)"><g clip-path="url(#i3)"><polygon points="0,-8.8817842e-16 1.37114355,-8.8817842e-16 1.37114355,1.3755285 0,1.3755285 0,-8.8817842e-16" stroke="none" fill="#3F5B73"></polygon></g></g><g clip-path="url(#i4)"><polygon points="0,0 8.96783203,0 8.96783203,15.779339 0,15.779339 0,0" stroke="none" fill="#3F5B73"></polygon></g></g></g><g transform="translate(0.0 1.9934296874998845)"><g transform="translate(12.89434320703049 0.0)"><g clip-path="url(#i5)"><polygon points="0,0 2.65225781,0 2.65225781,2.65229297 0,2.65229297 0,0" stroke="none" fill="#F3CC53"></polygon></g></g><g transform="translate(9.35266742578051 12.9915703125007)"><g clip-path="url(#i6)"><polygon points="0,0 2.65225781,0 2.65225781,2.65225781 0,2.65225781 0,0" stroke="none" fill="#F3CC53"></polygon></g></g><g transform="translate(4.107825191113079e-14 4.0941698906239985) rotate(-22.514112648817513)"><g clip-path="url(#i7)"><polygon points="0,5.68434189e-14 2.65287439,5.68434189e-14 2.65287439,2.65287439 0,2.65287439 0,5.68434189e-14" stroke="none" fill="#F3CC53"></polygon></g></g><g transform="translate(7.724124457030484 5.680406249999578)"><g transform="translate(0.0 3.5156250001167066e-05)"><g clip-path="url(#i8)"><polygon points="0,0 1.67769141,0 1.67769141,2.65225781 0,2.65225781 0,0" stroke="none" fill="#F3CC53"></polygon></g></g><g transform="translate(1.326093750000002 0.0)"><g clip-path="url(#i9)"><polygon points="0,0 1.32612891,0 1.32612891,2.65225781 0,2.65225781 0,0" stroke="none" fill="#F3CC53"></polygon></g></g></g></g></g></g></g></g></g></svg>