<svg width="24" height="24" viewBox="0 0 24 24" fill="none" xmlns="http://www.w3.org/2000/svg">
<path d="M2.49994 21V8C2.49994 7.20435 2.81601 6.44129 3.37862 5.87868C3.94123 5.31607 4.70429 5 5.49994 5H18.4999C19.2956 5 20.0587 5.31607 20.6213 5.87868C21.1839 6.44129 21.4999 7.20435 21.4999 8V14C21.4999 14.7956 21.1839 15.5587 20.6213 16.1213C20.0587 16.6839 19.2956 17 18.4999 17H6.49994L2.49994 21Z" stroke="#2A4A50" stroke-linecap="round" stroke-linejoin="round"/>
<path d="M8.25 8H5.25V14H8.25" stroke="#2A4A50" stroke-linecap="round" stroke-linejoin="round"/>
<path d="M5.25 11H7.125" stroke="#2A4A50" stroke-linecap="round" stroke-linejoin="round"/>
<path d="M10.5 13.25C10.5 13.4489 10.579 13.6397 10.7197 13.7803C10.8603 13.921 11.0511 14 11.25 14H12.75C12.9489 14 13.1397 13.921 13.2803 13.7803C13.421 13.6397 13.5 13.4489 13.5 13.25V11.75C13.5 11.5511 13.421 11.3603 13.2803 11.2197C13.1397 11.079 12.9489 11 12.75 11H11.25C11.0511 11 10.8603 10.921 10.7197 10.7803C10.579 10.6397 10.5 10.4489 10.5 10.25V8.75C10.5 8.55109 10.579 8.36032 10.7197 8.21967C10.8603 8.07902 11.0511 8 11.25 8H12.75C12.9489 8 13.1397 8.07902 13.2803 8.21967C13.421 8.36032 13.5 8.55109 13.5 8.75" stroke="#2A4A50" stroke-linecap="round" stroke-linejoin="round"/>
<path d="M16 11H17.5C17.8978 11 18.2794 10.842 18.5607 10.5607C18.842 10.2794 19 9.89782 19 9.5C19 9.10218 18.842 8.72064 18.5607 8.43934C18.2794 8.15804 17.8978 8 17.5 8H16V14" stroke="#2A4A50" stroke-linecap="round" stroke-linejoin="round"/>
</svg>
