<?xml version="1.0" standalone="no"?>
<!DOCTYPE svg PUBLIC "-//W3C//DTD SVG 20010904//EN"
 "http://www.w3.org/TR/2001/REC-SVG-20010904/DTD/svg10.dtd">
<svg version="1.0" xmlns="http://www.w3.org/2000/svg"
 width="700.000000pt" height="700.000000pt" viewBox="0 0 700.000000 700.000000"
 preserveAspectRatio="xMidYMid meet">
<metadata>
Created by potrace 1.14, written by Peter Selinger 2001-2017
</metadata>
<g transform="translate(0.000000,700.000000) scale(0.100000,-0.100000)"
fill="#000000" stroke="none">
<path d="M3860 6213 c-129 -400 -150 -556 -95 -703 33 -91 102 -231 151 -307
l36 -56 -32 20 c-47 30 -156 139 -205 205 l-43 57 -10 -77 c-41 -289 -40 -359
3 -488 35 -106 141 -321 207 -419 77 -115 75 -109 41 -92 -57 30 -153 109
-226 187 l-74 79 4 -72 c17 -291 92 -622 176 -780 37 -70 198 -228 305 -300
40 -27 72 -50 72 -52 0 -2 -24 3 -52 12 -274 80 -645 289 -978 552 -472 371
-976 947 -1328 1514 -68 111 -87 135 -95 122 -18 -34 -79 -224 -112 -356 -34
-134 -76 -363 -89 -486 l-7 -63 146 0 145 0 0 -350 0 -350 165 0 165 0 0 -325
0 -325 213 -2 212 -3 3 -262 2 -263 415 0 415 0 0 -189 c0 -172 2 -190 18
-195 9 -2 74 -17 145 -33 70 -15 127 -32 127 -38 0 -20 -99 -216 -145 -287
-233 -363 -625 -660 -1130 -857 -82 -32 -186 -69 -230 -81 -129 -37 -138 -33
150 -75 901 -130 1768 35 2535 482 140 82 357 232 494 340 120 95 506 471 506
492 0 8 -14 9 -42 4 -81 -15 -308 -9 -377 10 -78 21 -176 64 -193 85 -11 13
-8 14 21 10 60 -9 294 10 402 33 257 53 452 151 595 300 86 90 142 184 186
309 32 93 33 98 33 265 -1 164 -2 173 -33 265 -43 131 -120 257 -212 350 -202
204 -429 343 -735 450 l-50 17 0 -86 c0 -76 -3 -91 -28 -133 -15 -26 -32 -50
-37 -53 -6 -4 -41 21 -77 55 -36 34 -89 77 -117 95 -55 35 -171 95 -183 95 -4
0 -8 -54 -8 -119 0 -66 -4 -123 -9 -128 -12 -12 -183 172 -280 301 -300 399
-577 1005 -766 1672 -23 82 -44 151 -45 152 -2 2 -22 -54 -45 -125z m2178
-2148 c29 -9 52 -19 52 -23 0 -4 -60 -27 -132 -51 -165 -54 -215 -80 -277
-146 -48 -50 -101 -140 -101 -169 0 -27 -15 -25 -65 8 -82 54 -139 71 -240 71
-80 0 -104 -5 -218 -44 -71 -24 -131 -41 -133 -38 -10 10 29 73 74 120 114
117 321 125 513 20 3 -2 22 23 42 55 103 167 307 250 485 197z m207 -282 c59
-202 63 -266 23 -354 -95 -206 -370 -250 -517 -82 -113 128 -105 325 17 435
22 20 51 42 63 49 30 16 329 117 350 118 12 1 27 -40 64 -166z m-864 -150 c74
-23 166 -115 194 -193 58 -161 -15 -336 -170 -406 -103 -47 -207 -40 -306 19
-86 52 -118 108 -174 307 -27 93 -46 172 -43 175 3 3 77 30 164 60 178 60 243
67 335 38z m1026 -260 c-19 -356 -250 -622 -619 -714 -106 -26 -316 -36 -415
-20 -173 30 -320 146 -417 331 -57 109 -56 121 7 56 66 -67 155 -112 249 -127
111 -17 255 26 341 101 l34 29 127 -106 c70 -58 128 -104 130 -102 1 2 18 74
37 159 l35 154 74 2 c122 3 243 60 315 148 36 44 85 140 85 167 0 15 9 29 18
29 3 0 2 -48 -1 -107z m-656 -169 c30 -20 56 -37 58 -39 7 -7 -31 -146 -40
-143 -4 2 -33 23 -63 48 -37 30 -53 50 -49 60 3 8 13 36 22 62 9 26 17 48 17
48 1 0 26 -16 55 -36z"/>
<path d="M5931 3672 c-118 -64 -75 -243 58 -242 55 1 85 16 112 56 18 28 25
87 13 117 -4 12 -10 10 -29 -9 -31 -31 -60 -30 -91 2 -25 24 -26 35 -9 77 9
23 -10 22 -54 -1z"/>
<path d="M5223 3455 c-64 -28 -93 -123 -57 -185 24 -39 65 -60 119 -60 40 0
52 5 80 33 39 39 50 72 41 123 l-7 35 -30 -26 c-37 -30 -49 -31 -83 -4 -28 22
-33 48 -16 80 13 23 0 25 -47 4z"/>
<path d="M1302 4358 l3 -143 145 0 145 0 3 143 3 142 -151 0 -151 0 3 -142z"/>
<path d="M1150 3790 l0 -150 150 0 150 0 0 150 0 150 -150 0 -150 0 0 -150z"/>
<path d="M1260 3075 l0 -225 225 0 225 0 0 225 0 225 -225 0 -225 0 0 -225z"/>
<path d="M1980 2970 l0 -180 185 0 185 0 0 180 0 180 -185 0 -185 0 0 -180z"/>
<path d="M2070 2345 l0 -135 130 0 130 0 0 135 0 135 -130 0 -130 0 0 -135z"/>
<path d="M720 2240 l0 -210 215 0 215 0 0 210 0 210 -215 0 -215 0 0 -210z"/>
<path d="M1450 1755 l0 -205 205 0 205 0 0 205 0 205 -205 0 -205 0 0 -205z"/>
</g>
</svg>
