<svg width="226" height="202" viewBox="0 0 226 202" fill="none" xmlns="http://www.w3.org/2000/svg">
<path fill-rule="evenodd" clip-rule="evenodd" d="M23.2429 40.4324C23.2429 30.8048 31.0476 23 40.6753 23H184.36C193.988 23 201.793 30.8048 201.793 40.4324C201.793 50.06 193.988 57.8648 184.36 57.8648H40.6753C31.0476 57.8648 23.2429 50.06 23.2429 40.4324ZM46.4865 75.2972C46.4865 65.6696 54.2913 57.8648 63.9189 57.8648H207.604C217.232 57.8648 225.036 65.6696 225.036 75.2972C225.036 84.9249 217.232 92.7296 207.604 92.7296H63.9189C54.2913 92.7296 46.4865 84.9249 46.4865 75.2972ZM17.4324 92.7337C7.80474 92.7337 0 100.538 0 110.166C0 119.794 7.80476 127.599 17.4324 127.599H57.0443C47.6646 127.882 40.1478 135.574 40.1478 145.023C40.1478 154.65 47.9525 162.455 57.5802 162.455H201.265C210.893 162.455 218.698 154.65 218.698 145.023C218.698 135.395 210.893 127.59 201.265 127.59H161.653C171.033 127.307 178.55 119.615 178.55 110.166C178.55 100.538 170.745 92.7337 161.118 92.7337H17.4324ZM26.9414 162.459C17.3138 162.459 9.50903 170.264 9.50903 179.892C9.50903 189.519 17.3138 197.324 26.9414 197.324H184.361C193.989 197.324 201.794 189.519 201.794 179.892C201.794 170.264 193.989 162.459 184.361 162.459H26.9414Z" fill="white"/>
<g filter="url(#filter0_d_2056_120334)">
<path fill-rule="evenodd" clip-rule="evenodd" d="M171.1 177.445C171.486 177.876 172.148 177.912 172.578 177.525L183.662 167.583C183.611 167.528 183.56 167.473 183.51 167.417C179.853 163.341 180.199 157.068 184.282 153.406C188.364 149.743 194.638 150.079 198.294 154.155C198.345 154.211 198.394 154.267 198.443 154.324L210.445 143.557C210.876 143.171 210.911 142.509 210.525 142.078L200.191 130.558L200.192 130.557C204.274 126.894 204.62 120.621 200.964 116.545C197.308 112.47 191.034 112.134 186.951 115.797L186.95 115.798L176.616 104.278C176.23 103.847 175.568 103.811 175.137 104.197L163.596 114.551L163.596 114.551C167.253 118.627 166.907 124.9 162.824 128.562C158.742 132.225 152.468 131.889 148.812 127.813L148.811 127.813L137.271 138.166C136.84 138.552 136.804 139.214 137.191 139.644L171.1 177.445Z" fill="#BCDAF2"/>
</g>
<g filter="url(#filter1_d_2056_120334)">
<rect x="29.1689" y="81.8916" width="75.5749" height="115.456" transform="rotate(-15.429 29.1689 81.8916)" fill="white"/>
</g>
<rect x="34.6016" y="84.8726" width="66.6837" height="87.4298" transform="rotate(-15.429 34.6016 84.8726)" fill="#EDF4F3"/>
<path d="M57.5479 117.109C56.7963 114.463 58.3325 111.708 60.9791 110.956L64.4056 109.983C65.3169 109.725 66.1356 109.211 66.7656 108.504L68.7748 106.247C69.4047 105.539 70.2234 105.026 71.1348 104.767L74.5463 103.798L77.9578 102.829C78.8692 102.57 79.8355 102.577 80.7433 102.848L83.6389 103.712C84.5467 103.983 85.513 103.989 86.4244 103.731L89.8508 102.758C92.4974 102.006 95.2522 103.542 96.0038 106.189L100.542 122.169C101.293 124.816 99.7572 127.57 97.1106 128.322L68.2389 136.521C65.5923 137.272 62.8375 135.736 62.0859 133.09L57.5479 117.109Z" fill="#405B73" fill-opacity="0.85"/>
<path d="M76.3939 109.888C70.9182 111.443 67.7172 117.166 69.2682 122.627C70.8191 128.089 76.5647 131.326 82.0403 129.771C87.516 128.216 90.7026 122.442 89.1516 116.981C87.6006 111.519 81.8695 108.333 76.3939 109.888Z" fill="#F4CC54" fill-opacity="0.85"/>
<path d="M77.2616 112.945C73.4685 114.022 71.253 117.978 72.3262 121.757C73.3994 125.536 77.3776 127.787 81.1707 126.71C84.9638 125.633 87.1649 121.627 86.0917 117.848C85.0185 114.068 81.0547 111.868 77.2616 112.945Z" fill="#F3F5F9" fill-opacity="0.85"/>
<path d="M60.7983 115.569C60.6647 115.099 60.9376 114.609 61.4081 114.476L64.8143 113.508C65.2848 113.375 65.7741 113.648 65.9077 114.118C66.0413 114.589 65.7684 115.078 65.298 115.211L61.8917 116.179C61.4212 116.312 60.9319 116.04 60.7983 115.569Z" fill="#F4CC54" fill-opacity="0.85"/>
<path d="M89.2158 102.987L85.8095 103.954C85.3391 104.088 84.8497 103.815 84.7161 103.345C84.5825 102.874 84.8554 102.385 85.3259 102.251L88.7321 101.284C89.2026 101.15 89.6919 101.423 89.8255 101.894C89.9591 102.364 89.6863 102.853 89.2158 102.987Z" fill="#DDBE5B"/>
<g filter="url(#filter2_d_2056_120334)">
<path fill-rule="evenodd" clip-rule="evenodd" d="M106.296 86.4665C108.356 81.4693 105.968 75.7457 100.963 73.6823C100.661 73.5581 100.357 73.45 100.052 73.3575L106.653 57.3432C106.785 57.0227 107.152 56.8699 107.473 57.0021L123.009 63.4065C125.485 59.3997 130.573 57.6608 135.076 59.5172C139.58 61.3736 141.964 66.1928 140.897 70.7802L154.649 76.4491C154.97 76.5812 155.123 76.9482 154.99 77.2688L148.374 93.3201C148.712 93.4185 149.048 93.5361 149.381 93.6733C154.386 95.7367 156.774 101.46 154.714 106.457C152.654 111.455 146.927 113.833 141.921 111.77C141.588 111.632 141.267 111.479 140.958 111.311L135.577 124.365C135.445 124.685 135.078 124.838 134.757 124.706L87.5804 105.259C87.2599 105.127 87.1071 104.76 87.2393 104.439L92.6278 91.3671C92.9097 91.5169 93.2016 91.6544 93.5029 91.7786C98.5084 93.8419 104.236 91.4636 106.296 86.4665Z" fill="#5A7286"/>
</g>
<g filter="url(#filter3_d_2056_120334)">
<path fill-rule="evenodd" clip-rule="evenodd" d="M178.058 25.6226C178.325 24.9824 178.022 24.2474 177.382 23.981L130.185 4.34492C129.545 4.07854 128.81 4.38163 128.544 5.0219L123.075 18.1667C117.947 16.0335 112.192 18.1467 110.22 22.8866C108.248 27.6266 110.806 33.1984 115.933 35.3318L110.464 48.4768C110.198 49.117 110.501 49.852 111.141 50.1184L125.455 56.0739C125.456 56.0736 125.456 56.0734 125.456 56.0731C127.428 51.3331 133.183 49.22 138.311 51.3533C143.438 53.4865 145.996 59.0584 144.024 63.7984C144.024 63.7987 144.024 63.7989 144.024 63.7992L158.337 69.7545C158.978 70.0209 159.713 69.7178 159.979 69.0775L165.273 56.3532C170.346 58.341 175.969 56.2212 177.914 51.547C179.859 46.8728 177.398 41.3896 172.413 39.1926L178.058 25.6226Z" fill="#DDBE5B"/>
</g>
<g filter="url(#filter4_d_2056_120334)">
<rect x="9.16895" y="58.8916" width="75.5749" height="115.456" transform="rotate(-15.429 9.16895 58.8916)" fill="white"/>
</g>
<rect x="14.6016" y="61.8726" width="66.6837" height="87.4298" transform="rotate(-15.429 14.6016 61.8726)" fill="#EDF4F3"/>
<path d="M37.5479 94.1094C36.7963 91.4628 38.3325 88.708 40.9791 87.9564L44.4056 86.9834C45.3169 86.7246 46.1356 86.2113 46.7656 85.5036L48.7748 83.2466C49.4047 82.5389 50.2234 82.0256 51.1348 81.7668L54.5463 80.798L57.9578 79.8292C58.8692 79.5704 59.8355 79.5768 60.7433 79.8478L63.6389 80.712C64.5467 80.9829 65.513 80.9894 66.4244 80.7305L69.8508 79.7575C72.4974 79.0059 75.2522 80.5422 76.0038 83.1887L80.5418 99.169C81.2934 101.816 79.7572 104.57 77.1106 105.322L48.2389 113.521C45.5923 114.272 42.8375 112.736 42.0859 110.09L37.5479 94.1094Z" fill="#405B73" fill-opacity="0.85"/>
<path d="M56.3939 86.8877C50.9182 88.4427 47.7172 94.1656 49.2682 99.6272C50.8191 105.089 56.5647 108.326 62.0403 106.771C67.516 105.216 70.7026 99.4423 69.1516 93.9808C67.6006 88.5191 61.8695 85.3327 56.3939 86.8877Z" fill="#F4CC54" fill-opacity="0.85"/>
<path d="M57.2616 89.9449C53.4685 91.022 51.253 94.9775 52.3262 98.7567C53.3994 102.536 57.3776 104.787 61.1707 103.71C64.9638 102.633 67.1649 98.6268 66.0917 94.8477C65.0185 91.0685 61.0547 88.8677 57.2616 89.9449Z" fill="#F3F5F9" fill-opacity="0.85"/>
<path d="M40.7983 92.5691C40.6647 92.0986 40.9376 91.6093 41.4081 91.4757L44.8143 90.5084C45.2848 90.3748 45.7741 90.6476 45.9077 91.1181C46.0413 91.5885 45.7684 92.0779 45.298 92.2115L41.8917 93.1788C41.4212 93.3124 40.9319 93.0395 40.7983 92.5691Z" fill="#F4CC54" fill-opacity="0.85"/>
<path d="M69.2158 79.9871L65.8095 80.9544C65.3391 81.088 64.8497 80.8151 64.7161 80.3446C64.5825 79.8742 64.8554 79.3848 65.3259 79.2512L68.7321 78.2839C69.2026 78.1503 69.6919 78.4232 69.8255 78.8937C69.9591 79.3641 69.6863 79.8534 69.2158 79.9871Z" fill="#DDBE5B"/>
<defs>
<filter id="filter0_d_2056_120334" x="129.385" y="99.7422" width="88.9451" height="88.9383" filterUnits="userSpaceOnUse" color-interpolation-filters="sRGB">
<feFlood flood-opacity="0" result="BackgroundImageFix"/>
<feColorMatrix in="SourceAlpha" type="matrix" values="0 0 0 0 0 0 0 0 0 0 0 0 0 0 0 0 0 0 127 0" result="hardAlpha"/>
<feOffset dy="3.35"/>
<feGaussianBlur stdDeviation="3.76875"/>
<feComposite in2="hardAlpha" operator="out"/>
<feColorMatrix type="matrix" values="0 0 0 0 0.620833 0 0 0 0 0.620833 0 0 0 0 0.620833 0 0 0 0.25 0"/>
<feBlend mode="normal" in2="BackgroundImageFix" result="effect1_dropShadow_2056_120334"/>
<feBlend mode="normal" in="SourceGraphic" in2="effect1_dropShadow_2056_120334" result="shape"/>
</filter>
<filter id="filter1_d_2056_120334" x="24.1689" y="57.7852" width="115.567" height="143.402" filterUnits="userSpaceOnUse" color-interpolation-filters="sRGB">
<feFlood flood-opacity="0" result="BackgroundImageFix"/>
<feColorMatrix in="SourceAlpha" type="matrix" values="0 0 0 0 0 0 0 0 0 0 0 0 0 0 0 0 0 0 127 0" result="hardAlpha"/>
<feOffset dx="1" dy="2"/>
<feGaussianBlur stdDeviation="3"/>
<feComposite in2="hardAlpha" operator="out"/>
<feColorMatrix type="matrix" values="0 0 0 0 0.825 0 0 0 0 0.825 0 0 0 0 0.825 0 0 0 0.25 0"/>
<feBlend mode="normal" in2="BackgroundImageFix" result="effect1_dropShadow_2056_120334"/>
<feBlend mode="normal" in="SourceGraphic" in2="effect1_dropShadow_2056_120334" result="shape"/>
</filter>
<filter id="filter2_d_2056_120334" x="79.6539" y="52.7671" width="83.3377" height="82.8738" filterUnits="userSpaceOnUse" color-interpolation-filters="sRGB">
<feFlood flood-opacity="0" result="BackgroundImageFix"/>
<feColorMatrix in="SourceAlpha" type="matrix" values="0 0 0 0 0 0 0 0 0 0 0 0 0 0 0 0 0 0 127 0" result="hardAlpha"/>
<feOffset dy="3.35"/>
<feGaussianBlur stdDeviation="3.76875"/>
<feComposite in2="hardAlpha" operator="out"/>
<feColorMatrix type="matrix" values="0 0 0 0 0.620833 0 0 0 0 0.620833 0 0 0 0 0.620833 0 0 0 0.25 0"/>
<feBlend mode="normal" in2="BackgroundImageFix" result="effect1_dropShadow_2056_120334"/>
<feBlend mode="normal" in="SourceGraphic" in2="effect1_dropShadow_2056_120334" result="shape"/>
</filter>
<filter id="filter3_d_2056_120334" x="102.017" y="0.0605469" width="84.0994" height="80.678" filterUnits="userSpaceOnUse" color-interpolation-filters="sRGB">
<feFlood flood-opacity="0" result="BackgroundImageFix"/>
<feColorMatrix in="SourceAlpha" type="matrix" values="0 0 0 0 0 0 0 0 0 0 0 0 0 0 0 0 0 0 127 0" result="hardAlpha"/>
<feOffset dy="3.35"/>
<feGaussianBlur stdDeviation="3.76875"/>
<feComposite in2="hardAlpha" operator="out"/>
<feColorMatrix type="matrix" values="0 0 0 0 0.620833 0 0 0 0 0.620833 0 0 0 0 0.620833 0 0 0 0.25 0"/>
<feBlend mode="normal" in2="BackgroundImageFix" result="effect1_dropShadow_2056_120334"/>
<feBlend mode="normal" in="SourceGraphic" in2="effect1_dropShadow_2056_120334" result="shape"/>
</filter>
<filter id="filter4_d_2056_120334" x="4.16895" y="34.7852" width="115.567" height="143.402" filterUnits="userSpaceOnUse" color-interpolation-filters="sRGB">
<feFlood flood-opacity="0" result="BackgroundImageFix"/>
<feColorMatrix in="SourceAlpha" type="matrix" values="0 0 0 0 0 0 0 0 0 0 0 0 0 0 0 0 0 0 127 0" result="hardAlpha"/>
<feOffset dx="1" dy="2"/>
<feGaussianBlur stdDeviation="3"/>
<feComposite in2="hardAlpha" operator="out"/>
<feColorMatrix type="matrix" values="0 0 0 0 0.825 0 0 0 0 0.825 0 0 0 0 0.825 0 0 0 0.25 0"/>
<feBlend mode="normal" in2="BackgroundImageFix" result="effect1_dropShadow_2056_120334"/>
<feBlend mode="normal" in="SourceGraphic" in2="effect1_dropShadow_2056_120334" result="shape"/>
</filter>
</defs>
</svg>
