<svg width="100%" height="auto" viewBox="0 0 103 139" fill="none" xmlns="http://www.w3.org/2000/svg">
    <rect x="0.360352" y="0.00610352" width="102" height="139.826" fill="white"/>
    <rect x="6.39453" y="5.83496" width="90" height="102" fill="#EDF4F3"/>
    <g transform="translate(0, -10)">
        <path d="M24.7354 54.0764C24.7354 51.3251 26.9657 49.0948 29.7169 49.0948H36.7733C37.7207 49.0948 38.6485 48.8246 39.4478 48.316L43.7444 45.5818C44.5437 45.0731 45.4715 44.803 46.4189 44.803H51.7125H57.0062C57.9536 44.803 58.8814 45.0731 59.6807 45.5818L63.9773 48.316C64.7766 48.8246 65.7043 49.0948 66.6518 49.0948H73.7081C76.4594 49.0948 78.6897 51.3251 78.6897 54.0764V79.9806C78.6897 82.7319 76.4594 84.9622 73.7081 84.9622H29.7169C26.9657 84.9622 24.7354 82.7319 24.7354 79.9806V54.0764Z" fill="#405B73" fill-opacity="0.85"/>
        <path d="M51.8654 53.3867C44.183 53.3867 37.917 59.6367 37.917 67.2995C37.917 74.9621 44.183 81.2836 51.8654 81.2836C59.5479 81.2836 65.8138 74.9621 65.8138 67.2995C65.8138 59.6367 59.5479 53.3867 51.8654 53.3867Z" fill="#F4CC54" fill-opacity="0.85"/>
        <path d="M51.8656 57.6785C46.5438 57.6785 42.209 61.9971 42.209 67.2994C42.209 72.6016 46.5438 76.9917 51.8656 76.9917C57.1874 76.9917 61.5222 72.6016 61.5222 67.2994C61.5222 61.9971 57.1874 57.6785 51.8656 57.6785Z" fill="#F3F5F9" fill-opacity="0.85"/>
        <path d="M29.5221 55.0134C29.5221 54.3534 30.0569 53.8187 30.7169 53.8187H35.496C36.156 53.8187 36.6907 54.3534 36.6907 55.0134C36.6907 55.6735 36.156 56.2082 35.496 56.2082H30.7169C30.0568 56.2081 29.5221 55.6735 29.5221 55.0134Z" fill="#F4CC54" fill-opacity="0.85"/>
        <path d="M71.0558 49.1574L66.2767 49.1574C65.6167 49.1574 65.082 48.6227 65.082 47.9626C65.082 47.3026 65.6167 46.7679 66.2767 46.7679L71.0558 46.7679C71.7158 46.7679 72.2506 47.3026 72.2506 47.9626C72.2506 48.6227 71.7159 49.1574 71.0558 49.1574Z" fill="#DDBE5B"/>
    </g>
</svg>
