<svg width="38" height="38" viewBox="0 0 38 38" fill="none" xmlns="http://www.w3.org/2000/svg">
<mask id="mask0_1338_15287" style="mask-type:luminance" maskUnits="userSpaceOnUse" x="0" y="0" width="38" height="38">
<circle cx="19" cy="19" r="19" fill="white"/>
</mask>
<g mask="url(#mask0_1338_15287)">
<circle cx="19" cy="19" r="25.3333" fill="white"/>
<path d="M17.1219 15.462L10.447 12.6514C10.5021 9.28246 10.9187 7.59998 12.0116 7.59998C13.1909 7.59998 13.1909 10.3517 19.0874 10.3517C24.984 10.3517 24.984 7.59998 26.1633 7.59998C27.2561 7.59998 27.6728 9.28246 27.7278 12.6514L21.053 15.462H17.1219Z" fill="#405B73"/>
<path d="M27.9008 18.0958C28.1659 18.5384 28.396 19.001 28.5887 19.4796C28.6944 19.7289 28.7876 19.9835 28.8678 20.2422C29.1537 21.11 29.3023 22.0173 29.3081 22.931C29.3081 25.6002 27.944 27.5775 25.7859 28.8276C23.9933 29.8693 21.6504 30.4 19.0874 30.4C16.5244 30.4 14.1815 29.8693 12.3889 28.8276C10.2308 27.5775 8.8667 25.6002 8.8667 22.931C8.87249 22.0173 9.02104 21.11 9.30698 20.2422C9.38718 19.9835 9.48033 19.7289 9.58608 19.4796C9.77881 19.001 10.0088 18.5384 10.274 18.0958L17.1219 15.462H21.0529L27.9008 18.0958Z" fill="#405B73"/>
<ellipse cx="19.0874" cy="25.6827" rx="3.93103" ry="4.71724" fill="#F4CC54"/>
<path d="M19.0874 30.3999H12.0115C11.5779 30.3986 11.2266 30.0474 11.2253 29.6137C11.2286 29.1808 11.5787 28.8307 12.0115 28.8275H12.3889C14.1815 29.8692 16.5244 30.3999 19.0874 30.3999Z" fill="#F4CC54"/>
<path d="M26.9495 29.6137C26.9482 30.0474 26.5969 30.3986 26.1633 30.3999H19.0874C21.6504 30.3999 23.9933 29.8692 25.7859 28.8275H26.1633C26.5961 28.8307 26.9463 29.1808 26.9495 29.6137Z" fill="#F4CC54"/>
<path d="M17.1219 15.462C17.1202 17.6305 15.3614 19.3874 13.193 19.3868C11.0245 19.3862 9.26669 17.6284 9.26611 15.4599C9.26553 13.2914 11.0224 11.5327 13.1909 11.531C15.3619 11.531 17.1219 13.291 17.1219 15.462Z" fill="#E7E8E8"/>
<path d="M28.915 15.4621C28.9185 17.3373 27.5995 18.955 25.7619 19.329C23.9244 19.7029 22.078 18.7295 21.3483 17.002C20.6187 15.2746 21.2082 13.2722 22.7574 12.2157C24.3067 11.1592 26.386 11.3414 27.7278 12.6514C28.4873 13.3892 28.9156 14.4032 28.915 15.4621Z" fill="#E7E8E8"/>
<path d="M20.5798 16.5445C20.5798 17.3998 19.0299 20.1284 19.0299 20.1284C19.0299 20.1284 17.48 17.3998 17.48 16.5445C17.48 15.6892 18.1739 14.9958 19.0299 14.9958C19.8859 14.9958 20.5798 15.6892 20.5798 16.5445Z" fill="#F4CC54"/>
<ellipse cx="13.584" cy="15.462" rx="1.17931" ry="1.17931" fill="#405B73"/>
<circle cx="24.5908" cy="15.462" r="1.17931" fill="#405B73"/>
</g>
</svg>
