<svg width="30" height="30" viewBox="0 0 30 30" fill="none" xmlns="http://www.w3.org/2000/svg">
<circle cx="15" cy="15" r="15" fill="#82B1B0"/>
<path d="M10.5 19.5C10.1562 19.5 9.86198 19.3776 9.61719 19.1328C9.3724 18.888 9.25 18.5938 9.25 18.25V10.75C9.25 10.4062 9.3724 10.112 9.61719 9.86719C9.86198 9.6224 10.1562 9.5 10.5 9.5H18C18.3438 9.5 18.638 9.6224 18.8828 9.86719C19.1276 10.112 19.25 10.4062 19.25 10.75V13.5625L21.2188 11.5938C21.3229 11.4896 21.4375 11.4635 21.5625 11.5156C21.6875 11.5677 21.75 11.6667 21.75 11.8125V17.1875C21.75 17.3333 21.6875 17.4323 21.5625 17.4844C21.4375 17.5365 21.3229 17.5104 21.2188 17.4062L19.25 15.4375V18.25C19.25 18.5938 19.1276 18.888 18.8828 19.1328C18.638 19.3776 18.3438 19.5 18 19.5H10.5Z" fill="white"/>
</svg>
