<svg width="24" height="24" viewBox="0 0 24 24" fill="none" xmlns="http://www.w3.org/2000/svg">
<g clip-path="url(#clip0_13694_10518)">
<path d="M17 2C17.5045 1.99984 17.9904 2.19026 18.3604 2.5332C18.7302 2.87621 18.9572 3.3466 18.9951 3.84961L19 4V6C19.0005 7.20793 18.6883 8.39581 18.0938 9.44727C17.4992 10.4985 16.6426 11.378 15.6074 12C16.6034 12.5982 17.4349 13.4356 18.0264 14.4355C18.6176 15.4354 18.9506 16.5668 18.9951 17.7275L19 18V20C19.0002 20.5045 18.8097 20.9904 18.4668 21.3604C18.1238 21.7302 17.6534 21.9572 17.1504 21.9951L17 22H7C6.49554 22.0002 6.0096 21.8097 5.63965 21.4668C5.26976 21.1238 5.04281 20.6534 5.00488 20.1504L5 20V18C4.99946 16.7921 5.31165 15.6042 5.90625 14.5527C6.50078 13.5015 7.35739 12.622 8.39258 12C7.39664 11.4018 6.56509 10.5644 5.97363 9.56445C5.38235 8.56463 5.04944 7.43318 5.00488 6.27246L5 6V4C4.99984 3.49554 5.19026 3.0096 5.5332 2.63965C5.87621 2.26976 6.3466 2.04281 6.84961 2.00488L7 2H17ZM7.83301 6C7.61218 6.00007 7.40033 6.07517 7.24414 6.20898C7.08798 6.34284 7.00013 6.52458 7 6.71387C7 7.85051 7.52716 8.94139 8.46484 9.74512C9.40249 10.5486 10.6741 11 12 11C13.3259 11 14.5975 10.5486 15.5352 9.74512C16.4728 8.94139 17 7.85051 17 6.71387C16.9999 6.52458 16.912 6.34284 16.7559 6.20898C16.5997 6.07517 16.3878 6.00007 16.167 6H7.83301Z" fill="#FB923C"/>
</g>
<defs>
<clipPath id="clip0_13694_10518">
<rect width="24" height="24" fill="white"/>
</clipPath>
</defs>
</svg>
