<svg width="15" height="14" viewBox="0 0 15 14" fill="none" xmlns="http://www.w3.org/2000/svg">
<path fill-rule="evenodd" clip-rule="evenodd" d="M13.5457 2.115C13.9351 1.72564 13.9351 1.09436 13.5457 0.705C13.1564 0.315639 12.5251 0.315639 12.1357 0.705L7.25073 5.59L2.36573 0.705C1.97637 0.315639 1.34509 0.315639 0.955732 0.705C0.566372 1.09436 0.566372 1.72564 0.955733 2.115L5.84073 7L0.955732 11.885C0.566372 12.2744 0.566372 12.9056 0.955732 13.295C1.34509 13.6844 1.97637 13.6844 2.36573 13.295L7.25073 8.41L12.1357 13.295C12.5251 13.6844 13.1564 13.6844 13.5457 13.295C13.9351 12.9056 13.9351 12.2744 13.5457 11.885L8.66073 7L13.5457 2.115Z" fill="#393939"/>
</svg>
