<svg width="64" height="64" viewBox="0 0 64 64" fill="none" xmlns="http://www.w3.org/2000/svg">
<path fill-rule="evenodd" clip-rule="evenodd" d="M45.7628 30.3304V15.8523C45.7911 15.1324 45.2333 14.5245 44.5137 14.4907H41.347H14.5332C13.8135 14.5245 13.2557 15.1324 13.284 15.8523L13.284 34.7338L13.284 36.9761H43.0583L45.7628 30.3304Z" fill="#EDF4F3"/>
<path fill-rule="evenodd" clip-rule="evenodd" d="M43.0584 36.9761L41.7842 40.099L36.3939 40.099L34.5202 43.222H23.2775L25.1513 40.099H14.5332C13.8135 40.0653 13.2557 39.4574 13.284 38.7374V36.9761H43.0584ZM20.1545 44.4712C20.1596 45.159 20.7159 45.7153 21.4037 45.7204H33.271L33.4271 43.222H21.4037C20.7146 43.2241 20.1566 43.7821 20.1545 44.4712Z" fill="#405B73"/>
<circle cx="41.3907" cy="33.8533" r="5.62134" fill="#FDD7AD"/>
<path d="M33.271 48.8435V44.4714C33.271 41.7117 35.5081 39.4746 38.2677 39.4746H44.5137C47.2733 39.4746 49.5104 41.7117 49.5104 44.4714V48.8435C49.5104 49.8784 48.6715 50.7173 47.6366 50.7173H35.1448C34.1099 50.7173 33.271 49.8784 33.271 48.8435Z" fill="#F4CC54"/>
<circle cx="23.2774" cy="25.7336" r="4.99675" fill="#FDD7AD"/>
<path fill-rule="evenodd" clip-rule="evenodd" d="M25.932 36.9759H20.623C19.5663 35.2361 18.8144 33.3287 18.3994 31.3358C19.1289 30.9366 19.9475 30.7282 20.7791 30.73H25.7758C26.6075 30.7282 27.426 30.9366 28.1555 31.3358C29.7697 32.2061 30.7751 33.8929 30.7726 35.7267L30.7726 36.9759H25.932C25.932 36.9759 25.932 36.9759 25.932 36.9759ZM18.3994 31.3359C18.8144 33.3287 19.5663 35.2361 20.623 36.9759H15.7823L15.7824 35.7267C15.7798 33.8929 16.7852 32.2061 18.3994 31.3359Z" fill="#405B73"/>
<path d="M43.2645 18.2384V24.4844C43.2624 25.1734 42.7043 25.7315 42.0153 25.7336H37.6431L34.3015 28.1133C34.1024 28.2535 33.8419 28.2715 33.6254 28.16C33.4089 28.0485 33.2723 27.8259 33.271 27.5824V25.7336H32.0218C31.3327 25.7315 30.7746 25.1734 30.7726 24.4844V18.2384C30.7746 17.5494 31.3327 16.9913 32.0218 16.9893H42.0153C42.7043 16.9913 43.2624 17.5494 43.2645 18.2384Z" fill="#405B73"/>
<path d="M36.3939 20.112H33.271C32.926 20.112 32.6464 19.8323 32.6464 19.4874C32.6464 19.1424 32.926 18.8628 33.271 18.8628H36.3939C36.7389 18.8628 37.0185 19.1424 37.0185 19.4874C37.0185 19.8323 36.7389 20.112 36.3939 20.112Z" fill="#F4CC54"/>
<path d="M40.7661 22.6105H33.271C32.926 22.6105 32.6464 22.3309 32.6464 21.9859C32.6464 21.641 32.926 21.3613 33.271 21.3613H40.7661C41.111 21.3613 41.3907 21.641 41.3907 21.9859C41.3907 22.3309 41.111 22.6105 40.7661 22.6105Z" fill="#F4CC54"/>
</svg>
