<svg width="22" height="22" viewBox="0 0 22 22" fill="none" xmlns="http://www.w3.org/2000/svg">
<g clip-path="url(#clip0_551_1299)">
<path d="M10.9656 0.6875C6.46252 0.6875 2.64689 3.575 1.23752 7.5625H20.6938C19.2844 3.575 15.4688 0.6875 10.9656 0.6875Z" fill="#3E4347"/>
<path d="M10.9656 21.3125C15.4688 21.3125 19.2844 18.4594 20.6938 14.4375H1.23752C2.64689 18.4594 6.46252 21.3125 10.9656 21.3125Z" fill="#FFE62E"/>
<path d="M1.23748 7.5625C0.859357 8.62813 0.653107 9.79688 0.653107 11C0.653107 12.2031 0.859357 13.3719 1.23748 14.4375H20.6937C21.0719 13.3719 21.2781 12.2031 21.2781 11C21.2781 9.79688 21.0719 8.62813 20.6937 7.5625H1.23748Z" fill="#ED4C5C"/>
<path d="M11 21.5417C16.822 21.5417 21.5417 16.822 21.5417 11C21.5417 5.17804 16.822 0.458374 11 0.458374C5.17801 0.458374 0.458344 5.17804 0.458344 11C0.458344 16.822 5.17801 21.5417 11 21.5417Z" stroke="#BEBEBE"/>
</g>
<defs>
<clipPath id="clip0_551_1299">
<rect width="22" height="22" fill="white"/>
</clipPath>
</defs>
</svg>
