<svg width="24" height="24" viewBox="0 0 24 24" fill="none" xmlns="http://www.w3.org/2000/svg">
<path d="M11.9625 0.75C7.05001 0.75 2.88751 3.9 1.35001 8.25H22.575C21.0375 3.9 16.875 0.75 11.9625 0.75Z" fill="#3E4347"/>
<path d="M11.9625 23.25C16.875 23.25 21.0375 20.1375 22.575 15.75H1.35001C2.88751 20.1375 7.05001 23.25 11.9625 23.25Z" fill="#FFE62E"/>
<path d="M1.34999 8.25C0.937494 9.4125 0.712494 10.6875 0.712494 12C0.712494 13.3125 0.937494 14.5875 1.34999 15.75H22.575C22.9875 14.5875 23.2125 13.3125 23.2125 12C23.2125 10.6875 22.9875 9.4125 22.575 8.25H1.34999Z" fill="#ED4C5C"/>
<circle cx="12" cy="12" r="11.5" stroke="#BEBEBE"/>
</svg>
