<svg width="64" height="64" viewBox="0 0 64 64" fill="none" xmlns="http://www.w3.org/2000/svg">
<path d="M42.1276 25.6349V15.1179C42.1276 14.9296 42.043 14.7512 41.8971 14.6321C41.7513 14.513 41.5596 14.4657 41.3751 14.5034C32.7913 16.4448 31.6143 22.6652 31.4864 23.6283C31.4739 23.7098 31.4676 23.7537 31.4676 23.7537C31.4676 23.7537 31.4613 23.7098 31.4488 23.6283C31.3234 22.6652 30.1439 16.4448 21.5614 14.5034C21.3769 14.4657 21.1852 14.513 21.0393 14.6321C20.8935 14.7512 20.8089 14.9296 20.8089 15.1179V25.6349H42.1276Z" fill="#EDF4F3"/>
<path d="M14.7754 19.6904L16.5832 17.433C16.8678 17.0755 17.3242 16.9011 17.7746 16.9777C25.5689 18.3717 31.4676 22.5372 31.4676 23.7537C31.4676 22.5372 37.3663 18.3717 45.1594 16.9777C45.6098 16.9011 46.0662 17.0755 46.3508 17.433L48.1586 19.6904V30.6513H14.7754L14.7754 19.6904Z" fill="#EDF4F3"/>
<path d="M48.7743 19.4181L34.352 25.7639C34.1238 25.8635 33.9762 26.0887 33.9758 26.3376V26.2618C33.9758 25.9155 33.6951 25.6347 33.3488 25.6347H29.5864C29.2401 25.6347 28.9594 25.9155 28.9594 26.2618V26.3376C28.959 26.0887 28.8113 25.8635 28.5831 25.7639L14.1608 19.4181C13.9672 19.3336 13.7441 19.3522 13.5672 19.4677C13.3903 19.5832 13.2835 19.78 13.283 19.9912V43.704C13.2833 43.9529 13.431 44.1781 13.6592 44.2777L28.0815 50.6235C28.2752 50.7081 28.4984 50.6893 28.6754 50.5737C28.8523 50.4581 28.959 50.2611 28.9594 50.0498V50.0899C28.9594 50.4362 29.2401 50.717 29.5864 50.717H33.3488C33.6951 50.717 33.9758 50.4362 33.9758 50.0899V50.0498C33.9761 50.2611 34.0829 50.4581 34.2598 50.5737C34.4367 50.6893 34.66 50.7081 34.8537 50.6235L49.276 44.2777C49.5042 44.1781 49.6518 43.9529 49.6522 43.704V19.9912C49.6517 19.78 49.5448 19.5832 49.3679 19.4677C49.1911 19.3522 48.9679 19.3336 48.7743 19.4181Z" fill="#405B73"/>
<rect x="28.9594" y="25.6348" width="5.01645" height="25.0822" rx="2.50822" fill="#405B73"/>
<rect x="28.9594" y="29.3975" width="5.01645" height="2.50822" rx="1.25411" fill="#F0C419"/>
<rect x="28.9594" y="44.4468" width="5.01645" height="2.50822" rx="1.25411" fill="#F0C419"/>
<path d="M46.784 31.4475L37.3782 35.8739C37.1839 35.9654 36.9564 35.9511 36.7751 35.836C36.5938 35.721 36.4839 35.5211 36.484 35.3064V30.4223C36.4839 30.1794 36.6242 29.9583 36.8439 29.8548L46.2498 25.4284C46.444 25.3369 46.6716 25.3512 46.8529 25.4663C47.0342 25.5813 47.144 25.7812 47.144 25.9959V30.88C47.144 31.1229 47.0038 31.344 46.784 31.4475Z" fill="#F4CC54"/>
<path d="M16.1511 31.4475L25.5569 35.8739C25.7512 35.9654 25.9787 35.9511 26.16 35.836C26.3413 35.721 26.4511 35.5211 26.4511 35.3064V30.4223C26.4512 30.1794 26.3109 29.9583 26.0912 29.8548L16.6853 25.4284C16.4911 25.3369 16.2635 25.3512 16.0822 25.4663C15.9009 25.5813 15.7911 25.7812 15.7911 25.9959V30.88C15.7911 31.1229 15.9313 31.344 16.1511 31.4475Z" fill="#F4CC54"/>
<rect x="28.9594" y="29.3975" width="5.01645" height="2.50822" rx="1.25411" fill="#F4CC54"/>
<rect x="28.9594" y="44.4468" width="5.01645" height="2.50822" rx="1.25411" fill="#F4CC54"/>
<path d="M26.4511 40.0569C26.3588 40.0571 26.2675 40.0367 26.184 39.9973L15.524 34.9808C15.3213 34.8854 15.1849 34.6891 15.1661 34.4658C15.1474 34.2425 15.2492 34.0261 15.4333 33.8983C15.6173 33.7704 15.8555 33.7504 16.0583 33.8459L26.7182 38.8623C26.9841 38.9873 27.1275 39.28 27.0634 39.5666C26.9993 39.8533 26.7448 40.057 26.4511 40.0569Z" fill="#F4CC54"/>
<path d="M25.1826 42.5954C25.0902 42.5956 24.999 42.5752 24.9154 42.5358L16.7944 38.7127C16.5851 38.6215 16.4419 38.4237 16.4206 38.1963C16.3993 37.969 16.5032 37.748 16.6919 37.6195C16.8807 37.491 17.1243 37.4752 17.3281 37.5783L25.4516 41.4034C25.7136 41.5302 25.8539 41.8208 25.7902 42.1049C25.7265 42.389 25.4756 42.5919 25.1845 42.5948L25.1826 42.5954Z" fill="#F4CC54"/>
<path d="M36.484 40.057C36.1903 40.0572 35.9358 39.8534 35.8717 39.5668C35.8076 39.2801 35.951 38.9874 36.2169 38.8625L46.8768 33.846C47.1902 33.6985 47.5639 33.833 47.7114 34.1464C47.859 34.4598 47.7245 34.8335 47.4111 34.981L36.7511 39.9974C36.6676 40.0367 36.5763 40.0571 36.484 40.057Z" fill="#F4CC54"/>
<path d="M37.7525 42.5953C37.4614 42.5924 37.2105 42.3895 37.1468 42.1054C37.0831 41.8213 37.2233 41.5307 37.4854 41.4038L45.6089 37.5788C45.8126 37.4757 46.0563 37.4915 46.245 37.62C46.4337 37.7485 46.5377 37.9695 46.5164 38.1968C46.495 38.4242 46.3518 38.6219 46.1425 38.7131L38.0196 42.5382C37.9359 42.5766 37.8447 42.5961 37.7525 42.5953Z" fill="#F4CC54"/>
</svg>
