<svg width="64" height="64" viewBox="0 0 64 64" fill="none" xmlns="http://www.w3.org/2000/svg">
<circle cx="32" cy="32" r="32" fill="white"/>
<path fill-rule="evenodd" clip-rule="evenodd" d="M14.5334 14.4907C13.8137 14.5245 13.256 15.1324 13.2842 15.8523V34.7338L13.2842 36.9761H43.0586L45.7631 30.3304V15.8523C45.7913 15.1324 45.2336 14.5245 44.5139 14.4907H41.3472H14.5334Z" fill="#EDF4F3"/>
<path fill-rule="evenodd" clip-rule="evenodd" d="M43.0586 36.9761L41.7844 40.099H14.5334C13.8137 40.0653 13.256 39.4574 13.2842 38.7374V36.9761H43.0586ZM36.3938 40.0991L34.52 43.2221H33.4279L33.2717 45.7201H21.4045C20.7167 45.715 20.1604 45.1586 20.1553 44.4709C20.1573 43.7818 20.7154 43.2237 21.4045 43.2217H23.2776L25.1511 40.0991H36.3938Z" fill="#405B73"/>
<circle cx="41.3909" cy="33.8533" r="5.62134" fill="#FDD7AD"/>
<path d="M33.2715 48.8435V44.4714C33.2715 41.7117 35.5086 39.4746 38.2682 39.4746H44.5142C47.2738 39.4746 49.5109 41.7117 49.5109 44.4714V48.8435C49.5109 49.8784 48.672 50.7173 47.6371 50.7173H35.1453C34.1104 50.7173 33.2715 49.8784 33.2715 48.8435Z" fill="#F4CC54"/>
<circle cx="23.278" cy="25.7336" r="4.99675" fill="#FDD7AD"/>
<path fill-rule="evenodd" clip-rule="evenodd" d="M21.4033 30.73L21.4033 30.73H20.7791C19.9475 30.7282 19.1289 30.9366 18.3994 31.3358C18.8144 33.3287 19.5664 35.2361 20.623 36.9759H21.2784L21.2783 36.9761H25.2757L25.2757 36.9759H25.9317C25.9317 36.976 25.9317 36.976 25.9316 36.976H30.7722L30.7722 35.7268C30.7748 33.8931 29.7695 32.2064 28.1555 31.3361C28.1555 31.336 28.1555 31.3359 28.1556 31.3358C27.4261 30.9366 26.6075 30.7282 25.7759 30.73H25.1509L25.1509 30.73H21.4033ZM18.3993 31.3359C18.8142 33.3288 19.5662 35.2362 20.6228 36.976H15.7822L15.7822 35.7268C15.7797 33.893 16.7851 32.2062 18.3993 31.3359Z" fill="#405B73"/>
<path d="M43.2643 18.2384V24.4844C43.2623 25.1734 42.7042 25.7315 42.0151 25.7336H37.643L34.3014 28.1133C34.1023 28.2535 33.8418 28.2715 33.6253 28.16C33.4088 28.0485 33.2722 27.8259 33.2708 27.5824V25.7336H32.0216C31.3326 25.7315 30.7745 25.1734 30.7725 24.4844V18.2384C30.7745 17.5494 31.3326 16.9913 32.0216 16.9893H42.0151C42.7042 16.9913 43.2623 17.5494 43.2643 18.2384Z" fill="#405B73"/>
<path d="M36.394 20.112H33.2711C32.9261 20.112 32.6465 19.8323 32.6465 19.4874C32.6465 19.1424 32.9261 18.8628 33.2711 18.8628H36.394C36.739 18.8628 37.0186 19.1424 37.0186 19.4874C37.0186 19.8323 36.739 20.112 36.394 20.112Z" fill="#F4CC54"/>
<path d="M40.7662 22.6105H33.2711C32.9261 22.6105 32.6465 22.3309 32.6465 21.9859C32.6465 21.641 32.9261 21.3613 33.2711 21.3613H40.7662C41.1112 21.3613 41.3908 21.641 41.3908 21.9859C41.3908 22.3309 41.1112 22.6105 40.7662 22.6105Z" fill="#F4CC54"/>
</svg>
