<svg width="24" height="24" viewBox="0 0 24 24" fill="none" xmlns="http://www.w3.org/2000/svg">
<g clip-path="url(#clip0_551_1337)">
<path d="M12 23.25C18.2132 23.25 23.25 18.2132 23.25 12C23.25 5.7868 18.2132 0.75 12 0.75C5.7868 0.75 0.75 5.7868 0.75 12C0.75 18.2132 5.7868 23.25 12 23.25Z" fill="#ED4C5C"/>
<path d="M15.4875 14.625L15.525 12.6L13.5 12L15.525 11.4L15.4875 9.375L16.725 10.9875L18.75 10.3875L17.5125 12L18.75 13.6125L16.725 13.0125L15.4875 14.625Z" fill="white"/>
<path d="M12.45 16.5C9.975 16.5 7.9875 14.475 7.9875 12C7.9875 9.525 9.975 7.5 12.45 7.5C13.3875 7.5 14.25 7.8 15 8.2875C13.9875 7.125 12.4875 6.375 10.8 6.375C7.725 6.375 5.25 8.8875 5.25 12C5.25 15.1125 7.725 17.625 10.8 17.625C12.4875 17.625 13.9875 16.875 15 15.7125C14.2875 16.2 13.425 16.5 12.45 16.5Z" fill="white"/>
<path d="M12 23.5C18.3513 23.5 23.5 18.3513 23.5 12C23.5 5.64873 18.3513 0.5 12 0.5C5.64873 0.5 0.5 5.64873 0.5 12C0.5 18.3513 5.64873 23.5 12 23.5Z" stroke="#BEBEBE"/>
</g>
<defs>
<clipPath id="clip0_551_1337">
<rect width="24" height="24" fill="white"/>
</clipPath>
</defs>
</svg>
