<svg width="22" height="22" viewBox="0 0 22 22" fill="none" xmlns="http://www.w3.org/2000/svg">
<g clip-path="url(#clip0_551_1338)">
<path d="M10.9656 0.6875C6.49688 0.6875 2.68126 3.575 1.27188 7.5625H20.7281C19.2844 3.575 15.4688 0.6875 10.9656 0.6875Z" fill="#F9F9F9"/>
<path d="M10.9656 21.3125C15.4688 21.3125 19.2844 18.425 20.6938 14.4375H1.27188C2.68126 18.4594 6.49688 21.3125 10.9656 21.3125Z" fill="#ED4C5C"/>
<path d="M1.27188 7.5625C0.89375 8.62813 0.6875 9.79688 0.6875 11C0.6875 12.2031 0.89375 13.3719 1.27188 14.4375H20.7281C21.1062 13.3719 21.3125 12.2031 21.3125 11C21.3125 9.79688 21.1062 8.62813 20.7281 7.5625H1.27188Z" fill="#428BC1"/>
<path d="M11 21.5417C16.822 21.5417 21.5417 16.822 21.5417 11C21.5417 5.17804 16.822 0.458374 11 0.458374C5.17801 0.458374 0.458344 5.17804 0.458344 11C0.458344 16.822 5.17801 21.5417 11 21.5417Z" stroke="#BEBEBE"/>
</g>
<defs>
<clipPath id="clip0_551_1338">
<rect width="22" height="22" fill="white"/>
</clipPath>
</defs>
</svg>
