<svg width="22" height="22" viewBox="0 0 22 22" fill="none" xmlns="http://www.w3.org/2000/svg">
<g clip-path="url(#clip0_551_1333)">
<path d="M13.0625 0.893677H8.93751C4.91563 1.71868 1.71876 4.88118 0.893753 8.93743V13.0624C1.71876 17.1187 4.91563 20.2812 8.93751 21.1062H13.0625C17.1187 20.2812 20.2812 17.0843 21.1062 13.0624V8.93743C20.2812 4.88118 17.0844 1.71868 13.0625 0.893677Z" fill="white"/>
<path d="M21.0303 13.4063C21.2184 12.618 21.3131 11.8103 21.3125 11C21.3125 10.1716 21.2149 9.36586 21.0303 8.59375H13.4063V0.969723C12.618 0.781681 11.8103 0.686958 11 0.687502C10.1716 0.687502 9.36586 0.785127 8.59375 0.969723V8.59375H0.969723C0.781681 9.38199 0.686958 10.1897 0.687502 11C0.687502 11.8285 0.785127 12.6342 0.969723 13.4063H8.59375V21.0303C9.38199 21.2184 10.1897 21.3131 11 21.3125C11.8285 21.3125 12.6342 21.2149 13.4063 21.0303V13.4063H21.0303Z" fill="#CE1124"/>
<path d="M11 21.5417C16.822 21.5417 21.5417 16.822 21.5417 11C21.5417 5.17804 16.822 0.458374 11 0.458374C5.17799 0.458374 0.458328 5.17804 0.458328 11C0.458328 16.822 5.17799 21.5417 11 21.5417Z" stroke="#BEBEBE"/>
</g>
<defs>
<clipPath id="clip0_551_1333">
<rect width="22" height="22" fill="white"/>
</clipPath>
</defs>
</svg>
