<svg width="100%" height="auto" viewBox="0 0 136 184" fill="none" xmlns="http://www.w3.org/2000/svg">
<rect x="24.3203" y="11.1169" width="99.0048" height="155.302" transform="rotate(4.19409 24.3203 11.1169)" fill="#F3F5F9"/>
<g filter="url(#filter0_d_1278_15995)">
<rect x="11" y="18.5623" width="102" height="155.826" transform="rotate(-4.81529 11 18.5623)" fill="white"/>
</g>
<rect x="17.4668" y="23.8669" width="90" height="118" transform="rotate(-4.81529 17.4668 23.8669)" fill="#EDF4F3"/>
<path d="M39.7334 70.6033C39.4822 67.8635 41.4995 65.4389 44.2392 65.1876L51.2662 64.5432C52.2096 64.4567 53.1088 64.1029 53.8583 63.5234L57.8873 60.4083C58.6368 59.8287 59.536 59.475 60.4795 59.3885L65.751 58.905L71.0226 58.4216C71.966 58.3351 72.9146 58.5194 73.757 58.9529L78.2853 61.2833C79.1277 61.7168 80.0763 61.9011 81.0198 61.8146L88.0467 61.1702C90.7864 60.919 93.2111 62.9363 93.4623 65.676L95.828 91.4721C96.0792 94.2118 94.0619 96.6365 91.3222 96.8877L47.5148 100.905C44.775 101.156 42.3503 99.139 42.0991 96.3993L39.7334 70.6033Z" fill="#405B73" fill-opacity="0.85"/>
<path d="M66.6876 67.4391C59.0372 68.1407 53.3682 74.9367 54.068 82.5675C54.7678 90.1981 61.5849 95.9209 69.2352 95.2194C76.8855 94.5178 82.548 87.6505 81.8483 80.0199C81.1485 72.3891 74.3379 66.7375 66.6876 67.4391Z" fill="#F4CC54" fill-opacity="0.85"/>
<path d="M67.079 71.7129C61.7794 72.1989 57.8571 76.8954 58.3413 82.1755C58.8255 87.4555 63.5431 91.4314 68.8427 90.9454C74.1422 90.4594 78.058 85.6918 77.5738 80.4118C77.0896 75.1316 72.3785 71.2269 67.079 71.7129Z" fill="#F3F5F9" fill-opacity="0.85"/>
<path d="M44.5862 71.0993C44.5259 70.442 45.0096 69.8607 45.6669 69.8005L50.426 69.364C51.0833 69.3037 51.6646 69.7874 51.7248 70.4447C51.7851 71.102 51.3015 71.6833 50.6442 71.7436L45.8851 72.18C45.2277 72.2402 44.6465 71.7566 44.5862 71.0993Z" fill="#F4CC54" fill-opacity="0.85"/>
<path d="M85.4117 61.4748L80.6526 61.9112C79.9953 61.9715 79.414 61.4878 79.3537 60.8305C79.2934 60.1732 79.7771 59.5919 80.4344 59.5316L85.1935 59.0952C85.8508 59.0349 86.4321 59.5186 86.4924 60.1759C86.5526 60.8332 86.069 61.4144 85.4117 61.4748Z" fill="#DDBE5B"/>
<defs>
<filter id="filter0_d_1278_15995" x="6" y="6" width="126.721" height="175.838" filterUnits="userSpaceOnUse" color-interpolation-filters="sRGB">
<feFlood flood-opacity="0" result="BackgroundImageFix"/>
<feColorMatrix in="SourceAlpha" type="matrix" values="0 0 0 0 0 0 0 0 0 0 0 0 0 0 0 0 0 0 127 0" result="hardAlpha"/>
<feOffset dx="1" dy="2"/>
<feGaussianBlur stdDeviation="3"/>
<feComposite in2="hardAlpha" operator="out"/>
<feColorMatrix type="matrix" values="0 0 0 0 0.825 0 0 0 0 0.825 0 0 0 0 0.825 0 0 0 0.25 0"/>
<feBlend mode="normal" in2="BackgroundImageFix" result="effect1_dropShadow_1278_15995"/>
<feBlend mode="normal" in="SourceGraphic" in2="effect1_dropShadow_1278_15995" result="shape"/>
</filter>
</defs>
</svg>
