<svg width="64" height="64" viewBox="0 0 64 64" fill="none" xmlns="http://www.w3.org/2000/svg">
<path d="M44.2043 38.1216L33.3587 27.276L32.1551 29.2512L30.8389 24.7562L26.0221 19.9395L23.2976 26.642L21.7801 25.8075L17.5543 37.0791V37.0799L17.6773 40.5211L16.1237 40.8936V40.8944L12.8847 49.5309C12.6911 50.047 12.8468 50.5606 13.1815 50.8953C13.5153 51.2299 14.0271 51.3874 14.5459 51.1921L21.3792 48.6301L21.6415 47.0309L24.0787 47.6176L29.3807 45.6295V43.6465L32.1551 44.5894L37.2962 42.6615L37.8365 41.1233L39.976 41.6558H39.9769L43.7449 40.2432C44.625 39.9128 44.8659 38.7832 44.2043 38.1216Z" fill="#405B73"/>
<path d="M39.9762 41.6558L37.2964 42.6615C34.5607 39.8355 32.5854 36.3324 31.5651 32.5118C30.9018 30.0282 30.642 27.4095 30.839 24.7563L33.3588 27.2761C33.3967 28.3205 33.5137 29.3546 33.7072 30.3697C34.5271 34.6737 36.7114 38.638 39.9762 41.6558Z" fill="white"/>
<path d="M32.1553 44.5891L29.3808 45.6292C27.4306 43.8828 25.7934 41.825 24.534 39.5427C22.2226 35.3562 21.2601 30.5293 21.7802 25.8073L23.8337 20.3316C24.1632 19.4549 25.291 19.208 25.9552 19.8722L26.0223 19.9393C23.421 25.8071 23.7325 32.272 26.4438 37.6328C27.8074 40.3324 29.7542 42.7086 32.1553 44.5891Z" fill="white"/>
<path d="M24.0785 47.6177L21.3789 48.6303C20.3724 47.6539 19.4553 46.5863 18.6398 45.4369C17.7142 44.1502 16.8174 42.5689 16.1234 40.8946V40.8937L17.5541 37.0801C18.1434 39.4355 19.1361 41.6344 20.4765 43.6002C21.4864 45.0833 22.6952 46.433 24.0785 47.6177Z" fill="white"/>
<path d="M35.4574 24.0036C34.9535 23.4997 34.9535 22.6827 35.4574 22.1787C40.3122 17.3239 38.8113 12.5967 38.7956 12.5495C38.5703 11.8734 38.9357 11.1426 39.6118 10.9172C40.2877 10.6917 41.0187 11.0573 41.2441 11.7334C41.3288 11.9878 43.2526 18.0334 37.2824 24.0036C36.7786 24.5075 35.9614 24.5076 35.4574 24.0036Z" fill="#F4CC54"/>
<path d="M40.751 28.6193C41.255 29.1233 42.072 29.1233 42.576 28.6193C47.4307 23.7646 52.1579 25.2655 52.2052 25.2812C52.8813 25.5065 53.6121 25.1411 53.8375 24.465C54.063 23.7891 53.6974 23.0581 53.0213 22.8327C52.7668 22.748 46.7213 20.8242 40.7511 26.7944C40.2472 27.2983 40.2471 28.1155 40.751 28.6193Z" fill="#F4CC54"/>
<circle cx="45.9741" cy="13.9564" r="1.29043" fill="#F4CC54"/>
<circle cx="31.0405" cy="10.7567" r="1.29043" fill="#F4CC54"/>
<circle cx="44.5763" cy="20.8158" r="1.29043" fill="#405B73"/>
<circle cx="45.5743" cy="32.7123" r="1.29043" fill="#F4CC54"/>
<circle cx="32.377" cy="18.5927" r="1.29043" fill="#405B73"/>
</svg>
