<svg xmlns="http://www.w3.org/2000/svg" width="20" height="20" fill="none" xmlns:v="https://vecta.io/nano"><style><![CDATA[.B{fill:#006233}.C{fill:#f7c608}.D{fill:#fff}.E{fill-rule:evenodd}.F{stroke-width:.006}.G{stroke:#fff}.H{stroke-width:.014}.I{stroke-width:.074}.J{stroke-linejoin:round}]]></style><g clip-path="url(#A)"><path d="M10 0a10 10 0 1 1 0 20 10 10 0 1 1 0-20z" fill="#06612e"/><g class="D E"><g class="G"><path d="M7.496 10.356c-.391.535-.105.879.297.906.266.016.816-.344.813-.766l-.148-.078c.082.219-.004.285-.184.434-.355.293-1.078.313-.777-.496z" class="F"/><g class="H"><path d="M10.594 11.754c2.199.059 2.899-1.879 1.539-3.535l-.133.18.226 2.328c-.266.281-.652.176-.726-.137.004-.43-.152-.793-.344-1.137l-.109.18c.125.285.262.605.293.957-.629.684-1.324.82-1.066-.078-.496.789.258 1.344 1.105.129.184.828.891.316.934.137.074-.543.035-1.418-.117-2.109.609.965.633 1.66.305 2.125-.359.516-1.149.758-1.906.961z"/><path d="M11.84 9.566c-.469.031-.711-.059-.457-.375.254-.309.488-.062.551.352.059.391-.824.883-1.133.883-.461 0-.676-.539-.25-1.027-.547 1.422 1.188.598 1.289.168zm-.324-.328c-.059-.004-.101.086-.07.105.082.051.211.02.227-.004.027-.059-.078-.102-.156-.102z"/><path d="M9.285 10.238c-.453.809 0 1.144.578 1.051.34-.059.77-.277 1.016-.574l-.07-1.941c.226-.246-.02-.242-.106-.508-.039.156-.133.32-.043.441.066.641.102 1.289.102 1.949-.457.336-.797.457-1.043.453-.504-.004-.613-.391-.434-.871z"/><path d="M10.211 10.449l-.078-1.727c.234-.238-.012-.246-.09-.512-.047.152-.145.316-.059.438l.086 1.961c.055-.031.117-.043.141-.16z"/></g></g><use href="#B"/></g><g class="G"><use href="#B" class="F"/><g class="D E H"><path d="M9.34 8.586c.055.113.074.184.078.289-.031.145-.168.277-.305.281a.25.25 0 0 1-.25-.141C8.855 9 8.82 8.965 8.785 8.98c-.152.227-.266.324-.402.32-.277-.004-.195-.227-.449-.293-.105-.004-.277.094-.367.285-.336.871-.645-.004-.516-.41.02.391.125.621.23.613.074-.008.145-.168.242-.34.074-.129.258-.363.449-.363.172.004.063.297.414.293.168-.004.324-.121.48-.359.035-.004.043.051.051.07.023.082.18.305.387.102-.012-.043-.008-.117-.059-.133l.094-.18z"/></g></g><use href="#C" class="D E"/><g class="F G"><use href="#C"/><g class="D E"><path d="M11.109 7.984c-.031-.086-.059-.156-.066-.246-.023-.184.152-.289.309-.273s.266.07.422.117l.438.105c.09.035 0 .129-.023.141-.387.141-.664.359-.91.367-.148.008-.281-.078-.398-.258l-.059-1.016c.055-.051.07-.09.098-.133l.047 1.055c.031.063.07.113.145.141zm.246.027c-.207.055-.18-.105-.199-.207-.023-.113-.008-.246.152-.211.211.051.402.117.586.188l-.539.23z"/></g></g><use href="#D" class="D E"/><g class="G"><use href="#D" class="F"/><g class="D E"><g stroke-width=".058" class="J"><path d="M7.832 9.516l.105-.098.125.094-.113.09-.117-.086zm.27-.036l.109-.098.121.094-.113.094-.117-.09zm-.747-1.023l.105-.098.125.094-.113.094-.117-.09zm.047.293l.109-.098.121.094-.113.09-.117-.086zm1.938.488l.102-.074.09.09-.105.066-.086-.082zM8.047 7.375l.07-.066.078.063-.07.063-.078-.059zm.176-.02l.07-.066.082.063-.074.059-.078-.055zm3.707.735l-.066.051-.066-.059.07-.047.063.055z"/></g><path d="M8.805 9.91l-.008.109.191.016.152-.102-.336-.023z" class="F"/><path d="M10.414 7.887l.055-.012-.008.141-.035.012-.012-.141z" class="H"/></g></g><path d="M9.996 13.574c2.141 0 3.883-1.582 3.883-3.531 0-1.07-.527-2.027-1.352-2.672.496.531.797 1.23.797 1.992 0 1.691-1.488 3.063-3.328 3.063s-3.328-1.371-3.328-3.063c0-.762.301-1.461.797-1.992-.824.645-1.352 1.602-1.352 2.672 0 1.949 1.742 3.531 3.883 3.531z" class="D"/><g stroke="#000" class="I D"><path d="M9.469 15.543c-.855.387-1.926.281-2.828-.25-.039-.016-.059.008-.02.105.098.258.172.461-.117.844-.129.168.02.191.234.176 1.09-.098 2.16-.32 2.676-.504l.055-.371z"/><path d="M9.453 16c-.344.125-.926.277-1.578.383-.262.035-.254.184.215.238.477.043 1.09-.266 1.457-.539L9.453 16z"/></g><path d="M9.996 15.152c.117 0 .332-.047.547-.07.398-.062.105.496-.547.496v.184c.66 0 1.352-.656 1.207-.945-.203-.426-.769-.062-1.207-.062s-1.004-.363-1.207.063c-.145.289.547.945 1.207.945v-.184c-.652 0-.945-.559-.543-.496l.543.07z" class="D"/><g stroke="#000" class="I"><path d="M9.996 15.578c.652 0 .945-.559.547-.496l-.547.07c-.117 0-.332-.047-.543-.07-.402-.062-.109.496.543.496zm0 0v.184m0 0c.66 0 1.352-.656 1.207-.945-.203-.426-.769-.062-1.207-.062s-1.004-.363-1.207.063c-.145.289.547.945 1.207.945z"/><g class="D"><path d="M10.523 15.543c.855.387 1.926.281 2.828-.25.039-.016.059.008.02.105-.094.258-.172.461.117.844.129.168-.02.191-.231.176-1.09-.098-2.16-.32-2.68-.504l-.055-.371z"/><path d="M10.543 16c.34.125.914.277 1.574.383.262.035.254.184-.215.238-.476.043-1.09-.266-1.457-.539l.098-.082z"/><path d="M10.023 15.914c.02.148.051.476.274.336.301-.187.371-.328.371-.594 0-.168-.223-.418-.672-.418s-.672.25-.672.418c0 .266.07.406.371.594.223.141.242-.187.273-.336.008-.055.055-.035.055 0zM9.715 4.57c-.129-.652-1.187-.699-1.352-.805-.195-.113-.168 0-.098.176.191.461.855.648 1.156.699.242.035.32.055.293-.07z"/><path d="M10.035 4.59c.105-.672-.945-.992-1.07-1.145-.145-.156-.164-.059-.098.125.125.398.586.867.855.992.227.105.293.152.312.027z"/><path d="M10.902 4.98c.098-.809-.762-.93-.984-1.187-.145-.16-.156-.07-.105.113.098.41.523.887.785 1.035.207.117.293.16.305.039z"/><path d="M10.637 4.801c-.883-.523-1.508-.23-1.758-.258s-.324.117.094.328a2.34 2.34 0 0 0 1.52.125c.293-.105.203-.16.144-.195zm1.336.355c-.274-.867-.906-.727-1.09-.832s-.207-.082-.168.113c.078.348.73.727 1.051.844.117.035.266.086.207-.125z"/><path d="M11.844 5.305c-.758-.555-1.351-.141-1.586-.203-.176-.043-.098.063-.027.105.484.313 1.09.48 1.555.285.188-.07.195-.09.059-.187z"/><path d="M13.488 5.871c.012-.547-1.234-.777-1.496-1.113-.156-.203-.293-.098-.215.23.117.426.973.895 1.441.98.281.055.27-.035.27-.098z"/><path d="M13.449 5.969c-.785-.645-1.449-.434-1.691-.496-.242-.051-.34.082.039.348a2.33 2.33 0 0 0 1.488.316c.301-.059.223-.121.164-.168zm1.414.949c-.227-.937-.937-1.133-1.109-1.312s-.344-.121-.195.301c.176.508.75.949 1.051 1.055.293.117.274.027.254-.043z"/><path d="M14.852 7.043c-.574-.844-1.324-.816-1.555-.93-.227-.125-.383-.02-.078.344.348.441 1.07.691 1.398.707s.273-.062.234-.121z"/><path d="M15.59 8.043c.332-.957-.426-1.312-.504-1.473-.09-.156-.176-.156-.223.012-.215.68.476 1.344.582 1.477.106.125.125.063.145-.016z"/><path d="M15.438 8.309c-.266-1.074-.957-1.012-1.109-1.16-.168-.152-.187-.047-.156.148.078.523.766.879 1.078 1.055.098.055.215.117.188-.043z"/><path d="M16.098 9.566c.477-1.012-.086-1.691-.262-1.844-.176-.141-.285-.203-.226 0 .078.309-.191 1.105.226 1.691.137.195.156.383.262.152z"/><path d="M15.844 9.77c.109-.621-.281-1.187-.699-1.41-.242-.133-.254-.098-.254.09.02.574.613 1.055.789 1.32.164.246.156.063.164 0zm-.106 1.609c-.352-1.168.379-1.84.601-1.973.215-.141.352-.195.254.027-.144.324.008 1.238-.547 1.813-.172.195-.242.398-.309.133z"/><path d="M15.816 11.125c.289-1.02-.34-1.594-.535-1.711-.187-.113-.305-.16-.215.027.117.281-.012 1.078.477 1.574.156.168.215.336.273.109z"/><path d="M15.457 10.645c-.527.516-.535 1.266-.305 1.711.148.254.168.238.305.051.367-.539.144-1.32.164-1.664.008-.328-.109-.149-.164-.098z"/><path d="M16.32 11.461c0 .707-.477 1.281-.98 1.461-.293.098-.293.07-.254-.144.137-.797.809-1.086 1.051-1.344.234-.25.184-.043.184.027zm-1.808 2.105c.855-.707.398-1.203.438-1.664.02-.246-.086-.187-.184-.098-.547.488-.574 1.355-.457 1.691.047.148.125.133.203.07z"/><path d="M15.66 13.105c-.281.781-1.031 1.258-1.664 1.285-.371.016-.359-.008-.234-.238.477-.832 1.324-.93 1.703-1.145.352-.195.223.02.195.098z"/><path d="M13.332 14.566c1.109-.504.887-1.344 1.09-1.559.148-.149-.027-.133-.113-.078-.652.344-1.18.894-1.187 1.476 0 .223.019.25.211.16z"/><path d="M11.816 15.504c1.402.207 2.051-.758 2.461-.848.215-.043.059-.125-.047-.133-.934-.098-2.121.301-2.484.742-.145.18-.145.215.07.238z"/><path d="M13.238 13.992c-.285.84-1.336 1.531-2.125 1.586-.367.023-.367-.012-.231-.23.633-1.047 1.731-1.223 2.121-1.488.328-.231.262.051.234.133zM10.277 4.57c.129-.652 1.188-.699 1.355-.805.191-.113.164 0 .094.176-.191.461-.855.648-1.156.699-.242.035-.32.055-.293-.07z"/><path d="M9.957 4.59c-.105-.672.945-.992 1.07-1.145.145-.156.164-.059.098.125-.125.398-.582.867-.855.992-.227.105-.293.152-.312.027z"/><path d="M9.09 4.98c-.098-.809.762-.93.984-1.187.145-.16.156-.07.106.113-.098.41-.523.887-.785 1.035-.207.117-.293.16-.305.039z"/><path d="M9.355 4.801c.883-.523 1.508-.23 1.758-.258s.324.117-.094.328c-.516.258-1.238.223-1.52.125-.293-.105-.203-.16-.145-.195z"/><path d="M8.02 5.156c.273-.867.906-.727 1.09-.832s.207-.082.168.113c-.078.348-.73.727-1.051.844-.117.035-.266.086-.207-.125z"/><path d="M8.148 5.305c.758-.555 1.352-.141 1.586-.203.176-.043.098.063.027.105-.484.313-1.09.48-1.555.285-.187-.07-.195-.09-.059-.187z"/><path d="M6.504 5.871C6.492 5.324 7.738 5.094 8 4.758c.156-.203.293-.098.215.23-.117.426-.973.895-1.441.98-.281.055-.27-.035-.27-.098z"/><path d="M6.543 5.969c.785-.645 1.449-.434 1.691-.496.242-.051.34.082-.039.348a2.33 2.33 0 0 1-1.488.316c-.301-.059-.223-.121-.164-.168zm-1.414.949c.227-.937.938-1.133 1.109-1.312s.344-.121.195.301a2.04 2.04 0 0 1-1.051 1.055c-.289.117-.273.027-.254-.043z"/><path d="M5.141 7.043c.574-.844 1.324-.816 1.559-.93.223-.125.379-.02.074.344-.348.441-1.07.691-1.398.707s-.273-.062-.234-.121z"/><path d="M4.402 8.043c-.332-.957.426-1.312.504-1.473.09-.156.176-.156.223.012.215.68-.477 1.344-.582 1.477-.105.125-.125.063-.145-.016z"/><path d="M4.555 8.309c.266-1.074.957-1.012 1.109-1.16.168-.152.188-.047.156.148-.078.523-.766.879-1.078 1.055-.098.055-.215.117-.187-.043zm-.66 1.257c-.477-1.012.09-1.691.262-1.844.176-.141.285-.203.227 0-.078.309.191 1.105-.227 1.691-.137.195-.152.383-.262.152z"/><path d="M4.148 9.77c-.109-.621.281-1.187.699-1.41.246-.133.254-.098.254.09-.02.574-.613 1.055-.789 1.32-.164.246-.156.063-.164 0zm.106 1.609c.352-1.168-.379-1.84-.602-1.973-.215-.141-.352-.195-.254.027.145.324-.008 1.238.547 1.813.172.195.23.398.309.133z"/><path d="M4.176 11.125c-.289-1.02.344-1.594.535-1.711s.305-.16.215.027c-.117.281.012 1.078-.477 1.574-.156.168-.215.336-.273.109z"/><path d="M4.539 10.645c.523.516.535 1.266.301 1.711-.148.254-.168.238-.301.051-.371-.539-.148-1.32-.168-1.664-.008-.328.109-.149.168-.098z"/><path d="M3.672 11.461c0 .707.477 1.281.98 1.461.293.098.293.07.254-.144-.137-.797-.809-1.086-1.051-1.344-.234-.25-.184-.043-.184.027zm1.808 2.105c-.855-.707-.398-1.203-.437-1.664-.02-.246.086-.187.184-.098.547.488.574 1.355.457 1.691-.047.148-.125.133-.203.07z"/><path d="M4.332 13.105c.281.781 1.031 1.258 1.664 1.285.371.016.359-.008.234-.238-.477-.832-1.324-.93-1.703-1.145-.352-.195-.223.02-.195.098z"/><path d="M6.66 14.566c-1.109-.504-.887-1.344-1.09-1.559-.148-.149.027-.133.113-.078.652.344 1.18.894 1.188 1.476 0 .223-.02.25-.211.16z"/><path d="M8.176 15.504c-1.402.207-2.051-.758-2.461-.848-.215-.043-.059-.125.047-.133.938-.098 2.121.301 2.484.742.145.18.145.215-.07.238z"/><path d="M6.754 13.992c.285.84 1.336 1.531 2.125 1.586.367.023.367-.012.23-.23-.633-1.047-1.73-1.223-2.121-1.488-.328-.231-.262.051-.234.133z"/></g></g><g class="B"><path d="M11.641 5.387c-.184-.125-.867-.055-.992-.133.242.184.789.051.992.133zm1.644.316c-.145-.238-1.012-.398-1.137-.609.223.406.895.355 1.137.609zm-.125.277c-.324-.285-1.07-.168-1.297-.336.527.434.82.094 1.297.336zm-1.879-1.257c.203.098.457.195.582.426-.145-.18-.406-.25-.621-.398.008 0 .027-.02.039-.027zm3.192 1.824c-.125-.266-.574-.559-.613-.656.125.344.496.426.613.656zm.117.469c-.391-.559-1.004-.496-1.246-.711.184.207.887.34 1.246.711zm.902.859c.031-.594-.457-.816-.476-1.152-.008.398.496.938.476 1.152zm-.242.316c-.098-.512-.758-.547-.875-.848 0 .281.777.574.875.848zm.547-.293c.348.391.105.984.25 1.418-.172-.316-.086-1.113-.25-1.418zm-.574 1.668c.523.512.309 1.086.523 1.336-.262-.348-.223-1.019-.523-1.336zm1.09.071c-.449.449-.176 1.133-.41 1.449.262-.273.223-1.113.41-1.449zm-.567 0c-.059-.523-.594-.797-.641-1.082-.059.285.516.727.641 1.082zm-.269 1.246c.086.363-.234 1.145-.137 1.383-.215-.418.184-1.203.137-1.383zm.687.832c-.211.649-.641.602-.777.992.098-.371.66-.707.777-.992zm-1.391.301c-.281.434-.047.93-.281 1.242.332-.312.156-.887.281-1.242zm.684 1.187c-.344.574-1.043.524-1.324.938.281-.519 1.149-.609 1.324-.937zm-1.238-.07c-.602.379-.418.777-.875 1.203.574-.426.523-.895.875-1.203zm-.281 1.539c-.586-.016-1.422.676-1.926.621.504.098 1.438-.523 1.926-.621z"/><path d="M12.992 14.055c-.039.539-1.555.883-1.723 1.246.188-.477 1.52-.832 1.723-1.246zM9.559 4.094c-.195-.152-.43-.273-.496-.426.047.195.242.336.438.469.02-.008.039-.035.059-.043z"/><path d="M9.227 4.254c-.301-.133-.652-.125-.809-.313.098.188.43.258.711.355a.39.39 0 0 1 .098-.043zm-.875 1.133c.184-.125.867-.055.992-.133-.242.184-.789.051-.992.133zm-1.645.316c.145-.238 1.012-.398 1.137-.609-.223.406-.895.355-1.137.609zm.125.277c.324-.285 1.07-.168 1.297-.336-.527.434-.82.094-1.297.336zm1.297-.832c.184-.355.711-.398.844-.613-.203.32-.648.371-.844.613zm1.496-.312c.535-.23 1.063-.035 1.316-.141-.312.152-1.051.078-1.316.141zM5.52 6.547c.125-.266.574-.559.613-.656-.125.344-.496.426-.613.656zm-.118.469c.391-.559 1.004-.496 1.246-.711-.184.207-.887.34-1.246.711zm-.902.859c-.031-.594.457-.816.477-1.152.008.398-.496.938-.477 1.152zm.242.316c.098-.512.758-.547.875-.848 0 .281-.777.574-.875.848zm-.547-.293c-.348.391-.105.984-.25 1.418.172-.316.086-1.113.25-1.418zm.575 1.668c-.523.512-.309 1.086-.523 1.336.262-.348.223-1.019.523-1.336zm-1.09.071c.449.449.176 1.133.41 1.449-.262-.273-.223-1.113-.41-1.449zm.566 0c.059-.523.594-.797.641-1.082.059.285-.516.727-.641 1.082zm.274 1.246c-.09.363.23 1.145.133 1.383.215-.418-.184-1.203-.133-1.383zm-.692.832c.211.649.641.602.777.992-.098-.371-.66-.707-.777-.992zm1.391.301c.281.434.047.93.281 1.242-.332-.312-.156-.887-.281-1.242zm-.68 1.187c.34.574 1.039.524 1.32.938-.281-.519-1.148-.609-1.32-.937zm1.234-.07c.602.379.418.777.875 1.203-.574-.426-.523-.895-.875-1.203zm.282 1.539c.586-.016 1.422.676 1.926.621-.504.098-1.437-.523-1.926-.621z"/><path d="M7 14.055c.039.539 1.555.883 1.723 1.246-.187-.477-1.52-.832-1.723-1.246zm2.207-9.2c.117-.48.703-.566.781-.852-.031.301-.723.637-.781.852zm1.723-1.187c-.086.363-.719.566-.809.84.031-.371.684-.582.809-.84zm-.496.859c.301-.441.926-.328 1.141-.586-.156.301-.926.313-1.141.586z"/></g><path d="M14.551 10c0 2.297-2.047 4.164-4.574 4.164S5.402 12.297 5.402 10s2.047-4.164 4.574-4.164S14.551 7.699 14.551 10z" stroke="#f7c608" class="I J"/><path d="M9.078 14.164l-.016.051c-.012.035-.047.051-.086.051l-.332-.078.105-.324a2.43 2.43 0 0 0 .332.07c.039.012.059.043.047.078l-.016.043m-.785-.203l.016-.051c.012-.031.047-.051.086-.039l.32.102-.105.324-.324-.098c-.031-.016-.043-.082-.031-.117" class="C"/><path d="M9.016 14.137l-.012.035c-.008.027-.039.039-.07.035l-.273-.066.074-.23c.102.027.203.047.277.059.031.008.047.035.039.059l-.012.031m-.652-.168l.012-.039c.008-.023.035-.035.066-.027l.27.086-.074.23-.27-.078c-.031-.016-.039-.062-.031-.09" class="B"/><path d="M7.828 13.762l-.031.043c-.023.031-.062.039-.102.027l-.289-.16.199-.285c.105.063.219.117.297.156.031.016.039.055.02.082l-.027.039m-.691-.394l.031-.043c.02-.031.063-.039.094-.019l.277.18-.199.285-.281-.176c-.027-.027-.016-.094.004-.121" class="C"/><path d="M7.773 13.719l-.02.031c-.016.02-.047.023-.078.016l-.242-.137.141-.203c.09.055.184.101.246.129.027.019.039.047.023.066l-.02.027m-.574-.328l.02-.031c.016-.023.047-.027.074-.012l.23.149-.141.203-.234-.144c-.023-.02-.02-.07-.004-.09" class="B"/><path d="M6.75 13.055l-.043.031c-.027.024-.07.024-.102 0l-.23-.226.277-.223a1.97 1.97 0 0 0 .238.223c.027.027.023.066-.008.09l-.035.027m-.543-.555l.043-.035c.031-.023.07-.019.098.008l.207.242-.277.223-.219-.242c-.016-.031.016-.09.047-.113" class="C"/><path d="M6.715 12.996l-.031.027c-.023.016-.055.012-.078-.008l-.191-.191.199-.156.195.188c.023.023.023.051 0 .066l-.027.023m-.449-.465l.031-.023c.023-.02.055-.016.074.008l.176.203-.199.156-.18-.195c-.016-.027.004-.074.023-.09" class="B"/><path d="M5.938 12.098l-.051.023c-.035.012-.074 0-.102-.027l-.148-.277.336-.141a2.31 2.31 0 0 0 .16.273c.016.031 0 .067-.035.082l-.043.02m-.352-.672l.055-.023c.035-.016.074 0 .09.031l.125.289-.336.141-.133-.289c-.008-.035.043-.082.078-.098" class="C"/><path d="M5.918 12.035l-.035.016c-.027.012-.055 0-.074-.023l-.125-.234.242-.098c.043.086.094.168.129.227.012.027.004.055-.02.066L6.004 12m-.289-.559l.035-.016c.027-.012.055 0 .07.027l.105.242-.242.098-.109-.238c-.008-.027.023-.066.051-.078" class="B"/><path d="M5.453 10.973l-.059.008c-.035.004-.07-.016-.086-.051-.012-.09-.039-.199-.059-.305l.367-.051.066.305c.008.035-.02.066-.055.07l-.051.008m-.125-.734l.059-.008c.039-.004.07.016.074.051.004.09.012.195.031.309l-.367.051-.039-.309c.004-.035.07-.07.105-.078" class="C"/><path d="M5.457 10.91l-.043.004c-.027.004-.051-.016-.062-.043l-.047-.254.262-.035.055.254c.004.027-.016.051-.043.055l-.035.008m-.102-.613l.043-.004c.027-.004.051.016.055.043a2.33 2.33 0 0 0 .027.258l-.262.035-.035-.258c.004-.031.047-.059.074-.062" class="B"/><path d="M5.336 9.77l-.055-.008c-.039-.004-.066-.035-.07-.07l.039-.309.367.047a2.65 2.65 0 0 0-.031.309c-.004.035-.035.059-.074.055l-.051-.008m.109-.738l.055.008c.039.008.066.035.059.07-.023.086-.051.191-.066.305l-.367-.047.059-.305c.016-.035.086-.051.125-.047" class="C"/><path d="M5.359 9.707l-.043-.004c-.027-.004-.043-.027-.047-.059l.035-.258.262.035a2.54 2.54 0 0 0-.027.258c-.004.027-.027.047-.055.043l-.035-.004m.09-.613l.039.008c.027.004.047.027.043.055l-.055.254-.262-.035.047-.254c.012-.027.063-.043.09-.039" class="B"/><path d="M5.598 8.586l-.055-.023c-.035-.016-.047-.051-.039-.086l.129-.285.34.141c-.055.105-.098.211-.125.289-.016.031-.055.047-.09.031l-.047-.02m.332-.68l.055.023c.035.012.047.047.031.082l-.156.273-.34-.141.152-.277c.023-.027.098-.027.133-.012" class="C"/><path d="M5.637 8.531l-.039-.016c-.023-.012-.031-.039-.023-.066l.109-.238.242.102-.105.238c-.016.027-.043.039-.07.027l-.031-.012M5.996 8l.039.016c.023.012.031.039.02.066l-.129.23-.242-.102c.039-.082.082-.16.125-.23.02-.027.074-.027.098-.016" class="B"/><path d="M6.215 7.516l-.043-.035c-.031-.023-.035-.062-.016-.094l.215-.238.281.219c-.086.086-.16.18-.211.246-.023.027-.066.027-.094.004l-.039-.027m.527-.566l.047.035c.027.02.031.059.004.086l-.234.223-.281-.219.23-.23c.031-.02.105 0 .133.023" class="C"/><path d="M6.27 7.473l-.031-.023c-.023-.016-.023-.047-.004-.074l.18-.195.199.156c-.07.07-.133.148-.176.203-.02.023-.051.027-.074.008l-.027-.02m.441-.473l.031.027c.023.016.02.043 0 .066-.059.051-.125.113-.195.188l-.199-.156.188-.191c.027-.02.082-.008.102.008" class="B"/><path d="M7.137 6.645l-.031-.043c-.02-.031-.012-.066.016-.094l.281-.176.199.285-.273.18c-.035.02-.074.012-.098-.016l-.023-.039m.68-.41l.031.047c.023.027.016.066-.02.086l-.297.152-.199-.285.293-.16c.035-.012.098.027.117.059" class="C"/><path d="M7.203 6.621L7.18 6.59c-.016-.023-.004-.051.02-.07l.234-.145.141.199-.23.152c-.027.016-.059.012-.074-.012l-.02-.023m.57-.34l.023.031c.012.02.004.047-.023.063l-.246.129-.141-.199.242-.137c.027-.008.074.016.09.039" class="B"/><path d="M8.293 6.051L8.273 6c-.008-.035.012-.066.047-.086l.324-.098.102.324c-.121.031-.238.074-.32.105-.039.008-.074-.008-.086-.043l-.012-.043m.781-.219l.016.051c.012.035-.008.066-.047.078l-.332.07-.102-.324.328-.078c.039 0 .086.051.098.086" class="C"/><path d="M8.363 6.043l-.012-.039c-.008-.023.008-.047.039-.062l.27-.078.074.23-.27.086c-.031.008-.059-.004-.066-.027l-.012-.031m.652-.18l.012.035c.008.023-.012.051-.043.059-.078.012-.172.031-.273.059l-.074-.23.273-.066c.031-.004.07.035.078.059" class="B"/><path d="M9.586 5.773v-.055c0-.035.027-.059.066-.07l.34-.008v.336c-.125 0-.254.008-.34.02-.039 0-.066-.027-.066-.062v-.043m.816-.012v.055c0 .035-.031.063-.07.063-.094-.012-.211-.02-.34-.02v-.336l.34.008c.039.008.07.07.07.105" class="C"/><path d="M9.652 5.785v-.039c0-.027.027-.043.059-.051l.281-.008.004.242-.285.012c-.031 0-.055-.016-.059-.043v-.031m.684-.008v.039c0 .023-.027.043-.059.043l-.281-.012-.004-.242.285.008c.031.008.059.051.059.078" class="B"/><path d="M10.824 5.832l.016-.051c.008-.035.047-.051.086-.051l.328.078-.098.32-.336-.066c-.035-.008-.055-.043-.047-.078l.016-.039m.789.191l-.016.055c-.012.031-.047.051-.086.039l-.32-.102.098-.32.328.09c.035.02.043.086.031.121" class="C"/><path d="M10.887 5.859l.012-.035c.008-.023.035-.035.07-.035l.273.066-.074.23a2.71 2.71 0 0 0-.273-.059c-.031-.008-.051-.031-.043-.059l.012-.027m.656.16l-.012.039c-.008.023-.039.035-.07.027-.074-.027-.168-.055-.27-.082l.074-.23.269.074c.031.016.039.063.031.09" class="B"/><path d="M12.078 6.227l.031-.043c.019-.031.063-.039.098-.027l.293.156-.195.285a2.73 2.73 0 0 0-.301-.152c-.031-.016-.039-.055-.019-.082l.027-.039m.695.391l-.031.043c-.02.031-.062.039-.094.02l-.277-.18.195-.285.285.172c.027.027.016.094-.004.125" class="C"/><path d="M12.129 6.27l.024-.031c.016-.023.047-.027.078-.016l.242.133-.141.203-.246-.129c-.027-.016-.035-.043-.024-.062l.02-.027m.578.324l-.02.031c-.016.023-.047.027-.074.012l-.234-.148.141-.203.238.141c.023.023.016.07.004.094" class="B"/><path d="M13.16 6.926l.043-.035c.031-.023.07-.02.106 0l.23.227-.277.223c-.082-.086-.172-.168-.238-.223-.027-.023-.023-.062.004-.086l.039-.027m.547.551l-.043.035c-.031.023-.07.02-.098-.008-.055-.07-.125-.156-.211-.242l.277-.223.219.238c.02.031-.012.094-.043.117" class="C"/><path d="M13.199 6.98l.031-.023c.02-.02.051-.016.078.004l.191.188-.199.16c-.066-.07-.145-.137-.195-.184-.023-.023-.023-.051 0-.07l.023-.02m.457.461l-.031.023c-.023.02-.055.012-.074-.008l-.18-.203.199-.16.184.199c.016.027-.004.07-.027.09" class="B"/><path d="M13.984 7.875l.051-.023c.035-.016.074 0 .098.027l.156.277-.336.141-.16-.273c-.019-.031-.004-.066.031-.082l.043-.02m.355.672l-.051.023c-.035.016-.074 0-.094-.031l-.125-.289.336-.141.133.285c.008.035-.039.086-.074.098" class="C"/><path d="M14 7.938l.039-.016c.027-.012.055 0 .074.023l.125.23-.238.102a2.19 2.19 0 0 0-.133-.227c-.012-.027-.004-.055.019-.066l.031-.012m.297.559l-.039.016c-.027.008-.055-.004-.066-.027L14 8.277l.238-.102.117.238c.004.027-.027.066-.055.078" class="B"/><path d="M14.477 8.996l.059-.008c.039-.008.07.016.086.051l.063.305-.367.051c-.016-.113-.047-.227-.07-.305-.004-.035.019-.066.059-.07l.047-.008m.133.734l-.055.008c-.039.008-.074-.016-.078-.051l-.035-.309.367-.051.043.309c-.004.035-.066.07-.105.074" class="C"/><path d="M14.477 9.059l.043-.004c.027-.004.051.016.063.043l.051.254-.262.035a2 2 0 0 0-.059-.25c-.004-.031.012-.055.039-.059l.035-.004m.109.609l-.039.004c-.031.004-.055-.016-.059-.043-.004-.074-.012-.16-.027-.258l.262-.035.035.254c-.004.031-.047.059-.074.063" class="B"/><path d="M14.606 10.199l.059.008c.039.004.063.031.066.07l-.035.309-.367-.047c.02-.113.027-.23.027-.309.004-.035.039-.059.078-.055l.047.008m-.098.738l-.059-.008c-.039-.004-.062-.035-.059-.07a2.43 2.43 0 0 0 .063-.305l.367.047-.055.305c-.016.035-.086.051-.125.047" class="C"/><path d="M14.586 10.258l.039.008c.031.004.047.027.047.059l-.027.254-.266-.031a2.55 2.55 0 0 0 .027-.258c.004-.027.027-.047.055-.043l.035.004m-.086.613l-.039-.004c-.027-.004-.047-.031-.043-.059a1.93 1.93 0 0 0 .051-.254l.266.031-.047.254c-.012.031-.062.047-.09.043" class="B"/><path d="M14.356 11.383l.055.024c.035.016.051.051.043.086l-.129.285-.336-.137c.051-.106.094-.215.117-.289.02-.031.055-.047.094-.031l.043.016m-.324.684l-.055-.02c-.035-.016-.051-.051-.035-.082.051-.078.106-.172.16-.277l.336.137-.148.281c-.023.027-.098.027-.133.012" class="C"/><path d="M14.316 11.438l.039.016c.027.012.035.039.027.07l-.109.234-.242-.098.105-.238c.012-.027.039-.039.066-.031l.031.016m-.269.566l-.039-.016c-.024-.012-.035-.039-.02-.066.039-.062.082-.141.125-.23l.242.098-.121.234c-.02.023-.074.027-.098.016" class="B"/><path d="M13.75 12.461l.043.031c.031.023.035.063.016.094l-.211.242-.281-.219a2.3 2.3 0 0 0 .203-.246c.027-.027.066-.031.098-.008l.035.031m-.52.57l-.047-.035c-.027-.024-.031-.059-.008-.086l.238-.226.281.219-.23.231c-.031.023-.102 0-.133-.02" class="C"/><path d="M13.695 12.5l.031.027c.024.016.024.043.008.07-.055.055-.117.133-.18.199l-.199-.156c.066-.07.129-.148.172-.203.019-.024.051-.027.074-.012l.027.023m-.437.473l-.031-.024c-.023-.016-.02-.047 0-.066l.195-.191.199.156-.187.191c-.027.019-.078.008-.102-.008" class="B"/><path d="M12.836 13.336l.031.043c.024.031.012.066-.016.094l-.277.176-.203-.281c.105-.062.207-.133.274-.184.035-.02.074-.012.094.02l.027.035m-.676.414l-.035-.043c-.02-.027-.012-.066.019-.086a2.21 2.21 0 0 0 .297-.156l.203.281-.289.164c-.039.012-.102-.023-.121-.055" class="C"/><path d="M12.77 13.359l.023.035c.016.02.008.047-.016.07l-.234.145-.144-.199.23-.152c.027-.016.059-.012.074.008l.02.027m-.566.344l-.023-.031c-.016-.023-.004-.051.02-.066l.246-.129.144.199-.238.137c-.031.012-.078-.016-.094-.035" class="B"/><path d="M11.688 13.941l.016.051c.012.035-.008.066-.043.086l-.32.098-.109-.32.32-.109c.039-.008.074.008.086.043l.012.043m-.777.223l-.016-.051c-.012-.031.008-.066.043-.078.098-.016.211-.039.332-.07l.109.32-.332.082c-.039 0-.086-.051-.098-.082" class="C"/><path d="M11.617 13.949l.012.035c.008.027-.008.051-.039.066l-.27.078-.074-.23.266-.086c.031-.008.059.004.07.027l.008.031m-.648.184l-.012-.035c-.008-.024.008-.047.039-.059l.277-.062.074.23-.273.07c-.031.004-.07-.035-.078-.058" class="B"/><path d="M10.398 14.227v.055c0 .035-.027.063-.066.07l-.344.012v-.336c.125 0 .25-.012.34-.02.039 0 .066.027.066.063v.043m-.816.016v-.055c0-.035.027-.059.066-.062l.344.016v.336a3.28 3.28 0 0 1-.34-.004c-.039-.008-.066-.07-.07-.106" class="C"/><path d="M10.328 14.219v.039c0 .023-.023.043-.059.051l-.281.008-.004-.242c.105 0 .211-.008.285-.016.031 0 .055.019.055.047l.004.031m-.68.012l-.004-.039c0-.024.027-.043.059-.043l.281.008.004.242c-.098 0-.195 0-.285-.004-.031-.008-.055-.051-.055-.074" class="B"/></g><defs><clipPath id="A"><path d="M0 0h20v20H0z" class="D"/></clipPath><path id="B" d="M8.453 10.422c-.055-.066-.098-.141-.145-.203-.008-.094.063-.18.07-.227.078.109.121.191.184.246m.082.043c.113.039.254.039.379.043.496.008 1.016-.066.961.543-.047.543-.543.855-.984.851-.629-.008-1.164-.637-.195-1.801.094-.012.215.012.316.02a.77.77 0 0 0 .555-.152l-.074-1.09c-.09-.121.012-.285.059-.437.074.266.32.27.086.508.059.387.063.777.063 1.012-.117.16-.211.336-.555.402-.348-.047-.508-.496-.875-.348.102-.402 1.031-.496 1.125-.176-.062.332-.93.199-1.16 1.27-.07.332.313.637.707.613.383-.024.793-.266.832-.676.035-.344-.496-.301-.719-.297-.32.004-.523-.039-.648-.105m.332-.738c.059-.051.258-.082.328-.004-.055.031-.105.066-.148.109-.078-.035-.125-.07-.18-.105z"/><path id="C" d="M10.438 7.867c-.184.082-.32.004-.399-.07.137-.023.238-.066.27-.164-.062-.121-.203-.176-.406-.176-.27.004-.41.105-.426.238.125.008.238-.027.289.086-.223.098-.484.133-.77.133-.461.02-.531-.172-.652-.336-.008-.012-.051-.031-.07-.027-.145 0-.25.453-.41.453-.164-.02-.125-.293-.172-.449-.039.246.047 1.16.547.168.016-.035.039-.023.051.004.133.277.406.371.703.387.242.012.559-.086.895-.258.09.09.16.191.348.211.219.008.449-.137.504-.312.027-.094.031-.273-.074-.277-.152-.004-.258.324-.223.621 0-.004.02-.074.02-.074m-.664-.395c.102-.043.195-.062.27.031-.059.02-.094.031-.125.055-.043-.031-.102-.047-.145-.086zm.723.203c.023-.098.039-.176.125-.227.019.105.019.16-.125.227z"/><path id="D" d="M11.152 8.18l.027.129h.023l-.008-.117"/></defs></svg>