<svg width="64" height="64" viewBox="0 0 64 64" fill="none" xmlns="http://www.w3.org/2000/svg">
<circle cx="32" cy="32" r="32" fill="white"/>
<rect x="14.4902" y="21.011" width="36.2264" height="22.3396" fill="#EDF4F3"/>
<path d="M16.3016 21.011C15.3012 21.011 14.4902 21.8219 14.4902 22.8223V38.5204H46.4902C47.4906 38.5204 48.3016 37.7095 48.3016 36.7091V21.011H16.3016Z" fill="#EDF4F3"/>
<path fill-rule="evenodd" clip-rule="evenodd" d="M50.7166 41.5393V40.3318H48.9053H14.4902V41.5393C14.4902 42.5397 15.3012 43.3507 16.3016 43.3507H48.9053C49.9057 43.3507 50.7166 42.5397 50.7166 41.5393ZM35.6223 43.3507L36.2261 45.7658H37.4681H38.0374C38.7043 45.7658 39.245 46.3064 39.245 46.9733V48.7846H25.962V47.2752V46.9733C25.962 46.3064 26.5026 45.7658 27.1695 45.7658H28.9808L29.1834 44.9555H29.1831L29.5846 43.3507H29.5846H34.7167H35.6223Z" fill="#405B73"/>
<circle cx="32.6033" cy="25.2373" r="1.81132" fill="#FBE1CA"/>
<path d="M29.585 30.6712V30.0675C29.585 28.4002 30.9366 27.0486 32.6038 27.0486C34.2711 27.0486 35.6227 28.4002 35.6227 30.0675V30.6712" fill="#405B73"/>
<circle cx="32.6033" cy="34.8977" r="1.81132" fill="#FBE1CA"/>
<path d="M29.585 40.3316V39.7279C29.585 38.0606 30.9366 36.709 32.6038 36.709C34.2711 36.709 35.6227 38.0606 35.6227 39.7279V40.3316" fill="#405B73"/>
<circle cx="44.6785" cy="34.8977" r="1.81132" fill="#FBE1CA"/>
<path d="M41.6602 40.3316V39.7279C41.6602 38.0606 43.0117 36.709 44.679 36.709C46.3463 36.709 47.6979 38.0606 47.6979 39.7279V40.3316" fill="#405B73"/>
<circle cx="20.5281" cy="34.8977" r="1.81132" fill="#FBE1CA"/>
<path d="M17.5088 40.3316V39.7279C17.5088 38.0606 18.8604 36.709 20.5277 36.709C22.1949 36.709 23.5465 38.0606 23.5465 39.7279V40.3316" fill="#405B73"/>
<circle cx="20.5281" cy="25.2373" r="1.81132" fill="#FBE1CA"/>
<path d="M17.5088 30.6712V30.0675C17.5088 28.4002 18.8604 27.0486 20.5277 27.0486C22.1949 27.0486 23.5465 28.4002 23.5465 30.0675V30.6712" fill="#405B73"/>
<path d="M50.7166 30.0676H39.2449V24.0468H38.0374V30.0676H27.1695V21.011H25.9619V30.0676H14.4902V31.2751H25.9619V40.3317H27.1695V31.2751H38.0374V40.3317H39.2449V31.2751H50.7166V30.0676Z" fill="#E7E8E8"/>
<path d="M47.4654 15.698H39.1171C38.0224 15.698 37.1318 16.5886 37.1318 17.6833V23.4897C37.1318 24.5853 38.0574 25.5108 39.1529 25.5108L43.3091 25.5118L44.7133 28.1315C44.7954 28.2845 44.9524 28.3772 45.1228 28.3772C45.1399 28.3772 45.1572 28.3763 45.1745 28.3744C45.3644 28.3536 45.5204 28.2212 45.572 28.0374L46.281 25.5118H47.4653C48.56 25.5118 49.4506 24.6212 49.4506 23.5265V17.6833C49.4507 16.5886 48.5601 15.698 47.4654 15.698V15.698Z" fill="#F4CC54"/>
</svg>
