<svg xmlns="http://www.w3.org/2000/svg" width="24" height="24" fill="none" xmlns:v="https://vecta.io/nano"><style><![CDATA[.B{fill:#fff}.C{stroke-width:.074}.D{stroke:#000}.E{fill:#006233}.F{fill:#f7c608}.G{stroke:#fff}.H{fill-rule:evenodd}.I{stroke-width:.006}.J{stroke-width:.014}.K{stroke-linejoin:round}]]></style><mask id="A" maskUnits="userSpaceOnUse" x="1" y="1" width="22" height="22"><path d="M1 1H23V23H1V1Z" class="B"/></mask><g mask="url(#A)"><path d="M12 1a11 11 0 0 1 11 11 11 11 0 0 1-11 11A11 11 0 0 1 1 12 11 11 0 0 1 12 1z" fill="#06612e"/><path d="M9.246 12.392c-.43.588-.116.967.327.997.293.018.898-.378.894-.843l-.163-.086c.09.241-.004.314-.202.477-.391.322-1.186.344-.855-.546h-.001z" class="B G H I"/><path d="M12.653 13.929c2.419.065 3.189-2.067 1.693-3.888l-.146.198.249 2.561c-.293.309-.717.194-.799-.151.004-.473-.167-.872-.378-1.251l-.12.198c.137.314.288.665.322 1.053-.692.752-1.456.902-1.173-.086-.546.868.284 1.478 1.216.142.202.911.98.348 1.027.151.081-.597.039-1.56-.129-2.32.67 1.062.696 1.826.335 2.338-.395.568-1.264.834-2.097 1.057l-.001-.001z" class="B G H J"/><path d="M14.024 11.523c-.516.034-.782-.065-.503-.413.279-.34.537-.068.606.387.065.43-.906.971-1.246.971-.507 0-.744-.593-.275-1.13-.602 1.564 1.307.658 1.418.185v-.001zm-.356-.361c-.065-.004-.111.095-.077.116.09.056.232.022.25-.004.03-.065-.086-.112-.172-.112l-.001.001z" class="B G H J"/><path d="M11.214 12.262c-.498.89 0 1.258.636 1.156.374-.065.847-.305 1.118-.631l-.077-2.135c.249-.271-.022-.266-.117-.559-.043.172-.146.352-.047.485a20.89 20.89 0 0 1 .112 2.144c-.503.37-.877.503-1.147.498-.554-.004-.674-.43-.477-.958z" class="B G H J"/><path d="M12.232 12.494l-.086-1.9c.257-.262-.013-.271-.099-.563-.052.167-.159.348-.065.482l.095 2.157c.06-.034.129-.047.155-.176z" class="B G H J"/><path d="M10.298 12.464c-.06-.073-.108-.155-.159-.223-.009-.103.069-.198.077-.25.086.12.133.21.202.271m.09.047c.124.043.279.043.417.047.546.009 1.118-.073 1.057.597-.052.597-.597.941-1.082.936-.692-.009-1.28-.701-.215-1.981.103-.013.237.013.348.022.218.025.436-.035.611-.167l-.081-1.199c-.099-.133.013-.314.065-.481.081.293.352.297.095.559.065.426.069.855.069 1.113-.129.176-.232.37-.61.442-.383-.052-.559-.546-.963-.383.112-.442 1.134-.546 1.238-.194-.068.365-1.023.219-1.276 1.397-.077.365.344.701.778.674.421-.026.872-.293.915-.744.038-.378-.546-.331-.791-.327-.352.004-.575-.043-.713-.116m.365-.812c.065-.056.284-.09.361-.004a.74.74 0 0 0-.163.12c-.086-.039-.138-.077-.198-.116z" class="B"/><path d="M10.298 12.464c-.06-.073-.108-.155-.159-.223-.009-.103.069-.198.077-.25.086.12.133.21.202.271m.09.047c.124.043.279.043.417.047.546.009 1.118-.073 1.057.597-.052.597-.597.941-1.082.936-.692-.009-1.28-.701-.215-1.981.103-.013.237.013.348.022.218.025.436-.035.611-.167l-.081-1.199c-.099-.133.013-.313.065-.481.081.293.352.297.095.559.065.426.069.855.069 1.113-.129.176-.232.37-.61.442-.383-.052-.559-.546-.963-.383.112-.442 1.134-.546 1.238-.194-.068.365-1.023.219-1.276 1.397-.077.365.344.701.778.674.421-.026.872-.293.915-.744.038-.378-.546-.331-.791-.327-.352.004-.575-.043-.713-.116m.365-.812c.065-.056.284-.09.361-.004a.74.74 0 0 0-.163.12c-.086-.039-.138-.077-.198-.116z" class="G I"/><path d="M11.274 10.445c.061.124.081.202.086.318-.034.16-.185.305-.335.309-.056.005-.113-.006-.162-.034s-.089-.07-.113-.121c-.009-.016-.047-.055-.086-.038-.167.25-.293.356-.442.352-.305-.004-.214-.25-.494-.322-.116-.004-.305.103-.404.313-.37.958-.71-.004-.568-.451.022.43.138.683.253.674.081-.009.159-.185.266-.374.081-.142.284-.399.494-.399.189.004.069.327.455.322.185-.004.356-.133.528-.395.039-.004.047.056.056.077.025.09.198.336.426.112-.013-.047-.009-.129-.065-.146l.103-.198.001.001z" class="B G H J"/><path d="M12.482 9.654a.38.38 0 0 1-.439-.077c.151-.025.262-.073.297-.18-.068-.133-.223-.194-.447-.194-.297.004-.451.116-.469.262.138.009.262-.03.318.095-.245.108-.532.146-.847.146-.507.022-.584-.189-.717-.37-.009-.013-.056-.034-.077-.03-.16 0-.275.498-.451.498-.18-.022-.137-.322-.189-.494-.043.271.052 1.276.602.185.018-.038.043-.025.056.004.146.305.447.408.773.426.266.013.615-.095.984-.284.099.099.176.21.383.232.241.009.494-.151.554-.343.03-.103.034-.3-.081-.305-.167-.004-.284.356-.245.683 0-.004.022-.081.022-.081m-.73-.434c.112-.047.214-.068.297.034-.065.022-.103.034-.138.06-.047-.034-.112-.052-.159-.095h0zm.795.223c.025-.108.043-.194.138-.25.021.116.021.176-.138.25z" class="B"/><path d="M12.482 9.654a.38.38 0 0 1-.439-.077c.151-.025.262-.073.297-.18-.068-.133-.223-.194-.447-.194-.297.004-.451.115-.469.262.138.009.262-.03.318.095-.245.108-.532.146-.847.146-.507.022-.584-.189-.717-.37-.009-.013-.056-.034-.077-.03-.16 0-.275.498-.451.498-.18-.022-.137-.322-.189-.494-.043.271.052 1.276.602.185.018-.039.043-.025.056.004.146.305.447.408.773.426.266.013.615-.095.984-.284.099.099.176.21.383.232.241.009.494-.151.554-.343.03-.103.034-.3-.081-.305-.167-.004-.284.356-.245.683 0-.004.022-.081.022-.081m-.73-.434c.112-.047.214-.068.297.034-.065.022-.103.034-.138.06-.047-.034-.112-.052-.159-.095h0zm.795.223c.025-.108.043-.194.138-.25.021.115.021.176-.138.25z" class="G I"/><path d="M13.22 9.782c-.034-.095-.065-.172-.073-.271-.025-.202.167-.318.34-.3s.293.077.464.129l.482.116c.099.038 0 .142-.025.155-.426.155-.73.395-1.001.404-.163.009-.309-.086-.438-.284l-.065-1.118c.061-.056.077-.099.108-.146l.052 1.161a.28.28 0 0 0 .159.155h-.003zm.271.03c-.228.061-.198-.115-.219-.228-.025-.124-.009-.271.167-.232a5.09 5.09 0 0 1 .645.207l-.593.253z" class="B G H I"/><path d="M13.267 9.998l.03.142h.025l-.009-.129" class="B"/><path d="M13.267 9.998l.03.142h.025l-.009-.129" class="G I"/><path d="M9.615 11.468l.116-.108.138.103-.124.099-.129-.095zm.297-.04l.12-.108.133.103-.124.103-.129-.099zm-.822-1.125l.116-.108.137.103-.124.103-.129-.099zm.052.322l.12-.108.133.103-.124.099-.129-.095zm2.132.537l.112-.081.099.099-.116.073-.096-.09zM9.852 9.113l.077-.073.086.069-.077.069-.086-.066zm.194-.022l.077-.073.09.069-.081.065-.086-.062zm4.078.808l-.073.056-.073-.065.077-.052.068.06z" stroke-width=".058" class="B G H K"/><path d="M10.686 11.901l-.009.12.21.018.167-.112-.37-.025h.001z" class="B G H I"/><path d="M12.455 9.676l.061-.013-.009.155-.038.013-.013-.155z" class="B G H J"/><path d="M11.996 15.932c2.355 0 4.271-1.74 4.271-3.884 0-1.177-.58-2.23-1.487-2.939.546.584.877 1.353.877 2.191 0 1.86-1.637 3.369-3.661 3.369s-3.661-1.508-3.661-3.369c0-.838.331-1.607.877-2.191-.906.71-1.487 1.762-1.487 2.939 0 2.144 1.916 3.884 4.271 3.884z" class="B"/><path d="M11.416 18.097c-.941.426-2.119.309-3.111-.275-.043-.018-.065.009-.022.116.108.284.189.507-.129.928-.142.185.022.21.257.194 1.199-.108 2.376-.352 2.944-.554l.061-.408z" class="B C D"/><path d="M11.398 18.6c-.378.137-1.019.305-1.736.421-.288.038-.279.202.237.262.525.047 1.199-.293 1.603-.593l-.103-.09z" class="B C D"/><path d="M11.996 17.667c.129 0 .365-.052.602-.077.438-.068.115.546-.602.546v.202c.726 0 1.487-.722 1.328-1.04-.223-.469-.846-.068-1.328-.068s-1.104-.399-1.328.069c-.159.318.602 1.038 1.328 1.038v-.201c-.717 0-1.04-.615-.597-.546l.597.076z" class="B"/><path d="M11.996 18.136c.717 0 1.04-.615.602-.546l-.602.077c-.129 0-.365-.052-.597-.077-.442-.068-.12.546.597.546zm0 0v.202m0 0c.726 0 1.487-.722 1.328-1.04-.223-.469-.846-.068-1.328-.068s-1.104-.399-1.328.069c-.159.318.602 1.038 1.328 1.038z" class="C D"/><path d="M12.575 18.097c.941.426 2.119.309 3.111-.275.043-.018.065.009.022.116-.103.284-.189.507.129.928.142.185-.022.21-.254.194-1.199-.108-2.376-.352-2.948-.554l-.059-.408z" class="B C D"/><path d="M12.597 18.6c.374.137 1.005.305 1.731.421.288.038.279.202-.236.262-.524.047-1.199-.293-1.603-.593l.108-.09z" class="B C D"/><path d="M12.025 18.505c.022.163.056.524.301.37.331-.206.408-.361.408-.653 0-.185-.245-.46-.739-.46s-.739.275-.739.46c0 .293.077.447.408.653.245.155.266-.206.3-.37.009-.06.06-.038.06 0zm-.339-12.478c-.142-.717-1.306-.769-1.487-.886-.214-.124-.185 0-.108.194.21.507.941.713 1.272.769.266.038.352.061.322-.077h.001z" class="B C D"/><path d="M12.039 6.049c.115-.739-1.04-1.091-1.177-1.259-.159-.172-.18-.065-.108.138.137.438.645.954.941 1.091.25.116.322.167.343.03l.001.001z" class="B C D"/><path d="M12.992 6.478c.108-.89-.838-1.023-1.082-1.306-.16-.176-.172-.077-.116.124.108.451.575.976.864 1.138.228.129.321.176.334.043z" class="B C D"/><path d="M12.701 6.281c-.971-.575-1.659-.253-1.934-.284s-.356.129.103.361c.526.231 1.115.28 1.672.138.322-.115.223-.176.158-.214zm1.47.391c-.301-.954-.997-.8-1.199-.915s-.228-.09-.185.124c.086.383.803.8 1.156.928.129.038.293.095.228-.138z" class="B C D"/><path d="M14.028 6.836c-.834-.61-1.486-.155-1.745-.223-.194-.047-.108.069-.03.115.532.344 1.199.528 1.711.313.207-.077.214-.099.065-.206h-.001z" class="B C D"/><path d="M15.837 7.458c.013-.602-1.357-.855-1.646-1.224-.172-.223-.322-.108-.236.253.129.469 1.07.985 1.585 1.078.309.061.297-.037.297-.107z" class="B C D"/><path d="M15.794 7.566c-.864-.709-1.594-.477-1.86-.546-.266-.056-.374.09.043.383.491.296 1.068.418 1.637.348.331-.065.245-.133.18-.185zm1.555 1.044c-.25-1.031-1.031-1.246-1.22-1.443s-.378-.133-.215.331c.194.559.825 1.044 1.156 1.16.322.129.301.03.279-.047l-.001-.001z" class="B C D"/><path d="M17.337 8.747c-.631-.928-1.456-.898-1.71-1.023-.25-.137-.421-.022-.086.378.383.485 1.177.76 1.538.778s.3-.068.257-.133h.001z" class="B C D"/><path d="M18.149 9.847c.365-1.053-.469-1.443-.554-1.62-.099-.172-.194-.172-.245.013-.236.748.524 1.478.64 1.625.117.137.137.069.16-.018z" class="B C D"/><path d="M17.982 10.14c-.293-1.181-1.053-1.113-1.22-1.276-.185-.167-.206-.052-.172.163.086.575.843.967 1.186 1.16.108.061.236.129.207-.047h-.001z" class="B C D"/><path d="M18.708 11.523c.525-1.113-.095-1.86-.288-2.028-.194-.155-.313-.223-.249 0 .086.34-.21 1.215.249 1.86.151.214.172.421.288.167v.001z" class="B C D"/><path d="M18.428 11.747c.12-.683-.309-1.306-.769-1.551-.266-.146-.279-.108-.279.099.022.631.674 1.161.868 1.452.18.271.172.069.18 0zm-.117 1.77c-.387-1.285.417-2.024.661-2.17.236-.155.387-.215.279.03-.158.356.009 1.362-.602 1.994-.189.215-.265.438-.339.146z" class="B C D"/><path d="M18.398 13.238c.318-1.122-.374-1.753-.588-1.882-.206-.124-.335-.176-.236.03.129.309-.013 1.186.525 1.731.172.185.236.37.3.12v.001z" class="B C D"/><path d="M18.003 12.71c-.58.568-.588 1.393-.335 1.882.163.279.185.262.335.056.404-.593.158-1.452.18-1.83.009-.361-.12-.164-.18-.108z" class="B C D"/><path d="M18.952 13.607c0 .778-.525 1.409-1.078 1.607-.322.108-.322.077-.279-.158.151-.877.89-1.195 1.156-1.478.257-.275.201-.047.201.03zm-1.989 2.315c.941-.778.438-1.323.482-1.83.022-.271-.095-.206-.202-.108-.602.537-.631 1.49-.503 1.86.052.163.138.146.223.077v.001z" class="B C D"/><path d="M18.226 15.415c-.309.859-1.134 1.384-1.83 1.414-.408.018-.395-.009-.257-.262.525-.915 1.456-1.023 1.873-1.259.387-.215.245.022.214.108z" class="B C D"/><path d="M15.665 17.023c1.22-.554.976-1.478 1.199-1.715.163-.164-.03-.146-.124-.086-.717.378-1.298.983-1.306 1.624 0 .245.021.275.232.176l-.001.001z" class="B C D"/><path d="M13.998 18.054c1.542.228 2.256-.834 2.707-.933.236-.047.065-.137-.052-.146-1.027-.108-2.333.331-2.732.816-.159.198-.159.238.077.263z" class="B C D"/><path d="M15.562 16.391c-.313.924-1.47 1.684-2.338 1.745-.404.025-.404-.013-.254-.253.696-1.152 1.904-1.345 2.333-1.637.361-.254.288.056.257.146l.001-.001zM12.305 6.027c.142-.717 1.307-.769 1.49-.886.21-.124.18 0 .103.194-.21.507-.941.713-1.272.769-.266.038-.352.061-.322-.077z" class="B C D"/><path d="M11.953 6.049c-.116-.739 1.04-1.091 1.177-1.259.159-.172.18-.065.108.138-.138.438-.64.954-.941 1.091-.25.116-.322.167-.343.03l-.001.001z" class="B C D"/><path d="M10.999 6.478c-.108-.89.838-1.023 1.082-1.306.159-.176.172-.077.117.124-.108.451-.575.976-.864 1.138-.228.129-.322.176-.335.043z" class="B C D"/><path d="M11.291 6.281c.971-.575 1.659-.253 1.934-.284s.356.129-.103.361c-.568.284-1.362.245-1.672.137-.322-.115-.222-.176-.158-.214z" class="B C D"/><path d="M9.822 6.672c.3-.954.997-.8 1.199-.915s.228-.09.185.124c-.086.383-.803.8-1.156.928-.129.038-.293.095-.228-.138z" class="B C D"/><path d="M9.963 6.836c.834-.61 1.487-.155 1.745-.223.194-.047.108.069.03.115-.532.344-1.199.528-1.71.313-.206-.077-.213-.099-.064-.206z" class="B C D"/><path d="M8.154 7.458c-.013-.602 1.357-.855 1.646-1.224.172-.223.322-.108.237.253-.129.469-1.07.985-1.585 1.078-.309.061-.297-.037-.297-.107z" class="B C D"/><path d="M8.197 7.566c.864-.709 1.594-.477 1.86-.546.266-.056.374.09-.043.383-.491.296-1.068.418-1.637.348-.331-.065-.245-.133-.18-.185zM6.642 8.61c.25-1.031 1.032-1.246 1.22-1.443s.378-.133.214.331c-.225.519-.638.933-1.156 1.16-.318.129-.3.03-.279-.047l.001-.001z" class="B C D"/><path d="M6.655 8.747c.631-.928 1.456-.898 1.715-1.023.245-.137.417-.022.081.378-.383.485-1.177.76-1.538.778s-.3-.068-.257-.133h-.001z" class="B C D"/><path d="M5.842 9.847c-.365-1.053.469-1.443.554-1.62.099-.172.194-.172.245.013.236.748-.525 1.478-.64 1.625-.115.137-.138.069-.16-.018z" class="B C D"/><path d="M6.011 10.14c.293-1.181 1.053-1.113 1.22-1.276.185-.167.207-.052.172.163-.086.575-.843.967-1.186 1.16-.108.061-.236.129-.206-.047zm-.726 1.383c-.525-1.113.099-1.86.288-2.028.194-.155.313-.223.25 0-.086.34.21 1.215-.25 1.86-.151.214-.167.421-.288.167v.001z" class="B C D"/><path d="M5.563 11.747c-.12-.683.309-1.306.769-1.551.271-.146.279-.108.279.099-.022.631-.674 1.161-.868 1.452-.18.271-.172.069-.18 0zm.117 1.77c.387-1.285-.417-2.024-.662-2.17-.236-.155-.387-.215-.279.03.16.356-.009 1.362.602 1.994.189.215.253.438.34.146z" class="B C D"/><path d="M5.594 13.238c-.318-1.122.378-1.753.589-1.882s.335-.176.236.03c-.129.309.013 1.186-.525 1.731-.172.185-.236.37-.3.12v.001z" class="B C D"/><path d="M5.993 12.71c.575.568.588 1.393.331 1.882-.163.279-.185.262-.331.056-.408-.593-.163-1.452-.185-1.83-.009-.361.12-.164.185-.108z" class="B C D"/><path d="M5.039 13.607c0 .778.525 1.409 1.078 1.607.322.108.322.077.279-.158-.151-.877-.89-1.195-1.156-1.478-.257-.275-.201-.047-.201.03zm1.989 2.315c-.94-.778-.438-1.323-.481-1.83-.022-.271.095-.206.202-.108.602.537.631 1.49.503 1.86-.052.163-.138.146-.223.077l-.001.001z" class="B C D"/><path d="M5.765 15.415c.309.859 1.134 1.384 1.83 1.414.408.018.395-.009.257-.262-.525-.915-1.456-1.023-1.873-1.259-.387-.215-.245.022-.215.108z" class="B C D"/><path d="M8.326 17.023c-1.22-.554-.976-1.478-1.199-1.715-.163-.164.03-.146.124-.086.717.378 1.298.983 1.307 1.624 0 .245-.022.275-.232.176v.001z" class="B C D"/><path d="M9.994 18.054c-1.542.228-2.256-.834-2.707-.933-.237-.047-.065-.137.052-.146 1.032-.108 2.333.331 2.732.816.159.198.159.238-.077.263z" class="B C D"/><path d="M8.429 16.391c.313.924 1.47 1.684 2.337 1.745.404.025.404-.013.253-.253-.696-1.152-1.903-1.345-2.333-1.637-.361-.254-.288.056-.257.146v-.001z" class="B C D"/><path d="M13.805 6.926c-.202-.137-.954-.06-1.091-.146.266.202.868.056 1.091.146zm1.808.348c-.159-.262-1.113-.438-1.251-.67.245.447.985.39 1.251.67zm-.137.305c-.356-.314-1.177-.185-1.427-.37.58.477.902.103 1.427.37zm-2.067-1.383c.223.108.503.215.64.469-.16-.198-.447-.275-.683-.438.009 0 .03-.023.043-.031zm3.511 2.006c-.137-.293-.631-.615-.674-.722.138.378.546.469.674.722zm.129.516c-.43-.615-1.104-.546-1.371-.782.202.228.976.374 1.371.782zm.992.945c.034-.653-.503-.898-.524-1.267-.009.438.546 1.032.524 1.267zm-.266.348c-.108-.563-.834-.602-.962-.933 0 .309.855.631.962.933zm.602-.322c.383.43.116 1.082.275 1.56-.189-.348-.095-1.224-.275-1.56zm-.631 1.835c.575.563.34 1.195.575 1.47-.288-.383-.245-1.121-.575-1.47zm1.199.078c-.494.494-.194 1.246-.451 1.594.288-.3.245-1.224.451-1.594zm-.624 0c-.065-.575-.653-.877-.705-1.19-.065.313.568.8.705 1.19zm-.296 1.371c.095.399-.257 1.26-.151 1.521-.236-.46.202-1.323.151-1.521zm.756.915c-.232.714-.705.662-.855 1.091.108-.408.726-.778.855-1.091zm-1.53.331c-.309.477-.052 1.023-.309 1.366.365-.343.172-.976.309-1.366zm.752 1.306c-.378.631-1.147.576-1.456 1.032.309-.571 1.264-.67 1.456-1.031v-.001zm-1.362-.077c-.662.417-.46.855-.962 1.323.631-.469.575-.985.962-1.323zm-.309 1.693c-.645-.018-1.564.744-2.119.683.554.108 1.582-.575 2.119-.683zm-1.041-.68c-.043.593-1.71.971-1.895 1.371.207-.525 1.672-.915 1.895-1.371zM11.515 5.503c-.215-.167-.473-.3-.546-.469.052.215.266.37.482.516.022-.009.043-.038.065-.047h-.001z" class="E"/><path d="M11.15 5.679c-.331-.146-.717-.138-.89-.344.108.207.473.284.782.391a.43.43 0 0 1 .108-.047v.001zm-.962 1.246c.202-.138.954-.061 1.091-.146-.266.202-.868.056-1.091.146zm-1.809.348c.159-.262 1.113-.438 1.251-.67-.245.447-.984.391-1.251.67zm.137.305c.356-.314 1.177-.185 1.427-.37-.58.477-.902.103-1.427.37zm1.427-.915c.202-.39.782-.438.928-.674-.223.352-.713.408-.928.674zm1.646-.343c.588-.253 1.169-.038 1.448-.155-.343.167-1.156.086-1.448.155zM7.072 8.202c.138-.293.631-.615.674-.722-.138.378-.546.469-.674.722zm-.13.516c.43-.615 1.104-.546 1.371-.782-.202.228-.976.374-1.371.782zm-.992.945c-.034-.653.503-.898.525-1.267.009.438-.546 1.032-.525 1.267zm.266.348c.108-.563.834-.602.963-.933 0 .309-.855.631-.963.933zm-.602-.322c-.383.43-.115 1.082-.275 1.56.189-.348.095-1.224.275-1.56zm.633 1.835c-.575.563-.34 1.195-.575 1.47.288-.383.245-1.121.575-1.47zm-1.199.078c.494.494.194 1.246.451 1.594-.288-.3-.245-1.224-.451-1.594zm.623 0c.065-.575.653-.877.705-1.19.065.313-.568.8-.705 1.19zm.301 1.371c-.099.399.253 1.26.146 1.521.237-.46-.202-1.323-.146-1.521zm-.761.915c.232.714.705.662.855 1.091-.108-.408-.726-.778-.855-1.091zm1.53.331c.309.477.052 1.023.309 1.366-.365-.343-.172-.976-.309-1.366zm-.748 1.306c.374.631 1.143.576 1.452 1.032-.309-.571-1.263-.67-1.452-1.031v-.001zm1.357-.077c.662.417.46.855.962 1.323-.631-.469-.575-.985-.962-1.323zm.31 1.693c.645-.018 1.564.744 2.119.683-.554.108-1.581-.575-2.119-.683z" class="E"/><path d="M8.7 16.461c.043.593 1.71.971 1.895 1.371-.206-.525-1.672-.915-1.895-1.371zm2.428-10.12c.129-.528.773-.623.859-.937-.034.331-.795.701-.859.937zm1.895-1.306c-.095.399-.791.623-.89.924.034-.408.752-.64.89-.924zm-.546.945c.331-.485 1.019-.361 1.255-.645-.172.331-1.019.344-1.255.645z" class="E"/><path d="M17.006 12c0 2.527-2.252 4.58-5.031 4.58S6.942 14.527 6.942 12s2.252-4.58 5.031-4.58 5.033 2.049 5.033 4.58z" stroke="#f7c608" class="C K"/><path d="M10.986 16.58l-.018.056c-.013.038-.052.056-.095.056l-.365-.086.116-.356a2.69 2.69 0 0 0 .365.077c.043.013.065.047.052.086l-.018.047m-.863-.223l.018-.056c.013-.034.052-.056.095-.043l.352.112-.116.356-.356-.108c-.034-.018-.047-.09-.034-.129" class="F"/><path d="M10.918 16.551l-.013.039c-.009.03-.043.043-.077.038l-.3-.073.081-.253.305.065c.034.009.052.038.043.065l-.013.034m-.717-.185l.013-.043c.009-.025.039-.038.073-.03l.297.093-.081.254-.297-.086c-.034-.018-.043-.068-.034-.099" class="E"/><path d="M9.611 16.138l-.034.047c-.025.034-.068.043-.112.03l-.318-.176.219-.314c.116.069.241.129.327.172.034.018.043.061.022.09l-.03.043m-.76-.433l.034-.047c.022-.034.069-.043.103-.021l.305.198-.219.313-.309-.194c-.03-.03-.018-.103.004-.133" class="F"/><path d="M9.55 16.091l-.022.034c-.018.022-.052.025-.086.018l-.266-.151.155-.223a2.57 2.57 0 0 0 .271.142c.03.021.043.052.025.073l-.022.03m-.631-.361l.022-.034c.018-.025.052-.03.081-.013l.254.164-.155.223-.258-.158c-.025-.022-.022-.077-.004-.099" class="E"/><path d="M8.425 15.361l-.047.034c-.03.026-.077.026-.112 0l-.253-.249.305-.245c.08.089.168.171.262.245.03.03.025.073-.009.099l-.039.03m-.597-.61l.047-.038c.034-.025.077-.021.108.009l.228.266-.305.245-.241-.266c-.018-.034.018-.099.052-.124" class="F"/><path d="M8.387 15.296l-.034.03c-.025.018-.06.013-.086-.009l-.21-.21.219-.172.215.207c.025.025.025.056 0 .073l-.03.025m-.494-.511L8 14.703c.025-.022.061-.018.081.009l.194.223-.219.172-.198-.215c-.018-.03.004-.081.025-.099" class="E"/><path d="M7.532 14.308l-.056.025c-.038.013-.081 0-.112-.03l-.163-.305.37-.155c.052.104.111.204.176.3.018.034 0 .074-.038.09l-.047.022m-.387-.739l.06-.025c.038-.018.081 0 .099.034l.138.318-.37.155-.146-.318c-.009-.038.047-.09.086-.108" class="F"/><path d="M7.51 14.239l-.038.018c-.03.013-.061 0-.081-.025l-.138-.257.266-.108c.047.095.103.185.142.25.013.03.004.061-.022.073l-.034.012m-.318-.615l.038-.018c.03-.013.061 0 .077.03l.115.266-.266.108-.12-.262c-.009-.03.025-.073.056-.086" class="E"/><path d="M6.998 13.07l-.065.009c-.038.004-.077-.018-.095-.056-.013-.099-.043-.219-.065-.335l.404-.056.073.336c.009.038-.022.073-.061.077l-.056.009m-.138-.807l.065-.009c.043-.004.077.018.081.056.004.099.013.214.034.34l-.404.056-.043-.34c.004-.038.077-.077.115-.086" class="F"/><path d="M7.003 13.001l-.047.004c-.03.004-.056-.018-.068-.047l-.052-.279.288-.039.06.279c.004.03-.018.056-.047.06l-.038.009m-.112-.674l.047-.004c.03-.004.056.018.061.047.005.095.015.19.03.284l-.288.038-.038-.284c.004-.034.052-.065.081-.068" class="E"/><path d="M6.87 11.747l-.06-.009c-.043-.004-.073-.039-.077-.077l.043-.34.404.052c-.018.113-.029.226-.034.34-.004.039-.038.065-.081.061l-.056-.009m.12-.812l.061.009c.043.009.073.038.065.077l-.073.335-.404-.052.065-.335c.018-.039.095-.056.138-.052" class="F"/><path d="M6.895 11.678l-.047-.004c-.03-.004-.047-.03-.052-.065l.038-.284.288.038a2.79 2.79 0 0 0-.03.284c-.004.03-.03.052-.061.047l-.038-.004m.099-.674l.043.009c.03.004.052.03.047.06l-.06.279-.288-.039.052-.279c.013-.03.069-.047.099-.043" class="E"/><path d="M7.158 10.445l-.061-.025c-.038-.018-.052-.056-.043-.095l.142-.313.374.155a2.41 2.41 0 0 0-.137.318c-.018.034-.061.052-.099.034l-.052-.022m.365-.748l.06.025c.038.013.052.052.034.09l-.172.3-.374-.155.167-.305c.025-.03.108-.03.146-.013" class="F"/><path d="M7.201 10.384l-.043-.018c-.025-.013-.034-.043-.025-.073l.12-.262.266.112-.115.262c-.018.03-.047.043-.077.03l-.034-.013m.304-.623l.043.018c.025.013.034.043.022.073l-.142.254-.266-.113a2.72 2.72 0 0 1 .138-.253c.022-.03.081-.03.108-.018" class="E"/><path d="M7.837 9.268l-.047-.038c-.034-.025-.038-.068-.018-.103l.237-.262.309.241c-.095.095-.176.198-.232.271-.025.03-.073.03-.103.004l-.043-.03m.58-.623l.052.038c.03.022.034.065.004.095l-.257.244-.309-.241.253-.252c.034-.022.115 0 .146.025" class="F"/><path d="M7.897 9.22l-.034-.025c-.025-.018-.025-.052-.004-.081l.198-.214.219.172a2.49 2.49 0 0 0-.194.223c-.022.025-.056.03-.081.009l-.03-.022m.485-.52l.034.03c.025.018.022.047 0 .073a2.81 2.81 0 0 0-.215.208l-.219-.173.207-.21c.03-.022.09-.009.112.009" class="E"/><path d="M8.851 8.309l-.034-.047c-.022-.034-.013-.073.018-.103l.309-.194.219.313-.3.198c-.038.022-.081.013-.108-.018l-.025-.043m.748-.451l.034.052c.025.03.018.073-.022.095l-.327.167-.219-.313.322-.176c.038-.013.108.03.129.065" class="F"/><path d="M8.923 8.283l-.025-.034c-.018-.025-.004-.056.022-.077l.257-.16.155.219-.253.167c-.03.018-.065.013-.081-.013l-.022-.025m.627-.374l.025.034c.013.022.004.052-.025.069l-.271.142-.155-.219.266-.151c.03-.009.081.018.099.043" class="E"/><path d="M10.122 7.656L10.1 7.6c-.009-.038.013-.073.052-.095l.356-.108.112.356a3.4 3.4 0 0 0-.352.115c-.043.009-.081-.009-.095-.047l-.013-.047m.859-.241l.018.056c.013.038-.009.073-.052.086l-.365.078-.112-.356.361-.087c.043 0 .095.056.108.095" class="F"/><path d="M10.199 7.647l-.013-.043c-.009-.025.009-.052.043-.068l.297-.086.081.253-.297.095c-.034.009-.065-.004-.073-.03l-.013-.034m.717-.198l.013.038c.009.025-.013.056-.047.065-.086.013-.189.033-.3.064l-.081-.253.3-.072c.034-.004.077.038.086.065" class="E"/><path d="M11.545 7.35v-.06c0-.038.03-.065.073-.077l.374-.009v.37c-.137 0-.279.009-.374.022-.043 0-.073-.03-.073-.068V7.48m.898-.013v.061c0 .038-.034.069-.077.069-.103-.013-.232-.022-.374-.022v-.371l.374.01c.043.009.077.077.077.115" class="F"/><path d="M11.617 7.364v-.043c0-.03.03-.047.065-.056l.309-.009.004.266-.313.013c-.034 0-.06-.018-.065-.047v-.034m.752-.009v.043c0 .025-.03.047-.065.047l-.309-.013-.004-.266.314.009c.034.009.065.056.065.086" class="E"/><path d="M12.906 7.415l.018-.056c.009-.038.052-.056.095-.056l.361.086-.108.352-.37-.073c-.038-.009-.06-.047-.052-.086l.018-.043m.868.21l-.018.061c-.013.034-.052.056-.095.043l-.352-.112.108-.352.361.099c.039.022.047.095.034.133" class="F"/><path d="M12.976 7.445l.013-.038c.009-.025.039-.038.077-.038l.3.073-.081.253c-.099-.027-.199-.048-.3-.065-.034-.009-.056-.034-.047-.065l.013-.03m.722.176l-.013.043c-.009.025-.043.038-.077.03-.081-.03-.185-.059-.297-.089l.081-.253.296.08c.034.018.043.069.034.099" class="E"/><path d="M14.286 7.85l.034-.047c.021-.034.069-.043.108-.03l.322.172-.214.313c-.107-.062-.217-.118-.331-.167-.034-.018-.043-.061-.021-.09l.03-.043m.765.43l-.034.047c-.022.034-.068.043-.103.022l-.305-.199.214-.313.313.19c.03.03.018.103-.004.137" class="F"/><path d="M14.342 7.897l.026-.034c.018-.025.052-.03.086-.018l.266.146-.155.223-.271-.142c-.03-.018-.039-.047-.026-.068l.022-.03m.636.356l-.022.034c-.018.025-.052.03-.081.013l-.257-.164.155-.223.262.156c.025.025.018.077.004.103" class="E"/><path d="M15.476 8.619l.047-.038c.034-.025.077-.022.117 0l.253.25-.305.245a3.32 3.32 0 0 0-.262-.245c-.03-.025-.025-.068.004-.095l.043-.03m.602.606l-.047.038a.08.08 0 0 1-.108-.009c-.06-.077-.137-.172-.232-.266l.305-.245.241.262c.022.034-.013.103-.047.129" class="F"/><path d="M15.519 8.678l.034-.025c.022-.022.056-.018.086.004l.21.207-.219.176c-.073-.077-.16-.151-.215-.202-.025-.025-.025-.056 0-.077l.025-.022m.503.507l-.034.025c-.025.022-.06.013-.081-.009l-.198-.222.219-.177.202.219c.018.03-.004.077-.03.099" class="E"/><path d="M16.382 9.662l.056-.025c.038-.018.081 0 .108.03l.172.305-.37.155-.176-.3c-.021-.034-.004-.073.034-.09l.047-.022m.391.739l-.056.025c-.038.018-.081 0-.103-.034l-.137-.318.371-.155.145.313c.009.038-.043.095-.081.108" class="F"/><path d="M16.4 9.732l.043-.018c.03-.013.06 0 .081.025l.137.253-.262.112a2.41 2.41 0 0 0-.146-.25c-.013-.03-.004-.06.021-.073l.034-.013m.327.615l-.043.018c-.03.009-.061-.004-.073-.03l-.12-.267.262-.112.129.262c.004.03-.03.073-.061.086" class="E"/><path d="M16.925 10.896l.065-.009c.043-.009.077.018.095.056l.069.335-.404.056a2.44 2.44 0 0 0-.077-.335c-.004-.039.021-.073.065-.077l.052-.009m.146.807l-.061.009c-.043.009-.081-.018-.086-.056l-.038-.34.404-.056.047.34c-.004.038-.073.077-.115.081" class="F"/><path d="M16.925 10.965l.047-.004c.03-.004.056.018.069.047l.056.279-.288.038a2.2 2.2 0 0 0-.065-.275c-.004-.034.013-.061.043-.065l.039-.004m.12.67l-.043.004c-.034.004-.061-.018-.065-.047a2.91 2.91 0 0 0-.03-.284l.288-.039.038.279c-.004.034-.052.065-.081.069" class="E"/><path d="M17.067 12.219l.065.009c.043.004.069.034.073.077l-.038.34-.404-.052a2.07 2.07 0 0 0 .03-.34c.004-.039.043-.065.086-.06l.052.009m-.108.812l-.065-.009c-.043-.004-.068-.039-.065-.077a2.66 2.66 0 0 0 .069-.336l.404.052-.061.335c-.018.039-.095.056-.137.052" class="F"/><path d="M17.045 12.284l.043.009c.034.004.052.03.052.065l-.03.279-.293-.034c.015-.094.025-.189.03-.284.004-.03.03-.052.061-.047l.038.004m-.095.674l-.043-.004c-.03-.004-.052-.034-.047-.065a2.11 2.11 0 0 0 .056-.279l.293.034-.052.279c-.013.034-.068.052-.099.047" class="E"/><path d="M16.792 13.521l.061.026c.038.018.056.056.047.095l-.142.313-.37-.151c.056-.117.103-.236.129-.318.022-.034.061-.052.103-.034l.047.018m-.356.752l-.061-.022c-.038-.018-.056-.056-.038-.09a3.43 3.43 0 0 0 .176-.305l.37.151-.163.309c-.025.03-.108.03-.146.013" class="F"/><path d="M16.748 13.582l.043.018c.03.013.038.043.03.077l-.12.257-.266-.108.116-.262c.013-.03.043-.043.073-.034l.034.018m-.296.623l-.043-.018a.05.05 0 0 1-.022-.073c.043-.068.09-.155.137-.253l.266.108-.133.257c-.022.025-.081.03-.108.018" class="E"/><path d="M16.125 14.707l.047.034c.034.025.038.069.018.103l-.232.266-.309-.241c.081-.085.155-.175.223-.271.03-.03.073-.034.108-.009l.039.034m-.572.627l-.052-.038c-.03-.026-.034-.065-.009-.095l.262-.249.31.241-.254.254c-.034.025-.112 0-.146-.022" class="F"/><path d="M16.064 14.75l.034.03c.026.018.026.047.009.077l-.198.219-.219-.172a3.29 3.29 0 0 0 .189-.223c.021-.026.056-.03.081-.013l.03.025m-.481.52l-.034-.026c-.025-.018-.022-.052 0-.073l.214-.21.219.172-.206.21c-.03.021-.086.009-.112-.009" class="E"/><path d="M15.12 15.67l.034.047c.026.034.013.073-.018.103l-.305.194-.223-.309a3.29 3.29 0 0 0 .301-.202c.039-.022.081-.013.103.022l.03.039m-.744.455l-.038-.047c-.022-.03-.013-.073.021-.095a2.45 2.45 0 0 0 .327-.172l.223.309-.318.18c-.043.013-.112-.025-.133-.06" class="F"/><path d="M15.047 15.695l.025.038c.018.022.009.052-.018.077l-.257.16-.158-.219.253-.167c.03-.018.065-.013.081.009l.022.03m-.623.378l-.025-.034c-.018-.025-.004-.056.022-.073l.271-.142.158.219-.262.151c-.034.013-.086-.018-.103-.038" class="E"/><path d="M13.857 16.335l.018.056c.013.038-.009.073-.047.095l-.352.108-.12-.352.352-.12c.043-.009.081.009.095.047l.013.047m-.855.245l-.018-.056c-.013-.034.009-.073.047-.086l.365-.077.12.352-.365.09c-.043 0-.095-.056-.108-.09" class="F"/><path d="M13.779 16.344l.013.038c.009.03-.009.056-.043.073l-.297.086-.081-.253.293-.095c.034-.009.065.004.077.03l.009.034m-.713.202l-.013-.038c-.009-.026.009-.052.043-.065l.305-.068.081.253-.3.077c-.034.004-.077-.038-.086-.064" class="E"/><path d="M12.438 16.65v.061c0 .038-.03.069-.073.077l-.378.013v-.37c.137 0 .275-.013.374-.022.043 0 .073.03.073.069v.047m-.898.018v-.06c0-.039.03-.065.073-.068l.378.018v.369c-.125.005-.25.005-.374-.003-.043-.009-.073-.077-.077-.117" class="F"/><path d="M12.361 16.641v.043c0 .025-.025.047-.065.056l-.309.009-.004-.266c.115 0 .232-.009.313-.018.034 0 .061.021.061.052l.004.034m-.748.013l-.004-.043c0-.026.03-.047.065-.047l.309.009.004.266c-.108 0-.215 0-.314-.004-.034-.009-.06-.056-.06-.081" class="E"/></g><path d="M12 23c6.075 0 11-4.925 11-11S18.075 1 12 1 1 5.925 1 12s4.925 11 11 11z" stroke="#bebebe"/></svg>