<svg width="22" height="22" viewBox="0 0 22 22" fill="none" xmlns="http://www.w3.org/2000/svg">
<g clip-path="url(#clip0_551_1336)">
<path d="M11 21.3125C16.7063 21.3125 21.3125 16.7063 21.3125 11H0.6875C0.6875 16.7063 5.29375 21.3125 11 21.3125Z" fill="#FFE62E"/>
<path d="M11 0.6875C5.29375 0.6875 0.6875 5.29375 0.6875 11H21.3125C21.3125 5.29375 16.7063 0.6875 11 0.6875Z" fill="#428BC1"/>
<path d="M11 21.5417C16.822 21.5417 21.5417 16.822 21.5417 11C21.5417 5.17804 16.822 0.458374 11 0.458374C5.17801 0.458374 0.458344 5.17804 0.458344 11C0.458344 16.822 5.17801 21.5417 11 21.5417Z" stroke="#BEBEBE"/>
</g>
<defs>
<clipPath id="clip0_551_1336">
<rect width="22" height="22" fill="white"/>
</clipPath>
</defs>
</svg>
