<svg width="16" height="16" viewBox="0 0 16 16" fill="none" xmlns="http://www.w3.org/2000/svg">
<path d="M2.66668 13.3333C2.30001 13.3333 1.98612 13.2027 1.72501 12.9416C1.4639 12.6805 1.33334 12.3666 1.33334 12V3.99996C1.33334 3.63329 1.4639 3.3194 1.72501 3.05829C1.98612 2.79718 2.30001 2.66663 2.66668 2.66663H10.6667C11.0333 2.66663 11.3472 2.79718 11.6083 3.05829C11.8695 3.3194 12 3.63329 12 3.99996V6.99996L14.1 4.89996C14.2111 4.78885 14.3333 4.76107 14.4667 4.81663C14.6 4.87218 14.6667 4.97774 14.6667 5.13329V10.8666C14.6667 11.0222 14.6 11.1277 14.4667 11.1833C14.3333 11.2388 14.2111 11.2111 14.1 11.1L12 8.99996V12C12 12.3666 11.8695 12.6805 11.6083 12.9416C11.3472 13.2027 11.0333 13.3333 10.6667 13.3333H2.66668ZM2.66668 12H10.6667V3.99996H2.66668V12Z" fill="#82B1B0"/>
</svg>
