<svg width="113" height="108" viewBox="0 0 113 108" fill="none" xmlns="http://www.w3.org/2000/svg">
<path d="M109.609 54.7972L107.566 47.7485L99.0739 50.9246L96.0195 55.5166L96.6983 59.0447L99.4133 62.5729L103.84 63.629L108.599 61.157L109.609 54.7972Z" fill="white"/>
<path d="M83.2255 65.4581L80.8867 56.4044L88.8768 53.7793L94.6314 56.3278L96.107 59.5881L95.9078 64.0959L92.9567 67.647L87.7185 68.5577L83.2255 65.4581Z" fill="white"/>
<path d="M18.0586 57.292H23.4738V51.6821H18.0586V57.292Z" fill="#FCB514"/>
<path d="M20.2147 77.7261H14.2461V83.9175H20.2147V77.7261Z" fill="#FCB514"/>
<path d="M48.173 85.8846H38.25V75.5757H48.173V85.8846Z" fill="#FCB514"/>
<path d="M30.0664 93.3081H35.9686V87.1855H30.0664V93.3081Z" fill="#FCB514"/>
<path d="M11.3984 43.3634H17.1014V37.4551H11.3984V43.3634Z" fill="#005D63"/>
<path d="M8.30859 55.0347H14.2477V48.9121H8.30859V55.0347Z" fill="#005D63"/>
<path d="M10.5273 71.0145H19.3806V61.8306H10.5273V71.0145Z" fill="#005D63"/>
<path d="M0 79.0581H8.30732V87.6757H0V79.0581Z" fill="#005D63"/>
<path d="M31.804 64.9067H24.6992V72.2692H31.804V64.9067Z" fill="#005D63"/>
<path d="M14.2461 89.0762H22.3173V97.4412H14.2461V89.0762Z" fill="#005D63"/>
<path d="M31.509 78.5068H26.293V83.9177H31.5016L31.509 78.5068Z" fill="#005D63"/>
<path d="M110.866 63.5219C110.398 65.4314 109.57 67.226 108.431 68.8023C107.291 70.3785 105.862 71.7051 104.226 72.7058C98.604 76.2339 91.4771 75.6906 89.2712 74.7798C87.3854 74.002 85.7257 72.7312 84.4535 71.091C83.4702 69.7556 82.6706 68.2848 82.0779 66.721C81.9598 66.3689 81.8418 66.0169 81.7459 65.6648C82.4694 66.999 83.5212 68.1101 84.7941 68.8846C86.0669 69.659 87.5152 70.0692 88.9908 70.0731C89.9013 70.0751 90.806 69.9226 91.6689 69.6215L91.8312 69.5527C93.1234 69.1021 94.2906 68.3326 95.2324 67.3103L97.608 69.369L100.257 71.6649L100.994 68.1751L101.658 65.1138C102.077 65.1947 102.502 65.2332 102.927 65.2286C103.833 65.2294 104.732 65.0769 105.591 64.777C107.083 64.2648 108.402 63.3177 109.39 62.0488C110.378 60.7799 110.993 59.2428 111.161 57.6213C111.406 59.4298 111.343 61.2688 110.976 63.0551C110.925 63.2387 110.895 63.3765 110.866 63.5219ZM81.2516 57.1008L87.0874 55.0574C87.891 54.7778 88.7411 54.6709 89.5859 54.7433C90.4307 54.8156 91.2524 55.0658 92.0009 55.4783C93.2069 56.1287 94.168 57.1796 94.7307 58.4631C94.8932 58.8243 95.0289 59.1978 95.1365 59.5805C95.3238 60.2357 95.4085 60.9179 95.3873 61.6009C95.3531 62.4907 95.1421 63.3635 94.7676 64.1648C94.4705 64.8299 94.0635 65.436 93.565 65.9556C92.8768 66.6758 92.0353 67.2184 91.1082 67.5399L90.9607 67.5934C90.1587 67.8735 89.3102 67.9819 88.4667 67.912C87.6232 67.8421 86.8021 67.5955 86.0531 67.187C85.3041 66.7785 84.6428 66.2166 84.1091 65.5353C83.5755 64.854 83.1806 64.0676 82.9485 63.2234L81.2516 57.1008ZM83.7748 51.6823C84.4331 51.0303 85.2365 50.5571 86.1135 50.3048C87.4189 49.9506 88.7817 49.8861 90.1127 50.1156C91.4438 50.3451 92.7132 50.8633 93.838 51.6364C94.3437 50.3551 95.1261 49.2113 96.1251 48.2931C97.1241 47.3749 98.3129 46.7069 99.6 46.3404C100.115 46.1931 100.64 46.0907 101.171 46.0342C102.575 45.8782 103.991 46.1635 105.237 46.8531L100.293 48.5828C98.9279 49.0495 97.7053 49.882 96.7492 50.996C95.7932 52.1101 95.1376 53.4662 94.8487 54.9273C93.7423 53.8427 92.3737 53.0887 90.8879 52.7451C89.4021 52.4015 87.8543 52.4812 86.4086 52.9757L81.982 54.5064C82.3827 53.4454 82.9934 52.4833 83.7748 51.6823ZM99.6295 64.5398L98.8917 67.7388L96.4202 65.6036C96.848 64.785 97.1492 63.9017 97.3129 62.9862C97.8397 63.499 98.4303 63.9366 99.0688 64.2872C99.249 64.3865 99.4365 64.471 99.6295 64.5398ZM97.7924 60.2004C97.4609 59.6646 97.212 59.0785 97.0547 58.4631C96.9703 58.1654 96.9111 57.8607 96.8776 57.5524C96.6772 56.0859 96.9796 54.5929 97.732 53.334C98.4844 52.0752 99.639 51.1304 100.994 50.6645L107.088 48.5445L108.859 54.935C109.298 56.516 109.13 58.2119 108.39 59.6672C107.65 61.1224 106.395 62.2241 104.89 62.7413C104.004 63.0565 103.058 63.1483 102.131 63.0091C101.426 62.921 100.743 62.6978 100.116 62.351C99.1776 61.8516 98.3775 61.1112 97.7924 60.2004ZM110.098 49.9833C109.87 49.593 109.626 49.218 109.361 48.8659C108.693 47.8995 107.918 47.0184 107.051 46.2409C106.616 45.8345 106.152 45.461 105.664 45.1235C100.419 40.0494 92.4362 37.7687 92.4362 37.7687C93.4765 41.7714 91.1008 43.4857 91.1008 43.4857C89.0613 41.1133 86.4929 39.2951 83.6198 38.1897C84.0209 39.9531 84.0057 41.7909 83.5756 43.5469C69.1816 30.2227 62.2908 0 62.2908 0C61.0443 3.66181 60.0023 7.39513 59.17 11.1814C58.733 13.0165 58.8176 14.9436 59.4135 16.73C60.3266 19.4902 61.6241 22.0969 63.2647 24.4674C63.036 24.3526 60.3726 22.8373 57.724 18.6509C57.4584 20.3729 57.119 23.3577 56.9272 25.3169C56.7821 26.73 56.9254 28.159 57.3477 29.5109C58.6433 33.6567 60.6174 37.54 63.1835 40.9908C60.554 39.5585 58.281 37.5123 56.5436 35.0136C56.6222 40.6717 57.6559 46.2719 59.598 51.5599C59.9908 52.5726 60.5639 53.4995 61.2875 54.2921C62.923 56.1007 64.7579 57.7036 66.7543 59.0677C67.0642 59.2744 67.3741 59.4886 67.7135 59.6953C63.5008 58.7463 59.4356 56.4197 57.7166 55.4248C34.1522 41.8556 19.655 14.4111 19.655 14.4111C17.4119 20.4516 15.9988 26.7893 15.457 33.238H21.1305V47.4654H27.5049V60.6902H35.886V71.4047H52.235V79.1957C53.076 79.3488 55.7911 80.0223 57.9749 80.5504C57.9218 80.64 57.8773 80.7349 57.8421 80.8335C50.4643 100.671 26.2211 106.204 26.2211 106.204C74.3239 116.352 100.736 80.183 100.736 80.183C92.0895 81.8361 88.253 78.2467 88.253 78.2467C88.253 78.2467 97.5342 79.0886 105.082 74.4201C113.721 68.9404 115.042 57.5677 110.098 49.9833Z" fill="#005D63"/>
<path d="M98.0587 63.6137L97.321 62.9785C97.1556 63.8013 96.9083 64.6041 96.5832 65.374C96.1879 66.0835 95.7284 66.7523 95.2109 67.3715L100.257 71.7185L101.666 65.152C100.913 64.9692 100.174 64.7314 99.4531 64.4403C98.9699 64.1997 98.5039 63.9235 98.0587 63.6137Z" fill="#FCB514"/>
<path d="M89.8104 63.7282C89.451 63.8271 89.0752 63.8443 88.7088 63.7786C88.3424 63.7129 87.994 63.5659 87.6874 63.3476C87.3808 63.1293 87.1233 62.8449 86.9324 62.5138C86.7416 62.1828 86.6219 61.8128 86.5816 61.4294C86.5413 61.0459 86.5813 60.6579 86.6989 60.292C86.8165 59.926 87.0089 59.5908 87.263 59.3091C87.517 59.0274 87.8267 58.8059 88.1709 58.6599C88.5151 58.5138 88.8856 58.4466 89.2571 58.4628C89.0676 58.6287 88.9269 58.8467 88.8513 59.0917C88.7756 59.3366 88.7679 59.5988 88.8292 59.8481C88.8728 60.0177 88.9483 60.1767 89.0514 60.3159C89.1545 60.4552 89.2831 60.5719 89.4298 60.6594C89.5766 60.7469 89.7385 60.8034 89.9064 60.8257C90.0743 60.848 90.2448 60.8357 90.408 60.7894C90.6439 60.7288 90.8575 60.5979 91.0227 60.413C91.1878 60.2281 91.2973 59.9971 91.3376 59.7486C91.4807 59.9621 91.5856 60.2006 91.6475 60.4527C91.7353 60.7929 91.7575 61.1478 91.7126 61.4969C91.6677 61.846 91.5567 62.1825 91.3859 62.4869C91.2152 62.7914 90.9881 63.0578 90.7177 63.2708C90.4473 63.4839 90.139 63.6393 89.8104 63.7282Z" fill="#005D63"/>
<path d="M103.759 59.2589C103.097 59.4406 102.392 59.3419 101.8 58.9845C101.208 58.6271 100.777 58.0404 100.601 57.3533C100.426 56.6662 100.521 55.9351 100.866 55.3208C101.211 54.7065 101.776 54.2594 102.439 54.0777C102.694 54.0123 102.957 53.9839 103.221 53.9935C103.024 54.151 102.876 54.3644 102.795 54.6078C102.714 54.8511 102.703 55.1137 102.763 55.3634C102.806 55.5339 102.881 55.694 102.984 55.8344C103.086 55.9748 103.214 56.0928 103.361 56.1816C103.508 56.2705 103.67 56.3285 103.838 56.3522C104.007 56.376 104.178 56.3651 104.342 56.3201C104.58 56.2577 104.796 56.1269 104.966 55.9428C105.135 55.7587 105.252 55.5287 105.301 55.2793C105.434 55.4969 105.533 55.7344 105.596 55.9834C105.768 56.6703 105.671 57.3996 105.327 58.0129C104.983 58.6262 104.419 59.0739 103.759 59.2589Z" fill="#005D63"/>
</svg>
