<svg width="94" height="30" viewBox="0 0 94 30" fill="none" xmlns="http://www.w3.org/2000/svg">
    <g clip-path="url(#clip0_282_1626)">
        <path
            d="M38.4159 18.888V10.7585H39.9886V18.888H38.4159ZM39.5723 18.888V17.4888H43.7122V18.888H39.5723ZM47.2156 19.0037C46.6297 19.0037 46.1093 18.8803 45.6544 18.6336C45.1996 18.3792 44.8372 18.0323 44.5674 17.5928C44.3053 17.1534 44.1742 16.6523 44.1742 16.0895C44.1742 15.5344 44.3014 15.041 44.5558 14.6093C44.818 14.1699 45.1726 13.823 45.6197 13.5685C46.0669 13.3064 46.5641 13.1754 47.1115 13.1754C47.6512 13.1754 48.1253 13.2987 48.5339 13.5454C48.9502 13.7844 49.274 14.1159 49.5053 14.5399C49.7443 14.9562 49.8638 15.4304 49.8638 15.9623C49.8638 16.0625 49.8561 16.1666 49.8406 16.2745C49.8329 16.3748 49.8137 16.4904 49.7828 16.6215L45.0878 16.633V15.4997L49.0774 15.4882L48.4645 15.9623C48.4491 15.6308 48.3874 15.3533 48.2795 15.1297C48.1793 14.9061 48.0289 14.7365 47.8285 14.6209C47.6357 14.4975 47.3968 14.4358 47.1115 14.4358C46.8108 14.4358 46.5487 14.5052 46.3252 14.644C46.1016 14.7751 45.9281 14.9639 45.8048 15.2106C45.6891 15.4496 45.6313 15.7349 45.6313 16.0664C45.6313 16.4056 45.693 16.7024 45.8163 16.9568C45.9474 17.2035 46.1324 17.3963 46.3714 17.535C46.6104 17.6661 46.8879 17.7316 47.204 17.7316C47.4893 17.7316 47.7475 17.6854 47.9788 17.5928C48.2101 17.4926 48.4105 17.3461 48.5802 17.1534L49.4706 18.0438C49.2008 18.3599 48.8693 18.5989 48.4761 18.7608C48.0906 18.9227 47.6704 19.0037 47.2156 19.0037ZM50.8006 18.888V13.3026H52.3155V18.888H50.8006ZM52.3155 15.8004L51.7258 15.4072C51.7952 14.7211 51.9956 14.1814 52.3271 13.7883C52.6586 13.3874 53.1366 13.1869 53.7611 13.1869C54.0309 13.1869 54.2737 13.2332 54.4896 13.3257C54.7055 13.4105 54.902 13.5531 55.0794 13.7536L54.1311 14.8406C54.0463 14.7481 53.9422 14.6787 53.8189 14.6324C53.7032 14.5862 53.5683 14.5631 53.4141 14.5631C53.0903 14.5631 52.8244 14.6671 52.6162 14.8753C52.4158 15.0757 52.3155 15.3841 52.3155 15.8004ZM59.3585 18.888V15.6848C59.3585 15.3533 59.2544 15.0834 59.0462 14.8753C58.8381 14.6671 58.5682 14.5631 58.2367 14.5631C58.0209 14.5631 57.8281 14.6093 57.6585 14.7018C57.4889 14.7943 57.354 14.9254 57.2538 15.095C57.1613 15.2646 57.115 15.4612 57.115 15.6848L56.5253 15.3841C56.5253 14.9447 56.6178 14.5631 56.8028 14.2393C56.9955 13.9078 57.2576 13.6495 57.5892 13.4645C57.9284 13.2794 58.31 13.1869 58.734 13.1869C59.1426 13.1869 59.5088 13.291 59.8326 13.4992C60.1564 13.6996 60.4108 13.9656 60.5958 14.2971C60.7808 14.6209 60.8734 14.9717 60.8734 15.3494V18.888H59.3585ZM55.6001 18.888V13.3026H57.115V18.888H55.6001ZM62.0936 16.6215V15.2453H66.0947V16.6215H62.0936ZM67.5971 18.888V10.7585H69.1698V18.888H67.5971ZM68.7535 15.5576V14.1583H72.8472V15.5576H68.7535ZM68.7535 12.1462V10.7585H73.0438V12.1462H68.7535ZM76.276 19.0037C75.7671 19.0037 75.3084 18.8765 74.8998 18.622C74.4912 18.3676 74.1713 18.0207 73.94 17.5813C73.7087 17.1418 73.5931 16.6484 73.5931 16.1011C73.5931 15.546 73.7087 15.0487 73.94 14.6093C74.1713 14.1699 74.4912 13.823 74.8998 13.5685C75.3084 13.3141 75.7671 13.1869 76.276 13.1869C76.6768 13.1869 77.0353 13.2679 77.3514 13.4298C77.6675 13.5917 77.9181 13.8191 78.1031 14.1121C78.2958 14.3973 78.3999 14.7211 78.4153 15.0834V17.0956C78.3999 17.4656 78.2958 17.7933 78.1031 18.0785C77.9181 18.3638 77.6675 18.5912 77.3514 18.7608C77.0353 18.9227 76.6768 19.0037 76.276 19.0037ZM76.5535 17.6044C76.9775 17.6044 77.3206 17.4656 77.5827 17.1881C77.8448 16.9029 77.9759 16.5367 77.9759 16.0895C77.9759 15.7966 77.9142 15.5383 77.7908 15.3147C77.6752 15.0834 77.5095 14.9061 77.2936 14.7828C77.0854 14.6517 76.8387 14.5862 76.5535 14.5862C76.276 14.5862 76.0293 14.6517 75.8134 14.7828C75.6052 14.9061 75.4395 15.0834 75.3161 15.3147C75.2005 15.5383 75.1427 15.7966 75.1427 16.0895C75.1427 16.3902 75.2005 16.6562 75.3161 16.8874C75.4395 17.111 75.6052 17.2883 75.8134 17.4194C76.0293 17.5427 76.276 17.6044 76.5535 17.6044ZM77.8949 18.888V17.3847L78.1378 16.0201L77.8949 14.6787V13.3026H79.3983V18.888H77.8949ZM80.7385 18.888V13.3026H82.265V18.888H80.7385ZM81.5018 12.4006C81.2551 12.4006 81.0508 12.3196 80.8889 12.1577C80.727 11.9881 80.646 11.78 80.646 11.5333C80.646 11.2943 80.727 11.09 80.8889 10.9204C81.0508 10.7508 81.2551 10.666 81.5018 10.666C81.7562 10.666 81.9605 10.7508 82.1147 10.9204C82.2766 11.09 82.3575 11.2943 82.3575 11.5333C82.3575 11.78 82.2766 11.9881 82.1147 12.1577C81.9605 12.3196 81.7562 12.4006 81.5018 12.4006ZM83.607 18.888V13.3026H85.1219V18.888H83.607ZM85.1219 15.8004L84.5321 15.4072C84.6015 14.7211 84.802 14.1814 85.1335 13.7883C85.465 13.3874 85.943 13.1869 86.5674 13.1869C86.8372 13.1869 87.0801 13.2332 87.296 13.3257C87.5118 13.4105 87.7084 13.5531 87.8857 13.7536L86.9375 14.8406C86.8527 14.7481 86.7486 14.6787 86.6252 14.6324C86.5096 14.5862 86.3747 14.5631 86.2205 14.5631C85.8967 14.5631 85.6307 14.6671 85.4226 14.8753C85.2221 15.0757 85.1219 15.3841 85.1219 15.8004Z"
            fill="#00494F"
        />
        <path
            d="M31.223 15.0333L30.6448 13.106L28.2356 13.9733L27.3683 15.226L27.561 16.1897L28.332 17.1534L29.5847 17.4425L30.9339 16.7679L31.223 15.0333Z"
            fill="white"
        />
        <path
            d="M23.7409 17.9482L23.0742 15.4715L25.3398 14.755L26.9709 15.4503L27.3822 16.3429L27.3259 17.5757L26.4831 18.5466L24.9954 18.7951L23.7409 17.9482Z"
            fill="white"
        />
        <path d="M5.25854 15.7143H6.79264V14.1804H5.25854V15.7143Z" fill="#FFCC49" />
        <path d="M5.86813 21.3028H4.17651V22.9944H5.86813V21.3028Z" fill="#FFCC49" />
        <path d="M13.7988 23.5289H10.984V20.714H13.7988V23.5289Z" fill="#FFCC49" />
        <path d="M8.66235 25.5628H10.3471V23.8779H8.66235V25.5628Z" fill="#FFCC49" />
        <path d="M3.36841 11.9066H4.98468V10.2904H3.36841V11.9066Z" fill="#00494F" />
        <path d="M2.49182 15.098H4.17655V13.4132H2.49182V15.098Z" fill="#00494F" />
        <path d="M3.12183 19.4674H5.64214V16.9471H3.12183V19.4674Z" fill="#00494F" />
        <path d="M0.135742 21.6659H2.4917V24.0217H0.135742V21.6659Z" fill="#00494F" />
        <path d="M9.15545 17.7963H7.14197V19.8098H9.15545V17.7963Z" fill="#00494F" />
        <path d="M4.17651 24.4055H6.46397V26.6928H4.17651V24.4055Z" fill="#00494F" />
        <path d="M9.07327 21.5152H7.59399V22.9944H9.07327V21.5152Z" fill="#00494F" />
        <path
            d="M31.5784 17.4189V17.4236C31.5734 17.4281 31.5734 17.4281 31.5692 17.4328C31.3015 18.4888 30.6419 19.3789 29.6921 19.9505C28.0967 20.9144 26.0768 20.767 25.4496 20.5179C24.8824 20.2965 24.4351 19.9322 24.0847 19.508C24.0801 19.5034 24.0801 19.5034 24.0754 19.5034C23.7969 19.1364 23.5678 18.7365 23.4022 18.3089C23.3681 18.2139 23.3359 18.1159 23.3072 18.0198C23.5285 18.4115 23.8521 18.7346 24.2597 18.9499C24.6103 19.1344 24.9838 19.2267 25.3621 19.2267C25.6202 19.2267 25.8738 19.1851 26.1229 19.1022L26.1689 19.0836C26.5471 18.9546 26.8745 18.7425 27.1328 18.4704L27.8058 19.033L28.5577 19.6601L28.7745 18.7056L28.9636 17.8617C29.0788 17.8848 29.2031 17.894 29.3232 17.894C29.5767 17.894 29.8305 17.8525 30.0795 17.7694C30.9696 17.4728 31.5618 16.6934 31.6596 15.8138C31.7259 16.3047 31.7135 16.8064 31.6056 17.2991C31.5965 17.3405 31.5875 17.3775 31.5784 17.4189ZM23.181 15.662L24.8362 15.1041C25.2974 14.9518 25.7954 14.9888 26.2291 15.2192C26.5702 15.3991 26.8377 15.6759 27.0037 16.0356C27.0499 16.1325 27.0867 16.2337 27.1191 16.3399C27.1744 16.5245 27.1927 16.7135 27.1883 16.8933C27.1789 17.1423 27.1191 17.3775 27.0129 17.5943C26.9298 17.7741 26.8146 17.9401 26.6716 18.083C26.4825 18.2767 26.2474 18.4243 25.9752 18.5166L25.9338 18.5304C25.4679 18.6872 24.9745 18.6503 24.5413 18.4196C24.1076 18.1936 23.7942 17.8064 23.6605 17.3361L23.181 15.662ZM23.8956 14.1819C24.0801 14.0065 24.2967 13.8775 24.5596 13.8036C25.7308 13.4809 26.6623 14.1035 26.75 14.168C26.7546 14.168 26.7546 14.1724 26.7591 14.1724C26.7591 14.1724 27.1513 13.052 28.3915 12.7245C28.5438 12.6831 28.6961 12.6554 28.8391 12.6415C29.2571 12.6037 29.6426 12.6782 29.9878 12.8647L28.5854 13.338C27.7738 13.6054 27.202 14.2833 27.0407 15.0718C26.8836 14.9196 26.704 14.795 26.5056 14.6891C25.9247 14.3801 25.2652 14.3294 24.6427 14.5368L23.3814 14.9599C23.5065 14.6603 23.6717 14.3899 23.8956 14.1819ZM28.3915 17.6958L28.189 18.5719L27.4878 17.9862C27.6077 17.7647 27.6956 17.5251 27.7414 17.2714C27.8891 17.4098 28.055 17.5296 28.2395 17.6266C28.2902 17.6541 28.3409 17.6772 28.3915 17.6958ZM27.8706 16.5105C27.7785 16.3677 27.7044 16.2062 27.6586 16.0356C27.6354 15.9525 27.6169 15.8696 27.6077 15.7865C27.4924 14.9704 27.9722 14.1724 28.7745 13.905L30.5035 13.3241L31.0064 15.0718C31.2643 15.971 30.7712 16.9072 29.8812 17.2069C29.6229 17.2944 29.3602 17.3175 29.0973 17.2805C28.899 17.2577 28.7053 17.193 28.5255 17.1007C28.5255 17.0962 28.5209 17.0962 28.5209 17.0962C28.2534 16.9531 28.0321 16.7549 27.8706 16.5105ZM31.3614 13.716C31.297 13.6099 31.2278 13.5084 31.154 13.4117C30.9601 13.1442 30.7437 12.8997 30.4991 12.6923C30.3746 12.5817 30.2457 12.4802 30.1073 12.388C28.6178 10.9998 26.3536 10.3772 26.3536 10.3772C26.6486 11.4701 25.9752 11.9407 25.9752 11.9407C25.0669 10.8892 23.8542 10.4926 23.8542 10.4926C23.9787 11.0738 23.9463 11.5532 23.8403 11.9499C19.7591 8.30675 17.804 0.0431519 17.804 0.0431519C17.804 0.0431519 17.3473 1.26527 16.9184 3.10062C16.7986 3.60318 16.8172 4.12882 16.9876 4.61773C17.2089 5.26339 17.5549 6.00111 18.0806 6.73435C18.016 6.7021 17.2597 6.28709 16.5081 5.14334C16.4342 5.61367 16.3375 6.43 16.2821 6.96503C16.2407 7.35225 16.2822 7.73969 16.402 8.11325C16.6371 8.85096 17.1213 10.0269 18.0574 11.2442C17.9654 11.2027 17.0107 10.7324 16.1807 9.61176C16.2315 11.1613 16.4759 12.7245 17.0476 14.1357C17.1583 14.417 17.3242 14.6614 17.5271 14.8826C17.8501 15.2239 18.3896 15.7451 19.0767 16.1876C19.1643 16.2431 19.2518 16.303 19.3488 16.3583C18.1544 16.1001 17.0015 15.4638 16.5128 15.1917C9.82149 11.4932 5.69891 3.99065 5.69891 3.99065C5.69891 3.99065 4.75819 6.23177 4.50916 9.13698H6.13709V13.0289H7.94473V16.6443H10.3103V19.5633H14.9494V21.6938C15.1892 21.7353 15.9593 21.9195 16.5773 22.0627C16.5634 22.0903 16.5496 22.1134 16.5404 22.1412C14.4421 27.5639 7.57117 29.0767 7.57117 29.0767C21.2162 31.8527 28.7007 21.9565 28.7007 21.9565C26.2474 22.4085 25.1592 21.4263 25.1592 21.4263C25.1592 21.4263 27.7923 21.6568 29.9321 20.3749C32.3898 18.8993 32.7632 15.7865 31.3614 13.716Z"
            fill="#00494F"
        />
        <path
            d="M27.9465 17.4425L27.7403 17.269C27.7403 17.269 27.6478 17.6855 27.5225 17.9243C27.3903 18.1763 27.1332 18.4698 27.1332 18.4698L28.5633 19.659L28.9642 17.8646C28.9642 17.8646 28.5453 17.7653 28.332 17.6699C28.1718 17.5983 27.9465 17.4425 27.9465 17.4425Z"
            fill="#FFCC49"
        />
        <path
            d="M25.6065 17.4743C25.2145 17.5757 24.8179 17.3453 24.7119 16.9531C24.6103 16.5612 24.8454 16.1601 25.2377 16.0586C25.3068 16.0402 25.3805 16.0309 25.4497 16.0356C25.3437 16.1231 25.293 16.2707 25.33 16.4136C25.3805 16.6073 25.579 16.7227 25.7771 16.6718C25.9155 16.6351 26.0171 16.5244 26.04 16.3861C26.0814 16.4461 26.109 16.5106 26.1277 16.5798C26.2335 16.9717 25.9984 17.3728 25.6065 17.4743Z"
            fill="#00494F"
        />
        <path
            d="M29.5723 16.2524C29.1802 16.3538 28.7792 16.1187 28.6776 15.7312C28.5718 15.3393 28.8069 14.938 29.1987 14.8367C29.2728 14.8181 29.3464 14.8089 29.42 14.8137C29.3094 14.8965 29.2541 15.0441 29.2911 15.187C29.3417 15.3854 29.5445 15.5008 29.7382 15.4499C29.8768 15.413 29.9828 15.3023 30.0105 15.1639C30.0474 15.2239 30.0751 15.2885 30.0932 15.3577C30.1948 15.7496 29.9595 16.1509 29.5723 16.2524Z"
            fill="#00494F"
        />
    </g>
    <defs>
        <clipPath id="clip0_282_1626">
            <rect width="93.0909" height="29.6812" fill="white" />
        </clipPath>
    </defs>
</svg>
