<svg width="235" height="144" viewBox="0 0 235 144" fill="none" xmlns="http://www.w3.org/2000/svg">
<path d="M101.492 94.7384L99.5993 88.2119L91.7365 91.1527L88.9084 95.4045L89.5369 98.6713L92.0508 101.938L96.1495 102.916L100.556 100.627L101.492 94.7384Z" fill="white"/>
<path d="M77.0631 104.61L74.8976 96.2265L82.2958 93.7959L87.6241 96.1556L88.9904 99.1744L88.8059 103.348L86.0734 106.636L81.2233 107.48L77.0631 104.61Z" fill="white"/>
<path d="M16.7228 97.0488H21.737V91.8545H16.7228V97.0488Z" fill="#FCB514"/>
<path d="M18.7175 115.969H13.1911V121.702H18.7175V115.969Z" fill="#FCB514"/>
<path d="M44.6079 123.523H35.4199V113.978H44.6079V123.523Z" fill="#FCB514"/>
<path d="M27.8372 130.397H33.3022V124.728H27.8372V130.397Z" fill="#FCB514"/>
<path d="M10.5542 84.1513H15.8348V78.6807H10.5542V84.1513Z" fill="#005D63"/>
<path d="M7.69196 94.9581H13.1911V89.2891H7.69196V94.9581Z" fill="#005D63"/>
<path d="M9.74815 109.754H17.9456V101.25H9.74815V109.754Z" fill="#005D63"/>
<path d="M0 117.202H7.69196V125.181H0V117.202Z" fill="#005D63"/>
<path d="M29.4494 104.1H22.8709V110.917H29.4494V104.1Z" fill="#005D63"/>
<path d="M13.1911 126.478H20.6644V134.223H13.1911V126.478Z" fill="#005D63"/>
<path d="M29.1761 116.691H24.3465V121.701H29.1693L29.1761 116.691Z" fill="#005D63"/>
<path d="M102.653 102.817C102.22 104.585 101.453 106.246 100.398 107.706C99.3429 109.165 98.0197 110.394 96.5048 111.32C91.2994 114.587 84.7004 114.084 82.6579 113.241C80.9117 112.52 79.375 111.344 78.1971 109.825C77.2865 108.589 76.5462 107.227 75.9974 105.779C75.8881 105.453 75.7788 105.127 75.69 104.801C76.3599 106.036 77.3338 107.065 78.5124 107.782C79.691 108.499 81.0319 108.879 82.3983 108.882C83.2413 108.884 84.0789 108.743 84.878 108.464L85.0283 108.401C86.2247 107.983 87.3055 107.271 88.1775 106.324L90.3771 108.231L92.8296 110.356L93.5127 107.125L94.1275 104.291C94.5149 104.365 94.9084 104.401 95.3025 104.397C96.1409 104.398 96.9739 104.256 97.7685 103.979C99.1506 103.504 100.372 102.627 101.286 101.453C102.201 100.278 102.77 98.8545 102.926 97.353C103.153 99.0276 103.095 100.73 102.755 102.384C102.708 102.554 102.68 102.682 102.653 102.817ZM75.2323 96.8711L80.6358 94.9791C81.3799 94.7202 82.1671 94.6212 82.9493 94.6882C83.7315 94.7552 84.4923 94.9868 85.1854 95.3688C86.3021 95.971 87.192 96.9441 87.713 98.1325C87.8634 98.4669 87.9891 98.8128 88.0887 99.1671C88.2621 99.7738 88.3406 100.405 88.3209 101.038C88.2893 101.862 88.0939 102.67 87.7471 103.412C87.472 104.028 87.0952 104.589 86.6336 105.07C85.9964 105.737 85.2173 106.239 84.3588 106.537L84.2222 106.587C83.4796 106.846 82.694 106.946 81.913 106.881C81.1319 106.817 80.3717 106.588 79.6782 106.21C78.9846 105.832 78.3723 105.312 77.8782 104.681C77.3841 104.05 77.0185 103.322 76.8035 102.54L75.2323 96.8711ZM77.5686 91.854C78.1781 91.2503 78.922 90.8122 79.7341 90.5785C80.9428 90.2505 82.2046 90.1909 83.4371 90.4033C84.6695 90.6158 85.8449 91.0956 86.8864 91.8115C87.3546 90.6251 88.0791 89.566 89.0041 88.7159C89.9291 87.8657 91.0298 87.2471 92.2216 86.9078C92.6981 86.7714 93.1848 86.6766 93.6766 86.6243C94.9762 86.4798 96.2876 86.744 97.4406 87.3825L92.8637 88.9841C91.5993 89.4162 90.4672 90.187 89.582 91.2186C88.6967 92.2501 88.0897 93.5057 87.8223 94.8586C86.7978 93.8543 85.5306 93.1562 84.1548 92.838C82.7791 92.5199 81.346 92.5937 80.0073 93.0516L75.9086 94.4689C76.2796 93.4865 76.8451 92.5957 77.5686 91.854ZM92.2489 103.759L91.5658 106.721L89.2773 104.744C89.6735 103.986 89.9524 103.168 90.1039 102.321C90.5917 102.795 91.1385 103.201 91.7297 103.525C91.8966 103.617 92.0702 103.695 92.2489 103.759ZM90.5479 99.7411C90.241 99.245 90.0105 98.7023 89.8648 98.1325C89.7867 97.8569 89.7318 97.5747 89.7008 97.2892C89.5153 95.9314 89.7953 94.549 90.4919 93.3834C91.1886 92.2178 92.2577 91.3429 93.5127 90.9115L99.1553 88.9486L100.795 94.8657C101.201 96.3297 101.045 97.8999 100.36 99.2474C99.675 100.595 98.5137 101.615 97.1196 102.094C96.299 102.386 95.4232 102.471 94.5647 102.342C93.912 102.26 93.2796 102.054 92.6998 101.732C91.8304 101.27 91.0897 100.584 90.5479 99.7411ZM101.942 90.2808C101.731 89.9194 101.505 89.5722 101.259 89.2462C100.641 88.3514 99.9237 87.5356 99.1211 86.8156C98.7175 86.4393 98.2883 86.0936 97.8368 85.781C92.9798 81.0828 85.5884 78.9711 85.5884 78.9711C86.5516 82.6772 84.352 84.2645 84.352 84.2645C82.4635 82.0679 80.0854 80.3843 77.4251 79.3608C77.7965 80.9936 77.7824 82.6953 77.3841 84.3212C64.0564 71.9839 57.6761 44 57.6761 44C56.5218 47.3906 55.557 50.8473 54.7864 54.3531C54.3818 56.0523 54.4601 57.8367 55.0119 59.4907C55.8573 62.0464 57.0587 64.4601 58.5778 66.655C58.366 66.5487 55.8999 65.1456 53.4475 61.2694C53.2016 62.8638 52.8874 65.6275 52.7097 67.4416C52.5754 68.75 52.7081 70.0732 53.0991 71.3249C54.2987 75.1636 56.1266 78.7593 58.5026 81.9544C56.0679 80.6282 53.9632 78.7336 52.3545 76.42C52.4273 81.659 53.3845 86.8443 55.1827 91.7406C55.5464 92.6783 56.0771 93.5365 56.747 94.2705C58.2614 95.9451 59.9604 97.4293 61.8089 98.6923C62.0959 98.8837 62.3828 99.0821 62.697 99.2734C58.7964 98.3947 55.0324 96.2405 53.4407 95.3192C31.6217 82.7552 18.1984 57.3436 18.1984 57.3436C16.1215 62.9367 14.813 68.8049 14.3114 74.7759H19.5646V87.9494H25.4668V100.195H33.2271V110.116H48.3651V117.329C49.1439 117.471 51.6577 118.095 53.6798 118.584C53.6306 118.667 53.5894 118.754 53.5568 118.846C46.7256 137.214 24.2782 142.337 24.2782 142.337C68.8178 151.734 93.2736 118.244 93.2736 118.244C85.2674 119.774 81.7151 116.451 81.7151 116.451C81.7151 116.451 90.3088 117.23 97.2972 112.908C105.297 107.834 106.519 97.3034 101.942 90.2808Z" fill="#005D63"/>
<path d="M90.7938 102.902L90.1107 102.313C89.9575 103.075 89.7286 103.819 89.4276 104.531C89.0616 105.188 88.6361 105.808 88.157 106.381L92.8295 110.406L94.1343 104.326C93.437 104.157 92.7522 103.936 92.0849 103.667C91.6375 103.444 91.206 103.188 90.7938 102.902Z" fill="#FCB514"/>
<path d="M83.1565 103.007C82.8237 103.099 82.4758 103.115 82.1365 103.054C81.7972 102.993 81.4746 102.857 81.1907 102.655C80.9069 102.453 80.6684 102.19 80.4917 101.883C80.315 101.576 80.2042 101.234 80.1669 100.879C80.1296 100.524 80.1666 100.165 80.2755 99.8257C80.3844 99.4869 80.5625 99.1765 80.7978 98.9156C81.033 98.6548 81.3198 98.4498 81.6384 98.3146C81.9571 98.1793 82.3002 98.1171 82.6442 98.1321C82.4687 98.2857 82.3385 98.4875 82.2684 98.7143C82.1983 98.9412 82.1913 99.1839 82.248 99.4147C82.2884 99.5718 82.3583 99.719 82.4537 99.8479C82.5492 99.9769 82.6683 100.085 82.8041 100.166C82.94 100.247 83.09 100.299 83.2454 100.32C83.4008 100.341 83.5587 100.329 83.7099 100.286C83.9282 100.23 84.1261 100.109 84.279 99.9378C84.4319 99.7666 84.5333 99.5528 84.5706 99.3226C84.7031 99.5203 84.8002 99.7411 84.8575 99.9745C84.9389 100.29 84.9593 100.618 84.9178 100.941C84.8762 101.265 84.7734 101.576 84.6153 101.858C84.4572 102.14 84.247 102.387 83.9966 102.584C83.7462 102.781 83.4607 102.925 83.1565 103.007Z" fill="#005D63"/>
<path d="M96.0743 98.8693C95.4611 99.0375 94.8085 98.9461 94.2602 98.6152C93.7119 98.2843 93.3127 97.741 93.1506 97.1048C92.9884 96.4686 93.0765 95.7916 93.3955 95.2229C93.7145 94.6541 94.2383 94.24 94.8516 94.0718C95.0883 94.0112 95.332 93.985 95.5757 93.9939C95.3938 94.1397 95.2569 94.3373 95.1816 94.5626C95.1064 94.7879 95.0962 95.0311 95.1521 95.2623C95.1918 95.4202 95.2612 95.5683 95.3562 95.6983C95.4512 95.8284 95.5701 95.9376 95.7059 96.0199C95.8417 96.1022 95.9918 96.1559 96.1476 96.1779C96.3035 96.1999 96.4619 96.1898 96.614 96.1481C96.8344 96.0903 97.0346 95.9692 97.1917 95.7988C97.3488 95.6283 97.4563 95.4154 97.5021 95.1844C97.6247 95.3859 97.7169 95.6058 97.7753 95.8363C97.934 96.4724 97.8443 97.1476 97.5258 97.7155C97.2073 98.2834 96.6858 98.698 96.0743 98.8693Z" fill="#005D63"/>
<path fill-rule="evenodd" clip-rule="evenodd" d="M101.307 3.00897C96.9433 2.3178 92.8454 5.29512 92.1542 9.65901L84.489 58.0557C83.7978 62.4196 86.7751 66.5175 91.139 67.2087L109.616 70.1351L107.356 83.8237L120.036 71.7856L216.575 87.0759C220.939 87.7671 225.037 84.7897 225.728 80.4259L233.394 32.0291C234.085 27.6653 231.108 23.5673 226.744 22.8762L101.307 3.00897Z" fill="white"/>
<path d="M109.02 32.3144L106.793 17.582L109.459 18.022L111.044 29.3383L110.149 29.1905L115.227 18.9743L117.236 19.3059L118.762 30.6124L117.847 30.4613L123.005 20.2582L125.67 20.6982L118.807 33.93L116.798 33.5984L115.249 22.3085L116.124 22.453L111.049 32.6494L109.02 32.3144ZM124.838 34.9256L126.424 25.318L129.049 25.7514L127.463 35.3591L124.838 34.9256ZM127.993 23.9832C127.568 23.9131 127.24 23.7159 127.007 23.3914C126.777 23.0537 126.697 22.6727 126.767 22.2483C126.835 21.8372 127.032 21.5088 127.359 21.263C127.685 21.0172 128.061 20.9294 128.485 20.9994C128.923 21.0717 129.25 21.2756 129.467 21.6111C129.697 21.9488 129.779 22.3232 129.711 22.7343C129.641 23.1587 129.442 23.4937 129.116 23.7395C128.805 23.9742 128.43 24.0554 127.993 23.9832ZM129.672 35.7237L132.046 21.3421L134.652 21.7723L132.278 36.1539L129.672 35.7237ZM134.487 36.5186L136.861 22.137L139.467 22.5672L137.093 36.9488L134.487 36.5186ZM145.429 38.3249L142.527 32.7579L146.995 28.714L149.999 29.2098L144.796 33.7454L145.105 32.4887L148.612 38.8503L145.429 38.3249ZM139.302 37.3135L141.677 22.9319L144.282 23.3621L141.908 37.7437L139.302 37.3135ZM153.748 39.9025C152.78 39.7427 151.941 39.3794 151.231 38.8127C150.536 38.2348 150.019 37.5297 149.679 36.6971C149.356 35.8536 149.271 34.961 149.427 34.0195C149.582 33.0779 149.947 32.2731 150.52 31.6049C151.096 30.9235 151.811 30.4285 152.666 30.12C153.522 29.7983 154.428 29.7163 155.383 29.8739C156.364 30.0359 157.202 30.4058 157.897 30.9837C158.607 31.5504 159.125 32.249 159.451 33.0793C159.78 33.8964 159.866 34.7756 159.711 35.7172C159.555 36.6587 159.189 37.4768 158.611 38.1715C158.035 38.853 157.319 39.3546 156.462 39.6763C155.621 39.9869 154.716 40.0624 153.748 39.9025ZM154.129 37.4725C154.619 37.5535 155.068 37.5185 155.474 37.3677C155.896 37.2057 156.238 36.9489 156.5 36.5971C156.778 36.2343 156.959 35.801 157.042 35.297C157.125 34.7931 157.092 34.3314 156.944 33.9118C156.795 33.4922 156.553 33.1456 156.216 32.8722C155.882 32.5854 155.47 32.4016 154.979 32.3206C154.502 32.2418 154.059 32.2844 153.65 32.4486C153.244 32.5994 152.903 32.8497 152.627 33.1992C152.352 33.5487 152.172 33.9755 152.089 34.4794C152.006 34.9833 152.037 35.4517 152.184 35.8846C152.333 36.3042 152.574 36.6573 152.908 36.9441C153.244 37.2175 153.651 37.3937 154.129 37.4725ZM160.491 40.8114L162.077 31.2037L164.683 31.6339L163.097 41.2415L160.491 40.8114ZM166.757 41.8457L167.693 36.1766C167.785 35.6197 167.677 35.1591 167.369 34.795C167.077 34.4198 166.672 34.1895 166.155 34.1042C165.81 34.0473 165.486 34.0687 165.184 34.1686C164.883 34.2553 164.632 34.4181 164.429 34.657C164.226 34.896 164.094 35.2011 164.033 35.5724L163.1 34.9077C163.223 34.165 163.488 33.5481 163.896 33.057C164.317 32.568 164.831 32.2236 165.436 32.0238C166.043 31.8108 166.698 31.7622 167.401 31.8783C168.064 31.9877 168.642 32.2398 169.136 32.6346C169.631 33.0161 169.993 33.505 170.222 34.1012C170.452 34.6842 170.505 35.3536 170.381 36.1095L169.363 42.2759L166.757 41.8457ZM173.023 42.8801L173.958 37.211C174.05 36.654 173.943 36.1935 173.635 35.8294C173.343 35.4542 172.938 35.2239 172.421 35.1386C172.089 35.0838 171.765 35.1053 171.45 35.203C171.149 35.2897 170.898 35.4525 170.695 35.6914C170.492 35.9304 170.36 36.2355 170.298 36.6068L168.866 36.0025C169.046 35.2421 169.361 34.613 169.811 34.1151C170.263 33.604 170.806 33.2441 171.44 33.0354C172.076 32.8135 172.752 32.7616 173.468 32.8798C174.184 32.998 174.802 33.2567 175.322 33.6558C175.844 34.0417 176.225 34.5405 176.464 35.1522C176.704 35.7639 176.76 36.4543 176.633 37.2235L175.628 43.3103L173.023 42.8801ZM177.641 43.6426L179.227 34.0349L181.833 34.4651L180.247 44.0727L177.641 43.6426ZM183.907 44.6769L184.843 39.0078C184.935 38.4509 184.827 37.9903 184.519 37.6262C184.227 37.251 183.822 37.0208 183.305 36.9354C182.96 36.8785 182.637 36.8999 182.334 36.9998C182.034 37.0865 181.782 37.2493 181.579 37.4882C181.376 37.7272 181.244 38.0323 181.183 38.4036L180.25 37.7389C180.373 36.9962 180.638 36.3793 181.046 35.8882C181.468 35.3992 181.981 35.0548 182.586 34.855C183.193 34.642 183.848 34.5934 184.551 34.7095C185.214 34.8189 185.792 35.071 186.286 35.4658C186.781 35.8473 187.143 36.3362 187.372 36.9324C187.603 37.5154 187.656 38.1848 187.531 38.9407L186.513 45.1071L183.907 44.6769ZM190.173 45.7113L191.109 40.0422C191.201 39.4852 191.093 39.0247 190.785 38.6606C190.493 38.2854 190.088 38.0551 189.571 37.9698C189.239 37.915 188.916 37.9365 188.6 38.0342C188.3 38.1209 188.048 38.2837 187.845 38.5226C187.642 38.7616 187.51 39.0667 187.449 39.438L186.016 38.8337C186.196 38.0733 186.511 37.4442 186.961 36.9463C187.413 36.4352 187.956 36.0753 188.59 35.8666C189.226 35.6447 189.902 35.5928 190.618 35.711C191.334 35.8292 191.952 36.0879 192.472 36.487C192.994 36.8729 193.375 37.3717 193.615 37.9834C193.854 38.5951 193.91 39.2855 193.784 40.0547L192.779 46.1415L190.173 45.7113ZM199.354 47.4312C198.346 47.2648 197.486 46.9049 196.773 46.3514C196.063 45.7846 195.538 45.085 195.199 44.2525C194.873 43.4222 194.79 42.523 194.95 41.5549C195.107 40.6001 195.466 39.7875 196.026 39.1171C196.602 38.4357 197.311 37.9397 198.152 37.629C198.995 37.3051 199.888 37.2209 200.83 37.3763C201.758 37.5295 202.538 37.8763 203.171 38.4167C203.819 38.946 204.282 39.6082 204.56 40.4032C204.853 41.1872 204.923 42.0367 204.772 42.9517C204.744 43.1241 204.701 43.3009 204.644 43.4822C204.602 43.6524 204.536 43.8459 204.446 44.0625L196.367 42.7492L196.689 40.7999L203.554 41.9129L202.366 42.5544C202.433 41.9798 202.406 41.4849 202.284 41.0696C202.175 40.6566 201.964 40.3222 201.652 40.0663C201.356 39.7994 200.962 39.6255 200.472 39.5445C199.954 39.4591 199.484 39.504 199.06 39.6792C198.638 39.8412 198.286 40.1168 198.004 40.5062C197.737 40.8844 197.557 41.3587 197.463 41.9289C197.366 42.5124 197.388 43.0404 197.528 43.5131C197.683 43.9746 197.947 44.3587 198.319 44.6653C198.692 44.9586 199.151 45.1501 199.695 45.2399C200.186 45.3209 200.643 45.3146 201.067 45.2212C201.493 45.1144 201.88 44.9194 202.226 44.636L203.505 46.4205C202.951 46.8876 202.313 47.2046 201.591 47.3714C200.882 47.5404 200.136 47.5604 199.354 47.4312ZM211.918 49.3011L212.828 43.7911C212.922 43.2209 212.82 42.7272 212.521 42.3101C212.222 41.8929 211.787 41.6373 211.217 41.5431C210.846 41.4818 210.501 41.5067 210.183 41.6176C209.865 41.7286 209.596 41.9157 209.375 42.179C209.168 42.4445 209.033 42.7695 208.969 43.1541L208.04 42.4694C208.165 41.7136 208.432 41.0834 208.842 40.579C209.268 40.0635 209.792 39.6937 210.415 39.4695C211.051 39.2476 211.734 39.1968 212.463 39.3172C213.166 39.4333 213.766 39.7163 214.264 40.1663C214.764 40.603 215.126 41.1327 215.35 41.7555C215.577 42.365 215.636 42.9947 215.529 43.6444L214.524 49.7313L211.918 49.3011ZM205.454 48.2339L207.04 38.6263L209.646 39.0564L208.059 48.6641L205.454 48.2339ZM124.875 56.7107L131.061 50.9274L134.204 51.4462L128.018 57.2295L124.875 56.7107ZM124.629 58.2025L124.875 56.7107L127.072 56.2764L133.119 57.2747L132.745 59.5423L124.629 58.2025ZM126.199 50.9216L126.573 48.654L134.45 49.9544L134.204 51.4462L131.987 51.8772L126.199 50.9216ZM138.537 60.7028C137.688 60.5627 136.962 60.2588 136.358 59.7913C135.767 59.326 135.339 58.7445 135.072 58.0466C134.806 57.3488 134.742 56.5822 134.88 55.7467L135.799 50.1771L138.425 50.6105L137.516 56.1205C137.45 56.5183 137.459 56.8741 137.544 57.1877C137.63 57.4881 137.794 57.7331 138.035 57.9227C138.276 58.1124 138.576 58.2368 138.934 58.2959C139.478 58.3856 139.93 58.2899 140.289 58.0087C140.649 57.7276 140.878 57.2886 140.977 56.6919L141.886 51.1819L144.492 51.6121L143.573 57.1817C143.432 58.0304 143.124 58.7424 142.648 59.3176C142.185 59.895 141.592 60.3081 140.87 60.5566C140.163 60.7942 139.385 60.8429 138.537 60.7028ZM144.882 61.5458L146.468 51.9382L149.073 52.3684L147.487 61.976L144.882 61.5458ZM148.364 56.665L147.461 55.8212C147.776 54.6606 148.274 53.7893 148.955 53.2071C149.64 52.6117 150.519 52.4026 151.593 52.5799C152.057 52.6565 152.461 52.8051 152.807 53.0255C153.154 53.2327 153.451 53.5338 153.7 53.929L151.76 55.5295C151.64 55.3463 151.481 55.1974 151.282 55.0828C151.096 54.9704 150.87 54.8923 150.605 54.8485C150.048 54.7566 149.561 54.8601 149.144 55.159C148.742 55.4469 148.482 55.9489 148.364 56.665ZM157.122 63.7709C156.274 63.6308 155.547 63.327 154.943 62.8595C154.353 62.3941 153.924 61.8126 153.658 61.1147C153.392 60.4169 153.327 59.6503 153.465 58.8148L154.385 53.2452L157.011 53.6786L156.101 59.1886C156.035 59.5864 156.045 59.9422 156.129 60.2558C156.216 60.5562 156.38 60.8012 156.621 60.9909C156.862 61.1805 157.162 61.3049 157.52 61.364C158.063 61.4538 158.515 61.358 158.875 61.0769C159.234 60.7957 159.464 60.3567 159.562 59.76L160.472 54.25L163.077 54.6802L162.158 60.2498C162.018 61.0985 161.71 61.8105 161.233 62.3857C160.77 62.9632 160.178 63.3762 159.455 63.6248C158.749 63.8623 157.971 63.911 157.122 63.7709ZM156.843 52.2205C156.431 52.1527 156.11 51.9565 155.877 51.6321C155.647 51.2944 155.567 50.9133 155.637 50.489C155.707 50.0646 155.904 49.7362 156.229 49.5037C156.555 49.2579 156.924 49.1689 157.335 49.2368C157.773 49.3091 158.1 49.5129 158.317 49.8485C158.55 50.1729 158.631 50.5473 158.561 50.9717C158.491 51.396 158.292 51.7311 157.966 51.9769C157.655 52.2116 157.28 52.2928 156.843 52.2205ZM161.119 52.9266C160.708 52.8587 160.386 52.6625 160.154 52.3381C159.924 52.0004 159.843 51.6193 159.913 51.195C159.984 50.7706 160.181 50.4422 160.505 50.2097C160.832 49.9639 161.201 49.8749 161.612 49.9428C162.049 50.0151 162.377 50.2189 162.594 50.5545C162.826 50.8789 162.908 51.2533 162.838 51.6777C162.767 52.102 162.569 52.4371 162.242 52.6829C161.931 52.9176 161.557 52.9988 161.119 52.9266ZM167.97 65.5616C166.988 65.3996 166.142 65.0352 165.432 64.4684C164.722 63.9016 164.204 63.2031 163.878 62.3728C163.552 61.5425 163.466 60.6565 163.622 59.715C163.78 58.7602 164.146 57.9421 164.722 57.2606C165.297 56.5792 166.013 56.0842 166.867 55.7758C167.737 55.4563 168.656 55.3764 169.625 55.5362C170.38 55.661 171.054 55.9152 171.644 56.2987C172.235 56.6823 172.719 57.171 173.098 57.7648L171.148 59.1797C170.942 58.8596 170.672 58.5971 170.338 58.3921C170.018 58.1893 169.645 58.0529 169.221 57.9829C168.743 57.9041 168.294 57.9456 167.872 58.1076C167.466 58.2585 167.118 58.5076 166.829 58.8549C166.555 59.1912 166.376 59.618 166.291 60.1351C166.207 60.6391 166.239 61.1074 166.386 61.5403C166.548 61.9621 166.796 62.3164 167.13 62.6031C167.479 62.8787 167.893 63.056 168.37 63.1348C168.808 63.207 169.211 63.1987 169.58 63.1097C169.964 63.0097 170.306 62.8346 170.607 62.5845L172.018 64.5544C171.44 65.0038 170.81 65.3152 170.127 65.4886C169.445 65.662 168.725 65.6864 167.97 65.5616ZM179.285 67.2252L176.383 61.6581L180.851 57.6142L183.854 58.1101L178.651 62.6456L178.961 61.389L182.467 67.7505L179.285 67.2252ZM173.158 66.2138L175.532 51.8321L178.138 52.2623L175.764 66.6439L173.158 66.2138ZM184.889 63.1441L186.061 53.5703L188.846 54.03L186.879 63.4725L184.889 63.1441ZM185.047 68.3807C184.569 68.3019 184.204 68.0782 183.952 67.7095C183.699 67.3409 183.611 66.9246 183.688 66.4604C183.765 65.9963 183.982 65.6303 184.339 65.3623C184.697 65.0944 185.114 64.9999 185.592 65.0787C186.069 65.1575 186.434 65.3812 186.687 65.7498C186.939 66.1184 187.027 66.5348 186.95 66.999C186.874 67.4631 186.657 67.8291 186.299 68.097C185.941 68.3649 185.524 68.4595 185.047 68.3807Z" fill="#005D63"/>
</svg>
