<svg width="24" height="24" viewBox="0 0 24 24" fill="none" xmlns="http://www.w3.org/2000/svg">
<g clip-path="url(#clip0_2_8281)">
<path d="M24 12C24 13.2833 23.8968 14.5415 23.6998 15.7684C23.0474 19.8301 19.8301 23.0475 15.7684 23.6998C14.5415 23.8969 13.2832 24 12 24C10.7168 24 9.45855 23.8969 8.23161 23.6998C4.16992 23.0475 0.952577 19.8301 0.300214 15.7684C0.103157 14.5415 0 13.2833 0 12C0 10.7168 0.103157 9.45848 0.300214 8.23158C0.952586 4.16989 4.16993 0.952561 8.23161 0.300215C9.45855 0.103157 10.7168 0 12 0C13.2832 0 14.5415 0.103157 15.7684 0.300215C19.8301 0.952561 23.0474 4.16989 23.6998 8.23157C23.8969 9.45848 24 10.7168 24 12Z" fill="#0B5CFF"/>
<path d="M24 12C24 13.2833 23.8968 14.5415 23.6998 15.7684C23.0474 19.8301 19.8301 23.0475 15.7684 23.6998C14.5415 23.8969 13.2832 24 12 24C10.7168 24 9.45855 23.8969 8.23161 23.6998C4.16992 23.0475 0.952577 19.8301 0.300214 15.7684C0.103157 14.5415 0 13.2833 0 12C0 10.7168 0.103157 9.45848 0.300214 8.23158C0.952586 4.16989 4.16993 0.952561 8.23161 0.300215C9.45855 0.103157 10.7168 0 12 0C13.2832 0 14.5415 0.103157 15.7684 0.300215C19.8301 0.952561 23.0474 4.16989 23.6998 8.23157C23.8969 9.45848 24 10.7168 24 12Z" fill="url(#paint0_radial_2_8281)"/>
<path d="M24 12C24 13.2832 23.8968 14.5415 23.6998 15.7684C23.0474 19.8301 19.8301 23.0475 15.7684 23.6998C14.5414 23.8969 13.2832 24 12 24C10.7168 24 9.45855 23.8969 8.23159 23.6998C4.16989 23.0474 0.952569 19.8301 0.300197 15.7684C0.103114 14.5415 0 13.2832 0 12C0 10.7168 0.103114 9.45845 0.300189 8.23154C0.95256 4.16989 4.16988 0.952518 8.23158 0.300189C9.45855 0.103114 10.7168 0 12 0C13.2832 0 14.5414 0.103114 15.7684 0.300189C19.8301 0.952518 23.0474 4.16989 23.6997 8.23154C23.8968 9.45845 24 10.7167 24 12Z" fill="url(#paint1_radial_2_8281)"/>
<path d="M14.5714 15C14.5714 15.71 13.9958 16.2857 13.2857 16.2857H7.71425C6.29409 16.2857 5.14282 15.1345 5.14282 13.7143V8.99999C5.14282 8.28996 5.71845 7.71428 6.42854 7.71428H12C13.4201 7.71428 14.5714 8.86554 14.5714 10.2857V15ZM17.8285 8.48563L15.9428 9.89992C15.6191 10.1427 15.4285 10.5238 15.4285 10.9285L15.4286 13.0714C15.4286 13.4761 15.6191 13.8571 15.9428 14.0999L17.8285 15.5142C18.2523 15.8321 18.8571 15.5297 18.8571 14.9999V8.99993C18.8571 8.47019 18.2523 8.16779 17.8285 8.48563Z" fill="white"/>
</g>
<defs>
<radialGradient id="paint0_radial_2_8281" cx="0" cy="0" r="1" gradientUnits="userSpaceOnUse" gradientTransform="translate(12 10.6052) scale(16.1792 13.5222)">
<stop offset="0.82" stop-color="#0B5CFF" stop-opacity="0"/>
<stop offset="0.98" stop-color="#003CB3"/>
</radialGradient>
<radialGradient id="paint1_radial_2_8281" cx="0" cy="0" r="1" gradientUnits="userSpaceOnUse" gradientTransform="translate(12 13.3893) scale(16.1734 13.5174)">
<stop offset="0.8" stop-color="#0B5CFF" stop-opacity="0"/>
<stop offset="1" stop-color="#71A5F1"/>
</radialGradient>
<clipPath id="clip0_2_8281">
<rect width="24" height="24" fill="white"/>
</clipPath>
</defs>
</svg>
