<svg width="16" height="16" viewBox="0 0 16 16" fill="none" xmlns="http://www.w3.org/2000/svg">
<g clip-path="url(#clip0_213_15521)">
<path d="M7.99935 3.9998V5.19313C7.99935 5.49313 8.35935 5.6398 8.56602 5.42646L10.426 3.56646C10.5593 3.43313 10.5593 3.22646 10.426 3.09313L8.56602 1.23313C8.35935 1.02646 7.99935 1.17313 7.99935 1.47313V2.66646C5.05268 2.66646 2.66602 5.05313 2.66602 7.9998C2.66602 8.69313 2.79935 9.3598 3.04602 9.96646C3.22602 10.4131 3.79935 10.5331 4.13935 10.1931C4.31935 10.0131 4.39268 9.7398 4.29268 9.4998C4.09935 9.0398 3.99935 8.52646 3.99935 7.9998C3.99935 5.79313 5.79268 3.9998 7.99935 3.9998ZM11.8593 5.80646C11.6793 5.98646 11.606 6.26646 11.706 6.4998C11.8927 6.96646 11.9993 7.47313 11.9993 7.9998C11.9993 10.2065 10.206 11.9998 7.99935 11.9998V10.8065C7.99935 10.5065 7.63935 10.3598 7.43268 10.5731L5.57268 12.4331C5.43935 12.5665 5.43935 12.7731 5.57268 12.9065L7.43268 14.7665C7.63935 14.9731 7.99935 14.8265 7.99935 14.5331V13.3331C10.946 13.3331 13.3327 10.9465 13.3327 7.9998C13.3327 7.30646 13.1993 6.6398 12.9527 6.03313C12.7727 5.58646 12.1993 5.46646 11.8593 5.80646Z" fill="#82B1B0"/>
</g>
<defs>
<clipPath id="clip0_213_15521">
<rect width="16" height="16" fill="white"/>
</clipPath>
</defs>
</svg>
