<svg width="16" height="16" viewBox="0 0 16 16" fill="none" xmlns="http://www.w3.org/2000/svg">
<g clip-path="url(#clip0_215_14001)">
<path d="M7.99935 3.93366C8.77268 3.93366 9.39935 4.56033 9.39935 5.33366C9.39935 6.10699 8.77268 6.73366 7.99935 6.73366C7.22602 6.73366 6.59935 6.10699 6.59935 5.33366C6.59935 4.56033 7.22602 3.93366 7.99935 3.93366ZM7.99935 9.93366C9.97935 9.93366 12.066 10.907 12.066 11.3337V12.067H3.93268V11.3337C3.93268 10.907 6.01935 9.93366 7.99935 9.93366ZM7.99935 2.66699C6.52602 2.66699 5.33268 3.86033 5.33268 5.33366C5.33268 6.80699 6.52602 8.00033 7.99935 8.00033C9.47268 8.00033 10.666 6.80699 10.666 5.33366C10.666 3.86033 9.47268 2.66699 7.99935 2.66699ZM7.99935 8.66699C6.21935 8.66699 2.66602 9.56033 2.66602 11.3337V12.667C2.66602 13.0337 2.96602 13.3337 3.33268 13.3337H12.666C13.0327 13.3337 13.3327 13.0337 13.3327 12.667V11.3337C13.3327 9.56033 9.77935 8.66699 7.99935 8.66699Z" fill="#82B1B0"/>
</g>
<defs>
<clipPath id="clip0_215_14001">
<rect width="16" height="16" fill="white"/>
</clipPath>
</defs>
</svg>
