<svg width="96" height="96" viewBox="0 0 96 96" fill="none" xmlns="http://www.w3.org/2000/svg">
<circle cx="48" cy="48" r="48" fill="white"/>
<path d="M75.9999 34.0468V68.5333C75.9943 72.6547 72.6547 75.9943 68.5333 75.9999H25.6001C24.0767 76.0024 22.5899 75.5329 21.3441 74.6559C21.212 74.4733 21.0905 74.2832 20.9801 74.0866C20.3369 72.9645 19.999 71.6934 20.0001 70.4V35.9134C20.0058 31.7921 23.3454 28.4524 27.4668 28.4468L68.4711 28.4468C69.7645 28.4456 75.9401 33.9078 75.9377 35.4312L75.9999 34.0468Z" fill="#405B73"/>
<path d="M75.9998 35.9134V39.6561C75.9998 40.1715 75.5819 40.5894 75.0665 40.5894H20.9333C20.4179 40.5894 20 40.1715 20 39.6561V35.9134C20.0057 31.7921 23.3453 28.4524 27.4666 28.4468H68.5332C72.6545 28.4524 75.9941 31.7921 75.9998 35.9134V35.9134Z" fill="#F4CC54"/>
<path d="M39.1426 23.192V32.6746C39.1447 34.4347 37.7201 35.8635 35.96 35.8666H33.9067C32.8361 35.8697 31.8375 35.3281 31.256 34.4293C31.1197 34.233 31.0099 34.0196 30.9293 33.7946C30.7941 33.4367 30.7245 33.0573 30.724 32.6746V23.192C30.7219 21.4319 32.1466 20.0031 33.9067 20H35.96C36.3396 20.0005 36.7159 20.0701 37.0706 20.2053C37.2956 20.2859 37.509 20.3957 37.7053 20.532C38.6063 21.1159 39.148 22.1184 39.1426 23.192Z" fill="#405B73"/>
<path d="M67.1425 23.192V32.6746C67.1446 34.4347 65.72 35.8635 63.9599 35.8666H61.9065C60.836 35.8697 59.8374 35.3281 59.2559 34.4293C59.1196 34.233 59.0098 34.0196 58.9292 33.7946C58.794 33.4367 58.7244 33.0573 58.7239 32.6746V23.192C58.7218 21.4319 60.1464 20.0031 61.9065 20H63.9599C64.3395 20.0005 64.7158 20.0701 65.0705 20.2053C65.2955 20.2859 65.5089 20.3957 65.7052 20.532C66.6062 21.1159 67.1479 22.1184 67.1425 23.192V23.192Z" fill="#405B73"/>
</svg>
