<svg width="96" height="96" viewBox="0 0 96 96" fill="none" xmlns="http://www.w3.org/2000/svg">
<circle cx="48" cy="48" r="48" fill="white"/>
<path d="M24 26C24 22.6863 26.6863 20 30 20H54C57.3137 20 60 22.6863 60 26V69H66V76H60H32C27.5817 76 24 72.4183 24 68V26Z" fill="#405B73"/>
<path d="M72 36C72 33.7909 70.2091 32 68 32H60V70C60 73.3137 62.6863 76 66 76C69.3137 76 72 73.3137 72 70V36Z" fill="#B0D3F0"/>
<path fill-rule="evenodd" clip-rule="evenodd" d="M32 50C32 48.8954 32.8954 48 34 48H50C51.1046 48 52 48.8954 52 50C52 51.1046 51.1046 52 50 52H34C32.8954 52 32 51.1046 32 50Z" fill="#F4CC54"/>
<path fill-rule="evenodd" clip-rule="evenodd" d="M32 62C32 60.8954 32.8954 60 34 60H42C43.1046 60 44 60.8954 44 62C44 63.1046 43.1046 64 42 64H34C32.8954 64 32 63.1046 32 62Z" fill="#F4CC54"/>
<path d="M32 31C32 29.3431 33.3431 28 35 28H49C50.6569 28 52 29.3431 52 31V37C52 38.6569 50.6569 40 49 40H35C33.3431 40 32 38.6569 32 37V31Z" fill="#F4CC54"/>
</svg>
