<svg width="96" height="96" viewBox="0 0 96 96" fill="none" xmlns="http://www.w3.org/2000/svg">
<path d="M89.9998 27.0699V78.7997C89.9913 84.9818 84.9819 89.9912 78.7999 89.9997H14.4001C12.1149 90.0033 9.88474 89.2991 8.01612 87.9837C7.81798 87.7097 7.63568 87.4245 7.47012 87.1297C6.50523 85.4465 5.99839 83.5398 6.00013 81.5997V29.8699C6.00861 23.6878 11.018 18.6784 17.2001 18.6699L78.7065 18.6699C80.6467 18.6682 89.9101 26.8614 89.9065 29.1466L89.9998 27.0699Z" fill="#405B73"/>
<path d="M89.9997 29.8699V35.4839C89.9997 36.2571 89.3729 36.8839 88.5997 36.8839H7.39999C6.6268 36.8839 6 36.2571 6 35.4839V29.8699C6.00848 23.6878 11.0179 18.6784 17.2 18.6699H78.7997C84.9818 18.6784 89.9912 23.6878 89.9997 29.8699V29.8699Z" fill="#F4CC54"/>
<path d="M34.7139 10.788V25.0119C34.717 27.6521 32.5801 29.7953 29.9399 29.7999H26.8599C25.2541 29.8045 23.7562 28.9922 22.8839 27.6439C22.6796 27.3495 22.5148 27.0294 22.3939 26.6919C22.1911 26.155 22.0867 25.5859 22.0859 25.0119V10.788C22.0828 8.14784 24.2198 6.00464 26.8599 6H29.9399C30.5093 6.00077 31.0739 6.10514 31.6059 6.308C31.9434 6.42887 32.2634 6.59362 32.5579 6.798C33.9094 7.67381 34.7219 9.17753 34.7139 10.788Z" fill="#405B73"/>
<path d="M76.7139 10.788V25.0119C76.717 27.6521 74.5801 29.7953 71.9399 29.7999H68.8599C67.2541 29.8045 65.7562 28.9922 64.8839 27.6439C64.6796 27.3495 64.5148 27.0294 64.3939 26.6919C64.1911 26.155 64.0867 25.5859 64.0859 25.0119V10.788C64.0828 8.14784 66.2198 6.00464 68.8599 6H71.9399C72.5093 6.00077 73.0738 6.10514 73.6059 6.308C73.9434 6.42887 74.2634 6.59362 74.5579 6.798C75.9094 7.67381 76.7219 9.17753 76.7139 10.788V10.788Z" fill="#405B73"/>
</svg>
