<svg width="96" height="96" viewBox="0 0 96 96" fill="none" xmlns="http://www.w3.org/2000/svg">
<circle cx="48" cy="48" r="48" fill="white"/>
<circle cx="48" cy="40" r="24" fill="#F4CC54"/>
<rect x="36" y="48" width="24" height="24" fill="#F4CC54"/>
<path d="M36 72C36 78.6274 41.3726 84 48 84C54.6274 84 60 78.6274 60 72V64H36V72Z" fill="#405B73"/>
<path fill-rule="evenodd" clip-rule="evenodd" d="M57.4007 40C53.7532 40 50.8014 42.9518 50.8014 46.5993V49.4007H45.1986V46.5993C45.1986 42.9518 42.2421 40 38.5993 40C34.9518 40 32 42.9518 32 46.5993C32 50.2421 34.9518 53.1986 38.5993 53.1986H41.4007V65.4007C41.4007 66.4489 42.2515 67.2996 43.2996 67.2996C44.3478 67.2996 45.1986 66.4489 45.1986 65.4007V53.1986H50.8014V65.4007C50.8014 66.4489 51.6522 67.2996 52.7004 67.2996C53.7485 67.2996 54.5993 66.4489 54.5993 65.4007V53.1986H57.4007C61.0435 53.1986 64 50.2421 64 46.5993C64 42.9518 61.0435 40 57.4007 40ZM38.5993 43.7979C37.0529 43.7979 35.7979 45.0529 35.7979 46.5993C35.7979 48.1457 37.0529 49.4007 38.5993 49.4007H41.4007V46.5993C41.4007 45.0529 40.1457 43.7979 38.5993 43.7979ZM54.5992 49.4007H57.4006C58.947 49.4007 60.202 48.1457 60.202 46.5993C60.202 45.0529 58.947 43.7979 57.4006 43.7979C55.8542 43.7979 54.5992 45.0529 54.5992 46.5993V49.4007Z" fill="#405B73"/>
</svg>
