<svg width="96" height="96" viewBox="0 0 96 96" fill="none" xmlns="http://www.w3.org/2000/svg">
<circle cx="48" cy="48" r="48" fill="white"/>
<path d="M27.7102 27.6973C23.7319 27.6973 20.4951 30.934 20.4951 34.9123V56.0146C20.4951 59.9962 23.8588 63.3598 27.8401 63.3598L52.1552 63.506L57.2585 73.0266C57.5567 73.5829 58.1273 73.9198 58.7469 73.9198C58.8089 73.9198 58.8717 73.9164 58.9346 73.9095C59.6247 73.8339 60.1919 73.3528 60.3793 72.6847L62.956 63.5062H67.2601C71.2384 63.5062 74.4751 60.2694 74.4751 56.2909V35.0549C74.4754 31.0766 71.2387 27.8398 67.2604 27.8398L27.7102 27.6973Z" fill="#405B73"/>
<path fill-rule="evenodd" clip-rule="evenodd" d="M47.9761 49.1998C49.3681 49.1998 50.5681 48.0478 50.5681 46.5598C50.5681 45.0718 49.3681 43.9678 47.9761 43.9678C46.5841 43.9678 45.4321 45.0718 45.4321 46.5598C45.4321 48.0478 46.5841 49.1998 47.9761 49.1998ZM37.5601 49.1998C38.9521 49.1998 40.1521 48.0478 40.1521 46.5598C40.1521 45.0718 38.9521 43.9678 37.5601 43.9678C36.1681 43.9678 35.0161 45.0718 35.0161 46.5598C35.0161 48.0478 36.1681 49.1998 37.5601 49.1998ZM61.0321 46.5598C61.0321 48.0478 59.8321 49.1998 58.4401 49.1998C57.0481 49.1998 55.8961 48.0478 55.8961 46.5598C55.8961 45.0718 57.0481 43.9678 58.4401 43.9678C59.8321 43.9678 61.0321 45.0718 61.0321 46.5598Z" fill="#F4CC54"/>
</svg>
