<svg width="102" height="96" viewBox="0 0 102 96" fill="none" xmlns="http://www.w3.org/2000/svg">
<path d="M13.6364 48V68.5266C13.6364 70.7671 14.8846 72.8209 16.8734 73.8526L45.2371 88.5667C46.9694 89.4654 49.0306 89.4654 50.7629 88.5667L79.1266 73.8526C81.1154 72.8209 82.3636 70.7671 82.3636 68.5266V48L51.4537 64.035C49.2882 65.1584 46.7118 65.1584 44.5463 64.035L13.6364 48Z" fill="#405B73"/>
<path d="M4.27252 28.6736L45.238 7.43226C46.9698 6.5343 49.0301 6.5343 50.7618 7.43226L91.7274 28.6736C96.0448 30.9123 96.0448 37.088 91.7274 39.3267L50.7618 60.5681C49.0301 61.466 46.9698 61.466 45.238 60.5681L4.27252 39.3267C-0.0449421 37.088 -0.0449414 30.9123 4.27252 28.6736Z" fill="#405B73"/>
<path fill-rule="evenodd" clip-rule="evenodd" d="M45 36C45 34.3431 46.3431 33 48 33H93C96.3137 33 99 35.6863 99 39V60C99 61.6569 97.6569 63 96 63C94.3431 63 93 61.6569 93 60V39H48C46.3431 39 45 37.6569 45 36Z" fill="#F4CC54"/>
<circle cx="96" cy="48" r="6" fill="#F4CC54"/>
</svg>
