<svg width="96" height="96" viewBox="0 0 96 96" fill="none" xmlns="http://www.w3.org/2000/svg">
<circle cx="48" cy="48" r="48" fill="white"/>
<path d="M39.4275 76.3132C36.2684 77.319 32.8921 75.5733 31.8864 72.4142L24 47.6422L35.4401 44.0001L43.3265 68.7721C44.3322 71.9313 42.5866 75.3075 39.4275 76.3132Z" fill="#405B73"/>
<path d="M16 46C16 40.4772 20.4772 36 26 36H48V56H26C20.4772 56 16 51.5228 16 46Z" fill="#405B73"/>
<circle cx="66" cy="46" r="6" fill="#F4CC54"/>
<path fill-rule="evenodd" clip-rule="evenodd" d="M82.0787 30.7722C82.7568 31.6441 82.5997 32.9007 81.7279 33.5788L77.2279 37.0788C76.356 37.7569 75.0994 37.5999 74.4213 36.728C73.7431 35.8561 73.9002 34.5995 74.7721 33.9214L79.2721 30.4214C80.144 29.7432 81.4005 29.9003 82.0787 30.7722Z" fill="#F4CC54"/>
<path fill-rule="evenodd" clip-rule="evenodd" d="M82.0787 60.7283C82.7568 59.8564 82.5997 58.5998 81.7279 57.9217L77.2279 54.4217C76.356 53.7435 75.0994 53.9006 74.4213 54.7725C73.7431 55.6444 73.9002 56.901 74.7721 57.5791L79.2721 61.0791C80.144 61.7572 81.4005 61.6002 82.0787 60.7283Z" fill="#F4CC54"/>
<path d="M36 36.0002Lnan nanL36 36.0002C39.9529 36.0002 43.8587 35.1423 47.4478 33.4858L65.7074 25.0583C66.7779 24.5642 68 25.3462 68 26.5252V65.4752C68 66.6542 66.7779 67.4361 65.7074 66.942L47.4478 58.5145C43.8587 56.858 39.9529 56.0002 36 56.0002Lnan nanL36 56.0002V36.0002Z" fill="#405B73"/>
<path fill-rule="evenodd" clip-rule="evenodd" d="M78 46C78 44.8954 78.8954 44 80 44H85.5C86.6046 44 87.5 44.8954 87.5 46C87.5 47.1046 86.6046 48 85.5 48H80C78.8954 48 78 47.1046 78 46Z" fill="#F4CC54"/>
</svg>
