<svg width="96" height="96" viewBox="0 0 96 96" fill="none" xmlns="http://www.w3.org/2000/svg">
<path d="M80 46H74V30C74 25.56 70.4 22 66 22H50V16C50 13.3478 48.9464 10.8043 47.0711 8.92893C45.1957 7.05357 42.6522 6 40 6C37.3478 6 34.8043 7.05357 32.9289 8.92893C31.0536 10.8043 30 13.3478 30 16V22H14C11.8783 22 9.84344 22.8429 8.34315 24.3431C6.84285 25.8434 6 27.8783 6 30V45.2H12C18 45.2 22.8 50 22.8 56C22.8 62 18 66.8 12 66.8H6V82C6 84.1217 6.84285 86.1566 8.34315 87.6569C9.84344 89.1571 11.8783 90 14 90H29.2V84C29.2 78 34 73.2 40 73.2C46 73.2 50.8 78 50.8 84V90H66C68.1217 90 70.1566 89.1571 71.6569 87.6569C73.1571 86.1566 74 84.1217 74 82V66H80C82.6522 66 85.1957 64.9464 87.0711 63.0711C88.9464 61.1957 90 58.6522 90 56C90 53.3478 88.9464 50.8043 87.0711 48.9289C85.1957 47.0536 82.6522 46 80 46Z" fill="#405B73"/>
</svg>
