<svg width="96" height="96" viewBox="0 0 96 96" fill="none" xmlns="http://www.w3.org/2000/svg">
<path d="M17.5652 17.5459C11.5977 17.5459 6.74255 22.401 6.74255 28.3685V60.0219C6.74255 65.9943 11.788 71.0398 17.76 71.0398L54.2327 71.259L61.8877 85.54C62.335 86.3743 63.1909 86.8798 64.1202 86.8798C64.2133 86.8798 64.3075 86.8746 64.4018 86.8643C65.437 86.7508 66.2878 86.0292 66.5689 85.027L70.4339 71.2593H76.89C82.8575 71.2593 87.7126 66.4042 87.7126 60.4364V28.5824C87.7131 22.6149 82.858 17.7598 76.8905 17.7598L17.5652 17.5459Z" fill="#405B73"/>
<path fill-rule="evenodd" clip-rule="evenodd" d="M32.3399 49.7997C34.4279 49.7997 36.2279 48.0717 36.2279 45.8397C36.2279 43.6077 34.4279 41.9517 32.3399 41.9517C30.2519 41.9517 28.5239 43.6077 28.5239 45.8397C28.5239 48.0717 30.2519 49.7997 32.3399 49.7997ZM47.9639 49.7997C50.0519 49.7997 51.8519 48.0717 51.8519 45.8397C51.8519 43.6077 50.0519 41.9517 47.9639 41.9517C45.8759 41.9517 44.1479 43.6077 44.1479 45.8397C44.1479 48.0717 45.8759 49.7997 47.9639 49.7997ZM67.548 45.8397C67.548 48.0717 65.748 49.7997 63.66 49.7997C61.5719 49.7997 59.8439 48.0717 59.8439 45.8397C59.8439 43.6077 61.5719 41.9517 63.66 41.9517C65.748 41.9517 67.548 43.6077 67.548 45.8397Z" fill="#F4CC54"/>
</svg>
