<svg width="96" height="96" viewBox="0 0 96 96" fill="none" xmlns="http://www.w3.org/2000/svg">
<path d="M12 15C12 10.0294 16.0294 6 21 6H57C61.9706 6 66 10.0294 66 15V79.5H75V90H66H24C17.3726 90 12 84.6274 12 78V15Z" fill="#405B73"/>
<path d="M84 30C84 26.6863 81.3137 24 78 24H66V81C66 85.9706 70.0294 90 75 90C79.9706 90 84 85.9706 84 81V30Z" fill="#B0D3F0"/>
<path fill-rule="evenodd" clip-rule="evenodd" d="M24 51C24 49.3431 25.3431 48 27 48H51C52.6569 48 54 49.3431 54 51C54 52.6569 52.6569 54 51 54H27C25.3431 54 24 52.6569 24 51Z" fill="#F4CC54"/>
<path fill-rule="evenodd" clip-rule="evenodd" d="M24 69C24 67.3431 25.3431 66 27 66H39C40.6569 66 42 67.3431 42 69C42 70.6569 40.6569 72 39 72H27C25.3431 72 24 70.6569 24 69Z" fill="#F4CC54"/>
<path d="M24 22.5C24 20.0147 26.0147 18 28.5 18H49.5C51.9853 18 54 20.0147 54 22.5V31.5C54 33.9853 51.9853 36 49.5 36H28.5C26.0147 36 24 33.9853 24 31.5V22.5Z" fill="#F4CC54"/>
</svg>
