<svg width="96" height="96" viewBox="0 0 96 96" fill="none" xmlns="http://www.w3.org/2000/svg">
<circle cx="48" cy="48" r="48" fill="white"/>
<path d="M28 26C28 22.6863 30.6863 20 34 20H62C65.3137 20 68 22.6863 68 26V70C68 73.3137 65.3137 76 62 76H34C30.6863 76 28 73.3137 28 70V26Z" fill="#405B73"/>
<path d="M36 23C36 21.3431 37.3431 20 39 20H57C58.6569 20 60 21.3431 60 23V25C60 26.6569 58.6569 28 57 28H39C37.3431 28 36 26.6569 36 25V23Z" fill="#B0D3F0"/>
<path fill-rule="evenodd" clip-rule="evenodd" d="M36 38C36 36.8954 36.8954 36 38 36H58C59.1046 36 60 36.8954 60 38C60 39.1046 59.1046 40 58 40H38C36.8954 40 36 39.1046 36 38Z" fill="#F4CC54"/>
<path fill-rule="evenodd" clip-rule="evenodd" d="M36 50C36 48.8954 36.8954 48 38 48H58C59.1046 48 60 48.8954 60 50C60 51.1046 59.1046 52 58 52H38C36.8954 52 36 51.1046 36 50Z" fill="#F4CC54"/>
<path fill-rule="evenodd" clip-rule="evenodd" d="M36 62C36 60.8954 36.8954 60 38 60H50C51.1046 60 52 60.8954 52 62C52 63.1046 51.1046 64 50 64H38C36.8954 64 36 63.1046 36 62Z" fill="#F4CC54"/>
</svg>
