<svg width="96" height="96" viewBox="0 0 96 96" fill="none" xmlns="http://www.w3.org/2000/svg">
<path d="M18 15C18 10.0294 22.0294 6 27 6H69C73.9706 6 78 10.0294 78 15V81C78 85.9706 73.9706 90 69 90H27C22.0294 90 18 85.9706 18 81V15Z" fill="#405B73"/>
<path d="M30 7.5C30 5.01472 32.0147 3 34.5 3H61.5C63.9853 3 66 5.01472 66 7.5V10.5C66 12.9853 63.9853 15 61.5 15H34.5C32.0147 15 30 12.9853 30 10.5V7.5Z" fill="#B0D3F0"/>
<path fill-rule="evenodd" clip-rule="evenodd" d="M30 33C30 31.3431 31.3431 30 33 30H63C64.6569 30 66 31.3431 66 33C66 34.6569 64.6569 36 63 36H33C31.3431 36 30 34.6569 30 33Z" fill="#F4CC54"/>
<path fill-rule="evenodd" clip-rule="evenodd" d="M30 51C30 49.3431 31.3431 48 33 48H63C64.6569 48 66 49.3431 66 51C66 52.6569 64.6569 54 63 54H33C31.3431 54 30 52.6569 30 51Z" fill="#F4CC54"/>
<path fill-rule="evenodd" clip-rule="evenodd" d="M30 69C30 67.3431 31.3431 66 33 66H51C52.6569 66 54 67.3431 54 69C54 70.6569 52.6569 72 51 72H33C31.3431 72 30 70.6569 30 69Z" fill="#F4CC54"/>
</svg>
