<svg width="96" height="96" viewBox="0 0 96 96" fill="none" xmlns="http://www.w3.org/2000/svg">
<circle cx="48" cy="48" r="48" fill="white"/>
<path d="M25.0909 48V61.6844C25.0909 63.1781 25.9231 64.5473 27.249 65.2351L46.1581 75.0445C47.313 75.6436 48.6871 75.6436 49.842 75.0445L68.7511 65.2351C70.0769 64.5473 70.9091 63.1781 70.9091 61.6844V48L50.3025 58.69C48.8589 59.4389 47.1412 59.4389 45.6976 58.69L25.0909 48Z" fill="#405B73"/>
<path d="M18.8483 35.1158L46.1586 20.9548C47.3132 20.3562 48.6867 20.3562 49.8412 20.9548L77.1515 35.1158C80.0298 36.6082 80.0298 40.7253 77.1515 42.2178L49.8412 56.3787C48.6867 56.9774 47.3132 56.9774 46.1587 56.3787L18.8483 42.2178C15.97 40.7253 15.97 36.6082 18.8483 35.1158Z" fill="#405B73"/>
<path fill-rule="evenodd" clip-rule="evenodd" d="M46 40C46 38.8954 46.8954 38 48 38H78C80.2091 38 82 39.7909 82 42V56C82 57.1046 81.1046 58 80 58C78.8954 58 78 57.1046 78 56V42H48C46.8954 42 46 41.1046 46 40Z" fill="#F4CC54"/>
<circle cx="80" cy="48" r="4" fill="#F4CC54"/>
</svg>
