<svg width="24" height="24" viewBox="0 0 24 24" fill="none" xmlns="http://www.w3.org/2000/svg">
<circle cx="12" cy="12" r="12" fill="white"/>
<path d="M9.85687 19.0784C9.06709 19.3299 8.22302 18.8935 7.97159 18.1037L6 11.9107L8.86003 11.0002L10.8316 17.1932C11.0831 17.9829 10.6466 18.827 9.85687 19.0784Z" fill="#405B73"/>
<path d="M4 11.5C4 10.1193 5.11929 9 6.5 9H12V14H6.5C5.11929 14 4 12.8807 4 11.5Z" fill="#405B73"/>
<ellipse cx="16.5" cy="11.5005" rx="1.5" ry="1.5" fill="#F4CC54"/>
<path fill-rule="evenodd" clip-rule="evenodd" d="M20.5197 7.69305C20.6892 7.91103 20.6499 8.22516 20.432 8.3947L19.307 9.2697C19.089 9.43923 18.7749 9.39997 18.6053 9.18199C18.4358 8.96402 18.475 8.64988 18.693 8.48035L19.818 7.60535C20.036 7.43581 20.3501 7.47508 20.5197 7.69305Z" fill="#F4CC54"/>
<path fill-rule="evenodd" clip-rule="evenodd" d="M20.5197 15.1819C20.6892 14.964 20.6499 14.6498 20.432 14.4803L19.307 13.6053C19.089 13.4358 18.7749 13.475 18.6053 13.693C18.4358 13.911 18.475 14.2251 18.693 14.3947L19.818 15.2697C20.036 15.4392 20.3501 15.3999 20.5197 15.1819Z" fill="#F4CC54"/>
<path d="M9 9.00017Lnan nanL9 9.00017C9.98822 9.00017 10.9647 8.7857 11.8619 8.37158L16.4268 6.2647C16.6945 6.14118 17 6.33666 17 6.63143V16.3689C17 16.6637 16.6945 16.8592 16.4268 16.7356L11.8619 14.6288C10.9647 14.2146 9.98822 14.0002 9 14.0002Lnan nanL9 14.0002V9.00017Z" fill="#405B73"/>
<path fill-rule="evenodd" clip-rule="evenodd" d="M19.5 11.5C19.5 11.2239 19.7239 11 20 11H21.375C21.6511 11 21.875 11.2239 21.875 11.5C21.875 11.7761 21.6511 12 21.375 12H20C19.7239 12 19.5 11.7761 19.5 11.5Z" fill="#F4CC54"/>
</svg>
