<svg width="24" height="24" viewBox="0 0 24 24" fill="none" xmlns="http://www.w3.org/2000/svg">
<circle cx="12" cy="12" r="12" fill="white"/>
<path d="M6.92755 6.92432C5.93296 6.92432 5.12378 7.7335 5.12378 8.72808V14.0036C5.12378 14.999 5.96469 15.84 6.96002 15.84L13.0388 15.8765L14.3146 18.2567C14.3892 18.3957 14.5318 18.48 14.6867 18.48C14.7022 18.48 14.7179 18.4791 14.7336 18.4774C14.9062 18.4585 15.048 18.3382 15.0948 18.1712L15.739 15.8765H16.815C17.8096 15.8765 18.6188 15.0674 18.6188 14.0727V8.76373C18.6189 7.76915 17.8097 6.95996 16.8151 6.95996L6.92755 6.92432Z" fill="#405B73"/>
<path fill-rule="evenodd" clip-rule="evenodd" d="M9.39003 12.2999C9.73803 12.2999 10.038 12.0119 10.038 11.6399C10.038 11.2679 9.73803 10.9919 9.39003 10.9919C9.04203 10.9919 8.75403 11.2679 8.75403 11.6399C8.75403 12.0119 9.04203 12.2999 9.39003 12.2999ZM11.994 12.2999C12.342 12.2999 12.642 12.0119 12.642 11.6399C12.642 11.2679 12.342 10.9919 11.994 10.9919C11.646 10.9919 11.358 11.2679 11.358 11.6399C11.358 12.0119 11.646 12.2999 11.994 12.2999ZM15.258 11.6399C15.258 12.0119 14.958 12.2999 14.61 12.2999C14.262 12.2999 13.974 12.0119 13.974 11.6399C13.974 11.2679 14.262 10.9919 14.61 10.9919C14.958 10.9919 15.258 11.2679 15.258 11.6399Z" fill="#F4CC54"/>
</svg>
