<svg width="24" height="24" viewBox="0 0 24 24" fill="none" xmlns="http://www.w3.org/2000/svg">
<circle cx="12" cy="12" r="12" fill="white"/>
<path d="M19 8.51157V17.1332C18.9985 18.1635 18.1636 18.9984 17.1333 18.9999H6.4C6.01914 19.0005 5.64744 18.8831 5.336 18.6639C5.30298 18.6182 5.27259 18.5707 5.245 18.5215C5.08418 18.241 4.99971 17.9232 5 17.5999V8.97823C5.00141 7.94789 5.83632 7.11299 6.86666 7.11157L17.1177 7.11157C17.4411 7.11128 18.985 8.47682 18.9844 8.85768L19 8.51157Z" fill="#405B73"/>
<path d="M18.9999 8.97823V9.9139C18.9999 10.0428 18.8955 10.1472 18.7666 10.1472H5.23333C5.10447 10.1472 5 10.0428 5 9.9139V8.97823C5.00141 7.94789 5.83632 7.11299 6.86666 7.11157H17.1333C18.1636 7.11299 18.9985 7.94789 18.9999 8.97823Z" fill="#F4CC54"/>
<path d="M9.78563 5.798V8.16866C9.78614 8.60868 9.42999 8.96588 8.98997 8.96665H8.47663C8.209 8.96742 7.95934 8.83204 7.81397 8.60732C7.77991 8.55824 7.75245 8.5049 7.7323 8.44865C7.69849 8.35917 7.6811 8.26432 7.68097 8.16866V5.798C7.68045 5.35797 8.03661 5.00077 8.47663 5H8.98997C9.08487 5.00013 9.17896 5.01752 9.26763 5.05133C9.32387 5.07148 9.37722 5.09894 9.4263 5.133C9.65155 5.27897 9.78697 5.52959 9.78563 5.798Z" fill="#405B73"/>
<path d="M16.7856 5.798V8.16866C16.7861 8.60868 16.43 8.96588 15.99 8.96665H15.4766C15.209 8.96742 14.9593 8.83204 14.814 8.60732C14.7799 8.55824 14.7524 8.5049 14.7323 8.44865C14.6985 8.35917 14.6811 8.26432 14.681 8.16866V5.798C14.6805 5.35797 15.0366 5.00077 15.4766 5H15.99C16.0849 5.00013 16.179 5.01752 16.2676 5.05133C16.3239 5.07148 16.3772 5.09894 16.4263 5.133C16.6515 5.27897 16.787 5.52959 16.7856 5.798Z" fill="#405B73"/>
</svg>
