<svg width="24" height="24" viewBox="0 0 24 24" fill="none" xmlns="http://www.w3.org/2000/svg">
<circle cx="12" cy="12" r="12" fill="white"/>
<path d="M7 6.5C7 5.67157 7.67157 5 8.5 5H15.5C16.3284 5 17 5.67157 17 6.5V17.5C17 18.3284 16.3284 19 15.5 19H8.5C7.67157 19 7 18.3284 7 17.5V6.5Z" fill="#405B73"/>
<path d="M9 5.25C9 4.83579 9.33579 4.5 9.75 4.5H14.25C14.6642 4.5 15 4.83579 15 5.25V5.75C15 6.16421 14.6642 6.5 14.25 6.5H9.75C9.33579 6.5 9 6.16421 9 5.75V5.25Z" fill="#B0D3F0"/>
<path fill-rule="evenodd" clip-rule="evenodd" d="M9 9.5C9 9.22386 9.22386 9 9.5 9H14.5C14.7761 9 15 9.22386 15 9.5C15 9.77614 14.7761 10 14.5 10H9.5C9.22386 10 9 9.77614 9 9.5Z" fill="#F4CC54"/>
<path fill-rule="evenodd" clip-rule="evenodd" d="M9 12.5C9 12.2239 9.22386 12 9.5 12H14.5C14.7761 12 15 12.2239 15 12.5C15 12.7761 14.7761 13 14.5 13H9.5C9.22386 13 9 12.7761 9 12.5Z" fill="#F4CC54"/>
<path fill-rule="evenodd" clip-rule="evenodd" d="M9 15.5C9 15.2239 9.22386 15 9.5 15H12.5C12.7761 15 13 15.2239 13 15.5C13 15.7761 12.7761 16 12.5 16H9.5C9.22386 16 9 15.7761 9 15.5Z" fill="#F4CC54"/>
</svg>
