<svg width="24" height="24" viewBox="0 0 24 24" fill="none" xmlns="http://www.w3.org/2000/svg">
<circle cx="12" cy="12" r="12" fill="white"/>
<path d="M18.3333 10.6667H17.3333V8C17.3333 7.26 16.7333 6.66667 16 6.66667H13.3333V5.66667C13.3333 5.22464 13.1577 4.80072 12.8452 4.48816C12.5326 4.17559 12.1087 4 11.6667 4C11.2246 4 10.8007 4.17559 10.4882 4.48816C10.1756 4.80072 10 5.22464 10 5.66667V6.66667H7.33333C6.97971 6.66667 6.64057 6.80714 6.39052 7.05719C6.14048 7.30724 6 7.64638 6 8V10.5333H7C8 10.5333 8.8 11.3333 8.8 12.3333C8.8 13.3333 8 14.1333 7 14.1333H6V16.6667C6 17.0203 6.14048 17.3594 6.39052 17.6095C6.64057 17.8595 6.97971 18 7.33333 18H9.86667V17C9.86667 16 10.6667 15.2 11.6667 15.2C12.6667 15.2 13.4667 16 13.4667 17V18H16C16.3536 18 16.6928 17.8595 16.9428 17.6095C17.1929 17.3594 17.3333 17.0203 17.3333 16.6667V14H18.3333C18.7754 14 19.1993 13.8244 19.5118 13.5118C19.8244 13.1993 20 12.7754 20 12.3333C20 11.8913 19.8244 11.4674 19.5118 11.1548C19.1993 10.8423 18.7754 10.6667 18.3333 10.6667Z" fill="#405B73"/>
</svg>
