<svg width="24" height="24" viewBox="0 0 24 24" fill="none" xmlns="http://www.w3.org/2000/svg">
<circle cx="12" cy="12" r="12" fill="white"/>
<circle cx="12" cy="9.99951" r="6" fill="#F4CC54"/>
<rect x="9" y="12" width="6" height="6" fill="#F4CC54"/>
<path d="M9 17.9995C9 19.6564 10.3431 20.9995 12 20.9995C13.6569 20.9995 15 19.6564 15 17.9995V15.9995H9V17.9995Z" fill="#405B73"/>
<path fill-rule="evenodd" clip-rule="evenodd" d="M14.3502 9.99902C13.4383 9.99902 12.7004 10.737 12.7004 11.6488V12.3492H11.2997V11.6488C11.2997 10.737 10.5605 9.99902 9.64983 9.99902C8.73796 9.99902 8.00001 10.737 8.00001 11.6488C8.00001 12.5595 8.73796 13.2987 9.64983 13.2987H10.3502V16.3492C10.3502 16.6112 10.5629 16.8239 10.8249 16.8239C11.087 16.8239 11.2997 16.6112 11.2997 16.3492V13.2987H12.7004V16.3492C12.7004 16.6112 12.9131 16.8239 13.1751 16.8239C13.4371 16.8239 13.6498 16.6112 13.6498 16.3492V13.2987H14.3502C15.2609 13.2987 16 12.5595 16 11.6488C16 10.737 15.2609 9.99902 14.3502 9.99902ZM9.64983 10.9482C9.26323 10.9482 8.94948 11.262 8.94948 11.6486C8.94948 12.0352 9.26323 12.3489 9.64983 12.3489H10.3502V11.6486C10.3502 11.262 10.0364 10.9482 9.64983 10.9482ZM13.6498 12.3489H14.3502C14.7368 12.3489 15.0505 12.0352 15.0505 11.6486C15.0505 11.262 14.7368 10.9482 14.3502 10.9482C13.9636 10.9482 13.6498 11.262 13.6498 11.6486V12.3489Z" fill="#405B73"/>
</svg>
