<svg width="24" height="24" viewBox="0 0 24 24" fill="none" xmlns="http://www.w3.org/2000/svg">
<circle cx="12" cy="12" r="12" fill="white"/>
<path d="M6 6.5C6 5.67157 6.67157 5 7.5 5H13.5C14.3284 5 15 5.67157 15 6.5V17.25H16.5V19H15H8C6.89543 19 6 18.1046 6 17V6.5Z" fill="#405B73"/>
<path d="M18 9C18 8.44771 17.5523 8 17 8H15V17.5C15 18.3284 15.6716 19 16.5 19C17.3284 19 18 18.3284 18 17.5V9Z" fill="#B0D3F0"/>
<path fill-rule="evenodd" clip-rule="evenodd" d="M8 12.5C8 12.2239 8.22386 12 8.5 12H12.5C12.7761 12 13 12.2239 13 12.5C13 12.7761 12.7761 13 12.5 13H8.5C8.22386 13 8 12.7761 8 12.5Z" fill="#F4CC54"/>
<path fill-rule="evenodd" clip-rule="evenodd" d="M8 15.5C8 15.2239 8.22386 15 8.5 15H10.5C10.7761 15 11 15.2239 11 15.5C11 15.7761 10.7761 16 10.5 16H8.5C8.22386 16 8 15.7761 8 15.5Z" fill="#F4CC54"/>
<path d="M8 7.75C8 7.33579 8.33579 7 8.75 7H12.25C12.6642 7 13 7.33579 13 7.75V9.25C13 9.66421 12.6642 10 12.25 10H8.75C8.33579 10 8 9.66421 8 9.25V7.75Z" fill="#F4CC54"/>
</svg>
