<svg width="24" height="24" viewBox="0 0 24 24" fill="none" xmlns="http://www.w3.org/2000/svg">
<circle cx="12" cy="12" r="12" fill="white"/>
<path d="M6.27272 12V15.4211C6.27272 15.7945 6.48077 16.1368 6.81223 16.3088L11.5395 18.7611C11.8282 18.9109 12.1718 18.9109 12.4605 18.7611L17.1878 16.3088C17.5192 16.1368 17.7273 15.7945 17.7273 15.4211V12L12.5756 14.6725C12.2147 14.8597 11.7853 14.8597 11.4244 14.6725L6.27272 12Z" fill="#405B73"/>
<path d="M4.71209 8.77891L11.5397 5.23868C11.8283 5.08902 12.1717 5.08902 12.4603 5.23868L19.2879 8.77891C20.0075 9.15202 20.0075 10.1813 19.2879 10.5544L12.4603 14.0946C12.1717 14.2443 11.8283 14.2443 11.5397 14.0946L4.71209 10.5544C3.99251 10.1813 3.99251 9.15202 4.71209 8.77891Z" fill="#405B73"/>
<path fill-rule="evenodd" clip-rule="evenodd" d="M11.5 10C11.5 9.72386 11.7239 9.5 12 9.5H19.5C20.0523 9.5 20.5 9.94772 20.5 10.5V14C20.5 14.2761 20.2761 14.5 20 14.5C19.7239 14.5 19.5 14.2761 19.5 14V10.5H12C11.7239 10.5 11.5 10.2761 11.5 10Z" fill="#F4CC54"/>
<circle cx="20" cy="12" r="1" fill="#F4CC54"/>
</svg>
