<svg width="24" height="24" viewBox="0 0 24 24" fill="none" xmlns="http://www.w3.org/2000/svg">
<circle cx="12" cy="12" r="12" fill="white"/>
<path d="M19 8.51166V17.1333C18.9986 18.1636 18.1636 18.9985 17.1333 19H6.40001C6.01915 19.0006 5.64745 18.8832 5.33601 18.664C5.30299 18.6183 5.27261 18.5708 5.24502 18.5216C5.0842 18.2411 4.99973 17.9233 5.00002 17.6V8.97832C5.00143 7.94798 5.83633 7.11308 6.86668 7.11166L17.1178 7.11166C17.4411 7.11137 18.985 8.47691 18.9844 8.85777L19 8.51166Z" fill="#405B73"/>
<path d="M18.9999 8.97831V9.91397C18.9999 10.0428 18.8955 10.1473 18.7666 10.1473H5.23333C5.10447 10.1473 5 10.0428 5 9.91397V8.97831C5.00141 7.94797 5.83632 7.11306 6.86666 7.11165H17.1333C18.1636 7.11306 18.9985 7.94797 18.9999 8.97831Z" fill="#F4CC54"/>
<path d="M9.78564 5.798V8.16866C9.78616 8.60868 9.43 8.96588 8.98998 8.96665H8.47665C8.20901 8.96742 7.95935 8.83204 7.81398 8.60732C7.77992 8.55824 7.75246 8.5049 7.73232 8.44865C7.6985 8.35917 7.68112 8.26432 7.68099 8.16866V5.798C7.68047 5.35797 8.03662 5.00077 8.47665 5H8.98998C9.08488 5.00013 9.17897 5.01752 9.26765 5.05133C9.32389 5.07148 9.37723 5.09894 9.42631 5.133C9.65156 5.27897 9.78699 5.52959 9.78564 5.798Z" fill="#405B73"/>
<path d="M16.7856 5.798V8.16866C16.7862 8.60868 16.43 8.96588 15.99 8.96665H15.4766C15.209 8.96742 14.9594 8.83204 14.814 8.60732C14.7799 8.55824 14.7525 8.5049 14.7323 8.44865C14.6985 8.35917 14.6811 8.26432 14.681 8.16866V5.798C14.6805 5.35797 15.0366 5.00077 15.4766 5H15.99C16.0849 5.00013 16.179 5.01752 16.2676 5.05133C16.3239 5.07148 16.3772 5.09894 16.4263 5.133C16.6516 5.27897 16.787 5.52959 16.7856 5.798Z" fill="#405B73"/>
</svg>
