<svg width="24" height="24" viewBox="0 0 24 24" fill="none" xmlns="http://www.w3.org/2000/svg">
<circle cx="12" cy="12" r="12" fill="white"/>
<circle cx="12" cy="10" r="6" fill="#F4CC54"/>
<rect x="9" y="12" width="6" height="6" fill="#F4CC54"/>
<path d="M9 18C9 19.6569 10.3431 21 12 21C13.6569 21 15 19.6569 15 18V16H9V18Z" fill="#405B73"/>
<path fill-rule="evenodd" clip-rule="evenodd" d="M14.3502 10C13.4383 10 12.7004 10.738 12.7004 11.6498V12.3502H11.2996V11.6498C11.2996 10.738 10.5605 10 9.64982 10C8.73796 10 8 10.738 8 11.6498C8 12.5605 8.73796 13.2996 9.64982 13.2996H10.3502V16.3502C10.3502 16.6122 10.5629 16.8249 10.8249 16.8249C11.087 16.8249 11.2996 16.6122 11.2996 16.3502V13.2996H12.7004V16.3502C12.7004 16.6122 12.913 16.8249 13.1751 16.8249C13.4371 16.8249 13.6498 16.6122 13.6498 16.3502V13.2996H14.3502C15.2609 13.2996 16 12.5605 16 11.6498C16 10.738 15.2609 10 14.3502 10ZM9.64982 10.9495C9.26322 10.9495 8.94947 11.2632 8.94947 11.6498C8.94947 12.0364 9.26322 12.3502 9.64982 12.3502H10.3502V11.6498C10.3502 11.2632 10.0364 10.9495 9.64982 10.9495ZM13.6498 12.3502H14.3502C14.7368 12.3502 15.0505 12.0364 15.0505 11.6498C15.0505 11.2632 14.7368 10.9495 14.3502 10.9495C13.9636 10.9495 13.6498 11.2632 13.6498 11.6498V12.3502Z" fill="#405B73"/>
</svg>
