<svg width="24" height="24" viewBox="0 0 24 24" fill="none" xmlns="http://www.w3.org/2000/svg">
<circle cx="12" cy="12" r="12" fill="white"/>
<path fill-rule="evenodd" clip-rule="evenodd" d="M9 16.5C9 16.2239 9.22386 16 9.5 16H14.5C14.7761 16 15 16.2239 15 16.5C15 16.7761 14.7761 17 14.5 17H9.5C9.22386 17 9 16.7761 9 16.5Z" fill="#405B73"/>
<rect x="7.5" y="17" width="9" height="4" rx="0.7" fill="#405B73"/>
<path fill-rule="evenodd" clip-rule="evenodd" d="M9 18.5C9 18.2239 9.22386 18 9.5 18H14.5C14.7761 18 15 18.2239 15 18.5C15 18.7761 14.7761 19 14.5 19H9.5C9.22386 19 9 18.7761 9 18.5Z" fill="#B0D3F0"/>
<path fill-rule="evenodd" clip-rule="evenodd" d="M8.25361 4C7.8394 4 7.50361 4.33579 7.50361 4.75V5.16994C6.24448 5.2546 5.15869 6.49068 5.60031 7.92594L5.79519 8.55931C6.05601 9.40696 6.77334 10.0345 7.64814 10.1803L8.93514 10.3948C8.9577 10.4303 8.98052 10.4654 9.00361 10.5C9.53609 11.2987 10.3521 11.9557 10.9987 12.3954C10.8776 13.5255 10.4732 14.6149 9.8128 15.5583L9.50361 16H14.5036L14.1944 15.5583C13.534 14.6149 13.1296 13.5255 13.0085 12.3954C13.6551 11.9557 14.4711 11.2987 15.0036 10.5C15.0225 10.4717 15.0412 10.4431 15.0597 10.4142L16.4632 10.1803C17.338 10.0345 18.0554 9.40696 18.3162 8.55931L18.5111 7.92594C18.9648 6.45124 17.8061 5.18682 16.5036 5.16558V4.75C16.5036 4.33579 16.1678 4 15.7536 4H8.25361ZM8.35742 9.28471C7.78821 7.96879 7.50361 6.56251 7.50361 6.25V6.17799C6.86306 6.25694 6.3293 6.89481 6.55609 7.63185L6.75097 8.26523C6.90039 8.75085 7.31136 9.11037 7.81254 9.1939L8.35742 9.28471ZM16.2988 9.1939L15.6417 9.30342C16.2163 7.98215 16.5036 6.56399 16.5036 6.25V6.17018C17.1887 6.18862 17.7943 6.85517 17.5553 7.63185L17.3604 8.26523C17.211 8.75085 16.8 9.11037 16.2988 9.1939Z" fill="#F4CC54"/>
</svg>
