<svg width="24" height="24" viewBox="0 0 24 24" fill="none" xmlns="http://www.w3.org/2000/svg">
<circle cx="12" cy="12" r="12" fill="white"/>
<path d="M9.85687 19.0783C9.06709 19.3297 8.22302 18.8933 7.97159 18.1035L6 11.9105L8.86003 11L10.8316 17.193C11.0831 17.9828 10.6466 18.8268 9.85687 19.0783Z" fill="#405B73"/>
<path d="M4 11.5C4 10.1193 5.11929 9 6.5 9H12V14H6.5C5.11929 14 4 12.8807 4 11.5Z" fill="#405B73"/>
<circle cx="16.5" cy="11.5" r="1.5" fill="#F4CC54"/>
<path fill-rule="evenodd" clip-rule="evenodd" d="M20.5197 7.69303C20.6892 7.911 20.6499 8.22514 20.432 8.39468L19.307 9.26968C19.089 9.43921 18.7749 9.39994 18.6053 9.18197C18.4358 8.964 18.4751 8.64986 18.693 8.48032L19.818 7.60532C20.036 7.43579 20.3501 7.47506 20.5197 7.69303Z" fill="#F4CC54"/>
<path fill-rule="evenodd" clip-rule="evenodd" d="M20.5197 15.182C20.6892 14.964 20.6499 14.6499 20.432 14.4803L19.307 13.6053C19.089 13.4358 18.7749 13.4751 18.6053 13.693C18.4358 13.911 18.4751 14.2251 18.693 14.3947L19.818 15.2697C20.036 15.4392 20.3501 15.3999 20.5197 15.182Z" fill="#F4CC54"/>
<path d="M9 9Lnan nanL9 9C9.98822 9 10.9647 8.78554 11.8619 8.37141L16.4268 6.26453C16.6945 6.14101 17 6.3365 17 6.63126V16.3687C17 16.6635 16.6945 16.859 16.4268 16.7355L11.8619 14.6286C10.9647 14.2145 9.98822 14 9 14Lnan nanL9 14V9Z" fill="#405B73"/>
<path fill-rule="evenodd" clip-rule="evenodd" d="M19.5 11.5C19.5 11.2239 19.7239 11 20 11H21.375C21.6511 11 21.875 11.2239 21.875 11.5C21.875 11.7761 21.6511 12 21.375 12H20C19.7239 12 19.5 11.7761 19.5 11.5Z" fill="#F4CC54"/>
</svg>
