<svg width="24" height="24" viewBox="0 0 24 24" fill="none" xmlns="http://www.w3.org/2000/svg">
<circle cx="12" cy="12" r="12" fill="white"/>
<circle cx="12" cy="12" r="8" fill="#405B73"/>
<path d="M14.8168 9.49557C14.617 8.0402 13.3567 6.9666 11.8881 7.00079C10.3017 6.99571 9.01013 8.27491 9 9.86131C9 10.1153 9.20591 10.3212 9.4599 10.3212C9.71389 10.3212 9.91981 10.1153 9.91981 9.86131C9.94011 8.77444 10.8377 7.90982 11.9246 7.93013C13.0115 7.95043 13.8761 8.84799 13.8558 9.93491C13.8357 11.0073 12.9608 11.8663 11.8882 11.8664C11.6342 11.8664 11.4283 12.0724 11.4283 12.3263V14.3867C11.4283 14.6406 11.6342 14.8466 11.8882 14.8466C12.1421 14.8466 12.3481 14.6406 12.3481 14.3867V12.7495C13.9283 12.5326 15.0336 11.0758 14.8168 9.49557Z" fill="#F4CC54" stroke="#F4CC54" stroke-width="0.5"/>
<circle cx="11.8498" cy="16.4966" r="0.503362" fill="#F4CC54" stroke="#F4CC54" stroke-width="0.5"/>
</svg>
