<svg width="24" height="24" viewBox="0 0 24 24" fill="none" xmlns="http://www.w3.org/2000/svg">
<circle cx="12" cy="12" r="12" fill="white"/>
<path d="M6.92753 6.92435C5.93295 6.92435 5.12376 7.73354 5.12376 8.72812V14.0037C5.12376 14.9991 5.96468 15.84 6.96 15.84L13.0388 15.8765L14.3146 18.2567C14.3892 18.3958 14.5318 18.48 14.6867 18.48C14.7022 18.48 14.7179 18.4791 14.7336 18.4774C14.9062 18.4585 15.048 18.3382 15.0948 18.1712L15.739 15.8766H16.815C17.8096 15.8766 18.6188 15.0674 18.6188 14.0728V8.76377C18.6189 7.76918 17.8097 6.96 16.8151 6.96L6.92753 6.92435Z" fill="#405B73"/>
<path fill-rule="evenodd" clip-rule="evenodd" d="M9.39 12.3C9.738 12.3 10.038 12.012 10.038 11.64C10.038 11.268 9.738 10.992 9.39 10.992C9.042 10.992 8.754 11.268 8.754 11.64C8.754 12.012 9.042 12.3 9.39 12.3ZM11.994 12.3C12.342 12.3 12.642 12.012 12.642 11.64C12.642 11.268 12.342 10.992 11.994 10.992C11.646 10.992 11.358 11.268 11.358 11.64C11.358 12.012 11.646 12.3 11.994 12.3ZM15.258 11.64C15.258 12.012 14.958 12.3 14.61 12.3C14.262 12.3 13.974 12.012 13.974 11.64C13.974 11.268 14.262 10.992 14.61 10.992C14.958 10.992 15.258 11.268 15.258 11.64Z" fill="#F4CC54"/>
</svg>
