<svg width="24" height="24" viewBox="0 0 24 24" fill="none" xmlns="http://www.w3.org/2000/svg">
<circle cx="12" cy="12" r="12" fill="white"/>
<path d="M6.27273 12V15.4211C6.27273 15.7945 6.48077 16.1368 6.81224 16.3088L11.5395 18.7611C11.8282 18.9109 12.1718 18.9109 12.4605 18.7611L17.1878 16.3088C17.5192 16.1368 17.7273 15.7945 17.7273 15.4211V12L12.5756 14.6725C12.2147 14.8597 11.7853 14.8597 11.4244 14.6725L6.27273 12Z" fill="#405B73"/>
<path d="M4.7121 8.77891L11.5397 5.23868C11.8283 5.08902 12.1717 5.08902 12.4603 5.23868L19.2879 8.77891C20.0075 9.15203 20.0075 10.1813 19.2879 10.5544L12.4603 14.0947C12.1717 14.2443 11.8283 14.2443 11.5397 14.0947L4.7121 10.5544C3.99252 10.1813 3.99252 9.15203 4.7121 8.77891Z" fill="#405B73"/>
<path d="M12 10H19.5C19.7761 10 20 10.2239 20 10.5V14" stroke="#F4CC54" stroke-linecap="round"/>
<circle cx="20" cy="12" r="1" fill="#F4CC54"/>
</svg>
