<svg xmlns="http://www.w3.org/2000/svg" width="24" height="25" viewBox="0 0 24 25" fill="none">
  <g clip-path="url(#clip0_1160_490)">
    <path d="M12 2.5C17.523 2.5 22 6.977 22 12.5C22 18.023 17.523 22.5 12 22.5C6.477 22.5 2 18.023 2 12.5C2 6.977 6.477 2.5 12 2.5ZM13 7.5H10L9.883 7.507C9.63995 7.53591 9.41594 7.65296 9.25341 7.83596C9.09088 8.01897 9.00111 8.25524 9.00111 8.5C9.00111 8.74476 9.09088 8.98103 9.25341 9.16403C9.41594 9.34704 9.63995 9.46409 9.883 9.493L10 9.5H13V11.5H11L10.85 11.505C10.3738 11.5408 9.92617 11.7458 9.58797 12.0829C9.24977 12.42 9.04334 12.8669 9.006 13.343L9 13.5V15.5L9.005 15.65C9.04078 16.1262 9.24576 16.5738 9.58286 16.912C9.91996 17.2502 10.3669 17.4567 10.843 17.494L11 17.5H14L14.117 17.493C14.36 17.4641 14.5841 17.347 14.7466 17.164C14.9091 16.981 14.9989 16.7448 14.9989 16.5C14.9989 16.2552 14.9091 16.019 14.7466 15.836C14.5841 15.653 14.36 15.5359 14.117 15.507L14 15.5H11V13.5H13L13.15 13.495C13.6262 13.4592 14.0738 13.2542 14.412 12.9171C14.7502 12.58 14.9567 12.1331 14.994 11.657L15 11.5V9.5L14.995 9.35C14.9592 8.87383 14.7542 8.42617 14.4171 8.08797C14.08 7.74977 13.6331 7.54334 13.157 7.506L13 7.5Z" fill="#2A4A50"/>
  </g>
  <defs>
    <clipPath id="clip0_1160_490">
      <rect width="24" height="24" fill="white" transform="translate(0 0.5)"/>
    </clipPath>
  </defs>
</svg>