<svg xmlns="http://www.w3.org/2000/svg" width="24" height="25" viewBox="0 0 24 25" fill="none">
  <g clip-path="url(#clip0_1156_3699)">
    <path d="M12 2.5C17.523 2.5 22 6.977 22 12.5C22 18.023 17.523 22.5 12 22.5C6.477 22.5 2 18.023 2 12.5C2 6.977 6.477 2.5 12 2.5ZM12.994 8.386C12.911 7.609 11.986 7.226 11.377 7.716L11.293 7.793L9.293 9.793L9.21 9.887C9.07393 10.0624 9.00008 10.278 9.00008 10.5C9.00008 10.722 9.07393 10.9376 9.21 11.113L9.293 11.207L9.387 11.29C9.56237 11.4261 9.77803 11.4999 10 11.4999C10.222 11.4999 10.4376 11.4261 10.613 11.29L10.707 11.207L11 10.914V16.5L11.007 16.617C11.0359 16.8601 11.153 17.0841 11.336 17.2466C11.519 17.4091 11.7552 17.4989 12 17.4989C12.2448 17.4989 12.481 17.4091 12.664 17.2466C12.847 17.0841 12.9641 16.8601 12.993 16.617L13 16.5V8.5L12.994 8.386Z" fill="#2A4A50"/>
  </g>
  <defs>
    <clipPath id="clip0_1156_3699">
      <rect width="24" height="24" fill="white" transform="translate(0 0.5)"/>
    </clipPath>
  </defs>
</svg>