<svg width="24" height="24" viewBox="0 0 24 24" fill="none" xmlns="http://www.w3.org/2000/svg">
<g clip-path="url(#clip0_1156_3705)">
<path d="M12 2C17.523 2 22 6.477 22 12C22 17.523 17.523 22 12 22C6.477 22 2 17.523 2 12C2 6.477 6.477 2 12 2ZM13 7H11L10.85 7.005C10.3468 7.04284 9.87659 7.26947 9.5335 7.63945C9.19041 8.00943 8.99984 8.49542 9 9C8.99915 9.24577 9.08883 9.48325 9.25194 9.66711C9.41504 9.85096 9.64014 9.96831 9.88426 9.99676C10.1284 10.0252 10.3744 9.96275 10.5754 9.82132C10.7764 9.67989 10.9183 9.46939 10.974 9.23L10.994 9.117L11 9H13V11H11L10.867 11.007C9.756 11.127 9.713 12.737 10.739 12.972L10.867 12.993L11 13H13V15H11L10.993 14.883C10.9629 14.6299 10.8373 14.3979 10.6418 14.2343C10.4464 14.0707 10.1958 13.9879 9.94139 14.0028C9.68695 14.0178 9.44782 14.1293 9.27285 14.3146C9.09788 14.5 9.00028 14.7451 9 15C8.99984 15.5046 9.19041 15.9906 9.5335 16.3605C9.87659 16.7305 10.3468 16.9572 10.85 16.995L11 17H13L13.15 16.995C13.6262 16.9592 14.0738 16.7542 14.412 16.4171C14.7502 16.08 14.9567 15.6331 14.994 15.157L15 15V13L14.995 12.85C14.9775 12.6195 14.92 12.3938 14.825 12.183L14.75 12.031L14.731 11.999L14.751 11.969C14.8862 11.7238 14.9686 11.453 14.993 11.174L15 11V9L14.995 8.85C14.9592 8.37383 14.7542 7.92617 14.4171 7.58797C14.08 7.24977 13.6331 7.04334 13.157 7.006L13 7Z" fill="#2A4A50"/>
</g>
<defs>
<clipPath id="clip0_1156_3705">
<rect width="24" height="24" fill="white"/>
</clipPath>
</defs>
</svg>
