<svg width="20" height="20" viewBox="0 0 20 20" fill="none" xmlns="http://www.w3.org/2000/svg">
<path id="Vector" d="M10.0117 0C4.50572 0 0.0234844 4.47837 0.0214844 9.98438C0.0204844 11.7444 0.481469 13.4626 1.35547 14.9766L0 20L5.23242 18.7637C6.69142 19.5597 8.33386 19.9775 10.0059 19.9785H10.0098C15.5148 19.9785 19.995 15.4991 19.998 9.99414C20 7.32514 18.9622 4.81573 17.0762 2.92773C15.1902 1.04073 12.6837 0.001 10.0117 0ZM10.0098 2C12.1458 2.001 14.1531 2.8338 15.6621 4.3418C17.1711 5.8518 18 7.85819 17.998 9.99219C17.996 14.3962 14.4138 17.9785 10.0078 17.9785C8.67481 17.9775 7.35441 17.6428 6.19141 17.0078L5.51758 16.6406L4.77344 16.8164L2.80469 17.2812L3.28516 15.4961L3.50195 14.6953L3.08789 13.9766C2.38989 12.7686 2.02048 11.3874 2.02148 9.98438C2.02348 5.58238 5.60677 2 10.0098 2ZM6.47656 5.375C6.30956 5.375 6.03955 5.4375 5.81055 5.6875C5.58155 5.9365 4.93555 6.53958 4.93555 7.76758C4.93555 8.99558 5.83008 10.1826 5.95508 10.3496C6.07908 10.5156 7.68175 13.1152 10.2188 14.1152C12.3267 14.9462 12.7549 14.7822 13.2129 14.7402C13.6709 14.6992 14.6904 14.1377 14.8984 13.5547C15.1064 12.9717 15.1069 12.4702 15.0449 12.3672C14.9829 12.2632 14.8164 12.2012 14.5664 12.0762C14.3174 11.9512 13.0903 11.3486 12.8613 11.2656C12.6323 11.1826 12.4648 11.1406 12.2988 11.3906C12.1328 11.6406 11.6558 12.2012 11.5098 12.3672C11.3638 12.5342 11.2188 12.5566 10.9688 12.4316C10.7188 12.3056 9.91494 12.0414 8.96094 11.1914C8.21894 10.5304 7.71827 9.71484 7.57227 9.46484C7.42727 9.21584 7.55859 9.07908 7.68359 8.95508C7.79559 8.84308 7.93164 8.66358 8.05664 8.51758C8.18064 8.37158 8.22364 8.26756 8.30664 8.10156C8.38964 7.93556 8.34716 7.78906 8.28516 7.66406C8.22316 7.53906 7.73763 6.3065 7.51562 5.8125C7.32863 5.3975 7.13112 5.38786 6.95312 5.38086C6.80813 5.37486 6.64256 5.375 6.47656 5.375Z" fill="white"/>
</svg>
