<svg width="1168" height="1263" viewBox="0 0 1168 1263" fill="none" xmlns="http://www.w3.org/2000/svg">
<path d="M766.985 91.1885C876.99 140.033 777.116 246.171 945.979 322.449C1070.42 378.661 1031.16 689.541 890.638 736.627C780.108 773.665 656.755 581.776 490.447 548.072C393.446 528.413 401.664 271.289 490.86 238.739C553.877 215.744 656.981 42.3439 766.985 91.1885Z" fill="#81B1B0" fill-opacity="0.3"/>
<path d="M128.488 795.508C201.409 695.384 266.054 798.663 379.121 645.074C462.444 531.889 723.721 688.693 725.769 825.592C727.38 933.276 494.841 752.329 419.5 907C375.557 997.214 234.315 1143.56 140.019 1065.8C93.3407 1027.3 55.5672 895.632 128.488 795.508Z" fill="#81B1B0" fill-opacity="0.3"/>
</svg>
