<svg width="252" height="291" viewBox="0 0 252 291" fill="none" xmlns="http://www.w3.org/2000/svg">
<path d="M27.7336 183.37C43.473 160.291 57.4261 184.097 81.8308 148.694C99.8154 122.604 156.21 158.748 156.652 190.305C157 215.127 106.808 173.417 90.5463 209.07C81.0615 229.865 50.5756 263.599 30.2225 245.673C20.1473 236.8 11.9942 206.449 27.7336 183.37Z" fill="#81B1B0" fill-opacity="0.3"/>
<path d="M165.547 21.0196C189.29 32.2787 167.733 56.7442 204.181 74.3268C231.041 87.284 222.566 158.944 192.236 169.798C168.379 178.335 141.754 134.103 105.858 126.334C84.9212 121.803 86.6948 62.534 105.947 55.0312C119.549 49.7304 141.803 9.76063 165.547 21.0196Z" fill="#81B1B0" fill-opacity="0.3"/>
</svg>
