<svg width="193" height="196" viewBox="0 0 193 196" fill="none" xmlns="http://www.w3.org/2000/svg">
<path d="M33.4044 134.181L22.1019 156.08L23.0327 102.907C23.2453 99.5287 24.3279 96.2756 26.1641 93.497C26.9428 92.2497 27.8553 91.101 28.8834 90.0734C30.2131 88.8902 31.9882 87.392 33.2049 86.8879C34.7141 86.2578 34.7607 84.0524 33.3578 83.6673C31.955 83.2823 27.7531 84.9066 24.0965 88.8552C20.4398 92.8039 21.2642 84.2694 21.5168 81.1539C21.7695 78.0384 22.1086 68.3768 21.2575 67.5647C20.0143 66.3675 18.5317 67.5647 18.3521 70.7012C18.1726 73.8377 17.0224 83.1283 15.4468 82.9532C13.8711 82.7782 15.3936 66.9416 15.3936 66.9416C15.3936 66.9416 16.2313 63.595 14.4428 63.329C11.2117 62.8459 10.8194 79.7747 10.8194 81.392C10.8194 82.5122 9.12402 82.3861 9.18386 81.1819C9.24369 79.9777 11.0055 65.4013 7.72119 64.8832C5.2014 64.4842 7.27574 78.8085 5.32108 81.686C3.36641 84.5635 4.80249 70.6242 2.37579 70.3441C1.47824 70.2391 0.786794 70.2951 1.04609 78.3745C1.19235 82.7222 3.04064 89.2193 2.70821 97.6067L2.62843 99.777C0.720308 115.467 -7.87621 197.779 21.7163 195.546C21.7163 195.546 44.1683 192.262 56.6476 149.233L33.4044 134.181Z" fill="#FFBE9D"/>
<path d="M8.08008 94.0005C8.08008 94.0776 8.57872 94.1406 9.3167 94.5466C10.3115 95.0869 11.0881 95.9867 11.5041 97.081L11.7368 97.7041L11.996 97.095C12.3688 96.2259 12.8893 95.4358 13.5319 94.7637C14.7698 93.4376 16.3597 92.537 18.0927 92.1802C19.4224 91.8932 20.2867 92.0542 20.3 91.9422C19.573 91.6598 18.7855 91.5967 18.0262 91.7602C16.1611 92.0149 14.4322 92.9252 13.1196 94.3436C12.4365 95.0715 11.8906 95.9291 11.5107 96.871H12.0027C11.7643 96.2761 11.4166 95.7367 10.9796 95.2837C10.5426 94.8307 10.025 94.4732 9.45632 94.2316C9.03271 94.002 8.55048 93.921 8.08008 94.0005Z" fill="#EB996E"/>
<path d="M168.381 144.409L180.954 169.347L192.436 192.605H166.473L150.384 157.69" fill="#FFBE9D"/>
<path d="M69.9108 192.605C72.384 183.735 70.7618 182.335 68.1024 173.527L62.3847 154.624L49.8722 174.087L23.2715 151.571L32.0941 130.617C48.5757 91.2845 75.3094 94.0779 75.3094 94.0779L109.376 87.2308C109.376 87.2308 131.17 85.1305 145.278 98.6147C149.879 103.011 170.775 142.624 170.775 142.624L145.099 161.569L138.803 150.262L137.061 165.63C135.691 174.031 135.778 184.722 138.803 192.605" fill="#455A64"/>
<path d="M66.9463 107.464C66.9463 107.562 61.3416 108.864 54.3939 110.37C47.4462 111.875 41.7617 113.016 41.7617 112.918C41.7617 112.82 47.3598 111.518 54.3141 110.012C61.2684 108.507 66.9263 107.352 66.9463 107.464Z" fill="#FAFAFA"/>
<path d="M141.855 96.1365C141.855 96.2415 136.357 97.3967 129.529 98.7199C122.701 100.043 117.156 101.044 117.136 100.939C117.116 100.834 122.641 99.6861 129.469 98.3629C136.297 97.0397 141.842 96.0385 141.855 96.1365Z" fill="#FAFAFA"/>
<path d="M152.352 108.941C152.352 109.039 143.795 111.041 133.197 113.471C122.6 115.9 113.997 117.741 113.977 117.671C113.957 117.601 122.527 115.571 133.124 113.141C143.722 110.712 152.305 108.864 152.352 108.941Z" fill="#FAFAFA"/>
<path d="M162.85 128.678L162.491 128.755L161.441 128.951L157.379 129.651L142.439 132.227L93.1207 140.559C73.84 143.772 56.401 146.636 43.7555 148.638C37.4395 149.646 32.3201 150.43 28.7764 150.948C27.0079 151.2 25.6317 151.39 24.6943 151.495C24.2272 151.602 23.747 151.63 23.2715 151.579C23.7469 151.571 24.2207 151.519 24.6876 151.425L28.7565 150.808L43.7223 148.386L93.0675 140.195L142.38 131.968L157.339 129.504L161.408 128.853L162.471 128.692L162.85 128.678Z" fill="#FAFAFA"/>
<path d="M137.765 159.328C137.765 159.426 121.928 161.687 102.375 164.369C82.822 167.05 66.9586 169.144 66.9453 169.046C66.932 168.948 82.7754 166.693 102.335 164.005C121.895 161.316 137.725 159.23 137.765 159.328Z" fill="#FAFAFA"/>
<path d="M134.741 185.541C134.741 185.646 120.566 185.632 103.094 185.541C85.6217 185.45 71.4404 185.261 71.4404 185.156C71.4404 185.051 85.6084 185.065 103.094 185.156C120.58 185.247 134.741 185.443 134.741 185.541Z" fill="#FAFAFA"/>
<path d="M76.6846 123.665C76.5354 123.717 76.3817 123.752 76.2258 123.77L74.8961 124.001L70.0427 124.813C65.9406 125.514 60.2827 126.501 54.0863 127.726C47.8899 128.951 42.2386 130.176 38.1764 131.093L33.3429 132.179L32.0132 132.466C31.8613 132.509 31.7052 132.535 31.5479 132.543C31.6913 132.478 31.8405 132.429 31.9933 132.396L33.3429 132.039C34.4732 131.745 36.1087 131.339 38.1299 130.841C42.1788 129.854 47.7902 128.594 54.0265 127.341C60.2628 126.088 65.9273 125.163 70.0361 124.54C72.0971 124.225 73.7592 123.987 74.9161 123.84L76.2458 123.679C76.3912 123.659 76.5382 123.655 76.6846 123.665Z" fill="#FAFAFA"/>
<path d="M105.932 10.687C105.115 21.0627 118.318 28.4279 117.142 38.7617C116.816 41.6321 115.4 44.7546 116.842 47.2191C118.571 50.1805 122.78 49.5574 125.851 50.8387C129.634 52.4139 131.569 57.2097 130.997 61.4454C130.425 65.6811 127.819 69.3427 124.754 72.1642C119.916 76.6189 113.867 79.3552 107.468 79.9845C104.503 80.2645 101.405 80.0405 98.7586 78.5843C96.1125 77.128 94.0182 74.3205 94.0049 71.184" fill="#263238"/>
<path d="M107.236 93.182C105.481 84.3255 103.785 74.979 103.785 74.979C103.785 74.979 114.23 70.6663 113.479 55.2987C112.767 40.6383 103.958 8.39095 103.958 8.39095C87.0377 5.17742 69.479 13.7468 61.0088 29.3944L76.3868 101.044C78.1686 109.362 86.3595 114.346 94.8231 112.295C103.353 110.153 108.905 101.618 107.236 93.182Z" fill="#FFBE9D"/>
<path d="M105.101 34.8628C105.204 35.3589 105.119 35.8776 104.864 36.3088C104.61 36.7401 104.206 37.0501 103.738 37.1732C103.512 37.2444 103.274 37.2671 103.039 37.2398C102.804 37.2126 102.576 37.136 102.37 37.0146C102.163 36.8931 101.982 36.7294 101.837 36.533C101.692 36.3366 101.585 36.1115 101.524 35.871C101.418 35.3786 101.498 34.8623 101.746 34.4303C101.994 33.9983 102.391 33.6841 102.854 33.5536C103.083 33.4781 103.324 33.4523 103.563 33.4778C103.802 33.5033 104.033 33.5795 104.243 33.7019C104.454 33.8243 104.638 33.9903 104.785 34.1898C104.933 34.3893 105.04 34.6183 105.101 34.8628Z" fill="#263238"/>
<path d="M107.141 32.937C106.968 33.238 105.379 32.4749 103.431 32.937C101.483 33.3991 100.26 34.7223 100 34.5193C99.8739 34.4282 100 33.9312 100.539 33.3151C101.25 32.5143 102.179 31.9642 103.198 31.7398C104.21 31.5094 105.265 31.6247 106.21 32.0688C106.915 32.3979 107.207 32.804 107.141 32.937Z" fill="#263238"/>
<path d="M85.2004 39.6715C85.3061 40.1639 85.2266 40.6801 84.9787 41.1122C84.7308 41.5442 84.3338 41.8584 83.8707 41.9889C83.6437 42.059 83.4057 42.0806 83.1707 42.0524C82.9356 42.0243 82.7083 41.947 82.5021 41.825C82.2958 41.703 82.1148 41.5389 81.9696 41.3422C81.8245 41.1455 81.7181 40.9203 81.6568 40.6797C81.5513 40.1882 81.631 39.6729 81.879 39.242C82.127 38.8111 82.524 38.4983 82.9865 38.3693C83.213 38.2981 83.4508 38.2754 83.6858 38.3027C83.9208 38.3299 84.1483 38.4065 84.3547 38.5279C84.5611 38.6493 84.7423 38.8131 84.8875 39.0095C85.0328 39.2059 85.1392 39.431 85.2004 39.6715Z" fill="#263238"/>
<path d="M87.1964 37.7256C87.0235 38.0197 85.4345 37.2566 83.4865 37.7256C81.5385 38.1947 80.3218 39.5109 80.0559 39.3079C79.9296 39.2239 80.0559 38.7198 80.5944 38.1037C81.3087 37.3069 82.2362 36.7575 83.2538 36.5284C84.2678 36.3009 85.324 36.4161 86.2722 36.8575C87.0036 37.1865 87.3028 37.5856 87.1964 37.7256Z" fill="#263238"/>
<path d="M97.5547 50.9933C97.5215 50.8743 98.6916 50.3842 100.6 49.6841C101.085 49.516 101.537 49.313 101.55 48.9349C101.476 48.3831 101.244 47.8681 100.886 47.4577L98.6118 43.7961C95.4205 38.5662 93.0005 34.2255 93.2066 34.0925C93.4127 33.9595 96.1519 38.0901 99.3365 43.313L101.557 47.0096C101.992 47.5758 102.227 48.2835 102.222 49.0119C102.187 49.2124 102.109 49.4018 101.994 49.5656C101.878 49.7295 101.729 49.8634 101.557 49.9571C101.298 50.0981 101.023 50.2039 100.739 50.2722C98.8113 50.8252 97.588 51.1053 97.5547 50.9933Z" fill="#263238"/>
<path d="M103.82 74.9786C97.2022 76.5584 90.2986 76.1779 83.874 73.8794C83.874 73.8794 90.5225 83.0719 104.371 78.5282L103.82 74.9786Z" fill="#EB996E"/>
<path d="M97.7286 56.1174C97.2586 55.7092 96.6976 55.4339 96.0984 55.3175C95.4993 55.2011 94.8819 55.2475 94.3046 55.4523C93.8821 55.5867 93.4902 55.8107 93.1529 56.1105C92.8156 56.4103 92.5401 56.7795 92.3433 57.1955C92.1499 57.5945 92.078 58.0466 92.1375 58.4901C92.197 58.9336 92.3849 59.347 92.6757 59.674C93.0594 59.966 93.5163 60.1324 93.9894 60.1523C94.4624 60.1722 94.9305 60.0448 95.3351 59.786C96.186 59.2435 96.927 58.5298 97.5158 57.6856C97.6984 57.4813 97.8447 57.2442 97.948 56.9855C97.9979 56.8551 98.0094 56.7119 97.9809 56.5746C97.9524 56.4372 97.8854 56.312 97.7884 56.2154" fill="#92E3A9"/>
<path d="M92.1024 53.6883C92.4215 53.5972 92.8736 55.8236 95.0011 57.0068C97.1286 58.19 99.3293 57.4339 99.4091 57.7069C99.4689 57.8399 98.9969 58.253 98.0461 58.491C96.8105 58.7876 95.5151 58.614 94.3894 58.001C93.3094 57.4173 92.4887 56.4124 92.1024 55.2005C91.8497 54.3114 91.9561 53.7093 92.1024 53.6883Z" fill="#263238"/>
<path d="M69.4989 44.5928C67.9156 44.5892 66.3624 45.0472 65.0111 45.916C63.6664 46.8003 62.71 48.2104 62.3517 49.8367C62.0712 51.4887 62.3993 53.1913 63.2692 54.5975C64.138 55.99 65.2921 57.1598 66.6467 58.021C67.5753 58.7102 68.6464 59.1566 69.7715 59.3232C70.3346 59.4026 70.9076 59.3335 71.4391 59.1221C71.9705 58.9107 72.4438 58.5636 72.8165 58.112" fill="#FFBE9D"/>
<path d="M70.5746 54.424C70.7608 54.424 70.2954 55.5511 68.8394 55.4671C68.0513 55.3635 67.3342 54.9356 66.8448 54.2769C66.2666 53.5503 65.8305 52.7104 65.5617 51.8055C65.2517 50.8476 65.2776 49.8045 65.6348 48.865C65.7828 48.4646 66.0162 48.1055 66.3171 47.8153C66.618 47.5252 66.9783 47.3118 67.3701 47.1918C68.7862 46.8417 69.4311 47.7799 69.2782 47.8429C69.1253 47.9059 68.5269 47.5768 67.6493 48.0179C66.7717 48.459 66.1733 49.8802 66.6919 51.4415C67.2105 53.0027 68.0881 54.4029 68.9923 54.592C69.8965 54.781 70.4816 54.3119 70.5746 54.424Z" fill="#EB996E"/>
<path d="M99.8299 5.10733C100.857 7.23474 101.202 9.65512 100.814 12.0063C100.425 14.3575 99.3245 16.5131 97.6758 18.1505C94.2984 21.35 89.4051 21.8051 85.0436 23.1423C80.6822 24.4795 76.0083 27.8611 76.2078 32.6429C76.3275 35.5414 78.2821 38.3278 77.5774 41.1283C76.7596 44.4118 72.7772 45.8121 71.6536 48.9906C69.8518 54.1014 76.4471 58.7012 76.1546 64.1411C75.9817 67.3686 73.3888 70.0011 73.1029 73.2426C72.6907 77.8214 76.9591 82.6872 74.5856 86.5448C72.7639 89.5133 68.5221 89.0862 65.4106 87.798C62.2991 86.5098 58.8951 84.6755 55.7769 85.9637C53.902 86.7338 52.579 88.4981 50.9102 89.6883C49.3863 90.7775 47.5898 91.3662 45.748 91.3797C43.9063 91.3933 42.1021 90.8312 40.5639 89.7646C39.0257 88.6979 37.8225 87.1747 37.1067 85.3877C36.3909 83.6006 36.1947 81.6302 36.5428 79.7257C37.0481 76.9252 38.657 74.5238 39.9535 72.0244C41.2499 69.525 42.2805 66.6055 41.5026 63.882C40.8976 61.7817 39.3418 60.1994 38.1052 58.4492C36.8686 56.6989 35.9045 54.3955 36.7024 52.3861C38.0985 48.8506 43.4506 49.1586 45.392 45.9241C48.0514 41.4783 41.8815 35.8214 43.4639 30.8366C45.259 25.1936 54.7664 26.2018 56.5747 20.5589C57.2396 18.5075 56.5747 16.2462 56.7543 14.0898C57.2263 9.189 62.1395 6.00347 66.7736 5.15633C71.4076 4.30919 76.2477 4.9393 80.7953 3.67909C83.2818 2.97897 85.6088 1.73977 88.0554 0.878625C90.5021 0.0174822 93.2147 -0.409592 95.6347 0.535564C98.0548 1.48072 99.9895 4.14816 99.5042 6.83661" fill="#263238"/>
<path d="M97.7348 15.6231C99.0804 18.0751 100.941 20.1702 103.175 21.7478C105.408 23.3254 107.955 24.3437 110.62 24.7246C110.533 20.972 110.347 17.1914 109.383 13.5858C108.419 9.98016 106.611 6.48658 103.818 4.1972C101.026 1.90782 97.0766 0.955665 93.7656 2.32089" fill="#263238"/>
<path d="M114.855 87.588C116.058 87.756 122.787 129.315 96.9571 133.929C72.5105 138.304 64.9512 95.6043 64.9512 95.6043C64.9512 95.6043 81.4195 82.8832 114.855 87.588Z" fill="#FFBE9D"/>
<path d="M100.055 30.6892C100.208 30.9902 101.537 30.5421 103.193 30.3461C104.848 30.1501 106.231 30.2481 106.311 29.919C106.391 29.59 104.981 28.9179 103.06 29.1559C101.138 29.394 99.9018 30.4511 100.055 30.6892Z" fill="#263238"/>
<path d="M80.3139 33.9099C80.3738 33.8539 80.3671 33.7349 80.3139 33.5459V33.8609C81.2686 33.3501 82.2773 32.96 83.3191 32.6987C85.1541 32.2786 86.7098 32.7407 86.8361 32.4257C86.8893 32.2786 86.5569 31.9496 85.8788 31.7256C84.9819 31.404 84.0188 31.3459 83.093 31.5575C82.4804 31.6561 81.8932 31.885 81.3674 32.2305C80.8415 32.576 80.3881 33.0307 80.0347 33.5669L79.915 33.8189L80.0148 33.8749C80.1477 33.9519 80.2608 33.9519 80.3139 33.9099Z" fill="#263238"/>
<path d="M69.1601 32.6985C67.6524 32.7179 66.1456 32.6172 64.6524 32.3974C63.1488 32.3003 61.6548 32.0779 60.1846 31.7323C61.6922 31.7131 63.199 31.8137 64.6923 32.0333C66.1953 32.136 67.6889 32.3584 69.1601 32.6985Z" fill="#92E3A9"/>
<path d="M66.9653 35.3524C65.8456 35.6093 64.6941 35.6755 63.5546 35.5484C62.4109 35.5454 61.2751 35.3492 60.1904 34.9673C60.1904 34.8693 61.7129 35.0793 63.5745 35.1843C65.4361 35.2893 66.9586 35.2403 66.9653 35.3524Z" fill="#92E3A9"/>
<path d="M100.048 13.5854C100.021 13.7355 99.9766 13.8813 99.915 14.0195C99.7526 14.4242 99.528 14.798 99.2502 15.1257C98.1403 16.2669 96.6766 16.948 95.1281 17.044C94.0775 17.1677 93.0161 17.1489 91.97 16.988C90.8464 16.841 89.6564 16.6239 88.4064 16.5259C87.1081 16.3705 85.7932 16.5212 84.557 16.967C83.2703 17.5518 82.1582 18.493 81.3391 19.6905C80.4282 20.8807 79.6637 22.1549 78.7661 23.2821C78.3237 23.839 77.8317 24.3501 77.2968 24.8083C76.7711 25.2359 76.1944 25.589 75.5815 25.8585C74.4454 26.3033 73.2692 26.6247 72.0711 26.8176C71.0443 26.9831 70.0325 27.2384 69.046 27.5808C67.6165 28.0532 66.3934 29.0459 65.5954 30.3812C65.349 30.8973 65.1978 31.458 65.15 32.0335C65.131 31.8825 65.131 31.7295 65.15 31.5784C65.1921 31.1407 65.3069 30.7142 65.489 30.3182C66.2585 28.8955 67.4988 27.8213 68.9729 27.3007C69.9687 26.938 70.9918 26.664 72.0312 26.4816C73.2058 26.2834 74.3578 25.9573 75.4684 25.5084C76.6679 24.9599 77.7172 24.1029 78.5201 23.016C79.3977 21.9168 80.1556 20.6356 81.0798 19.4244C81.9455 18.1905 83.1095 17.2234 84.4506 16.6239C85.7327 16.1671 87.0954 16.0164 88.4397 16.1829C90.9861 16.4209 93.2133 17.058 95.0882 16.785C96.5987 16.7309 98.0424 16.1159 99.1637 15.0487C99.5288 14.6122 99.8272 14.1186 100.048 13.5854Z" fill="#455A64"/>
<path d="M44.5673 90.3252C44.768 90.2807 44.9656 90.2222 45.159 90.1502C45.6946 89.8913 46.1174 89.4286 46.3424 88.855C46.7118 87.9487 46.7308 86.9264 46.3956 86.0055C46.0765 84.9133 45.4582 83.7511 44.9861 82.3649C43.773 79.1341 43.4436 75.61 44.0354 72.1922C44.4397 70.1809 45.2717 68.2923 46.4687 66.6683C47.1112 65.8161 47.863 65.0621 48.7026 64.4279C49.5762 63.8005 50.5182 63.2857 51.5083 62.8947C52.4767 62.5307 53.3769 61.9904 54.1677 61.2984C54.5186 60.9461 54.792 60.5173 54.9689 60.042C55.1458 59.5667 55.2218 59.0565 55.1916 58.547C55.0786 56.5096 54.0214 54.6403 54.0547 52.624C54.0731 51.6445 54.3148 50.684 54.7594 49.8235C55.1722 49.0332 55.6819 48.3035 56.2753 47.6532C57.3468 46.5178 58.4884 45.4583 59.6926 44.4816C61.8201 42.6333 63.1432 40.624 63.4956 39.0417C63.6766 38.2219 63.6766 37.3692 63.4956 36.5493C63.5216 36.5995 63.5396 36.6539 63.5488 36.7103C63.5488 36.8154 63.6219 36.9764 63.6618 37.1864C63.7586 37.8146 63.7383 38.4567 63.6019 39.0767C63.3743 40.0546 62.9653 40.9754 62.3986 41.7862C61.6585 42.8568 60.7966 43.8279 59.8322 44.6777C58.6483 45.6613 57.5246 46.7229 56.4681 47.8562C55.8971 48.4875 55.4056 49.1934 55.0054 49.9565C54.5898 50.7665 54.362 51.6686 54.3406 52.589C54.3746 53.5627 54.5471 54.5256 54.8525 55.4454C55.1869 56.432 55.41 57.4565 55.5174 58.4979C55.5525 59.0591 55.4701 59.6215 55.2759 60.1454C55.0817 60.6692 54.7806 61.1417 54.3938 61.5294C53.5753 62.2529 52.641 62.8172 51.6346 63.1957C50.6686 63.6011 49.7514 64.1251 48.9021 64.757C48.0878 65.3714 47.3584 66.1018 46.7347 66.9273C45.5656 68.5054 44.7497 70.341 44.3479 72.2972C43.7576 75.6547 44.0566 79.1185 45.2122 82.3089C45.6643 83.7091 46.2693 84.8503 46.5818 85.9845C46.7331 86.5108 46.8049 87.0589 46.7945 87.6088C46.7742 88.0756 46.6633 88.533 46.4687 88.953C46.2167 89.5452 45.7569 90.0119 45.1856 90.2552C44.9876 90.3297 44.7757 90.3537 44.5673 90.3252Z" fill="#455A64"/>
</svg>
