<svg width="20" height="21" viewBox="0 0 20 21" fill="none" xmlns="http://www.w3.org/2000/svg">
<g id="fxemoji:lock">
<path id="Vector" d="M14.717 14.3183C14.1885 14.3183 13.76 13.8684 13.76 13.3134V7.46194C13.76 5.48978 12.2319 3.88525 10.3536 3.88525C8.47539 3.88525 6.94727 5.48974 6.94727 7.46194V10.8653C6.94727 11.4203 6.51879 11.8702 5.99023 11.8702C5.46168 11.8702 5.0332 11.4203 5.0332 10.8653V7.46194C5.0332 4.38154 7.41992 1.87549 10.3536 1.87549C13.2873 1.87549 15.6741 4.38154 15.6741 7.46194V13.3134C15.6741 13.8684 15.2456 14.3183 14.717 14.3183Z" fill="#B1B4B5"/>
<path id="Vector_2" d="M16.1763 20.4034H4.53027C3.44297 20.4034 2.56152 19.4779 2.56152 18.3362V11.2664C2.56152 10.1247 3.44297 9.19922 4.53027 9.19922H16.1763C17.2636 9.19922 18.145 10.1247 18.145 11.2664V18.3361C18.145 19.4779 17.2636 20.4034 16.1763 20.4034Z" fill="#FFB636"/>
<path id="Vector_3" d="M4.26953 18.7374H4.1709C3.86023 18.7374 3.6084 18.473 3.6084 18.1468V11.4559C3.6084 11.1297 3.86023 10.8652 4.1709 10.8652H4.26953C4.5802 10.8652 4.83203 11.1297 4.83203 11.4559V18.1468C4.83203 18.473 4.5802 18.7374 4.26953 18.7374Z" fill="#FFD469"/>
</g>
</svg>
