<svg xmlns="http://www.w3.org/2000/svg" viewBox="0 0 48 50" fill="none">
  <path d="M35.2306 34.0916C33.9721 34.0916 32.9519 33.0204 32.9519 31.699V17.7669C32.9519 13.0713 29.3136 9.25098 24.8415 9.25098C20.3695 9.25098 16.7311 13.0712 16.7311 17.7669V25.8701C16.7311 27.1915 15.7109 28.2627 14.4525 28.2627C13.194 28.2627 12.1738 27.1915 12.1738 25.8701V17.7669C12.1738 10.4326 17.8565 4.46582 24.8415 4.46582C31.8265 4.46582 37.5092 10.4326 37.5092 17.7669V31.699C37.5092 33.0204 36.489 34.0916 35.2306 34.0916Z" fill="#B1B4B5"/>
  <path d="M38.7057 48.5799H10.9771C8.38823 48.5799 6.28955 46.3763 6.28955 43.658V26.8252C6.28955 24.1069 8.38823 21.9033 10.9771 21.9033H38.7057C41.2945 21.9033 43.3932 24.1069 43.3932 26.8252V43.6579C43.3932 46.3763 41.2945 48.5799 38.7057 48.5799Z" fill="#FFB636"/>
  <path d="M10.3568 44.6135H10.122C9.38232 44.6135 8.78271 43.9839 8.78271 43.2072V27.2764C8.78271 26.4997 9.38232 25.8701 10.122 25.8701H10.3568C11.0965 25.8701 11.6961 26.4997 11.6961 27.2764V43.2072C11.6961 43.9839 11.0965 44.6135 10.3568 44.6135Z" fill="#FFD469"/>
</svg>