<?xml version="1.0" encoding="UTF-8"?><svg version="1.1" width="30px" height="30px" viewBox="0 0 30.0 30.0" xmlns="http://www.w3.org/2000/svg" xmlns:xlink="http://www.w3.org/1999/xlink"><defs><clipPath id="i0"><path d="M2655,0 L2655,1581 L0,1581 L0,0 L2655,0 Z"></path></clipPath><clipPath id="i1"><path d="M15,0 C23.2842712,0 30,6.71572875 30,15 C30,23.2842712 23.2842712,30 15,30 C6.71572875,30 0,23.2842712 0,15 C0,6.71572875 6.71572875,0 15,0 Z"></path></clipPath><clipPath id="i2"><path d="M2.8125,0 C5.0375,0 5.625,2.453125 5.625,3.75 L5.625,4.375 C5.625,4.54758898 5.48508898,4.6875 5.3125,4.6875 C5.13991102,4.6875 5,4.54758898 5,4.375 L5,3.75 C5,3.621875 4.96875,0.625 2.8125,0.625 C0.65625,0.625 0.625,4.028125 0.625,4.0625 L0.625,5 C0.625,5.17258898 0.485088984,5.3125 0.3125,5.3125 C0.139911016,5.3125 0,5.17258898 0,5 L0,4.0625 C0,2.65625 0.5875,0 2.8125,0 Z"></path></clipPath><clipPath id="i3"><path d="M0.3125,0 C0.485088984,0 0.625,0.139911016 0.625,0.3125 L0.625,1.25 C0.625,1.42258898 0.485088984,1.5625 0.3125,1.5625 C0.139911016,1.5625 0,1.42258898 0,1.25 L0,0.3125 C0,0.139911016 0.139911016,0 0.3125,0 Z"></path></clipPath><clipPath id="i4"><path d="M12.796875,0 L13.390625,0.196875 C12.390625,3.196875 10.6375,4.696875 9.328125,5.428125 C8.52520609,5.90154741 7.63211174,6.2017293 6.70625,6.309375 C2.61932398,6.309375 0.689657955,2.0648675 0.157518126,0.642292194 L0.0895322102,0.455075346 C0.0604392621,0.372359492 0.0386301892,0.306597671 0.0238073634,0.26055818 L0.00338852221,0.195595877 C0.00150848605,0.189424979 0.000382653061,0.18565051 0,0.184375 L0.6,0.0125 C0.61875,0.059375 2.29375,5.684375 6.6875,5.684375 C6.84375,5.684375 11.015625,5.34375 12.796875,0 Z"></path></clipPath><clipPath id="i5"><path d="M0.3125,0 C0.485088984,0 0.625,0.139911016 0.625,0.3125 L0.625,1.5625 C0.625,1.73508898 0.485088984,1.875 0.3125,1.875 C0.139911016,1.875 0,1.73508898 0,1.5625 L0,0.3125 C0,0.139911016 0.139911016,0 0.3125,0 Z"></path></clipPath><clipPath id="i6"><path d="M9.375,0 L5.415625,6.93125 L4.396875,8.7125 C2.9137909,8.50520972 1.44525251,8.20461337 0,7.8125 L0.209375,7.6375 L9.375,0 Z"></path></clipPath><clipPath id="i7"><path d="M4.978125,0 L9.95625,8.7125 C8.307059,8.94503406 6.64362876,9.06198584 4.978125,9.0625 C3.31262124,9.06198584 1.649191,8.94503406 0,8.7125 L4.978125,0 Z"></path></clipPath><clipPath id="i8"><path d="M0,0 L3.30625,2.753125 L9.375,7.8125 C7.92974749,8.20461337 6.4612091,8.50520972 4.978125,8.7125 L1.875,3.296875 L0,0 Z"></path></clipPath></defs><g transform="translate(-896.0 -925.0)"><g clip-path="url(#i0)"><g transform="translate(896.0 924.9999999999982)"><g clip-path="url(#i1)"><polygon points="0,0 30,0 30,30 0,30 0,0" stroke="none" fill="#FFFFFF"></polygon><g transform="translate(6.0 5.0)"><g transform="translate(6.562500000000005 14.6875)"><g clip-path="url(#i2)"><polygon points="0,0 5.625,0 5.625,5.3125 0,5.3125 0,0" stroke="none" fill="#3F5B73"></polygon></g></g><g transform="translate(9.062500000000007 0.0)"><g clip-path="url(#i3)"><polygon points="0,0 0.625,0 0.625,1.5625 0,1.5625 0,0" stroke="none" fill="#3F5B73"></polygon></g></g><g transform="translate(2.6875 9.003124999999272)"><g clip-path="url(#i4)"><polygon points="0,0 13.390625,0 13.390625,6.309375 0,6.309375 0,0" stroke="none" fill="#3F5B73"></polygon></g></g><g transform="translate(9.062500000000007 14.0625)"><g clip-path="url(#i5)"><polygon points="0,0 0.625,0 0.625,1.875 0,1.875 0,0" stroke="none" fill="#3F5B73"></polygon></g></g><g transform="translate(0.0 0.9375)"><g clip-path="url(#i6)"><polygon points="0,0 9.375,0 9.375,8.7125 0,8.7125 0,0" stroke="none" fill="#F3CC53"></polygon></g></g><g transform="translate(4.396875000000003 0.9375000000000009)"><g clip-path="url(#i7)"><polygon points="0,0 9.95625,0 9.95625,9.0625 0,9.0625 0,0" stroke="none" fill="#F3CC53"></polygon></g></g><g transform="translate(9.375000000000007 0.9375000000000018)"><g clip-path="url(#i8)"><polygon points="0,0 9.375,0 9.375,8.7125 0,8.7125 0,0" stroke="none" fill="#F3CC53"></polygon></g></g></g></g></g></g></g></svg>