<?xml version="1.0" encoding="UTF-8"?><svg version="1.1" width="30px" height="30px" viewBox="0 0 30.0 30.0" xmlns="http://www.w3.org/2000/svg" xmlns:xlink="http://www.w3.org/1999/xlink"><defs><clipPath id="i0"><path d="M2655,0 L2655,1581 L0,1581 L0,0 L2655,0 Z"></path></clipPath><clipPath id="i1"><path d="M15,0 C23.2842712,0 30,6.71572875 30,15 C30,23.2842712 23.2842712,30 15,30 C6.71572875,30 0,23.2842712 0,15 C0,6.71572875 6.71572875,0 15,0 Z"></path></clipPath><clipPath id="i2"><path d="M9.53352602,0 C10.5434427,0 11.3650241,0.821660739 11.3650241,1.8315774 L11.3650241,7.22244153 C11.3650241,8.2323582 10.5433633,9.05401894 9.53344667,9.05401894 L5.66596773,9.05401894 L4.37051305,11.4708759 C4.29485361,11.6120777 4.15000169,11.6975765 3.99273162,11.6975765 C3.97694113,11.6975765 3.96103162,11.6967433 3.94508243,11.6949976 C3.76987945,11.6757951 3.62590037,11.5537164 3.57829086,11.3840282 L2.92417591,9.05401894 L1.8315774,9.05401894 C0.821660739,9.05401894 0,8.2323582 0,7.22244153 L0,1.8315774 C0,0.821660739 0.821660739,0 1.8315774,0 Z"></path></clipPath><clipPath id="i3"><path d="M2.19587411,0 C2.38488385,0 2.55675417,0.118825394 2.62356618,0.295655037 L4.14742747,4.33460755 L4.17056696,4.42049542 C4.18999671,4.53665753 4.16399558,4.6572175 4.0956918,4.75599136 C4.01031209,4.87945868 3.86974502,4.95313439 3.71965605,4.95313439 L3.56333817,4.95313439 C3.37337624,4.95313439 3.20122819,4.83355518 3.13493196,4.65557497 L2.76881485,3.6733115 L1.39801812,3.6733115 L1.04205771,4.65220263 C0.976554964,4.83224592 0.803891152,4.95313439 0.612421586,4.95313439 L0.457135244,4.95313439 C0.30692725,4.95313439 0.166280832,4.87929998 0.0809407912,4.75567396 C-0.00439924974,4.63208762 -0.0235620762,4.47438113 0.0296812222,4.33389341 L1.5618345,0.295020244 C1.62876553,0.118547672 1.80051683,0 1.98924885,0 Z M2.08319828,1.77345413 C1.98059979,2.06383245 1.86772558,2.38261777 1.76929293,2.65855454 L2.39940475,2.65855454 Z"></path></clipPath><clipPath id="i4"><path d="M0.111485595,0 C0.300495337,0 0.472365657,0.118825394 0.539177665,0.295655037 L2.06303895,4.33460755 L2.08618257,4.42049542 C2.10562248,4.53665753 2.07964674,4.6572175 2.01134297,4.75599136 C1.92596325,4.87945868 1.78539618,4.95313439 1.63530721,4.95313439 L1.47898933,4.95313439 C1.2890274,4.95313439 1.11687936,4.83355518 1.05058312,4.65557497 L0.68446601,3.6733115 L0,3.6733115 L0,2.65855454 L0.315055911,2.65855454 L0,1.77666777 L0,0 Z"></path></clipPath><clipPath id="i5"><path d="M9.53352602,0 C10.5434427,0 11.3650241,0.821660739 11.3650241,1.8315774 L11.3650241,7.22244153 C11.3650241,8.23239787 10.5433633,9.05405861 9.53344667,9.05405861 L8.44084816,9.05405861 L7.78673321,11.3840679 C7.73916338,11.5536767 7.5951843,11.6757951 7.41998131,11.6949976 C7.40403213,11.6967433 7.38808294,11.6976162 7.37233213,11.6976162 C7.21506206,11.6976162 7.07021014,11.6120777 6.99451102,11.4708759 L5.69901667,9.05401894 L1.86454699,9.05310642 C0.853876505,9.05310642 0,8.19922992 0,7.18848009 L0,1.8315774 C0,0.821660739 0.821660739,0 1.8315774,0 Z"></path></clipPath><clipPath id="i6"><path d="M0.495892688,0 C0.748104051,0 0.953301025,0.205196974 0.953301025,0.457408337 L0.953301025,1.9399287 L1.32521062,1.9399287 C1.57742198,1.9399287 1.78261896,2.145086 1.78261896,2.39729737 C1.78261896,2.64950873 1.57742198,2.85474538 1.32521062,2.85474538 L0.953301025,2.85474538 L0.953301025,4.85406694 C0.953301025,5.10627831 0.748104051,5.31147528 0.495892688,5.31147528 L0.457408337,5.31147528 C0.205196974,5.31147528 0,5.10627831 0,4.85406694 L0,0.457408337 C0,0.205196974 0.205196974,0 0.457408337,0 Z"></path></clipPath><clipPath id="i7"><path d="M2.38305945,0 C2.50978009,0 2.63193815,0.0532829731 2.71811136,0.146161186 C2.80460196,0.239277446 2.84879945,0.365402965 2.83939657,0.492202951 C2.81503638,0.819954731 2.75231085,1.13334431 2.65296568,1.4236036 C2.53997245,1.75377553 2.3834562,2.06403082 2.18774145,2.34576008 C1.99385173,2.62483114 1.76028743,2.8835888 1.49351549,3.11489166 C1.25943542,3.31782718 0.999051087,3.50513092 0.719702306,3.67164517 C0.647097808,3.71489047 0.566875789,3.73556093 0.487407587,3.73556093 C0.341048028,3.73556093 0.197386342,3.66533691 0.109150056,3.53663254 L0.0801479311,3.49433943 L0.0420723867,3.42723732 C-0.000645402029,3.33450797 -0.0115321093,3.22913861 0.0126217805,3.12861907 C0.0427347936,3.00332671 0.124821518,2.89620532 0.237854422,2.83463036 C0.415517232,2.73790371 0.58710983,2.62645779 0.747910939,2.50334754 C0.954179127,2.34536333 1.13949913,2.16409013 1.29867358,1.9646063 C1.4561817,1.76718554 1.58790134,1.5467932 1.6900634,1.30957883 C1.74390182,1.18464355 1.78766289,1.05256685 1.82102922,0.914816674 L0.503396447,0.914816674 C0.251185084,0.914816674 0.0459484353,0.709619699 0.0459484353,0.457408337 C0.0459484353,0.205196974 0.251185084,0 0.503396447,0 Z"></path></clipPath></defs><g transform="translate(-747.0 -1016.0)"><g clip-path="url(#i0)"><g transform="translate(747.0 1015.999999999998)"><g clip-path="url(#i1)"><polygon points="0,0 30,0 30,30 0,30 0,0" stroke="none" fill="#FFFFFF"></polygon><g transform="translate(5.0 6.0)"><g transform="translate(0.0 6.334801954370247)"><g clip-path="url(#i2)"><polygon points="0,0 11.3650241,0 11.3650241,11.6975765 0,11.6975765 0,0" stroke="none" fill="#3F5B73"></polygon></g></g><g transform="translate(3.5982028724287574 8.385264064145108)"><g clip-path="url(#i3)"><polygon points="4.40619763e-16,0 4.17683014,0 4.17683014,4.95313439 4.40619763e-16,4.95313439 4.40619763e-16,0" stroke="none" fill="#F3CC53"></polygon></g></g><g transform="translate(5.682591385456361 8.385264064145108)"><g clip-path="url(#i4)"><polygon points="0,0 2.09245403,0 2.09245403,4.95313439 0,4.95313439 0,0" stroke="none" fill="#F3CC53"></polygon></g></g><g transform="translate(8.634975927443104 0.0)"><g clip-path="url(#i5)"><polygon points="0,0 11.3650241,0 11.3650241,11.6976162 0,11.6976162 0,0" stroke="none" fill="#F3CC53"></polygon></g></g><g transform="translate(15.06380665779258 2.1441338144542637)"><g clip-path="url(#i6)"><polygon points="0,0 1.78261896,0 1.78261896,5.31147528 0,5.31147528 0,0" stroke="none" fill="#3F5B73"></polygon></g></g><g transform="translate(11.7886243983011 2.569643781702715)"><g clip-path="url(#i7)"><polygon points="-1.71737624e-16,0 2.84064144,0 2.84064144,3.73556093 -1.71737624e-16,3.73556093 -1.71737624e-16,0" stroke="none" fill="#3F5B73"></polygon></g></g></g></g></g></g></g></svg>