<?xml version="1.0" encoding="UTF-8"?><svg version="1.1" width="30px" height="30px" viewBox="0 0 30.0 30.0" xmlns="http://www.w3.org/2000/svg" xmlns:xlink="http://www.w3.org/1999/xlink"><defs><clipPath id="i0"><path d="M2655,0 L2655,1581 L0,1581 L0,0 L2655,0 Z"></path></clipPath><clipPath id="i1"><path d="M15,0 C23.2842712,0 30,6.71572875 30,15 C30,23.2842712 23.2842712,30 15,30 C6.71572875,30 0,23.2842712 0,15 C0,6.71572875 6.71572875,0 15,0 Z"></path></clipPath><clipPath id="i2"><path d="M9.41826391,4.16647382 C13.2304614,-0.733888561 15.2162631,-0.100477603 15.7331571,0.206532633 C16.2810341,0.532968168 16.4753567,1.18194025 16.2111308,1.7803996 C16.0363031,2.16901002 16.1683464,2.43713484 16.4559314,2.57704573 C17.4780224,3.09000591 17.742283,4.30248573 17.1204994,5.1302193 C16.809625,5.542154 16.9339399,5.76752925 17.2215249,6.0123646 C17.944334,6.62248609 18.1347576,7.83883008 17.1282626,8.68212478 C16.9028873,8.86868423 16.8601029,9.13680906 17.120395,9.4866385 C17.7538407,10.3259994 17.4506947,11.5346151 16.479186,12.0242509 C16.1683116,12.1757544 16.0362335,12.443914 16.211096,12.8286254 C16.4753219,13.4310186 16.2810341,14.0799558 15.7331223,14.4063914 C15.2162631,14.7133668 13.2304614,15.3468126 9.4182291,10.4464502 C9.29387934,10.291013 9.10345571,10.213277 8.91303208,10.213277 C8.71870946,10.213277 8.52835546,10.291013 8.40783506,10.4464502 C7.03215488,12.2146398 3.99710857,15.545069 2.08904291,14.4063914 C1.57221856,14.0954822 1.31962005,13.4892597 1.65385355,12.7431263 C1.77426952,12.4749666 1.65385355,12.1757544 1.3701676,12.0358435 C0.344212426,11.5189843 0.0838507571,10.3104035 0.701735401,9.48266989 C0.966030867,9.13680906 0.9193823,8.86864942 0.693972244,8.68212478 C-0.300825863,7.84662805 -0.129862344,6.63028406 0.600709922,6.00850043 C0.934908614,5.72871346 0.954368725,5.46055382 0.775607237,5.22351644 C-0.0093767531,4.18593393 0.453070687,3.03952798 1.34687813,2.58874269 C1.66165152,2.43327067 1.78596647,2.16514584 1.61110397,1.77653543 C1.34687813,1.18197507 1.54506491,0.533002981 2.08907772,0.206567446 C2.60983587,-0.10044279 4.59563754,-0.733888561 8.40786987,4.16647382 C8.52835546,4.32191103 8.71877909,4.39964704 8.91306689,4.39964704 C9.10345571,4.39964704 9.29387934,4.32191103 9.41826391,4.16647382 Z"></path></clipPath><clipPath id="i3"><path d="M7.76830935,0 C8.09088071,0 8.35120757,0.260361669 8.35120757,0.582898219 C8.35120757,0.905434769 8.09088071,1.16579644 7.76830935,1.16579644 C6.9172863,1.16579644 6.54423701,1.44171923 6.05070213,1.74869466 C6.54423701,2.05956906 6.9172863,2.33159288 7.76830935,2.33159288 C8.09088071,2.33159288 8.35120757,2.59195454 8.35120757,2.91449109 C8.35120757,3.23702764 8.09088071,3.49738931 7.76830935,3.49738931 C6.63360035,3.49738931 6.01957988,3.1087789 5.526045,2.7940055 C5.10244816,2.52588068 4.79550755,2.33155806 4.17755328,2.33155806 C3.55576965,2.33155806 3.2526584,2.52584587 2.82906155,2.7940055 C2.33552667,3.1087789 1.72147139,3.49738931 0.582898219,3.49738931 C0.260326856,3.49738931 0,3.23702764 0,2.91449109 C0,2.59195454 0.260326856,2.33159288 0.582898219,2.33159288 C1.43392126,2.33159288 1.81086954,2.05567008 2.30050543,1.74869466 C1.80700537,1.43782025 1.43392126,1.16579644 0.582898219,1.16579644 C0.260326856,1.16579644 0,0.905434769 0,0.582898219 C0,0.260361669 0.260326856,0 0.582898219,0 C1.72147139,0 2.33552667,0.388610417 2.82906155,0.70338381 C3.2526584,0.971508635 3.55576965,1.16583125 4.17755328,1.16583125 C4.79547273,1.16583125 5.10244816,0.971543448 5.526045,0.70338381 C6.01957988,0.388610417 6.63363516,0 7.76830935,0 Z"></path></clipPath></defs><g transform="translate(-747.0 -561.0)"><g clip-path="url(#i0)"><g transform="translate(747.0 560.9999999999982)"><g clip-path="url(#i1)"><polygon points="0,0 30,0 30,30 0,30 0,0" stroke="none" fill="#FFFFFF"></polygon><g transform="translate(6.0 8.000007139649824)"><g clip-path="url(#i2)"><polygon points="1.11022302e-16,1.11022302e-16 17.8238927,1.11022302e-16 17.8238927,14.6384089 1.11022302e-16,14.6384089 1.11022302e-16,1.11022302e-16" stroke="none" fill="#F3CC53"></polygon></g><g transform="translate(4.735478802814214 5.557784753440501)"><g clip-path="url(#i3)"><polygon points="0,0 8.35120757,0 8.35120757,3.49738931 0,3.49738931 0,0" stroke="none" fill="#3F5B73"></polygon></g></g></g></g></g></g></g></svg>