<?xml version="1.0" encoding="UTF-8"?><svg version="1.1" width="30px" height="30px" viewBox="0 0 30.0 30.0" xmlns="http://www.w3.org/2000/svg" xmlns:xlink="http://www.w3.org/1999/xlink"><defs><clipPath id="i0"><path d="M2655,0 L2655,1581 L0,1581 L0,0 L2655,0 Z"></path></clipPath><clipPath id="i1"><path d="M15,0 C23.2842712,0 30,6.71572875 30,15 C30,23.2842712 23.2842712,30 15,30 C6.71572875,30 0,23.2842712 0,15 C0,6.71572875 6.71572875,0 15,0 Z"></path></clipPath><clipPath id="i2"><path d="M1.27783719,0 L1.30154938,0.0088972357 C1.66001538,0.146282057 5.96416901,1.89673099 6.08712555,6.7846226 C6.18671662,10.7425331 5.77879899,12.7472465 5.77879899,12.7472465 L2.20384413,12.7472465 L0,0.903561712 L1.27783719,0 Z"></path></clipPath><clipPath id="i3"><path d="M5.90490117,0 C7.26101416,0.087315536 7.95034464,1.63829627 7.95034464,1.63829627 C7.95034464,1.63829627 9.48016419,1.70337202 10.9792179,4.3538608 C12.0071404,6.17133882 11.5174113,8.52614486 11.0590125,10.1840284 L10.9459619,10.5832658 C10.7800543,11.1582003 10.6367047,11.6206662 10.5975976,11.9055761 C10.5503994,12.2494487 10.5324966,12.8259782 10.5302518,13.4576372 L10.5309252,13.8849623 C10.5313742,13.956895 10.5319791,14.0290212 10.5327211,14.1010975 L10.53867,14.5310076 C10.5569095,15.5945434 10.5975976,16.5372544 10.5975976,16.5372544 L2.12465208,16.5372544 C2.12465208,16.5372544 1.87662459,14.3893949 2.83257562,12.3254611 C3.51962851,10.8420086 4.91510548,9.31888827 5.64571432,8.57947647 L5.82032289,8.40490571 C6.00433023,8.22324391 6.11569114,8.12080711 6.11569114,8.12080711 C5.40535357,8.10955881 5.1254816,8.01505259 4.80339,7.86466442 C4.24102658,7.6020501 3.71055902,7.40841506 3.2546692,7.79948594 C2.79877938,8.19055681 2.35922269,8.65261009 1.86121597,8.69873323 C1.29720897,8.75096847 0.714249358,8.70381808 0.258000001,8.03030713 C-0.198249356,7.35684753 -0.0553086868,6.27567575 0.734177845,5.7790558 C1.29561674,5.42589013 2.60257623,4.49726373 2.92846863,3.75857429 C3.25436103,3.01993622 3.84091598,2.95475774 4.40579614,2.7592223 C4.97067629,2.56368686 5.92524055,1.95956608 5.92524055,1.95956608 Z"></path></clipPath><clipPath id="i4"><path d="M11.1615707,0 C11.8131065,-5.16637335e-16 12.3412806,0.528174129 12.3412806,1.17970993 C12.3412806,1.83124574 11.8131065,2.35941987 11.1615707,2.35941987 L1.17970993,2.35941987 C0.528174129,2.35941987 7.9790124e-17,1.83124574 0,1.17970993 C-7.9790124e-17,0.528174129 0.528174129,1.19685186e-16 1.17970993,0 L11.1615707,0 Z"></path></clipPath><clipPath id="i5"><path d="M12.9779906,0 C13.7565516,7.9025276e-17 14.3876999,0.631148365 14.3876999,1.40970933 C14.3876999,2.18827029 13.7565516,2.81941866 12.9779906,2.81941866 L1.40970933,2.81941866 C0.631148365,2.81941866 9.53462193e-17,2.18827029 0,1.40970933 C-9.53462193e-17,0.631148365 0.631148365,1.43019329e-16 1.40970933,0 L12.9779906,0 Z"></path></clipPath></defs><g transform="translate(-747.0 -286.0)"><g clip-path="url(#i0)"><g transform="translate(747.0 285.9999999999982)"><g clip-path="url(#i1)"><polygon points="0,0 30,0 30,30 0,30 0,0" stroke="none" fill="#FFFFFF"></polygon><g transform="translate(7.999999999999999 4.0)"><g transform="translate(8.344899865143361 0.7347859167766728)"><g clip-path="url(#i2)"><polygon points="0,0 6.10278826,0 6.10278826,12.7472465 0,12.7472465 0,0" stroke="none" fill="#F3CC53"></polygon></g></g><g transform="translate(0.3945552253808273 0.0)"><g clip-path="url(#i3)"><polygon points="1.11022302e-16,0 11.5866254,0 11.5866254,16.5372544 1.11022302e-16,16.5372544 1.11022302e-16,0" stroke="none" fill="#3F5B73"></polygon></g></g><g transform="translate(0.0 16.33437413654382)"><g transform="translate(1.0232353581745883 0.0)"><g clip-path="url(#i4)"><polygon points="0,0 12.3412806,0 12.3412806,2.35941987 0,2.35941987 0,0" stroke="none" fill="#3F5B73"></polygon></g></g><g transform="translate(0.0 2.1533552048730655)"><g clip-path="url(#i5)"><polygon points="0,0 14.3876999,0 14.3876999,2.81941866 0,2.81941866 0,0" stroke="none" fill="#3F5B73"></polygon></g></g></g></g></g></g></g></g></svg>