<?xml version="1.0" encoding="UTF-8"?><svg version="1.1" width="30px" height="30px" viewBox="0 0 30.0 30.0" xmlns="http://www.w3.org/2000/svg" xmlns:xlink="http://www.w3.org/1999/xlink"><defs><clipPath id="i0"><path d="M2655,0 L2655,1581 L0,1581 L0,0 L2655,0 Z"></path></clipPath><clipPath id="i1"><path d="M15,0 C23.2842712,0 30,6.71572875 30,15 C30,23.2842712 23.2842712,30 15,30 C6.71572875,30 0,23.2842712 0,15 C0,6.71572875 6.71572875,0 15,0 Z"></path></clipPath><clipPath id="i2"><path d="M13.8442948,0.26460907 C14.2929676,0.514703406 14.7737828,0.995078268 14.9670775,1.91708098 C14.8385437,1.88446297 14.7064907,1.86775301 14.5738834,1.8673263 C5.44147735,1.83694512 1.58967232,7.01187248 0.884740925,8.09282599 L0.270953063,7.37996907 C-0.0980603434,6.95101112 -0.0891816041,6.31419772 0.291647489,5.89569441 C1.80762425,4.22781175 5.99802531,0.379088872 12.6607498,0.00482798037 C13.0719224,-0.0226337079 13.4824211,0.0674683007 13.8442948,0.26460907 Z"></path></clipPath><clipPath id="i3"><path d="M12.8307026,1.25969803 C6.16797816,1.63395892 1.97757709,5.48268181 0.461600332,7.15056446 L0.417129332,7.07439136 C-0.106835916,6.17176215 -0.159672748,5.74554504 0.387188461,4.85656535 C0.404800738,4.8279454 0.423293629,4.79932545 0.44178652,4.77114581 C1.01946921,3.89581563 3.08362811,2.16408847 5.44191203,1.04130579 C10.5666444,-1.39843491 12.7245887,1.2068612 12.8307026,1.25969803 Z"></path></clipPath><clipPath id="i4"><path d="M2.25745363,0.000362761941 C4.37885243,0.828580099 5.13441912,1.77259816 5.73147532,2.27146591 C5.96933178,2.46998499 6.04442474,2.80339054 5.914643,3.08471281 L5.56944237,3.83235398 C5.42285233,4.15048333 5.05978099,4.30665531 4.72801582,4.19428628 C4.17719185,3.26479835 2.7188953,1.23586401 0,0.178687069 C0.745952445,0.0544068101 1.50124,-0.0052560452 2.25745363,0.000362761941 Z"></path></clipPath><clipPath id="i5"><path d="M0,0 C0.944197148,0.00826592406 1.88528022,0.109586104 2.80959853,0.302490862 C2.8144419,0.303371475 2.81972559,0.304692396 2.82456896,0.305132703 C3.43439406,0.409485446 3.81525956,0.984966604 3.65762967,1.57850035 L3.47402168,2.27110315 C2.87696549,1.7722354 2.12139879,0.828217337 0,0 Z"></path></clipPath><clipPath id="i6"><path d="M2.27110315,0 C4.98999845,1.05717694 6.448295,3.08611128 6.99911897,4.01559921 C7.070889,4.13712392 7.12724829,4.23971544 7.16907745,4.31897069 C7.22449979,4.42449325 7.19903852,4.55436405 7.10787479,4.6311483 L6.33733766,5.27972041 C6.2804541,5.32733967 6.20558328,5.34768658 6.13242196,5.33540835 C6.05926064,5.32313012 5.99513408,5.2794561 5.95691247,5.2158759 C5.41295407,4.32496012 4.73500405,3.52315242 3.94691133,2.83865878 C2.03245679,1.16549245 0.0378663961,0.604541416 0,0.59397405 C0.737488964,0.328113142 1.4974557,0.129316335 2.27066284,0 Z"></path></clipPath><clipPath id="i7"><path d="M1.156246,0 C1.94433872,0.684493634 2.62228874,1.48630134 3.16624714,2.37721712 L3.59730763,9.22952501 C3.59730763,9.55277562 3.33539024,9.81489018 3.01213971,9.81513322 L2.32217875,9.81513322 C1.99882673,9.81496317 1.73674059,9.55287703 1.73657054,9.22952501 L0.619511852,9.22820408 C0.277283619,9.22798532 0,8.95048023 0,8.60825193 L1.15272355,0.00396276238 Z"></path></clipPath><clipPath id="i8"><path d="M13.7301827,0.000133223565 C13.86279,0.000559937838 13.994843,0.0172698951 14.1233768,0.0498879068 C14.5878533,0.169023109 14.975458,0.488236437 15.1814343,0.921255323 L15.4870073,1.56322283 C15.5923991,1.78463732 15.5647984,2.04644102 15.4155514,2.24101012 C15.2663043,2.43557921 15.0205962,2.53008051 14.7794341,2.48566585 C14.7737101,2.48522554 14.7684264,2.48390462 14.7635831,2.48302401 C13.8392648,2.29011925 12.8981817,2.18879907 11.9539845,2.18053315 C11.3490136,2.1760381 10.7446354,2.21332332 10.1451553,2.2920487 L9.69609059,2.35885745 C8.92288346,2.48817379 8.16291672,2.68697059 7.42542775,2.9528315 C3.99587707,4.18701183 1.89649362,6.53340746 1.33202014,7.22556996 C1.24407343,7.33293646 1.08621647,7.34980068 0.977573056,7.26343636 L0.0960785803,6.56246772 C-0.0064873646,6.48124284 -0.0303375084,6.33527996 0.0410402139,6.22563292 C0.74597161,5.1446794 4.59777664,-0.0302479547 13.7301827,0.000133223565 Z"></path></clipPath><clipPath id="i9"><path d="M0.5,0 C0.621587402,0 0.720153465,0.0985660639 0.720153465,0.220153465 L0.720153465,4.56209542 C0.580986736,4.45119504 0.499944504,4.28291895 0.5,4.10364784 L0.279846535,4.10364784 L0.279846535,0.220153465 C0.279846535,0.0985660639 0.378412598,0 0.5,0 Z"></path></clipPath></defs><g transform="translate(-747.0 -652.0)"><g clip-path="url(#i0)"><g transform="translate(747.0 651.9999999999982)"><g clip-path="url(#i1)"><polygon points="0,0 30,0 30,30 0,30 0,0" stroke="none" fill="#FFFFFF"></polygon><g transform="translate(7.0 6.0)"><g transform="translate(0.16995284273252764 1.254870051965554)"><g clip-path="url(#i2)"><polygon points="2.77555756e-16,1.51788304e-16 14.9670775,1.51788304e-16 14.9670775,8.09282599 2.77555756e-16,8.09282599 2.77555756e-16,1.51788304e-16" stroke="none" fill="#F3CC53"></polygon></g></g><g clip-path="url(#i3)"><polygon points="-3.33066907e-16,-4.4408921e-16 12.8307026,-4.4408921e-16 12.8307026,7.15056446 -3.33066907e-16,7.15056446 -3.33066907e-16,-4.4408921e-16" stroke="none" fill="#3F5B73"></polygon></g><g transform="translate(10.71018445523077 5.302233509779398)"><g clip-path="url(#i4)"><polygon points="0,-3.60822483e-16 5.97771054,-3.60822483e-16 5.97771054,4.2305938 0,4.2305938 0,-3.60822483e-16" stroke="none" fill="#F3CC53"></polygon></g></g><g transform="translate(12.96763808987771 5.302596271720176)"><g clip-path="url(#i5)"><polygon points="0,0 3.69327668,0 3.69327668,2.27110315 0,2.27110315 0,0" stroke="none" fill="#3F5B73"></polygon></g></g><g transform="translate(8.439081305726631 5.480920578727819)"><g clip-path="url(#i6)"><polygon points="0,0 7.19820144,0 7.19820144,5.33891049 0,5.33891049 0,0" stroke="none" fill="#3F5B73"></polygon></g></g><g transform="translate(11.22974663367495 8.319579362141667)"><g clip-path="url(#i7)"><polygon points="0,0 3.59730763,0 3.59730763,9.81513322 0,9.81513322 0,0" stroke="none" fill="#F3CC53"></polygon></g></g><g transform="translate(1.0136535539427314 3.122063126411376)"><g clip-path="url(#i8)"><polygon points="1.2490009e-16,1.77635684e-15 15.5503711,1.77635684e-15 15.5503711,7.31859732 1.2490009e-16,7.31859732 1.2490009e-16,1.77635684e-15" stroke="none" fill="#3F5B73"></polygon></g></g><g transform="translate(12.46631716908496 13.44413560793873)"><g clip-path="url(#i9)"><polygon points="0.279846535,0 0.720153465,0 0.720153465,4.56209542 0.279846535,4.56209542 0.279846535,0" stroke="none" fill="#3F5B73"></polygon></g></g></g></g></g></g></g></svg>