<?xml version="1.0" encoding="UTF-8"?><svg version="1.1" width="30px" height="30px" viewBox="0 0 30.0 30.0" xmlns="http://www.w3.org/2000/svg" xmlns:xlink="http://www.w3.org/1999/xlink"><defs><clipPath id="i0"><path d="M2655,0 L2655,1581 L0,1581 L0,0 L2655,0 Z"></path></clipPath><clipPath id="i1"><path d="M15,0 C23.2842712,0 30,6.71572875 30,15 C30,23.2842712 23.2842712,30 15,30 C6.71572875,30 0,23.2842712 0,15 C0,6.71572875 6.71572875,0 15,0 Z"></path></clipPath><clipPath id="i2"><path d="M11.7067558,0.464977522 C13.742492,1.74179952 13.5425079,4.74156203 11.419599,5.76712187 L10.8709245,6.02863963 C6.95328593,7.90541412 2.57414544,6.96702687 0.117929636,4.11084273 C-0.0564155358,3.90573077 -0.0359043391,3.60319062 0.169207628,3.42884544 C0.307658206,3.31090606 0.497386775,3.28013927 0.656348549,3.34167286 L0.671731947,3.34167286 C3.4253601,4.39799949 6.25590525,3.45448444 7.52759944,1.42387597 C8.4147087,0.00347559656 10.2863554,-0.427259534 11.7067558,0.464977522 Z"></path></clipPath><clipPath id="i3"><path d="M5.5893011,0.465829651 C7.62503737,1.74265164 7.4250532,4.74754196 5.30214435,5.767974 L4.75346983,6.02949175 C3.19461889,6.77815043 1.55885095,7.08069058 0,6.993518 C1.225544,6.92172881 2.4715992,6.60893306 3.67663201,6.02949175 L4.22530652,5.767974 C6.34821538,4.74241416 6.54819954,1.74265164 4.51246327,0.465829651 C4.17402853,0.255589885 3.80995479,0.117139307 3.44075325,0.0504779177 C4.15864513,-0.0828448609 4.92268721,0.0453501185 5.5893011,0.465829651 Z"></path></clipPath><clipPath id="i4"><path d="M1.42125541,0.464977522 C2.84165578,-0.427259534 4.71330248,0.00347559656 5.60041173,1.42387597 C6.87210593,3.45448444 9.70265107,4.39799949 12.4562792,3.34167286 L12.4716626,3.34167286 C12.6306244,3.28013927 12.820353,3.31090606 12.9588035,3.42884544 C13.1639155,3.60319062 13.1844267,3.90573077 13.0100815,4.11084273 C10.5538657,6.96702687 6.17472524,7.90541412 2.25708667,6.02863963 L1.70841216,5.76712187 C-0.414496697,4.74156203 -0.614480865,1.74179952 1.42125541,0.464977522 Z"></path></clipPath></defs><g transform="translate(-896.0 -470.0)"><g clip-path="url(#i0)"><g transform="translate(896.0 469.9999999999982)"><g clip-path="url(#i1)"><polygon points="0,0 30,0 30,30 0,30 0,0" stroke="none" fill="#FFFFFF"></polygon><g transform="translate(2.0 11.0)"><g transform="translate(0.0 0.0059799277131671325)"><g clip-path="url(#i2)"><polygon points="2.77555756e-17,2.22044605e-16 13.1280112,2.22044605e-16 13.1280112,7.00323307 2.77555756e-17,7.00323307 2.77555756e-17,2.22044605e-16" stroke="none" fill="#3F5B73"></polygon></g></g><g transform="translate(6.117454669292844 0.0)"><g clip-path="url(#i3)"><polygon points="0,-6.59194921e-16 7.01055651,-6.59194921e-16 7.01055651,7.00806438 0,7.00806438 0,-6.59194921e-16" stroke="none" fill="#3F5B73" opacity="8%"></polygon></g></g><g transform="translate(12.251157360915538 0.0059799277131671325)"><g clip-path="url(#i4)"><polygon points="2.22044605e-16,2.22044605e-16 13.1280112,2.22044605e-16 13.1280112,7.00323307 2.22044605e-16,7.00323307 2.22044605e-16,2.22044605e-16" stroke="none" fill="#3F5B73"></polygon></g></g></g></g></g></g></g></svg>