<?xml version="1.0" encoding="UTF-8"?><svg version="1.1" width="30px" height="30px" viewBox="0 0 30.0 30.0" xmlns="http://www.w3.org/2000/svg" xmlns:xlink="http://www.w3.org/1999/xlink"><defs><clipPath id="i0"><path d="M2655,0 L2655,1581 L0,1581 L0,0 L2655,0 Z"></path></clipPath><clipPath id="i1"><path d="M15,0 C23.2842712,0 30,6.71572875 30,15 C30,23.2842712 23.2842712,30 15,30 C6.71572875,30 0,23.2842712 0,15 C0,6.71572875 6.71572875,0 15,0 Z"></path></clipPath><clipPath id="i2"><path d="M11.7103448,0 C12.7441634,0.0895593793 13.7631895,0.304944448 14.7448276,0.64137931 C13.9482759,2.3 12.8793103,4.92068966 13.8068966,5.37931034 C14.7344828,5.83793103 16.1482759,3.41034483 16.9793103,1.76896552 C19.3241379,3.40689655 20,5.7 20,6.8137931 C20,8.52778024 18.6105389,9.91724138 16.8965517,9.91724138 L3.10344828,9.91724138 C1.38946112,9.91724138 0,8.52778024 0,6.8137931 C0,5.7 0.675862069,3.40689655 3.02068966,1.76896552 C3.85172414,3.41034483 5.26896552,5.83448276 6.19310345,5.37931034 C7.11724138,4.92413793 6.05172414,2.3 5.25517241,0.64137931 C6.23681048,0.304944448 7.25583659,0.0895593793 8.28965517,0 C8.24137931,1.31724138 8.22758621,5.43448276 10,5.43448276 C11.7724138,5.43448276 11.7586207,1.31724138 11.7103448,0 Z"></path></clipPath><clipPath id="i3"><path d="M2.23448276,0 C3.03103448,1.65862069 4.1,4.27931034 3.17241379,4.73793103 C2.24827586,5.19310345 0.831034483,2.76896552 0,1.12758621 C0.689617897,0.651073069 1.44148838,0.271656966 2.23448276,0 Z"></path></clipPath><clipPath id="i4"><path d="M3.43417971,0.0827591638 C3.48245557,1.40000054 3.49624868,5.51724192 1.72383489,5.51724192 C-0.0485789078,5.51724192 -0.0347858044,1.40000054 0.0134900577,0.0827591638 C1.15105026,-0.0275863879 2.29661951,-0.0275863879 3.43417971,0.0827591638 Z"></path></clipPath><clipPath id="i5"><path d="M1.29591428,0 C2.08890866,0.271656966 2.84077915,0.651073069 3.53039704,1.12758621 C2.69936256,2.76896552 1.28212118,5.19310345 0.35798325,4.73793103 C-0.566154681,4.28275862 0.49936256,1.65862069 1.29591428,0 Z"></path></clipPath></defs><g transform="translate(-745.0 -102.0)"><g clip-path="url(#i0)"><g transform="translate(745.0 101.9999999999982)"><g clip-path="url(#i1)"><polygon points="0,0 30,0 30,30 0,30 0,0" stroke="none" fill="#FFFFFF"></polygon><g transform="translate(5.0 10.0)"><g transform="translate(0.0 0.08275916379352566)"><g clip-path="url(#i2)"><polygon points="0,0 20,0 20,9.91724138 0,9.91724138 0,0" stroke="none" fill="#3F5B73"></polygon></g></g><g transform="translate(3.0206896551721902 0.0)"><g transform="translate(0.0 0.7241384741373622)"><g clip-path="url(#i3)"><polygon points="0,0 3.53189276,0 3.53189276,4.79385791 0,4.79385791 0,0" stroke="none" fill="#F3CC53"></polygon></g></g><g transform="translate(5.255475459554418 0.0)"><g clip-path="url(#i4)"><polygon points="-8.8817842e-16,3.1918912e-16 3.44766977,3.1918912e-16 3.44766977,5.51724192 -8.8817842e-16,5.51724192 -8.8817842e-16,3.1918912e-16" stroke="none" fill="#F3CC53"></polygon></g></g><g transform="translate(10.42822364698577 0.7241384741373622)"><g clip-path="url(#i5)"><polygon points="3.88578059e-16,0 3.53039704,0 3.53039704,4.79385791 3.88578059e-16,4.79385791 3.88578059e-16,0" stroke="none" fill="#F3CC53"></polygon></g></g></g></g></g></g></g></g></svg>