<?xml version="1.0" encoding="UTF-8"?><svg version="1.1" width="30px" height="30px" viewBox="0 0 30.0 30.0" xmlns="http://www.w3.org/2000/svg" xmlns:xlink="http://www.w3.org/1999/xlink"><defs><clipPath id="i0"><path d="M2655,0 L2655,1581 L0,1581 L0,0 L2655,0 Z"></path></clipPath><clipPath id="i1"><path d="M15,0 C23.2842712,0 30,6.71572875 30,15 C30,23.2842712 23.2842712,30 15,30 C6.71572875,30 0,23.2842712 0,15 C0,6.71572875 6.71572875,0 15,0 Z"></path></clipPath><clipPath id="i2"><path d="M3.33259884,0.00989338178 C4.14549062,0.0970023016 4.78000464,0.602267316 5.07361245,1.39602343 C5.43095038,2.36208381 5.18979928,3.5221633 4.47354265,4.28276477 C3.45685593,5.36243283 3.63223855,5.98608943 3.89855722,6.40873825 C4.07069509,6.68192081 3.98882769,7.04287787 3.71564513,7.21501575 C3.57899145,7.30112628 3.42045654,7.3236731 3.27456782,7.29056006 C3.1286375,7.25744703 2.99535337,7.16867414 2.90932603,7.03210366 C2.56155594,6.48024743 2.44753228,5.89457099 2.57041659,5.29129804 C2.69159533,4.69626175 3.03566308,4.10417901 3.62229631,3.481188 C4.0348365,3.04310584 4.18068363,2.35243278 3.97697189,1.80165813 C3.88091912,1.54195375 3.66984431,1.22205518 3.20788416,1.17246883 C2.82421388,1.13132713 2.32722712,1.58567461 1.84442572,2.41907484 C1.404638,3.17830354 1.14231286,3.9632822 1.1397337,3.97110287 C1.03814823,4.27756486 0.707558643,4.44387884 0.400888654,4.34216857 C0.094426662,4.24058309 -0.0717209147,3.90978551 0.0298229598,3.60332352 L0.0473237499,3.55208481 C0.118042061,3.34892109 0.395678343,2.58743238 0.832689317,1.8329824 C1.58950526,0.526515003 2.43060136,-0.086866574 3.33259884,0.00989338178 Z"></path></clipPath><clipPath id="i3"><path d="M1.44815459,0.134906508 C1.76971713,0.425227974 2.19669227,0.915434044 2.19669227,1.4712422 C2.19669227,2.36267345 1.70494703,3.08533637 1.09834614,3.08533637 C0.491745244,3.08533637 0,2.36267345 0,1.4712422 C0,0.915434044 0.426975145,0.425227974 0.748496081,0.134906508 C0.947715096,-0.0449688359 1.24893558,-0.0449688359 1.44815459,0.134906508 Z"></path></clipPath><clipPath id="i4"><path d="M3.57740505,0 C4.87967092,0 6.0695771,0.887645717 6.97947844,1.62391161 C7.24305156,1.83719118 7.20319944,2.25310091 6.90202055,2.40884867 C6.00256064,2.87397036 4.84302194,3.02680617 3.57740505,3.02680617 C2.31178815,3.02680617 1.15229106,2.87401196 0.252789542,2.40884867 C-0.0483893402,2.25310091 -0.088241463,1.83719118 0.175331658,1.62391161 C1.085233,0.887645717 2.27513918,0 3.57740505,0 Z"></path></clipPath><clipPath id="i5"><path d="M0.623989397,0 C1.92625527,0 3.11616145,0.887687316 4.02606279,1.6239532 C4.28963591,1.83723278 4.24978379,2.25314251 3.9486049,2.40889027 C3.04914499,2.87401196 1.88964789,3.02684777 0.623989397,3.02684777 C0.412748186,3.02684777 0.204585324,3.02239664 0,3.0131616 C0.834149026,2.97538944 1.60731349,2.85466829 2.27098861,2.60057981 C2.79177016,2.4011944 2.89397962,1.70885736 2.4540255,1.36620398 C1.75120544,0.818840486 0.912064502,0.254754071 0,0.0663092732 C0.204585324,0.0240443914 0.412748186,0 0.623989397,0 Z"></path></clipPath><clipPath id="i6"><path d="M0.692961025,0.00193828368 C3.46222597,0.215925047 5.13301998,1.28689885 6.54905991,1.619194 C6.78055998,1.67348108 6.99571152,1.70642772 7.19430655,1.72310904 C7.95307766,1.78679755 8.76210071,1.52559559 9.34266044,1.03289357 C10.1912028,0.312768202 11.4393064,0.0828073095 12.8101695,0.0828073095 C15.5240658,0.0828073095 17.724086,1.62035878 17.724086,3.51703695 C17.724086,5.0500957 16.2867056,6.34853444 14.3023778,6.79002774 C13.831765,6.89473316 13.8024375,6.75995145 13.8024375,6.75995145 C13.8024375,6.75995145 13.4952875,6.79959539 13.1469662,6.84005588 L12.8445259,6.87403069 C12.5444099,6.90639427 12.2698779,6.93120742 12.1884265,6.92401906 C11.3671316,6.85151149 10.6090677,6.63727513 9.96581785,6.31754296 C9.60847993,6.13991398 9.23575026,5.99427486 8.85395195,5.87833763 C6.84849163,5.26924078 5.33061662,3.83739311 3.80924727,2.80111312 C2.64887659,2.01072655 1.22031526,1.50030322 0.453848288,1.26168968 C0.183910475,1.17765911 0,0.928229744 0,0.645520948 C0,0.270420121 0.31898338,-0.0269316257 0.692961025,0.00193828368 Z"></path></clipPath><clipPath id="i7"><path d="M2.76010681,0 C2.76010681,0 5.89672281,2.54800576 3.49694892,4.42105263 C1.42997731,6.03397412 0.920520076,7 0.920520076,7 C0.920520076,7 -1.14897006,5.29713201 0.91800155,3.68421053 C2.98479332,2.07128904 3.10891953,0.89604748 2.76010681,0 Z"></path></clipPath><clipPath id="i8"><path d="M3.31600445,0 C4.85297354,0 6.15806816,1.02009787 6.6320089,2.43925775 L0,2.43925775 C0.473940747,1.02005627 1.77903537,0 3.31600445,0 Z"></path></clipPath></defs><g transform="translate(-896.0 -194.0)"><g clip-path="url(#i0)"><g transform="translate(896.0 193.9999999999982)"><g clip-path="url(#i1)"><polygon points="0,0 30,0 30,30 0,30 0,0" stroke="none" fill="#FFFFFF"></polygon><g transform="translate(4.0 6.0)"><g transform="translate(15.491005828072051 6.540285675697305)"><g clip-path="url(#i2)"><polygon points="5.55111512e-16,-8.8817842e-16 5.23707273,-8.8817842e-16 5.23707273,7.30513301 5.55111512e-16,7.30513301 5.55111512e-16,-8.8817842e-16" stroke="none" fill="#3F5B73"></polygon></g></g><g transform="translate(12.36905834467598 3.74576271186379)"><g clip-path="url(#i3)"><polygon points="0,-1.38777878e-16 2.19669227,-1.38777878e-16 2.19669227,3.08533637 0,3.08533637 0,-1.38777878e-16" stroke="none" fill="#3F5B73"></polygon></g></g><g transform="translate(9.960843029054558 14.21468241745242)"><g clip-path="url(#i4)"><polygon points="-8.32667268e-17,0 7.1548101,0 7.1548101,3.02680617 -8.32667268e-17,3.02680617 -8.32667268e-17,0" stroke="none" fill="#3F5B73"></polygon></g></g><g transform="translate(12.91425868029182 14.21464081815975)"><g clip-path="url(#i5)"><polygon points="0,0 4.20139444,0 4.20139444,3.02684777 0,3.02684777 0,0" stroke="none" fill="#3F5B73"></polygon></g></g><g transform="translate(0.7280785554630711 7.781743013352752)"><g clip-path="url(#i6)"><polygon points="0,-5.19332841e-16 17.724086,-5.19332841e-16 17.724086,6.92526716 0,6.92526716 0,-5.19332841e-16" stroke="none" fill="#3F5B73"></polygon></g></g><g clip-path="url(#i7)"><polygon points="1.11022302e-16,0 4.40109241,0 4.40109241,7 1.11022302e-16,7 1.11022302e-16,0" stroke="none" fill="#F3CC53"></polygon></g><g transform="translate(10.11820379260007 6.33244835728874)"><g clip-path="url(#i8)"><polygon points="0,0 6.6320089,0 6.6320089,2.43925775 0,2.43925775 0,0" stroke="none" fill="#3F5B73"></polygon></g></g></g></g></g></g></g></svg>