<?xml version="1.0" encoding="UTF-8"?><svg version="1.1" width="30px" height="30px" viewBox="0 0 30.0 30.0" xmlns="http://www.w3.org/2000/svg" xmlns:xlink="http://www.w3.org/1999/xlink"><defs><clipPath id="i0"><path d="M2655,0 L2655,1581 L0,1581 L0,0 L2655,0 Z"></path></clipPath><clipPath id="i1"><path d="M15,0 C23.2842712,0 30,6.71572875 30,15 C30,23.2842712 23.2842712,30 15,30 C6.71572875,30 0,23.2842712 0,15 C0,6.71572875 6.71572875,0 15,0 Z"></path></clipPath><clipPath id="i2"><path d="M17.0070068,1.03133606 C17.1975043,1.7994166 17.29582,2.59816642 17.29582,3.41109806 C17.29582,6.45096735 15.8968659,9.29768543 13.553559,11.0260407 C13.442062,11.1083039 13.3070737,11.1526765 13.1685182,11.1526765 L4.12730185,11.1526765 C3.98874631,11.1526765 3.85375798,11.1083039 3.74226102,11.0260407 C1.39895413,9.29768543 0,6.45101085 0,3.41109806 C0,2.59816642 0.0983157014,1.7994166 0.288813249,1.03133606 C0.629873027,-0.343778686 16.665947,-0.343778686 17.0070068,1.03133606 Z"></path></clipPath><clipPath id="i3"><path d="M8.35857472,0 C12.0559846,0 15.0640971,3.00806894 15.0640536,6.70552236 C15.0640536,7.28532398 14.9900123,7.85873073 14.8435828,8.41495399 C15.7401263,9.4997764 16.3760462,10.776967 16.7171059,12.1520817 C15.6540348,12.6776792 14.4764215,12.9535722 13.2813202,12.9535722 C11.4696141,12.9535722 9.74352104,12.3314861 8.35857472,11.1901974 C6.97362841,12.3314861 5.24753531,12.9535722 3.43582925,12.9535722 C2.24068444,12.9535722 1.06311465,12.6776792 0,12.1520817 C0.341059778,10.776967 0.976979656,9.4998199 1.87352315,8.41495399 C1.72709366,7.85873073 1.65305236,7.28532398 1.65305236,6.70552236 C1.65305236,3.00806894 4.66116481,0 8.35857472,0 Z"></path></clipPath><clipPath id="i4"><path d="M4.25023413,0.00437546135 C5.48814192,-0.05565802 6.65618465,0.509918278 7.37532486,1.51721919 C8.09437806,2.5244766 8.24981257,3.81306483 7.79107847,4.96418509 C7.74374772,5.08294697 7.63146771,5.16312212 7.50378781,5.16929948 C7.44401534,5.17221415 7.38437338,5.17364973 7.32499244,5.17364973 C6.15416554,5.17364973 5.06303527,4.61512084 4.37865358,3.65649925 C4.23961952,3.46173846 4.12190169,3.25631954 4.02536959,3.04354871 C3.92883749,3.25636305 3.81111967,3.46173846 3.6720856,3.65649925 C2.98770392,4.61507734 1.89644313,5.17364973 0.725790245,5.17364973 C0.666322297,5.17364973 0.606854348,5.17221415 0.546994877,5.16929948 C0.419314973,5.16312212 0.307034961,5.08294697 0.259704217,4.96422859 C-0.199073388,3.81315184 -0.0436388744,2.52456361 0.675457827,1.51721919 C1.39455453,0.509918278 2.56229275,-0.0559190352 3.80054855,0.00437546135 C3.88833664,0.00863870858 3.96825078,0.0484870194 4.02536959,0.111174155 C4.08253191,0.0484435169 4.16244604,0.00863870858 4.25023413,0.00437546135 Z"></path></clipPath><clipPath id="i5"><path d="M0.222950429,0.00434113597 C1.46085822,-0.0556923454 2.62890095,0.509883953 3.34804116,1.51718487 C4.06709435,2.52444228 4.22252887,3.81303051 3.76379477,4.96419426 C3.71646402,5.08295615 3.60418401,5.1631313 3.47650411,5.16930866 C3.41673164,5.17222333 3.35708968,5.17365891 3.29770874,5.17365891 C2.12688184,5.17365891 1.03575156,4.61513002 0.351369876,3.65650843 C0.213205864,3.4629222 0.0961840778,3.25885187 0,3.04751661 L0,0.109225718 C0.0569883048,0.0476696486 0.136075891,0.00856088068 0.222950429,0.00434113597 Z"></path></clipPath><clipPath id="i6"><path d="M0,1.76309199 C0,-0.587697331 8.52649446,-0.587697331 8.52649446,1.76309199 C8.52649446,4.11388132 6.61403655,6.02633922 4.26324723,6.02633922 C1.91245791,6.02633922 0,4.11388132 0,1.76309199 Z"></path></clipPath><clipPath id="i7"><path d="M0,0 C2.13162361,0 4.26324723,0.58767558 4.26324723,1.76307024 C4.26324723,4.11385957 2.35078932,6.02631747 0,6.02631747 Z"></path></clipPath><clipPath id="i8"><path d="M4.26324723,0 C6.61403655,0 8.52653796,1.91250141 8.52653796,4.26329073 C8.52653796,4.34137776 8.52427583,4.41894276 8.52009959,4.49602923 C8.13310115,4.59247432 7.73409601,4.64193669 7.33208919,4.64193669 C6.21381334,4.64193669 5.12916494,4.25459023 4.26490033,3.56168205 C3.40072271,4.25459023 2.31603081,4.64193669 1.19771146,4.64193669 C0.794573578,4.64193669 0.394524379,4.59234381 0.00639487084,4.49528969 C0.00221862866,4.41846423 0,4.34111675 0,4.26329073 C0,1.91250141 1.91245791,0 4.26324723,0 Z"></path></clipPath></defs><g transform="translate(-896.0 -743.0)"><g clip-path="url(#i0)"><g transform="translate(896.0 742.9999999999982)"><g clip-path="url(#i1)"><polygon points="0,0 30,0 30,30 0,30 0,0" stroke="none" fill="#FFFFFF"></polygon><g transform="translate(6.0 4.0)"><g transform="translate(0.0 11.12061514437315)"><g clip-path="url(#i2)"><polygon points="0,2.22044605e-16 17.29582,2.22044605e-16 17.29582,11.1526765 0,11.1526765 0,2.22044605e-16" stroke="none" fill="#3F5B73"></polygon></g></g><g transform="translate(0.28933527881054033 0.0)"><g clip-path="url(#i3)"><polygon points="0,0 16.7171059,0 16.7171059,12.9535722 0,12.9535722 0,0" stroke="none" fill="#F3CC53"></polygon></g></g><g transform="translate(4.620626298019522 10.418741984510778)"><g clip-path="url(#i4)"><polygon points="3.33066907e-16,3.91180144e-16 8.05075196,3.91180144e-16 8.05075196,5.17364973 3.33066907e-16,5.17364973 3.33066907e-16,3.91180144e-16" stroke="none" fill="#82B1B0"></polygon></g></g><g transform="translate(8.647909999999996 10.41877630989036)"><g clip-path="url(#i5)"><polygon points="0,6.66133815e-16 4.02346825,6.66133815e-16 4.02346825,5.17365891 0,5.17365891 0,6.66133815e-16" stroke="none" fill="#82B1B0"></polygon></g></g><g transform="translate(4.384662770497471 4.916459359854343)"><g clip-path="url(#i6)"><polygon points="0,0 8.52649446,0 8.52649446,6.02633922 0,6.02633922 0,0" stroke="none" fill="#FFF3F3"></polygon></g></g><g transform="translate(8.647910000000138 4.916481111116809)"><g clip-path="url(#i7)"><polygon points="0,0 4.26324723,0 4.26324723,6.02631747 0,6.02631747 0,0" stroke="none" fill="#F6EFEA"></polygon></g></g><g transform="translate(4.38466277049747 2.4162606211048114)"><g clip-path="url(#i8)"><polygon points="0,0 8.52653796,0 8.52653796,4.64193669 0,4.64193669 0,0" stroke="none" fill="#3F5B73"></polygon></g></g></g></g></g></g></g></svg>