<?xml version="1.0" encoding="UTF-8"?><svg version="1.1" width="30px" height="30px" viewBox="0 0 30.0 30.0" xmlns="http://www.w3.org/2000/svg" xmlns:xlink="http://www.w3.org/1999/xlink"><defs><clipPath id="i0"><path d="M2655,0 L2655,1581 L0,1581 L0,0 L2655,0 Z"></path></clipPath><clipPath id="i1"><path d="M15,0 C23.2842712,0 30,6.71572875 30,15 C30,23.2842712 23.2842712,30 15,30 C6.71572875,30 0,23.2842712 0,15 C0,6.71572875 6.71572875,0 15,0 Z"></path></clipPath><clipPath id="i2"><path d="M1.60377743,0.268861418 C2.46143194,1.28801049 3.77629048,1.66023541 3.99847642,1.71726395 L4.0308867,1.7252676 L2.19326959,4.05647844 L0.318894673,3.30745503 C-0.214699053,1.98999415 0.00881656179,1.02550201 0.353933734,0.397494224 C0.467761854,0.190892671 0.657019658,0.0618301769 0.862761836,0.0177286164 C1.12377745,-0.0391854436 1.41119931,0.0399942404 1.60377743,0.268861418 Z"></path></clipPath><clipPath id="i3"><path d="M3.18171861,0.0207862001 C3.38210922,0.0677783855 3.56562484,0.195629942 3.67695296,0.397661183 C4.02207013,1.02566897 4.24515606,1.99016111 3.71156234,3.30762199 L1.470039,4.63250475 L0.506796852,2.7274267 L0,1.72543456 L0.0324013711,1.71743091 C0.0535562872,1.71199962 0.0846196642,1.7037094 0.124253508,1.69227371 L0.267528446,1.64824361 C0.738741106,1.49513123 1.73249992,1.09405382 2.42710927,0.269028377 C2.62296863,0.0360596369 2.91738268,-0.0418700471 3.18171861,0.0207862001 Z"></path></clipPath><clipPath id="i4"><path d="M1.3978515,0 L16.1765227,4.06746076 C15.9733717,4.12052065 15.7470392,4.13014305 15.5152236,4.12864565 L15.0495252,4.12040009 C14.7411775,4.11778628 14.4440575,4.13370641 14.2001166,4.24476544 C13.5407806,4.54496074 13.1515229,5.56675757 12.4649604,5.76800756 C11.7714057,5.97089817 10.8922651,5.31937476 10.1817964,5.42082007 C9.46843708,5.52304663 8.80742148,6.39476534 8.08828089,6.39476534 C7.3691403,6.39476534 6.70816376,5.52304663 5.99476536,5.42078101 C5.28429664,5.3193357 4.40515605,5.97085911 3.71156234,5.76796849 C3.02499987,5.56675757 2.63574207,4.54492167 1.97640616,4.24472637 C1.73248256,4.13366735 1.43536452,4.11774721 1.12701362,4.12036102 L0.661307841,4.12860659 C0.429487828,4.13010398 0.203151033,4.12048159 0,4.06742169 L1.3978515,0 Z"></path></clipPath><clipPath id="i5"><path d="M6.01574192,0 C7.46312467,0 8.85691367,0.439492168 9.94035112,1.23757807 C11.2692964,2.21644521 12.0314838,3.65761703 12.0314838,5.19152321 C12.0314838,6.72542939 11.2692964,8.1666012 9.94035112,9.14546834 C8.85695273,9.94355425 7.46312467,10.3830464 6.01574192,10.3830464 C4.56832011,10.3830464 3.17449205,9.94355425 2.09109366,9.14546834 C0.762148404,8.16656214 0,6.72539033 0,5.19152321 C0,3.65765609 0.762148404,2.21648428 2.09105459,1.23757807 C3.17453111,0.439492168 4.56832011,0 6.01574192,0 Z"></path></clipPath><clipPath id="i6"><path d="M4.77867166,0 C5.96417942,0 7.0973825,0.353710922 7.9698434,0.996367143 C8.97863241,1.73964836 9.55730426,2.81812487 9.55730426,3.95453107 C9.55730426,4.99878884 9.06835897,5.99398411 8.20640589,6.72476533 C8.1303512,6.78996064 8.05148402,6.85234345 7.96980433,6.91230438 C7.88851527,6.97226532 7.80519497,7.02941375 7.71992153,7.08414031 C7.4032028,7.2869528 7.05835906,7.45437467 6.69335908,7.5843356 C6.50464815,7.6515231 6.31148409,7.70828091 6.11386692,7.75496059 C5.77945287,7.8342184 5.43296851,7.88331996 5.08046852,7.90144496 C4.98027322,7.90667934 4.87964822,7.90910121 4.77867166,7.90910121 C4.67765604,7.90910121 4.57707011,7.90667934 4.4768748,7.90144496 C4.12394513,7.88331996 3.77789046,7.83382778 3.44347641,7.75456997 C3.24589829,7.70828091 3.05234361,7.65113247 2.86437487,7.5843356 C2.49937489,7.45437467 2.15410147,7.28656218 1.83742179,7.08374969 C1.7521093,7.02941375 1.66882805,6.97187469 1.58792962,6.91230438 C1.50624993,6.85234345 1.42738275,6.78996064 1.35132806,6.72476533 C0.488945291,5.99398411 0,4.99878884 0,3.95453107 C0,2.81812487 0.578671849,1.73964836 1.58792962,0.996367143 C2.46039052,0.353710922 3.59359359,0 4.77867166,0 Z"></path></clipPath><clipPath id="i7"><path d="M0.603593723,0 L0.603593723,1.94406241 C0.503398415,1.94929679 0.40277342,1.95171866 0.301796862,1.95171866 C0.200781241,1.95171866 0.100195308,1.94929679 0,1.94406241 L0,0 L0.603593723,0 Z"></path></clipPath><clipPath id="i8"><path d="M0.575468724,0 L1.16542964,1.85835929 C0.977109332,1.92554679 0.783945278,1.9823046 0.586328099,2.02898428 L0,0.182695304 L0.575468724,0 Z"></path></clipPath><clipPath id="i9"><path d="M0.463203104,0 L1.72312492,1.50742181 C1.64707024,1.57261712 1.56820306,1.63499993 1.48652337,1.69496086 C1.40523431,1.7549218 1.321914,1.81207023 1.23664057,1.86679679 L0,0.387109358 L0.463203104,0 Z"></path></clipPath><clipPath id="i10"><path d="M0.590351536,0 L1.16542964,0.182695304 L0.579101537,2.02898428 C0.381523421,1.98269522 0.187968742,1.92554679 0,1.85874992 L0.590351536,0 Z"></path></clipPath><clipPath id="i11"><path d="M1.25957026,0 L1.7227343,0.38714842 L0.486093728,1.86644523 C0.400781232,1.81210929 0.317499986,1.75457023 0.236601552,1.69499992 C0.154921868,1.63503899 0.0760546841,1.57265618 0,1.50746087 L1.25957026,0 Z"></path></clipPath><clipPath id="i12"><path d="M5.83122675,0 C7.27872669,0 8.67267194,0.439453105 9.7559922,1.23785151 C10.6307578,1.88214835 11.2599765,2.72683582 11.5878281,3.66652327 C11.7579843,4.1541795 11.3157968,4.66746073 11.3157968,5.19156227 C11.3157968,6.72558564 11.0847421,8.16664026 9.7559922,9.14570272 C8.67267194,9.9437105 7.27872669,10.3831245 5.83122675,10.3831245 C5.17165647,10.3831245 4.52419556,10.292187 3.91169559,10.1171089 C3.17888312,9.90867143 2.49681284,9.58027301 1.90685193,9.14566366 C0.577672299,8.1666012 0.289039499,6.72554658 0.289039499,5.19152321 C0.289039499,4.71511698 -0.110999546,4.24769512 0.0301723232,3.80027327 C0.343531684,2.80703113 0.990328531,1.91249992 1.9064613,1.23777338 C2.99017219,0.439453105 4.38372682,0 5.83122675,0 Z"></path></clipPath><clipPath id="i13"><path d="M3.12929674,0 C4.8575596,0 6.25859347,1.03201858 6.25859347,2.30507802 C6.25859347,3.57813746 4.8575596,4.61015605 3.12929674,4.61015605 C1.40103387,4.61015605 0,3.57813746 0,2.30507802 C0,1.03201858 1.40103387,0 3.12929674,0 Z"></path></clipPath><clipPath id="i14"><path d="M0.352853538,0 L16.0982825,0.924296834 C16.3956653,1.9160546 15.7883216,2.95164049 14.7775795,3.17624986 L12.3256655,3.72113265 C10.799689,4.06023419 9.23644689,3.33085923 8.51593911,1.94363273 C8.33550943,1.59621087 7.83847821,1.59621087 7.65804853,1.94363273 C6.93754075,3.33085923 5.37429863,4.06023419 3.84832213,3.72113265 L1.39640818,3.17624986 C0.385666037,2.95164049 -0.221677686,1.9160546 0.075705113,0.924296834 L0.352853538,0 Z"></path></clipPath><clipPath id="i15"><path d="M3.29195298,0 C5.00453103,0 6.39281222,1.38832025 6.39281222,3.10085924 L6.39281222,6.07320286 C6.39281222,7.83855434 4.96171853,9.26960896 3.19640611,9.26960896 C1.43105462,9.26960896 0,7.83851528 0,6.07320286 C0,5.44175757 0.511874977,4.92988259 1.14332026,4.92988259 L2.20839834,3.09804674 L2.16371084,3.09804674 C1.30820307,3.09804674 0.614687473,2.40453114 0.614687473,1.54902337 C0.614687473,0.693515594 1.30820307,0 2.16371084,0 Z"></path></clipPath><clipPath id="i16"><path d="M2.46328114,0 C3.82371375,0 4.92656228,1.10284853 4.92656228,2.46328114 C4.92656228,3.82371375 3.82371375,4.92656228 2.46328114,4.92656228 C1.10284853,4.92656228 0,3.82371375 0,2.46328114 C0,1.10284853 1.10284853,0 2.46328114,0 Z"></path></clipPath><clipPath id="i17"><path d="M1.76160148,0 C2.73450712,0 3.52320297,0.788695849 3.52320297,1.76160148 C3.52320297,2.73450712 2.73450712,3.52320297 1.76160148,3.52320297 C0.788695849,3.52320297 0,2.73450712 0,1.76160148 C0,0.788695849 0.788695849,0 1.76160148,0 Z"></path></clipPath><clipPath id="i18"><path d="M0.823281213,0 C1.27796687,0 1.64656243,0.368595554 1.64656243,0.823281213 C1.64656243,1.27796687 1.27796687,1.64656243 0.823281213,1.64656243 C0.368595554,1.64656243 0,1.27796687 0,0.823281213 C0,0.368595554 0.368595554,0 0.823281213,0 Z"></path></clipPath><clipPath id="i19"><path d="M4.22910137,0 C5.08460915,0 5.77812474,0.693515594 5.77812474,1.54902337 C5.77812474,2.40453114 5.08460915,3.09804674 4.22910137,3.09804674 L4.18441388,3.09804674 L5.24949195,4.92988259 C5.88093724,4.92988259 6.39281222,5.44175757 6.39281222,6.07320286 C6.39281222,7.83851528 4.96175759,9.26960896 3.19640611,9.26960896 C1.43109369,9.26960896 0,7.83855434 0,6.07320286 L0,3.10085924 C0,1.38832025 1.38828119,0 3.10085924,0 L4.22910137,0 Z"></path></clipPath><clipPath id="i20"><path d="M2.46328114,0 C3.82371375,0 4.92656228,1.10284853 4.92656228,2.46328114 C4.92656228,3.82371375 3.82371375,4.92656228 2.46328114,4.92656228 C1.10284853,4.92656228 0,3.82371375 0,2.46328114 C0,1.10284853 1.10284853,0 2.46328114,0 Z"></path></clipPath><clipPath id="i21"><path d="M1.76160148,0 C2.73450712,0 3.52320297,0.788695849 3.52320297,1.76160148 C3.52320297,2.73450712 2.73450712,3.52320297 1.76160148,3.52320297 C0.788695849,3.52320297 0,2.73450712 0,1.76160148 C0,0.788695849 0.788695849,0 1.76160148,0 Z"></path></clipPath><clipPath id="i22"><path d="M1.76171867,0 C1.93789054,0 2.10781241,0.0257812489 2.26835927,0.0742187467 C1.54218743,0.291406237 1.0132812,0.964843707 1.0132812,1.76132805 C1.0132812,2.55820301 1.54218743,3.23164048 2.26835927,3.44882797 C2.10781241,3.49726547 1.93789054,3.52304672 1.76171867,3.52304672 C0.78867184,3.52304672 0,2.73437488 0,1.76132805 C0,0.78867184 0.78867184,0 1.76171867,0 Z"></path></clipPath><clipPath id="i23"><path d="M1.76171867,0 C1.93789054,0 2.10820303,0.0257812489 2.26835927,0.0742187467 C1.54218743,0.291406237 1.0132812,0.964843707 1.0132812,1.76132805 C1.0132812,2.55820301 1.54218743,3.23164048 2.26835927,3.44882797 C2.10820303,3.49726547 1.93789054,3.52304672 1.76171867,3.52304672 C0.789062465,3.52304672 0,2.73437488 0,1.76132805 C0,0.78867184 0.789062465,0 1.76171867,0 Z"></path></clipPath><clipPath id="i24"><path d="M0.823281213,0 C1.27796687,0 1.64656243,0.368595554 1.64656243,0.823281213 C1.64656243,1.27796687 1.27796687,1.64656243 0.823281213,1.64656243 C0.368595554,1.64656243 0,1.27796687 0,0.823281213 C0,0.368595554 0.368595554,0 0.823281213,0 Z"></path></clipPath><clipPath id="i25"><path d="M1.51742181,0 C2.00539054,0 2.40097646,0.39558592 2.40097646,0.883554648 L2.40097646,1.06398433 C2.7672655,1.17175776 3.03480455,1.51031243 3.03480455,1.91152335 C3.03480455,2.39949208 2.63921863,2.795078 2.1512499,2.795078 L0.883554648,2.795078 C0.39558592,2.795078 0,2.39949208 0,1.91152335 C0,1.51031243 0.267539051,1.17175776 0.633867159,1.06398433 L0.633867159,0.883554648 C0.633867159,0.39558592 1.02945308,0 1.51742181,0 Z"></path></clipPath><clipPath id="i26"><path d="M1.20667963,0 C1.87311039,0 2.41335927,0.540248874 2.41335927,1.20667963 C2.41335927,1.87311039 1.87311039,2.41335927 1.20667963,2.41335927 C0.540248874,2.41335927 0,1.87311039 0,1.20667963 C0,0.540248874 0.540248874,0 1.20667963,0 Z"></path></clipPath><clipPath id="i27"><path d="M0.485039041,0 C0.752968717,0 0.970078082,0.217148428 0.970078082,0.485039041 L0.970078082,0.518164039 C0.970078082,0.786054653 0.752968717,1.00324214 0.485039041,1.00324214 C0.217109365,1.00324214 0,0.786093715 0,0.518203102 L0,0.485039041 C0,0.217148428 0.217148428,0 0.485039041,0 Z"></path></clipPath></defs><g transform="translate(-747.0 -470.0)"><g clip-path="url(#i0)"><g transform="translate(747.0 469.9999999999982)"><g clip-path="url(#i1)"><polygon points="0,0 30,0 30,30 0,30 0,0" stroke="none" fill="#FFFFFF"></polygon><g transform="translate(7.0 5.0)"><g transform="translate(2.0228630354497015 0.00016695888265871872)"><g clip-path="url(#i2)"><polygon points="-2.22044605e-16,0 4.0308867,0 4.0308867,4.05647844 -2.22044605e-16,4.05647844 -2.22044605e-16,0" stroke="none" fill="#3F5B73"></polygon></g></g><g transform="translate(10.12324173775716 0.0)"><g clip-path="url(#i3)"><polygon points="0,0 4.03062709,0 4.03062709,4.63250475 0,4.63250475 0,0" stroke="none" fill="#3F5B73"></polygon></g></g><g transform="translate(0.0 13.60519965909864)"><g clip-path="url(#i4)"><polygon points="0,0 16.1765227,0 16.1765227,6.39476534 0,6.39476534 0,0" stroke="none" fill="#F3CC53"></polygon></g></g><g transform="translate(2.0726170954205188 7.550004615610348)"><g clip-path="url(#i5)"><polygon points="0,0 12.0314838,0 12.0314838,10.3830464 0,10.3830464 0,0" stroke="none" fill="#3F5B73"></polygon></g></g><g transform="translate(3.3096873529615047 8.787035810653673)"><g clip-path="url(#i6)"><polygon points="0,0 9.55730426,0 9.55730426,7.90910121 0,7.90910121 0,0" stroke="none" fill="#EEF5F6"></polygon></g></g><g transform="translate(4.660898230431602 14.00434026636575)"><g transform="translate(3.125585798640376 0.7400780921207313)"><g clip-path="url(#i7)"><polygon points="0,0 0.603593723,0 0.603593723,1.95171866 0,1.95171866 0,0" stroke="none" fill="#F9F7F8"></polygon></g></g><g transform="translate(4.176249814462788 0.5086718524013596)"><g clip-path="url(#i8)"><polygon points="0,0 1.16542964,0 1.16542964,2.02898428 0,2.02898428 0,0" stroke="none" fill="#F9F7F8"></polygon></g></g><g transform="translate(5.132031022000531 3.906249826146624e-05)"><g clip-path="url(#i9)"><polygon points="0,0 1.72312492,0 1.72312492,1.86679679 0,1.86679679 0,0" stroke="none" fill="#F9F7F8"></polygon></g></g><g transform="translate(1.513046807780246 0.5082812274187143)"><g clip-path="url(#i10)"><polygon points="0,0 1.16542964,0 1.16542964,2.02898428 0,2.02898428 0,0" stroke="none" fill="#F9F7F8"></polygon></g></g><g transform=""><g clip-path="url(#i11)"><polygon points="0,0 1.7227343,0 1.7227343,1.86644523 0,1.86644523 0,0" stroke="none" fill="#F9F7F8"></polygon></g></g></g><g transform="translate(2.257054137676886 1.0228174055926331)"><g clip-path="url(#i12)"><polygon points="-5.55111512e-17,0 11.6267969,0 11.6267969,10.3831245 -5.55111512e-17,10.3831245 -5.55111512e-17,0" stroke="none" fill="#3F5B73"></polygon></g></g><g transform="translate(4.959062279684757 10.4364497998756)"><g clip-path="url(#i13)"><polygon points="0,0 6.25859347,0 6.25859347,4.61015605 0,4.61015605 0,0" stroke="none" fill="#393939"></polygon></g></g><g transform="translate(0.0014433211017745862 10.42894980020903)"><g clip-path="url(#i14)"><polygon points="0,0 16.1739876,0 16.1739876,3.80356869 0,3.80356869 0,0" stroke="none" fill="#3F5B73"></polygon></g></g><g transform="translate(0.17820311708327896 3.307700116581821)"><g clip-path="url(#i15)"><polygon points="0,0 6.39281222,0 6.39281222,9.26960896 0,9.26960896 0,0" stroke="none" fill="#F3CC53"></polygon></g><g transform="translate(1.4661718098627703 2.466601452918252)"><g clip-path="url(#i16)"><polygon points="0,0 4.92656228,0 4.92656228,4.92656228 0,4.92656228 0,0" stroke="none" fill="#3F5B73"></polygon></g></g><g transform="translate(2.869570185013966 3.1682811092450174)"><g clip-path="url(#i17)"><polygon points="0,0 3.52320297,0 3.52320297,3.52320297 0,3.52320297 0,0" stroke="none" fill="#EEF5F6"></polygon></g></g><g transform="translate(4.746210726641034 4.106601380057288)"><g clip-path="url(#i18)"><polygon points="0,0 1.64656243,0 1.64656243,1.64656243 0,1.64656243 0,0" stroke="none" fill="#393939"></polygon></g></g></g><g transform="translate(3.0479686145885934 3.307700116581821)"><g transform="translate(6.557773146159448 0.0)"><g clip-path="url(#i19)"><polygon points="0,0 6.39281222,0 6.39281222,9.26960896 0,9.26960896 0,0" stroke="none" fill="#F3CC53"></polygon></g></g><g transform="translate(6.5578122086576975 2.4666014529162315)"><g clip-path="url(#i20)"><polygon points="0,0 4.92656228,0 4.92656228,4.92656228 0,4.92656228 0,0" stroke="none" fill="#3F5B73"></polygon></g></g><g transform="translate(6.5578122086576975 3.168281109242998)"><g clip-path="url(#i21)"><polygon points="0,0 3.52320297,0 3.52320297,3.52320297 0,3.52320297 0,0" stroke="none" fill="#EEF5F6"></polygon></g></g><g transform="translate(0.0 3.168554546732201)"><g clip-path="url(#i22)"><polygon points="0,0 2.26835927,0 2.26835927,3.52304672 0,3.52304672 0,0" stroke="none" fill="#F9F7F8"></polygon></g></g><g transform="translate(6.557812208657697 3.168554546732201)"><g clip-path="url(#i23)"><polygon points="0,0 2.26835927,0 2.26835927,3.52304672 0,3.52304672 0,0" stroke="none" fill="#F9F7F8"></polygon></g></g><g transform="translate(6.557812208657697 4.10660138005729)"><g clip-path="url(#i24)"><polygon points="0,0 1.64656243,0 1.64656243,1.64656243 0,1.64656243 0,0" stroke="none" fill="#393939"></polygon></g></g></g><g transform="translate(6.570976270572856 8.751567062229665)"><g clip-path="url(#i25)"><polygon points="0,0 3.03480455,0 3.03480455,2.795078 0,2.795078 0,0" stroke="none" fill="#F3CC53"></polygon></g></g><g transform="translate(6.881679381769464 2.548286087820368)"><g clip-path="url(#i26)"><polygon points="0,0 2.41335927,0 2.41335927,2.41335927 0,2.41335927 0,0" stroke="none" fill="#F3CC53"></polygon></g></g><g transform="translate(7.6033199747094 3.243051681955123)"><g clip-path="url(#i27)"><polygon points="0,0 0.970078082,0 0.970078082,1.00324214 0,1.00324214 0,0" stroke="none" fill="#D35D3A"></polygon></g></g></g></g></g></g></g></svg>