<?xml version="1.0" encoding="UTF-8"?><svg version="1.1" width="30px" height="30px" viewBox="0 0 30.0 30.0" xmlns="http://www.w3.org/2000/svg" xmlns:xlink="http://www.w3.org/1999/xlink"><defs><clipPath id="i0"><path d="M2655,0 L2655,1581 L0,1581 L0,0 L2655,0 Z"></path></clipPath><clipPath id="i1"><path d="M15,0 C23.2842712,0 30,6.71572875 30,15 C30,23.2842712 23.2842712,30 15,30 C6.71572875,30 0,23.2842712 0,15 C0,6.71572875 6.71572875,0 15,0 Z"></path></clipPath><clipPath id="i2"><path d="M11.5817927,0 L11.5817927,1.68460085 L0,1.68460085 L0,0 L11.5817927,0 Z"></path></clipPath><clipPath id="i3"><path d="M3.23741136,0.922833137 L3.02023074,2.20864602 C2.88076883,3.0376456 1.97232346,3.49791307 1.22751916,3.10845598 C0.763797519,2.86580089 0.382544068,2.48497921 0.140320755,2.02125757 C-0.249136338,1.2760215 0.211131135,0.3680079 1.03969894,0.228114221 L2.3259436,0.0113653738 C2.8622027,-0.0793064548 3.32765142,0.386142265 3.23741136,0.922833137 Z"></path></clipPath><clipPath id="i4"><path d="M9.82234571,0.0453777938 C11.2290544,-0.256861635 12.4872339,0.997863765 12.1845627,2.40720622 C11.6556437,4.86829871 11.084843,7.19079284 10.0857258,8.75332751 C8.51740539,11.2054392 6.1553179,13.1658936 3.60916659,11.7480885 C3.21107409,11.5265901 2.84450084,11.2420533 2.52585413,10.9234066 L1.30610215,9.70365462 C0.565183777,8.96269308 0.0173964011,7.96970702 0.000427815998,6.93423474 C-0.0267737326,5.28361886 1.24435895,3.57121662 3.47618125,2.14421474 C5.03875909,1.14466577 7.36168499,0.574296794 9.82234571,0.0453777938 Z"></path></clipPath><clipPath id="i5"><path d="M2.36826181,0.422919315 L3.42523627,1.479462 C3.98869692,2.04292265 3.98869692,2.95698104 3.42523627,3.52044169 L3.10572602,3.83995194 C2.70763351,3.61845362 2.34106026,3.33391678 2.02241355,3.01527007 L0.802661569,1.79551809 C0.494377351,1.48723387 0.218044159,1.13361374 0,0.750201439 L0.327713895,0.422919315 C0.891174544,-0.140973105 1.80480116,-0.140973105 2.36826181,0.422919315 Z"></path></clipPath><clipPath id="i6"><path d="M0.589669125,0.101131472 L1.79594986,1.30741221 C2.01369178,1.52511095 1.85726129,1.89708133 1.55169723,1.89708133 C1.46327061,1.89708133 1.37488716,1.86336005 1.30744459,1.79591748 L0.101163854,0.589636743 C-0.0337212848,0.454751603 -0.0337212848,0.236059788 0.101163854,0.101131472 C0.236092171,-0.0337104906 0.454740809,-0.0337104906 0.589669125,0.101131472 Z"></path></clipPath><clipPath id="i7"><path d="M0.589669125,0.101131472 L0.716523331,0.227985678 C0.934826553,0.446288899 0.777273457,0.817654803 0.472270696,0.817654803 C0.383844074,0.817654803 0.29546063,0.783933518 0.22801806,0.716490949 L0.101163854,0.589636743 C-0.0337212848,0.454708426 -0.0337212848,0.236059788 0.101163854,0.101131472 C0.236092171,-0.0337104906 0.454740809,-0.0337104906 0.589669125,0.101131472 Z"></path></clipPath><clipPath id="i8"><path d="M1.29566373,0 C2.01123904,0 2.59132745,0.58008841 2.59132745,1.29566373 C2.59132745,2.01123904 2.01123904,2.59132745 1.29566373,2.59132745 C0.58008841,2.59132745 0,2.01123904 0,1.29566373 C0,0.58008841 0.58008841,0 1.29566373,0 Z"></path></clipPath></defs><g transform="translate(-896.0 -561.0)"><g clip-path="url(#i0)"><g transform="translate(896.0 560.9999999999982)"><g clip-path="url(#i1)"><polygon points="0,0 30,0 30,30 0,30 0,0" stroke="none" fill="#FFFFFF"></polygon><g transform="translate(5.0 5.0)"><g transform="translate(9.593050556430493 9.24508181505161) rotate(-44.99999999999999)"><g clip-path="url(#i2)"><polygon points="-5.68434189e-14,-1.13686838e-13 11.5817927,-1.13686838e-13 11.5817927,1.68460085 -5.68434189e-14,1.68460085 -5.68434189e-14,-1.13686838e-13" stroke="none" fill="#F3CC53"></polygon></g></g><g transform="translate(16.785515069124365 0.0)"><g clip-path="url(#i3)"><polygon points="-5.55111512e-16,1.73472348e-18 3.24867656,1.73472348e-18 3.24867656,3.24877028 -5.55111512e-16,3.24877028 -5.55111512e-16,1.73472348e-18" stroke="none" fill="#3F5B73"></polygon></g></g><g transform="translate(0.0 7.77455910615754)"><g clip-path="url(#i4)"><polygon points="0,-8.8817842e-16 12.2299622,-8.8817842e-16 12.2299622,12.2254409 0,12.2254409 0,-8.8817842e-16" stroke="none" fill="#3F5B73"></polygon></g></g><g transform="translate(0.5034405795008752 13.905646534034531)"><g transform="translate(0.0 1.777049103920945)"><g clip-path="url(#i5)"><polygon points="0,6.66133815e-16 3.84783176,6.66133815e-16 3.84783176,3.83995194 0,3.83995194 0,6.66133815e-16" stroke="none" fill="#F3CC53"></polygon></g></g><g transform="translate(3.7278642908208894 1.1765317418612538)"><g clip-path="url(#i6)"><polygon points="2.91433544e-16,-6.10622664e-16 1.89741471,-6.10622664e-16 1.89741471,1.89708133 2.91433544e-16,1.89708133 2.91433544e-16,-6.10622664e-16" stroke="none" fill="#F3CC53"></polygon></g></g><g transform="translate(2.551332548959635 0.0)"><g clip-path="url(#i7)"><polygon points="3.05311332e-16,-6.10622664e-16 0.818119036,-6.10622664e-16 0.818119036,0.817654803 3.05311332e-16,0.817654803 3.05311332e-16,-6.10622664e-16" stroke="none" fill="#F3CC53"></polygon></g></g></g><g transform="translate(5.001396211307189 12.865492735217053) rotate(-31.720060112412646)"><g clip-path="url(#i8)"><polygon points="1.13686838e-13,0 2.59132745,0 2.59132745,2.59132745 1.13686838e-13,2.59132745 1.13686838e-13,0" stroke="none" fill="#F3CC53"></polygon></g></g></g></g></g></g></g></svg>