<?xml version="1.0" encoding="UTF-8"?><svg version="1.1" width="30px" height="30px" viewBox="0 0 30.0 30.0" xmlns="http://www.w3.org/2000/svg" xmlns:xlink="http://www.w3.org/1999/xlink"><defs><clipPath id="i0"><path d="M2655,0 L2655,1581 L0,1581 L0,0 L2655,0 Z"></path></clipPath><clipPath id="i1"><path d="M15,0 C23.2842712,0 30,6.71572875 30,15 C30,23.2842712 23.2842712,30 15,30 C6.71572875,30 0,23.2842712 0,15 C0,6.71572875 6.71572875,0 15,0 Z"></path></clipPath><clipPath id="i2"><path d="M1.36771799,8.14356128e-05 L1.4946934,0.0109192502 C1.80907485,0.0605018408 2.07832538,0.272647932 2.25316937,0.608673791 C2.39623748,0.896498608 2.46224529,1.21625275 2.44505255,1.53708149 L2.43077645,1.91516817 L0,1.91516817 L0.0617096584,1.46002121 C0.0632447043,1.44543808 0.0647797896,1.43331105 0.0667753651,1.42072353 C0.120963172,1.04524646 0.281991587,0.693102381 0.530518685,0.406352159 C0.805602448,0.101795136 1.15743949,-0.0425010734 1.4946934,0.0109192502 Z"></path></clipPath><clipPath id="i3"><path d="M8.32205134,0 L8.07644084,0.55262363 C7.95225404,0.833233629 7.76466904,1.27349045 7.58046116,1.77929459 L7.48651514,2.03749261 L0.835536237,2.03749261 L0.741743717,1.77929459 C0.556921814,1.27302993 0.369797342,0.832926596 0.245610502,0.55262363 L0,0 L8.32205134,0 Z"></path></clipPath><clipPath id="i4"><path d="M1.04775281,0.0823846487 C1.27309574,0.232635069 1.33400013,0.537091589 1.1837824,0.762401837 L0.985115772,1.06041812 C0.983154278,1.06332767 0.978642843,1.07012751 0.981617775,1.08143879 C0.984625398,1.09271738 0.991948308,1.09637884 0.995054007,1.09794803 C1.25318658,1.22701432 1.44371301,1.46102052 1.51779209,1.73994493 C1.59187117,2.01886934 1.54250691,2.31655871 1.38241633,2.55667824 L1.1837497,2.85466183 C1.08927109,2.99644513 0.933757327,3.07310685 0.775301325,3.07310685 C0.681836148,3.07310685 0.587324841,3.04643053 0.503732516,2.99069142 C0.278389577,2.840441 0.217485196,2.53598448 0.367702925,2.31067423 L0.56636955,2.01265795 C0.568331044,2.0097484 0.572842479,2.00294855 0.569867547,1.99163727 C0.566859923,1.98035868 0.559537013,1.97669723 0.556431315,1.97512803 C0.298298739,1.84606175 0.107772313,1.61205554 0.0336932329,1.33313113 C-0.0403858474,1.05420672 0.00897841178,0.756517356 0.169068993,0.51639783 L0.367735617,0.21841424 C0.517953346,-0.00692869963 0.822475249,-0.0678003887 1.04775281,0.0823846487 Z"></path></clipPath><clipPath id="i5"><path d="M0.783264368,0 C0.874146911,0 0.965683285,0.0248455874 1.04773911,0.0774790028 C1.2755993,0.223283371 1.34229008,0.526661069 1.1961588,0.754848175 L0.985625139,1.08405221 C0.983336729,1.08732136 0.978106079,1.09549425 0.981702151,1.10889779 C0.985298223,1.12197442 0.99445186,1.12655124 0.997721017,1.12818582 C1.25696511,1.25797132 1.44853766,1.49302365 1.52274751,1.77319034 C1.59728427,2.05335703 1.54792001,2.35248483 1.38675061,2.59374856 L1.19125507,2.88731879 C1.09677645,3.02920017 0.941491529,3.10569842 0.783264368,3.10569842 C0.689439584,3.10569842 0.594960968,3.07921826 0.511270569,3.02331569 C0.286025704,2.87326141 0.224892483,2.56857605 0.375273669,2.34333119 L0.570769212,2.04976096 C0.573057622,2.04681872 0.578615187,2.03831891 0.575019115,2.02491537 C0.571423044,2.01151183 0.562596322,2.00693501 0.55900025,2.00530043 C0.303025317,1.87714951 0.112433508,1.64536633 0.036262168,1.36944955 C-0.0399091723,1.09320584 0.00520518374,0.796693374 0.159509358,0.555429644 L0.370369935,0.225898696 C0.463867803,0.0797674121 0.62176805,0 0.783264368,0 Z"></path></clipPath><clipPath id="i6"><path d="M7.82348343,0 L7.66613921,0.508260243 C7.30662682,1.68105039 7.18980834,2.62818587 7.32857827,3.24758487 C7.45675626,3.81908981 7.72002003,4.29864432 7.99878795,4.80721156 C8.56000794,5.83140735 9.19629264,6.99084242 8.96756788,9.3031118 L8.93210786,9.65679093 L5.99230364,9.65679093 L6.00335611,9.25322218 C6.01625066,8.94145034 5.95008932,8.63152057 5.81070536,8.35229213 C5.70309727,8.13415931 5.52963484,7.95547767 5.31472565,7.84142228 L5.05883023,7.71247677 L4.77591763,7.75684019 C4.53629389,7.79982203 4.31616546,7.91710105 4.14700124,8.09209853 C3.87744372,8.35827889 3.69185429,8.7394357 3.62507893,9.16556992 C3.61832464,9.20717021 3.6129519,9.25199413 3.60819319,9.30234428 L3.57472877,9.65832601 L0.0842965031,9.65832601 L0.048836477,9.30464689 C-0.182651382,6.99130295 0.453633316,5.83110032 1.01500681,4.80721156 C1.29009057,4.29895131 1.55504292,3.81908981 1.68306738,3.24758487 C1.82183731,2.62818587 1.70517232,1.68105039 1.34504594,0.508260243 L1.18785522,0 L7.82348343,0 Z"></path></clipPath><clipPath id="i7"><path d="M0.5,0 C0.730343087,-4.23133386e-17 0.917073053,0.186729966 0.917073053,0.417073053 L0.917073053,11.2609724 C0.917073053,11.4913155 0.730343087,11.6780455 0.5,11.6780455 C0.269656913,11.6780455 0.0829269468,11.4913155 0.0829269468,11.2609724 L0.0829269468,0.417073053 C0.0829269468,0.186729966 0.269656913,4.23133386e-17 0.5,0 Z"></path></clipPath><clipPath id="i8"><path d="M13.6034447,0 L13.1975733,1.05842773 C12.7258476,2.28586621 12.0247832,2.99015433 11.27168,2.99015433 L2.33176473,2.99015433 C1.57958252,2.99015433 0.877597016,2.28586621 0.405871355,1.05842773 L0,0 L13.6034447,0 Z"></path></clipPath></defs><g transform="translate(-747.0 -834.0)"><g clip-path="url(#i0)"><g transform="translate(747.0 833.9999999999982)"><g clip-path="url(#i1)"><polygon points="0,0 30,0 30,30 0,30 0,0" stroke="none" fill="#FFFFFF"></polygon><g transform="translate(8.0 5.0)"><g transform="translate(5.851823714708382 15.21428607949565)"><g clip-path="url(#i2)"><polygon points="0,-1.56125113e-16 2.44772392,-1.56125113e-16 2.44772392,1.91516817 0,1.91516817 0,-1.56125113e-16" stroke="none" fill="#3F5B73"></polygon></g></g><g transform="translate(2.641080423023193 5.431640046063782)"><g clip-path="url(#i3)"><polygon points="0,0 8.32205134,0 8.32205134,2.03749261 0,2.03749261 0,0" stroke="none" fill="#E7E8E8"></polygon></g></g><g transform="translate(4.170730532435799 0.0)"><g clip-path="url(#i4)"><polygon points="8.32667268e-17,5.55111512e-17 1.55148532,5.55111512e-17 1.55148532,3.07310685 8.32667268e-17,3.07310685 8.32667268e-17,5.55111512e-17" stroke="none" fill="#3F5B73"></polygon></g><g transform="translate(2.34628712796669 0.9854241363885798)"><g clip-path="url(#i5)"><polygon points="2.70616862e-16,0 1.5567142,0 1.5567142,3.10569842 2.70616862e-16,3.10569842 2.70616862e-16,0" stroke="none" fill="#3F5B73"></polygon></g></g></g><g transform="translate(2.297050813750804 7.4691326596153536)"><g clip-path="url(#i6)"><polygon points="0,0 9.01537436,0 9.01537436,9.65832601 0,9.65832601 0,0" stroke="none" fill="#F3CC53"></polygon></g></g><g transform="translate(8.851735770740945 4.372270482063797) rotate(10.0)"><g clip-path="url(#i7)"><polygon points="0.0829269468,5.68457205e-14 0.917073053,5.68457205e-14 0.917073053,11.6780455 0.0829269468,11.6780455 0.0829269468,5.68457205e-14" stroke="none" fill="#3F5B73"></polygon></g></g><g transform="translate(0.0 17.12745867019138)"><g clip-path="url(#i8)"><polygon points="0,0 13.6034447,0 13.6034447,2.99015433 0,2.99015433 0,0" stroke="none" fill="#3F5B73"></polygon></g></g></g></g></g></g></g></svg>