<?xml version="1.0" encoding="UTF-8"?><svg version="1.1" width="30px" height="30px" viewBox="0 0 30.0 30.0" xmlns="http://www.w3.org/2000/svg" xmlns:xlink="http://www.w3.org/1999/xlink"><defs><clipPath id="i0"><path d="M2655,0 L2655,1581 L0,1581 L0,0 L2655,0 Z"></path></clipPath><clipPath id="i1"><path d="M15,0 C23.2842712,0 30,6.71572875 30,15 C30,23.2842712 23.2842712,30 15,30 C6.71572875,30 0,23.2842712 0,15 C0,6.71572875 6.71572875,0 15,0 Z"></path></clipPath><clipPath id="i2"><path d="M3.47999705,0.118763459 C3.64093441,0.261888338 3.68312188,0.496575639 3.58280946,0.687200478 C3.31405969,1.19751255 3.17968481,1.75719957 3.17968481,2.3168866 L2.49556039,3.04694848 L0,2.3168866 C0,2.16219923 0.0762499354,2.01782435 0.203749827,1.93032442 L2.90343504,0.0818884907 C3.08124739,-0.0396739063 3.31905969,-0.024673919 3.47999705,0.118763459 Z"></path></clipPath><clipPath id="i3"><path d="M3.17968481,0 C3.17968481,0.559999525 3.31405969,1.11968655 3.58280946,1.62999862 C3.68312188,1.82062346 3.64093441,2.05531076 3.47999705,2.19843564 C3.39155963,2.27718557 3.27999722,2.31718554 3.16812232,2.31718554 C3.07593489,2.31718554 2.98343497,2.29031056 2.90343504,2.23531061 L0.203749827,0.386874672 C0.101749914,0.317124731 0.0325499724,0.210574822 0.00894999241,0.0915449224 L0,0 L3.17968481,0 Z"></path></clipPath><clipPath id="i4"><path d="M4.52093367,0.0966816019 C6.33468213,0.317306415 8.36030541,0.917930906 10.5415536,1.88199259 C10.7112409,1.95702378 10.8209283,2.12480488 10.8209283,2.31042973 L5.94549496,3.21230396 L0,2.31042973 L0,1.09386826 C0.167499858,1.03480581 0.757186858,0.245743976 0.872186761,0.220118997 C1.96156084,-0.0236307961 3.1871848,-0.0651932609 4.52093367,0.0966816019 Z"></path></clipPath><clipPath id="i5"><path d="M10.8209283,0.000312499735 C10.8209283,0.185624843 10.7112409,0.3537497 10.5415536,0.429062136 C8.36030541,1.39312382 6.33468213,1.99343581 4.52093367,2.21406062 C3.98937162,2.27874807 3.47499705,2.31093554 2.97968497,2.31093554 C2.23187311,2.31093554 1.52749871,2.2374981 0.872186761,2.09062323 C0.757186858,2.06499825 0.167499858,1.27593642 0,1.21687397 L0,0 L10.8209283,0.000312499735 Z"></path></clipPath><clipPath id="i6"><path d="M3.35187216,0 C3.71968435,0.610624482 3.93093417,1.32562388 3.93093417,2.09031073 L2.68271648,2.82040386 L0,2.09031073 C0,1.99437331 0.0293749751,1.89843589 0.088437425,1.81656096 L0.0964235383,1.80573503 L0.136050625,1.75546163 C0.340366212,1.50582872 1.20261148,0.572149515 3.01155995,0.083749929 C3.12343485,0.0534374547 3.23687226,0.0256249783 3.35187216,0 Z"></path></clipPath><clipPath id="i7"><path d="M3.93093417,0.000312499735 C3.93093417,0.764999352 3.71968435,1.47999875 3.35187216,2.09062323 C3.23687226,2.06499825 3.12343485,2.03718577 3.01155995,2.0068733 C0.95593669,1.45187377 0.122812396,0.321874727 0.088437425,0.274062268 C0.0293749751,0.192499837 0,0.0962499184 0,0 L3.93093417,0.000312499735 Z"></path></clipPath><clipPath id="i8"><path d="M3.47999705,0.118763459 C3.64093441,0.261888338 3.68312188,0.496575639 3.58280946,0.687200478 C3.31405969,1.19751255 3.17968481,1.75719957 3.17968481,2.3168866 L2.49556039,3.04694848 L0,2.3168866 C0,2.16219923 0.0762499354,2.01782435 0.203749827,1.93032442 L2.90343504,0.0818884907 C3.08124739,-0.0396739063 3.31905969,-0.024673919 3.47999705,0.118763459 Z"></path></clipPath><clipPath id="i9"><path d="M3.17968481,0 C3.17968481,0.559999525 3.31405969,1.11968655 3.58280946,1.62999862 C3.68312188,1.82062346 3.64093441,2.05531076 3.47999705,2.19843564 C3.39155963,2.27718557 3.27999722,2.31718554 3.16812232,2.31718554 C3.07593489,2.31718554 2.98343497,2.29031056 2.90343504,2.23531061 L0.203749827,0.386874672 C0.101749914,0.317124731 0.0325499724,0.210574822 0.00894999241,0.0915449224 L0,0 L3.17968481,0 Z"></path></clipPath><clipPath id="i10"><path d="M4.52093367,0.0966816019 C6.33468213,0.317306415 8.36030541,0.917930906 10.5415536,1.88199259 C10.7112409,1.95699253 10.8209283,2.12480488 10.8209283,2.31042973 L5.94546371,3.21230396 L0,2.31042973 L0,1.09386826 C0.167499858,1.03480581 0.757186858,0.245743976 0.872186761,0.220118997 C1.96156084,-0.0236307961 3.1871848,-0.0651932609 4.52093367,0.0966816019 Z"></path></clipPath><clipPath id="i11"><path d="M10.8209283,0.000312499735 C10.8209283,0.185624843 10.7112409,0.3537497 10.5415536,0.429062136 C8.36030541,1.39312382 6.33468213,1.99343581 4.52093367,2.21406062 C3.98937162,2.27874807 3.47499705,2.31093554 2.97968497,2.31093554 C2.23187311,2.31093554 1.52749871,2.2374981 0.872186761,2.09062323 C0.757186858,2.06499825 0.167499858,1.27593642 0,1.21687397 L0,0 L10.8209283,0.000312499735 Z"></path></clipPath><clipPath id="i12"><path d="M3.35187216,0 C3.71968435,0.610624482 3.93093417,1.32562388 3.93093417,2.09031073 L2.68271648,2.82037261 L0,2.09031073 C0,1.99437331 0.0293749751,1.89843589 0.088437425,1.81656096 L0.0964235383,1.80573503 L0.136050625,1.75546163 C0.340366212,1.50582872 1.20261148,0.572149515 3.01155995,0.083749929 C3.12343485,0.0534374547 3.23687226,0.0256249783 3.35187216,0 Z"></path></clipPath><clipPath id="i13"><path d="M3.93093417,0.000312499735 C3.93093417,0.764999352 3.71968435,1.47999875 3.35187216,2.09062323 C3.23687226,2.06499825 3.12343485,2.03718577 3.01155995,2.0068733 C0.95593669,1.45187377 0.122812396,0.321874727 0.088437425,0.274062268 C0.0293749751,0.192499837 0,0.0962499184 0,0 L3.93093417,0.000312499735 Z"></path></clipPath><clipPath id="i14"><path d="M0.156857446,0.118763459 C0.31779481,-0.024673919 0.555607109,-0.0396739063 0.733419458,0.0818884907 L3.43310467,1.93032442 C3.56060456,2.01782435 3.6368545,2.16219923 3.6368545,2.3168866 L1.14129411,3.04694848 L0.457169692,2.3168866 C0.457169692,1.75719957 0.322794806,1.19751255 0.0540450336,0.687200478 C-0.0462673814,0.496575639 -0.00407991711,0.261888338 0.156857446,0.118763459 Z"></path></clipPath><clipPath id="i15"><path d="M3.6368545,0 L3.6279045,0.0915449224 C3.60430452,0.210574822 3.53510458,0.317124731 3.43310467,0.386874672 L0.733419458,2.23531061 C0.653419526,2.29031056 0.560919604,2.31718554 0.468732182,2.31718554 C0.356857277,2.31718554 0.245294872,2.27718557 0.156857446,2.19843564 C-0.00407991711,2.05531076 -0.0462673814,1.82062346 0.0540450336,1.62999862 C0.322794806,1.11968655 0.457169692,0.559999525 0.457169692,0 L3.6368545,0 Z"></path></clipPath><clipPath id="i16"><path d="M6.29999466,0.0966816019 C7.63374353,-0.0651932609 8.85936749,-0.0236307961 9.94874157,0.220118997 C10.0637415,0.245743976 10.6534285,1.03480581 10.8209283,1.09386826 L10.8209283,2.31042973 L4.87546462,3.21230396 L0,2.31042973 C0,2.12480488 0.109687407,1.95699253 0.279374763,1.88199259 C2.46062291,0.917930906 4.4862462,0.317306415 6.29999466,0.0966816019 Z"></path></clipPath><clipPath id="i17"><path d="M10.8209283,0 L10.8209283,1.21687397 C10.6534285,1.27593642 10.0637415,2.06499825 9.94874157,2.09062323 C9.29342962,2.2374981 8.58905522,2.31093554 7.84124335,2.31093554 C7.34593127,2.31093554 6.83155671,2.27874807 6.29999466,2.21406062 C4.4862462,1.99343581 2.46062291,1.39312382 0.279374763,0.429062136 C0.109687407,0.3537497 0,0.185624843 0,0.000312499735 L10.8209283,0 Z"></path></clipPath><clipPath id="i18"><path d="M0.579062009,0 C0.694061912,0.0256249783 0.807499316,0.0534374547 0.919374221,0.083749929 C2.72832269,0.572149515 3.59056796,1.50582872 3.79488354,1.75546163 L3.83451063,1.80573503 L3.84249674,1.81656096 C3.90155919,1.89843589 3.93093417,1.99437331 3.93093417,2.09031073 L1.24821769,2.82037261 L0,2.09031073 C0,1.32562388 0.211249821,0.610624482 0.579062009,0 Z"></path></clipPath><clipPath id="i19"><path d="M3.93093417,0 C3.93093417,0.0962499184 3.90155919,0.192499837 3.84249674,0.274062268 C3.80812177,0.321874727 2.97499748,1.45187377 0.919374221,2.0068733 C0.807499316,2.03718577 0.694061912,2.06499825 0.579062009,2.09062323 C0.211249821,1.47999875 0,0.764999352 0,0.000312499735 Z"></path></clipPath></defs><g transform="translate(-747.0 -743.0)"><g clip-path="url(#i0)"><g transform="translate(747.0 742.9999999999982)"><g clip-path="url(#i1)"><polygon points="0,0 30,0 30,30 0,30 0,0" stroke="none" fill="#FFFFFF"></polygon><g transform="translate(7.0 7.0)"><g transform="translate(12.36311452220882 0.0)"><g clip-path="url(#i2)"><polygon points="0,0 3.6368545,0 3.6368545,3.04694848 0,3.04694848 0,0" stroke="none" fill="#3F5B73"></polygon></g></g><g transform="translate(12.363114522208821 2.316886596496272)"><g clip-path="url(#i3)"><polygon points="0,0 3.6368545,0 3.6368545,2.31718554 0,2.31718554 0,0" stroke="none" fill="#3F5B73"></polygon></g></g><g transform="translate(2.4796853984562004 0.006456870738960507)"><g clip-path="url(#i4)"><polygon points="0,-5.55111512e-17 10.8209283,-5.55111512e-17 10.8209283,3.21230396 0,3.21230396 0,-5.55111512e-17" stroke="none" fill="#3F5B73"></polygon></g></g><g transform="translate(2.4796853984562004 2.316886596496272)"><g clip-path="url(#i5)"><polygon points="0,0 10.8209283,0 10.8209283,2.31093554 0,2.31093554 0,0" stroke="none" fill="#3F5B73"></polygon></g></g><g transform="translate(0.0 0.22657586804417784)"><g clip-path="url(#i6)"><polygon points="0,0 3.93093417,0 3.93093417,2.82040386 0,2.82040386 0,0" stroke="none" fill="#F3CC53"></polygon></g></g><g transform="translate(0.0 2.316886596496272)"><g clip-path="url(#i7)"><polygon points="0,0 3.93093417,0 3.93093417,2.09062323 0,2.09062323 0,0" stroke="none" fill="#F3CC53"></polygon></g></g><g transform="translate(0.0 11.36592786732815)"><g transform="translate(12.36311452220882 0.0)"><g clip-path="url(#i8)"><polygon points="0,-5.82867088e-16 3.6368545,-5.82867088e-16 3.6368545,3.04694848 0,3.04694848 0,-5.82867088e-16" stroke="none" fill="#3F5B73"></polygon></g></g><g transform="translate(12.363114522208821 2.316886596496271)"><g clip-path="url(#i9)"><polygon points="0,0 3.6368545,0 3.6368545,2.31718554 0,2.31718554 0,0" stroke="none" fill="#3F5B73"></polygon></g></g><g transform="translate(2.4796853984562004 0.006456870738960507)"><g clip-path="url(#i10)"><polygon points="0,-4.4408921e-16 10.8209283,-4.4408921e-16 10.8209283,3.21230396 0,3.21230396 0,-4.4408921e-16" stroke="none" fill="#3F5B73"></polygon></g></g><g transform="translate(2.4796853984562004 2.3168865964962704)"><g clip-path="url(#i11)"><polygon points="0,0 10.8209283,0 10.8209283,2.31093554 0,2.31093554 0,0" stroke="none" fill="#3F5B73"></polygon></g></g><g transform="translate(0.0 0.22657586804417784)"><g clip-path="url(#i12)"><polygon points="0,0 3.93093417,0 3.93093417,2.82037261 0,2.82037261 0,0" stroke="none" fill="#F3CC53"></polygon></g></g><g transform="translate(0.0 2.316886596496271)"><g clip-path="url(#i13)"><polygon points="0,0 3.93093417,0 3.93093417,2.09062323 0,2.09062323 0,0" stroke="none" fill="#F3CC53"></polygon></g></g></g><g transform="translate(1.7420549315083633e-05 5.682995183638155)"><g clip-path="url(#i14)"><polygon points="0,-2.77555756e-16 3.6368545,-2.77555756e-16 3.6368545,3.04694848 0,3.04694848 0,-2.77555756e-16" stroke="none" fill="#3F5B73"></polygon></g><g transform="translate(0.0 2.3168865964962695)"><g clip-path="url(#i15)"><polygon points="-2.08166817e-17,0 3.6368545,0 3.6368545,2.31718554 -2.08166817e-17,2.31718554 -2.08166817e-17,0" stroke="none" fill="#3F5B73"></polygon></g></g><g transform="translate(2.699355291721111 0.006456870738960507)"><g clip-path="url(#i16)"><polygon points="0,-4.4408921e-16 10.8209283,-4.4408921e-16 10.8209283,3.21230396 0,3.21230396 0,-4.4408921e-16" stroke="none" fill="#3F5B73"></polygon></g></g><g transform="translate(2.699355291721111 2.3168865964962686)"><g clip-path="url(#i17)"><polygon points="0,0 10.8209283,0 10.8209283,2.31093554 0,2.31093554 0,0" stroke="none" fill="#3F5B73"></polygon></g></g><g transform="translate(12.06903485087844 0.22657586804417762)"><g clip-path="url(#i18)"><polygon points="0,0 3.93093417,0 3.93093417,2.82037261 0,2.82037261 0,0" stroke="none" fill="#F3CC53"></polygon></g></g><g transform="translate(12.06903485087844 2.316886596496269)"><g clip-path="url(#i19)"><polygon points="0,0 3.93093417,0 3.93093417,2.09062323 0,2.09062323 0,0" stroke="none" fill="#F3CC53"></polygon></g></g></g></g></g></g></g></g></svg>