<?xml version="1.0" encoding="UTF-8"?><svg version="1.1" width="30px" height="30px" viewBox="0 0 30.0 30.0" xmlns="http://www.w3.org/2000/svg" xmlns:xlink="http://www.w3.org/1999/xlink"><defs><clipPath id="i0"><path d="M2655,0 L2655,1581 L0,1581 L0,0 L2655,0 Z"></path></clipPath><clipPath id="i1"><path d="M15,0 C23.2842712,0 30,6.71572875 30,15 C30,23.2842712 23.2842712,30 15,30 C6.71572875,30 0,23.2842712 0,15 C0,6.71572875 6.71572875,0 15,0 Z"></path></clipPath><clipPath id="i2"><path d="M3.65402482,0 L3.65402482,5.6515859 L0,5.6515859 L0,0 L3.65402482,0 Z"></path></clipPath><clipPath id="i3"><path d="M3.15379041,0 L3.15379041,3.06856297 L0,3.06856297 L0,0 L3.15379041,0 Z"></path></clipPath><clipPath id="i4"><path d="M16.9311869,0 C18.6258729,0 19.9996874,1.37381444 19.9996874,3.06850044 L19.9996874,5.65096061 C19.9997704,5.7986648 19.9411319,5.94034325 19.8366892,6.0447859 C19.7322466,6.14922855 19.5905681,6.20786705 19.4428639,6.20778405 L17.0855092,6.20778405 C16.6405979,6.20781858 16.2799442,6.56850019 16.2799442,7.01341157 L16.2799442,10.5294968 L20,10.5294968 L20,11.4087838 C20,11.873345 19.623417,12.2499906 19.1588558,12.2499906 L0.64067798,12.2499906 C0.470463576,12.2499906 0.307219481,12.182387 0.187006455,12.0618806 C0.0667934288,11.9413743 -0.000495895255,11.7779657 0,11.607752 C0.0011282792,11.1879928 0.00638074057,10.5837097 0.022825947,9.85943275 C0.0357873008,9.29821619 0.439464867,8.82251014 0.991092189,8.71839805 L3.9012059,8.16845284 C4.06436253,8.13769994 4.18254476,7.99519844 4.18258776,7.82916885 L4.18258776,6.89066655 C4.18244966,6.46782658 3.8396314,6.12512029 3.4167914,6.12512031 L0.773365159,6.12512031 C0.621904299,6.12515503 0.477286004,6.06204442 0.374310355,5.95097503 C0.271334707,5.83990564 0.219325676,5.6909343 0.230798405,5.53990857 C0.330032408,4.26312275 0.471223572,2.96307603 0.672130219,1.79834273 C0.849174998,0.760503206 1.74810866,0.00111615654 2.80094031,0 Z"></path></clipPath><clipPath id="i5"><path d="M17.5229909,0 C17.6086209,3.48609542e-05 17.6780636,0.0694430499 17.6780636,0.155073023 L17.6780636,0.824886906 C17.6780636,0.910531176 17.6086352,0.979959725 17.5229909,0.979959725 L0.155414746,0.979959725 C0.110750029,0.980021769 0.0682237765,0.960837891 0.0387102427,0.92731339 C0.00919670892,0.893788889 -0.0044425869,0.849174173 0.00128001638,0.804877529 C0.0313566106,0.580709981 0.0189758088,0.356604963 0.0491149324,0.133250296 C0.0596863185,0.056754872 0.125151993,-0.000163672489 0.202374252,0 Z"></path></clipPath><clipPath id="i6"><path d="M1.6669374,0 C2.11434237,1.39857644e-16 2.47703577,0.362693395 2.47703577,0.810098372 C2.47703577,1.25750335 2.11434237,1.62019674 1.6669374,1.62019674 L0.810098372,1.62019674 C0.362693395,1.62019674 5.47913073e-17,1.25750335 0,0.810098372 C-5.47913073e-17,0.362693395 0.362693395,8.21869609e-17 0.810098372,0 L1.6669374,0 Z"></path></clipPath><clipPath id="i7"><path d="M1.6669374,0 C2.11434237,-8.59343078e-16 2.47703577,0.362693395 2.47703577,0.810098372 C2.47703577,1.25750335 2.11434237,1.62019674 1.6669374,1.62019674 L0.810098372,1.62019674 C0.362693395,1.62019674 5.47913073e-17,1.25750335 0,0.810098372 C-5.47913073e-17,0.362693395 0.362693395,8.21869609e-17 0.810098372,0 L1.6669374,0 Z"></path></clipPath><clipPath id="i8"><path d="M1.72996693,0 C2.19429356,-3.07340023e-16 2.57070466,0.376411103 2.57070466,0.84073773 C2.57070466,1.30506436 2.19429356,1.68147546 1.72996693,1.68147546 L0.84073773,1.68147546 C0.376411103,1.68147546 5.68636118e-17,1.30506436 0,0.84073773 C-5.68636118e-17,0.376411103 0.376411103,1.9631772e-16 0.84073773,0 L1.72996693,0 Z"></path></clipPath><clipPath id="i9"><path d="M1.72996693,0 C2.19429356,1.36749187e-16 2.57070466,0.376411103 2.57070466,0.84073773 C2.57070466,1.30506436 2.19429356,1.68147546 1.72996693,1.68147546 L0.84073773,1.68147546 C0.376411103,1.68147546 5.68636118e-17,1.30506436 0,0.84073773 C-5.68636118e-17,0.376411103 0.376411103,8.52954176e-17 0.84073773,0 L1.72996693,0 Z"></path></clipPath><clipPath id="i10"><path d="M0.621666321,0 L0.621666321,4.32171271 L0,4.32171271 L0,0 L0.621666321,0 Z"></path></clipPath><clipPath id="i11"><path d="M0.621666321,0 L0.621666321,1.09294967 L0,1.58136605 L0,0 L0.621666321,0 Z"></path></clipPath><clipPath id="i12"><path d="M2.89104228,0 C3.02178793,0 3.12777822,0.105990289 3.12777822,0.236735937 L3.12777822,1.45393133 C3.12777822,1.58467698 3.02178793,1.69066727 2.89104228,1.69066727 L0,1.69066727 L0.482663682,0.467281474 C0.593938999,0.185298659 0.866278645,0 1.16942301,0 Z"></path></clipPath><clipPath id="i13"><path d="M1.95835521,0 C2.26148881,2.9560204e-05 2.53381067,0.185321489 2.64511453,0.467281474 L3.12777822,1.69066727 L0.236735937,1.69066727 C0.105990289,1.69066727 0,1.58467698 0,1.45393133 L0,0.236735937 C0,0.105990289 0.105990289,0 0.236735937,0 L1.95835521,0 Z"></path></clipPath><clipPath id="i14"><path d="M16.3138949,0 L16.3138949,0.588900966 L0,0.588900966 C0.00287634789,0.403939291 0.00644051811,0.207097048 0.0110051572,0 L16.3138949,0 Z"></path></clipPath><clipPath id="i15"><path d="M1.63414078,0 C2.53665181,0 3.26828156,0.731629748 3.26828156,1.63414078 C3.26828156,2.53665181 2.53665181,3.26828156 1.63414078,3.26828156 C0.731629748,3.26828156 0,2.53665181 0,1.63414078 C0,0.731629748 0.731629748,0 1.63414078,0 Z"></path></clipPath><clipPath id="i16"><path d="M0.570454822,0 C0.885508321,0 1.14090964,0.255401323 1.14090964,0.570454822 C1.14090964,0.885508321 0.885508321,1.14090964 0.570454822,1.14090964 C0.255401323,1.14090964 0,0.885508321 0,0.570454822 C0,0.255401323 0.255401323,0 0.570454822,0 Z"></path></clipPath><clipPath id="i17"><path d="M1.63414078,0 C2.53665181,0 3.26828156,0.731629748 3.26828156,1.63414078 C3.26828156,2.53665181 2.53665181,3.26828156 1.63414078,3.26828156 C0.731629748,3.26828156 0,2.53665181 0,1.63414078 C0,0.731629748 0.731629748,0 1.63414078,0 Z"></path></clipPath><clipPath id="i18"><path d="M0.570454822,0 C0.885508321,0 1.14090964,0.255401323 1.14090964,0.570454822 C1.14090964,0.885508321 0.885508321,1.14090964 0.570454822,1.14090964 C0.255401323,1.14090964 0,0.885508321 0,0.570454822 C0,0.255401323 0.255401323,0 0.570454822,0 Z"></path></clipPath></defs><g transform="translate(-896.0 -102.0)"><g clip-path="url(#i0)"><g transform="translate(896.0 101.9999999999982)"><g clip-path="url(#i1)"><polygon points="0,0 30,0 30,30 0,30 0,0" stroke="none" fill="#FFFFFF"></polygon><g transform="translate(5.0 7.999999999999999)"><g transform="translate(15.807035124347752 5.683663435595008)"><g clip-path="url(#i2)"><polygon points="0,0 3.65402482,0 3.65402482,5.6515859 0,5.6515859 0,0" stroke="none" fill="#F3CC53"></polygon></g></g><g transform="translate(1.381587679702534 5.893199126634499)"><g clip-path="url(#i3)"><polygon points="0,0 3.15379041,0 3.15379041,3.06856297 0,3.06856297 0,0" stroke="none" fill="#82B1B0"></polygon></g></g><g clip-path="url(#i4)"><polygon points="-2.72158758e-06,0 20,0 20,12.2499906 -2.72158758e-06,12.2499906 -2.72158758e-06,0" stroke="none" fill="#3F5B73"></polygon></g><g transform="translate(1.2698809159742268 4.170766619832648)"><g clip-path="url(#i5)"><polygon points="1.10805462e-16,-3.52085585e-07 17.6780636,-3.52085585e-07 17.6780636,0.979959876 1.10805462e-16,0.979959876 1.10805462e-16,-3.52085585e-07" stroke="none" fill="#F3CC53"></polygon></g></g><g transform="translate(5.307802552975772 1.222197737108218)"><g transform="translate(0.0 5.377957678063467)"><g clip-path="url(#i6)"><polygon points="0,0 2.47703577,0 2.47703577,1.62019674 0,1.62019674 0,0" stroke="none" fill="#EDF3F3"></polygon></g></g><g transform="translate(3.7257459310258696 5.377957678063599)"><g clip-path="url(#i7)"><polygon points="0,0 2.47703577,0 2.47703577,1.62019674 0,1.62019674 0,0" stroke="none" fill="#EDF3F3"></polygon></g></g><g transform="translate(1.682851105023019 0.0)"><g clip-path="url(#i8)"><polygon points="0,0 2.57070466,0 2.57070466,1.68147546 0,1.68147546 0,0" stroke="none" fill="#EDF3F3"></polygon></g></g><g transform="translate(5.768703286330606 0.0)"><g clip-path="url(#i9)"><polygon points="0,0 2.57070466,0 2.57070466,1.68147546 0,1.68147546 0,0" stroke="none" fill="#EDF3F3"></polygon></g></g><g transform="translate(7.451491862051739 5.377957678063599)"><g clip-path="url(#i6)"><polygon points="0,0 2.47703577,0 2.47703577,1.62019674 0,1.62019674 0,0" stroke="none" fill="#EDF3F3"></polygon></g></g></g><g transform="translate(17.61625794873498 6.207784045052904)"><g clip-path="url(#i10)"><polygon points="0,0 0.621666321,0 0.621666321,4.32171271 0,4.32171271 0,0" stroke="none" fill="#82B1B0"></polygon></g></g><g transform="translate(17.61625794873498 6.207784045052904)"><g clip-path="url(#i11)"><polygon points="0,0 0.621666321,0 0.621666321,1.58136605 0,1.58136605 0,0" stroke="none" fill="#EDF3F3"></polygon></g></g><g transform="translate(2.291451553265233 1.225949495228633)"><g clip-path="url(#i12)"><polygon points="0,0 3.12777822,0 3.12777822,1.69066727 0,1.69066727 0,0" stroke="none" fill="#EDF3F3"></polygon></g></g><g transform="translate(15.21869692172595 1.225949495228633)"><g clip-path="url(#i13)"><polygon points="0,0 3.12777822,0 3.12777822,1.69066727 0,1.69066727 0,0" stroke="none" fill="#EDF3F3"></polygon></g></g><g transform="translate(0.010069969392134226 9.940595787205893)"><g clip-path="url(#i14)"><polygon points="0,0 16.3138949,0 16.3138949,0.588900966 0,0.588900966 0,0" stroke="none" fill="#F3CC53"></polygon></g></g><g transform="translate(1.5257802501400872 10.52949675354466)"><g clip-path="url(#i15)"><polygon points="0,0 3.26828156,0 3.26828156,3.26828156 0,3.26828156 0,0" stroke="none" fill="#393939"></polygon></g></g><g transform="translate(2.589466206649831 11.593182710055768)"><g clip-path="url(#i16)"><polygon points="0,0 1.14090964,0 1.14090964,1.14090964 0,1.14090964 0,0" stroke="none" fill="#EDF3F3"></polygon></g></g><g transform="translate(12.36192070074685 10.52949675354466)"><g clip-path="url(#i17)"><polygon points="0,0 3.26828156,0 3.26828156,3.26828156 0,3.26828156 0,0" stroke="none" fill="#393939"></polygon></g></g><g transform="translate(13.42560665725705 11.593182710055768)"><g clip-path="url(#i18)"><polygon points="0,0 1.14090964,0 1.14090964,1.14090964 0,1.14090964 0,0" stroke="none" fill="#EDF3F3"></polygon></g></g></g></g></g></g></g></svg>