<?xml version="1.0" encoding="UTF-8"?><svg version="1.1" width="30px" height="30px" viewBox="0 0 30.0 30.0" xmlns="http://www.w3.org/2000/svg" xmlns:xlink="http://www.w3.org/1999/xlink"><defs><clipPath id="i0"><path d="M2655,0 L2655,1581 L0,1581 L0,0 L2655,0 Z"></path></clipPath><clipPath id="i1"><path d="M15,0 C23.2842712,0 30,6.71572875 30,15 C30,23.2842712 23.2842712,30 15,30 C6.71572875,30 0,23.2842712 0,15 C0,6.71572875 6.71572875,0 15,0 Z"></path></clipPath><clipPath id="i2"><path d="M1.63706065,0 C1.7519044,0 1.86100596,0.0501953125 1.93569346,0.13734375 L3.52045908,1.98625 C3.67081065,2.16160156 3.75342783,2.385 3.75342783,2.61601562 L3.69967783,4.27417969 L3.88788096,5.86019531 L1.81799815,6.12902344 L1.06530283,7.28492187 L1.81350596,9.84335937 C1.86459971,10.0180078 1.80073252,10.2058984 1.65381846,10.3132422 C1.42463877,10.4807422 1.09897471,10.3853125 0.996396585,10.1206641 L0.0872168975,7.77496094 C-0.05868154,7.39851562 -0.020009665,6.97546875 0.19178721,6.63175781 L1.59620127,4.39511719 L2.78573252,3.54835937 L2.78573252,2.580625 L1.32233408,0.629414062 C1.1278419,0.370078125 1.31288096,0 1.63706065,0 Z"></path></clipPath><clipPath id="i3"><path d="M5.49425781,0.153902329 C5.57796875,-0.0453554836 5.85757812,-0.0528945461 5.951875,0.141597641 L7.09613281,2.5016367 C7.245,2.80870702 7.32234375,3.14550389 7.32234375,3.48675389 L7.32234375,6.24718358 C7.32234375,6.62300389 7.48621094,6.98015233 7.77109375,7.22526952 L9.00839844,8.28983983 L8.26113281,10.0436289 L4.86738281,11.1683164 C3.59960937,11.2091367 2.34734375,10.9640195 1.08804687,10.8635898 C0.739960938,10.8358555 0.370898438,10.8254258 0,10.8013242 C2.48921875,9.58421483 3.83515625,8.49765233 4.45070312,7.92155858 C4.71273437,7.67636327 5.04316406,6.99909764 5.04316406,6.64026952 L5.04316406,4.9438242 C5.04316406,4.49312108 5.14808594,4.04862889 5.34964844,3.64550389 L5.50539062,3.24710545 C5.5675,3.12292577 5.58402344,2.79839452 5.48585937,2.70023045 L4.07308594,1.21585545 L4.04992188,0.705855454 C4.20121094,0.541441391 4.43289063,0.461675766 4.66375,0.512535141 L5.28605469,0.649644516 Z"></path></clipPath><clipPath id="i4"><path d="M3.44144531,0 L5.07,1.64160156 C5.36503906,1.93664062 5.43785156,2.38554687 5.25128906,2.75867188 L5.0165625,3.22804687 C4.860625,3.53996094 4.77820313,3.88910156 4.77820313,4.2378125 L4.77820313,5.93425781 C4.77820313,6.46796875 4.55394531,6.98398438 4.16289063,7.34996094 C3.53199219,7.94039063 2.28992188,8.93425781 0.146289063,10.0467969 L0,9.39445313 C2.02242187,8.32800781 3.17179688,7.39390625 3.72207031,6.87890625 C3.9840625,6.63371094 4.13308594,6.29308594 4.13308594,5.93425781 L4.13308594,4.2378125 C4.13308594,3.78714844 4.23800781,3.34265625 4.43957031,2.93953125 L4.67425781,2.47015625 C4.73636719,2.3459375 4.71199219,2.19597656 4.61382812,2.09777344 L3.1653125,0.649296875 L3.30421875,0.232578125 C3.32730469,0.163359375 3.3590625,0.102851562 3.40117187,0.0476171875 L3.44144531,0 Z"></path></clipPath><clipPath id="i5"><path d="M11.7961328,0 L14.6116016,2.4225 C14.7860547,2.57265625 14.7555078,2.86 14.5460156,2.95535156 C14.1696875,3.12664063 13.6692187,3.19214844 13.4044531,3.45695313 C13.3342578,3.52714844 13.2780859,3.61386719 13.2302344,3.71046875 L12.8538281,4.36375 C12.5883203,4.82457031 12.1125781,5.12417969 11.5823828,5.16644531 C11.2769141,5.19082031 10.9970703,5.21746094 10.9556641,5.23859375 C10.4922266,5.47519531 10.2541406,6.27085938 9.75238281,6.43375 C9.25933594,6.59386719 8.59976562,6.09121094 8.07640625,6.1734375 C7.5665625,6.25355469 7.09402344,6.93640625 6.56167969,6.93640625 C6.029375,6.93640625 5.55679687,6.25355469 5.04695312,6.17347656 C4.52351562,6.09121094 3.86386719,6.59382813 3.37070312,6.43367188 C2.86894531,6.27074219 2.63085937,5.47507813 2.16738281,5.2384375 C1.69902344,4.99929688 0.915507812,5.27246094 0.493476562,4.9653125 C0.218046875,4.76484375 0.129570313,4.344375 0,3.97289063 L0.278789062,3.49890625 C1.5775,2.98851562 2.48175781,2.62746094 3.39726562,2.14472656 L4.49125,1.94648437 C6.49820312,2.1265625 9.98640625,2.08449219 11.7961328,0 Z"></path></clipPath><clipPath id="i6"><path d="M0.64515625,0 C1.00146621,0 1.2903125,0.288846292 1.2903125,0.64515625 C1.2903125,1.00146621 1.00146621,1.2903125 0.64515625,1.2903125 C0.288846292,1.2903125 0,1.00146621 0,0.64515625 C0,0.288846292 0.288846292,0 0.64515625,0 Z"></path></clipPath><clipPath id="i7"><path d="M1.12902344,0 C1.75256586,0 2.25804687,0.505481011 2.25804687,1.12902344 C2.25804687,1.75256586 1.75256586,2.25804687 1.12902344,2.25804687 C0.505481011,2.25804687 0,1.75256586 0,1.12902344 C0,0.505481011 0.505481011,0 1.12902344,0 Z"></path></clipPath><clipPath id="i8"><path d="M0.449371523,0.299263744 C0.917301211,-0.0872596931 1.58151996,-0.100619068 2.06136371,0.266490307 C2.11159809,0.304927807 2.13452777,0.369185619 2.12058246,0.430748119 C2.1061684,0.491998119 2.0571059,0.540005932 1.99562152,0.552584057 L1.40776996,0.672974682 C1.22987934,0.709498119 1.08843402,0.840669994 1.03921527,1.01555281 L0.762535586,1.99578718 C0.742301211,2.06785749 0.694957461,2.12758406 0.631676211,2.16414656 C0.606285586,2.17879499 0.578355898,2.18965437 0.548277773,2.19613874 C0.446910586,2.21774031 0.342809023,2.18238874 0.276871523,2.10352156 C0.0773793356,1.86461531 -0.0150425394,1.56984968 0.00198871058,1.22711531 C0.0203871481,0.856490307 0.183394961,0.518404369 0.449371523,0.299263744 Z"></path></clipPath><clipPath id="i9"><path d="M0.520976562,0.0332584875 C0.800625,-0.0690462 1.21238281,0.0973209875 1.21238281,0.0973209875 L3.43667969,4.81099286 C3.57796875,5.10935224 3.36039063,5.45318036 3.03027344,5.45318036 C2.8709375,5.45318036 2.72351562,5.36884442 2.64269531,5.23150067 L0,0.61861005 C0,0.61861005 0.120585937,0.179742862 0.520976562,0.0332584875 Z"></path></clipPath><clipPath id="i10"><path d="M3.51436699,0 C3.77882011,0.0423046875 4.15792167,0.094765625 4.60928886,0.135976562 C3.58999199,0.719335937 2.31682792,1.35050781 0.739366986,1.98519531 C0.739366986,1.98519531 0.426593549,2.07023438 0.117257611,2.16265625 L0.0756999943,2.0487207 L0.0299919865,1.93980469 C-0.0482111385,1.77007813 0.0321013615,1.57132813 0.206046674,1.50296875 C1.50479667,0.992578125 2.59889824,0.482734375 3.51436699,0 Z"></path></clipPath><clipPath id="i11"><path d="M1.2565625,0 L1.5228125,0.56421875 C1.14089844,0.77921875 0.732578125,0.95046875 0.310390625,1.08550781 L0,0.543710938 C0.43828125,0.4040625 0.86203125,0.225976563 1.2565625,0 Z"></path></clipPath></defs><g transform="translate(-896.0 -834.0)"><g clip-path="url(#i0)"><g transform="translate(896.0 833.9999999999982)"><g clip-path="url(#i1)"><polygon points="0,0 30,0 30,30 0,30 0,0" stroke="none" fill="#FFFFFF"></polygon><g transform="translate(8.0 5.0)"><g transform="translate(4.861720401484231 0.0)"><g clip-path="url(#i2)"><polygon points="3.60822483e-16,0 3.88788096,0 3.88788096,10.3965921 3.60822483e-16,10.3965921 3.60822483e-16,0" stroke="none" fill="#F6D190"></polygon></g></g><g transform="translate(2.905773236456298 4.773714858551102)"><g clip-path="url(#i3)"><polygon points="0,1.94289029e-16 9.00839844,1.94289029e-16 9.00839844,11.1728578 0,11.1728578 0,1.94289029e-16" stroke="none" fill="#3F5B73"></polygon></g></g><g transform="translate(3.5144060489564186 5.479726562500001)"><g clip-path="url(#i4)"><polygon points="0,0 5.35373006,0 5.35373006,10.0467969 0,10.0467969 0,0" stroke="none" fill="#3F5B73"></polygon></g></g><g transform="translate(0.11803886145662545 13.063593749999201)"><g clip-path="url(#i5)"><polygon points="0,0 14.7250383,0 14.7250383,6.93640625 0,6.93640625 0,0" stroke="none" fill="#3F5B73"></polygon></g></g><g transform="translate(0.11803886145675246 13.06359374999869)"><g clip-path="url(#i5)"><polygon points="0,0 14.7250383,0 14.7250383,6.93640625 0,6.93640625 0,0" stroke="none" fill="#3F5B73"></polygon></g></g><g transform="translate(4.263507611456589 2.690976562500509)"><g clip-path="url(#i6)"><polygon points="0,0 1.2903125,0 1.2903125,1.2903125 0,1.2903125 0,0" stroke="none" fill="#393939"></polygon></g></g><g transform="translate(5.410343548956462 2.437031249999563)"><g clip-path="url(#i7)"><polygon points="0,0 2.25804687,0 2.25804687,2.25804687 0,2.25804687 0,0" stroke="none" fill="#FFE09F"></polygon></g></g><g transform="translate(5.262847025876454 2.2757362555566942)"><g clip-path="url(#i8)"><polygon points="3.2439329e-16,0 2.12460503,0 2.12460503,2.2023785 3.2439329e-16,2.2023785 3.2439329e-16,0" stroke="none" fill="#393939"></polygon></g></g><g transform="translate(9.713116986456498 14.54681963751864)"><g clip-path="url(#i9)"><polygon points="0,4.71844785e-16 3.48049989,4.71844785e-16 3.48049989,5.45318036 0,5.45318036 0,4.71844785e-16" stroke="none" fill="#FFE09F"></polygon></g></g><g transform="translate(0.0 14.8741406249992)"><g clip-path="url(#i10)"><polygon points="-2.77555756e-16,0 4.60928886,0 4.60928886,2.16265625 -2.77555756e-16,2.16265625 -2.77555756e-16,0" stroke="none" fill="#3F5B73"></polygon></g></g><g transform="translate(9.402687298956412 14.079921875)"><g clip-path="url(#i11)"><polygon points="0,0 1.5228125,0 1.5228125,1.08550781 0,1.08550781 0,0" stroke="none" fill="#F6D190"></polygon></g></g></g></g></g></g></g></svg>