<?xml version="1.0" encoding="UTF-8"?><svg version="1.1" width="30px" height="30px" viewBox="0 0 30.0 30.0" xmlns="http://www.w3.org/2000/svg" xmlns:xlink="http://www.w3.org/1999/xlink"><defs><clipPath id="i0"><path d="M2655,0 L2655,1581 L0,1581 L0,0 L2655,0 Z"></path></clipPath><clipPath id="i1"><path d="M15,0 C23.2842712,0 30,6.71572875 30,15 C30,23.2842712 23.2842712,30 15,30 C6.71572875,30 0,23.2842712 0,15 C0,6.71572875 6.71572875,0 15,0 Z"></path></clipPath><clipPath id="i2"><path d="M3.02793033,0 C3.36512255,0 3.70560725,0.0744385293 4.02397511,0.228469024 C5.49352767,0.939321191 6.54518662,2.29793171 6.86430603,3.89904006 L7.43139879,6.74266345 C7.1204032,6.75003573 6.81048125,6.76478029 6.50095296,6.78725499 C5.9706858,6.82447426 5.44299536,6.88305881 4.91716589,6.96265078 C4.29957661,7.05587788 3.6852798,7.17748467 3.0735955,7.32707748 C2.56029174,7.45237041 2.04881315,7.59720345 1.53955341,7.76154082 C1.24623697,7.85587734 0.954029958,7.95647672 0.662180821,8.06333896 L0.100599378,5.24805946 C0.0331752484,4.90943573 0,4.56784161 0,4.22882422 C0,2.96490809 0.46026631,1.73080317 1.31516419,0.768685178 C1.76068594,0.267513465 2.3885821,0 3.02793033,0 Z"></path></clipPath><clipPath id="i3"><path d="M3.02793033,0 C3.29472804,0 3.5634225,0.0474187746 3.82173851,0.143151018 C3.53235873,0.272631113 3.26688517,0.463344057 3.04621787,0.711567922 C2.19128421,1.67368591 1.73105368,2.90779084 1.73105368,4.17170696 C1.73105368,4.51068857 1.76422893,4.85228269 1.83165306,5.19094221 L2.29850432,7.53156871 C2.04501965,7.60346631 1.79200023,7.68005211 1.53955341,7.76154082 C1.24623697,7.85587734 0.954029958,7.95647672 0.662180821,8.06333896 L0.100599378,5.24805946 C0.0331752484,4.90943573 0,4.56784161 0,4.22882422 C0,2.96490809 0.46026631,1.73080317 1.31516419,0.768685178 C1.76068594,0.267513465 2.3885821,0 3.02793033,0 Z"></path></clipPath><clipPath id="i4"><path d="M1.02846849,0.347834318 C1.07527887,0.581814656 0.923073551,0.809567926 0.689093212,0.856342521 C0.455112873,0.902759238 0,0.55307709 0,0.55307709 C0,0.55307709 0.285944158,0.0552336374 0.519960284,0.00845904231 C0.754298501,-0.0383513405 0.981658105,0.113853979 1.02846849,0.347834318 Z"></path></clipPath><clipPath id="i5"><path d="M0.307573761,0 C0.307573761,0 0.805059336,0.285944158 0.851833931,0.519960284 C0.898644314,0.754334288 0.746438994,0.981693892 0.512458655,1.02846849 C0.278478317,1.07527887 0.0507250475,0.923073551 0.00430832997,0.689093212 C-0.0425020529,0.455112873 0.307573761,0 0.307573761,0 Z"></path></clipPath><clipPath id="i6"><path d="M0.856342521,0.347835721 C0.902759238,0.581816059 0.55307709,1.03692893 0.55307709,1.03692893 C0.55307709,1.03692893 0.0552336374,0.750984775 0.00845904231,0.516968648 C-0.0383513405,0.282594644 0.113853979,0.0552350404 0.347834318,0.00846044529 C0.581814656,-0.0383499375 0.809532138,0.113819594 0.856342521,0.347835721 Z"></path></clipPath><clipPath id="i7"><path d="M1.03692753,0.307508929 C1.03692753,0.307508929 0.750983372,0.805352381 0.516967245,0.852126976 C0.282986907,0.898937359 0.0552336374,0.746732039 0.00845904231,0.512751701 C-0.0383513405,0.278771362 0.113853979,0.0510180929 0.347834318,0.0042434978 C0.581850444,-0.0421732197 1.03692753,0.307508929 1.03692753,0.307508929 Z"></path></clipPath><clipPath id="i8"><path d="M0.801207944,0.0915415244 L1.59970432,0.851745004 C1.73236953,0.978505231 1.73752296,1.18854356 1.61112061,1.32120877 L1.37087742,1.5736198 C1.24447507,1.70628501 1.03443674,1.71143844 0.901413656,1.58503609 L0.103275157,0.824474736 C-0.0297479267,0.698072387 -0.0349013634,0.488034056 0.0915009854,0.35536885 L0.331744181,0.102957818 C0.45814653,-0.0297073877 0.668542738,-0.0348608243 0.801207944,0.0915415244 Z"></path></clipPath><clipPath id="i9"><path d="M0.70887987,0.0493886261 L0.99815229,0.218915219 C1.16875252,0.319156719 1.22626344,0.538392503 1.12602194,0.708992728 L0.956531131,0.998265148 C0.856289631,1.16886537 0.637053847,1.22598263 0.466453622,1.12613479 L0.177181203,0.956250324 C0.00658097713,0.856402489 -0.0509299443,0.63677304 0.0493115559,0.466172814 L0.218802361,0.176900395 C0.319043861,0.00630016979 0.538279645,-0.0508170863 0.70887987,0.0493886261 Z"></path></clipPath><clipPath id="i10"><path d="M6.76921797,0 L7.7320875,4.82576396 C8.10463802,6.69327635 6.89229205,8.50957647 5.02474388,8.88216278 C3.15687361,9.2547133 1.34057349,8.042761 0.96802297,6.17485494 L0,1.32071129 C0.291849138,1.21384906 0.584056153,1.11324968 0.877372588,1.01891316 C1.38663233,0.854540001 1.89811092,0.709742746 2.41141468,0.584449818 C2.93563371,0.456186506 3.46178528,0.348751667 3.99022726,0.261894787 L4.25498507,0.219987327 C4.78081454,0.140395361 5.30850498,0.0818108067 5.83877214,0.044591542 C5.83877214,0.044591542 6.45822238,0.00737227742 6.76921797,0 Z"></path></clipPath><clipPath id="i11"><path d="M1.03014253,0 C1.34113812,0.00737227742 1.65106007,0.0221168323 1.96058836,0.044591542 C1.96058836,0.044591542 3.01854595,0.140395361 3.54437543,0.219987327 C3.63269961,0.233336159 3.72095221,0.247400747 3.80913324,0.261894787 C4.33761101,0.348751667 4.86372679,0.456258081 5.38794581,0.584449818 C5.90124958,0.709742746 6.41265659,0.854540001 6.92195212,1.01891316 C7.21526856,1.11324968 7.50747557,1.21384906 7.79932471,1.32071129 L6.83130174,6.17485494 C6.458787,8.04272521 4.64248689,9.2547133 2.77458083,8.88216278 C0.907068442,8.50961225 -0.305277528,6.69331214 0.0672729962,4.82579975 L1.02978465,0 Z"></path></clipPath><clipPath id="i12"><path d="M4.40346846,0 C5.04281669,0 5.67071284,0.267549252 6.1162346,0.768685178 C6.97113248,1.73080317 7.43139879,2.96490809 7.43139879,4.22886 C7.43139879,4.56784161 7.39822354,4.90943573 7.33079941,5.24809525 L6.76921797,8.06337474 C6.47736883,7.95651251 6.18516181,7.85591313 5.89184538,7.76157661 C5.38258563,7.59720345 4.87110705,7.4524062 4.35780328,7.32711327 C3.74611898,7.17752046 3.13182218,7.05591367 2.5142329,6.96268657 C1.98840343,6.8830946 1.46071299,6.82451005 0.930445828,6.78729078 C0.62091754,6.76481607 0.310995586,6.75007152 0,6.74269924 L0.567092757,3.89904006 C0.886212163,2.29793171 1.93787112,0.939285403 3.40742368,0.228469024 C3.72582733,0.074474317 4.06631202,0 4.40346846,0 Z"></path></clipPath><clipPath id="i13"><path d="M4.40346846,0 C4.93445137,0 5.45723889,0.185130054 5.87452411,0.534812203 C5.73706334,0.571637802 5.60153511,0.620953327 5.46987197,0.68465553 C4.0003194,1.3955077 2.94866045,2.75411822 2.62954105,4.35522657 L2.12063918,6.9070724 C1.7251487,6.85521594 1.32851302,6.81520523 0.930445828,6.78729078 C0.62091754,6.76481607 0.310995586,6.75007152 0,6.74269924 L0.567092757,3.89904006 C0.886212163,2.29793171 1.93787112,0.939285403 3.40742368,0.228469024 C3.72582733,0.074474317 4.06631202,0 4.40346846,0 Z"></path></clipPath><clipPath id="i14"><path d="M1.37095375,0.102957818 L1.61116115,0.35536885 C1.7375635,0.488034056 1.73241007,0.698072387 1.59938698,0.824474736 L0.801248483,1.58503609 C0.6682254,1.71143844 0.458187069,1.70628501 0.33178472,1.5736198 L0.0915415244,1.32120877 C-0.0348608243,1.18854356 -0.0297073877,0.978505231 0.102957818,0.851745004 L0.901489983,0.0915415244 C1.03415519,-0.0348608243 1.2445514,-0.0297073877 1.37095375,0.102957818 Z"></path></clipPath><clipPath id="i15"><path d="M0.956566919,0.176924279 L1.12602194,0.46616091 C1.22626344,0.636761136 1.16875252,0.856390585 0.99815229,0.95623842 L0.70887987,1.12612289 C0.538279645,1.22597073 0.319008073,1.16885347 0.218802361,0.998253244 L0.0493115559,0.708980824 C-0.0509299443,0.538380599 0.00658097713,0.319109027 0.177181203,0.218903315 L0.466453622,0.0494125098 C0.637053847,-0.0508289904 0.856325419,0.00628826566 0.956566919,0.176924279 Z"></path></clipPath><clipPath id="i16"><path d="M0.689093212,0.0042434978 C0.923073551,0.0510538806 1.07527887,0.278771362 1.02846849,0.512751701 C0.981658105,0.746732039 0.753940623,0.898937359 0.519960284,0.852126976 C0.285979946,0.805316593 0,0.307508929 0,0.307508929 C0,0.307508929 0.455112873,-0.0421732197 0.689093212,0.0042434978 Z"></path></clipPath><clipPath id="i17"><path d="M0.512751701,0.00844894735 C0.746732039,0.0552593302 0.898937359,0.282618934 0.852126976,0.51695715 C0.805316593,0.750937489 0.307508929,1.03691743 0.307508929,1.03691743 C0.307508929,1.03691743 -0.0421732197,0.581840349 0.0042434978,0.347824223 C0.0510180929,0.113843884 0.278735574,-0.0383256477 0.512751701,0.00844894735 Z"></path></clipPath><clipPath id="i18"><path d="M0.552719212,0 C0.552719212,0 0.902795026,0.455077086 0.855984643,0.689093212 C0.809567926,0.923073551 0.581814656,1.07527887 0.347834318,1.02846849 C0.113853979,0.981658105 -0.0383513405,0.754298501 0.00845904231,0.519960284 C0.0552694251,0.285944158 0.552719212,0 0.552719212,0 Z"></path></clipPath><clipPath id="i19"><path d="M0.516967245,0.00845904231 C0.750947584,0.0552694251 1.03692753,0.55307709 1.03692753,0.55307709 C1.03692753,0.55307709 0.581850444,0.902759238 0.347834318,0.856342521 C0.113853979,0.809532138 -0.0383513405,0.581814656 0.00845904231,0.347834318 C0.0552336374,0.113853979 0.282593241,-0.0383513405 0.516967245,0.00845904231 Z"></path></clipPath><clipPath id="i20"><path d="M1.03889817,0 C1.56916533,0.0372192646 2.09685577,0.0958038187 2.62268525,0.175395785 C3.24027453,0.268622885 3.85457133,0.390229675 4.46625563,0.539822488 C4.97955939,0.665115416 5.4909664,0.809912671 6.00029772,0.974285827 L5.99586004,0.988278839 L5.00607812,5.95003627 C4.73337543,7.31677061 3.39981634,8.20666891 2.03343987,7.93400201 C0.666705528,7.66169299 -0.223550652,6.32774023 0.0491162492,4.96136376 Z"></path></clipPath><clipPath id="i21"><path d="M4.96139955,0 L5.95118148,4.96139955 C6.22388416,6.3278118 5.3335922,7.66172877 3.96685785,7.93400201 C2.60048139,8.20666891 1.26688651,7.31677061 0.994219606,5.95003627 L0.00443768155,0.988278839 L0,0.974285827 C0.509259746,0.809912671 1.02073833,0.665115416 1.53404209,0.539822488 C2.14572639,0.390229675 2.7600232,0.268622885 3.37761248,0.175395785 C3.90344195,0.0958038187 4.43113239,0.0372192646 4.96139955,0 Z"></path></clipPath><clipPath id="i22"><path d="M1.84357038,0 L2.72985412,4.44433807 C2.83120504,4.95284628 2.50102722,5.44736147 1.99212535,5.54907027 C1.93021254,5.5612381 1.86829972,5.56750096 1.80749633,5.56750096 C1.36898897,5.56750096 0.976540456,5.25833055 0.887357372,4.81173516 L0.000751542843,0.367361299 C0.611684299,0.21483389 1.2259811,0.0932271003 1.84357038,0 Z"></path></clipPath><clipPath id="i23"><path d="M0.904487011,0 C1.52214786,0.0932271003 2.13640888,0.214798102 2.74812897,0.364426704 L1.8607716,4.81177095 C1.77158851,5.25836634 1.37914,5.56753675 0.940632643,5.56753675 C0.879829248,5.56753675 0.817916433,5.56127389 0.756003618,5.54910605 C0.247101749,5.44739726 -0.0830402854,4.95288207 0.0182748475,4.44437386 L0.903377591,0.00773015496 Z"></path></clipPath></defs><g transform="translate(-747.0 -378.0)"><g clip-path="url(#i0)"><g transform="translate(747.0 377.9999999999982)"><g clip-path="url(#i1)"><polygon points="0,0 30,0 30,30 0,30 0,0" stroke="none" fill="#FFFFFF"></polygon><g transform="translate(6.0 7.000000000000001)"><g transform="translate(9.861772997611297 0.0)"><g clip-path="url(#i2)"><polygon points="0,0 7.43139879,0 7.43139879,8.06333896 0,8.06333896 0,0" stroke="none" fill="#3F5B73"></polygon></g></g><g transform="translate(9.861737209856983 7.157550862757489e-05)"><g clip-path="url(#i3)"><polygon points="0,0 3.82173851,0 3.82173851,8.06333896 0,8.06333896 0,0" stroke="none" fill="#3F5B73"></polygon></g></g><g transform="translate(12.89634671627709 2.937730652132814)"><g transform="translate(1.988380769554169 0.8526804405391885)"><g clip-path="url(#i4)"><polygon points="0,1.96023753e-16 1.03692753,1.96023753e-16 1.03692753,0.860586019 0,0.860586019 0,1.96023753e-16" stroke="none" fill="#F3CC53"></polygon></g></g><g transform="translate(1.312300500786932 1.9883463847891107)"><g clip-path="url(#i5)"><polygon points="-3.58220398e-16,0 0.860292973,0 0.860292973,1.03692753 -3.58220398e-16,1.03692753 -3.58220398e-16,0" stroke="none" fill="#F3CC53"></polygon></g></g><g transform="translate(0.8527148253046852 0.0)"><g clip-path="url(#i6)"><polygon points="-4.92661467e-16,1.07552856e-16 0.860586019,1.07552856e-16 0.860586019,1.03692893 -4.92661467e-16,1.03692893 -4.92661467e-16,1.07552856e-16" stroke="none" fill="#F3CC53"></polygon></g></g><g transform="translate(0.0 1.311973070643944)"><g clip-path="url(#i7)"><polygon points="-4.92661467e-16,3.63424568e-16 1.03692753,3.63424568e-16 1.03692753,0.860586019 -4.92661467e-16,0.860586019 -4.92661467e-16,3.63424568e-16" stroke="none" fill="#F3CC53"></polygon></g></g></g><g transform="translate(10.97492361483101 4.904930025497326)"><g clip-path="url(#i8)"><polygon points="3.33066907e-16,-1.38777878e-17 1.70266214,-1.38777878e-17 1.70266214,1.67657762 3.33066907e-16,1.67657762 3.33066907e-16,-1.38777878e-17" stroke="none" fill="#F3CC53"></polygon></g></g><g transform="translate(11.34729086681274 2.326345665329516)"><g clip-path="url(#i9)"><polygon points="5.82867088e-16,-2.49800181e-16 1.17533349,-2.49800181e-16 1.17533349,1.17527139 5.82867088e-16,1.17527139 5.82867088e-16,-2.49800181e-16" stroke="none" fill="#F3CC53"></polygon></g></g><g transform="translate(0.0 6.742735028363313)"><g transform="translate(10.52395381821907 3.5787754313787445e-05)"><g clip-path="url(#i10)"><polygon points="0,0 7.79936043,0 7.79936043,8.94945118 0,8.94945118 0,0" stroke="none" fill="#3F5B73"></polygon></g></g><g clip-path="url(#i11)"><polygon points="-1.38777878e-17,0 7.79932471,0 7.79932471,8.94944978 -1.38777878e-17,8.94944978 -1.38777878e-17,0" stroke="none" fill="#3F5B73"></polygon></g></g><g transform="translate(1.0301425296952398 7.157550862757489e-05)"><g clip-path="url(#i12)"><polygon points="0,0 7.43139879,0 7.43139879,8.06337474 0,8.06337474 0,0" stroke="none" fill="#3F5B73"></polygon></g></g><g transform="translate(1.0301425296952402 3.5787754313787445e-05)"><g clip-path="url(#i13)"><polygon points="0,0 5.87452411,0 5.87452411,6.9070724 0,6.9070724 0,0" stroke="none" fill="#3F5B73"></polygon></g></g><g transform="translate(5.645764348210519 4.904930025497327)"><g clip-path="url(#i14)"><polygon points="0,0 1.70266214,0 1.70266214,1.67657762 0,1.67657762 0,0" stroke="none" fill="#F3CC53"></polygon></g></g><g transform="translate(5.800725743220028 2.326357569456377)"><g clip-path="url(#i15)"><polygon points="-3.05311332e-16,-2.22044605e-16 1.17533349,-2.22044605e-16 1.17533349,1.17525948 -3.05311332e-16,1.17525948 -3.05311332e-16,-2.22044605e-16" stroke="none" fill="#F3CC53"></polygon></g></g><g transform="translate(2.401695086775817 2.9377063623196595)"><g transform="translate(1.9883449817998549 1.3119973604552797)"><g clip-path="url(#i16)"><polygon points="0,1.11022302e-16 1.03692753,1.11022302e-16 1.03692753,0.860586019 0,0.860586019 0,1.11022302e-16" stroke="none" fill="#F3CC53"></polygon></g></g><g transform="translate(1.312007455409912 0.0)"><g clip-path="url(#i17)"><polygon points="1.11022302e-16,0 0.860586019,0 0.860586019,1.03691743 1.11022302e-16,1.03691743 1.11022302e-16,0" stroke="none" fill="#F3CC53"></polygon></g></g><g transform="translate(0.8526790375503879 1.988370674600446)"><g clip-path="url(#i18)"><polygon points="0,0 0.860292973,0 0.860292973,1.03692753 0,1.03692753 0,0" stroke="none" fill="#F3CC53"></polygon></g></g><g transform="translate(0.0 0.8527047303505243)"><g clip-path="url(#i19)"><polygon points="0,5.55111512e-16 1.03692753,5.55111512e-16 1.03692753,0.860586019 0,0.860586019 0,5.55111512e-16" stroke="none" fill="#F3CC53"></polygon></g></g></g><g transform="translate(0.9216901836498437 6.787290782654964)"><g transform="translate(0.0 7.157550862757489e-05)"><g clip-path="url(#i20)"><polygon points="-1.38777878e-17,0 6.00029772,0 6.00029772,7.98313285 -1.38777878e-17,7.98313285 -1.38777878e-17,0" stroke="none" fill="#82B1B0"></polygon></g></g><g transform="translate(10.47963622269026 0.0)"><g clip-path="url(#i21)"><polygon points="0,0 6.0003078,0 6.0003078,7.98313285 0,7.98313285 0,0" stroke="none" fill="#82B1B0"></polygon></g></g></g><g transform="translate(2.639816844464349 6.962758142728488)"><g transform="translate(10.29551586866501 3.5787754313787445e-05)"><g clip-path="url(#i22)"><polygon points="0,0 2.74813905,0 2.74813905,5.56750096 0,5.56750096 0,0" stroke="none" fill="#F3CC53"></polygon></g></g><g clip-path="url(#i23)"><polygon points="0,0 2.74812897,0 2.74812897,5.56753675 0,5.56753675 0,0" stroke="none" fill="#F3CC53"></polygon></g></g></g></g></g></g></g></svg>