<?xml version="1.0" encoding="UTF-8"?><svg version="1.1" width="30px" height="30px" viewBox="0 0 30.0 30.0" xmlns="http://www.w3.org/2000/svg" xmlns:xlink="http://www.w3.org/1999/xlink"><defs><clipPath id="i0"><path d="M2655,0 L2655,1581 L0,1581 L0,0 L2655,0 Z"></path></clipPath><clipPath id="i1"><path d="M15,0 C23.2842712,0 30,6.71572875 30,15 C30,23.2842712 23.2842712,30 15,30 C6.71572875,30 0,23.2842712 0,15 C0,6.71572875 6.71572875,0 15,0 Z"></path></clipPath><clipPath id="i2"><path d="M1.29032258,0 C1.29032258,0 2.58064516,1.44419355 2.58064516,3.22580645 C2.58064516,5.00741935 1.29032258,6.4516129 1.29032258,6.4516129 C1.29032258,6.4516129 0,5.00741935 0,3.22580645 C0,1.44419355 1.29032258,0 1.29032258,0 Z"></path></clipPath><clipPath id="i3"><path d="M0.354978649,0 C0.354978649,0 2.06046252,0.915806452 2.66981736,2.59032258 C3.2791722,4.26451613 2.5607851,6.06290323 2.5607851,6.06290323 C2.5607851,6.06290323 0.854333488,5.14709677 0.244978649,3.47322581 C-0.364376189,1.79935484 0.354978649,0 0.354978649,0 Z"></path></clipPath><clipPath id="i4"><path d="M0.000547980519,0 C0.000547980519,0 1.91732217,0.277096774 3.06248346,1.64193548 C4.04405028,2.81179724 4.13995549,4.40090849 4.147325,4.83106555 L4.14732217,4.94225806 C4.14732217,4.94225806 2.23054798,4.66548387 1.08538669,3.30064516 C0.10381987,2.13078341 0.00791466913,0.541435155 0.000545159114,0.111210383 L0.000547980519,0 Z"></path></clipPath><clipPath id="i5"><path d="M3.43870968,0.582947532 C4.98290323,1.47456044 5.58741935,3.31327011 5.58741935,3.31327011 C5.58741935,3.31327011 3.69258065,3.70875398 2.1483871,2.81778624 C0.604193548,1.9268185 0,0.0874636615 0,0.0874636615 C0,0.0874636615 1.89612903,-0.308020209 3.43870968,0.582947532 Z"></path></clipPath><clipPath id="i6"><path d="M3.40096774,0.0584661964 C5.15516129,0.367821035 6.35354839,1.88943394 6.35354839,1.88943394 C6.35354839,1.88943394 4.7083871,2.90943394 2.95258065,2.59911136 C1.19677419,2.28878878 0,0.768143616 0,0.768143616 L0.0633973931,0.731048695 C0.381389101,0.550667952 1.84889578,-0.215193853 3.40096774,0.0584661964 Z"></path></clipPath><clipPath id="i7"><path d="M6.29015099,0.731048695 L6.34632918,0.763754841 C6.35354839,0.768143616 5.15548387,2.28975652 3.40096774,2.59911136 C1.64645161,2.9084662 0,1.88943394 0,1.88943394 C0,1.88943394 1.1983871,0.367821035 2.95258065,0.0584661964 C4.50465261,-0.215193853 5.97215929,0.550667952 6.29015099,0.731048695 Z"></path></clipPath><clipPath id="i8"><path d="M5.58741935,0.0874636615 C5.58741935,0.0874636615 4.9816129,1.92617334 3.43903226,2.81778624 C1.89645161,3.70939915 0,3.31327011 0,3.31327011 C0,3.31327011 0.604516129,1.47456044 2.14870968,0.582947532 C3.69129032,-0.308020209 5.58741935,0.0874636615 5.58741935,0.0874636615 Z"></path></clipPath><clipPath id="i9"><path d="M4.14732217,0 L4.147325,0.111193454 C4.13995549,0.541356155 4.04405028,2.13050691 3.06248346,3.30064516 C1.91732217,4.66580645 0.000547980519,4.94225806 0.000547980519,4.94225806 L0.000545159114,4.83106555 C0.00791466913,4.40090849 0.10381987,2.81179724 1.08538669,1.64193548 C2.23054798,0.277096774 4.14732217,0 4.14732217,0 Z"></path></clipPath><clipPath id="i10"><path d="M2.56023009,0 C2.56023009,0 3.27861719,1.7983871 2.66926235,3.47258065 C2.05990751,5.14677419 0.353455897,6.06225806 0.353455897,6.06225806 C0.353455897,6.06225806 -0.363963458,4.26387097 0.245391381,2.59032258 C0.85474622,0.915806452 2.56023009,0 2.56023009,0 Z"></path></clipPath><clipPath id="i11"><path d="M1.29032258,0 C1.29032258,0 2.58064516,1.44419355 2.58064516,3.22580645 C2.58064516,5.00741935 1.29032258,6.4516129 1.29032258,6.4516129 C1.29032258,6.4516129 0,5.00741935 0,3.22580645 C0,1.44419355 1.29032258,0 1.29032258,0 Z"></path></clipPath><clipPath id="i12"><path d="M0.354217102,0 C0.354217102,0 2.06163646,0.915806452 2.6709913,2.58967742 C3.28034613,4.26387097 2.5609913,6.06225806 2.5609913,6.06225806 C2.5609913,6.06225806 0.854539683,5.14645161 0.245184844,3.47258065 C-0.364169995,1.79870968 0.354217102,0 0.354217102,0 Z"></path></clipPath><clipPath id="i13"><path d="M0.000547980519,0 C0.000547980519,0 1.91732217,0.276774194 3.06248346,1.6416129 C4.04405028,2.81147465 4.13995549,4.40082291 4.147325,4.83104768 L4.14732217,4.94225806 C4.14732217,4.94225806 2.23054798,4.66516129 1.08538669,3.30032258 C0.10381987,2.13046083 0.00791466913,0.541349572 0.000545159114,0.111192514 L0.000547980519,0 Z"></path></clipPath><clipPath id="i14"><path d="M3.43903226,0.582947532 C4.9816129,1.47359269 5.58741935,3.31327011 5.58741935,3.31327011 C5.58741935,3.31327011 3.69129032,3.70875398 2.14870968,2.81778624 C0.606129032,1.9268185 0,0.0874636615 0,0.0874636615 C0,0.0874636615 1.89483871,-0.308020209 3.43903226,0.582947532 Z"></path></clipPath><clipPath id="i15"><path d="M3.40096774,0.0584661964 C5.15548387,0.367821035 6.35354839,1.88943394 6.35354839,1.88943394 C6.35354839,1.88943394 4.7083871,2.90943394 2.95258065,2.59911136 C1.19677419,2.28878878 0,0.768143616 0,0.768143616 L0.0633973931,0.731048695 C0.381389101,0.550667952 1.84889578,-0.215193853 3.40096774,0.0584661964 Z"></path></clipPath><clipPath id="i16"><path d="M6.29015099,0.731048695 L6.34632918,0.763754841 C6.35354839,0.768143616 5.15516129,2.28975652 3.40096774,2.59911136 C1.64677419,2.9084662 0,1.88943394 0,1.88943394 C0,1.88943394 1.19806452,0.367821035 2.95258065,0.0584661964 C4.50465261,-0.215193853 5.97215929,0.550667952 6.29015099,0.731048695 Z"></path></clipPath><clipPath id="i17"><path d="M5.58741935,0.0874636615 C5.58741935,0.0874636615 4.9816129,1.92617334 3.43870968,2.81778624 C1.89580645,3.70939915 0,3.31327011 0,3.31327011 C0,3.31327011 0.605806452,1.47456044 2.1483871,0.582947532 C3.69258065,-0.308020209 5.58741935,0.0874636615 5.58741935,0.0874636615 Z"></path></clipPath><clipPath id="i18"><path d="M4.14732217,0 L4.147325,0.111192514 C4.13995549,0.541349572 4.04405028,2.13046083 3.06248346,3.30032258 C1.91732217,4.66516129 0.000547980519,4.94225806 0.000547980519,4.94225806 L0.000545159114,4.83104768 C0.00791466913,4.40082291 0.10381987,2.81147465 1.08538669,1.6416129 C2.23054798,0.276774194 4.14732217,0 4.14732217,0 Z"></path></clipPath><clipPath id="i19"><path d="M2.5607851,0 C2.5607851,0 3.2791722,1.7983871 2.66981736,3.47258065 C2.06046252,5.14677419 0.354978649,6.06225806 0.354978649,6.06225806 C0.354978649,6.06225806 -0.364376189,4.26387097 0.244978649,2.58967742 C0.854333488,0.915806452 2.5607851,0 2.5607851,0 Z"></path></clipPath><clipPath id="i20"><path d="M5.16129032,0 C8.01179226,0 10.3225806,2.31078839 10.3225806,5.16129032 C10.3225806,8.01179226 8.01179226,10.3225806 5.16129032,10.3225806 C2.31078839,10.3225806 0,8.01179226 0,5.16129032 C0,2.31078839 2.31078839,0 5.16129032,0 Z"></path></clipPath><clipPath id="i21"><path d="M4.19354839,0 C6.50958121,0 8.38709677,1.87751557 8.38709677,4.19354839 C8.38709677,6.50958121 6.50958121,8.38709677 4.19354839,8.38709677 C1.87751557,8.38709677 0,6.50958121 0,4.19354839 C0,1.87751557 1.87751557,0 4.19354839,0 Z"></path></clipPath><clipPath id="i22"><path d="M0.322580645,0 C0.500737016,0 0.64516129,0.144424274 0.64516129,0.322580645 C0.64516129,0.500737016 0.500737016,0.64516129 0.322580645,0.64516129 C0.144424274,0.64516129 0,0.500737016 0,0.322580645 C0,0.144424274 0.144424274,0 0.322580645,0 Z"></path></clipPath><clipPath id="i23"><path d="M0.322580645,0 C0.500737016,0 0.64516129,0.144424274 0.64516129,0.322580645 C0.64516129,0.500737016 0.500737016,0.64516129 0.322580645,0.64516129 C0.144424274,0.64516129 0,0.500737016 0,0.322580645 C0,0.144424274 0.144424274,0 0.322580645,0 Z"></path></clipPath><clipPath id="i24"><path d="M0.322580645,0 C0.500737016,0 0.64516129,0.144424274 0.64516129,0.322580645 C0.64516129,0.500737016 0.500737016,0.64516129 0.322580645,0.64516129 C0.144424274,0.64516129 0,0.500737016 0,0.322580645 C0,0.144424274 0.144424274,0 0.322580645,0 Z"></path></clipPath><clipPath id="i25"><path d="M0.322580645,0 C0.500737016,0 0.64516129,0.144424274 0.64516129,0.322580645 C0.64516129,0.500737016 0.500737016,0.64516129 0.322580645,0.64516129 C0.144424274,0.64516129 0,0.500737016 0,0.322580645 C0,0.144424274 0.144424274,0 0.322580645,0 Z"></path></clipPath><clipPath id="i26"><path d="M0.322580645,0 C0.500737016,0 0.64516129,0.144424274 0.64516129,0.322580645 C0.64516129,0.500737016 0.500737016,0.64516129 0.322580645,0.64516129 C0.144424274,0.64516129 0,0.500737016 0,0.322580645 C0,0.144424274 0.144424274,0 0.322580645,0 Z"></path></clipPath><clipPath id="i27"><path d="M0.322580645,0 C0.500737016,0 0.64516129,0.144424274 0.64516129,0.322580645 C0.64516129,0.500737016 0.500737016,0.64516129 0.322580645,0.64516129 C0.144424274,0.64516129 0,0.500737016 0,0.322580645 C0,0.144424274 0.144424274,0 0.322580645,0 Z"></path></clipPath><clipPath id="i28"><path d="M0.322580645,0 C0.500737016,0 0.64516129,0.144424274 0.64516129,0.322580645 C0.64516129,0.500737016 0.500737016,0.64516129 0.322580645,0.64516129 C0.144424274,0.64516129 0,0.500737016 0,0.322580645 C0,0.144424274 0.144424274,0 0.322580645,0 Z"></path></clipPath><clipPath id="i29"><path d="M0.322580645,0 C0.500737016,0 0.64516129,0.144424274 0.64516129,0.322580645 C0.64516129,0.500737016 0.500737016,0.64516129 0.322580645,0.64516129 C0.144424274,0.64516129 0,0.500737016 0,0.322580645 C0,0.144424274 0.144424274,0 0.322580645,0 Z"></path></clipPath><clipPath id="i30"><path d="M0.322580645,0 C0.500737016,0 0.64516129,0.144424274 0.64516129,0.322580645 C0.64516129,0.500737016 0.500737016,0.64516129 0.322580645,0.64516129 C0.144424274,0.64516129 0,0.500737016 0,0.322580645 C0,0.144424274 0.144424274,0 0.322580645,0 Z"></path></clipPath><clipPath id="i31"><path d="M0.322580645,0 C0.500737016,0 0.64516129,0.144424274 0.64516129,0.322580645 C0.64516129,0.500737016 0.500737016,0.64516129 0.322580645,0.64516129 C0.144424274,0.64516129 0,0.500737016 0,0.322580645 C0,0.144424274 0.144424274,0 0.322580645,0 Z"></path></clipPath><clipPath id="i32"><path d="M0.322580645,0 C0.500737016,0 0.64516129,0.144424274 0.64516129,0.322580645 C0.64516129,0.500737016 0.500737016,0.64516129 0.322580645,0.64516129 C0.144424274,0.64516129 0,0.500737016 0,0.322580645 C0,0.144424274 0.144424274,0 0.322580645,0 Z"></path></clipPath><clipPath id="i33"><path d="M0.322580645,0 C0.500737016,0 0.64516129,0.144424274 0.64516129,0.322580645 C0.64516129,0.500737016 0.500737016,0.64516129 0.322580645,0.64516129 C0.144424274,0.64516129 0,0.500737016 0,0.322580645 C0,0.144424274 0.144424274,0 0.322580645,0 Z"></path></clipPath></defs><g transform="translate(-747.0 -925.0)"><g clip-path="url(#i0)"><g transform="translate(747.0 924.9999999999982)"><g clip-path="url(#i1)"><polygon points="0,0 30,0 30,30 0,30 0,0" stroke="none" fill="#FFFFFF"></polygon><g transform="translate(4.999999999999913 5.0)"><g transform="translate(8.557741935483872 13.548387096774192)"><g clip-path="url(#i2)"><polygon points="0,0 2.58064516,0 2.58064516,6.4516129 0,6.4516129 0,0" stroke="none" fill="#F3CC53"></polygon></g></g><g transform="translate(6.073731028190196 0.603225806451519)"><g clip-path="url(#i3)"><polygon points="4.16333634e-16,0 2.9150022,0 2.9150022,6.06290323 4.16333634e-16,6.06290323 4.16333634e-16,0" stroke="none" fill="#F3CC53"></polygon></g></g><g transform="translate(12.12848427754489 12.71806451612974)"><g clip-path="url(#i4)"><polygon points="8.8817842e-16,0 4.14787015,0 4.14787015,4.94225806 8.8817842e-16,4.94225806 8.8817842e-16,0" stroke="none" fill="#F3CC53"></polygon></g></g><g transform="translate(1.1877419354837002 4.912536338484642)"><g clip-path="url(#i5)"><polygon points="0,4.16333634e-16 5.58741935,4.16333634e-16 5.58741935,3.40073377 0,3.40073377 0,4.16333634e-16" stroke="none" fill="#F3CC53"></polygon></g></g><g transform="translate(13.34258064516128 9.847017674571827)"><g clip-path="url(#i6)"><polygon points="0,5.55111512e-16 6.35354839,5.55111512e-16 6.35354839,2.65786615 0,2.65786615 0,5.55111512e-16" stroke="none" fill="#F3CC53"></polygon></g></g><g transform="translate(0.0 9.847017674572271)"><g clip-path="url(#i7)"><polygon points="0,-4.78783679e-16 6.35354839,-4.78783679e-16 6.35354839,2.65757755 0,2.65757755 0,-4.78783679e-16" stroke="none" fill="#F3CC53"></polygon></g></g><g transform="translate(12.92096774193533 4.912536338484642)"><g clip-path="url(#i8)"><polygon points="0,4.4408921e-16 5.58741935,4.4408921e-16 5.58741935,3.40096058 0,3.40096058 0,4.4408921e-16" stroke="none" fill="#F3CC53"></polygon></g></g><g transform="translate(3.4197746001259466 12.71806451612974)"><g clip-path="url(#i9)"><polygon points="-1.07119175e-16,0 4.14787015,0 4.14787015,4.94225806 -1.07119175e-16,4.94225806 -1.07119175e-16,0" stroke="none" fill="#F3CC53"></polygon></g></g><g transform="translate(10.70718926411291 0.603225806451519)"><g clip-path="url(#i10)"><polygon points="3.88578059e-16,0 2.91444719,0 2.91444719,6.06225806 3.88578059e-16,6.06225806 3.88578059e-16,0" stroke="none" fill="#F3CC53"></polygon></g></g><g transform="translate(8.557741935483872 0.0)"><g clip-path="url(#i11)"><polygon points="0,0 2.58064516,0 2.58064516,6.4516129 0,6.4516129 0,0" stroke="none" fill="#F3CC53"></polygon></g></g><g transform="translate(10.70642805911523 13.33451612903226)"><g clip-path="url(#i12)"><polygon points="6.10622664e-16,0 2.91596994,0 2.91596994,6.06225806 6.10622664e-16,6.06225806 6.10622664e-16,0" stroke="none" fill="#F3CC53"></polygon></g></g><g transform="translate(3.4197746001259466 2.339677419355212)"><g clip-path="url(#i13)"><polygon points="0,0 4.14787015,0 4.14787015,4.94225806 0,4.94225806 0,0" stroke="none" fill="#F3CC53"></polygon></g></g><g transform="translate(12.92096774193533 11.68672988687285)"><g clip-path="url(#i14)"><polygon points="0,4.16333634e-16 5.58741935,4.16333634e-16 5.58741935,3.40073377 0,3.40073377 0,4.16333634e-16" stroke="none" fill="#F3CC53"></polygon></g></g><g transform="translate(0.0 7.494437029410619)"><g clip-path="url(#i15)"><polygon points="0,-5.55111512e-16 6.35354839,-5.55111512e-16 6.35354839,2.65786615 0,2.65786615 0,-5.55111512e-16" stroke="none" fill="#F3CC53"></polygon></g></g><g transform="translate(13.34258064516128 7.49443702941054)"><g clip-path="url(#i16)"><polygon points="0,-5.06539255e-16 6.35354839,-5.06539255e-16 6.35354839,2.65757755 0,2.65757755 0,-5.06539255e-16" stroke="none" fill="#F3CC53"></polygon></g></g><g transform="translate(1.1877419354837002 11.68672988687285)"><g clip-path="url(#i17)"><polygon points="0,3.33066907e-16 5.58741935,3.33066907e-16 5.58741935,3.40096058 0,3.40096058 0,3.33066907e-16" stroke="none" fill="#F3CC53"></polygon></g></g><g transform="translate(12.12848427754489 2.339677419355212)"><g clip-path="url(#i18)"><polygon points="1.05384451e-15,0 4.14787015,0 4.14787015,4.94225806 1.05384451e-15,4.94225806 1.05384451e-15,0" stroke="none" fill="#F3CC53"></polygon></g></g><g transform="translate(6.0737310281901635 13.33451612903226)"><g clip-path="url(#i19)"><polygon points="-2.77555756e-16,0 2.9150022,0 2.9150022,6.06225806 -2.77555756e-16,6.06225806 -2.77555756e-16,0" stroke="none" fill="#F3CC53"></polygon></g></g><g transform="translate(4.6867741935484455 4.838709677418591)"><g clip-path="url(#i20)"><polygon points="0,0 10.3225806,0 10.3225806,10.3225806 0,10.3225806 0,0" stroke="none" fill="#31475A"></polygon></g></g><g transform="translate(5.654516129032255 5.806451612903227)"><g clip-path="url(#i21)"><polygon points="0,0 8.38709677,0 8.38709677,8.38709677 0,8.38709677 0,0" stroke="none" fill="#3F5B73"></polygon></g></g><g transform="translate(6.299677419354794 6.451612903225397)"><g transform="translate(3.225806451612698 0.0)"><g clip-path="url(#i22)"><polygon points="0,0 0.64516129,0 0.64516129,0.64516129 0,0.64516129 0,0" stroke="none" fill="#F3CC53"></polygon></g></g><g transform="translate(3.225806451612698 3.225806451613607)"><g clip-path="url(#i23)"><polygon points="0,0 0.64516129,0 0.64516129,0.64516129 0,0.64516129 0,0" stroke="none" fill="#F3CC53"></polygon></g></g><g transform="translate(2.419354838709751 1.829032258065126)"><g clip-path="url(#i24)"><polygon points="0,0 0.64516129,0 0.64516129,0.64516129 0,0.64516129 0,0" stroke="none" fill="#F3CC53"></polygon></g></g><g transform="translate(4.0322580645161 4.622580645162088)"><g clip-path="url(#i24)"><polygon points="0,0 0.64516129,0 0.64516129,0.64516129 0,0.64516129 0,0" stroke="none" fill="#F3CC53"></polygon></g></g><g transform="translate(1.612903225806349 3.225806451613607)"><g clip-path="url(#i25)"><polygon points="0,0 0.64516129,0 0.64516129,0.64516129 0,0.64516129 0,0" stroke="none" fill="#F3CC53"></polygon></g></g><g transform="translate(4.838709677419502 3.225806451613607)"><g clip-path="url(#i23)"><polygon points="0,0 0.64516129,0 0.64516129,0.64516129 0,0.64516129 0,0" stroke="none" fill="#F3CC53"></polygon></g></g><g transform="translate(2.419354838709751 4.622580645162088)"><g clip-path="url(#i24)"><polygon points="0,0 0.64516129,0 0.64516129,0.64516129 0,0.64516129 0,0" stroke="none" fill="#F3CC53"></polygon></g></g><g transform="translate(4.0322580645161 1.829032258065126)"><g clip-path="url(#i24)"><polygon points="0,0 0.64516129,0 0.64516129,0.64516129 0,0.64516129 0,0" stroke="none" fill="#F3CC53"></polygon></g></g><g transform="translate(3.225806451612698 6.451612903225396)"><g clip-path="url(#i26)"><polygon points="0,0 0.64516129,0 0.64516129,0.64516129 0,0.64516129 0,0" stroke="none" fill="#F3CC53"></polygon></g></g><g transform="translate(1.612903225806349 0.4322580645166454)"><g clip-path="url(#i27)"><polygon points="0,0 0.64516129,0 0.64516129,0.64516129 0,0.64516129 0,0" stroke="none" fill="#F3CC53"></polygon></g></g><g transform="translate(4.838709677419502 6.019354838710569)"><g clip-path="url(#i28)"><polygon points="0,0 0.64516129,0 0.64516129,0.64516129 0,0.64516129 0,0" stroke="none" fill="#F3CC53"></polygon></g></g><g transform="translate(0.0 3.225806451613607)"><g clip-path="url(#i25)"><polygon points="0,0 0.64516129,0 0.64516129,0.64516129 0,0.64516129 0,0" stroke="none" fill="#F3CC53"></polygon></g></g><g transform="translate(6.4516129032258505 3.225806451613607)"><g clip-path="url(#i24)"><polygon points="0,0 0.64516129,0 0.64516129,0.64516129 0,0.64516129 0,0" stroke="none" fill="#F3CC53"></polygon></g></g><g transform="translate(1.612903225806349 6.019354838710569)"><g clip-path="url(#i29)"><polygon points="0,0 0.64516129,0 0.64516129,0.64516129 0,0.64516129 0,0" stroke="none" fill="#F3CC53"></polygon></g></g><g transform="translate(4.838709677419502 0.4322580645166454)"><g clip-path="url(#i30)"><polygon points="0,0 0.64516129,0 0.64516129,0.64516129 0,0.64516129 0,0" stroke="none" fill="#F3CC53"></polygon></g></g><g transform="translate(0.43225806451619053 1.6129032258068037)"><g clip-path="url(#i31)"><polygon points="0,0 0.64516129,0 0.64516129,0.64516129 0,0.64516129 0,0" stroke="none" fill="#F3CC53"></polygon></g></g><g transform="translate(6.01935483870966 4.838709677418592)"><g clip-path="url(#i32)"><polygon points="0,0 0.64516129,0 0.64516129,0.64516129 0,0.64516129 0,0" stroke="none" fill="#F3CC53"></polygon></g></g><g transform="translate(0.43225806451619053 4.838709677418592)"><g clip-path="url(#i29)"><polygon points="0,0 0.64516129,0 0.64516129,0.64516129 0,0.64516129 0,0" stroke="none" fill="#F3CC53"></polygon></g></g><g transform="translate(6.01935483870966 1.6129032258068037)"><g clip-path="url(#i33)"><polygon points="0,0 0.64516129,0 0.64516129,0.64516129 0,0.64516129 0,0" stroke="none" fill="#F3CC53"></polygon></g></g></g></g></g></g></g></g></svg>