<?xml version="1.0" encoding="UTF-8"?><svg version="1.1" width="30px" height="30px" viewBox="0 0 30.0 30.0" xmlns="http://www.w3.org/2000/svg" xmlns:xlink="http://www.w3.org/1999/xlink"><defs><clipPath id="i0"><path d="M2655,0 L2655,1581 L0,1581 L0,0 L2655,0 Z"></path></clipPath><clipPath id="i1"><path d="M15,0 C23.2842712,0 30,6.71572875 30,15 C30,23.2842712 23.2842712,30 15,30 C6.71572875,30 0,23.2842712 0,15 C0,6.71572875 6.71572875,0 15,0 Z"></path></clipPath><clipPath id="i2"><path d="M1.90945312,0 L4.47910156,2.56960937 L0,0.969804687 L1.90945312,0 Z"></path></clipPath><clipPath id="i3"><path d="M3.64480107,0 L3.64480107,16.2111844 L0,16.2111844 L0,0 L3.64480107,0 Z"></path></clipPath><clipPath id="i4"><path d="M5.23679687,0 L7.35804687,2.12121094 L6.01472656,3.90652344 C5.94316406,4.36074219 5.73289062,4.79738281 5.38285156,5.14742187 C5.0328125,5.49746094 4.59617187,5.70777344 4.14195312,5.77933594 L2.57765625,7.34363281 L0,4.76597656 L1.56429687,3.20167969 C1.63582031,2.74746094 1.84613281,2.31082031 2.19617187,1.96078125 C2.54621094,1.61074219 2.9828125,1.40046875 3.43707031,1.32890625 L5.23679687,0 Z"></path></clipPath><clipPath id="i5"><path d="M1.50220703,0.257753906 L3.92458984,2.68013672 C4.26822266,3.02380859 4.26822266,3.58095703 3.92458984,3.92458984 C3.58095703,4.26822266 3.02376953,4.26822266 2.68013672,3.92458984 L0.257753906,1.50220703 C-0.0859179687,1.15853516 -0.0859179687,0.601386719 0.257753906,0.257753906 C0.601386719,-0.0859179687 1.15857422,-0.0859179687 1.50220703,0.257753906 Z"></path></clipPath><clipPath id="i6"><path d="M1.50220703,0.257724609 L3.92458984,2.68010742 C4.26822266,3.02374023 4.26822266,3.58092773 3.92458984,3.92456055 C3.58095703,4.26823242 3.02380859,4.26823242 2.68013672,3.92456055 L0.257753906,1.50217773 C-0.0859179687,1.15854492 -0.0859179687,0.601357422 0.257753906,0.257724609 C0.601386719,-0.0859082031 1.15857422,-0.0859082031 1.50220703,0.257724609 Z"></path></clipPath><clipPath id="i7"><path d="M1.50217773,0.257724609 L4.86424805,3.61979492 C5.20791992,3.96342773 5.20791992,4.52061523 4.86424805,4.86424805 C4.52061523,5.20788086 3.96342773,5.20788086 3.61979492,4.86420898 L0.257724609,1.50217773 C-0.0859082031,1.15854492 -0.0859082031,0.601357422 0.257724609,0.257724609 C0.601357422,-0.0859082031 1.15854492,-0.0859082031 1.50217773,0.257724609 Z"></path></clipPath><clipPath id="i8"><path d="M1.23144531,0 L2.03480469,0.803320312 C2.3784375,1.14695312 2.3784375,1.70414062 2.03480469,2.04777344 C1.69117187,2.39144531 1.13398438,2.39144531 0.790351562,2.04785156 L0,1.2575 C0.318125,1.50503906 0.832382812,1.43015625 1.12476562,1.13777344 C1.41714844,0.845390625 1.47902344,0.318125 1.23144531,0 Z"></path></clipPath><clipPath id="i9"><path d="M1.28757812,0 L2.170625,0.883046875 C2.51425781,1.22667969 2.51425781,1.78386719 2.17058594,2.1275 C1.82695312,2.47113281 1.26976562,2.47113281 0.926132812,2.1275 L0,1.20136719 C0.316679688,1.51796875 0.869296875,1.42109375 1.1859375,1.10441406 C1.47835937,0.812070312 1.53511719,0.318085938 1.28757812,0 Z"></path></clipPath><clipPath id="i10"><path d="M0.25359258,0 L3.33546758,3.08179687 C3.65214727,3.39847656 3.87542852,3.5446875 4.1921082,3.22800781 C4.40320195,3.01691406 4.2821082,2.79558594 4.17788945,2.67136719 L4.86413945,3.35765625 C5.20781133,3.70128906 5.20781133,4.25847656 4.86413945,4.60210937 C4.52050664,4.94574219 3.9633582,4.94574219 3.61968633,4.60210937 L0.257616017,1.24007812 C-0.0846105453,0.897851562 -0.0857824203,0.344023437 0.25359258,0 Z"></path></clipPath><clipPath id="i11"><path d="M0.509827097,0 C0.791396828,0 1.01965419,0.228257366 1.01965419,0.509827097 C1.01965419,0.791396828 0.791396828,1.01965419 0.509827097,1.01965419 C0.228257366,1.01965419 0,0.791396828 0,0.509827097 C0,0.228257366 0.228257366,0 0.509827097,0 Z"></path></clipPath><clipPath id="i12"><path d="M0.510039063,0 C0.791725859,0 1.02007813,0.228352266 1.02007813,0.510039062 C1.02007813,0.791725859 0.791725859,1.02007812 0.510039063,1.02007812 C0.228352266,1.02007812 0,0.791725859 0,0.510039062 C0,0.228352266 0.228352266,0 0.510039063,0 Z"></path></clipPath><clipPath id="i13"><path d="M0.870673828,0.149384766 C1.06985352,0.348525391 1.06985352,0.671494141 0.870673828,0.870673828 C0.671494141,1.06985352 0.348564453,1.06985352 0.149384766,0.870673828 C-0.0497949219,0.671494141 -0.0497949219,0.348564453 0.149384766,0.149384766 C0.348564453,-0.0497949219 0.671494141,-0.0497949219 0.870673828,0.149384766 Z"></path></clipPath><clipPath id="i14"><path d="M0.870673828,0.149384766 C1.06985352,0.348525391 1.06985352,0.671494141 0.870673828,0.870673828 C0.671494141,1.06985352 0.348564453,1.06985352 0.149384766,0.870673828 C-0.0497949219,0.671494141 -0.0497949219,0.348564453 0.149384766,0.149384766 C0.348564453,-0.0497949219 0.671494141,-0.0497949219 0.870673828,0.149384766 Z"></path></clipPath><clipPath id="i15"><path d="M0.412944119,0.032389988 C0.478373806,-0.017219387 0.571069119,-0.00854751199 0.629155056,0.0495384255 L1.25724099,0.677624363 C1.31532693,0.735671238 1.32399881,0.828405613 1.27438943,0.893835301 C1.24415506,0.933679051 1.21056131,0.972350926 1.17364724,1.00926499 C0.847319119,1.33555405 0.386655056,1.40399155 0.144740994,1.16203843 C-0.0972121311,0.920124363 -0.0288136936,0.459460301 0.297514431,0.133132176 C0.334428494,0.096218113 0.373100369,0.062624363 0.412944119,0.032389988 Z"></path></clipPath><clipPath id="i16"><path d="M0.756757812,0 C1.17472656,0 1.51351562,0.338828125 1.51351562,0.756757812 C1.51351562,1.17472656 1.1746875,1.51351562 0.756757812,1.51351562 C0.338789062,1.51351562 0,1.1746875 0,0.756757812 C0,0.338789062 0.338828125,0 0.756757812,0 Z"></path></clipPath><clipPath id="i17"><path d="M0.5,0.179568266 C0.67696956,0.179568266 0.820431734,0.32303044 0.820431734,0.5 C0.820431734,0.67696956 0.67696956,0.820431734 0.5,0.820431734 C0.32303044,0.820431734 0.179568266,0.67696956 0.179568266,0.5 C0.179568266,0.32303044 0.32303044,0.179568266 0.5,0.179568266 Z"></path></clipPath><clipPath id="i18"><path d="M1.22875977,0.076606446 L1.48583008,0.799497071 C1.4968457,0.830434571 1.51860352,0.854965821 1.54610352,0.867348634 L2.18836914,1.15668457 C2.27911133,1.19758301 2.27911133,1.34215332 2.18836914,1.3830127 L1.54610352,1.6723877 C1.51860352,1.68477051 1.49680664,1.70930176 1.48583008,1.74023926 L1.22875977,2.46312988 C1.19243164,2.56523926 1.06399414,2.56523926 1.02766602,2.46312988 L0.770595703,1.74023926 C0.759580078,1.70930176 0.737822266,1.68477051 0.710283203,1.6723877 L0.0680566406,1.38305176 C-0.0226855469,1.34215332 -0.0226855469,1.19758301 0.0680566406,1.15672363 L0.710322266,0.867387696 C0.737822266,0.855004884 0.759619141,0.830473634 0.770634766,0.799536134 L1.02770508,0.0766455085 C1.06399414,-0.0255419915 1.1924707,-0.0255419915 1.22875977,0.076606446 Z"></path></clipPath><clipPath id="i19"><path d="M1.6884375,0.103242188 L2.04167969,1.07777344 C2.05679688,1.11949219 2.08675781,1.15257812 2.12453125,1.16925781 L3.00703125,1.55933594 C3.13171875,1.61445312 3.13171875,1.80933594 3.00703125,1.86445312 L2.12453125,2.25453125 C2.08675781,2.27125 2.05679688,2.30429687 2.04167969,2.34601562 L1.6884375,3.32054687 C1.63851562,3.45824219 1.46203125,3.45824219 1.41210938,3.32054687 L1.05886719,2.34601562 C1.04375,2.30429687 1.01378906,2.27121094 0.976015625,2.25453125 L0.093515625,1.86445312 C-0.031171875,1.80933594 -0.031171875,1.61445312 0.093515625,1.55933594 L0.976015625,1.16925781 C1.01378906,1.15253906 1.04375,1.11949219 1.05886719,1.07777344 L1.41210938,0.103242187 C1.46203125,-0.0344140625 1.63855469,-0.0344140625 1.6884375,0.103242188 Z"></path></clipPath></defs><g transform="translate(-896.0 -286.0)"><g clip-path="url(#i0)"><g transform="translate(896.0 285.9999999999982)"><g clip-path="url(#i1)"><polygon points="0,0 30,0 30,30 0,30 0,0" stroke="none" fill="#FFFFFF"></polygon><g transform="translate(5.0 5.568798828126091)"><g transform="translate(0.36489257812490905 0.0)"><g transform="translate(1.4285839843751091 13.71304687500015)"><g clip-path="url(#i2)"><polygon points="0,0 4.47910156,0 4.47910156,4.4790625 0,4.4790625 0,0" stroke="none" fill="#3F5B73"></polygon></g></g><g transform="translate(14.85383972656085 2.1872553515596564) rotate(44.99999999999999)"><g clip-path="url(#i3)"><polygon points="0,0 3.64480107,0 3.64480107,16.2111844 0,16.2111844 0,0" stroke="none" fill="#3F5B73"></polygon></g></g><g transform="translate(12.27706054687496 0.0)"><g clip-path="url(#i4)"><polygon points="0,0 7.35804687,0 7.35804687,7.34363281 0,7.34363281 0,0" stroke="none" fill="#3F5B73"></polygon></g></g><g transform="translate(0.0 3.66095703125029)"><g transform="translate(11.777431640625 0.0)"><g clip-path="url(#i5)"><polygon points="0,-5.55111512e-17 4.18231445,-5.55111512e-17 4.18231445,4.18231445 0,4.18231445 0,-5.55111512e-17" stroke="none" fill="#3F5B73"></polygon></g></g><g transform="translate(3.1539160156248736 8.623505859375655)"><g clip-path="url(#i6)"><polygon points="0,0 4.18231445,0 4.18231445,4.18231445 0,4.18231445 0,0" stroke="none" fill="#3F5B73"></polygon></g></g><g transform="translate(0.0 10.83780273437515)"><g clip-path="url(#i7)"><polygon points="5.55111512e-17,0 5.12200195,0 5.12200195,5.12196777 5.55111512e-17,5.12196777 5.55111512e-17,0" stroke="none" fill="#3F5B73"></polygon></g></g></g><g transform="translate(13.66721679687498 5.537734375000582)"><g clip-path="url(#i8)"><polygon points="0,0 2.2925293,0 2.2925293,2.30553711 0,2.30553711 0,0" stroke="none" fill="#3F5B73"></polygon></g></g><g transform="translate(4.907919921874997 14.08152343749999)"><g clip-path="url(#i9)"><polygon points="0,0 2.42834473,0 2.42834473,2.38522461 0,2.38522461 0,0" stroke="none" fill="#3F5B73"></polygon></g></g><g transform="translate(0.00010859220446945983 14.7608593749992)"><g clip-path="url(#i10)"><polygon points="5.55111512e-17,0 5.12189336,0 5.12189336,4.85983398 5.55111512e-17,4.85983398 5.55111512e-17,0" stroke="none" fill="#3F5B73"></polygon></g></g><g transform="translate(6.651542968750163 6.912918242187516)"><g transform="translate(4.622756210937039 0.6273480468750008) rotate(-37.97050166480692)"><g clip-path="url(#i11)"><polygon points="0,1.13686838e-13 1.01965419,1.13686838e-13 1.01965419,1.01965419 0,1.01965419 0,1.13686838e-13" stroke="none" fill="#F3CC53"></polygon></g></g><g transform="translate(3.222705078124818 1.813448945313212)"><g clip-path="url(#i12)"><polygon points="0,0 1.02007813,0 1.02007813,1.02007812 0,1.02007812 0,0" stroke="none" fill="#F3CC53"></polygon></g></g><g transform="translate(1.611367187500036 3.424845429686684)"><g clip-path="url(#i13)"><polygon points="1.38777878e-16,5.55111512e-16 1.02005859,5.55111512e-16 1.02005859,1.02005859 1.38777878e-16,1.02005859 1.38777878e-16,5.55111512e-16" stroke="none" fill="#F3CC53"></polygon></g></g><g transform="translate(0.0 5.03621261718763)"><g clip-path="url(#i14)"><polygon points="5.55111512e-16,5.55111512e-16 1.02005859,5.55111512e-16 1.02005859,1.02005859 5.55111512e-16,1.02005859 5.55111512e-16,5.55111512e-16" stroke="none" fill="#F3CC53"></polygon></g></g></g><g transform="translate(15.12341330295067 3.1905396994898174)"><g clip-path="url(#i15)"><polygon points="0,3.46944695e-17 1.30677942,3.46944695e-17 1.30677942,1.30676804 0,1.30676804 0,3.46944695e-17" stroke="none" fill="#F3CC53"></polygon></g></g></g><g transform="translate(0.0 0.43120605398689804)"><g transform="translate(5.206874999999854 0.9339892585121562)"><g clip-path="url(#i16)"><polygon points="0,0 1.51351562,0 1.51351562,1.51351562 0,1.51351562 0,0" stroke="none" fill="#F3CC53"></polygon></g></g><g transform="translate(5.069705155522119 7.42041534636111) rotate(-80.79203094628058)"><g clip-path="url(#i17)"><polygon points="0.179568266,0.179568266 0.820431734,0.179568266 0.820431734,0.820431734 0.179568266,0.820431734 0.179568266,0.179568266" stroke="none" fill="#F3CC53"></polygon></g></g><g transform="translate(9.054208984374782 0.0)"><g clip-path="url(#i18)"><polygon points="2.77555756e-16,-6.9388939e-17 2.25642578,-6.9388939e-17 2.25642578,2.53971191 2.77555756e-16,2.53971191 2.77555756e-16,-6.9388939e-17" stroke="none" fill="#F3CC53"></polygon></g></g><g transform="translate(0.0 4.06609863351332)"><g clip-path="url(#i19)"><polygon points="0,6.9388939e-17 3.10054687,6.9388939e-17 3.10054687,3.42381836 0,3.42381836 0,6.9388939e-17" stroke="none" fill="#F3CC53"></polygon></g></g></g></g></g></g></g></g></svg>