<?xml version="1.0" encoding="UTF-8"?><svg version="1.1" width="30px" height="30px" viewBox="0 0 30.0 30.0" xmlns="http://www.w3.org/2000/svg" xmlns:xlink="http://www.w3.org/1999/xlink"><defs><clipPath id="i0"><path d="M2655,0 L2655,1581 L0,1581 L0,0 L2655,0 Z"></path></clipPath><clipPath id="i1"><path d="M15,0 C23.2842712,0 30,6.71572875 30,15 C30,23.2842712 23.2842712,30 15,30 C6.71572875,30 0,23.2842712 0,15 C0,6.71572875 6.71572875,0 15,0 Z"></path></clipPath><clipPath id="i2"><path d="M10.069502,0 C10.2193067,0 10.3480176,0.106289063 10.3763379,0.2534375 C10.4046973,0.400507813 10.3246582,0.54703125 10.1855567,0.60265625 C10.1309863,0.625039062 8.81950197,1.18171875 8.81950197,2.8125 C8.81950197,3.22152344 9.01274416,3.31855469 9.62360354,3.56363281 C10.4781738,3.90644531 11.7695801,4.42453125 12.5534473,6.77617188 C12.9389942,7.93277344 11.9985645,15.6764453 10.1956348,18.1778906 C9.77254885,18.7648828 9.30954104,19.0625 8.81950197,19.0625 L3.81950197,19.0625 C3.32946291,19.0625 2.8664551,18.7648828 2.44336916,18.1778516 C0.640478535,15.6764453 -0.299990215,7.93273438 0.0855566601,6.77617188 C0.869384785,4.42457031 2.1608301,3.90644531 3.01540041,3.56363281 C3.62625979,3.31855469 3.81950197,3.22152344 3.81950197,2.8125 C3.81950197,1.16808594 2.4670801,0.608125 2.45344729,0.602617188 C2.31438479,0.546992188 2.23430666,0.400507813 2.26266604,0.253398438 C2.29098635,0.106289063 2.41969729,0 2.56950197,0 Z"></path></clipPath><clipPath id="i3"><path d="M4.06250979,0 C3.91274416,0 3.78399416,0.106289063 3.75567385,0.253398438 C3.72731447,0.40046875 3.80735354,0.546992188 3.9464551,0.602617188 C3.96008791,0.608085938 5.31250979,1.16804688 5.31250979,2.81246094 C5.31250979,3.22148438 5.1192676,3.31851563 4.50840822,3.56359375 C3.65383791,3.90640625 2.36243166,4.42449219 1.57856447,6.77613281 C1.1930176,7.93269531 2.13344729,15.6764062 3.93637697,18.1778125 C4.35946291,18.7648047 4.82243166,19.0624219 5.31250979,19.0624219 L3.81950197,19.0624219 C3.32946291,19.0624219 2.8664551,18.7648047 2.44336916,18.1777734 C0.640478535,15.6763672 -0.299990215,7.93265625 0.0855566601,6.77609375 C0.869384785,4.42449219 2.1608301,3.90636719 3.01540041,3.56355469 C3.62625979,3.31847656 3.81950197,3.22144531 3.81950197,2.81242187 C3.81950197,1.16800781 2.4670801,0.608046875 2.45344729,0.602617188 C2.31438479,0.546992188 2.23430666,0.400507813 2.26266604,0.253398438 C2.29098635,0.106289063 2.41969729,0 2.56950197,0 Z"></path></clipPath><clipPath id="i4"><path d="M12.2455469,0 C11.9004297,2.76 11.1149219,6.31699219 9.99890625,7.86539062 C9.57582031,8.45238281 9.1128125,8.75 8.62277344,8.75 L3.62277344,8.75 C3.13273438,8.75 2.66972656,8.45238281 2.24664063,7.86539063 C1.130625,6.31699219 0.34515625,2.76 0,0 Z"></path></clipPath><clipPath id="i5"><path d="M1.49300781,0 C1.838125,2.76 2.62363281,6.31699219 3.73964844,7.86539062 C4.16273438,8.45238281 4.62570313,8.75 5.11578125,8.75 L3.62277344,8.75 C3.13273437,8.75 2.66972656,8.45238281 2.24664062,7.86539063 C1.130625,6.31699219 0.34515625,2.76 0,0 Z"></path></clipPath><clipPath id="i6"><path d="M9.11957031,0 C8.93601562,0.319140625 8.80226562,0.7296875 8.80226562,1.25 C8.80226562,1.65902344 8.99550781,1.75605469 9.60636719,2.00113281 C10.4609375,2.34394531 11.7523437,2.86203125 12.5362109,5.21367188 C12.5678516,5.30855469 12.5905078,5.44800781 12.6045312,5.625 L0,5.625 C0.0140625,5.44800781 0.0366796875,5.30855469 0.0683203125,5.21367188 C0.852148437,2.86207031 2.14359375,2.34394531 2.99816406,2.00113281 C3.60902344,1.75605469 3.80226562,1.65902344 3.80226562,1.25 C3.80226562,0.730625 3.66722656,0.319726563 3.4821875,0 Z"></path></clipPath><clipPath id="i7"><path d="M4.97519531,0 C5.16023437,0.319726563 5.29527344,0.730625 5.29527344,1.25 C5.29527344,1.65902344 5.10203125,1.75605469 4.49117187,2.00113281 C3.63660156,2.34394531 2.34515625,2.86207031 1.56132812,5.21367188 C1.5296875,5.30855469 1.50703125,5.44800781 1.49300781,5.625 L0,5.625 C0.0140625,5.44800781 0.0366796875,5.30855469 0.0683203125,5.21367188 C0.852148437,2.86207031 2.14359375,2.34394531 2.99816406,2.00113281 C3.60902344,1.75605469 3.80226562,1.65902344 3.80226562,1.25 C3.80226562,0.730625 3.66722656,0.319726563 3.4821875,0 Z"></path></clipPath><clipPath id="i8"><path d="M9.06757813,0 C9.24015625,0 9.38007813,0.139921875 9.38007813,0.3125 L9.38007813,0.9375 C9.38007813,1.11007813 9.24015625,1.25 9.06757813,1.25 L0.3125,1.25 C0.139921875,1.25 0,1.11007813 0,0.9375 L0,0.3125 C0,0.139921875 0.139921875,0 0.3125,0 Z"></path></clipPath><clipPath id="i9"><path d="M1.875,0 C1.70242187,0 1.5625,0.139921875 1.5625,0.3125 L1.5625,0.9375 C1.5625,1.11007813 1.70238281,1.25 1.875,1.25 L0.3125,1.25 C0.139921875,1.25 0,1.11007813 0,0.9375 L0,0.3125 C0,0.139921875 0.139921875,0 0.3125,0 Z"></path></clipPath><clipPath id="i10"><path d="M0.9375,0 C1.45526695,0 1.875,0.419733047 1.875,0.9375 C1.875,1.45526695 1.45526695,1.875 0.9375,1.875 C0.419733047,1.875 0,1.45526695 0,0.9375 C0,0.419733047 0.419733047,0 0.9375,0 Z"></path></clipPath><clipPath id="i11"><path d="M0.9375,0 C1.45526695,0 1.875,0.419733047 1.875,0.9375 C1.875,1.45526695 1.45526695,1.875 0.9375,1.875 C0.419733047,1.875 0,1.45526695 0,0.9375 C0,0.419733047 0.419733047,0 0.9375,0 Z"></path></clipPath><clipPath id="i12"><path d="M0.9375,0 C1.45526695,0 1.875,0.419733047 1.875,0.9375 C1.875,1.45526695 1.45526695,1.875 0.9375,1.875 C0.419733047,1.875 0,1.45526695 0,0.9375 C0,0.419733047 0.419733047,0 0.9375,0 Z"></path></clipPath><clipPath id="i13"><path d="M10.2430859,0.000991210938 L10.3225,0.003828125 C10.1570313,0.579257813 9.97535156,1.12222656 9.77835937,1.60789063 C9.615625,1.65339844 9.4903125,1.73136719 9.32550781,1.834375 C8.9815625,2.049375 8.51054687,2.34378906 7.66152344,2.34378906 C6.81246094,2.34378906 6.34140625,2.049375 5.99746094,1.83441406 C5.72621094,1.66488281 5.5625,1.56253906 5.1615625,1.56253906 C4.760625,1.56253906 4.596875,1.66488281 4.325625,1.83441406 C3.98164062,2.049375 3.51058594,2.34378906 2.66152344,2.34378906 C1.81246094,2.34378906 1.34140625,2.049375 0.997421875,1.83441406 C0.832460938,1.73132812 0.70703125,1.65328125 0.544101562,1.60777344 C0.347109375,1.12210937 0.16546875,0.57921875 0,0.0037890625 C0.0523046875,0.00140625 0.1059375,0 0.161367188,0 C1.01046875,0 1.4815625,0.294414063 1.82550781,0.509375 C2.09679687,0.67890625 2.26054688,0.78125 2.66152344,0.78125 C3.06246094,0.78125 3.22621094,0.67890625 3.49746094,0.509375 C3.84140625,0.294414062 4.31246094,0 5.16152344,0 C6.01058594,0 6.48164062,0.294414063 6.82558594,0.509375 C7.09683594,0.67890625 7.26054688,0.78125 7.66148437,0.78125 C8.06238281,0.78125 8.22609375,0.678945312 8.49730469,0.509414062 C8.84125,0.294414062 9.31230469,0 10.1613281,0 C10.2166797,0 10.2702734,0.0013671875 10.3225,0.003828125 Z"></path></clipPath><clipPath id="i14"><path d="M10.7740234,0 C11.0905469,0 11.3397266,0.0457421875 11.5478906,0.114453125 C11.5088672,0.321210938 11.4679297,0.528320313 11.425,0.734921875 C11.2536719,0.668046875 11.0517969,0.625 10.7740234,0.625 C10.2386719,0.625 9.98429687,0.784023438 9.68972656,0.968125 C9.36117187,1.17347656 8.98875,1.40625 8.27417969,1.40625 C7.55957031,1.40625 7.18714844,1.17351563 6.85855469,0.968125 C6.56398437,0.784023438 6.30960937,0.625 5.77421875,0.625 C5.23882812,0.625 4.98441406,0.784023438 4.68984375,0.968125 C4.36125,1.17351563 3.98878906,1.40625 3.27417969,1.40625 C2.55953125,1.40625 2.18710937,1.17347656 1.85851562,0.968125 C1.56390625,0.784023438 1.30949219,0.625 0.7740625,0.625 C0.496210937,0.625 0.294296875,0.668046875 0.122890625,0.735 C0.0799609375,0.528398438 0.038984375,0.321289063 0,0.11453125 C0.208203125,0.04578125 0.457460937,0 0.7740625,0 C1.48875,0 1.86117187,0.232734375 2.18972656,0.438125 C2.48433594,0.622226562 2.73875,0.78125 3.27417969,0.78125 C3.80957031,0.78125 4.06398437,0.622226563 4.35859375,0.438125 C4.6871875,0.232734375 5.05960937,0 5.77421875,0 C6.48882812,0 6.86125,0.232734375 7.18984375,0.438125 C7.48441406,0.622226562 7.73878906,0.78125 8.27417969,0.78125 C8.80949219,0.78125 9.06390625,0.622265625 9.35847656,0.438125 C9.68703125,0.232773438 10.0594531,0 10.7740234,0 Z"></path></clipPath><clipPath id="i15"><path d="M5.21945313,0 C5.9340625,0 6.30648438,0.232734375 6.63507812,0.438125 C6.92964844,0.622226563 7.18402344,0.78125 7.71941406,0.78125 C8.25472656,0.78125 8.50914063,0.622265625 8.80371094,0.438164063 C9.0628125,0.276210938 9.34996094,0.0976953125 9.80992188,0.0292578125 C10.0208984,0.191015625 10.2328516,0.38875 10.4383203,0.635351563 C10.3705078,0.628828125 10.2982422,0.625 10.2192578,0.625 C9.68390625,0.625 9.42953125,0.784023438 9.13496094,0.968125 C8.80640625,1.17347656 8.43398438,1.40625 7.71941406,1.40625 C7.00480469,1.40625 6.63238281,1.17351563 6.30378906,0.968125 C6.00921875,0.784023438 5.75484375,0.625 5.21945313,0.625 C4.6840625,0.625 4.42964844,0.784023438 4.13507813,0.968125 C3.80648438,1.17351563 3.43402344,1.40625 2.71941406,1.40625 C2.00476563,1.40625 1.63234375,1.17347656 1.30375,0.968125 C1.00914063,0.784023438 0.754726563,0.625 0.219296875,0.625 C0.140234375,0.625 0.067890625,0.628828125 0,0.635390625 C0.20546875,0.388710938 0.417460937,0.191015625 0.6284375,0.02921875 C1.08859375,0.0976171875 1.37578125,0.276171875 1.63496094,0.438125 C1.92957031,0.622226563 2.18398438,0.78125 2.71941406,0.78125 C3.25480469,0.78125 3.50921875,0.622226563 3.80382812,0.438125 C4.13242187,0.232734375 4.50484375,0 5.21945313,0 Z"></path></clipPath></defs><g transform="translate(-896.0 -378.0)"><g clip-path="url(#i0)"><g transform="translate(896.0 377.9999999999982)"><g clip-path="url(#i1)"><polygon points="0,0 30,0 30,30 0,30 0,0" stroke="none" fill="#FFFFFF"></polygon><g transform="translate(9.000000000000082 5.0)"><g transform="translate(0.0 0.9375000000000018)"><g clip-path="url(#i2)"><polygon points="-2.49800181e-16,0 12.6390062,0 12.6390062,19.0625 -2.49800181e-16,19.0625 -2.49800181e-16,0" stroke="none" fill="#3F5B73"></polygon></g></g><g transform="translate(1.7763568394002505e-15 0.9375781249999999)"><g clip-path="url(#i3)"><polygon points="-2.35922393e-16,0 5.31250979,0 5.31250979,19.0624219 -2.35922393e-16,19.0624219 -2.35922393e-16,0" stroke="none" fill="#3F5B73"></polygon></g></g><g transform="translate(0.19672853512250743 11.25)"><g clip-path="url(#i4)"><polygon points="0,0 12.2455469,0 12.2455469,8.75 0,8.75 0,0" stroke="none" fill="#3F5B73"></polygon></g></g><g transform="translate(0.19672853512250565 11.25)"><g clip-path="url(#i5)"><polygon points="0,0 5.11578125,0 5.11578125,8.75 0,8.75 0,0" stroke="none" fill="#3F5B73"></polygon></g></g><g transform="translate(0.017236347622507253 2.5)"><g clip-path="url(#i6)"><polygon points="0,0 12.6045312,0 12.6045312,5.625 0,5.625 0,0" stroke="none" fill="#3F5B73"></polygon></g></g><g transform="translate(0.017236347622506365 2.5)"><g clip-path="url(#i7)"><polygon points="0,0 5.29527344,0 5.29527344,5.625 0,5.625 0,0" stroke="none" fill="#3F5B73"></polygon></g></g><g transform="translate(1.626923847622506 0.0)"><g clip-path="url(#i8)"><polygon points="0,0 9.38007813,0 9.38007813,1.25 0,1.25 0,0" stroke="none" fill="#3F5B73"></polygon></g></g><g transform="translate(1.626923847622506 0.0)"><g clip-path="url(#i9)"><polygon points="0,0 1.875,0 1.875,1.25 0,1.25 0,0" stroke="none" fill="#3F5B73"></polygon></g></g><g transform="translate(1.9445019726226755 8.75)"><g transform="translate(3.4374999999999996 0.0)"><g clip-path="url(#i10)"><polygon points="0,0 1.875,0 1.875,1.875 0,1.875 0,0" stroke="none" fill="#F3CC53"></polygon></g></g><g transform="translate(6.875000000000001 0.0)"><g clip-path="url(#i11)"><polygon points="0,0 1.875,0 1.875,1.875 0,1.875 0,0" stroke="none" fill="#F3CC53"></polygon></g></g><g clip-path="url(#i12)"><polygon points="0,0 1.875,0 1.875,1.875 0,1.875 0,0" stroke="none" fill="#F3CC53"></polygon></g></g><g transform="translate(1.158251972622507 16.09375)"><g clip-path="url(#i13)"><polygon points="0,0 10.3225,0 10.3225,2.34378906 0,2.34378906 0,0" stroke="none" fill="#F3CC53"></polygon></g></g><g transform="translate(0.5455566601225055 13.359375)"><g clip-path="url(#i14)"><polygon points="0,0 11.5478906,0 11.5478906,1.40625 0,1.40625 0,0" stroke="none" fill="#F3CC53"></polygon></g></g><g transform="translate(1.1003222851225054 5.15625)"><g clip-path="url(#i15)"><polygon points="0,0 10.4383203,0 10.4383203,1.40625 0,1.40625 0,0" stroke="none" fill="#F3CC53"></polygon></g></g></g></g></g></g></g></svg>