<?xml version="1.0" encoding="UTF-8"?><svg version="1.1" width="30px" height="30px" viewBox="0 0 30.0 30.0" xmlns="http://www.w3.org/2000/svg" xmlns:xlink="http://www.w3.org/1999/xlink"><defs><clipPath id="i0"><path d="M2655,0 L2655,1581 L0,1581 L0,0 L2655,0 Z"></path></clipPath><clipPath id="i1"><path d="M15,0 C23.2842712,0 30,6.71572875 30,15 C30,23.2842712 23.2842712,30 15,30 C6.71572875,30 0,23.2842712 0,15 C0,6.71572875 6.71572875,0 15,0 Z"></path></clipPath><clipPath id="i2"><path d="M0.512536758,0 L1.02507352,1.13379965 L0.512536758,2.26759929 L0,2.26759929 C0,1.48047951 0.163635902,1.06593978 0.308034591,0.700193549 C0.393525723,0.483595516 0.470987111,0.286508048 0.512536758,0 Z"></path></clipPath><clipPath id="i3"><path d="M1.05698747,0 C1.05698747,0.787153953 0.893351569,1.20169368 0.74895288,1.56743991 C0.622082948,1.88883463 0.512536758,2.16639037 0.512536758,2.758507 L0,2.758507 L0,0.490941876 C0.0200914409,0.352351936 0.0319139555,0.193089681 0.0319139555,0 Z"></path></clipPath><clipPath id="i4"><path d="M1.56952423,0 C1.56952423,0.787153953 1.40588833,1.20169368 1.26148964,1.56743991 C1.13461971,1.88883463 1.02507352,2.16639037 1.02507352,2.758507 L0,2.758507 C0,1.97135305 0.163635902,1.55681332 0.308034591,1.19106709 C0.434904524,0.869672371 0.544450713,0.592116632 0.544450713,0 Z"></path></clipPath><clipPath id="i5"><path d="M1.56952423,0 C1.56952423,0.787153953 1.40588833,1.20169368 1.26148964,1.56743991 C1.13461971,1.88883463 1.02507352,2.16639037 1.02507352,2.758507 L0,2.758507 C0,1.97135305 0.163635902,1.55681332 0.308034591,1.19106709 C0.434904524,0.869672371 0.544450713,0.592116632 0.544450713,0 Z"></path></clipPath><clipPath id="i6"><path d="M2.56268379,0 C3.00606225,0 3.40792524,0.176927689 3.70222385,0.463709089 C4.07073778,0.281929386 4.50758994,0.237817056 4.92927101,0.374835216 C5.35095209,0.511819206 5.67846308,0.80427268 5.8697418,1.16796876 C6.27638846,1.10892453 6.70548423,1.2020012 7.06419163,1.46260906 C7.42289902,1.72321692 7.64400738,2.10259663 7.71354153,2.507569 C8.11854807,2.57710316 8.49789361,2.79824568 8.75850147,3.15691891 C9.01910933,3.51559213 9.11215183,3.94472207 9.05314177,4.35136874 C9.41680368,4.54264745 9.70925716,4.87015844 9.84627532,5.29183952 C9.98329348,5.71352059 9.93921531,6.15037276 9.75740144,6.51888668 C10.0441828,6.81318529 10.2211105,7.21504828 10.2211105,7.65842674 C10.2211105,8.56049144 9.48985725,9.29174471 8.58779256,9.29174471 L5.86560733,9.29174471 L0,8.2666712 Z"></path></clipPath><clipPath id="i7"><path d="M7.65842674,0 L7.65842674,8.2666712 L4.3555032,9.29174471 L1.63331797,9.29174471 C0.731253277,9.29174471 0,8.56049144 0,7.65842674 C0,7.21504828 0.176927689,6.81318529 0.463709089,6.51888668 C0.281929386,6.15037276 0.237817056,5.71352059 0.374835216,5.29183952 C0.511853375,4.87015844 0.80427268,4.54264745 1.16796876,4.35136874 C1.1089587,3.94472207 1.20203537,3.5156263 1.46264323,3.15691891 C1.72325109,2.79821151 2.10259663,2.57710316 2.50760317,2.507569 C2.57713733,2.10256246 2.79824568,1.72321692 3.15695308,1.46260906 C3.51566047,1.2020012 3.94475624,1.1089587 4.3514029,1.16796876 C4.54268162,0.804306849 4.87019261,0.511853375 5.29187369,0.374835216 C5.71355476,0.237817056 6.15040692,0.281895217 6.51892085,0.463709089 C6.81321946,0.176927689 7.21508245,0 7.65842674,0 Z"></path></clipPath><clipPath id="i8"><path d="M1.53761027,0 C4.26382746,0 6.47385179,2.21002433 6.47385179,4.93624151 C6.47385179,5.83830621 5.74259851,6.56955949 4.84053382,6.56955949 L1.53761027,6.56955949 L0,3.28477974 Z"></path></clipPath><clipPath id="i9"><path d="M4.93624151,0 L4.93624151,6.56955949 L1.63331797,6.56955949 C0.731253277,6.56955949 0,5.83830621 0,4.93624151 C0,2.21002433 2.21002433,0 4.93624151,0 Z"></path></clipPath><clipPath id="i10"><path d="M1.02507352,0 L1.02507352,1.02507352 L0,1.02507352 L0,0 L1.02507352,0 Z"></path></clipPath><clipPath id="i11"><path d="M0.768805137,0 L0.768805137,1.02507352 L0.256268379,1.02507352 L0,0.512536758 L0.256268379,0 L0.768805137,0 Z"></path></clipPath><clipPath id="i12"><path d="M0.512536758,0 L0.512536758,1.02507352 L0,1.02507352 L0,0 L0.512536758,0 Z"></path></clipPath><clipPath id="i13"><path d="M10.2849043,0 C10.2849043,1.20271876 9.30988851,2.17773451 8.10716976,2.17773451 L1.53761027,2.17773451 L0,1.08886726 L1.53761027,0 Z"></path></clipPath><clipPath id="i14"><path d="M8.747294,0 L8.747294,2.17773451 L2.17773451,2.17773451 C0.975015759,2.17773451 0,1.20275292 0,0 L8.747294,0 Z"></path></clipPath></defs><g transform="translate(-896.0 -652.0)"><g clip-path="url(#i0)"><g transform="translate(896.0 651.9999999999982)"><g clip-path="url(#i1)"><polygon points="0,0 30,0 30,30 0,30 0,0" stroke="none" fill="#FFFFFF"></polygon><g transform="translate(6.0 7.0)"><g transform="translate(8.23475724218747 0.49090770663328986)"><g clip-path="url(#i2)"><polygon points="0,0 1.02507352,0 1.02507352,2.26759929 0,2.26759929 0,0" stroke="none" fill="#F3CC53"></polygon></g></g><g transform="translate(8.747294000000004 0.0)"><g clip-path="url(#i3)"><polygon points="0,0 1.05698747,0 1.05698747,2.758507 0,2.758507 0,0" stroke="none" fill="#F3CC53"></polygon></g></g><g transform="translate(10.41249175701576 3.416911776499276e-05)"><g clip-path="url(#i4)"><polygon points="0,0 1.56952423,0 1.56952423,2.758507 0,2.758507 0,0" stroke="none" fill="#F3CC53"></polygon></g></g><g transform="translate(6.05698855824215 3.416911776499276e-05)"><g clip-path="url(#i5)"><polygon points="0,0 1.56952423,0 1.56952423,2.758507 0,2.758507 0,0" stroke="none" fill="#F3CC53"></polygon></g></g><g transform="translate(6.184610210937388 3.7835805152884294)"><g clip-path="url(#i6)"><polygon points="0,0 10.2211105,0 10.2211105,9.29174471 0,9.29174471 0,0" stroke="none" fill="#F3CC53"></polygon></g></g><g transform="translate(1.0888330882967523 3.7835805152884294)"><g clip-path="url(#i7)"><polygon points="0,0 7.65842674,0 7.65842674,9.29174471 0,9.29174471 0,0" stroke="none" fill="#F3CC53"></polygon></g></g><g transform="translate(7.209683726562612 6.50576574338305)"><g clip-path="url(#i8)"><polygon points="0,0 6.47385179,0 6.47385179,6.56955949 0,6.56955949 0,0" stroke="none" fill="#F6D76E"></polygon></g></g><g transform="translate(3.811052485507655 6.50576574338305)"><g clip-path="url(#i9)"><polygon points="0,0 4.93624151,0 4.93624151,6.56955949 0,6.56955949 0,0" stroke="none" fill="#F6D76E"></polygon></g></g><g transform="translate(6.057022727359375 10.38501978679686)"><g clip-path="url(#i10)"><polygon points="0,0 1.02507352,0 1.02507352,1.02507352 0,1.02507352 0,0" stroke="none" fill="#D35D3A"></polygon></g></g><g transform="translate(8.491025621093867 8.207285271968242)"><g clip-path="url(#i11)"><polygon points="0,0 0.768805137,0 0.768805137,1.02507352 0,1.02507352 0,0" stroke="none" fill="#D35D3A"></polygon></g></g><g transform="translate(8.23475724218747 8.207285271968242)"><g clip-path="url(#i12)"><polygon points="0,0 0.512536758,0 0.512536758,1.02507352 0,1.02507352 0,0" stroke="none" fill="#D35D3A"></polygon></g></g><g transform="translate(7.2096837265625 14.10039874417967)"><g clip-path="url(#i13)"><polygon points="0,0 10.2849043,0 10.2849043,2.17773451 0,2.17773451 0,0" stroke="none" fill="#3F5B73"></polygon></g></g><g transform="translate(0.0 14.100398744179671)"><g clip-path="url(#i14)"><polygon points="0,0 8.747294,0 8.747294,2.17773451 0,2.17773451 0,0" stroke="none" fill="#3F5B73"></polygon></g></g></g></g></g></g></g></svg>