<?xml version="1.0" encoding="UTF-8"?><svg version="1.1" width="30px" height="30px" viewBox="0 0 30.0 30.0" xmlns="http://www.w3.org/2000/svg" xmlns:xlink="http://www.w3.org/1999/xlink"><defs><clipPath id="i0"><path d="M2655,0 L2655,1581 L0,1581 L0,0 L2655,0 Z"></path></clipPath><clipPath id="i1"><path d="M15,0 C23.2842712,0 30,6.71572875 30,15 C30,23.2842712 23.2842712,30 15,30 C6.71572875,30 0,23.2842712 0,15 C0,6.71572875 6.71572875,0 15,0 Z"></path></clipPath><clipPath id="i2"><path d="M10.1086523,0 C11.1891797,0 12.0651563,0.875976562 12.0651563,1.95650391 C12.0651563,2.48050781 11.8587305,2.95599609 11.5233398,3.30720703 L16.9565039,3.30720703 C16.9565039,4.74796875 15.701543,5.91580078 14.2608984,5.91568359 L14.347793,5.91568359 C14.347793,7.3565625 13.1798438,8.52445313 11.739082,8.52445313 C11.739082,8.99109375 11.6160938,9.42861328 11.4013477,9.80730469 L13.5652734,11.9712305 L11.9050781,13.6313672 L9.55007812,11.2764258 C9.45785156,11.310293 9.36246094,11.3373633 9.26384766,11.3558203 L10.6869141,14.5688086 L8.47822266,16.9565039 L6.26953125,14.5689258 L7.69259766,11.3559375 C7.59404297,11.3374805 7.49859375,11.3103516 7.40636719,11.276543 L5.05136719,13.6314844 L3.39117187,11.9714062 L5.55503906,9.80748047 C5.34035156,9.42873047 5.21736328,8.99126953 5.21736328,8.52462891 C3.77654297,8.52462891 2.60859375,7.35667969 2.60859375,5.91585937 L2.69554687,5.91585937 C1.25490234,5.91585937 0,4.74796875 0,3.30720703 L5.43310547,3.30720703 C5.09771484,2.95605469 4.89128906,2.48050781 4.89128906,1.95650391 C4.89128906,0.875976562 5.76726562,0 6.84779297,0 C7.52847656,0 8.12777344,0.3478125 8.47822266,0.875214844 C8.82867187,0.3478125 9.42791016,0 10.1086523,0 Z"></path></clipPath><clipPath id="i3"><path d="M0.5,0 C0.776142375,0 1,1.11928813 1,2.5 C1,3.88071187 0.776142375,5 0.5,5 C0.223857625,5 0,3.88071187 0,2.5 C0,1.11928813 0.223857625,0 0.5,0 Z"></path></clipPath></defs><g transform="translate(-747.0 -194.0)"><g clip-path="url(#i0)"><g transform="translate(747.0 193.9999999999982)"><g clip-path="url(#i1)"><polygon points="0,0 30,0 30,30 0,30 0,0" stroke="none" fill="#FFFFFF"></polygon><g transform="translate(6.521777343749818 6.826132812500873)"><g clip-path="url(#i2)"><polygon points="0,0 16.9565039,0 16.9565039,16.9565039 0,16.9565039 0,0" stroke="none" fill="#3F5B73"></polygon></g><g transform="translate(8.0 4.0)"><g clip-path="url(#i3)"><polygon points="0,0 1,0 1,5 0,5 0,0" stroke="none" fill="#F3CC53"></polygon></g></g></g></g></g></g></g></svg>