<?xml version="1.0" encoding="UTF-8"?>
<svg width="53px" height="53px" viewBox="0 0 53 53" version="1.1" xmlns="http://www.w3.org/2000/svg" xmlns:xlink="http://www.w3.org/1999/xlink">
    <title>Group 2 Copy 2</title>
    <g id="Dashboard" stroke="none" stroke-width="1" fill="none" fill-rule="evenodd">
        <g id="Dashboard-&amp;-Einstellungen-Schüler:innen" transform="translate(-972.000000, -374.000000)">
            <g id="Group-2-Copy-2" transform="translate(972.000000, 374.000000)">
                <circle id="Oval" fill="#FFFFFF" cx="26.5" cy="26.5" r="26.5"></circle>
                <g id="Group-2" fill-rule="nonzero">
                    <path d="M6.58982378,0 C2.95600666,0 0,2.95600666 0,6.58982378 C0,8.28428713 0.677810445,9.92232904 1.88280679,11.1650443 L1.88280679,14.1210509 C1.88280679,14.4976123 2.10874361,14.8365175 2.4664769,14.9870793 C2.80538212,15.1377666 3.21966238,15.0624543 3.48312981,14.7799706 L5.25296819,13.0289602 C5.72366989,13.1231006 6.15677821,13.1796476 6.58982378,13.1796476 C10.2236409,13.1796476 13.2424078,10.2236409 13.2424078,6.58982378 C13.2424078,2.95600666 10.2236409,0 6.58982378,0 Z" id="Path" fill="#D45D3A" transform="translate(6.621204, 7.531573) scale(-1, 1) translate(-6.621204, -7.531573) "></path>
                    <g id="Icon-/-Tooltip" transform="translate(6.000000, 3.000000)" fill="#FFFFFF">
                        <path d="M1,1.01960784 L0,1.01960784 L0,0 L1,0 L1,1.01960784 Z M0,1.93137255 L1,1.93137255 L1,7 L0,7 L0,1.93137255 Z" id="i"></path>
                    </g>
                </g>
                <g id="chat" transform="translate(18.000000, 12.000000)" fill-rule="nonzero">
                    <g id="Group">
                        <path d="M17.6367188,2.63671875 L17.6367188,27.3632812 C17.6367188,28.822207 16.459043,30 15,30 L2.63671875,30 C1.17767578,30 0,28.822207 0,27.3632812 L0,2.63671875 C0,1.17767578 1.17767578,0 2.63671875,0 L15,0 C16.459043,0 17.6367188,1.17767578 17.6367188,2.63671875 Z" id="Path" fill="#405B73"></path>
                        <path d="M15.8789062,2.63671875 L15.8789062,27.3632812 C15.8789062,27.8554102 15.4922461,28.2421875 15,28.2421875 L2.63671875,28.2421875 C2.14447266,28.2421875 1.7578125,27.8554102 1.7578125,27.3632812 L1.7578125,2.63671875 C1.7578125,2.14447266 2.14447266,1.7578125 2.63671875,1.7578125 L15,1.7578125 C15.4922461,1.7578125 15.8789062,2.14447266 15.8789062,2.63671875 Z" id="Path" fill="#EDF4F3"></path>
                        <g id="symbol-lern-fair-copy-2" transform="translate(4.000000, 10.000000)">
                            <polygon id="Path" fill="#F4CC54" points="1.5615815 4.77704038 2.02921998 4.77704038 2.02921998 4.30944096 1.5615815 4.30944096"></polygon>
                            <polygon id="Path" fill="#F4CC54" points="1.74739074 6.48056844 1.23173576 6.48056844 1.23173576 6.99621692 1.74739074 6.99621692"></polygon>
                            <polygon id="Path" fill="#F4CC54" points="4.16490314 7.15911496 3.30686928 7.15911496 3.30686928 6.30106809 4.16490314 6.30106809"></polygon>
                            <polygon id="Path" fill="#F4CC54" points="2.59913524 7.77913016 3.1127068 7.77913016 3.1127068 7.26556512 2.59913524 7.26556512"></polygon>
                            <polyline id="Path" fill="#405B73" points="0.985383398 3.61631045 1.4780751 3.61631045 1.4780751 3.1236448 0.985383398 3.1236448 0.985383398 3.61631045"></polyline>
                            <polygon id="Path" fill="#405B73" points="0.718164202 4.5891412 1.23172925 4.5891412 1.23172925 4.07557615 0.718164202 4.07557615"></polygon>
                            <polyline id="Path" fill="#405B73" points="0.910230237 5.92110287 1.67849438 5.92110287 1.67849438 5.15283873 0.910230237 5.15283873 0.910230237 5.92110287"></polyline>
                            <polygon id="Path" fill="#405B73" points="0 6.59125057 0.718157692 6.59125057 0.718157692 7.30938221 0 7.30938221"></polygon>
                            <polygon id="Path" fill="#405B73" points="2.74944808 5.41170468 2.13567665 5.41170468 2.13567665 6.0254696 2.74944808 6.0254696"></polygon>
                            <polygon id="Path" fill="#405B73" points="1.23173576 7.42631462 1.9290201 7.42631462 1.9290201 8.12361199 1.23173576 8.12361199"></polygon>
                            <polygon id="Path" fill="#405B73" points="2.72440787 6.54528493 2.27346938 6.54528493 2.27346938 6.99621692 2.72440787 6.99621692"></polygon>
                            <path d="M9.584616,5.29666038 L9.584616,5.29809274 C9.58318364,5.29945999 9.58318364,5.29945999 9.58181639,5.30089235 C9.50023715,5.622782 9.29925144,5.89408341 9.00965493,6.0683752 C8.52330466,6.36220368 7.90758653,6.31721465 7.71643199,6.24129974 C7.54350746,6.17384875 7.40717312,6.06277599 7.30033232,5.93347323 C7.29896507,5.93204087 7.29896507,5.93204087 7.29753272,5.93204087 C7.21263302,5.82018682 7.14277307,5.69830627 7.09231504,5.5679618 C7.0818979,5.53898912 7.07213183,5.50910495 7.06334237,5.47980674 C7.13079336,5.59921322 7.22943066,5.69772031 7.35372017,5.76334829 C7.46056097,5.81960086 7.57443334,5.84772714 7.68973807,5.84772714 C7.76845259,5.84772714 7.84573476,5.83503125 7.92164967,5.80976968 L7.93571281,5.80410536 C8.05095243,5.76478065 8.15076166,5.70012927 8.22947618,5.61718279 L8.43469386,5.78867497 L8.66387096,5.9798295 L8.72995469,5.68886574 L8.7875745,5.43162747 C8.82273235,5.43865904 8.8606247,5.44145864 8.89721491,5.44145864 C8.97449708,5.44145864 9.05184435,5.42882786 9.12775926,5.40350118 C9.39906067,5.31306738 9.57966785,5.07549146 9.60942181,4.8073803 C9.62960502,4.95699648 9.62589392,5.10993313 9.59301482,5.26013528 C9.59021521,5.27276607 9.5874156,5.2840296 9.584616,5.29666038 L9.584616,5.29666038 Z M7.02486405,4.76108913 L7.52944432,4.5910293 C7.67001061,4.54460792 7.82184044,4.55587145 7.95400791,4.62612205 C8.057984,4.68094225 8.13956323,4.76532109 8.19015148,4.8749615 C8.20421462,4.90452014 8.21547815,4.93538092 8.22530933,4.96773916 C8.24217207,5.02399172 8.24777129,5.08161153 8.24640404,5.13643174 C8.24353932,5.21234665 8.22530933,5.2840296 8.19295108,5.35011334 C8.16762441,5.40493354 8.13253166,5.45552178 8.08890989,5.49907845 C8.03129008,5.55813062 7.95960713,5.60311965 7.87666064,5.63124593 L7.86402986,5.63547789 C7.72203121,5.68326652 7.57163374,5.67200299 7.43953137,5.60168729 C7.30736389,5.53280395 7.21178663,5.41476472 7.17102956,5.27139882 L7.02486405,4.76108913 Z M7.24271251,4.30989671 C7.29896507,4.25644376 7.3649837,4.21711905 7.44513058,4.19459199 C7.80217808,4.09621511 8.08611028,4.2860024 8.1128042,4.30566475 C8.11423656,4.30566475 8.11423656,4.307032 8.11560381,4.307032 C8.11560381,4.307032 8.2351405,3.96547999 8.61321761,3.86567076 C8.65963899,3.85303998 8.70606038,3.84457605 8.74961705,3.84034409 C8.8770317,3.82882013 8.99455007,3.85154252 9.0998283,3.90838104 L8.67233488,4.05265844 C8.42492779,4.13417257 8.25057089,4.3408226 8.20141501,4.58119813 C8.15356127,4.53477674 8.09880617,4.49681929 8.03832165,4.46452615 C7.86123025,4.37031613 7.66017943,4.35488574 7.47045726,4.41810477 L7.08599965,4.54708199 C7.12408732,4.45573669 7.17448024,4.37331106 7.24271251,4.30989671 L7.24271251,4.30989671 Z M8.61321761,5.38103922 L8.55143094,5.64810867 L8.33774934,5.46958492 C8.37427444,5.40206883 8.40103347,5.32901863 8.4150315,5.25167136 C8.46002053,5.29386078 8.51060877,5.33038588 8.56686133,5.35994451 C8.58229172,5.36834333 8.59778722,5.3753749 8.61321761,5.38103922 L8.61321761,5.38103922 Z M8.45442132,5.01975976 C8.42629504,4.97620309 8.40376797,4.9269821 8.38976994,4.8749615 C8.38273837,4.84963483 8.37707405,4.82437326 8.37427444,4.79904659 C8.33911659,4.55027224 8.4853472,4.307032 8.72995469,4.22551787 L9.25706202,4.04842648 L9.41032421,4.58119813 C9.48897362,4.85529915 9.33857615,5.1406637 9.06727474,5.232009 C8.98856022,5.25870293 8.90847845,5.2657345 8.82833157,5.25447096 C8.76791215,5.2475045 8.70885998,5.22777704 8.65403978,5.19965076 C8.65403978,5.19828351 8.65260742,5.19828351 8.65260742,5.19828351 C8.5710933,5.15466173 8.50364231,5.09424232 8.45442132,5.01975976 L8.45442132,5.01975976 Z M9.51853226,4.16789806 C9.4988699,4.13553982 9.47777519,4.10461393 9.45531323,4.0751204 C9.39619596,3.99360627 9.33017733,3.91905861 9.25562967,3.85583959 C9.21767221,3.82211409 9.1783475,3.79118821 9.13622319,3.76306193 C8.68216606,3.33993069 7.99196537,3.1501434 7.99196537,3.1501434 C8.08194342,3.48329659 7.87666064,3.62672759 7.87666064,3.62672759 C7.59976002,3.30620519 7.23008173,3.18530125 7.23008173,3.18530125 C7.26803919,3.36245775 7.2581429,3.50862326 7.22584977,3.6295272 C5.98178272,2.51899488 5.38579205,0 5.38579205,0 C5.38579205,0 5.246593,0.372543 5.11585788,0.932008572 C5.07933278,1.08520565 5.0849971,1.2454343 5.13695259,1.39446452 C5.20440358,1.59128338 5.30987713,1.8161634 5.47010578,2.03967618 C5.45044343,2.02984501 5.21989908,1.90334185 4.99078708,1.55469317 C4.96826002,1.69805907 4.93876649,1.94689852 4.92190374,2.10999188 C4.90927296,2.22803111 4.92190374,2.34613545 4.95842884,2.46000782 C5.03011179,2.68488785 5.17770966,3.04336771 5.46307421,3.41441324 C5.43501304,3.40178246 5.14398416,3.25841656 4.89097785,2.91679944 C4.90647335,3.38915168 4.98095591,3.86567076 5.1552477,4.29583357 C5.18897319,4.38157967 5.23956143,4.45606222 5.3014132,4.52351321 C5.39985519,4.6275544 5.5643158,4.7864158 5.77376544,4.92131778 C5.80045936,4.93824563 5.82715328,4.95647563 5.85671192,4.97333837 C5.49263285,4.89462385 5.14118456,4.70066971 4.99221944,4.61772323 C2.95249768,3.49032816 1.69581287,1.20330999 1.69581287,1.20330999 C1.69581287,1.20330999 1.40904852,1.8864791 1.3331336,2.77206629 L1.82938015,2.77206629 L1.82938015,3.95844842 L2.38040133,3.95844842 L2.38040133,5.06051682 L3.10150837,5.06051682 L3.10150837,5.95033597 L4.51564827,5.95033597 L4.51564827,6.5997796 C4.58874404,6.61241038 4.8234878,6.66859784 5.0118818,6.71221961 C5.00764983,6.72061843 5.00341787,6.72765 5.00061826,6.73611393 C4.36100581,8.38918397 2.26653547,8.85027267 2.26653547,8.85027267 C6.42594356,9.69647005 8.70742763,6.67986137 8.70742763,6.67986137 C7.95960713,6.81762806 7.6278863,6.51820037 7.6278863,6.51820037 C7.6278863,6.51820037 8.430527,6.58851607 9.08277023,6.19774307 C9.83202309,5.7479179 9.94583036,4.79904659 9.51853226,4.16789806 Z" id="Shape" fill="#405B73"></path>
                            <path d="M7.76422063,5.31352313 C7.64474904,5.34444902 7.5238451,5.27419842 7.49148686,5.15466173 C7.46056097,5.03519015 7.53224392,4.91291896 7.65178061,4.88199307 C7.67287532,4.87639386 7.69533728,4.87352914 7.71643199,4.8749615 C7.68407375,4.90165542 7.66864336,4.94664445 7.67990689,4.99020112 C7.69533728,5.04925329 7.75582181,5.08441114 7.81624123,5.06891564 C7.85843065,5.05771721 7.88935653,5.02399172 7.8963881,4.9818023 C7.90901889,5.0000974 7.91741771,5.01975976 7.92308203,5.04085447 C7.95537516,5.16032605 7.88369221,5.28259724 7.76422063,5.31352313" id="Path" fill="#3D5572"></path>
                            <path d="M8.97312983,4.94104524 C8.85359313,4.97197112 8.73132194,4.90028817 8.70039606,4.78218384 C8.66810292,4.66271225 8.73978587,4.54037596 8.85925745,4.50951518 C8.88178452,4.50385086 8.90424648,4.50105125 8.92670844,4.50248361 C8.89298295,4.52774517 8.8761202,4.5727342 8.88738374,4.61629087 C8.90281413,4.67677539 8.9646659,4.71193325 9.02371807,4.69643775 C9.06590749,4.68517421 9.09826573,4.65144872 9.10666455,4.6092593 C9.11792808,4.6275544 9.1263269,4.64721676 9.13192612,4.66831147 C9.16291711,4.78778305 9.09116905,4.91011935 8.97312983,4.94104524" id="Path" fill="#3D5572"></path>
                        </g>
                        <circle id="Oval" fill="#405B73" cx="8.84765625" cy="4.39453125" r="1"></circle>
                        <path d="M10.6054688,25.6054688 C10.6054688,26.0975977 10.2188086,26.484375 9.7265625,26.484375 L7.96875,26.484375 C7.47650391,26.484375 7.08984375,26.0975977 7.08984375,25.6054688 C7.08984375,25.1132227 7.47650391,24.7265625 7.96875,24.7265625 L9.7265625,24.7265625 C10.2188086,24.7265625 10.6054688,25.1132227 10.6054688,25.6054688 Z" id="Path" fill="#405B73"></path>
                    </g>
                </g>
            </g>
        </g>
    </g>
</svg>