<?xml version="1.0" encoding="UTF-8"?>
<svg width="53px" height="53px" viewBox="0 0 53 53" version="1.1" xmlns="http://www.w3.org/2000/svg" xmlns:xlink="http://www.w3.org/1999/xlink">
    <title>icon_gruppen-lernunterstützung copy 2</title>
    <g id="Dashboard" stroke="none" stroke-width="1" fill="none" fill-rule="evenodd">
        <g id="Dashboard-&amp;-Einstellungen-Schüler:innen" transform="translate(-972.000000, -1039.000000)">
            <g id="icon_gruppen-lernunterstützung-copy-2" transform="translate(972.000000, 1039.000000)">
                <circle id="Oval-Copy-3" fill="#FFFFFF" cx="26.5" cy="26.5" r="26.5"></circle>
                <g id="006-question-copy" transform="translate(12.000000, 11.000000)" fill-rule="nonzero">
                    <path d="M23.2499542,2.45450762 C20.8041045,0.850605884 17.9424889,-0.00257534265 15.0176268,5.83945231e-06 C6.73260532,0.00797709034 0.0160157615,6.71803094 8.43285306e-06,15.0030524 C-0.00311477832,17.9194726 0.861367764,20.7708762 2.48358307,23.1944636 L0.058089333,29.0039524 C-0.0909382528,29.3762831 0.090087033,29.7989251 0.462417717,29.9480208 C0.635613778,30.0173264 0.828893502,30.0173264 1.00215764,29.9480208 L6.81164644,27.522527 C13.7339744,32.0618433 23.0254938,30.1299992 27.56481,23.2076712 C32.1041263,16.2853433 30.1722822,6.99382389 23.2499542,2.45450762 Z" id="Shape" fill="#405B73"></path>
                    <path d="M19.6421114,11.0705351 C19.3266958,8.77241945 17.336575,7.07715407 15.0176268,7.13114168 C12.5126154,7.12310821 10.4731364,9.14304812 10.4571376,11.6480596 C10.4571376,12.0491201 10.7822887,12.3742712 11.1833492,12.3742712 C11.5844098,12.3742712 11.9095609,12.0491201 11.9095609,11.6480596 C11.9416266,9.93182547 13.3589205,8.56654488 15.0752227,8.59861066 C16.7915248,8.63067644 18.1567373,10.0479703 18.1246716,11.7642725 C18.0930143,13.4576997 16.7113944,14.8139937 15.0176949,14.814266 C14.6166344,14.814266 14.2914833,15.1394171 14.2914833,15.5404776 L14.2914833,18.7938268 C14.2914833,19.1948873 14.6166344,19.5200384 15.0176949,19.5200384 C15.4187554,19.5200384 15.7439065,19.1948873 15.7439065,18.7938268 L15.7439065,16.2086169 C18.2391825,15.8662415 19.9844868,13.5658111 19.6421114,11.0705351 Z" id="Path" stroke="#F4CC54" stroke-width="0.5" fill="#F4CC54"></path>
                    <circle id="Oval" stroke="#F4CC54" stroke-width="0.5" fill="#F4CC54" cx="14.9570354" cy="22.1256043" r="1"></circle>
                </g>
                <g id="Group-3" fill-rule="nonzero">
                    <path d="M6.58982378,0 C2.95600666,0 0,2.95600666 0,6.58982378 C0,8.28428713 0.677810445,9.92232904 1.88280679,11.1650443 L1.88280679,14.1210509 C1.88280679,14.4976123 2.10874361,14.8365175 2.4664769,14.9870793 C2.80538212,15.1377666 3.21966238,15.0624543 3.48312981,14.7799706 L5.25296819,13.0289602 C5.72366989,13.1231006 6.15677821,13.1796476 6.58982378,13.1796476 C10.2236409,13.1796476 13.2424078,10.2236409 13.2424078,6.58982378 C13.2424078,2.95600666 10.2236409,0 6.58982378,0 Z" id="Path" fill="#D45D3A" transform="translate(6.621204, 7.531573) scale(-1, 1) translate(-6.621204, -7.531573) "></path>
                    <path d="M7,4.01960784 L6,4.01960784 L6,3 L7,3 L7,4.01960784 Z M6,4.93137255 L7,4.93137255 L7,10 L6,10 L6,4.93137255 Z" id="i" fill="#FFFFFF"></path>
                </g>
            </g>
        </g>
    </g>
</svg>