<?xml version="1.0" encoding="UTF-8"?><svg version="1.1" width="30px" height="31px" viewBox="0 0 30.0 31.0" xmlns="http://www.w3.org/2000/svg" xmlns:xlink="http://www.w3.org/1999/xlink"><defs><clipPath id="i0"><path d="M2655,0 L2655,1581 L0,1581 L0,0 L2655,0 Z"></path></clipPath><clipPath id="i1"><path d="M15,0 C23.2842712,0 30,6.71572875 30,15 C30,23.2842712 23.2842712,30 15,30 C6.71572875,30 0,23.2842712 0,15 C0,6.71572875 6.71572875,0 15,0 Z"></path></clipPath><clipPath id="i2"><path d="M2.61446884,0.0430588675 C2.70964439,-0.0133710088 2.82777773,-0.0144026924 2.92392433,0.040356295 C3.02007093,0.0951152825 3.0794493,0.197246351 3.0794686,0.307893167 L3.0794686,1.61050838 L5.69393744,0.0430588675 C5.78911297,-0.0133710088 5.90724631,-0.0144026924 6.00339293,0.040356295 C6.09953951,0.0951152825 6.15891789,0.197246351 6.1589372,0.307893167 L6.1589372,1.61050838 L8.77340604,0.0430588675 C8.86858157,-0.0133710088 8.98671491,-0.0144026924 9.08286153,0.040356295 C9.17900811,0.0951152825 9.23838649,0.197246351 9.23840579,0.307893167 L9.23840579,1.61050838 L11.8528746,0.0430588675 C11.9480502,-0.0133710088 12.0661835,-0.0144026924 12.1623301,0.040356295 C12.2584767,0.0951152825 12.3178744,0.197246351 12.3178744,0.307893167 L12.3178744,2.2264021 L0,2.2264021 L0,1.61050838 Z"></path></clipPath><clipPath id="i3"><path d="M1.4707542,0 C1.67897503,0.000169986667 1.84768116,0.169014016 1.84768116,0.377234903 L1.84768116,1.84768116 L0,1.84768116 L0,0.377234903 C0,0.168893825 0.168893825,0 0.377234903,0 L1.4707542,0 Z"></path></clipPath><clipPath id="i4"><path d="M2.77152174,0 L3.69536232,7.08277778 L0,7.08277778 L0.923840579,0 L2.77152174,0 Z"></path></clipPath><clipPath id="i5"><path d="M5.84267577,0 C6.01734212,0 6.1589372,0.141595075 6.1589372,0.316261425 L6.1589372,5.85099034 L0,5.85099034 L0,0 L5.84267577,0 Z"></path></clipPath><clipPath id="i6"><path d="M12.3178744,0 L12.3178744,8.00661835 L0,8.00661835 L0,0 L12.3178744,0 Z"></path></clipPath><clipPath id="i7"><path d="M2,0 L2,2 L0,2 L0,0 L2,0 Z"></path></clipPath><clipPath id="i8"><path d="M17.8609179,0 L17.8609179,0.923840579 C17.8609179,1.09391492 17.7230453,1.23178744 17.552971,1.23178744 L0.30794686,1.23178744 C0.137872505,1.23178744 0,1.09391492 0,0.923840579 L0,0 L17.8609179,0 Z"></path></clipPath></defs><g transform="translate(-1504.0 -391.0)"><g clip-path="url(#i0)"><g transform="translate(1504.0 391.8933333333334)"><g clip-path="url(#i1)"><polygon points="0,0 30,0 30,30 0,30 0,0" stroke="none" fill="#FFFFFF"></polygon><g transform="translate(6.0 7.999999999999999)"><g transform="translate(0.0 4.240481952196205)"><g clip-path="url(#i2)"><polygon points="0,-4.85722573e-16 12.3178744,-4.85722573e-16 12.3178744,2.2264021 0,2.2264021 0,-4.85722573e-16" stroke="none" fill="#3F5B73"></polygon></g></g><g transform="translate(14.16555555029163 0.0)"><g clip-path="url(#i3)"><polygon points="0,0 1.84768116,0 1.84768116,1.84768116 0,1.84768116 0,0" stroke="none" fill="#F3CC53"></polygon></g></g><g transform="translate(13.241714970924932 1.2317874391555956)"><g clip-path="url(#i4)"><polygon points="0,0 3.69536232,0 3.69536232,7.08277778 0,7.08277778 0,0" stroke="none" fill="#F3CC53"></polygon></g></g><g transform="translate(11.701980671979978 8.006618354509556)"><g clip-path="url(#i5)"><polygon points="0,0 6.1589372,0 6.1589372,5.85099034 0,5.85099034 0,0" stroke="none" fill="#3F5B73"></polygon></g></g><g transform="translate(0.0 5.850990335989992)"><g clip-path="url(#i6)"><polygon points="0,0 12.3178744,0 12.3178744,8.00661835 0,8.00661835 0,0" stroke="none" fill="#3F5B73"></polygon></g></g><g transform="translate(1.0 8.10666666666657)"><g clip-path="url(#i7)"><polygon points="0,0 2,0 2,2 0,2 0,0" stroke="none" fill="#F3CC53"></polygon></g></g><g transform="translate(5.0 8.10666666666657)"><g clip-path="url(#i7)"><polygon points="0,0 2,0 2,2 0,2 0,0" stroke="none" fill="#F3CC53"></polygon></g></g><g transform="translate(9.0 8.10666666666657)"><g clip-path="url(#i7)"><polygon points="0,0 2,0 2,2 0,2 0,0" stroke="none" fill="#F3CC53"></polygon></g></g><g transform="translate(0.0 13.54966183071338)"><g clip-path="url(#i8)"><polygon points="0,0 17.8609179,0 17.8609179,1.23178744 0,1.23178744 0,0" stroke="none" fill="#3F5B73"></polygon></g></g></g></g></g></g></g></svg>