<?xml version="1.0" encoding="UTF-8"?><svg version="1.1" width="30px" height="30px" viewBox="0 0 30.0 30.0" xmlns="http://www.w3.org/2000/svg" xmlns:xlink="http://www.w3.org/1999/xlink"><defs><clipPath id="i0"><path d="M2655,0 L2655,1581 L0,1581 L0,0 L2655,0 Z"></path></clipPath><clipPath id="i1"><path d="M15,0 C23.2842712,0 30,6.71572875 30,15 C30,23.2842712 23.2842712,30 15,30 C6.71572875,30 0,23.2842712 0,15 C0,6.71572875 6.71572875,0 15,0 Z"></path></clipPath><clipPath id="i2"><path d="M2.20505986,0.181306641 C2.38191924,-0.0604355469 2.74272783,-0.0604355469 2.9195872,0.181306641 L4.23713799,1.98238477 C4.45103642,2.27483008 4.2422083,2.68638477 3.87985283,2.68638477 L3.73491924,2.68638477 L4.63782158,3.92049023 C4.85172002,4.21293555 4.64289189,4.62449023 4.28053642,4.62449023 L4.13560283,4.62449023 L5.0384622,5.85868164 C5.25236064,6.15112695 5.04353252,6.56268164 4.68117705,6.56268164 L0.443427048,6.56268164 C0.0811145482,6.56268164 -0.127756546,6.15112695 0.0861848607,5.85868164 L0.989044236,4.6245332 L0.844110642,4.6245332 C0.481798142,4.6245332 0.272927048,4.21297852 0.486868454,3.9205332 L1.38972783,2.68638477 L1.24479424,2.68638477 C0.882438767,2.68638477 0.673567673,2.27483008 0.887509079,1.98238477 Z"></path></clipPath><clipPath id="i3"><path d="M0.855207031,0.181274414 L2.17254297,1.98243848 C2.38635547,2.27505566 2.17787109,2.6862666 1.81534375,2.6862666 L1.67058203,2.6862666 L2.57314063,3.92084473 C2.78738281,4.21298926 2.57846875,4.62467285 2.21589844,4.62467285 L2.07113672,4.62467285 L2.97373828,5.85877832 C3.18802344,6.15139551 2.97906641,6.56303613 2.61653906,6.56303613 L1.62056641,6.56303613 C1.98309375,6.56303613 2.19205078,6.15135254 1.97780859,5.85877832 L1.16067188,4.74150488 C1.12517969,4.6929502 1.15985547,4.62467285 1.21996875,4.62467285 C1.58249609,4.62467285 1.79145313,4.21298926 1.57721094,3.92084473 L0.76003125,2.80309863 C0.7316375,2.76425488 0.74815125,2.71278863 0.7866705,2.69375588 L0.819371094,2.6862666 C1.18189844,2.6862666 1.39038281,2.27505566 1.17657031,1.98243848 L0,0.373387695 L0.140335938,0.181274414 C0.317410156,-0.0604248047 0.678175781,-0.0604248047 0.855207031,0.181274414 Z"></path></clipPath><clipPath id="i4"><path d="M2.0570506,0.169125 C2.22200763,-0.056375 2.55866779,-0.056375 2.72362482,0.169125 L3.95278888,1.84933203 C4.15233576,2.12214063 3.95751545,2.50610938 3.61948029,2.50610938 L3.48425763,2.50610938 L4.32653107,3.65745703 C4.52607795,3.93026563 4.33125763,4.31423438 3.99322248,4.31423438 L3.85799982,4.31423438 L4.7003592,5.46558203 C4.89990607,5.73839063 4.70508576,6.12235938 4.3670506,6.12235938 L0.41371076,6.12235938 C0.0756756033,6.12235938 -0.119187678,5.73839063 0.0804021658,5.46558203 L0.922675603,4.31423438 L0.787452947,4.31423438 C0.449417791,4.31423438 0.25455451,3.93026563 0.454144353,3.65745703 L1.29641779,2.50610938 L1.16119513,2.50610938 C0.823159978,2.50610938 0.628296697,2.12214063 0.827886541,1.84933203 Z"></path></clipPath><clipPath id="i5"><path d="M0.831273438,0.168996094 L2.06052344,1.84933203 C2.26015625,2.12201172 2.06494922,2.50623828 1.72721484,2.50623828 L1.59177734,2.50623828 L2.43413672,3.65758594 C2.63376953,3.93026563 2.43899219,4.31449219 2.10082813,4.31449219 L1.96582031,4.31449219 L2.80775,5.46583984 C3.00746875,5.73847656 2.81269141,6.12227344 2.47452734,6.12227344 L1.47855469,6.12227344 C1.81671875,6.12227344 2.01149609,5.73847656 1.81186328,5.46579688 L1.04964062,4.42341797 C1.01651172,4.37812891 1.04886719,4.31444922 1.10494141,4.31444922 C1.44314844,4.31444922 1.63788281,3.93022266 1.43825,3.65754297 L0.675597656,2.61520703 C0.64246875,2.56991797 0.674824219,2.50619531 0.730898438,2.50619531 C1.06901953,2.50619531 1.26422656,2.12196875 1.06459375,1.84928906 L0,0.39428125 L0.16465625,0.168996094 C0.329785156,-0.0563320313 0.6661875,-0.0563320313 0.831273438,0.168996094 Z"></path></clipPath><clipPath id="i6"><path d="M16.4163828,0.247338867 L19.9235352,7.39093652 C20.0258008,7.59899121 20.1869336,7.77206934 20.3874258,7.88804199 C20.9911797,8.23909668 22,9.0115459 22,10.2611631 C22,11.5107803 20.9911797,12.2827568 20.3900469,12.6320498 C19.7703086,12.9923857 18.9386055,13.3018037 17.9186992,13.5523545 C16.0467227,14.0122061 13.5895547,14.2654209 11,14.2654209 C8.41044531,14.2654209 5.95327734,14.0122061 4.08130078,13.5523115 C3.0614375,13.3017607 2.22969141,12.9923428 1.60995313,12.6320068 C1.00882031,12.2827568 0,11.5107803 0,10.2611631 C0,9.0115459 1.00882031,8.23909668 1.60995313,7.88984668 C2.22969141,7.5299834 3.0614375,7.22009277 4.08130078,6.96958496 C4.87454688,6.77480762 5.77358203,6.61724121 6.74257031,6.49993652 C8.30426953,6.31134668 9.66586328,5.34901855 10.3595078,3.93693652 L11.0518203,2.52661621 C11.2138555,2.19640137 11.6839336,2.19640137 11.8459687,2.52661621 L12.8065352,4.48315527 L13.1726289,5.22857715 L15.6218047,0.247338867 C15.7838398,-0.0824462891 16.2543477,-0.0824462891 16.4163828,0.247338867 Z"></path></clipPath><clipPath id="i7"><path d="M8.46604687,0 C13.1417155,0 16.9320937,1.00057538 16.9320937,2.23484766 C16.9320937,3.46911993 13.1417155,4.46969531 8.46604687,4.46969531 C3.79037829,4.46969531 0,3.46911993 0,2.23484766 C0,1.00057538 3.79037829,0 8.46604687,0 Z"></path></clipPath><clipPath id="i8"><path d="M16.4034922,0 C16.7368008,0.2399375 16.9187305,0.498910156 16.9187305,0.769355469 C16.9187305,2.00350391 13.1282422,3.00433203 8.45251172,3.00433203 C3.93873047,3.00433203 0.250078125,2.07165234 0,0.89684375 C1.18765625,1.75205078 4.29949609,2.36246484 7.95098047,2.36246484 C12.6267539,2.36246484 16.4171992,1.36163672 16.4171992,0.127488281 C16.4171992,0.0845625 16.4127734,0.0420664062 16.4034922,0 Z"></path></clipPath><clipPath id="i9"><path d="M1.12114165,0 C1.43335258,0 1.73400493,0.033859375 1.9906143,0.0978828125 C2.16850493,0.142269531 2.27670024,0.322480469 2.23231352,0.500371094 C2.1879268,0.678261719 2.00775883,0.7865 1.82982524,0.742113281 C1.62499321,0.690980469 1.37994243,0.663996094 1.12114165,0.663996094 C0.862297897,0.663996094 0.617247115,0.691023438 0.412458053,0.742113281 C0.385473678,0.748859375 0.358403365,0.752082031 0.331805709,0.752082031 C0.183004928,0.752082031 0.0476103967,0.651320313 0.0099697717,0.500414063 C-0.0344599158,0.322523438 0.0737783654,0.1423125 0.25166899,0.0978828125 C0.508235397,0.033859375 0.808930709,0 1.12114165,0 Z"></path></clipPath><clipPath id="i10"><path d="M1.12115366,0 C1.43332163,0 1.73401694,0.033859375 1.99058335,0.0978828125 C2.16851694,0.142269531 2.27671225,0.322480469 2.2323685,0.500371094 C2.19468491,0.651277344 2.05929038,0.752082031 1.9104896,0.752082031 C1.88384897,0.752082031 1.8568646,0.748859375 1.82988022,0.742113281 C1.62504819,0.691023438 1.37999741,0.663996094 1.12115366,0.663996094 C0.862309908,0.663996094 0.617259126,0.691023438 0.412427095,0.742113281 C0.23453647,0.786542969 0.0543685014,0.678261719 0.00993881393,0.500371094 C-0.0344049361,0.322480469 0.0737903764,0.142269531 0.25172397,0.0978828125 C0.508333345,0.033859375 0.808985689,0 1.12115366,0 Z"></path></clipPath><clipPath id="i11"><path d="M1.12114165,0 C1.43335258,0 1.73409087,0.033859375 1.9906143,0.0978828125 C2.16850493,0.1423125 2.27674321,0.322480469 2.23231352,0.500414063 C2.1946729,0.651320313 2.05927837,0.752082031 1.91047758,0.752082031 C1.88383696,0.752082031 1.85676665,0.748859375 1.82982524,0.742113281 C1.62503618,0.690980469 1.3799854,0.663996094 1.12114165,0.663996094 C0.862297897,0.663996094 0.617247115,0.691023438 0.412458053,0.742113281 C0.234782272,0.786414063 0.0543564904,0.678347656 0.0099697717,0.500414063 C-0.0344599158,0.322523438 0.0737783654,0.1423125 0.25166899,0.0978828125 C0.508235397,0.033859375 0.808930709,0 1.12114165,0 Z"></path></clipPath></defs><g transform="translate(-1653.0 -392.0)"><g clip-path="url(#i0)"><g transform="translate(1653.0 392.0)"><g clip-path="url(#i1)"><polygon points="0,0 30,0 30,30 0,30 0,0" stroke="none" fill="#FFFFFF"></polygon><g transform="translate(4.0 7.999999999999999)"><g transform="translate(16.719151076782 1.8052353515629274)"><g clip-path="url(#i2)"><polygon points="6.9388939e-17,3.05311332e-16 5.12462747,3.05311332e-16 5.12462747,6.56268164 6.9388939e-17,6.56268164 6.9388939e-17,3.05311332e-16" stroke="none" fill="#F3CC53"></polygon></g></g><g transform="translate(18.78366015624988 1.805138671874253)"><g clip-path="url(#i3)"><polygon points="0,0 3.06011652,0 3.06011652,6.56303613 0,6.56303613 0,0" stroke="none" fill="#F3CC53"></polygon></g></g><g transform="translate(5.284890802976225 1.2681044921870743)"><g clip-path="url(#i4)"><polygon points="2.35922393e-16,1.66533454e-16 4.78074269,1.66533454e-16 4.78074269,6.12235938 2.35922393e-16,6.12235938 2.35922393e-16,1.66533454e-16" stroke="none" fill="#F3CC53"></polygon></g></g><g transform="translate(7.177156249999948 1.2681044921870743)"><g clip-path="url(#i5)"><polygon points="0,-3.05311332e-16 2.88824591,-3.05311332e-16 2.88824591,6.12227344 0,6.12227344 0,-3.05311332e-16" stroke="none" fill="#F3CC53"></polygon></g></g><g clip-path="url(#i6)"><polygon points="0,-1.66533454e-16 22,-1.66533454e-16 22,14.2654209 0,14.2654209 0,-1.66533454e-16" stroke="none" fill="#3F5B73"></polygon></g><g transform="translate(2.5339531249998792 8.026143554686865)"><g clip-path="url(#i7)"><polygon points="0,0 16.9320937,0 16.9320937,4.46969531 0,4.46969531 0,0" stroke="none" fill="#82B1B0"></polygon></g></g><g transform="translate(2.5474882812501463 9.491635742187762)"><g clip-path="url(#i8)"><polygon points="0,0 16.9187305,0 16.9187305,3.00433203 0,3.00433203 0,0" stroke="none" fill="#3F5B73"></polygon></g></g><g transform="translate(6.590846634551536 9.235885742187023)"><g clip-path="url(#i9)"><polygon points="-3.17454396e-16,0 2.24226922,0 2.24226922,0.752082031 -3.17454396e-16,0.752082031 -3.17454396e-16,0" stroke="none" fill="#3F5B73"></polygon></g><g transform="translate(2.9355270515184824 1.149628906250534)"><g clip-path="url(#i10)"><polygon points="-5.689893e-16,0 2.24230732,0 2.24230732,0.752082031 -5.689893e-16,0.752082031 -5.689893e-16,0" stroke="none" fill="#3F5B73"></polygon></g></g><g transform="translate(8.522250000000113 0.46397656250058733)"><g clip-path="url(#i11)"><polygon points="-3.15719673e-16,0 2.24228329,0 2.24228329,0.752082031 -3.15719673e-16,0.752082031 -3.15719673e-16,0" stroke="none" fill="#3F5B73"></polygon></g></g></g></g></g></g></g></g></svg>