<?xml version="1.0" encoding="UTF-8"?>
<svg id="Ebene_1" data-name="Ebene 1" xmlns="http://www.w3.org/2000/svg" viewBox="22.72 12.53 133.98 133.98" width="30px" height="30px">
  <defs>
    <style>
      .cls-1 {
        fill: #11273c;
      }

      .cls-1, .cls-2, .cls-3 {
        stroke-width: 0px;
      }

      .cls-2 {
        fill: #fff;
      }

      .cls-3 {
        fill: #fdc745;
      }
    </style>
  </defs>
  <circle class="cls-2" cx="89.71" cy="79.52" r="66.99"/>
  <path class="cls-3" d="m95.14,30.53c-2.6,0-2.53-3.25-7.94,0s-9.38,5.05-13.71,12.99-13.91,13.66-15.15,15.9c-7.58,13.69-1.44,8.63-6.85,18.74-5.41,10.1-5.41,12.99-6.85,20.2-1.44,7.21-11.92,14.07,0,18.76,11.92,4.69,19.84,5.46,29.94,6.34,10.1.88,24.53,1.6,38.24-2.01s28.12-10.1,27.59-14.79S103.08,30.53,95.14,30.53Z"/>
  <path class="cls-1" d="m120.1,98.46c-3.68,1.26-7.31,2.76-11.06,3.72-10.29,2.64-20.77,3.94-31.41,3.63-4.72-.14-9.42-.61-13.85-2.38-1.46-.58-2.91-1.36-4.14-2.33-2.54-2-3.22-4.63-2.2-7.72,1.28-3.89,3.53-7.25,6.07-10.38,2.28-2.82,4.85-5.4,7.27-8.1.3-.33.59-.77.65-1.2.59-4.02.96-8.09,1.75-12.07.58-2.95,1.58-5.83,2.55-8.69,1.16-3.42,4.07-4.8,7.26-5.56,5.43-1.31,10.92-1.06,16.42-.34.65.09,1.43-.09,2.02-.38,3.35-1.67,6.77-2.81,10.59-1.98,2.11.45,3.45,1.91,4.75,3.43.92,1.08,1.75,2.22,2.75,3.5.51-6.67,3.54-12,7.57-17.1,4.12,4.57,5.78,9.68,4.7,15.72.43-.13.72-.2,1.01-.3.26-.09.52-.2.78-.3.82,2.02.72,4.97-.43,11.84,1.34.64,2.72,1.23,4.05,1.94,2.21,1.18,4.16,2.71,5.63,4.75,3.18,4.44,3.18,9.05.5,13.71-1.95,3.39-4.74,5.99-7.85,8.29-4.16,3.08-8.65,5.56-13.4,7.58-.25.11-.53.14-.79.21l1.2-1.68c2.12-1.11,4.27-2.15,6.34-3.34,4.63-2.65,9.02-5.62,12.23-10,2.19-2.99,3.61-6.23,2.58-10.04-1.51-5.59-5.9-8.11-10.82-10.07-.68.79-.61,1.21.29,1.69,1.15.62,2.23,1.4,3.24,2.24,4.01,3.37,5.21,8.94,3.57,12.5-1.02.94-2.07,1.85-3.06,2.82-2.53,2.51-5.04,5.05-7.55,7.59-.86.87-1.67,1.78-2.5,2.68-1.09.65-2.12,1.43-3.28,1.92-4.72,1.99-9.45,3.92-14.22,5.79-1.82.71-3.72,1.2-5.59,1.79.35.15.67.16.96.09,3.22-.87,6.45-1.72,9.66-2.63,1.67-.48,3.31-1.07,4.96-1.62.27.27.53.53.8.8Zm.71-37.28c-.4-1.85-.79-3.67-1.18-5.5-.14-.65-.09-1.43-.43-1.94-1.3-1.91-2.61-3.84-4.14-5.55-2.52-2.82-6.86-3.4-10.19-1.6-2.42,1.3-4.86,2.57-7.29,3.86-.29.16-.57.34-.94.57,1.31.48,2.32.31,3.44-.28,1.36-.71,2.86-1.23,4.36-1.6,3.55-.88,6.7-.2,8.91,2.94,1.86,2.64,3.63,5.33,5.33,8.07.59.94,1.2,1.29,2.13,1.01Zm-44.62-5.99c.59-.28,1.16-.54,1.72-.83.08-.04.09-.21.14-.32.47-1.04,1.16-1.3,2.22-.9.03-.3-.06-.78.11-.91,1.15-.86,2.29-.19,3.48.26-.17-.45-.29-.8-.56-1.53,3.42-.04,6.65-.29,9.83-.05,2.63.2,4.29-1.39,6.31-2.43-1.42-.29-2.79-.49-4.17-.56-4.7-.25-9.37-.37-13.92,1.27-2.99,1.07-4.43,3.27-5.16,6.01Zm51.02-18.6c-2.5,2.8-4.9,7.43-4.51,8.64,1.25-1.86,2.49-3.71,3.8-5.66,2.36,2.4,3.3,5.26,4.15,8.18.45-4.19-.97-7.78-3.44-11.17Zm.67,35.33q-2.65,3.17-2.14,4.71c2.95-1.91,3.24-2.54,2.14-4.71Zm2.23-18.24c1.51-.03,2.01-1.08,2.53-2.2-2.26.41-2.51.63-2.53,2.2Zm2.61-.35c-.09,0-.19.01-.28.02v2.81c.09,0,.19,0,.28,0v-2.83Z"/>
</svg>