<?xml version="1.0" encoding="UTF-8"?><svg version="1.1" width="30px" height="30px" viewBox="0 0 30.0 30.0" xmlns="http://www.w3.org/2000/svg" xmlns:xlink="http://www.w3.org/1999/xlink"><defs><clipPath id="i0"><path d="M2655,0 L2655,1581 L0,1581 L0,0 L2655,0 Z"></path></clipPath><clipPath id="i1"><path d="M15,0 C23.2842712,0 30,6.71572875 30,15 C30,23.2842712 23.2842712,30 15,30 C6.71572875,30 0,23.2842712 0,15 C0,6.71572875 6.71572875,0 15,0 Z"></path></clipPath><clipPath id="i2"><path d="M9.00014918,0 C10.9326882,0 12.1642117,1.56902344 12.1642117,3.1640625 C12.1642117,4.49064844 11.3165593,5.68388672 10.0548367,6.13346484 L10.0548367,16.761668 C12.2023211,16.3208438 14.2850476,15.5994023 14.7274187,13.5816797 L14.3087429,13.5816797 C14.1259304,13.5816797 13.9564773,13.4872852 13.8601843,13.3317539 C13.7638914,13.1762227 13.7551375,12.9820898 13.8370164,12.8188242 L15.4190476,9.65476172 C15.5982742,9.29736328 16.1832742,9.29736328 16.3625007,9.65476172 L17.944532,12.8188242 C18.0264109,12.9820898 18.0176218,13.1761875 17.9213289,13.3317188 C17.8250359,13.48725 17.6555828,13.5819961 17.4727703,13.5819961 L16.8738484,13.5819961 C16.3240398,17.2030547 13.8276648,18.0471211 10.9900281,19.482832 C10.6656414,19.6284492 9.65314137,20.1243984 9.52541871,20.4942773 C9.46322731,20.8675313 9.26308278,20.9986641 8.99807496,21 C8.70814137,21 8.47537184,20.7388945 8.47280543,20.4494883 C8.47280543,20.4554648 7.53075856,19.7253047 7.19255543,19.580707 C4.62794215,18.4827422 1.68620778,17.2306875 1.12641481,13.5820313 L0.527492931,13.5820313 C0.344680431,13.5820313 0.175227306,13.4872852 0.0789343377,13.3317539 C-0.017358631,13.1762227 -0.0261125373,12.9820898 0.055766369,12.8188242 L1.63779762,9.65476172 C1.81702418,9.29736328 2.40202418,9.29736328 2.58125074,9.65476172 L4.16328199,12.8188242 C4.2451609,12.9820898 4.23640699,13.1762227 4.14011403,13.3317539 C4.04382106,13.4872852 3.87436793,13.5820313 3.69155543,13.5820313 L3.28163356,13.5820313 C3.90323121,15.5245547 6.13790309,16.4094375 7.94651637,16.78125 L7.94598903,6.1329375 C6.68479371,5.68388672 5.83608668,4.49064844 5.83608668,3.1640625 C5.83608668,1.41929297 7.25537965,0 9.00014918,0 Z M9.00014918,2.109375 C8.41873512,2.109375 7.94546168,2.58264844 7.94546168,3.1640625 C7.94546168,3.74547656 8.41873512,4.21875 9.00014918,4.21875 C9.58156324,4.21875 10.0548367,3.74547656 10.0548367,3.1640625 C10.0548367,2.58264844 9.58156324,2.109375 9.00014918,2.109375 Z"></path></clipPath><clipPath id="i3"><path d="M5.5,0 C5.77614237,-5.07265313e-17 6,0.223857625 6,0.5 C6,0.776142375 5.77614237,1 5.5,1 L0.5,1 C0.223857625,1 3.38176876e-17,0.776142375 0,0.5 C-3.38176876e-17,0.223857625 0.223857625,5.07265313e-17 0.5,0 L5.5,0 Z"></path></clipPath></defs><g transform="translate(-1653.0 -300.0)"><g clip-path="url(#i0)"><g transform="translate(1653.0 300.0)"><g clip-path="url(#i1)"><polygon points="0,0 30,0 30,30 0,30 0,0" stroke="none" fill="#FFFFFF"></polygon><g transform="translate(6.0 5.0)"><g clip-path="url(#i2)"><polygon points="0,0 18.0002831,0 18.0002831,21 0,21 0,0" stroke="none" fill="#3F5B73"></polygon></g><g transform="translate(6.0 6.0)"><g clip-path="url(#i3)"><polygon points="0,0 6,0 6,1 0,1 0,0" stroke="none" fill="#F3CC53"></polygon></g></g></g></g></g></g></g></svg>