<?xml version="1.0" encoding="UTF-8"?><svg version="1.1" width="30px" height="30px" viewBox="0 0 30.0 30.0" xmlns="http://www.w3.org/2000/svg" xmlns:xlink="http://www.w3.org/1999/xlink"><defs><clipPath id="i0"><path d="M2655,0 L2655,1581 L0,1581 L0,0 L2655,0 Z"></path></clipPath><clipPath id="i1"><path d="M15,0 C23.2842712,0 30,6.71572875 30,15 C30,23.2842712 23.2842712,30 15,30 C6.71572875,30 0,23.2842712 0,15 C0,6.71572875 6.71572875,0 15,0 Z"></path></clipPath><clipPath id="i2"><path d="M12.4613953,0.0731353743 C13.3968215,-0.0672805127 14.3885945,-0.0145804423 15.2822215,0.310520959 C17.5776154,1.14662483 19.0232206,2.7885614 19.7257314,5.11493229 C20.2862186,6.97253134 20.1711333,9.01885469 19.4042767,10.8012464 C19.1258368,11.4486259 18.7641512,12.0505203 18.3344339,12.598107 C18.6792194,12.8145929 19.0183976,13.0266088 19.3370684,13.2237635 C19.9957016,13.6313264 20.1775639,14.5072298 19.7362008,15.1429636 C19.7285546,15.1542173 19.7209084,15.1650788 19.7132622,15.1759404 C19.3149532,15.7501123 18.5452341,15.9251126 17.9369091,15.5811114 C17.3901458,15.272518 16.7934666,14.915224 16.189141,14.5418534 C16.0281784,14.6456459 15.8640396,14.7446546 15.6962542,14.8379776 C14.8762662,15.2946724 13.9878936,15.6322038 13.073367,15.8426512 C11.0922522,16.2989146 8.97711288,16.2973069 7.00321293,15.8430433 C6.08868633,15.6322038 5.1999216,15.2946332 4.3799336,14.8379776 C4.21214819,14.7446154 4.04797021,14.6456459 3.88704679,14.5418534 C3.28276049,14.915224 2.68608119,15.272518 2.13927875,15.5811114 C1.53091447,15.9251126 0.76123465,15.7500731 0.362925635,15.1759404 C0.35527942,15.1650788 0.347633204,15.1542173 0.339986989,15.1429636 C-0.101376101,14.5072298 0.0804861957,13.6313264 0.739119441,13.2237635 C1.05775097,13.0266088 1.39692925,12.8145537 1.74175397,12.598107 C1.31203665,12.0505203 0.950351048,11.4486259 0.671911167,10.8012464 C-0.0949454374,9.0188939 -0.209991573,6.97257056 0.350456422,5.11493229 C1.05292797,2.7885614 2.49857246,1.14658562 4.79388795,0.310520959 C5.68747568,-0.0145804423 6.67924865,-0.0672805127 7.61471412,0.0731353743 C7.99012369,0.129874215 8.3590634,0.228843692 8.71231856,0.368475352 C9.18348228,0.554376419 9.62966837,0.801407999 10.0380547,1.10035542 C10.446441,0.801407999 10.8930584,0.554337207 11.3637908,0.368475352 C11.717046,0.228843692 12.0860249,0.129874215 12.4613953,0.0731353743 Z M10.0380939,10.4516379 C9.87634705,10.5924459 8.26213291,11.6892269 7.63247686,12.1141212 C7.32749089,12.3197063 6.97423573,12.5562685 6.58961148,12.8101621 C7.2429904,13.0523706 7.96400893,13.188787 8.63632694,13.277287 C9.5548923,13.3984109 10.5184723,13.398803 11.4398609,13.277287 C12.1121789,13.1887478 12.8331974,13.0523706 13.4865763,12.8101621 C13.1019521,12.5563077 12.7486969,12.3197063 12.443711,12.1141212 C11.8140549,11.6892661 10.1998408,10.5924459 10.0380939,10.4516379 Z M8.21425584,3.3369715 C6.67528831,2.5556067 4.46600254,3.21706316 3.50199121,4.71940728 C3.19700524,5.19460977 2.97730398,5.72325736 2.8393192,6.2700598 C2.56452597,7.36041014 2.6087956,8.54773017 3.01757405,9.59945732 C3.24813685,10.1917057 3.59939223,10.7054922 4.02707056,11.1496785 C4.39518682,10.9155083 4.72111166,10.7083154 4.97739713,10.5469607 C5.34916005,10.3123983 5.72092297,10.0778359 6.09150955,9.84170512 C6.86118937,9.35164152 7.67753072,8.8587547 8.36474905,8.23392165 C7.63530008,6.67962247 7.52786095,4.89244702 8.21425584,3.3369715 Z M16.5741966,4.71940728 C15.6101853,3.21706316 13.4008995,2.5556067 11.861932,3.3369715 C12.5483269,4.89244702 12.4521806,6.64907682 11.7227317,8.20333678 C12.4550038,8.8056233 13.2150377,9.35160231 13.9847175,9.84166591 C14.3552649,10.0778359 14.7270278,10.3123983 15.0987907,10.5469607 C15.3550762,10.7083154 15.6809618,10.9155083 16.0491173,11.1496785 C16.4768348,10.7054922 16.8280902,10.1917057 17.0586138,9.59945732 C17.4673922,8.54773017 17.5116226,7.36041014 17.2368686,6.2700598 C17.0988446,5.72325736 16.8791826,5.19457056 16.5741966,4.71940728 Z"></path></clipPath><clipPath id="i3"><path d="M2.21791226,0 C2.38608979,0.254677796 2.5086253,0.404582832 2.72024902,0.623852768 L0.434932426,2.07228126 C0.280831774,1.87594998 0.135592889,1.6727567 0,1.46274064 L2.21791226,0 Z"></path></clipPath><clipPath id="i4"><path d="M9.27203627,0 C9.40562938,0.0358391848 9.53761482,0.0772463829 9.66756127,0.124339229 C11.9629552,0.960443098 13.4085605,2.60237967 14.1110712,4.92875056 C14.6715584,6.78634961 14.5564731,8.83267296 13.7896165,10.6150646 C13.5111766,11.2624442 13.149491,11.8643386 12.7197737,12.4119253 C13.0645592,12.6284112 13.4037375,12.840427 13.7224082,13.0375818 C14.3810415,13.4451447 14.5629038,14.3210481 14.1214622,14.9567819 C14.113816,14.9680355 14.1061698,14.9788971 14.0985236,14.9897586 C13.7002146,15.5639306 12.9304955,15.7389309 12.3221705,15.3949296 C11.7754072,15.0863362 11.178728,14.7290423 10.5744024,14.3556717 C10.4134398,14.4594642 10.249301,14.5584729 10.0815156,14.6517959 C9.26152762,15.1084906 8.37315501,15.446022 7.45862841,15.6564694 C5.47751357,16.1127328 3.36237428,16.1111252 1.38847432,15.6568615 C0.916957698,15.5482069 0.451832523,15.4057912 0,15.2299674 C0.224485047,15.2983521 0.451440409,15.3591297 0.68035634,15.4118297 C2.6542563,15.8660934 4.76935637,15.867701 6.75051043,15.4118297 C7.66503702,15.2009902 8.55340964,14.8638117 9.37339764,14.4067641 C10.4223016,13.822554 11.3151051,13.1498439 12.0393389,12.1769708 C12.2638632,11.8755923 12.471056,11.5613524 12.6557415,11.2338591 C13.7678542,9.2607434 14.0607631,6.863596 13.402914,4.68367954 C12.7334192,2.46474779 11.3871756,0.868257186 9.27203627,0 Z"></path></clipPath><clipPath id="i5"><path d="M0.550056985,0 C1.45027143,0.774228341 1.9902511,1.68495143 2.30488306,2.40263699 C2.17160364,2.44263258 2.04157877,2.49192126 1.91555345,2.55046382 C1.88406673,2.56457991 1.85375634,2.57912733 1.82387729,2.59445897 L1.81662319,2.58112711 L1.81054542,2.57061846 C1.37961256,1.56782709 0.0274479533,0.385722167 0,0.357842889 C0.17649034,0.22860224 0.360234782,0.109046797 0.550056985,0 Z"></path></clipPath><clipPath id="i6"><path d="M0.460042155,0 L1.44840374,1.68463774 C1.66857554,2.05989047 1.89568775,2.43118286 2.13358308,2.79549562 C3.18193805,4.40096562 4.61229011,5.47512167 6.21336844,6.49414655 C6.5652512,6.71812184 6.91756529,6.94115607 7.27062439,7.16332765 C7.53663427,7.33072095 7.89055602,7.55567653 8.2949428,7.81290307 L10.5802594,9.26117472 C10.9250449,9.47789592 11.2641448,9.68979412 11.5831292,9.8871449 C12.2414487,10.2943941 12.4234679,11.1702975 11.9821832,11.806345 C11.9745762,11.8173242 11.9669692,11.8282642 11.9593622,11.8392433 C11.561014,12.4134545 10.7911381,12.5882588 10.1826954,12.2443751 C9.63624585,11.9355072 9.03944893,11.5783702 8.43520184,11.2051564 L5.73267636,9.47342582 C5.34789526,9.21929699 4.99444404,8.9829309 4.68953649,8.77714967 C3.88201771,8.23215095 3.03081746,7.73212766 2.29525153,7.10149133 C1.96101388,6.8149347 1.65069516,6.50140065 1.37915648,6.14445962 C1.08769843,5.76124698 0.841019747,5.34560654 0.631003693,4.91275232 C0.363935107,4.36226401 0.172583661,3.77609336 0.0760452882,3.17149337 C-0.0101412852,2.63186661 -0.0246887005,2.08043723 0.0407158512,1.53767356 C0.0733789156,1.26664462 0.125804506,0.998007583 0.198384737,0.734860133 C0.22610717,0.634400624 0.460042155,0 0.460042155,0 Z"></path></clipPath><clipPath id="i7"><path d="M0.344001278,0 L1.33216681,1.68459853 C1.55222097,2.05961599 1.77956845,2.4309868 2.01734615,2.79549562 C3.06585796,4.40084799 4.49621002,5.47508246 6.09713151,6.49383285 C6.44921032,6.71792579 6.80164205,6.94084238 7.15450509,7.16332765 C7.42043655,7.33068174 7.77451515,7.55559811 8.17886271,7.81270701 L10.4641793,9.26113551 C10.8089648,9.47762144 11.1481431,9.68963727 11.4668138,9.886792 C12.1254471,10.2943549 12.3073094,11.1702583 11.8659463,11.8059921 C11.8583001,11.8172458 11.8506538,11.8281073 11.8430076,11.8389689 C11.7331766,11.9970691 11.5951918,12.1254079 11.4398756,12.2203778 C11.6760457,11.6260904 11.4623829,10.9256186 10.8942887,10.5739711 C10.5752651,10.3764243 10.2360868,10.1648006 9.89126209,9.94792251 L7.60633761,8.49949402 C7.20159794,8.24238512 6.84791145,8.01750796 6.58198,7.85011465 C6.22872484,7.6280215 5.87664602,7.40471279 5.52460641,7.18101197 C3.92364572,6.16186946 2.49333287,5.08759578 1.44482105,3.48224342 C1.20704335,3.1177346 0.979735088,2.7467559 0.759641714,2.37138553 C0.506571584,1.93966844 0.25307013,1.50838267 0,1.07705769 C0.0233307603,0.961972341 0.0510924045,0.847710433 0.0820693804,0.734664076 C0.109831025,0.634086933 0.344001278,0 0.344001278,0 Z"></path></clipPath><clipPath id="i8"><path d="M0.860053229,0.205943217 C0.913615949,0.36439633 0.828566505,0.536298941 0.670074181,0.589900872 L0.399947109,0.681224134 C0.367833003,0.69204647 0.335091516,0.69722237 0.302938199,0.69722237 C0.176599191,0.69722237 0.0587298374,0.617544882 0.0160286643,0.491245086 C-0.037534056,0.332791972 0.0475153879,0.160889362 0.206007713,0.10728743 L0.476134785,0.0159641682 C0.634548687,-0.0374417067 0.806490509,0.0474901031 0.860053229,0.205943217 Z"></path></clipPath><clipPath id="i9"><path d="M0.472151542,0.0516825352 L0.708635265,0.210998299 C0.847404275,0.304478185 0.88410611,0.492731934 0.790626223,0.631461732 C0.732122871,0.718314899 0.63648636,0.765172476 0.539124548,0.765172476 C0.480895676,0.765172476 0.422078633,0.748429225 0.370202001,0.71345269 L0.133718277,0.554136927 C-0.00505073234,0.46065704 -0.0417525671,0.272403291 0.0517273197,0.133673493 C0.145207206,-0.00505630543 0.333421744,-0.0417189288 0.472151542,0.0516825352 Z"></path></clipPath><clipPath id="i10"><path d="M0.472151542,0.0516825352 L0.708635265,0.210998299 C0.847404275,0.304478185 0.88410611,0.492731934 0.790626223,0.631461732 C0.732162083,0.718275687 0.636525571,0.765172476 0.539163759,0.765172476 C0.480934887,0.765172476 0.422117844,0.748429225 0.370202001,0.71345269 L0.133718277,0.554136927 C-0.00505073234,0.46065704 -0.0417525671,0.272403291 0.0517273197,0.133673493 C0.145167995,-0.00505630543 0.333460955,-0.0417189288 0.472151542,0.0516825352 Z"></path></clipPath><clipPath id="i11"><path d="M0.636665348,0.0535404428 C0.774414862,0.148510361 0.809116917,0.337117012 0.714146999,0.474827315 L0.552321708,0.70962495 C0.4936223,0.794870451 0.398926861,0.840669321 0.302662967,0.840669321 C0.243414599,0.840669321 0.18353885,0.823298688 0.131034836,0.787145812 C-0.00671467821,0.692175894 -0.0414167335,0.503569243 0.053553185,0.36585894 L0.215378476,0.131061305 C0.310269971,-0.00668820905 0.498915833,-0.0414294757 0.636665348,0.0535404428 Z"></path></clipPath><clipPath id="i12"><path d="M0.585439057,0.19368018 L0.688329671,0.459572425 C0.748675957,0.615594434 0.671155094,0.790986856 0.515133085,0.851372353 C0.479215478,0.865253175 0.442239163,0.871840684 0.405929442,0.871840684 C0.284452643,0.871840684 0.169837832,0.798240958 0.123372368,0.678136556 L0.0204817548,0.412244311 C-0.0398645311,0.256222302 0.0376563313,0.0808298803 0.19367834,0.020444383 C0.349582715,-0.0398234802 0.525092771,0.0376581709 0.585439057,0.19368018 Z"></path></clipPath><clipPath id="i13"><path d="M0.344293383,0.000776723975 C0.511176939,0.0125793439 0.636888566,0.157386903 0.625125157,0.32427046 L0.60504894,0.608709679 C0.59383449,0.768339133 0.460790339,0.890286469 0.303239087,0.890286469 C0.296063408,0.890286469 0.288848517,0.8900512 0.281594415,0.889541453 C0.114710859,0.877738833 -0.011000767,0.732931273 0.000762641614,0.566047717 L0.0208388589,0.281608498 C0.0326022675,0.114724942 0.177723518,-0.0111043187 0.344293383,0.000776723975 Z"></path></clipPath><clipPath id="i14"><path d="M0.55562642,0.00159605832 C0.722235497,-0.0154216727 0.870807347,0.10558459 0.887864289,0.27199761 C0.904960443,0.43841063 0.783875758,0.587178537 0.617462738,0.604235479 L0.333846957,0.63333031 C0.323338312,0.634389017 0.31290809,0.634937976 0.30255629,0.634937976 C0.149161443,0.634937976 0.0176073234,0.518833133 0.00160908777,0.362928758 C-0.015487066,0.196515738 0.10559762,0.0477478313 0.272010639,0.0306908888 L0.55562642,0.00159605832 Z"></path></clipPath><clipPath id="i15"><path d="M0.399947109,0.0159831789 L0.670074181,0.107306441 C0.828566505,0.160908373 0.913615949,0.332771772 0.860053229,0.491264096 C0.817352056,0.617563893 0.699443491,0.69724138 0.573143694,0.69724138 C0.540990377,0.69724138 0.508288102,0.692065481 0.476134785,0.681243145 L0.206007713,0.589919883 C0.0475153879,0.536317951 -0.037534056,0.364454552 0.0160286643,0.205962227 C0.0695913847,0.0474699025 0.241415572,-0.0374619073 0.399947109,0.0159831789 Z"></path></clipPath><clipPath id="i16"><path d="M0.603687319,0.266852366 L0.637644358,0.549958399 C0.65756373,0.716096939 0.539066995,0.866864626 0.372967666,0.886783998 C0.360694509,0.888274029 0.348538987,0.888979834 0.336501099,0.888979834 C0.185341299,0.888979834 0.0545714071,0.775972689 0.036142067,0.622146516 L0.0021850276,0.339040483 C-0.0177343442,0.172901943 0.100762391,0.0221342565 0.26686172,0.00221488464 C0.432921838,-0.0178613327 0.583767947,0.100792248 0.603687319,0.266852366 Z"></path></clipPath><clipPath id="i17"><path d="M0.790615918,0.133690733 C0.884095805,0.272459742 0.847354759,0.460674279 0.70862496,0.554154166 L0.472141237,0.713469929 C0.420264605,0.748446464 0.361447562,0.765189716 0.30321869,0.765189716 C0.205856878,0.765189716 0.110220366,0.718332138 0.0517170145,0.631478972 C-0.0417628722,0.492709962 -0.00502182615,0.304495425 0.133707972,0.211015538 L0.370191696,0.0516997748 C0.508921494,-0.0417409006 0.697175243,-0.00503906585 0.790615918,0.133690733 Z"></path></clipPath><clipPath id="i18"><path d="M0.790589066,0.133626724 C0.884068953,0.272395734 0.847367118,0.460610271 0.708637319,0.554090158 L0.472192807,0.713445133 C0.420237753,0.748460879 0.361381499,0.76520413 0.303191837,0.76520413 C0.205830026,0.76520413 0.110232726,0.718346553 0.0517293737,0.631532598 C-0.0417505131,0.492763588 -0.00504867835,0.304549051 0.13368112,0.211069164 L0.370125632,0.0517141892 C0.508855431,-0.0417264862 0.697109179,-0.00506386278 0.790589066,0.133626724 Z"></path></clipPath><clipPath id="i19"><path d="M0.561684232,0.00105217702 C0.728607,-0.0127502224 0.87486538,0.11084399 0.888863836,0.27753149 C0.902862292,0.444258201 0.779072023,0.590712637 0.612384523,0.604711093 L0.328258995,0.628590813 C0.319632495,0.629296617 0.311084418,0.62964952 0.302575553,0.62964952 C0.146749601,0.62964952 0.0143328316,0.5101725 0.00107939127,0.3521115 C-0.0129190649,0.185384789 0.110871205,0.0389303526 0.277558704,0.0249318964 L0.561684232,0.00105217702 Z"></path></clipPath><clipPath id="i20"><path d="M0.554117706,0.133633656 L0.71347268,0.370078168 C0.806952567,0.508807967 0.770289944,0.697022504 0.631560145,0.790541602 C0.579644302,0.825518137 0.520788048,0.8423006 0.462559176,0.8423006 C0.365197364,0.8423006 0.269600064,0.795443022 0.211096712,0.708629067 L0.0517417371,0.472184555 C-0.0417381497,0.333454756 -0.00507552632,0.145240219 0.133654272,0.0517211211 C0.272462493,-0.0417587657 0.460637819,-0.00501771957 0.554117706,0.133633656 Z"></path></clipPath><clipPath id="i21"><path d="M0.790589066,0.133616417 C0.884068953,0.272385427 0.847367118,0.460599964 0.708637319,0.55407985 L0.472192807,0.713434825 C0.420276964,0.748450571 0.36142071,0.765193823 0.303191837,0.765193823 C0.205830026,0.765193823 0.110232726,0.718336245 0.0517293737,0.63152229 C-0.0417505131,0.49275328 -0.00504867835,0.304538743 0.13368112,0.211058857 L0.370125632,0.0517038818 C0.508855431,-0.0417367936 0.697109179,-0.00503495885 0.790589066,0.133616417 Z"></path></clipPath><clipPath id="i22"><path d="M0.790615918,0.133690733 C0.884095805,0.272459742 0.847354759,0.460674279 0.70862496,0.554154166 L0.472141237,0.713469929 C0.420264605,0.748446464 0.361408351,0.765189716 0.30321869,0.765189716 C0.205856878,0.765189716 0.110220366,0.718332138 0.0517170145,0.631478972 C-0.0417628722,0.492709962 -0.00502182615,0.304495425 0.133707972,0.211015538 L0.370191696,0.0516997748 C0.508960706,-0.0417409006 0.697175243,-0.00503906585 0.790615918,0.133690733 Z"></path></clipPath><clipPath id="i23"><path d="M0.790615918,0.133698359 C0.884095805,0.272467369 0.847354759,0.460681906 0.70862496,0.554122581 L0.472180448,0.713438345 C0.420264605,0.748454091 0.361408351,0.765197342 0.30321869,0.765197342 C0.205856878,0.765197342 0.110220366,0.718339765 0.0517170145,0.631486598 C-0.0417628722,0.492717589 -0.00502182615,0.304503052 0.133707972,0.211062376 L0.370152484,0.0517466128 C0.508882283,-0.0417724853 0.697136031,-0.00503143923 0.790615918,0.133698359 Z"></path></clipPath><clipPath id="i24"><path d="M0.790628277,0.133708667 C0.884108164,0.272438465 0.847406329,0.460653002 0.708676531,0.554132889 L0.472192807,0.713487864 C0.420276964,0.74850361 0.36142071,0.765246861 0.303191837,0.765246861 C0.205830026,0.765246861 0.110193514,0.718389284 0.0517293737,0.631536117 C-0.0417505131,0.492806319 -0.00504867835,0.304591782 0.13368112,0.211111895 L0.370164844,0.0517569204 C0.508933853,-0.0417621777 0.69714839,-0.00506034294 0.790628277,0.133708667 Z"></path></clipPath><clipPath id="i25"><path d="M0.790589066,0.133626724 C0.884068953,0.272395734 0.847367118,0.460610271 0.708637319,0.554090158 L0.472192807,0.713445133 C0.420276964,0.748421667 0.36142071,0.76520413 0.303191837,0.76520413 C0.205830026,0.76520413 0.110232726,0.718346553 0.0517293737,0.631532598 C-0.0417505131,0.492763588 -0.00504867835,0.304549051 0.13368112,0.211069164 L0.370125632,0.0517141892 C0.508855431,-0.0417264862 0.697069968,-0.00506386278 0.790589066,0.133626724 Z"></path></clipPath><clipPath id="i26"><path d="M0.552320435,0.131033562 L0.714106514,0.365831197 C0.809037221,0.503580712 0.774295954,0.692187362 0.636585651,0.78711807 C0.584120849,0.823270945 0.524205888,0.840641579 0.464996732,0.840641579 C0.368732838,0.840641579 0.274076611,0.794842708 0.215298779,0.709597207 L0.0535126999,0.474799572 C-0.0414180072,0.337050058 -0.00667674057,0.148443407 0.131033562,0.0535126999 C0.268783077,-0.0414180072 0.457428939,-0.00667674057 0.552320435,0.131033562 Z"></path></clipPath><clipPath id="i27"><path d="M0.552293963,0.131021566 L0.714080042,0.365779989 C0.80901075,0.503529504 0.774308694,0.692136154 0.636598391,0.787066862 C0.584094378,0.82329816 0.524218628,0.840629582 0.46497026,0.840629582 C0.368706367,0.840629582 0.274050139,0.794830711 0.215311519,0.709624422 L0.05352544,0.474865998 C-0.0414052672,0.337116484 -0.0067032119,0.148509833 0.131007091,0.053579126 C0.268756605,-0.0414692152 0.457363256,-0.00664952584 0.552293963,0.131021566 Z"></path></clipPath><clipPath id="i28"><path d="M0.552293963,0.131033562 L0.714119254,0.365831197 C0.809049961,0.5035415 0.774347906,0.692148151 0.636637603,0.78711807 C0.584133589,0.823270945 0.52425784,0.840641579 0.465009472,0.840641579 C0.368745578,0.840641579 0.274089351,0.794842708 0.215350731,0.709597207 L0.05352544,0.474799572 C-0.0414052672,0.337089269 -0.0067032119,0.148482618 0.131007091,0.0535126999 C0.268795817,-0.0414180072 0.457402467,-0.00667674057 0.552293963,0.131033562 Z"></path></clipPath><clipPath id="i29"><path d="M0.515149135,0.0204716775 C0.671171144,0.0808571748 0.748731217,0.256249597 0.68834572,0.412271606 L0.585455107,0.678163851 C0.539028854,0.798268252 0.424414043,0.871867978 0.302937244,0.871867978 C0.266588312,0.871867978 0.229611997,0.865280469 0.19369439,0.851399647 C0.0376723809,0.79101415 -0.0398876929,0.615621728 0.0204978044,0.459599719 L0.123388418,0.193707474 C0.183734704,0.0377246767 0.359127126,-0.0398746085 0.515149135,0.0204716775 Z"></path></clipPath><clipPath id="i30"><path d="M0.879598622,0.243672323 C0.91237932,0.40769345 0.805959684,0.567244481 0.641899346,0.60002518 L0.362283124,0.655862159 C0.342246118,0.659900929 0.322287535,0.661783075 0.302642643,0.661783075 C0.161168049,0.661783075 0.0346721956,0.562186215 0.00593026735,0.418162883 C-0.0268504312,0.254141756 0.079569205,0.0945907249 0.243629543,0.0618100263 L0.523245765,0.00597304699 C0.687345314,-0.026964497 0.846817923,0.079651196 0.879598622,0.243672323 Z"></path></clipPath><clipPath id="i31"><path d="M0.352198321,0.00408833639 L0.633539842,0.0504361662 C0.798580465,0.0776488513 0.910372057,0.233474803 0.883159372,0.398515426 C0.858691482,0.546969642 0.730235061,0.65229136 0.584643274,0.65229136 C0.568292136,0.65229136 0.55170573,0.650997385 0.535040901,0.648213378 L0.25369938,0.601865548 C0.0886587574,0.574652863 -0.0231328353,0.418826911 0.00407984983,0.253747078 C0.031292535,0.0887064554 0.187118487,-0.0231635601 0.352198321,0.00408833639 Z"></path></clipPath><clipPath id="i32"><path d="M0.493093293,0.0163920429 C0.651389561,0.0704645109 0.735890046,0.242641601 0.681778367,0.400937869 L0.589592455,0.67075125 C0.546616802,0.79658051 0.428982717,0.875787462 0.302996611,0.875787462 C0.270529603,0.875787462 0.237474425,0.870533139 0.205046629,0.859436324 C0.046750361,0.805363856 -0.0377501238,0.633186765 0.0163615556,0.474890498 L0.108547467,0.205077116 C0.162659147,0.0467808484 0.334875448,-0.0377980592 0.493093293,0.0163920429 Z"></path></clipPath><clipPath id="i33"><path d="M0.281594415,0.000767110289 C0.448203492,-0.0110355096 0.593285531,0.114754539 0.60504894,0.281598884 L0.625125157,0.566038103 C0.636888566,0.73292166 0.511176939,0.877729219 0.344293383,0.889531839 C0.337078493,0.890041587 0.329824391,0.890276855 0.322687923,0.890276855 C0.165097459,0.890276855 0.0321317311,0.768329519 0.0208388589,0.608700065 L0.000762641614,0.324260846 C-0.011000767,0.15737729 0.114710859,0.0125697302 0.281594415,0.000767110289 Z"></path></clipPath><clipPath id="i34"><path d="M0.333846957,0.00157702253 L0.617462738,0.0306718531 C0.783875758,0.0477680068 0.904960443,0.196535914 0.887864289,0.362909722 C0.871826842,0.518774886 0.740272723,0.63491894 0.586917087,0.63491894 C0.576565287,0.63491894 0.566135065,0.634369981 0.55562642,0.633311274 L0.272010639,0.604216443 C0.10559762,0.58712029 -0.015487066,0.438352383 0.00160908777,0.271978574 C0.0187052416,0.105526343 0.167629994,-0.0153230744 0.333846957,0.00157702253 Z"></path></clipPath></defs><g transform="translate(-1653.0 -99.0)"><g clip-path="url(#i0)"><g transform="translate(1653.0 99.0)"><g clip-path="url(#i1)"><polygon points="0,0 30,0 30,30 0,30 0,0" stroke="none" fill="#FFFFFF"></polygon><g transform="translate(5.0 7.0)"><g clip-path="url(#i2)"><polygon points="0,1.38777878e-17 20.0762045,1.38777878e-17 20.0762045,16.184295 0,16.184295 0,1.38777878e-17" stroke="none" fill="#3F5B73"></polygon></g><g transform="translate(1.30682153895299 10.52582574844695)"><g clip-path="url(#i3)"><polygon points="0,0 2.72024902,0 2.72024902,2.07228126 0,2.07228126 0,0" stroke="none" fill="#3F5B73"></polygon></g></g><g transform="translate(5.614660179353449 0.1861817306137752)"><g clip-path="url(#i4)"><polygon points="0,0 14.4615443,0 14.4615443,15.9981133 0,15.9981133 0,0" stroke="none" fill="#3F5B73"></polygon></g></g><g transform="translate(10.03809391461737 0.7425517445277736)"><g clip-path="url(#i5)"><polygon points="0,0 2.30488306,0 2.30488306,2.59445897 0,2.59445897 0,0" stroke="none" fill="#3F5B73"></polygon></g></g><g transform="translate(7.754096049488296 3.3368146587977856)"><g clip-path="url(#i6)"><polygon points="-5.06539255e-16,0 12.2234645,0 12.2234645,12.4199824 -5.06539255e-16,12.4199824 -5.06539255e-16,0" stroke="none" fill="#3F5B73"></polygon></g></g><g transform="translate(7.870254560944971 3.336971504244863)"><g clip-path="url(#i7)"><polygon points="0,0 12.1073191,0 12.1073191,12.2203778 0,12.2203778 0,0" stroke="none" fill="#3F5B73"></polygon></g></g><g transform="translate(13.12631113736558 0.8987646664256594)"><g clip-path="url(#i8)"><polygon points="1.0269563e-15,-1.80411242e-16 0.876081893,-1.80411242e-16 0.876081893,0.69722237 1.0269563e-15,0.69722237 1.0269563e-15,-1.80411242e-16" stroke="none" fill="#F3CC53"></polygon></g><g transform="translate(1.8418197748427803 0.9286458673736233)"><g clip-path="url(#i9)"><polygon points="1.05471187e-15,-5.55111512e-17 0.842353543,-5.55111512e-17 0.842353543,0.765172476 1.05471187e-15,0.765172476 1.05471187e-15,-5.55111512e-17" stroke="none" fill="#F3CC53"></polygon></g></g><g transform="translate(5.017822454172402 3.942980101614504)"><g clip-path="url(#i10)"><polygon points="1.11022302e-15,4.99600361e-16 0.842353543,4.99600361e-16 0.842353543,0.765172476 1.11022302e-15,0.765172476 1.11022302e-15,4.99600361e-16" stroke="none" fill="#F3CC53"></polygon></g></g><g transform="translate(5.136061778956163 5.823189142208863)"><g clip-path="url(#i11)"><polygon points="-5.82867088e-16,-1.94289029e-16 0.767700184,-1.94289029e-16 0.767700184,0.840669321 -5.82867088e-16,0.840669321 -5.82867088e-16,-1.94289029e-16" stroke="none" fill="#F3CC53"></polygon></g></g><g transform="translate(4.564023472420364 9.058206591551256)"><g clip-path="url(#i12)"><polygon points="2.46330734e-16,-1.08940634e-15 0.708811425,-1.08940634e-15 0.708811425,0.871840684 2.46330734e-16,0.871840684 2.46330734e-16,-1.08940634e-15" stroke="none" fill="#F3CC53"></polygon></g></g><g transform="translate(4.072387215151911 1.9928516926886513)"><g clip-path="url(#i13)"><polygon points="1.11022302e-16,1.11022302e-16 0.625887799,1.11022302e-16 0.625887799,0.890286469 1.11022302e-16,0.890286469 1.11022302e-16,1.11022302e-16" stroke="none" fill="#F3CC53"></polygon></g></g><g transform="translate(5.254312289168803 7.50240504530889)"><g clip-path="url(#i14)"><polygon points="-3.32633227e-16,-6.31005664e-17 0.889473377,-6.31005664e-17 0.889473377,0.634937976 -3.32633227e-16,0.634937976 -3.32633227e-16,-6.31005664e-17" stroke="none" fill="#F3CC53"></polygon></g></g></g><g transform="translate(6.042778611211313 0.8987456556645546)"><g clip-path="url(#i15)"><polygon points="-5.27355937e-16,2.22044605e-16 0.876081893,2.22044605e-16 0.876081893,0.69724138 -5.27355937e-16,0.69724138 -5.27355937e-16,2.22044605e-16" stroke="none" fill="#F3CC53"></polygon></g></g><g transform="translate(8.027855833065662 1.4824510950957759)"><g clip-path="url(#i16)"><polygon points="-1.45283091e-16,-1.31405303e-16 0.639829386,-1.31405303e-16 0.639829386,0.888979834 -1.45283091e-16,0.888979834 -1.45283091e-16,-1.31405303e-16" stroke="none" fill="#F3CC53"></polygon></g></g><g transform="translate(4.234697492046571 1.8273932942151188)"><g clip-path="url(#i17)"><polygon points="1.38777878e-16,4.16333634e-17 0.842332933,4.16333634e-17 0.842332933,0.765189716 1.38777878e-16,0.765189716 1.38777878e-16,4.16333634e-17" stroke="none" fill="#F3CC53"></polygon></g></g><g transform="translate(9.322594606805001 2.811976176946923)"><g clip-path="url(#i18)"><polygon points="2.77555756e-17,1.80411242e-16 0.84231844,1.80411242e-16 0.84231844,0.76520413 2.77555756e-17,0.76520413 2.77555756e-17,1.80411242e-16" stroke="none" fill="#F3CC53"></polygon></g></g><g transform="translate(11.503009710482278 9.885197047574707)"><g clip-path="url(#i19)"><polygon points="-2.71917905e-16,8.63675451e-16 0.889943227,8.63675451e-16 0.889943227,0.62964952 -2.71917905e-16,0.62964952 -2.71917905e-16,8.63675451e-16" stroke="none" fill="#F3CC53"></polygon></g></g><g transform="translate(13.31680841138725 10.728547154685362)"><g clip-path="url(#i20)"><polygon points="-9.43689571e-16,8.32667268e-17 0.765214417,8.32667268e-17 0.765214417,0.8423006 -9.43689571e-16,0.8423006 -9.43689571e-16,8.32667268e-17" stroke="none" fill="#F3CC53"></polygon></g></g><g transform="translate(9.863280075961471 8.321457310020001)"><g clip-path="url(#i21)"><polygon points="2.08166817e-17,-5.689893e-16 0.84231844,-5.689893e-16 0.84231844,0.765193823 2.08166817e-17,0.765193823 2.08166817e-17,-5.689893e-16" stroke="none" fill="#F3CC53"></polygon></g></g><g transform="translate(1.058655601355181 4.841727528456)"><g clip-path="url(#i22)"><polygon points="6.9388939e-17,3.95516953e-16 0.842332933,3.95516953e-16 0.842332933,0.765189716 6.9388939e-17,0.765189716 6.9388939e-17,3.95516953e-16" stroke="none" fill="#F3CC53"></polygon></g></g><g transform="translate(10.69712204579955 14.42732943044931)"><g clip-path="url(#i23)"><polygon points="-6.9388939e-17,-1.07552856e-15 0.842332933,-1.07552856e-15 0.842332933,0.765197342 -6.9388939e-17,0.765197342 -6.9388939e-17,-1.07552856e-15" stroke="none" fill="#F3CC53"></polygon></g></g><g transform="translate(15.0863511143302 11.85058368729409)"><g clip-path="url(#i24)"><polygon points="8.74300632e-16,2.35922393e-16 0.842357651,2.35922393e-16 0.842357651,0.765246861 8.74300632e-16,0.765246861 8.74300632e-16,2.35922393e-16" stroke="none" fill="#F3CC53"></polygon></g></g><g transform="translate(13.0081489339473 13.855895465758302)"><g clip-path="url(#i25)"><polygon points="8.8817842e-16,5.75928194e-16 0.84231844,5.75928194e-16 0.84231844,0.76520413 8.8817842e-16,0.76520413 8.8817842e-16,5.75928194e-16" stroke="none" fill="#F3CC53"></polygon></g></g><g transform="translate(1.015139026875568 6.7219815515215)"><g clip-path="url(#i26)"><polygon points="4.85722573e-17,-4.85722573e-16 0.767619214,-4.85722573e-16 0.767619214,0.840641579 4.85722573e-17,0.840641579 4.85722573e-17,-4.85722573e-16" stroke="none" fill="#F3CC53"></polygon></g></g><g transform="translate(10.33786284531736 4.345941862816467)"><g clip-path="url(#i27)"><polygon points="-6.66133815e-16,2.70616862e-16 0.767605482,2.70616862e-16 0.767605482,0.840629582 -6.66133815e-16,0.840629582 -6.66133815e-16,2.70616862e-16" stroke="none" fill="#F3CC53"></polygon></g></g><g transform="translate(8.728432496377373 14.272286129662358)"><g clip-path="url(#i28)"><polygon points="4.64905892e-16,-8.46545056e-16 0.767644694,-8.46545056e-16 0.767644694,0.840641579 4.64905892e-16,0.840641579 4.64905892e-16,-8.46545056e-16" stroke="none" fill="#F3CC53"></polygon></g></g><g transform="translate(1.6459703458474417 9.956943963532785)"><g clip-path="url(#i29)"><polygon points="-1.11022302e-16,8.04911693e-16 0.708843525,8.04911693e-16 0.708843525,0.871867978 -1.11022302e-16,0.871867978 -1.11022302e-16,8.04911693e-16" stroke="none" fill="#F3CC53"></polygon></g></g><g transform="translate(6.59889522254825 10.635447796318182)"><g clip-path="url(#i30)"><polygon points="3.98986399e-17,7.52002627e-16 0.885528889,7.52002627e-16 0.885528889,0.661783075 3.98986399e-17,0.661783075 3.98986399e-17,7.52002627e-16" stroke="none" fill="#F3CC53"></polygon></g></g><g transform="translate(6.688226188457044 14.2469344260714)"><g clip-path="url(#i31)"><polygon points="-1.66533454e-16,-1.11022302e-15 0.887239222,-1.11022302e-15 0.887239222,0.65229136 -1.66533454e-16,0.65229136 -1.66533454e-16,-1.11022302e-15" stroke="none" fill="#F3CC53"></polygon></g></g><g transform="translate(4.774546333105208 11.58076653522151)"><g clip-path="url(#i32)"><polygon points="0,2.22044605e-16 0.698139922,2.22044605e-16 0.698139922,0.875787462 0,0.875787462 0,2.22044605e-16" stroke="none" fill="#F3CC53"></polygon></g></g><g transform="translate(2.220546279431124 2.891625972801989)"><g clip-path="url(#i33)"><polygon points="-1.23490627e-16,-1.44198889e-17 0.625887799,-1.44198889e-17 0.625887799,0.890276855 -1.23490627e-16,0.890276855 -1.23490627e-16,-1.44198889e-17" stroke="none" fill="#F3CC53"></polygon></g></g><g transform="translate(0.7750748383776961 8.40118874752292)"><g clip-path="url(#i34)"><polygon points="-5.55111512e-17,-1.66533454e-16 0.889473377,-1.66533454e-16 0.889473377,0.63491894 -5.55111512e-17,0.63491894 -5.55111512e-17,-1.66533454e-16" stroke="none" fill="#F3CC53"></polygon></g></g></g></g></g></g></g></svg>