<?xml version="1.0" encoding="UTF-8"?><svg version="1.1" width="30px" height="30px" viewBox="0 0 30.0 30.0" xmlns="http://www.w3.org/2000/svg" xmlns:xlink="http://www.w3.org/1999/xlink"><defs><clipPath id="i0"><path d="M2655,0 L2655,1581 L0,1581 L0,0 L2655,0 Z"></path></clipPath><clipPath id="i1"><path d="M15,0 C23.2842712,0 30,6.71572875 30,15 C30,23.2842712 23.2842712,30 15,30 C6.71572875,30 0,23.2842712 0,15 C0,6.71572875 6.71572875,0 15,0 Z"></path></clipPath><clipPath id="i2"><path d="M2.55678179,0 C2.6244123,0 2.67923767,0.0548253675 2.67923767,0.122455886 L2.67923767,6.67150279 C2.67923767,6.73913331 2.6244123,6.79395867 2.55678179,6.79395867 L0,6.79395867 L0,0 L2.55678179,0 Z"></path></clipPath><clipPath id="i3"><path d="M2.55678179,0 C2.6244123,0 2.67923767,0.0548253675 2.67923767,0.122455886 L2.67923767,6.67150279 C2.67923767,6.73913331 2.6244123,6.79395867 2.55678179,6.79395867 L0,6.79395867 L0,0 L2.55678179,0 Z"></path></clipPath><clipPath id="i4"><path d="M3.4797046,0 L6.50791907,2.30116512 L6.9594092,10.7089122 L0,10.7089122 L0.335652472,4.4579144 L3.4797046,0 Z"></path></clipPath><clipPath id="i5"><path d="M3.27818887,0 L6.30640333,2.30116512 L6.52339421,6.34175895 L2.61558163,3.61576161 L0,6.95664175 L0.134136736,4.4579144 L3.27818887,0 Z"></path></clipPath><clipPath id="i6"><path d="M2.55683824,0 C2.62446876,0 2.67929418,0.0548253675 2.67929418,0.122455886 L2.67929418,6.67150279 C2.67932409,6.70399967 2.66643576,6.73517582 2.64346758,6.75816518 C2.62049939,6.78115454 2.58933514,6.79407159 2.55683824,6.79407159 L0,6.79407159 L0,0 L2.55683824,0 Z"></path></clipPath><clipPath id="i7"><path d="M2.55678179,0 C2.6244123,0 2.67923767,0.0548253675 2.67923767,0.122455886 L2.67923767,6.67150279 C2.67923767,6.73913331 2.6244123,6.79395867 2.55678179,6.79395867 L0,6.79395867 L0,0 L2.55678179,0 Z"></path></clipPath><clipPath id="i8"><path d="M1.32527095,0 L1.32527095,1.80065154 L0,1.80065154 L0,0 L1.32527095,0 Z"></path></clipPath><clipPath id="i9"><path d="M1.13979514,0 C1.76928662,0 2.27959029,0.510303668 2.27959029,1.13979514 L2.27959029,2.77682811 L0,2.77682811 L0,1.13979514 C0,0.510303668 0.510303668,0 1.13979514,0 Z"></path></clipPath><clipPath id="i10"><path d="M0.254436208,0 L2.45902288,1.52441458 L2.20458667,1.8977383 L0,0.373323715 L0.254436208,0 Z"></path></clipPath><clipPath id="i11"><path d="M1.52898935,0 L1.90236955,0.254492687 L0.373380194,2.45602951 L0,2.20153683 L1.52898935,0 Z"></path></clipPath><clipPath id="i12"><path d="M0.254210294,0 L2.45467403,1.53057075 L2.20018134,1.90389447 L0,0.372984843 L0.254210294,0 Z"></path></clipPath><clipPath id="i13"><path d="M1.53136145,0 L1.90479813,0.254492687 L0.373380194,2.45439163 L0,2.19984247 L1.53136145,0 Z"></path></clipPath><clipPath id="i14"><path d="M11.2654322,0.204432253 C11.4109776,-0.00910679184 11.702071,-0.0642304507 11.9156141,0.0813088491 C12.1291532,0.226854225 12.1842768,0.517947601 12.0387375,0.731490787 L7.77228569,6.99096038 L14.0433899,11.2651498 C14.1834268,11.358539 14.2625235,11.5199377 14.2505332,11.6878308 C14.2385429,11.855724 14.137313,12.0042445 13.9854259,12.0767855 C13.8335389,12.1493266 13.6543958,12.1347119 13.5162749,12.0385116 L7.2567488,7.77239865 L2.98238993,14.0435028 C2.88819964,14.1816405 2.72746863,14.2590351 2.56074273,14.2465328 C2.39401683,14.2340304 2.24662567,14.1335306 2.17409006,13.9828905 C2.10155446,13.8322505 2.1148943,13.6543561 2.20908459,13.5162184 L6.46395833,7.24878531 L0.204432253,2.98227697 C-0.00910679184,2.8367316 -0.0642304507,2.54563822 0.0813088491,2.33209504 C0.226875466,2.11854902 0.517986381,2.06342682 0.731547266,2.20897163 L6.99107334,6.47536701 Z"></path></clipPath><clipPath id="i15"><path d="M0.878863893,0 C1.36424702,0 1.75772779,0.393480768 1.75772779,0.878863893 C1.75772779,1.36424702 1.36424702,1.75772779 0.878863893,1.75772779 C0.393480768,1.75772779 0,1.36424702 0,0.878863893 C0,0.393480768 0.393480768,0 0.878863893,0 Z"></path></clipPath></defs><g transform="translate(-1504.0 -792.0)"><g clip-path="url(#i0)"><g transform="translate(1504.0 792.0)"><g clip-path="url(#i1)"><polygon points="0,0 30,0 30,30 0,30 0,0" stroke="none" fill="#FFFFFF"></polygon><g transform="translate(8.0 6.0)"><g transform="translate(11.912012613770901 0.0783954556857811) rotate(34.27826657346975)"><g clip-path="url(#i2)"><polygon points="1.24344979e-14,0 2.67923767,0 2.67923767,6.79395867 1.24344979e-14,6.79395867 1.24344979e-14,0" stroke="none" fill="#3F5B73"></polygon></g></g><g transform="translate(0.08016267187633197 2.3335382348266966) rotate(-55.72173342653025)"><g clip-path="url(#i3)"><polygon points="0,8.8817842e-15 2.67923767,8.8817842e-15 2.67923767,6.79395867 0,6.79395867 0,8.8817842e-15" stroke="none" fill="#3F5B73"></polygon></g></g><g transform="translate(3.6442064664361173 7.291087800036621)"><g clip-path="url(#i4)"><polygon points="0,0 6.9594092,0 6.9594092,10.7089122 0,10.7089122 0,0" stroke="none" fill="#F3CC53"></polygon></g></g><g transform="translate(3.8457222025758706 7.291087800036621)"><g clip-path="url(#i5)"><polygon points="0,0 6.52339421,0 6.52339421,6.95664175 0,6.95664175 0,0" stroke="none" fill="#F3CC53"></polygon></g></g><g transform="translate(2.331893803162668 14.169729519233911) rotate(-145.7217334265303)"><g clip-path="url(#i6)"><polygon points="8.8817842e-15,0 2.67929423,0 2.67929423,6.79407159 8.8817842e-15,6.79407159 8.8817842e-15,0" stroke="none" fill="#3F5B73"></polygon></g></g><g transform="translate(14.17157518423757 11.913642191554747) rotate(124.2782665734697)"><g clip-path="url(#i7)"><polygon points="-2.84217094e-14,-1.0658141e-14 2.67923767,-1.0658141e-14 2.67923767,6.79395867 -2.84217094e-14,6.79395867 -2.84217094e-14,-1.0658141e-14" stroke="none" fill="#3F5B73"></polygon></g></g><g transform="translate(6.461303832724675 12.47701168122834)"><g clip-path="url(#i8)"><polygon points="0,0 1.32527095,0 1.32527095,1.80065154 0,1.80065154 0,0" stroke="none" fill="#3F5B73"></polygon></g></g><g transform="translate(5.984115925032585 15.223171893763839)"><g clip-path="url(#i9)"><polygon points="0,0 2.27959029,0 2.27959029,2.77682811 0,2.77682811 0,0" stroke="none" fill="#3F5B73"></polygon></g></g><g transform="translate(9.909098011085588 2.65182053602311)"><g clip-path="url(#i10)"><polygon points="0,0 2.45902288,0 2.45902288,1.8977383 0,1.8977383 0,0" stroke="none" fill="#3F5B73"></polygon></g></g><g transform="translate(2.647697596354336 1.8798142027004492)"><g clip-path="url(#i11)"><polygon points="0,0 1.90236955,0 1.90236955,2.45602951 0,2.45602951 0,0" stroke="none" fill="#3F5B73"></polygon></g></g><g transform="translate(1.8794188523212552 9.698771609352185)"><g clip-path="url(#i12)"><polygon points="0,0 2.45467403,0 2.45467403,1.90389447 0,1.90389447 0,0" stroke="none" fill="#3F5B73"></polygon></g></g><g transform="translate(9.699166959731402 9.914407001891945)"><g clip-path="url(#i13)"><polygon points="0,0 1.90479813,0 1.90479813,2.45439163 0,2.45439163 0,0" stroke="none" fill="#3F5B73"></polygon></g></g><g clip-path="url(#i14)"><polygon points="9.71445147e-17,1.38777878e-17 14.2517257,1.38777878e-17 14.2517257,14.2478468 9.71445147e-17,14.2478468 9.71445147e-17,1.38777878e-17" stroke="none" fill="#3F5B73"></polygon></g><g transform="translate(6.245047175303171 6.24493421805164)"><g clip-path="url(#i15)"><polygon points="0,0 1.75772779,0 1.75772779,1.75772779 0,1.75772779 0,0" stroke="none" fill="#3F5B73"></polygon></g></g></g></g></g></g></g></svg>