<?xml version="1.0" encoding="UTF-8"?><svg version="1.1" width="30px" height="31px" viewBox="0 0 30.0 31.0" xmlns="http://www.w3.org/2000/svg" xmlns:xlink="http://www.w3.org/1999/xlink"><defs><clipPath id="i0"><path d="M2655,0 L2655,1581 L0,1581 L0,0 L2655,0 Z"></path></clipPath><clipPath id="i1"><path d="M15,0 C23.2842712,0 30,6.71572875 30,15 C30,23.2842712 23.2842712,30 15,30 C6.71572875,30 0,23.2842712 0,15 C0,6.71572875 6.71572875,0 15,0 Z"></path></clipPath><clipPath id="i2"><path d="M1.90561723,0.000930437233 L2.00500047,0.00391296701 C2.20351687,0.0245122576 2.37807703,0.145819373 2.46734078,0.324346793 L3.67827561,2.66809163 C3.76128324,2.83471728 3.76067289,3.03033451 3.67659714,3.19634976 C3.59191104,3.3616021 3.43398291,3.47787379 3.25026753,3.50808615 L0.976102616,3.88070494 L0,2.07696746 L1.48543985,0.2202821 C1.61025645,0.064032444 1.80465302,-0.0195855359 2.00500047,0.00391296701 Z"></path></clipPath><clipPath id="i3"><path d="M1.6960327,0.00375253704 C1.89348098,-0.0191356157 2.09031894,0.063872014 2.21559331,0.22012167 L3.70103317,2.07680703 L2.72493055,3.88054451 L0.489828052,3.50792572 C0.306112675,3.47771336 0.148184547,3.36144167 0.0634984441,3.19618933 C-0.0205773082,3.03017408 -0.0211876584,2.83455685 0.0618199713,2.6679312 L1.23369239,0.324186363 C1.32295614,0.145658943 1.4975163,0.0243518276 1.6960327,0.00375253704 Z"></path></clipPath><clipPath id="i4"><path d="M15.3091815,1.28610733 C15.9302129,2.54007183 15.3325274,4.06350598 14.0318711,4.5438516 C12.039688,5.27047355 9.9419143,5.64553374 7.79744879,5.64553374 C5.65298327,5.64553374 3.5161472,5.27047355 1.52396409,4.5438516 C0.223307732,4.06350598 -0.37437771,2.5283226 0.246653657,1.28610733 C0.785745478,0.231422149 2.06702316,-0.260825322 3.18030196,0.137580793 C3.88342541,0.39545378 4.61004737,0.594733107 5.33651671,0.723517003 L5.36001517,1.71976114 L6.61382714,0.911047097 C6.81310646,0.922796368 7.01238583,0.922796368 7.21151258,0.9345456 L7.79744879,2.23535449 L8.383385,0.9345456 C8.58251175,0.922796368 8.78179111,0.922796368 8.98107044,0.911047097 L10.2348824,1.71976114 L10.2583809,0.723517003 C10.9848502,0.594733107 11.7114722,0.39545378 12.4145956,0.137580793 C13.5278744,-0.260825322 14.7700897,0.231422149 15.3091815,1.28610733 Z"></path></clipPath><clipPath id="i5"><path d="M7.51173272,1.28610733 C8.13276408,2.54007183 7.53507864,4.06350598 6.23442229,4.5438516 C4.24223917,5.27047355 2.14446551,5.64553374 0,5.64553374 L0,2.23535449 L0.58593621,0.9345456 C0.785062959,0.922796368 0.984342325,0.922796368 1.18362165,0.911047097 L2.43743362,1.71960856 L2.46093208,0.723517003 C3.18740142,0.594580529 3.91402337,0.39545378 4.61714682,0.137580793 C5.73042562,-0.260825322 6.9726409,0.231422149 7.51173272,1.28610733 Z"></path></clipPath><clipPath id="i6"><path d="M1.17187242,0 L1.17187242,1.8867451 C1.17187242,2.21480836 0.914152049,2.47268131 0.58593621,2.47268131 C0.25772037,2.47268131 0,2.21480836 0,1.8867451 L0,0 C0.187530095,0.0117492319 0.386809461,0.0117492319 0.58593621,0.0117492319 C0.785215536,0.0117492319 0.984342325,0.0117492319 1.17187242,0 Z"></path></clipPath><clipPath id="i7"><path d="M1.27029138,0 L2.23769648,1.54754296 C2.40935747,1.82220056 2.32589207,2.18383308 2.05169224,2.35503634 C1.77840792,2.52639213 1.41570731,2.4436897 1.24435148,2.1690321 L0,0.178222264 C0.42556668,0.14038055 0.848997115,0.0782774057 1.27029138,0 Z"></path></clipPath><clipPath id="i8"><path d="M1.05665397,0 C1.47794823,0.0782774057 1.90137867,0.14038055 2.32694535,0.178222264 L1.08259387,2.16887948 C0.91108546,2.44384227 0.548384813,2.52623955 0.27525311,2.35488372 C0.00105328402,2.18383308 -0.0824121181,1.82220056 0.0892488711,1.54754296 Z"></path></clipPath><clipPath id="i9"><path d="M0.58593621,0 L0.58593621,1.8867451 C0.58593621,2.21480836 0.32821584,2.47268131 0,2.47268131 L0,0.0117492319 C0.199279327,0.0117492319 0.398406115,0.0117492319 0.58593621,0 Z"></path></clipPath></defs><g transform="translate(-1653.0 -791.0)"><g clip-path="url(#i0)"><g transform="translate(1653.0 791.8933333333334)"><g clip-path="url(#i1)"><polygon points="0,0 30,0 30,30 0,30 0,0" stroke="none" fill="#FFFFFF"></polygon><g transform="translate(5.0 12.0)"><g transform="translate(16.25990441790329 0.0)"><g clip-path="url(#i2)"><polygon points="0,5.81132364e-17 3.74009558,5.81132364e-17 3.74009558,3.88070494 0,3.88070494 0,5.81132364e-17" stroke="none" fill="#F3CC53"></polygon></g></g><g transform="translate(0.0 0.00016042997109866342)"><g clip-path="url(#i3)"><polygon points="-6.9388939e-18,-2.22044605e-16 3.70103317,-2.22044605e-16 3.70103317,3.88054451 -6.9388939e-18,3.88054451 -6.9388939e-18,-2.22044605e-16" stroke="none" fill="#F3CC53"></polygon></g></g><g transform="translate(2.2025512131407012 1.2808187857651032)"><g clip-path="url(#i4)"><polygon points="2.22044605e-16,-2.22044605e-16 15.5558352,-2.22044605e-16 15.5558352,5.64553374 2.22044605e-16,5.64553374 2.22044605e-16,-2.22044605e-16" stroke="none" fill="#3F5B73"></polygon></g></g><g transform="translate(10.00000000000001 1.2808187857651032)"><g clip-path="url(#i5)"><polygon points="0,-1.94289029e-16 7.75838637,-1.94289029e-16 7.75838637,5.64553374 0,5.64553374 0,-1.94289029e-16" stroke="none" fill="#3F5B73"></polygon></g></g><g transform="translate(9.414063790316817 2.215364386138393)"><g clip-path="url(#i6)"><polygon points="0,0 1.17187242,0 1.17187242,2.47268131 0,2.47268131 0,0" stroke="none" fill="#F3CC53"></polygon></g></g><g transform="translate(11.18865706990407 2.00921859010123)"><g clip-path="url(#i7)"><polygon points="0,0 2.32694535,0 2.32694535,2.44426026 0,2.44426026 0,0" stroke="none" fill="#F3CC53"></polygon></g></g><g transform="translate(6.484397580529132 2.00921859010123)"><g clip-path="url(#i8)"><polygon points="-3.60822483e-16,0 2.32694535,0 2.32694535,2.44418133 -3.60822483e-16,2.44418133 -3.60822483e-16,0" stroke="none" fill="#F3CC53"></polygon></g></g><g transform="translate(10.00000000000001 2.215364386138393)"><g clip-path="url(#i9)"><polygon points="0,0 0.58593621,0 0.58593621,2.47268131 0,2.47268131 0,0" stroke="none" fill="#F3CC53"></polygon></g></g></g></g></g></g></g></svg>