<?xml version="1.0" encoding="UTF-8"?><svg version="1.1" width="30px" height="30px" viewBox="0 0 30.0 30.0" xmlns="http://www.w3.org/2000/svg" xmlns:xlink="http://www.w3.org/1999/xlink"><defs><clipPath id="i0"><path d="M2655,0 L2655,1581 L0,1581 L0,0 L2655,0 Z"></path></clipPath><clipPath id="i1"><path d="M15,0 C23.2842712,0 30,6.71572875 30,15 C30,23.2842712 23.2842712,30 15,30 C6.71572875,30 0,23.2842712 0,15 C0,6.71572875 6.71572875,0 15,0 Z"></path></clipPath><clipPath id="i2"><path d="M4.16393909,0 L4.53124873,3.48816244 L5.02940102,8.22225381 L0,8.22225381 L0.865461929,0 L4.16393909,0 Z"></path></clipPath><clipPath id="i3"><path d="M3.2688731,0 L3.76702538,4.73409137 L0,4.73409137 L0.459045685,0.372426396 C0.717076142,0.415187817 0.982050761,0.437116751 1.25250761,0.437116751 C1.81681218,0.437116751 2.35845685,0.340994924 2.86209137,0.164101523 C3.00060914,0.115492386 3.13656853,0.0606700508 3.2688731,0 Z"></path></clipPath><clipPath id="i4"><path d="M6.35354315,0 C7.57827411,0 8.69701523,0.452832487 9.55151269,1.20060914 C9.90018274,1.50542132 10.2049949,1.8595736 10.4549848,2.25173604 C10.6490558,2.37526904 10.8336244,2.51232487 11.0072284,2.66144162 L8.09104569,12.3865584 C8.04864975,12.4030051 8.00588832,12.4187208 7.9631269,12.4337056 C7.45949239,12.610599 6.91784772,12.7067208 6.35354315,12.7067208 C5.51037563,12.7067208 4.71764467,12.4918173 4.02651777,12.1142741 C3.79260914,11.9863553 3.57039594,11.839797 3.36170558,11.6767919 C3.10806091,11.787533 2.82810152,11.8492995 2.53352284,11.8492995 C1.38919797,11.8492995 0.461604061,10.9217056 0.461604061,9.77738071 C0.461604061,9.44077157 0.542375635,9.12316751 0.684913706,8.84211168 C0.467817259,8.47809137 0.296406091,8.08337056 0.179451777,7.66562437 C0.0624974619,7.24824365 0,6.80783756 0,6.35317766 C0,4.62919797 0.897989848,3.11463959 2.25173604,2.25173604 C2.68337056,1.57486294 3.27764467,1.0120203 3.97973604,0.618030457 C4.68182741,0.224406091 5.49137056,0 6.35354315,0 Z"></path></clipPath><clipPath id="i5"><path d="M6.35354315,0 C7.57827411,0 8.69701523,0.452832487 9.55151269,1.20060914 C8.30960406,0.409705584 4.93437563,1.20426396 4.93437563,4.01445685 C4.93437563,4.01445685 2.74367513,4.25275127 2.74367513,7.20548223 C2.74367513,8.74200609 3.51729137,9.5821401 4.25951269,10.0346071 C4.62631066,10.2582091 4.70598579,10.7650599 4.41005482,11.0764142 C4.18923046,11.3087147 4.02651777,11.6405726 4.02651777,12.1142376 C3.79260914,11.9863188 3.57039594,11.8397604 3.36170558,11.6767553 C3.06822335,11.8048934 2.73954518,11.867464 2.39372589,11.8446579 C1.37044873,11.7771898 0.541790863,10.9544893 0.467232487,9.93168731 C0.438542132,9.5378802 0.520775635,9.16574619 0.684913706,8.84207513 C0.467817259,8.47805482 0.296406091,8.08333401 0.179451777,7.66558782 C0.0624974619,7.24820711 0,6.80780102 0,6.35314112 C0,4.62916142 0.897989848,3.11460305 2.25173604,2.25169949 C2.68337056,1.5748264 3.27764467,1.01198376 3.97973604,0.617993909 C4.68182741,0.224406091 5.49137056,0 6.35354315,0 Z"></path></clipPath><clipPath id="i6"><path d="M3.59733198,0 L3.91464365,3.01351066 L4.34503553,7.10340305 L0,7.10340305 L0.747703553,0 L3.59733198,0 Z"></path></clipPath><clipPath id="i7"><path d="M2.82404467,0 L3.2544,4.08989239 L0,4.08989239 L0.396584772,0.32173401 C0.619492386,0.358684264 0.848430457,0.377616244 1.08208325,0.377616244 C1.5696,0.377616244 2.0375269,0.29457868 2.4726335,0.141770558 C2.59229239,0.0997766497 2.70975838,0.0524101523 2.82404467,0 Z"></path></clipPath><clipPath id="i8"><path d="M5.48895838,0 C6.54702944,0 7.51354721,0.391212183 8.25174822,1.03723858 C8.55297868,1.30056853 8.81630863,1.60655025 9.03227208,1.94531574 C10.2018152,2.69078985 10.9775878,3.99925279 10.9775878,5.48866599 C10.9775878,6.27456244 10.7616244,7.00994924 10.3859086,7.63890761 C10.5090396,7.88173401 10.5788467,8.15610152 10.5788467,8.44691574 C10.5788467,9.43550863 9.77749036,10.2369015 8.78918985,10.2369015 C8.53470457,10.2369015 8.29282843,10.1835411 8.07368528,10.0878579 C7.71752284,10.3663553 7.31494416,10.588934 6.87950863,10.7417787 C6.44440203,10.8945868 5.97647513,10.9776244 5.48895838,10.9776244 C4.76051574,10.9776244 4.07567513,10.7919594 3.4785868,10.465803 C3.27651168,10.3552812 3.08452386,10.2286782 2.90423147,10.0878579 C2.68508832,10.1835411 2.44324873,10.2369015 2.18876345,10.2369015 C1.20017056,10.2369015 0.398777665,9.43554518 0.398777665,8.44691574 C0.398777665,8.15610152 0.468548223,7.88173401 0.591715736,7.63890761 C0.404150254,7.32441015 0.256056853,6.98341523 0.155037563,6.62250152 C0.0539817259,6.26191675 0,5.88144975 0,5.48866599 C0,3.99928934 0.775809137,2.6908264 1.94531574,1.94531574 C2.31821726,1.36054416 2.83161015,0.874306599 3.43816447,0.533932995 C4.04471878,0.193888325 4.74410558,0 5.48895838,0 Z"></path></clipPath><clipPath id="i9"><path d="M5.48895838,0 C6.54702944,0 7.51351066,0.391212183 8.25174822,1.03723858 C7.17883858,0.353969543 4.26291168,1.04038173 4.26291168,3.46820711 C4.26291168,3.46820711 2.37029848,3.67408325 2.37029848,6.22500305 C2.37029848,7.4746599 2.96263553,8.19115127 3.5670335,8.59694619 C3.91899289,8.83326701 4.00089746,9.31866396 3.73848122,9.65161827 C3.58508832,9.84623756 3.4785868,10.1096041 3.4785868,10.465803 C3.27651168,10.3552812 3.08452386,10.2286782 2.90423147,10.0878579 C2.66933604,10.1904122 2.40830863,10.2443574 2.13364873,10.2360609 C1.22122234,10.2085401 0.465770558,9.48342335 0.403126904,8.57275127 C0.379918782,8.23530152 0.45093198,7.91649137 0.591715736,7.63890761 C0.404150254,7.32441015 0.256056853,6.98341523 0.155037563,6.62250152 C0.0539817259,6.26191675 0,5.88144975 0,5.48866599 C0,3.99928934 0.775809137,2.6908264 1.94531574,1.94531574 C2.31821726,1.36054416 2.83161015,0.874306599 3.43816447,0.533932995 C4.04471878,0.193888325 4.74410558,0 5.48895838,0 Z"></path></clipPath><clipPath id="i10"><path d="M15.3842437,0 C15.5356629,0 15.6583553,0.122728934 15.6583553,0.274111675 C15.6583553,0.425494416 15.5356629,0.54822335 15.3842437,0.54822335 L0.274111675,0.54822335 C0.122728934,0.54822335 0,0.425494416 0,0.274111675 C0,0.122728934 0.122728934,0 0.274111675,0 L15.3842437,0 Z"></path></clipPath></defs><g transform="translate(-1503.0 -99.0)"><g clip-path="url(#i0)"><g transform="translate(1503.0 99.0)"><g clip-path="url(#i1)"><polygon points="0,0 30,0 30,30 0,30 0,0" stroke="none" fill="#FFFFFF"></polygon><g transform="translate(6.0 6.0)"><g transform="translate(3.838659898477156 9.686375634517763)"><g clip-path="url(#i2)"><polygon points="0,0 5.02940102,0 5.02940102,8.22225381 0,8.22225381 0,0" stroke="none" fill="#F3CC53"></polygon></g></g><g transform="translate(5.101035532994956 13.174538071065399)"><g clip-path="url(#i3)"><polygon points="0,0 3.76702538,0 3.76702538,4.73409137 0,4.73409137 0,0" stroke="none" fill="#F3CC53"></polygon></g></g><g clip-path="url(#i4)"><polygon points="0,0 11.0072284,0 11.0072284,12.7067208 0,12.7067208 0,0" stroke="none" fill="#3F5B73"></polygon></g><g clip-path="url(#i5)"><polygon points="0,0 9.55151269,0 9.55151269,12.1142376 0,12.1142376 0,0" stroke="none" fill="#3F5B73"></polygon></g><g transform="translate(10.19158172588823 10.80522639593983)"><g clip-path="url(#i6)"><polygon points="0,0 4.34503553,0 4.34503553,7.10340305 0,7.10340305 0,0" stroke="none" fill="#F3CC53"></polygon></g></g><g transform="translate(11.28221725888324 13.81873705583757)"><g clip-path="url(#i7)"><polygon points="0,0 3.2544,0 3.2544,4.08989239 0,4.08989239 0,0" stroke="none" fill="#F3CC53"></polygon></g></g><g transform="translate(6.875305583756471 2.436925888325277)"><g clip-path="url(#i8)"><polygon points="0,0 10.9775878,0 10.9775878,10.9776244 0,10.9776244 0,0" stroke="none" fill="#3F5B73"></polygon></g></g><g transform="translate(6.875305583756472 2.436925888325277)"><g clip-path="url(#i9)"><polygon points="0,0 8.25174822,0 8.25174822,10.465803 0,10.465803 0,0" stroke="none" fill="#3F5B73"></polygon></g></g><g transform="translate(1.5287025380712294 17.45177664974653)"><g clip-path="url(#i10)"><polygon points="0,0 15.6583553,0 15.6583553,0.54822335 0,0.54822335 0,0" stroke="none" fill="#3F5B73"></polygon></g></g></g></g></g></g></g></svg>