<?xml version="1.0" encoding="UTF-8"?><svg version="1.1" width="30px" height="30px" viewBox="0 0 30.0 30.0" xmlns="http://www.w3.org/2000/svg" xmlns:xlink="http://www.w3.org/1999/xlink"><defs><clipPath id="i0"><path d="M2655,0 L2655,1581 L0,1581 L0,0 L2655,0 Z"></path></clipPath><clipPath id="i1"><path d="M15,0 C23.2842712,0 30,6.71572875 30,15 C30,23.2842712 23.2842712,30 15,30 C6.71572875,30 0,23.2842712 0,15 C0,6.71572875 6.71572875,0 15,0 Z"></path></clipPath><clipPath id="i2"><path d="M6.703125,0 L6.703125,5.8359375 L0,5.8359375 L0,0 L6.703125,0 Z"></path></clipPath><clipPath id="i3"><path d="M1.6875,0 C1.8046875,0 1.875,0.09375 1.875,0.1875 L1.875,1.453125 L3.75,1.453125 L3.75,0.1875 C3.75,0.0703125 3.84375,0 3.9375,0 L5.4375,0 C5.5546875,0 5.625,0.09375 5.625,0.1875 L5.625,1.453125 L7.5,1.453125 L7.5,0.1875 C7.5,0.0703125 7.59375,0 7.6875,0 L9.1875,0 C9.3046875,0 9.375,0.09375 9.375,0.1875 L9.375,1.453125 L11.25,1.453125 L11.25,0.1875 C11.25,0.0703125 11.34375,0 11.4375,0 L12.9375,0 C13.0546875,0 13.125,0.09375 13.125,0.1875 L13.125,1.453125 L15,1.453125 L15,0.2109375 C15,0.09375 15.09375,0.0234375 15.1875,0.0234375 L16.6875,0.0234375 C16.8046875,0.0234375 16.875,0.09375 16.875,0.1875 L16.875,9.3515625 L0,9.3515625 L0,0.1875 C0,0.0703125 0.09375,0 0.1875,0 Z"></path></clipPath><clipPath id="i4"><path d="M4.8515625,0 L9.703125,4.875 L0,4.875 L4.8515625,0 Z"></path></clipPath><clipPath id="i5"><path d="M6.046875,1.265625 C6.5390625,1.265625 6.984375,1.453125 7.3125,1.78125 C7.359375,1.828125 7.4296875,1.8984375 7.4765625,1.96875 C7.6875,2.2734375 7.828125,2.6484375 7.828125,3.046875 L7.828125,5.53125 L4.265625,5.53125 L4.265625,3.046875 C4.265625,2.0625 5.0625,1.265625 6.046875,1.265625 Z M11.109375,0 C11.390625,0 11.6484375,0.1171875 11.8359375,0.3046875 C11.90625,0.375 11.953125,0.421875 11.9765625,0.4921875 C12.046875,0.6796875 12.1171875,0.84375 12.1171875,1.0546875 L12.1171875,2.0625 L10.078125,2.0625 L10.078125,1.03125 C10.078125,0.46875 10.5234375,0 11.109375,0 Z M1.03125,0 C1.3125,0 1.5703125,0.1171875 1.7578125,0.3046875 C1.80084135,0.369230769 1.86361933,0.414024901 1.89176036,0.475327287 C1.90111271,0.480562477 1.91154035,0.486281988 1.921875,0.4921875 C1.96132812,0.65 2.01738444,0.79120931 2.03414654,0.957738485 C2.0372998,0.989065755 2.0390625,1.02128906 2.0390625,1.0546875 L2.0390625,2.0625 L0,2.0625 L0,1.03125 C0,0.46875 0.46875,0 1.03125,0 Z"></path></clipPath></defs><g transform="translate(-1504.0 -701.0)"><g clip-path="url(#i0)"><g transform="translate(1504.0 701.0)"><g clip-path="url(#i1)"><polygon points="0,0 30,0 30,30 0,30 0,0" stroke="none" fill="#FFFFFF"></polygon><g transform="translate(6.5625 5.203125)"><g transform="translate(4.992187499999995 4.875)"><g clip-path="url(#i2)"><polygon points="0,0 6.703125,0 6.703125,5.8359375 0,5.8359375 0,0" stroke="none" fill="#3F5B73"></polygon></g></g><g transform="translate(0.0 7.40625)"><g clip-path="url(#i3)"><polygon points="0,0 16.875,0 16.875,9.3515625 0,9.3515625 0,0" stroke="none" fill="#3F5B73"></polygon></g></g><g transform="translate(3.492187499999999 0.0)"><g clip-path="url(#i4)"><polygon points="0,0 9.703125,0 9.703125,4.875 0,4.875 0,0" stroke="none" fill="#F3CC53"></polygon></g></g><g transform="translate(2.390625 11.25)"><g clip-path="url(#i5)"><polygon points="0,0 12.1171875,0 12.1171875,5.53125 0,5.53125 0,0" stroke="none" fill="#F3CC53"></polygon></g></g></g></g></g></g></g></svg>