<?xml version="1.0" encoding="UTF-8"?><svg version="1.1" width="30px" height="30px" viewBox="0 0 30.0 30.0" xmlns="http://www.w3.org/2000/svg" xmlns:xlink="http://www.w3.org/1999/xlink"><defs><clipPath id="i0"><path d="M2655,0 L2655,1581 L0,1581 L0,0 L2655,0 Z"></path></clipPath><clipPath id="i1"><path d="M15,0 C23.2842712,0 30,6.71572875 30,15 C30,23.2842712 23.2842712,30 15,30 C6.71572875,30 0,23.2842712 0,15 C0,6.71572875 6.71572875,0 15,0 Z"></path></clipPath><clipPath id="i2"><path d="M8.48368991,0.000755860851 C8.49390721,0.00165234698 8.49650878,0.00203906648 8.49907519,0.00239062967 C8.5055088,0.00323438132 8.51190725,0.00418360192 8.5183057,0.00551954203 L8.54414559,0.0122343989 C8.55332139,0.015222686 8.56105578,0.0180703478 8.56871986,0.0212695728 L8.58946648,0.0310650021 L8.60953635,0.0427149272 C8.64694267,0.0669727871 8.67608726,0.098965037 8.69661855,0.135246358 L15.8164762,11.170182 C15.8231559,11.1816429 15.8260036,11.1863539 15.8286051,11.1913812 C15.8302926,11.1945453 15.8317692,11.1979203 15.8333512,11.2011898 L15.8395739,11.2150414 C15.8411559,11.2189438 15.8424567,11.2228461 15.843863,11.2267485 C15.8453747,11.2310024 15.8468864,11.2352212 15.848152,11.2395454 C15.8494528,11.2440806 15.8505778,11.2485806 15.8516325,11.2531157 C15.8525466,11.2569829 15.8534958,11.2607446 15.8542341,11.2647173 L15.8566247,11.2802213 C15.8570818,11.2837017 15.8575739,11.2871119 15.8578903,11.2905924 C15.8583825,11.2963228 15.8585935,11.3020885 15.8587341,11.3077838 L15.8590857,11.317276 C15.8590857,11.3227604 15.8585583,11.3282799 15.8581716,11.3337643 C15.8579607,11.3373151 15.8578552,11.3408659 15.8574685,11.3444167 L15.8555349,11.3569675 L15.8532497,11.3707488 C15.8498396,11.3843191 15.8484333,11.3903308 15.84657,11.3960965 C15.8430192,11.4063973 15.8405583,11.4134285 15.8376403,11.4201786 C15.8324372,11.4313231 15.829695,11.4373348 15.8265661,11.4431005 C15.8238942,11.4479169 15.8208356,11.4525927 15.8178825,11.4573388 L15.8073971,11.4731064 L15.8010777,11.4812099 C15.794398,11.4897529 15.7903902,11.4939014 15.7864176,11.498085 L15.7756377,11.5090889 C15.7673277,11.5165069 15.7639878,11.5196358 15.760437,11.5225538 L15.7526323,11.5283897 L15.7385346,11.5384796 C15.724894,11.5469522 15.7156127,11.5520499 15.7059447,11.5565851 L15.6683275,11.5712101 C15.6527884,11.5753234 15.6440696,11.5771164 15.6352102,11.5785929 L15.6251907,11.5801398 C15.6151711,11.5814406 15.6050109,11.5821789 15.5946398,11.5823195 L0.265113799,11.5823195 C0.254145028,11.5822492 0.243352038,11.5813703 0.23273483,11.579964 C0.229465292,11.579507 0.226160598,11.5789796 0.22289106,11.5784171 L0.207268471,11.5753981 L0.191988656,11.5714562 C0.17715269,11.567132 0.166148762,11.5626671 0.155390928,11.5576398 C0.137320581,11.5487804 0.12663306,11.5427335 0.11650804,11.5357725 C0.105293174,11.5274756 0.100441602,11.5239249 0.0958009684,11.5200225 L0.0862032934,11.5113389 C0.0830392247,11.5084912 0.0798399997,11.5056436 0.0768517126,11.502585 L0.0667266928,11.4914404 C0.0643360632,11.4886982 0.0619102772,11.4861318 0.0596251165,11.4832841 C0.0564610478,11.4793466 0.0535430733,11.4752685 0.0506250989,11.4712255 C0.0484805634,11.4682021 0.0462657154,11.4652841 0.0442266489,11.4621552 C0.0416602376,11.4583232 0.0393399206,11.4543505 0.0370196036,11.4503075 C0.0349453808,11.4467567 0.0328008453,11.4431708 0.0308320915,11.4395145 C0.0289336503,11.4358934 0.0272813033,11.432202 0.0255586437,11.4285106 L0.0197226948,11.4155731 C0.0183867547,11.4123035 0.0172265961,11.4088934 0.0160312813,11.4055535 C0.0142734654,11.4006668 0.0125859621,11.3958855 0.0110742404,11.3909285 C0.0100898635,11.3875886 0.00931642445,11.3841785 0.0084726728,11.3807683 C0.00720704533,11.3758113 0.00590626154,11.3708894 0.00495704093,11.3657917 C0.00418360192,11.3617488 0.00369141346,11.3577058 0.00309375604,11.3535925 C0.00242578599,11.3491276 0.0016875033,11.3447683 0.00126562747,11.3403034 C0.000703126373,11.3344323 0.000562501099,11.3285963 0.000386719505,11.3227604 L0.000342774107,11.3018819 L0.00126562747,11.2895728 C0.00316406868,11.2702017 0.00667970055,11.2527993 0.0119531483,11.2357485 C0.0172265961,11.218768 0.0241875472,11.2024906 0.0325899074,11.1870922 C0.0377578862,11.1779515 0.0419414882,11.1710609 0.0464766533,11.1644515 L3.96570306,5.46350286 C3.96869135,5.45917863 3.970414,5.45717472 3.97199604,5.45499503 C3.9754062,5.45042471 3.97881636,5.44574892 3.98250778,5.44128407 C3.98532028,5.43794421 3.98834373,5.4348153 3.99129686,5.43161608 C3.99417968,5.42845201 3.99699218,5.42525278 4.00001563,5.4222645 L4.01087893,5.41245588 C4.01369143,5.40995979 4.01643363,5.40735822 4.01938676,5.40500274 C4.02311333,5.40194414 4.02705083,5.39923711 4.03091803,5.39638945 L4.04055086,5.38956912 C4.04417196,5.38721365 4.04796884,5.38506911 4.05166026,5.38281911 L4.063297,5.37610425 C4.06653138,5.37441675 4.06994154,5.37290503 4.07324624,5.37135815 L4.08723845,5.36503001 C4.10130098,5.35989719 4.10650411,5.3580339 4.11184787,5.35648702 L4.13691433,5.35040498 C4.14046512,5.34973701 4.14405106,5.34935029 4.14760185,5.34878779 C4.15248858,5.3479792 4.15737531,5.34724091 4.1623675,5.34674872 C4.1676058,5.34629169 4.17287924,5.34615107 4.17815269,5.34594013 L4.85659933,5.34551825 L8.23114889,0.135246358 C8.25175049,0.0988947244 8.28107086,0.0667266928 8.31861781,0.0425039893 C8.33921941,0.0291797445 8.36105149,0.0193711316 8.38337575,0.0123398679 L8.39513554,0.00893409948 L8.40678986,0.00615235577 C8.41614144,0.0041484456 8.42306723,0.00298828709 8.43002818,0.00217969176 C8.44173524,0.000843751648 8.44739541,0.000492188461 8.45305557,0.000281250549 L8.48368991,0.000755860851 Z"></path></clipPath><clipPath id="i3"><path d="M0.267293491,0 C0.414914873,0 0.534586982,0.119636952 0.534586982,0.267293491 L0.534586982,4.46506341 L0.500344727,4.41204768 C0.479813437,4.37576636 0.450633693,4.34373895 0.413262526,4.31951625 C0.400114063,4.31100842 0.386438255,4.30404747 0.372516353,4.29814121 L0.360897189,4.29353573 L0.34924287,4.28952791 C0.340629572,4.28675056 0.333317057,4.28488728 0.325969387,4.28319977 C0.315633429,4.28102008 0.309199823,4.28000055 0.302801373,4.27919195 C0.289969316,4.27771539 0.284836494,4.27736382 0.279738828,4.27715289 C0.275625538,4.27694195 0.271547405,4.27680132 0.26739896,4.27680132 L0.256781752,4.27708257 C0.251086428,4.27729351 0.245426261,4.27760992 0.239766093,4.27824273 C0.226793412,4.27982477 0.219867617,4.28091461 0.212941822,4.28239118 C0.20274649,4.28460602 0.194976943,4.28664509 0.187312866,4.28907088 L0.154090145,4.30188975 L0.122343989,4.31930531 C0.0847618843,4.34356317 0.0554766709,4.37569605 0.0348750681,4.41204768 L0,4.46597747 L0,0.267293491 C0,0.119636952 0.119672109,0 0.267293491,0 Z"></path></clipPath><clipPath id="i4"><path d="M2.22796138,0 C2.37558276,0 2.49525487,0.119672109 2.49521972,0.267293491 L2.49521972,1.33646745 C2.49521972,1.48412399 2.37554761,1.60376094 2.22792623,1.60376094 L0,1.60376094 L0,0 Z"></path></clipPath><clipPath id="i5"><path d="M3.84698017,0.000505372081 L3.85808957,0.00130078379 C3.87274975,0.00326953764 3.87837476,0.00400782033 3.88399977,0.00509766621 L3.89577714,0.00794532802 L3.91626448,0.013790066 L3.93381628,0.0201797269 C3.93940613,0.0224648876 3.94474989,0.0251367678 3.95009365,0.0277734917 L3.96741253,0.036900951 L3.97698824,0.0428907088 C3.98785154,0.0500274415 3.99498827,0.0553008893 4.00187891,0.0609962129 C4.00535939,0.0638438747 4.00852345,0.0669727871 4.01182815,0.0699610741 L4.02096879,0.0783634343 C4.02529302,0.0826525052 4.02923053,0.0872579829 4.03323835,0.0918634607 L4.04849619,0.111129123 L4.06139856,0.130851818 C4.06340247,0.134261981 4.065547,0.137601831 4.06744544,0.141082307 C4.06923842,0.144422157 4.07071498,0.147902633 4.07236733,0.151312796 C4.07451186,0.155742492 4.07676187,0.160207344 4.07869547,0.164883135 C4.08368766,0.178312848 4.08576189,0.18383239 4.08748455,0.189457401 L4.09381268,0.214594169 C4.09455097,0.218144957 4.09490253,0.221766058 4.09546503,0.225387159 C4.09623847,0.2303442 4.09722285,0.235125459 4.09771503,0.240152813 L4.09912129,0.266871615 C4.09884004,0.278438044 4.09852363,0.286031809 4.09778535,0.293625573 C4.09585175,0.307863883 4.09504315,0.313734988 4.09391815,0.319570937 C4.09314471,0.323367819 4.09209002,0.327059233 4.09117596,0.330750646 L4.08530925,0.351615921 C4.08147282,0.362004613 4.08031266,0.365696027 4.07880094,0.369317128 C4.07651577,0.374801513 4.07387905,0.38018043 4.07124233,0.385453878 C4.0638595,0.400008594 4.05978137,0.406723451 4.05542198,0.413367995 L3.79628476,0.801845316 L4.05306651,1.1864906 L4.06758607,1.21064299 L4.07515347,1.2262524 C4.08031266,1.23795945 4.08150797,1.24175633 4.08287907,1.2454829 C4.08449626,1.24987744 4.08614861,1.25423682 4.08755486,1.25877199 C4.08896111,1.26344778 4.09005096,1.2682642 4.09121112,1.2730103 C4.09209002,1.27670171 4.09317987,1.28032281 4.093883,1.28401423 C4.09504315,1.28992049 4.09581659,1.29586191 4.09659003,1.30176817 C4.09855879,1.31762367 4.09884004,1.32528774 4.09894551,1.33295182 L4.09876533,1.34999385 L4.09775019,1.36329173 L4.09553534,1.37791675 C4.09493769,1.38160817 4.09455097,1.38522927 4.09384784,1.38885037 L4.0917033,1.398158 C4.08860955,1.40955744 4.08818767,1.41177229 4.0875197,1.41402229 L4.08157828,1.43079186 L4.07229702,1.45244815 C4.07067983,1.45575284 4.06923842,1.45912785 4.06751576,1.46232707 C4.065547,1.46601849 4.06333215,1.46949896 4.06118762,1.47304975 C4.05883215,1.47702242 4.05654699,1.48110055 4.05398057,1.48489743 C4.04498056,1.49730761 4.04185164,1.50173731 4.03844148,1.50592091 L4.0268399,1.51899027 L4.00750392,1.5375616 L3.98032809,1.55865539 C3.96999213,1.56554603 3.95941008,1.57134682 3.94854677,1.57662027 C3.93153112,1.58456559 3.92063266,1.58881951 3.90938264,1.59222967 C3.89489823,1.59620234 3.88540603,1.59827656 3.87573804,1.59989375 L3.86582396,1.60137032 C3.85545284,1.60270626 3.84497626,1.60358516 3.83428874,1.60365548 L0.25407911,1.60345772 L0.240609845,1.60238985 C0.226934037,1.60056172 0.220957463,1.59975312 0.215051201,1.59859297 C0.210656661,1.59774921 0.206437903,1.5965539 0.202113676,1.59546405 L0.18994959,1.59233514 C0.185062861,1.59085858 0.180316758,1.5890656 0.175535499,1.58730779 L0.165515948,1.58361637 C0.160347969,1.58147184 0.155355772,1.5790109 0.150328419,1.57658511 C0.13637136,1.56955385 0.130816662,1.56614368 0.125332276,1.56266321 C0.0476368118,1.51147561 0,1.42956139 0,1.33650261 C0,1.26088137 0.0314649052,1.19281874 0.0818439099,1.1442327 L0.335039717,0.891036897 L0.623919187,0.891036897 C0.771540569,0.891036897 0.891212678,0.771399944 0.891212678,0.623743406 L0.891212678,0 L3.84698017,0.000505372081 Z"></path></clipPath></defs><g transform="translate(-1653.0 -701.0)"><g clip-path="url(#i0)"><g transform="translate(1653.0 701.0)"><g clip-path="url(#i1)"><polygon points="0,0 30,0 30,30 0,30 0,0" stroke="none" fill="#FFFFFF"></polygon><g transform="translate(7.0 7.000000000000001)"><g transform="translate(0.0 4.276871634514463)"><g clip-path="url(#i2)"><polygon points="0,0 15.8590857,0 15.8590857,11.5824601 0,11.5824601 0,0" stroke="none" fill="#3F5B73"></polygon></g></g><g transform="translate(8.196344133484672 0.0)"><g clip-path="url(#i3)"><polygon points="0,0 0.534586982,0 0.534586982,4.46597747 0,4.46597747 0,0" stroke="none" fill="#F3CC53"></polygon></g></g><g transform="translate(8.730825646143785 0.35641475862212246)"><g clip-path="url(#i4)"><polygon points="0,0 2.49521973,0 2.49521973,1.60376094 0,1.60376094 0,0" stroke="none" fill="#F3CC53"></polygon></g></g><g transform="translate(10.33486784153865 1.069244275868186)"><g clip-path="url(#i5)"><polygon points="0,0 4.09912129,0 4.09912129,1.60386641 0,1.60386641 0,0" stroke="none" fill="#F3CC53"></polygon></g></g></g></g></g></g></g></svg>