<?xml version="1.0" encoding="UTF-8"?><svg version="1.1" width="30px" height="30px" viewBox="0 0 30.0 30.0" xmlns="http://www.w3.org/2000/svg" xmlns:xlink="http://www.w3.org/1999/xlink"><defs><clipPath id="i0"><path d="M2655,0 L2655,1581 L0,1581 L0,0 L2655,0 Z"></path></clipPath><clipPath id="i1"><path d="M15,0 C23.2842712,0 30,6.71572875 30,15 C30,23.2842712 23.2842712,30 15,30 C6.71572875,30 0,23.2842712 0,15 C0,6.71572875 6.71572875,0 15,0 Z"></path></clipPath><clipPath id="i2"><path d="M0.207487949,1.89812136 C-0.323980122,0.835185221 0.207487949,-1.23739083 1.32350686,0.994646989 C2.43952576,3.2266848 5.46873011,3.49238326 5.46873011,3.49238326 C5.46873011,3.49238326 8.17908207,5.4055687 5.46873011,5.67133831 C2.75837814,5.93703677 0.73895602,2.96098635 0.207487949,1.89812136 Z"></path></clipPath><clipPath id="i3"><path d="M0.318303279,0 C0.318303279,0 0.849700194,1.02116726 1.27486042,0.755468805 C1.70002064,0.489699192 2.68319032,0.463157809 2.68319032,0.463157809 C2.68319032,0.463157809 3.45381547,1.57917672 2.68319032,1.65894318 C1.91263634,1.73863848 0.397998585,1.10093372 0.0942313883,0.569465654 C-0.209535809,0.0380687398 0.318303279,0 0.318303279,0 Z"></path></clipPath><clipPath id="i4"><path d="M0.67534656,0 C0.67534656,0 1.44590055,1.11601891 0.67534656,1.19564306 C0.48564327,1.21528226 0.250755587,1.19130251 0,1.13622736 L0,0.0657486273 C0.354430641,0.00875225234 0.67534656,0 0.67534656,0 Z"></path></clipPath><clipPath id="i5"><path d="M6.1469274,0 C6.1469274,0 10.150478,2.76350589 7.01503698,3.24182003 C3.87952479,3.72006303 4.03898656,6.74926737 3.50751849,7.22758152 C2.97605042,7.70589567 0,6.90872914 0,5.69622198 C0,4.48371483 1.43487129,5.52694062 2.07257605,5.68640238 C2.71028081,5.84586415 2.07257605,4.03898656 2.81025572,2.0726472 C3.54800655,0.106307845 6.1469274,0 6.1469274,0 Z"></path></clipPath><clipPath id="i6"><path d="M0.0319492789,0 C0.0319492789,0 4.03549989,2.76350589 0.899987704,3.24182003 C0.563630819,3.29312389 0.265413831,3.37388654 0,3.47763275 L0,0.0018500696 C0.0205642352,0.000498095661 0.0319492789,0 0.0319492789,0 Z"></path></clipPath><clipPath id="i7"><path d="M9.90628382,0.156633811 C9.90628382,0.156633811 10.7566043,-0.321680337 10.9159949,0.475486191 C11.0754567,1.27265272 10.6502964,0.983970705 10.6502964,1.71289813 C10.6502964,2.44182555 10.7923248,3.77038899 10.4290708,5.09902359 C10.0658167,6.42765819 11.0223739,12.3266051 11.7132326,13.442624 C12.4040913,14.5586429 10.916066,13.8677842 11.1552231,15.0369571 C11.2482286,15.4916354 11.4416912,16.0025739 11.6340375,16.485383 L11.7962633,16.8903621 C12.0320849,17.4815928 12.2180881,17.9864661 12.1383928,18.2256232 C11.978931,18.7039373 9.91354179,20.1919625 9.29882059,19.9793469 C8.68402823,19.7668023 8.37243381,18.6507834 9.29882059,18.3850138 C10.2252074,18.1193153 10.2324653,18.0130075 9.29882059,17.5346933 C8.36517585,17.0563792 5.86743957,12.6986114 5.60174112,10.4134197 C5.60174112,10.4134197 3.15715877,10.8917338 1.98798594,10.4665736 C0.818813105,10.0414134 -0.403513648,8.18138186 0.127954422,7.80937555 C0.659422493,7.43736925 0.712505259,7.06536295 2.09429378,8.44708031 C3.4760823,9.82879768 4.80464574,7.54360594 5.60181227,6.05558073 C6.3989788,4.56755552 7.83385009,4.08924137 8.09954855,3.82354291 C8.365247,3.55784446 6.29267096,3.71723507 6.29267096,3.71723507 L6.29267096,3.23892092 L6.30383777,3.23919643 L6.45205923,3.2391974 C6.86724003,3.23217638 7.93250691,3.16048271 7.67438832,2.60121616 C7.35553594,1.91035748 6.71491376,2.01666532 6.07863213,1.43204333 C5.4423505,0.847492494 5.49258701,0.688030725 6.07863213,0.58172288 C6.66467726,0.475415035 7.35553594,0.0845522533 8.09954855,0.0142496085 C8.84356115,-0.0560530363 9.90628382,0.156633811 9.90628382,0.156633811 Z"></path></clipPath><clipPath id="i8"><path d="M0.99419894,0.0142312004 C1.73821155,-0.0560002879 2.80107653,0.156544247 2.80107653,0.156544247 C2.80107653,0.156544247 3.65132582,-0.321769902 3.81078759,0.475396626 C3.97024936,1.27256315 3.54508914,0.98388114 3.54508914,1.71280856 C3.54508914,2.44173598 3.68718871,3.77029943 3.32386351,5.09893403 C2.9605383,6.42756862 3.91716659,12.3264444 4.60802528,13.4425345 C5.29888396,14.5584822 3.81085875,13.8676235 4.05001582,15.0367964 C4.28910174,16.2059692 5.19257611,17.7470772 5.03311435,18.2254625 C4.87372373,18.7037766 2.8083345,20.1917307 2.19354214,19.9791861 C1.57874978,19.7665704 1.26715536,18.6506227 2.19354214,18.3848531 C3.11992891,18.1190835 3.12718688,18.0128468 2.19354214,17.5345326 C1.70761424,17.2856271 0.798091563,15.9857397 0,14.4741617 L0,4.4436536 C0.467782983,4.12871483 0.866401825,3.95125047 0.99419894,3.82345335 C1.14441036,3.67324193 0.547407132,3.65886831 0,3.67480737 L0,3.17863294 C0.384387538,3.10534172 0.728144701,2.94587995 0.569038715,2.6011266 C0.430923904,2.30184226 0.232397204,2.15220009 0,2.03116285 L0,0.258155761 C0.316646528,0.148218933 0.649587899,0.0468208879 0.99419894,0.0142312004 Z"></path></clipPath></defs><g transform="translate(-1504.0 -208.0)"><g clip-path="url(#i0)"><g transform="translate(1504.0 208.0)"><g clip-path="url(#i1)"><polygon points="0,0 30,0 30,30 0,30 0,0" stroke="none" fill="#FFFFFF"></polygon><g transform="translate(9.0 5.0)"><g transform="translate(1.198508784083613 1.7129481738104038)"><g clip-path="url(#i2)"><polygon points="4.4408921e-16,-2.22044605e-16 6.67333098,-2.22044605e-16 6.67333098,5.68804443 4.4408921e-16,5.68804443 4.4408921e-16,-2.22044605e-16" stroke="none" fill="#3F5B73"></polygon></g></g><g transform="translate(5.097363528781045 1.712969283719773)"><g clip-path="url(#i3)"><polygon points="5.55111512e-16,0 3.02569039,0 3.02569039,1.6657315 5.55111512e-16,1.6657315 5.55111512e-16,0" stroke="none" fill="#F3CC53"></polygon></g></g><g transform="translate(7.105207292024205 2.176127092377584)"><g clip-path="url(#i4)"><polygon points="0,0 1.017815,0 1.017815,1.20242519 0,1.20242519 0,0" stroke="none" fill="#F3CC53"></polygon></g></g><g transform="translate(0.9902291690361746 12.007752728308212)"><g clip-path="url(#i5)"><polygon points="0,0 8.21434106,0 8.21434106,7.36839779 0,7.36839779 0,0" stroke="none" fill="#3F5B73"></polygon></g></g><g transform="translate(7.105207292024204 12.00775272830821)"><g clip-path="url(#i6)"><polygon points="0,0 2.09933653,0 2.09933653,3.47763275 0,3.47763275 0,0" stroke="none" fill="#3F5B73"></polygon></g></g><g clip-path="url(#i7)"><polygon points="6.66133815e-16,2.61943245e-16 12.1571253,2.61943245e-16 12.1571253,20 6.66133815e-16,20 6.66133815e-16,2.61943245e-16" stroke="none" fill="#3F5B73"></polygon></g><g transform="translate(7.105207292024204 0.00016072116855170293)"><g clip-path="url(#i8)"><polygon points="0,-4.71844785e-16 5.05186135,-4.71844785e-16 5.05186135,19.999827 0,19.999827 0,-4.71844785e-16" stroke="none" fill="#3F5B73"></polygon></g></g></g></g></g></g></g></svg>