<?xml version="1.0" encoding="UTF-8"?><svg version="1.1" width="30px" height="30px" viewBox="0 0 30.0 30.0" xmlns="http://www.w3.org/2000/svg" xmlns:xlink="http://www.w3.org/1999/xlink"><defs><clipPath id="i0"><path d="M2655,0 L2655,1581 L0,1581 L0,0 L2655,0 Z"></path></clipPath><clipPath id="i1"><path d="M15,0 C23.2842712,0 30,6.71572875 30,15 C30,23.2842712 23.2842712,30 15,30 C6.71572875,30 0,23.2842712 0,15 C0,6.71572875 6.71572875,0 15,0 Z"></path></clipPath><clipPath id="i2"><path d="M1.45228682,0 L2.57096756,1.11868071 C4.01003648,2.55774963 4.01003648,4.90003032 2.57096756,6.33909924 L2.19798244,6.71194705 L1.07930169,5.5932663 C-0.35976723,4.15419738 -0.35976723,1.81191669 1.07930169,0.372847809 L1.45228682,0 Z"></path></clipPath><clipPath id="i3"><path d="M6.41435545,0.923988038 L8.6517169,3.16134949 L7.90588396,3.90718243 L5.66865986,1.66982098 C4.84825736,0.849555825 3.50586794,0.849418469 2.68546547,1.66982098 L0.745832937,3.60959083 L0,2.86375789 L1.93976985,0.923988038 C2.39460297,0.469154921 2.9613591,0.185708196 3.55063716,0.0589536679 C4.54997912,-0.134954654 5.63872216,0.148492071 6.41435545,0.923988038 Z"></path></clipPath><clipPath id="i4"><path d="M4.49992276,0.771032757 C5.52796647,1.79893911 5.52796647,3.47187906 4.49992276,4.49978541 C3.47187905,5.52782909 1.79893914,5.52782909 0.771032784,4.49978541 C-0.257010928,3.47187906 -0.257010928,1.79893911 0.771032784,0.771032757 C1.79907646,-0.257010919 3.47187905,-0.257010919 4.49992276,0.771032757 Z"></path></clipPath><clipPath id="i5"><path d="M4.49981974,0.771032784 C5.52786342,1.7990765 5.52786342,3.47187908 4.49981974,4.49992276 C3.47191339,5.52796647 1.79897344,5.52796647 0.770929767,4.49992276 C-0.256976589,3.47187908 -0.256976589,1.7990765 0.770929767,0.771032784 C1.79897344,-0.257010928 3.47191339,-0.257010928 4.49981974,0.771032784 Z"></path></clipPath><clipPath id="i6"><path d="M0.77195972,0.77185673 C1.80110206,-0.257285577 3.47157007,-0.257285577 4.50084973,0.77185673 C5.52999204,1.80113639 5.52999204,3.4716044 4.50084973,4.50074674 C3.47157007,5.52988905 1.80110206,5.52988905 0.77195972,4.50074674 C-0.257319907,3.4716044 -0.257319907,1.80113639 0.77195972,0.77185673 Z"></path></clipPath><clipPath id="i7"><path d="M4.50074674,0.771856757 C5.11227206,1.38338207 5.35081224,2.21861606 5.23161081,3.02404973 C6.03704448,2.90471098 6.87227847,3.14338848 7.48380378,3.7549138 C8.51294612,4.78405614 8.51294612,6.45466146 7.48380378,7.48380381 C6.45466147,8.51294611 4.78405611,8.51294611 3.7549138,7.48380381 C3.14338849,6.87227846 2.90471095,6.03704447 3.0240497,5.23161084 C2.21861607,5.35094959 1.38338208,5.11227205 0.77185673,4.50074673 C-0.257285577,3.47160443 -0.257285577,1.80099906 0.77185673,0.771856757 C1.80099907,-0.257285586 3.47146708,-0.257285586 4.50074674,0.771856757 Z"></path></clipPath><clipPath id="i8"><path d="M4.48952045,0.760630444 C5.5186628,1.78977279 5.5186628,3.46037811 4.48952045,4.48952046 C3.46037815,5.51866276 1.78977278,5.51866276 0.760630477,4.48952046 C0.149105162,3.87799511 -0.0895723787,3.04276112 0.0297663742,2.23732748 L2.23732748,0.0297663768 C3.04276115,-0.0895723761 3.87799514,0.14910513 4.48952045,0.760630444 Z"></path></clipPath><clipPath id="i9"><path d="M0.77185673,0.771856757 C1.80099907,-0.257285586 3.4716044,-0.257285586 4.50074671,0.771856757 C5.52988905,1.80099906 5.52988905,3.47160439 4.50074671,4.50074673 C3.4716044,5.52988904 1.80099907,5.52988904 0.77185673,4.50074673 C-0.257285577,3.47160439 -0.257285577,1.80099906 0.77185673,0.771856757 Z"></path></clipPath></defs><g transform="translate(-1504.0 -610.0)"><g clip-path="url(#i0)"><g transform="translate(1504.0 610.0)"><g clip-path="url(#i1)"><polygon points="0,0 30,0 30,30 0,30 0,0" stroke="none" fill="#FFFFFF"></polygon><g transform="translate(6.0 6.0)"><g transform="translate(9.835766131510384 0.0)"><g clip-path="url(#i2)"><polygon points="-1.11022302e-15,0 3.65026925,0 3.65026925,6.71194705 -1.11022302e-15,6.71194705 -1.11022302e-15,0" stroke="none" fill="#F3CC53"></polygon></g></g><g transform="translate(9.348283098122465 5.042126074398766)"><g clip-path="url(#i3)"><polygon points="0,-7.63278329e-17 8.6517169,-7.63278329e-17 8.6517169,3.90718243 0,3.90718243 0,-7.63278329e-17" stroke="none" fill="#F3CC53"></polygon></g></g><g transform="translate(2.9839840105187254 3.778946359967449)"><g clip-path="url(#i4)"><polygon points="-1.11022302e-16,-1.11022302e-16 5.27095554,-1.11022302e-16 5.27095554,5.27081817 -1.11022302e-16,5.27081817 -1.11022302e-16,-1.11022302e-16" stroke="none" fill="#3F5B73"></polygon></g></g><g transform="translate(8.95020113938699 9.745060446064599)"><g clip-path="url(#i5)"><polygon points="-3.33066907e-16,5.55111512e-16 5.2708525,5.55111512e-16 5.2708525,5.27095554 -3.33066907e-16,5.27095554 -3.33066907e-16,5.55111512e-16" stroke="none" fill="#3F5B73"></polygon></g></g><g transform="translate(0.0 12.72729353804607)"><g clip-path="url(#i6)"><polygon points="0,-5.55111512e-16 5.27270646,-5.55111512e-16 5.27270646,5.27260347 0,5.27260347 0,-5.55111512e-16" stroke="none" fill="#3F5B73"></polygon></g></g><g transform="translate(1.4916315093646517 8.252707953699428)"><g clip-path="url(#i7)"><polygon points="0,4.4408921e-16 8.25566054,4.4408921e-16 8.25566054,8.25566054 0,8.25566054 0,4.4408921e-16" stroke="none" fill="#3F5B73"></polygon></g></g><g transform="translate(4.485914836870881 11.24699130498482)"><g clip-path="url(#i8)"><polygon points="-2.22044605e-16,-8.91647867e-16 5.26137721,-8.91647867e-16 5.26137721,5.26137719 -2.22044605e-16,5.26137719 -2.22044605e-16,-8.91647867e-16" stroke="none" fill="#3F5B73"></polygon></g></g><g transform="translate(5.966217102501082 6.761179434372231)"><g clip-path="url(#i9)"><polygon points="4.4408921e-16,5.55111512e-16 5.27260346,5.55111512e-16 5.27260346,5.27260346 4.4408921e-16,5.27260346 4.4408921e-16,5.55111512e-16" stroke="none" fill="#3F5B73"></polygon></g></g></g></g></g></g></g></svg>