<?xml version="1.0" encoding="UTF-8"?>
<svg id="Ebene_1" data-name="Ebene 1" xmlns="http://www.w3.org/2000/svg" viewBox="22.72 12.53 133.98 133.98" width="30px" height="30px">
  <defs>
    <style>
      .cls-1 {
        fill: #11273c;
      }

      .cls-1, .cls-2, .cls-3 {
        stroke-width: 0px;
      }

      .cls-2 {
        fill: #fff;
      }

      .cls-3 {
        fill: #fdc745;
      }
    </style>
  </defs>
  <circle class="cls-2" cx="89.71" cy="79.52" r="66.99"/>
  <path class="cls-1" d="m88.8,51.34c-7.91.08-12.96,4.98-12.97,12.6-.01,7.11,0,14.22,0,21.33.01,0,.02,0,.04,0,0,7.01,0,14.02,0,21.03,0,.2,0,.41,0,.61.17,7.64,5.08,12.43,12.76,12.46,8.14.03,13.43-4.73,13.47-12.4.08-14.42.08-28.85,0-43.27-.05-7.5-5.48-12.43-13.28-12.35Z"/>
  <g>
    <path class="cls-1" d="m60.75,52.96c-2.22.13-3.77.22-6.01.35,4.22,4.52,7.93,8.51,11.65,12.49,1.45,1.56,2.93,3.09,4.37,4.66q2.65,2.87,2.36,7.35c-2.48-2.5-4.84-4.76-7.08-7.14-5.16-5.45-10.29-10.93-15.35-16.47-.74-.81-1.92-2.64-2.4-3.67,1.04-.42,2.98-.48,4.05-.6,2.61-.3,5.26-.35,7.89-.5,3.46-.2,3.79.14,3.84,3.71.01.89.07,1.77.12,2.81.85.1,1.54.17,2.22.26,4.21.55,4.05.56,4.27,4.77.06,1.21,2.14,1.45,2.86,2.62.26-.11-.26.66,0,.55-.1.97-.2,1.95-.3,2.92q-5.94-.38-6.42-7.29c-4.38.35-7.67-.8-6.07-6.81Z"/>
    <path class="cls-1" d="m104.37,107.08c-.69-2.56-.07-4.53,2.05-6.37,3.14-2.72,6.2-5.6,8.85-8.78,1.79-2.15,2.82-4.94,4.18-7.45-.3-.21-.61-.41-.91-.62-4.58,4.37-9.16,8.73-13.79,13.15-1.07-3.3-.96-3.9,1.12-5.9,4.75-4.58,9.48-9.18,14.31-13.68.68-.63,1.88-.71,2.84-1.04.26.91.82,1.86.74,2.74-.54,5.89-2.38,11.34-6.32,15.84-3.87,4.42-7.91,8.69-11.88,13.03-.39-.31-.79-.62-1.18-.92Z"/>
    <path class="cls-1" d="m104.37,75.48c-1.04-3.98.37-6.86,3.61-9.21,2.79-2.02,5.28-4.45,8.01-6.55.68-.52,1.79-.49,2.7-.71.19.9.73,1.89.52,2.7-2.59,10.3-7.87,19.17-14.87,27.53-.38-3.09-.28-5.6,1.57-8.13,3.14-4.28,6.74-8.4,6.9-14.56-2.8,2.97-5.6,5.94-8.44,8.95Z"/>
    <path class="cls-1" d="m74.15,106.4c-.9-1.69-2.58-3.39-3.57-5.26-.52.07-1.21.13-1.89.25-3.19.55-5.44-.64-6.31-3.73-.48-1.71-1.05-2.32-2.92-1.99-3.6.64-5.26-.49-6.48-3.87-.3-.84-1.01-1.58-1.13-2.42-.14-.95-.16-2.47.38-2.84.64-.43,2.07-.14,2.9.3.7.38,1.12,1.38,1.52,2.19.35.71.5,1.53.72,2.25q7.47.42,9.37,5.65c8.14.52,8.92.52,7.4,9.47Z"/>
  </g>
  <rect class="cls-3" x="87.07" y="100.18" width="4.22" height="11.34"/>
  <rect class="cls-3" x="86.87" y="100.18" width="4.22" height="11.34" transform="translate(194.83 16.87) rotate(90)"/>
</svg>