<?xml version="1.0" encoding="UTF-8"?><svg version="1.1" width="30px" height="30px" viewBox="0 0 30.0 30.0" xmlns="http://www.w3.org/2000/svg" xmlns:xlink="http://www.w3.org/1999/xlink"><defs><clipPath id="i0"><path d="M2655,0 L2655,1581 L0,1581 L0,0 L2655,0 Z"></path></clipPath><clipPath id="i1"><path d="M15,0 C23.2842712,0 30,6.71572875 30,15 C30,23.2842712 23.2842712,30 15,30 C6.71572875,30 0,23.2842712 0,15 C0,6.71572875 6.71572875,0 15,0 Z"></path></clipPath><clipPath id="i2"><path d="M3.2855,0.00367104155 C3.89753125,-0.0343289585 4.49215625,0.224327292 4.8753125,0.703139792 L5.388,1.34492104 L5.52259375,4.34554604 L0,3.86307729 L1.80325,0.909577292 C2.119125,0.383608542 2.673,0.0448585415 3.2855,0.00367104155 Z"></path></clipPath><clipPath id="i3"><path d="M1.96793144,0.000605254084 L2.13375,0.00367092369 C2.74625,0.0448584237 3.30015625,0.383608424 3.616,0.909577174 L5.388,3.86304592 L4.98653125,4.57304592 L0.80290625,4.34554592 L0,1.34488967 L0.5126875,0.703577174 C0.89628125,0.224327174 1.52721875,-0.0343290763 2.13375,0.00367092369 Z"></path></clipPath><clipPath id="i4"><path d="M3.90934375,0 C4.37809375,0 4.84684375,0.20625 5.1,0.61875 L7.8499375,4.92809375 L0,4.92809375 L2.7186875,0.61875 C2.97184375,0.20625 3.44059375,0 3.90934375,0 Z"></path></clipPath><clipPath id="i5"><path d="M13.7248005,0 C13.9779568,0.03746875 14.1560818,0.28121875 14.1279255,0.534375 L13.7248005,3.78125 L12.8435505,4.71875 L1.36539427,4.71875 L0.406019271,3.78125 L0.00292552123,0.534375 C-0.0252307288,0.28121875 0.152894271,0.03746875 0.406050521,0 L13.7248005,0 Z"></path></clipPath><clipPath id="i6"><path d="M1.875,0 C2.90621875,0 3.75,0.8436875 3.75,1.875 C3.75,2.90621875 2.90621875,3.75 1.875,3.75 C0.84378125,3.75 0,2.90621875 0,1.875 C0,0.84371875 0.84378125,0 1.875,0 Z"></path></clipPath><clipPath id="i7"><path d="M0,0 C1.03121875,0 1.875,0.8436875 1.875,1.875 C1.875,2.90621875 1.03121875,3.75 0,3.75 L0,0 Z"></path></clipPath><clipPath id="i8"><path d="M0.9375,0 C1.453125,0 1.875,0.421875 1.875,0.9375 C1.875,1.453125 1.453125,1.875 0.9375,1.875 C0.421875,1.875 0,1.453125 0,0.9375 C0,0.421875 0.421875,0 0.9375,0 Z"></path></clipPath><clipPath id="i9"><path d="M1.875,0 C2.90621875,0 3.78125,0.8436875 3.78125,1.875 C3.78125,2.90621875 2.90621875,3.75 1.875,3.75 C0.84378125,3.75 0,2.90621875 0,1.875 C0,0.84371875 0.84378125,0 1.875,0 Z"></path></clipPath><clipPath id="i10"><path d="M0.9375,0 C1.453125,0 1.90625,0.421875 1.90625,0.9375 C1.90625,1.453125 1.453125,1.875 0.9375,1.875 C0.421875,1.875 0,1.453125 0,0.9375 C0,0.421875 0.421875,0 0.9375,0 Z"></path></clipPath><clipPath id="i11"><path d="M13.31875,0 L12.896875,3.47809375 C12.79375,4.17190625 12.19375,4.6875 11.5,4.6875 L1.85,4.6875 C1.15625,4.6875 0.525,4.171875 0.421875,3.47809375 L0,0 L13.31875,0 Z"></path></clipPath><clipPath id="i12"><path d="M15.0625,0 C15.578125,0 16,0.421875 16,0.9375 C16,1.453125 15.578125,1.875 15.0625,1.875 L0.9375,1.875 C0.421875,1.875 0,1.453125 0,0.9375 C0,0.421875 0.421875,0 0.9375,0 L15.0625,0 Z"></path></clipPath><clipPath id="i13"><path d="M15.53125,0 C15.7937813,0 16,0.20621875 16,0.46875 C16,0.73121875 15.7937813,0.9375 15.53125,0.9375 L0.46875,0.9375 C0.20621875,0.9375 0,0.73121875 0,0.46875 C0,0.20621875 0.20621875,0 0.46875,0 L15.53125,0 Z"></path></clipPath><clipPath id="i14"><path d="M6.659375,0 L6.2375,3.47809375 C6.134375,4.17190625 5.534375,4.6875 4.840625,4.6875 L0,4.6875 L0,0 L6.659375,0 Z"></path></clipPath></defs><g transform="translate(-1653.0 -501.0)"><g clip-path="url(#i0)"><g transform="translate(1653.0 501.0)"><g clip-path="url(#i1)"><polygon points="0,0 30,0 30,30 0,30 0,0" stroke="none" fill="#FFFFFF"></polygon><g transform="translate(7.0 7.0)"><g transform="translate(1.0043437500000008 1.0769227084529178)"><g clip-path="url(#i2)"><polygon points="0,1.11022302e-16 5.52259375,1.11022302e-16 5.52259375,4.34554604 0,4.34554604 0,1.11022302e-16" stroke="none" fill="#3F5B73"></polygon></g></g><g transform="translate(9.60765625 1.0769228263062507)"><g clip-path="url(#i3)"><polygon points="0,-8.58688121e-17 5.388,-8.58688121e-17 5.388,4.57304592 0,4.57304592 0,-8.58688121e-17" stroke="none" fill="#3F5B73"></polygon></g></g><g transform="translate(4.090656250000001 0.0)"><g clip-path="url(#i4)"><polygon points="0,0 7.8499375,0 7.8499375,4.92809375 0,4.92809375 0,0" stroke="none" fill="#3F5B73"></polygon></g></g><g transform="translate(0.9345744787722037 5.649999999999995)"><g clip-path="url(#i5)"><polygon points="-3.77302356e-17,0 14.130851,0 14.130851,4.71875 -3.77302356e-17,4.71875 -3.77302356e-17,0" stroke="none" fill="#F3CC53"></polygon></g></g><g transform="translate(2.84375 12.243749999999988)"><g clip-path="url(#i6)"><polygon points="0,0 3.75,0 3.75,3.75 0,3.75 0,0" stroke="none" fill="#3F5B73"></polygon></g></g><g transform="translate(4.71875 12.243749999999988)"><g clip-path="url(#i7)"><polygon points="0,0 1.875,0 1.875,3.75 0,3.75 0,0" stroke="none" fill="#3F5B73"></polygon></g></g><g transform="translate(3.78125 13.18124999999998)"><g clip-path="url(#i8)"><polygon points="0,0 1.875,0 1.875,1.875 0,1.875 0,0" stroke="none" fill="#EDF3F3"></polygon></g></g><g transform="translate(9.40625 12.243749999999988)"><g clip-path="url(#i9)"><polygon points="0,0 3.78125,0 3.78125,3.75 0,3.75 0,0" stroke="none" fill="#3F5B73"></polygon></g></g><g transform="translate(10.34375 13.18124999999998)"><g clip-path="url(#i10)"><polygon points="0,0 1.90625,0 1.90625,1.875 0,1.875 0,0" stroke="none" fill="#EDF3F3"></polygon></g></g><g transform="translate(0.0 4.712500000000647)"><g transform="translate(1.3406249999999185 4.718750000000002)"><g clip-path="url(#i11)"><polygon points="0,0 13.31875,0 13.31875,4.6875 0,4.6875 0,0" stroke="none" fill="#F3CC53"></polygon></g></g><g clip-path="url(#i12)"><polygon points="0,0 16,0 16,1.875 0,1.875 0,0" stroke="none" fill="#F3CC53"></polygon></g></g><g transform="translate(0.0 15.05624999999998)"><g clip-path="url(#i13)"><polygon points="0,0 16,0 16,0.9375 0,0.9375 0,0" stroke="none" fill="#3F5B73"></polygon></g></g><g transform="translate(8.0 9.431250000000649)"><g clip-path="url(#i14)"><polygon points="0,0 6.659375,0 6.659375,4.6875 0,4.6875 0,0" stroke="none" fill="#F3CC53"></polygon></g></g></g></g></g></g></g></svg>