<?xml version="1.0" encoding="UTF-8"?><svg version="1.1" width="30px" height="31px" viewBox="0 0 30.0 31.0" xmlns="http://www.w3.org/2000/svg" xmlns:xlink="http://www.w3.org/1999/xlink"><defs><clipPath id="i0"><path d="M2655,0 L2655,1581 L0,1581 L0,0 L2655,0 Z"></path></clipPath><clipPath id="i1"><path d="M15,0 C23.2842712,0 30,6.71572875 30,15 C30,23.2842712 23.2842712,30 15,30 C6.71572875,30 0,23.2842712 0,15 C0,6.71572875 6.71572875,0 15,0 Z"></path></clipPath><clipPath id="i2"><path d="M3.48655473,0 C3.48655473,0.0766275488 3.4174531,0.512036228 3.73550304,1.07419964 L3.75590855,1.15051361 L3.77979194,1.22772841 C3.43022436,1.36360548 0.908858724,2.50366832 2.11670046,6.73318974 C2.20354502,7.03710007 2.17467285,7.3531431 2.04851107,7.63064429 L1.88277559,7.4583686 C1.0362465,6.52942804 0.779488026,5.45336211 0.703332691,4.95328686 C0.681803999,4.81207323 0.529005018,4.72837588 0.392717449,4.78310984 L0.157635076,4.87757154 C0.0619874744,4.91597654 -0.0325654474,4.82069383 0.0108568302,4.72974423 L0.772388708,3.13525265 C0.823291294,3.02861264 0.746663746,2.90591734 0.625473628,2.89998783 L0.271527331,2.88270102 C0.147509292,2.87663467 0.102080103,2.72169194 0.204341391,2.65350255 L1.22321412,1.97407162 C1.33879401,1.89703356 1.33336622,1.73014058 1.21304273,1.66026356 L0.693115685,1.35831453 C0.536120433,1.26709125 0.532106609,1.04610288 0.687779123,0.952735857 C1.72101952,0.333147391 2.92288613,0.0869813903 3.48655473,0 Z"></path></clipPath><clipPath id="i3"><path d="M3.48650912,0 C3.48650912,0.0469799853 3.47679384,0.0531831678 3.48062522,0.198365006 C2.91645489,0.347743115 2.24217807,0.584148225 1.62756128,0.952735857 C1.47197998,1.04605726 1.4759482,1.26704564 1.63289784,1.35826891 L2.15282488,1.66021795 C2.27314837,1.73009497 2.27857616,1.89698795 2.16304189,1.974026 L1.14416916,2.65345694 C1.04190787,2.72164633 1.08729144,2.87658906 1.2113551,2.8826098 L1.56530139,2.89989661 C1.68653712,2.90582612 1.76311906,3.02852142 1.71221647,3.13516143 L0.950684594,4.72965301 C0.907262317,4.82069383 1.00186085,4.91593093 1.09746284,4.87752593 L1.33254521,4.78306423 C1.46878717,4.72833027 1.62163176,4.8119364 1.64316046,4.95324125 C1.68161106,5.20597532 1.76649432,5.60594376 1.95008116,6.05964271 C1.99505423,6.27506646 2.04987942,6.49911082 2.11670046,6.73314413 C2.20354502,7.03705446 2.17467285,7.35309749 2.04851107,7.63059868 C1.06904679,6.66614063 0.784247734,5.4845712 0.703332691,4.95324125 C0.681803999,4.81198201 0.529005018,4.72833027 0.392717449,4.78306423 L0.157635076,4.87752593 C0.0619874744,4.91588532 -0.0325654474,4.82064822 0.0108568302,4.72965301 L0.772388708,3.13516143 C0.823291294,3.02852142 0.746709357,2.90582612 0.625473628,2.89989661 L0.271527331,2.8826098 C0.147509292,2.87658906 0.102080103,2.72164633 0.204341391,2.65345694 L1.22321412,1.974026 C1.3387484,1.89698795 1.33332061,1.73009497 1.21299711,1.66021795 L0.693070073,1.35826891 C0.536074821,1.26709125 0.532060997,1.04610288 0.687733512,0.952735857 C1.7209283,0.333147391 2.92284052,0.0869813903 3.48650912,0 Z"></path></clipPath><clipPath id="i4"><path d="M0.0807676149,0.210970356 C2.04348193,-0.578293397 2.63611392,1.07175315 3.45338322,1.47870017 C4.24474511,1.87278471 4.87555404,1.60116742 5.1737173,1.41174229 C5.1964319,1.74479846 5.26206704,2.07192511 5.36159163,2.37382853 C3.6049963,3.55685754 2.19933689,3.28314211 1.3711208,1.93130444 C0.801020962,1.00082706 0.325565266,0.601679632 0.0590564761,0.435425218 C-0.0291564283,0.380371973 -0.0157922189,0.249785858 0.0807676149,0.210970356 Z"></path></clipPath><clipPath id="i5"><path d="M0.0807829666,0.211010656 C0.663836512,-0.0235243771 1.12597361,-0.0426812643 1.50906574,0.0568433259 C1.35612993,0.0910520531 1.19379811,0.141361688 1.02061073,0.211010656 C0.924005285,0.249780547 0.910641076,0.380412273 0.998899592,0.435419906 C1.26540838,0.60167432 1.74086408,1.00077614 2.31096392,1.93129913 C2.69063518,2.55097882 3.19190706,2.9432845 3.79238425,3.0734145 C2.76566632,3.27104972 1.93462231,2.85105777 1.37113616,1.93129913 C0.801036314,1.00082175 0.325580618,0.60167432 0.0590718278,0.435419906 C-0.0291410767,0.380412273 -0.0158224789,0.249826159 0.0807829666,0.211010656 Z"></path></clipPath><clipPath id="i6"><path d="M8.75203117,0 C8.75203117,0 8.76083421,0.357002277 9.4201048,0.693889822 C10.0793298,1.03068614 10.2199505,1.62486893 10.2199505,1.62486893 L12.8216382,2.74915015 C13.3138334,2.66134775 14.1400881,3.29370747 13.4192875,4.34770116 C12.698578,5.40169485 11.5207487,3.92611281 11.2219013,4.25985315 C10.9230538,4.59363911 10.378086,4.59363911 10.378086,4.59363911 C10.2550258,5.45437629 11.6262028,6.4908095 12.4875786,7.29886525 C13.3489543,8.106921 13.0501069,9.96892482 13.0501069,9.96892482 L14.6086565,9.53223902 C14.8086179,9.47618232 15.0233119,9.5294111 15.1739215,9.67231235 C15.4326307,9.91779418 15.6364691,10.0486996 15.5886225,10.3416175 L15.3039147,12.1427298 C15.2423998,12.090094 14.9680306,12.5499809 14.4808071,13.5223906 L13.8383216,14.075979 C13.6163297,14.2823716 13.2533067,14.2066107 13.1387303,13.9260535 C12.9815982,13.5413194 12.9322008,13.2080352 12.9201137,12.9823032 C12.9104897,12.8026846 13.0124773,12.6359284 13.1769072,12.5627674 L14.0207225,12.1873836 C14.1635781,12.1238466 14.2646535,11.9926219 14.2895575,11.8383633 L14.4386619,10.9147733 C14.4386619,10.8094561 14.3205734,10.7464208 14.2336376,10.8060352 C13.580479,11.253759 12.35047,11.8374967 11.8741477,12.0577553 C11.7656832,12.1079281 11.6371952,12.0619972 11.5847874,11.954673 C11.5249906,11.8321602 11.3686339,11.7955796 11.2594853,11.8773613 C8.79759719,13.720117 5.19213418,13.9388704 5.19213418,13.9388704 C4.96243398,15.8836594 2.81038576,17.0522751 1.82763745,17.4886416 C1.56933876,17.6033549 1.46196896,17.9120088 1.59364976,18.1619606 L2.42204829,19.7347866 C2.48553969,19.8553382 2.60932967,19.9316009 2.74561724,19.9346112 C2.95616055,19.9393092 3.27817871,19.9673604 3.51777663,20.0827122 C4.00458962,20.3171104 4.26411983,20.7631466 4.39689531,21.1006727 C4.4803646,21.3127212 4.3247377,21.5420565 4.09677074,21.5420565 L2.52020454,21.5420565 L1.40062131,20.7341832 C1.3394105,20.6900311 1.29074288,20.6307816 1.25927085,20.5622273 L0.0272549463,17.8760669 C-0.0181286317,17.7771352 -0.00622399463,17.6612817 0.0584076939,17.5736161 L1.301416,15.8868978 C1.46771603,15.6529557 1.46844582,15.3411546 1.30629645,15.1043389 C0.351097563,13.7093071 0.276522538,10.6519591 3.16182342,10.2674986 C5.00708778,10.0216519 6.15289769,9.32776205 6.787538,8.79200777 C7.18832744,8.45356943 7.35622388,7.91393816 7.21642421,7.40856124 C5.96073587,2.86947365 8.86628832,1.88836735 8.86628832,1.88836735 C8.1983059,0.843222319 8.75203117,0 8.75203117,0 Z"></path></clipPath><clipPath id="i7"><path d="M0.472544376,0.0211898116 L0.560437999,0.052981122 C0.743431883,0.119254829 0.83812164,0.32135999 0.771802321,0.504353874 C0.719850667,0.647711247 0.584520943,0.736881995 0.440388172,0.736881995 C0.400569214,0.736881995 0.360020469,0.730085862 0.320429569,0.715718196 L0.232535946,0.683926886 C0.0495420614,0.617653178 -0.0451476954,0.415548018 0.0211716236,0.232554134 C0.0874453311,0.0495602493 0.289596103,-0.0451751191 0.472544376,0.0211898116 Z"></path></clipPath></defs><g transform="translate(-1504.0 -500.0)"><g clip-path="url(#i0)"><g transform="translate(1504.0 500.89333333333343)"><g clip-path="url(#i1)"><polygon points="0,0 30,0 30,30 0,30 0,0" stroke="none" fill="#FFFFFF"></polygon><g transform="translate(25.0 4.0) scale(-1.0 1.0)"><g transform="translate(9.570282620361214 0.6754171090742598)"><g clip-path="url(#i2)"><polygon points="4.16333634e-16,0 3.77979194,0 3.77979194,7.63064429 4.16333634e-16,7.63064429 4.16333634e-16,0" stroke="none" fill="#F3CC53"></polygon></g></g><g transform="translate(9.570328231997708 0.6754627207107506)"><g clip-path="url(#i3)"><polygon points="-1.38777878e-16,0 3.48650912,0 3.48650912,7.63059868 -1.38777878e-16,7.63059868 -1.38777878e-16,0" stroke="none" fill="#F3CC53"></polygon></g></g><g transform="translate(1.535167988109265e-05 11.90261360177827)"><g clip-path="url(#i4)"><polygon points="-1.38777878e-17,2.22044605e-16 5.36159163,2.22044605e-16 5.36159163,3.12198296 -1.38777878e-17,3.12198296 -1.38777878e-17,2.22044605e-16" stroke="none" fill="#F3CC53"></polygon></g></g><g transform="translate(0.0 11.90266452461263)"><g clip-path="url(#i5)"><polygon points="0,8.32667268e-17 3.79238425,8.32667268e-17 3.79238425,3.12133976 0,3.12133976 0,8.32667268e-17" stroke="none" fill="#F3CC53"></polygon></g></g><g transform="translate(4.404376387189384 0.0)"><g clip-path="url(#i6)"><polygon points="6.9388939e-18,0 15.5956236,0 15.5956236,21.5420565 6.9388939e-18,21.5420565 6.9388939e-18,0" stroke="none" fill="#3F5B73"></polygon></g></g><g transform="translate(14.52666450605689 2.545924297873253)"><g clip-path="url(#i7)"><polygon points="9.99200722e-16,-2.77555756e-17 0.792973944,-2.77555756e-17 0.792973944,0.736881995 9.99200722e-16,0.736881995 9.99200722e-16,-2.77555756e-17" stroke="none" fill="#3F5B73"></polygon></g></g></g></g></g></g></g></svg>