<?xml version="1.0" encoding="UTF-8"?><svg version="1.1" width="30px" height="30px" viewBox="0 0 30.0 30.0" xmlns="http://www.w3.org/2000/svg" xmlns:xlink="http://www.w3.org/1999/xlink"><defs><clipPath id="i0"><path d="M2655,0 L2655,1581 L0,1581 L0,0 L2655,0 Z"></path></clipPath><clipPath id="i1"><path d="M15,0 C23.2842712,0 30,6.71572875 30,15 C30,23.2842712 23.2842712,30 15,30 C6.71572875,30 0,23.2842712 0,15 C0,6.71572875 6.71572875,0 15,0 Z"></path></clipPath><clipPath id="i2"><path d="M2.98923047,1.0546875 C3.28071094,1.0546875 3.51657422,1.29055078 3.51657422,1.58203125 C3.51657422,1.87351172 3.28071094,2.109375 2.98923047,2.109375 L1.58203125,2.109375 C1.29157031,2.109375 1.0546875,2.34576562 1.0546875,2.63671875 L1.0546875,5.80078125 C1.0546875,6.09226172 0.818824219,6.328125 0.52734375,6.328125 C0.235863281,6.328125 0,6.09226172 0,5.80078125 L0,2.63671875 C0,1.76435156 0.709664063,1.0546875 1.58203125,1.0546875 Z M10.0265625,0 L11.9472188,1.52968359 L7.98046875,3.69140625 L4.06184766,1.61395313 L5.934375,0 L10.0265625,0 Z"></path></clipPath><clipPath id="i3"><path d="M11.0742188,0 C12.3503906,0 13.4155898,0.90703125 13.6582031,2.109375 L14.2382812,2.109375 C15.113707,2.109375 15.8203125,2.81601563 15.8203125,3.69140625 L15.8203125,7.91015625 C15.8203125,8.20543359 15.5883164,8.4375 15.2929688,8.4375 L14.2382812,8.4375 C14.1011719,8.4375 13.9640625,8.38476563 13.8691406,8.27926172 L12.9620742,7.3828125 L12.65625,7.3828125 L12.65625,16.3476562 C12.65625,16.6429336 12.4242539,16.875 12.1289062,16.875 L11.0742188,16.875 C10.8632461,16.875 10.6628555,16.7484375 10.5890273,16.5480469 L8.66949609,11.7597305 C8.17382812,11.9285156 7.35113672,12.1289062 6.328125,12.1289062 C5.30511328,12.1289062 4.48242188,11.9285156 3.98675391,11.7597305 L2.06722266,16.5480469 C1.99335938,16.7484375 1.79296875,16.875 1.58203125,16.875 L0.52734375,16.875 C0.231996094,16.875 0,16.6429336 0,16.3476562 L0,8.96484375 C0,7.509375 1.18125,6.328125 2.63671875,6.328125 L3.7546875,6.328125 C3.4171875,7.7203125 4.46129297,8.96484375 5.80078125,8.96484375 C7.14026953,8.96484375 8.184375,7.7203125 7.846875,6.328125 L8.46917578,6.328125 C8.58515625,5.26285547 9.05980078,4.28203125 9.81914063,3.5015625 C10.1355117,3.19566797 10.4624648,2.94254297 10.8210938,2.74215234 C10.641832,2.39410547 10.546875,1.99335937 10.546875,1.58203125 L10.546875,0.52734375 C10.546875,0.231996094 10.7788711,0 11.0742188,0 Z"></path></clipPath></defs><g transform="translate(-1504.0 -300.0)"><g clip-path="url(#i0)"><g transform="translate(1504.0 300.0)"><g clip-path="url(#i1)"><polygon points="0,0 30,0 30,30 0,30 0,0" stroke="none" fill="#FFFFFF"></polygon><g transform="translate(6.0 7.0)"><g transform="translate(0.0 6.328125)"><g clip-path="url(#i2)"><polygon points="0,0 11.9472188,0 11.9472188,6.328125 0,6.328125 0,0" stroke="none" fill="#F3CC53"></polygon></g></g><g transform="translate(2.1796875 0.0)"><g clip-path="url(#i3)"><polygon points="0,0 15.8203125,0 15.8203125,16.875 0,16.875 0,0" stroke="none" fill="#3F5B73"></polygon></g></g></g></g></g></g></g></svg>