<?xml version="1.0" encoding="UTF-8"?><svg version="1.1" width="30px" height="30px" viewBox="0 0 30.0 30.0" xmlns="http://www.w3.org/2000/svg" xmlns:xlink="http://www.w3.org/1999/xlink"><defs><clipPath id="i0"><path d="M2655,0 L2655,1581 L0,1581 L0,0 L2655,0 Z"></path></clipPath><clipPath id="i1"><path d="M15,0 C23.2842712,0 30,6.71572875 30,15 C30,23.2842712 23.2842712,30 15,30 C6.71572875,30 0,23.2842712 0,15 C0,6.71572875 6.71572875,0 15,0 Z"></path></clipPath><clipPath id="i2"><path d="M2.78673047,0 C3.07796484,0 3.31407422,0.236109375 3.31407422,0.52734375 L3.31407422,9.03751172 C3.31403906,9.32874609 3.07796484,9.56485547 2.78669531,9.56485547 L0.52734375,9.56485547 C0.236109375,9.56485547 0,9.32874609 0,9.03751172 L0,0.52734375 C0,0.236109375 0.236109375,0 0.52734375,0 L2.78673047,0 Z"></path></clipPath><clipPath id="i3"><path d="M1.12967578,0 C1.42094531,0 1.65701953,0.236109375 1.65701953,0.52734375 L1.65701953,9.03751172 C1.65701953,9.32874609 1.42091016,9.56485547 1.12967578,9.56485547 L0,9.56485547 L0,0 Z"></path></clipPath><clipPath id="i4"><path d="M2.78673047,0 C3.07796484,0 3.31407422,0.236109375 3.31407422,0.52734375 L3.31407422,9.03751172 C3.31407422,9.32874609 3.07796484,9.56485547 2.78673047,9.56485547 L0.52734375,9.56485547 C0.236109375,9.56485547 0,9.32874609 0,9.03751172 L0,0.52734375 C0,0.236109375 0.236109375,0 0.52734375,0 L2.78673047,0 Z"></path></clipPath><clipPath id="i5"><path d="M1.12967578,0 C1.42091016,0 1.65701953,0.236109375 1.65701953,0.52734375 L1.65701953,9.03751172 C1.65701953,9.32874609 1.42091016,9.56485547 1.12967578,9.56485547 L0,9.56485547 L0,0 Z"></path></clipPath><clipPath id="i6"><path d="M2.78673047,0 C3.07796484,0 3.31407422,0.236109375 3.31407422,0.52734375 L3.31407422,9.03751172 C3.31407422,9.32874609 3.078,9.56485547 2.78673047,9.56485547 L0.52734375,9.56485547 C0.236109375,9.56485547 0,9.32874609 0,9.03751172 L0,0.52734375 C0,0.236109375 0.236109375,0 0.52734375,0 L2.78673047,0 Z"></path></clipPath><clipPath id="i7"><path d="M1.12967578,0 C1.42094531,0 1.65701953,0.236109375 1.65701953,0.52734375 L1.65701953,9.03751172 C1.65701953,9.32874609 1.42091016,9.56485547 1.12967578,9.56485547 L0,9.56485547 L0,0 Z"></path></clipPath><clipPath id="i8"><path d="M2.78673047,0 C3.07796484,0 3.31407422,0.236109375 3.31407422,0.52734375 L3.31407422,9.03751172 C3.31407422,9.32874609 3.07796484,9.56485547 2.78673047,9.56485547 L0.52734375,9.56485547 C0.236109375,9.56485547 0,9.32874609 0,9.03751172 L0,0.52734375 C0,0.236109375 0.236109375,0 0.52734375,0 L2.78673047,0 Z"></path></clipPath><clipPath id="i9"><path d="M1.12971094,0 C1.42094531,0 1.65705469,0.236109375 1.65701953,0.52734375 L1.65701953,9.03751172 C1.65701953,9.32874609 1.42091016,9.56485547 1.12967578,9.56485547 L0,9.56485547 L0,0 Z"></path></clipPath><clipPath id="i10"><path d="M1.03905513,0.399551421 L1.60387545,2.65893814 C1.67450435,2.94148892 1.50273091,3.22780142 1.22018013,3.29843033 C0.922160602,3.37289126 0.647379352,3.18157095 0.580687946,2.91473501 L0.0158676331,0.655348296 C-0.0547612731,0.372797514 0.117012164,0.0864850144 0.399562946,0.0158561081 C0.682078571,-0.0547376419 0.968426227,0.117000639 1.03905513,0.399551421 Z"></path></clipPath><clipPath id="i11"><path d="M0.52734375,0 C0.818578125,0 1.0546875,0.236109375 1.0546875,0.52734375 L1.0546875,3.35155078 C1.0546875,3.64282031 0.818578125,3.87889453 0.52734375,3.87889453 C0.236109375,3.87889453 0,3.64278516 0,3.35155078 L0,0.52734375 C0,0.236109375 0.236109375,0 0.52734375,0 Z"></path></clipPath><clipPath id="i12"><path d="M1.2201565,0.0158466485 C1.50270728,0.0864755548 1.67451588,0.372788055 1.60385182,0.655338836 L1.0390315,2.91472555 C0.965133066,3.21049509 0.669187754,3.3658154 0.399574472,3.29842087 C0.117023691,3.22779196 -0.0547849026,2.94147946 0.0158791599,2.65892868 L0.580699472,0.399541961 C0.651328379,0.116956024 0.937957285,-0.0547119452 1.2201565,0.0158466485 Z"></path></clipPath><clipPath id="i13"><path d="M4.48122656,0 C4.77246094,0 5.00857031,0.236109375 5.00857031,0.52734375 L5.00857031,2.78673047 C5.00857031,3.07796484 4.77249609,3.31407422 4.48126172,3.31407422 L0.52734375,3.31407422 C0.236109375,3.31407422 0,3.07796484 0,2.78673047 L0,0.52734375 C0,0.236109375 0.236109375,0 0.52734375,0 L4.48122656,0 Z"></path></clipPath><clipPath id="i14"><path d="M5.04608203,0 C5.33731641,0 5.57342578,0.236109375 5.57342578,0.52734375 C5.57342578,0.818578125 5.33735156,1.0546875 5.04611719,1.0546875 L0.52734375,1.0546875 C0.236109375,1.0546875 0,0.818578125 0,0.52734375 C0,0.236109375 0.236109375,0 0.52734375,0 L5.04608203,0 Z"></path></clipPath><clipPath id="i15"><path d="M4.48126172,0 C4.77249609,0 5.00860547,0.236109375 5.00860547,0.52734375 L5.00860547,2.78673047 C5.00860547,3.07796484 4.77249609,3.31407422 4.48126172,3.31407422 L0.52734375,3.31407422 C0.236109375,3.31407422 0,3.07796484 0,2.78673047 L0,0.52734375 C0,0.236109375 0.236109375,0 0.52734375,0 L4.48126172,0 Z"></path></clipPath><clipPath id="i16"><path d="M5.04608203,0 C5.33731641,0 5.57342578,0.236109375 5.57342578,0.52734375 C5.57342578,0.818578125 5.33731641,1.0546875 5.04608203,1.0546875 L0.52734375,1.0546875 C0.236109375,1.0546875 0,0.818578125 0,0.52734375 C0,0.236109375 0.236109375,0 0.52734375,0 L5.04608203,0 Z"></path></clipPath><clipPath id="i17"><path d="M6.17579297,0 C6.46702734,0 6.70313672,0.236109375 6.70313672,0.52734375 L6.70313672,3.35155078 C6.70313672,3.64282031 6.46699219,3.87892969 6.17575781,3.87892969 L0.52734375,3.87892969 C0.236109375,3.87892969 0,3.64282031 0,3.35158594 L0,0.52734375 C0,0.236109375 0.236109375,0 0.52734375,0 L6.17579297,0 Z"></path></clipPath><clipPath id="i18"><path d="M2.82420703,0 C3.11544141,0 3.35155078,0.236109375 3.35155078,0.52734375 L3.35155078,3.35158594 C3.35155078,3.64282031 3.11544141,3.87889453 2.82420703,3.87889453 L0,3.87889453 L0,0 Z"></path></clipPath><clipPath id="i19"><path d="M16.3429805,0 C16.6342148,0 16.8703242,0.236109375 16.8703242,0.52734375 L16.8703242,3.31407422 L0,3.31407422 L0,0.52734375 C0,0.236109375 0.236109375,0 0.52734375,0 L16.3429805,0 Z"></path></clipPath><clipPath id="i20"><path d="M17.4726562,0 C17.7638906,0 18,0.236109375 18,0.52734375 C18,0.818578125 17.7638906,1.0546875 17.4726562,1.0546875 L0.52734375,1.0546875 C0.236109375,1.0546875 0,0.818578125 0,0.52734375 C0,0.236109375 0.236109375,0 0.52734375,0 L17.4726562,0 Z"></path></clipPath><clipPath id="i21"><path d="M7.90783594,0 C8.19907031,0 8.43517969,0.236109375 8.43517969,0.52734375 L8.43517969,3.31407422 L0,3.31407422 L0,0 Z"></path></clipPath><clipPath id="i22"><path d="M8.47265625,0 C8.76389062,0 9,0.236109375 9,0.52734375 C9,0.818578125 8.76389062,1.0546875 8.47265625,1.0546875 L0,1.0546875 L0,0 Z"></path></clipPath></defs><g transform="translate(-1653.0 -208.0)"><g clip-path="url(#i0)"><g transform="translate(1653.0 208.0)"><g clip-path="url(#i1)"><polygon points="0,0 30,0 30,30 0,30 0,0" stroke="none" fill="#FFFFFF"></polygon><g transform="translate(6.0 6.0)"><g transform="translate(0.5648554687500111 8.435144531249534)"><g clip-path="url(#i2)"><polygon points="0,0 3.31407422,0 3.31407422,9.56485547 0,9.56485547 0,0" stroke="none" fill="#3F5B73"></polygon></g></g><g transform="translate(2.221875000000182 8.435144531249534)"><g clip-path="url(#i3)"><polygon points="0,0 1.65701953,0 1.65701953,9.56485547 0,9.56485547 0,0" stroke="none" fill="#3F5B73"></polygon></g></g><g transform="translate(5.083593750000091 8.435144531249534)"><g clip-path="url(#i4)"><polygon points="0,0 3.31407422,0 3.31407422,9.56485547 0,9.56485547 0,0" stroke="none" fill="#3F5B73"></polygon></g></g><g transform="translate(6.740648437500113 8.435144531249534)"><g clip-path="url(#i5)"><polygon points="0,0 1.65701953,0 1.65701953,9.56485547 0,9.56485547 0,0" stroke="none" fill="#3F5B73"></polygon></g></g><g transform="translate(9.602332031250171 8.435144531249534)"><g clip-path="url(#i6)"><polygon points="0,0 3.31407422,0 3.31407422,9.56485547 0,9.56485547 0,0" stroke="none" fill="#3F5B73"></polygon></g></g><g transform="translate(11.25938671875019 8.435144531249534)"><g clip-path="url(#i7)"><polygon points="0,0 1.65701953,0 1.65701953,9.56485547 0,9.56485547 0,0" stroke="none" fill="#3F5B73"></polygon></g></g><g transform="translate(14.1211054687501 8.435144531249534)"><g clip-path="url(#i8)"><polygon points="0,0 3.31407422,0 3.31407422,9.56485547 0,9.56485547 0,0" stroke="none" fill="#3F5B73"></polygon></g></g><g transform="translate(15.778124999999818 8.435144531249534)"><g clip-path="url(#i9)"><polygon points="0,0 1.65701953,0 1.65701953,9.56485547 0,9.56485547 0,0" stroke="none" fill="#3F5B73"></polygon></g></g><g transform="translate(6.213187054376704 0.0)"><g transform="translate(0.0 0.5647493606484204)"><g clip-path="url(#i10)"><polygon points="1.14491749e-16,-1.73472348e-17 1.61974308,-1.73472348e-17 1.61974308,3.31464277 1.14491749e-16,3.31464277 1.14491749e-16,-1.73472348e-17" stroke="none" fill="#F3CC53"></polygon></g></g><g transform="translate(2.259469195623296 0.0)"><g clip-path="url(#i11)"><polygon points="0,0 1.0546875,0 1.0546875,3.87889453 0,3.87889453 0,0" stroke="none" fill="#F3CC53"></polygon></g></g><g transform="translate(3.953906441952313 0.5647588202391491)"><g clip-path="url(#i12)"><polygon points="-4.4408921e-16,0 1.61973098,0 1.61973098,3.31401389 -4.4408921e-16,3.31401389 -4.4408921e-16,0" stroke="none" fill="#F3CC53"></polygon></g></g></g><g transform="translate(1.6945312500001815 3.389062500000364)"><g clip-path="url(#i13)"><polygon points="0,0 5.00857031,0 5.00857031,3.31407422 0,3.31407422 0,0" stroke="none" fill="#3F5B73"></polygon></g></g><g transform="translate(1.129675781250171 3.389062500000364)"><g clip-path="url(#i14)"><polygon points="0,0 5.57342578,0 5.57342578,1.0546875 0,1.0546875 0,0" stroke="none" fill="#3F5B73"></polygon></g></g><g transform="translate(11.296863281249898 3.389062500000364)"><g clip-path="url(#i15)"><polygon points="0,0 5.00860547,0 5.00860547,3.31407422 0,3.31407422 0,0" stroke="none" fill="#3F5B73"></polygon></g></g><g transform="translate(11.2968632812499 3.389062500000364)"><g clip-path="url(#i16)"><polygon points="0,0 5.57342578,0 5.57342578,1.0546875 0,1.0546875 0,0" stroke="none" fill="#3F5B73"></polygon></g></g><g transform="translate(5.648449218749995 2.8242070312499985)"><g clip-path="url(#i17)"><polygon points="0,0 6.70313672,0 6.70313672,3.87892969 0,3.87892969 0,0" stroke="none" fill="#3F5B73"></polygon></g></g><g transform="translate(8.999999999999995 2.8242070312499985)"><g clip-path="url(#i18)"><polygon points="0,0 3.35155078,0 3.35155078,3.87889453 0,3.87889453 0,0" stroke="none" fill="#3F5B73"></polygon></g></g><g transform="translate(0.5648554687499985 5.648414062499999)"><g clip-path="url(#i19)"><polygon points="0,0 16.8703242,0 16.8703242,3.31407422 0,3.31407422 0,0" stroke="none" fill="#3F5B73"></polygon></g></g><g transform="translate(0.0 16.9453125)"><g clip-path="url(#i20)"><polygon points="0,0 18,0 18,1.0546875 0,1.0546875 0,0" stroke="none" fill="#3F5B73"></polygon></g></g><g transform="translate(8.999999999999986 5.648449218750001)"><g clip-path="url(#i21)"><polygon points="0,0 8.43517969,0 8.43517969,3.31407422 0,3.31407422 0,0" stroke="none" fill="#3F5B73"></polygon></g></g><g transform="translate(8.999999999999996 16.9453125)"><g clip-path="url(#i22)"><polygon points="0,0 9,0 9,1.0546875 0,1.0546875 0,0" stroke="none" fill="#3F5B73"></polygon></g></g><g transform="translate(0.0 5.648449218750001)"><g clip-path="url(#i20)"><polygon points="0,0 18,0 18,1.0546875 0,1.0546875 0,0" stroke="none" fill="#3F5B73"></polygon></g></g><g transform="translate(8.999999999999996 5.648449218750001)"><g clip-path="url(#i22)"><polygon points="0,0 9,0 9,1.0546875 0,1.0546875 0,0" stroke="none" fill="#3F5B73"></polygon></g></g></g></g></g></g></g></svg>