<?xml version="1.0" encoding="UTF-8"?><svg version="1.1" width="30px" height="30px" viewBox="0 0 30.0 30.0" xmlns="http://www.w3.org/2000/svg" xmlns:xlink="http://www.w3.org/1999/xlink"><defs><clipPath id="i0"><path d="M2655,0 L2655,1581 L0,1581 L0,0 L2655,0 Z"></path></clipPath><clipPath id="i1"><path d="M15,0 C23.2842712,0 30,6.71572875 30,15 C30,23.2842712 23.2842712,30 15,30 C6.71572875,30 0,23.2842712 0,15 C0,6.71572875 6.71572875,0 15,0 Z"></path></clipPath><clipPath id="i2"><path d="M2.59424935,1.34258973 C2.59424935,1.34258973 3.12304778,-0.230979877 5.28763758,0.0289996815 L5.31998373,0.032431334 C5.56276833,0.060542204 7.11182055,0.281367038 7.90303194,1.40966446 L6.710939,1.37794695 L6.74608363,1.39703961 C6.98542106,1.52974094 8.37614952,2.34420431 8.71052845,3.5271113 L7.89800567,3.33039343 C7.89800567,3.33039343 8.44430938,4.07584149 8.49439877,5.6951675 L7.73369859,5.53311357 C7.62252054,6.58467979 7.12123921,7.55638389 6.32876905,8.25648611 L6.1805807,6.83387796 C5.61642506,8.52634489 4.00559172,9.4130485 4.00559172,9.4130485 L4.08653202,8.09391222 C2.76323607,9.37890452 2.91055782,10.4683922 2.91055782,10.4683922 C1.79715203,9.41582162 2.02368088,7.8817689 2.49771028,6.94584249 C2.77784282,6.42871321 3.02031068,5.8920518 3.22322657,5.34003542 C2.46911253,5.43813437 1.4811902,5.28214664 0.961231087,5.18127457 C0.698111056,5.13184799 0.472811328,4.9631453 0.351319043,4.72457715 C0.145778464,4.25828594 0.0267359826,3.75850719 0,3.24962645 C0.48266256,2.93692638 1.00664657,2.6931939 1.5567576,2.52549672 C1.5567576,2.52549672 1.56958325,1.85214967 2.59424935,1.34258973 Z"></path></clipPath><clipPath id="i3"><path d="M4.82802657,0 L5.58872676,0.161533966 C5.58872676,0.161533966 7.04946524,1.80529805 9.96123629,1.17545424 C13.7167277,0.364144702 16.1222319,2.76514258 14.6179901,6.22235075 C13.9290443,7.80545294 14.4486568,8.61294945 14.9138469,8.98957317 C15.1971489,9.22539941 15.2982334,9.61578511 15.1649871,9.95947025 L14.2188349,12.4668864 L11.1985657,12.4668864 C11.1985657,12.4668864 11.0970003,10.9461793 12.9556808,11.2399562 C12.9556808,11.2399562 13.7945482,10.1047122 13.1397464,9.43569809 C12.6662369,8.95230944 11.4997953,8.82023982 10.7583336,7.20732664 C10.7583336,7.20732664 9.75602576,6.54767184 7.30025885,7.31131846 C5.30517572,7.93162969 4.20632879,7.12413318 4.19488969,7.11564051 C4.58951559,8.04865952 4.74930359,9.06422085 4.6602531,10.0733413 L3.63680024,12.4660198 L0.611158135,12.4660198 C0.669913515,10.7491148 2.39392463,11.2489689 2.39392463,11.2489689 C2.39392463,11.2489689 3.54788723,10.1362563 2.24798943,8.80516101 C0.55805731,7.07398962 0.122988628,5.50791237 0.0282877728,5.06077815 L0.0124742115,4.98022149 C0.00699712266,4.94954026 0.00488580429,4.93354542 0.00488580429,4.93354542 C0.00488580429,4.93354542 -0.142435946,3.84492435 1.18086001,2.55906545 L1.0999197,3.87820173 C1.0999197,3.87820173 2.71075305,2.99149812 3.27490869,1.29903119 L3.42309704,2.72389249 C4.21568203,2.02366184 4.71697402,1.05175153 4.82802657,0 Z"></path></clipPath><clipPath id="i4"><path d="M0.401731989,0 C2.02972398,0.911315012 0.940756274,2.54502656 0.940756274,2.54502656 C-0.794173979,1.34513424 0.401731989,0 0.401731989,0 Z"></path></clipPath><clipPath id="i5"><path d="M5.19439158,0.936441366 L4.15620654,1.08549631 C4.15620654,1.08549631 5.03147105,1.55519272 5.13199648,2.46338797 L4.43698446,2.42872403 C4.43698446,2.42872403 4.29312911,3.28492338 3.22201333,4.05792926 C2.46980581,4.1549883 1.48015029,3.99900056 0.960191169,3.89847514 C0.697319109,3.84896528 0.47210707,3.68069606 0.350105805,3.44264431 C0.145493026,2.97610299 0.0268848091,2.47642183 0,1.96769361 C0.482638358,1.65508799 1.00647783,1.4112518 1.55641096,1.24321724 C1.55641096,1.24321724 1.56854334,0.56900359 2.5928628,0.0594436554 C2.5928628,0.0594436554 4.22380123,-0.340924865 5.19439158,0.936441366 Z"></path></clipPath><clipPath id="i6"><path d="M0.346639411,0.120671897 C1.36919099,-0.192700507 2.48066287,0.115868865 3.19532209,0.911529714 C4.12864871,1.94035549 3.98340679,3.17543171 3.84301783,4.36995112 C3.75696938,4.91674816 3.73081678,5.47129947 3.76502397,6.02376775 C3.76606388,6.02879402 3.77490319,6.13313249 3.80072782,6.28600047 C3.69557776,6.19902174 3.58267908,6.12186077 3.46344768,6.05548526 C3.36298108,6.17735618 3.27927579,6.31212404 3.21456058,6.45620042 C3.17556365,6.24457706 3.16239135,6.09500215 3.16117811,6.08026998 C3.1224957,5.48541731 3.14911471,4.88811688 3.24055854,4.29906336 C3.37089495,3.19051052 3.49360531,2.14348618 2.74625074,1.31917766 C2.27366188,0.788048076 1.56649099,0.528877885 0.862612175,0.628845274 C0.592070906,0.468624549 0.302193139,0.343575811 0,0.256727866 C0.112687117,0.204403852 0.228446461,0.15896831 0.346639411,0.120671897 Z"></path></clipPath><clipPath id="i7"><path d="M0.361544906,0 C0.561220644,0 0.723089812,0.161869168 0.723089812,0.361544906 C0.723089812,0.561220644 0.561220644,0.723089812 0.361544906,0.723089812 C0.161869168,0.723089812 0,0.561220644 0,0.361544906 C0,0.161869168 0.161869168,0 0.361544906,0 Z"></path></clipPath></defs><g transform="translate(-1653.0 -610.0)"><g clip-path="url(#i0)"><g transform="translate(1653.0 610.0)"><g clip-path="url(#i1)"><polygon points="0,0 30,0 30,30 0,30 0,0" stroke="none" fill="#FFFFFF"></polygon><g transform="translate(5.0 6.0)"><g clip-path="url(#i2)"><polygon points="0,1.11022302e-16 8.71052845,1.11022302e-16 8.71052845,10.4683922 0,10.4683922 0,1.11022302e-16" stroke="none" fill="#F3CC53"></polygon></g><g transform="translate(2.9056720124972335 5.5331135734159025)"><g clip-path="url(#i3)"><polygon points="4.4408921e-16,0 15.2230708,0 15.2230708,12.4668864 4.4408921e-16,12.4668864 4.4408921e-16,0" stroke="none" fill="#3F5B73"></polygon></g></g><g transform="translate(18.70139264630461 12.53193660680881)"><g clip-path="url(#i4)"><polygon points="-2.77555756e-16,0 1.29735846,0 1.29735846,2.54502656 -2.77555756e-16,2.54502656 -2.77555756e-16,0" stroke="none" fill="#F3CC53"></polygon></g></g><g transform="translate(0.0005199591169002815 1.2810662386600598)"><g clip-path="url(#i5)"><polygon points="0,6.9388939e-17 5.19439158,6.9388939e-17 5.19439158,4.08853256 0,4.08853256 0,6.9388939e-17" stroke="none" fill="#3F5B73"></polygon></g></g><g transform="translate(2.3916386181067537 2.200868912808801)"><g transform="translate(13.24803833989699 4.275582436768673)"><g clip-path="url(#i6)"><polygon points="0,1.11022302e-16 3.946,1.11022302e-16 3.946,6.45620042 0,6.45620042 0,1.11022302e-16" stroke="none" fill="#3F5B73"></polygon></g></g><g clip-path="url(#i7)"><polygon points="0,0 0.723089812,0 0.723089812,0.723089812 0,0.723089812 0,0" stroke="none" fill="#3F5B73"></polygon></g></g></g></g></g></g></g></svg>