<svg width="64" height="64" viewBox="0 0 120 120" fill="none" xmlns="http://www.w3.org/2000/svg">
<mask id="mask0_490_56385" style="mask-type:luminance" maskUnits="userSpaceOnUse" x="0" y="0" width="120" height="120">
<circle cx="60" cy="60" r="60" fill="white"/>
</mask>
<g mask="url(#mask0_490_56385)">
<circle cx="60" cy="60" r="60" fill="#EDF4F3"/>
<path d="M54.0689 48.8276L32.9902 39.9517C33.164 29.3131 34.4799 24 37.9309 24C41.6551 24 41.6551 32.6897 60.2758 32.6897C78.8964 32.6897 78.8964 24 82.6206 24C86.0716 24 87.3875 29.3131 87.5613 39.9517L66.4826 48.8276H54.0689Z" fill="#405B73"/>
<path d="M88.1076 57.1448C88.945 58.5423 89.6714 60.0033 90.28 61.5145C90.6139 62.302 90.9081 63.1057 91.1614 63.9227C92.0643 66.6634 92.5334 69.5283 92.5517 72.4138C92.5517 80.8427 88.2441 87.0869 81.429 91.0345C75.7683 94.3241 68.3697 96 60.2759 96C52.1821 96 44.7834 94.3241 39.1228 91.0345C32.3076 87.0869 28 80.8427 28 72.4138C28.0183 69.5283 28.4874 66.6634 29.3903 63.9227C29.6436 63.1057 29.9378 62.302 30.2717 61.5145C30.8804 60.0033 31.6067 58.5423 32.4441 57.1448L54.069 48.8276H66.4828L88.1076 57.1448Z" fill="#405B73"/>
<ellipse cx="60.2761" cy="81.1035" rx="12.4138" ry="14.8965" fill="#F4CC54"/>
<path d="M60.2758 96H37.931C36.5615 95.9959 35.4523 94.8867 35.4482 93.5172C35.4584 92.1503 36.564 91.0446 37.931 91.0345H39.1227C44.7834 94.3241 52.182 96 60.2758 96Z" fill="#F4CC54"/>
<path d="M85.103 93.5172C85.0989 94.8867 83.9897 95.9959 82.6202 96H60.2754C68.3692 96 75.7678 94.3241 81.4285 91.0345H82.6202C83.9872 91.0446 85.0928 92.1503 85.103 93.5172Z" fill="#F4CC54"/>
<path d="M54.0694 48.8276C54.064 55.6755 48.5101 61.2234 41.6623 61.2215C34.8144 61.2197 29.2635 55.6689 29.2617 48.821C29.2599 41.9731 34.8078 36.4193 41.6556 36.4138C48.5116 36.4138 54.0694 41.9717 54.0694 48.8276Z" fill="white"/>
<path d="M91.3105 48.8276C91.3218 54.7493 87.1563 59.8578 81.3535 61.0387C75.5507 62.2197 69.72 59.1456 67.4159 53.6905C65.1118 48.2354 66.9733 41.9122 71.8657 38.5758C76.758 35.2394 83.3243 35.815 87.5616 39.9517C89.9599 42.2818 91.3124 45.4838 91.3105 48.8276Z" fill="white"/>
<path d="M64.9892 52.2456C64.9892 54.9466 60.0947 63.5634 60.0947 63.5634C60.0947 63.5634 55.2002 54.9466 55.2002 52.2456C55.2002 49.5446 57.3915 47.3552 60.0947 47.3552C62.7979 47.3552 64.9892 49.5448 64.9892 52.2456Z" fill="#F4CC54"/>
<ellipse cx="42.897" cy="48.8276" rx="3.72414" ry="3.72414" fill="#405B73"/>
<ellipse cx="77.6558" cy="48.8276" rx="3.72414" ry="3.72414" fill="#405B73"/>
</g>
</svg>
