<svg width="120" height="120" viewBox="0 0 120 120" fill="none" xmlns="http://www.w3.org/2000/svg">
<mask id="mask0_1333_36947" style="mask-type:luminance" maskUnits="userSpaceOnUse" x="0" y="0" width="120" height="120">
<circle cx="60" cy="60" r="60" fill="white"/>
</mask>
<g mask="url(#mask0_1333_36947)">
<circle cx="60" cy="60" r="60" fill="#EDF4F3"/>
<path fill-rule="evenodd" clip-rule="evenodd" d="M47.2255 44.3871C41.7383 44.3871 37.29 48.8354 37.29 54.3226C37.2882 56.9582 38.3343 59.4864 40.198 61.3501C42.0617 63.2138 44.5899 64.2599 47.2255 64.2581C52.7127 64.2581 57.161 59.8098 57.161 54.3226C57.161 48.8354 52.7127 44.3871 47.2255 44.3871ZM41.5481 54.3226C41.5481 51.187 44.09 48.6451 47.2255 48.6451C50.3611 48.6451 52.9029 51.187 52.9029 54.3226C52.9029 57.4581 50.3611 60 47.2255 60C44.09 60 41.5481 57.4581 41.5481 54.3226Z" fill="white"/>
<path fill-rule="evenodd" clip-rule="evenodd" d="M82.7098 54.3226C82.7098 48.8354 78.2616 44.3871 72.7744 44.3871C70.1387 44.3852 67.6105 45.4314 65.7468 47.295C63.8832 49.1587 62.837 51.6869 62.8389 54.3226C62.8389 59.8098 67.2871 64.2581 72.7744 64.2581C78.2616 64.2581 82.7098 59.8098 82.7098 54.3226ZM72.7744 48.6452C75.9099 48.6452 78.4518 51.187 78.4518 54.3226C78.4518 57.4581 75.9099 60 72.7744 60C69.6388 60 67.0969 57.4581 67.0969 54.3226C67.0969 51.187 69.6388 48.6452 72.7744 48.6452Z" fill="white"/>
<ellipse cx="47.2262" cy="54.3226" rx="5.67742" ry="5.67742" fill="white"/>
<circle cx="72.7741" cy="54.3226" r="5.67742" fill="white"/>
<path d="M64.2695 95.4839L65.6888 101.161L60.0114 104L54.334 101.161L55.7533 95.4839H64.2695Z" fill="#405B73"/>
<path d="M55.7417 95.4839L54.3224 101.161L47.2256 102.581L51.4837 95.4839H55.7417Z" fill="#405B73"/>
<path d="M68.5383 95.4839L72.7964 102.581L65.6996 101.161L64.2803 95.4839H68.5383Z" fill="#405B73"/>
<path d="M28.7747 91.2258V95.4839H24.5166V86.9678H28.7747V91.2258Z" fill="#405B73"/>
<path d="M24.5161 86.9678V95.4839H20.2581C17.9064 95.4839 16 93.5775 16 91.2258C16 88.8742 17.9064 86.9678 20.2581 86.9678H24.5161Z" fill="#405B73"/>
<path d="M104 91.2259L95.2713 93.8517L92.6455 91.2259L95.2713 88.6001L104 91.2259Z" fill="#393D48"/>
<path d="M95.271 88.6L92.6452 91.2258L95.271 93.8517L89.8065 95.4839L86.9678 91.2258L89.8065 86.9678L95.271 88.6Z" fill="#FFD6BD"/>
<path d="M86.968 91.2258L89.8067 95.4839H68.5163H64.2583H55.7422H51.4841H28.7744V91.2258H86.968Z" fill="#F4CC54"/>
<path d="M89.8067 86.9678L86.968 91.2258H28.7744V86.9678H35.8712H84.1293H89.8067Z" fill="#F4CC54"/>
<path d="M84.1292 24.5161L78.4517 26.5174L60.0001 33.0323L41.5485 26.5174L35.8711 24.5161L60.0001 16L84.1292 24.5161Z" fill="#405B73"/>
<path d="M78.4521 26.5175V35.871C78.4339 36.3985 78.2275 36.902 77.8701 37.2904C75.8263 39.7458 68.6159 41.5484 60.0004 41.5484C51.0727 41.5484 43.6353 39.6039 41.9179 37.0065C41.6842 36.6734 41.5557 36.2779 41.5488 35.871V26.5175L60.0004 33.0323L78.4521 26.5175Z" fill="#F4CC54"/>
<path d="M35.8709 62.8387C35.8709 62.8387 41.5484 71.3549 41.5484 77.0323C41.5726 78.1689 41.1318 79.2661 40.3279 80.0699C39.5241 80.8738 38.4269 81.3146 37.2903 81.2904C35.6728 81.2087 34.1983 80.3388 33.3445 78.9626C33.1363 77.3815 33.032 75.7884 33.0322 74.1936C33.0322 65.6775 35.8709 62.8387 35.8709 62.8387V62.8387Z" fill="#F4CC54"/>
<path d="M86.9673 74.1936C86.9675 75.7884 86.8632 77.3815 86.655 78.9626C85.8012 80.3388 84.3267 81.2087 82.7092 81.2904C81.5726 81.3146 80.4754 80.8738 79.6716 80.0699C78.8677 79.2661 78.4269 78.1689 78.4511 77.0323C78.4511 71.3549 84.1286 62.8387 84.1286 62.8387C84.1286 62.8387 86.9673 65.6775 86.9673 74.1936Z" fill="#F4CC54"/>
<path fill-rule="evenodd" clip-rule="evenodd" d="M84.1294 86.9678C85.5089 84.4997 86.3686 81.7754 86.6559 78.9626C85.8021 80.3388 84.3275 81.2087 82.7101 81.2903C81.5735 81.3146 80.4763 80.8738 79.6724 80.0699C78.8686 79.2661 78.4277 78.1688 78.452 77.0323C78.452 71.3549 84.1294 62.8387 84.1294 62.8387C86.1031 60.4526 87.1154 57.4158 86.9681 54.3226C86.9681 47.2258 82.7101 44.3871 82.7101 44.3871L84.1294 37.2903H77.8701C75.8262 39.7458 68.6159 41.5484 60.0004 41.5484C51.0726 41.5484 43.6352 39.6039 41.9178 37.0065L41.5488 37.2903H35.8713L37.2907 44.3871C37.2907 44.3871 33.0326 47.2258 33.0326 54.3226C32.8854 57.4158 33.8976 60.4526 35.8713 62.8387C35.8713 62.8387 41.5488 71.3549 41.5488 77.0323C41.573 78.1688 41.1322 79.2661 40.3283 80.0699C39.5245 80.8738 38.4273 81.3146 37.2907 81.2903C35.6732 81.2087 34.1987 80.3388 33.3449 78.9626C33.6321 81.7754 34.4919 84.4997 35.8713 86.9678H84.1294ZM47.2262 44.3871C52.7134 44.3871 57.1617 48.8354 57.1617 54.3226C57.1636 56.9582 56.1174 59.4865 54.2537 61.3501C52.39 63.2138 49.8618 64.26 47.2262 64.2581C41.739 64.2581 37.2907 59.8098 37.2907 54.3226C37.2907 48.8354 41.739 44.3871 47.2262 44.3871ZM62.8391 58.5807L60.0004 65.6774L57.1617 58.5807H62.8391ZM62.8391 54.3226C62.8391 59.8098 67.2874 64.2581 72.7746 64.2581C78.2618 64.2581 82.7101 59.8098 82.7101 54.3226C82.7101 48.8354 78.2618 44.3871 72.7746 44.3871C70.1389 44.3852 67.6107 45.4314 65.747 47.2951C63.8834 49.1587 62.8372 51.687 62.8391 54.3226Z" fill="#405B73"/>
<path d="M64.232 59.5827C64.232 61.7824 60.2459 68.8 60.2459 68.8C60.2459 68.8 56.2598 61.7824 56.2598 59.5827C56.2598 57.383 58.0444 55.6 60.2459 55.6C62.4474 55.6 64.232 57.3832 64.232 59.5827Z" fill="#F4CC54"/>
<path d="M84.1294 35.871C83.3456 35.871 82.7101 35.2355 82.7101 34.4516V25.9355H60.0004C59.2165 25.9355 58.5811 25.3 58.5811 24.5162C58.5811 23.7323 59.2165 23.0968 60.0004 23.0968H84.1294C84.9133 23.0968 85.5488 23.7323 85.5488 24.5162V34.4516C85.5488 35.2355 84.9133 35.871 84.1294 35.871Z" fill="#F4CC54"/>
<path d="M95.2713 93.8516L104 91.2258H92.6455L95.2713 93.8516Z" fill="#222430"/>
<path d="M86.9678 91.2258L89.8065 95.4839L95.271 93.8516L92.6452 91.2258H86.9678Z" fill="#FFD6BD"/>
<ellipse cx="69.936" cy="54.3226" rx="1.41936" ry="1.41935" fill="#405B73"/>
<circle cx="50.0649" cy="54.3226" r="1.41935" fill="#405B73"/>
<path fill-rule="evenodd" clip-rule="evenodd" d="M72.7737 43.6774C67.1746 43.6836 62.5373 48.0262 62.164 53.6128H57.835C57.4523 47.8846 52.5962 43.4918 46.8585 43.6833C41.1207 43.8747 36.5684 48.5816 36.5684 54.3225C36.5684 60.0635 41.1207 64.7703 46.8585 64.9618C52.5962 65.1532 57.4523 60.7604 57.835 55.0322H62.164C62.5499 60.8078 67.4801 65.2165 73.2628 64.957C79.0454 64.6975 83.5609 59.8648 83.4279 54.0779C83.2949 48.291 78.5622 43.6709 72.7737 43.6774ZM47.2253 63.5483C42.13 63.5483 37.9995 59.4178 37.9995 54.3225C37.9995 49.2272 42.13 45.0967 47.2253 45.0967C52.3206 45.0967 56.4511 49.2272 56.4511 54.3225C56.4449 59.4152 52.318 63.5421 47.2253 63.5483ZM63.5479 54.3225C63.5479 59.4178 67.6784 63.5483 72.7737 63.5483C77.8664 63.5421 81.9933 59.4152 81.9995 54.3225C81.9995 49.2272 77.869 45.0967 72.7737 45.0967C67.6784 45.0967 63.5479 49.2272 63.5479 54.3225Z" fill="#F4CC54"/>
</g>
</svg>
