<svg viewBox="0 0 22 22" fill="none" xmlns="http://www.w3.org/2000/svg">
<mask id="mask0_344_1771" style="mask-type:luminance" maskUnits="userSpaceOnUse" x="1" y="1" width="20" height="20">
<circle cx="11" cy="11" r="10" fill="white"/>
</mask>
<g mask="url(#mask0_344_1771)">
<circle cx="10.9993" cy="10.9998" r="13.3333" fill="white"/>
<path d="M10.0112 9.13793L6.49805 7.65862C6.52701 5.88552 6.74632 5 7.3215 5C7.94218 5 7.94218 6.44828 11.0456 6.44828C14.1491 6.44828 14.1491 5 14.7698 5C15.3449 5 15.5643 5.88552 15.5932 7.65862L12.0801 9.13793H10.0112Z" fill="#405B73"/>
<path d="M15.6839 10.5239C15.8235 10.7568 15.9446 11.0003 16.046 11.2522C16.1017 11.3834 16.1507 11.5174 16.1929 11.6536C16.3434 12.1103 16.4216 12.5878 16.4246 13.0687C16.4246 14.4736 15.7067 15.5142 14.5708 16.1722C13.6274 16.7205 12.3943 16.9998 11.0453 16.9998C9.69636 16.9998 8.46326 16.7205 7.51981 16.1722C6.38395 15.5142 5.66602 14.4736 5.66602 13.0687C5.66907 12.5878 5.74725 12.1103 5.89774 11.6536C5.93995 11.5174 5.98898 11.3834 6.04464 11.2522C6.14608 11.0003 6.26714 10.7568 6.40671 10.5239L10.0108 9.1377H12.0798L15.6839 10.5239Z" fill="#405B73"/>
<ellipse cx="11.0455" cy="14.5174" rx="2.06897" ry="2.48276" fill="#F4CC54"/>
<path d="M11.0461 16.9999H7.322C7.09375 16.9993 6.90888 16.8144 6.9082 16.5862C6.90989 16.3583 7.09417 16.1741 7.322 16.1724H7.52062C8.46407 16.7206 9.69717 16.9999 11.0461 16.9999Z" fill="#F4CC54"/>
<path d="M15.1829 16.5862C15.1822 16.8144 14.9973 16.9993 14.7691 16.9999H11.0449C12.3939 16.9999 13.627 16.7206 14.5704 16.1724H14.7691C14.9969 16.1741 15.1812 16.3583 15.1829 16.5862Z" fill="#F4CC54"/>
<path d="M10.0116 9.13781C10.0107 10.2791 9.08502 11.2038 7.94371 11.2035C6.8024 11.2032 5.87726 10.278 5.87695 9.13671C5.87665 7.9954 6.8013 7.06976 7.94261 7.06885C9.08527 7.06885 10.0116 7.99516 10.0116 9.13781Z" fill="#E7E8E8"/>
<path d="M16.2183 9.13784C16.2201 10.1248 15.5259 10.9762 14.5588 11.173C13.5916 11.3699 12.6198 10.8575 12.2358 9.94832C11.8518 9.03914 12.1621 7.98528 12.9775 7.42921C13.7928 6.87314 14.8872 6.96907 15.5934 7.65853C15.9932 8.04687 16.2186 8.58054 16.2183 9.13784Z" fill="#E7E8E8"/>
<path d="M11.8307 9.70764C11.8307 10.1578 11.015 11.5939 11.015 11.5939C11.015 11.5939 10.1992 10.1578 10.1992 9.70764C10.1992 9.25748 10.5644 8.89258 11.015 8.89258C11.4655 8.89258 11.8307 9.25751 11.8307 9.70764Z" fill="#F4CC54"/>
<ellipse cx="8.14803" cy="9.13778" rx="0.62069" ry="0.62069" fill="#405B73"/>
<circle cx="13.941" cy="9.13778" r="0.62069" fill="#405B73"/>
</g>
<circle cx="11" cy="11" r="10" stroke="#EDF4F3"/>
</svg>
