<svg width="56" height="56" viewBox="0 0 56 56" fill="none" xmlns="http://www.w3.org/2000/svg">
<mask id="mask0_1350_2462" style="mask-type:luminance" maskUnits="userSpaceOnUse" x="0" y="0" width="56" height="56">
<circle cx="28" cy="28" r="28" fill="white"/>
</mask>
<g mask="url(#mask0_1350_2462)">
<circle cx="28" cy="28" r="28" fill="white"/>
<path fill-rule="evenodd" clip-rule="evenodd" d="M22.0389 20.714C19.4782 20.714 17.4023 22.7898 17.4023 25.3505C17.4015 26.5805 17.8897 27.7603 18.7594 28.6301C19.6291 29.4998 20.8089 29.988 22.0389 29.9871C24.5996 29.9871 26.6755 27.9112 26.6755 25.3505C26.6755 22.7898 24.5996 20.714 22.0389 20.714ZM19.3894 25.3505C19.3894 23.8873 20.5756 22.7011 22.0389 22.7011C23.5022 22.7011 24.6884 23.8873 24.6884 25.3505C24.6884 26.8138 23.5022 28 22.0389 28C20.5756 28 19.3894 26.8138 19.3894 25.3505Z" fill="#E7E8E8"/>
<path fill-rule="evenodd" clip-rule="evenodd" d="M38.5983 25.3506C38.5983 22.7899 36.5225 20.714 33.9618 20.714C32.7318 20.7131 31.552 21.2013 30.6822 22.071C29.8125 22.9408 29.3243 24.1206 29.3252 25.3506C29.3252 27.9113 31.4011 29.9871 33.9618 29.9871C36.5225 29.9871 38.5983 27.9113 38.5983 25.3506ZM33.9618 22.7011C35.425 22.7011 36.6112 23.8873 36.6112 25.3506C36.6112 26.8138 35.425 28 33.9618 28C32.4985 28 31.3123 26.8138 31.3123 25.3506C31.3123 23.8873 32.4985 22.7011 33.9618 22.7011Z" fill="#E7E8E8"/>
<circle cx="22.0391" cy="25.3505" r="2.64946" fill="#E7E8E8"/>
<circle cx="33.961" cy="25.3505" r="2.64946" fill="#E7E8E8"/>
<path d="M29.993 44.5592L30.6554 47.2087L28.0059 48.5334L25.3564 47.2087L26.0188 44.5592H29.993Z" fill="#405B73"/>
<path d="M26.0133 44.5592L25.3509 47.2087L22.0391 47.871L24.0262 44.5592H26.0133Z" fill="#405B73"/>
<path d="M31.9851 44.5592L33.9722 47.871L30.6604 47.2087L29.998 44.5592H31.9851Z" fill="#405B73"/>
<path d="M13.4285 42.5721V44.5592H11.4414V40.585H13.4285V42.5721Z" fill="#405B73"/>
<path d="M11.441 40.585V44.5592H9.45389C8.35645 44.5592 7.4668 43.6695 7.4668 42.5721C7.4668 41.4746 8.35645 40.585 9.45389 40.585H11.441Z" fill="#405B73"/>
<path d="M48.5333 42.5721L44.4598 43.7974L43.2344 42.5721L44.4598 41.3467L48.5333 42.5721Z" fill="#393D48"/>
<path d="M44.4598 41.3467L43.2344 42.5721L44.4598 43.7974L41.9097 44.5592L40.585 42.5721L41.9097 40.585L44.4598 41.3467Z" fill="#FFD6BD"/>
<path d="M40.5847 42.572L41.9095 44.5591H31.974H29.9869H26.0127H24.0256H13.4277V42.572H40.5847Z" fill="#F4CC54"/>
<path d="M41.9095 40.585L40.5847 42.5721H13.4277V40.585H16.7396H39.26H41.9095Z" fill="#F4CC54"/>
<path d="M39.2607 11.4409L36.6112 12.3748L28.0005 15.4151L19.3897 12.3748L16.7402 11.4409L28.0005 7.46667L39.2607 11.4409Z" fill="#405B73"/>
<path d="M36.6112 12.3748V16.7397C36.6027 16.9859 36.5063 17.2209 36.3396 17.4021C35.3858 18.548 32.021 19.3892 28.0004 19.3892C23.8341 19.3892 20.3633 18.4818 19.5619 17.2696C19.4528 17.1142 19.3928 16.9296 19.3896 16.7397V12.3748L28.0004 15.415L36.6112 12.3748Z" fill="#F4CC54"/>
<path d="M16.7398 29.3247C16.7398 29.3247 19.3892 33.2989 19.3892 35.9484C19.4005 36.4788 19.1948 36.9908 18.8197 37.3659C18.4446 37.7411 17.9325 37.9468 17.4021 37.9355C16.6473 37.8973 15.9592 37.4914 15.5608 36.8492C15.4636 36.1113 15.4149 35.3679 15.415 34.6236C15.415 30.6494 16.7398 29.3247 16.7398 29.3247V29.3247Z" fill="#F4CC54"/>
<path d="M40.585 34.6236C40.5851 35.3679 40.5364 36.1113 40.4393 36.8492C40.0408 37.4914 39.3527 37.8973 38.5979 37.9355C38.0675 37.9468 37.5555 37.7411 37.1803 37.3659C36.8052 36.9908 36.5995 36.4788 36.6108 35.9484C36.6108 33.2989 39.2603 29.3247 39.2603 29.3247C39.2603 29.3247 40.585 30.6494 40.585 34.6236Z" fill="#F4CC54"/>
<path fill-rule="evenodd" clip-rule="evenodd" d="M39.2599 40.5849C39.9037 39.4331 40.3049 38.1618 40.4389 36.8492C40.0405 37.4914 39.3524 37.8973 38.5976 37.9355C38.0672 37.9468 37.5551 37.7411 37.18 37.3659C36.8049 36.9908 36.5992 36.4788 36.6105 35.9484C36.6105 33.2989 39.2599 29.3247 39.2599 29.3247C40.181 28.2112 40.6534 26.794 40.5847 25.3505C40.5847 22.0387 38.5976 20.714 38.5976 20.714L39.2599 17.4021H36.3389C35.3851 18.548 32.0203 19.3892 27.9997 19.3892C23.8334 19.3892 20.3626 18.4818 19.5612 17.2697L19.389 17.4021H16.7395L17.4019 20.714C17.4019 20.714 15.4148 22.0387 15.4148 25.3505C15.346 26.794 15.8184 28.2112 16.7395 29.3247C16.7395 29.3247 19.389 33.2989 19.389 35.9484C19.4003 36.4788 19.1946 36.9908 18.8194 37.3659C18.4443 37.7411 17.9323 37.9468 17.4019 37.9355C16.6471 37.8973 15.9589 37.4914 15.5605 36.8492C15.6945 38.1618 16.0958 39.4331 16.7395 40.5849H39.2599ZM29.3245 25.3505C29.3245 27.9112 31.4003 29.9871 33.961 29.9871C36.5217 29.9871 38.5976 27.9112 38.5976 25.3505C38.5976 22.7898 36.5217 20.714 33.961 20.714C32.7311 20.7131 31.5512 21.2013 30.6815 22.071C29.8118 22.9407 29.3236 24.1206 29.3245 25.3505ZM22.0384 20.714C24.5991 20.714 26.675 22.7898 26.675 25.3505C26.6759 26.5805 26.1877 27.7603 25.3179 28.63C24.4482 29.4997 23.2684 29.988 22.0384 29.9871C19.4777 29.9871 17.4019 27.9112 17.4019 25.3505C17.4019 22.7898 19.4777 20.714 22.0384 20.714ZM29.3245 27.3376L27.9997 30.6494L26.675 27.3376H29.3245Z" fill="#405B73"/>
<path d="M29.9752 27.8053C29.9752 28.8318 28.1151 32.1067 28.1151 32.1067C28.1151 32.1067 26.2549 28.8318 26.2549 27.8053C26.2549 26.7788 27.0877 25.9467 28.1151 25.9467C29.1424 25.9467 29.9752 26.7788 29.9752 27.8053Z" fill="#F4CC54"/>
<path d="M39.2605 16.7397C38.8947 16.7397 38.5981 16.4432 38.5981 16.0774V12.1032H28.0003C27.6344 12.1032 27.3379 11.8066 27.3379 11.4408C27.3379 11.075 27.6344 10.7784 28.0003 10.7784H39.2605C39.6263 10.7784 39.9228 11.075 39.9228 11.4408V16.0774C39.9228 16.4432 39.6263 16.7397 39.2605 16.7397Z" fill="#F4CC54"/>
<path d="M44.4598 43.7974L48.5333 42.572H43.2344L44.4598 43.7974Z" fill="#222430"/>
<path d="M40.585 42.572L41.9097 44.5591L44.4598 43.7974L43.2344 42.572H40.585Z" fill="#FFD6BD"/>
<circle cx="32.637" cy="25.3506" r="0.662365" fill="#405B73"/>
<circle cx="23.3635" cy="25.3506" r="0.662365" fill="#405B73"/>
<path fill-rule="evenodd" clip-rule="evenodd" d="M33.9613 20.3829C31.3483 20.3858 29.1843 22.4123 29.0101 25.0194H26.9899C26.8113 22.3463 24.5451 20.2963 21.8675 20.3856C19.1899 20.475 17.0654 22.6715 17.0654 25.3506C17.0654 28.0297 19.1899 30.2262 21.8675 30.3156C24.5451 30.4049 26.8113 28.3549 26.9899 25.6818H29.0101C29.1902 28.3771 31.4909 30.4345 34.1895 30.3133C36.888 30.1922 38.9953 27.937 38.9332 25.2365C38.8711 22.5359 36.6625 20.3799 33.9613 20.3829ZM22.0387 29.656C19.6609 29.656 17.7333 27.7284 17.7333 25.3506C17.7333 22.9728 19.6609 21.0452 22.0387 21.0452C24.4165 21.0452 26.3441 22.9728 26.3441 25.3506C26.3411 27.7272 24.4153 29.6531 22.0387 29.656ZM29.6559 25.3506C29.6559 27.7284 31.5835 29.656 33.9613 29.656C36.3378 29.6531 38.2637 27.7272 38.2666 25.3506C38.2666 22.9728 36.3391 21.0452 33.9613 21.0452C31.5835 21.0452 29.6559 22.9728 29.6559 25.3506Z" fill="#F4CC54"/>
</g>
</svg>
