<svg width="56" height="56" viewBox="0 0 56 56" fill="none" xmlns="http://www.w3.org/2000/svg">
<mask id="mask0_738_1310" style="mask-type:luminance" maskUnits="userSpaceOnUse" x="0" y="0" width="56" height="56">
<circle cx="28" cy="28" r="28" fill="white"/>
</mask>
<g mask="url(#mask0_738_1310)">
<circle cx="28" cy="28" r="37.3333" fill="white"/>
<path d="M25.2322 22.7862L15.3955 18.6441C15.4766 13.6794 16.0907 11.2 17.7012 11.2C19.4391 11.2 19.4391 15.2551 28.1287 15.2551C36.8184 15.2551 36.8184 11.2 38.5563 11.2C40.1668 11.2 40.7809 13.6794 40.862 18.6441L31.0253 22.7862H25.2322Z" fill="#405B73"/>
<path d="M41.1169 26.6675C41.5076 27.3197 41.8466 28.0015 42.1307 28.7067C42.2865 29.0742 42.4238 29.4493 42.542 29.8305C42.9633 31.1095 43.1823 32.4465 43.1908 33.793C43.1908 37.7265 41.1806 40.6405 38.0002 42.4827C35.3585 44.0179 31.9058 44.7999 28.1287 44.7999C24.3516 44.7999 20.8989 44.0179 18.2573 42.4827C15.0769 40.6405 13.0667 37.7265 13.0667 33.793C13.0752 32.4465 13.2941 31.1095 13.7155 29.8305C13.8337 29.4493 13.971 29.0742 14.1268 28.7067C14.4108 28.0015 14.7498 27.3197 15.1406 26.6675L25.2322 22.7861H31.0253L41.1169 26.6675Z" fill="#405B73"/>
<ellipse cx="28.1287" cy="37.8482" rx="5.7931" ry="6.95172" fill="#F4CC54"/>
<path d="M28.1287 44.7999H17.7012C17.0621 44.798 16.5445 44.2804 16.5425 43.6413C16.5473 43.0034 17.0632 42.4874 17.7012 42.4827H18.2573C20.899 44.0178 24.3516 44.7999 28.1287 44.7999Z" fill="#F4CC54"/>
<path d="M39.7149 43.6413C39.713 44.2804 39.1954 44.798 38.5563 44.7999H28.1287C31.9058 44.7999 35.3585 44.0178 38.0002 42.4827H38.5563C39.1942 42.4874 39.7102 43.0034 39.7149 43.6413Z" fill="#F4CC54"/>
<path d="M25.2321 22.7861C25.2296 25.9818 22.6378 28.5708 19.4421 28.57C16.2465 28.5691 13.6561 25.9787 13.6552 22.7831C13.6544 19.5874 16.2434 16.9956 19.439 16.993C22.6385 16.993 25.2321 19.5867 25.2321 22.7861Z" fill="#E7E8E8"/>
<path d="M42.6115 22.7861C42.6167 25.5496 40.6728 27.9335 37.9649 28.4846C35.2569 29.0357 32.5359 27.6012 31.4606 25.0554C30.3854 22.5097 31.2541 19.5589 33.5372 18.0019C35.8203 16.4449 38.8846 16.7135 40.862 18.644C41.9812 19.7314 42.6123 21.2257 42.6115 22.7861Z" fill="#E7E8E8"/>
<path d="M30.3282 24.3813C30.3282 25.6418 28.0441 29.663 28.0441 29.663C28.0441 29.663 25.76 25.6418 25.76 24.3813C25.76 23.1208 26.7826 22.0991 28.0441 22.0991C29.3056 22.0991 30.3282 23.1209 30.3282 24.3813Z" fill="#F4CC54"/>
<circle cx="20.0184" cy="22.7861" r="1.73793" fill="#405B73"/>
<circle cx="36.2391" cy="22.7861" r="1.73793" fill="#405B73"/>
</g>
</svg>
