<svg width="32" height="32" viewBox="0 0 32 32" fill="none" xmlns="http://www.w3.org/2000/svg">
<mask id="mask0_215_16601" style="mask-type:luminance" maskUnits="userSpaceOnUse" x="0" y="0" width="32" height="32">
<circle cx="16" cy="16" r="16" fill="white"/>
</mask>
<g mask="url(#mask0_215_16601)">
<circle cx="15.9993" cy="16.0003" r="21.3333" fill="white"/>
<path fill-rule="evenodd" clip-rule="evenodd" d="M12.5948 11.8369C11.1315 11.8369 9.94531 13.0231 9.94531 14.4864C9.94481 15.1892 10.2238 15.8634 10.7208 16.3604C11.2177 16.8574 11.8919 17.1363 12.5948 17.1358C14.058 17.1358 15.2442 15.9496 15.2442 14.4864C15.2442 13.0231 14.058 11.8369 12.5948 11.8369ZM11.0808 14.4864C11.0808 13.6502 11.7586 12.9724 12.5948 12.9724C13.4309 12.9724 14.1088 13.6502 14.1088 14.4864C14.1088 15.3225 13.4309 16.0004 12.5948 16.0004C11.7586 16.0004 11.0808 15.3225 11.0808 14.4864Z" fill="#E7E8E8"/>
<path fill-rule="evenodd" clip-rule="evenodd" d="M22.0567 14.4864C22.0567 13.0231 20.8705 11.8369 19.4073 11.8369C18.7044 11.8364 18.0302 12.1154 17.5333 12.6124C17.0363 13.1094 16.7573 13.7835 16.7578 14.4864C16.7578 15.9496 17.944 17.1358 19.4073 17.1358C20.8705 17.1358 22.0567 15.9496 22.0567 14.4864ZM19.4073 12.9724C20.2434 12.9724 20.9213 13.6502 20.9213 14.4864C20.9213 15.3225 20.2434 16.0004 19.4073 16.0004C18.5711 16.0004 17.8933 15.3225 17.8933 14.4864C17.8933 13.6502 18.5711 12.9724 19.4073 12.9724Z" fill="#E7E8E8"/>
<circle cx="12.5941" cy="14.4857" r="1.51398" fill="#E7E8E8"/>
<circle cx="19.4066" cy="14.4857" r="1.51398" fill="#E7E8E8"/>
<path d="M17.1377 25.4619L17.5162 26.9759L16.0023 27.7329L14.4883 26.9759L14.8668 25.4619H17.1377Z" fill="#405B73"/>
<path d="M14.8647 25.4619L14.4862 26.9759L12.5938 27.3544L13.7292 25.4619H14.8647Z" fill="#405B73"/>
<path d="M18.2781 25.4619L19.4135 27.3544L17.5211 26.9759L17.1426 25.4619H18.2781Z" fill="#405B73"/>
<path d="M7.67455 24.3269V25.4624H6.53906V23.1914H7.67455V24.3269Z" fill="#405B73"/>
<path d="M6.53855 23.1914V25.4624H5.40306C4.77595 25.4624 4.26758 24.954 4.26758 24.3269C4.26758 23.6998 4.77595 23.1914 5.40306 23.1914H6.53855Z" fill="#405B73"/>
<path d="M27.735 24.3272L25.4072 25.0274L24.707 24.3272L25.4072 23.627L27.735 24.3272Z" fill="#393D48"/>
<path d="M25.4056 23.6267L24.7054 24.3269L25.4056 25.0271L23.9484 25.4624L23.1914 24.3269L23.9484 23.1914L25.4056 23.6267Z" fill="#FFD6BD"/>
<path d="M23.1921 24.3271L23.9491 25.4626H18.2717H17.1362H14.8652H13.7297H7.67383V24.3271H23.1921Z" fill="#F4CC54"/>
<path d="M23.9491 23.1914L23.1921 24.3269H7.67383V23.1914H9.5663H22.4351H23.9491Z" fill="#F4CC54"/>
<path d="M22.4352 6.53757L20.9212 7.07125L16.0008 8.80854L11.0804 7.07125L9.56641 6.53757L16.0008 4.2666L22.4352 6.53757Z" fill="#405B73"/>
<path d="M20.9209 7.07129V9.56557C20.9161 9.70622 20.861 9.84049 20.7658 9.94406C20.2207 10.5989 18.298 11.0795 16.0005 11.0795C13.6198 11.0795 11.6365 10.561 11.1785 9.86836C11.1162 9.77953 11.0819 9.67406 11.0801 9.56557V7.07129L16.0005 8.80858L20.9209 7.07129Z" fill="#F4CC54"/>
<path d="M9.56558 16.7568C9.56558 16.7568 11.0796 19.0278 11.0796 20.5418C11.086 20.8449 10.9685 21.1375 10.7541 21.3518C10.5398 21.5662 10.2472 21.6837 9.94408 21.6773C9.51275 21.6555 9.11954 21.4235 8.89186 21.0565C8.83634 20.6349 8.80853 20.2101 8.80859 19.7848C8.80859 17.5138 9.56558 16.7568 9.56558 16.7568V16.7568Z" fill="#F4CC54"/>
<path d="M23.1931 19.7848C23.1932 20.2101 23.1653 20.6349 23.1098 21.0565C22.8821 21.4235 22.4889 21.6555 22.0576 21.6773C21.7545 21.6837 21.4619 21.5662 21.2476 21.3518C21.0332 21.1375 20.9157 20.8449 20.9221 20.5418C20.9221 19.0278 22.4361 16.7568 22.4361 16.7568C22.4361 16.7568 23.1931 17.5138 23.1931 19.7848Z" fill="#F4CC54"/>
<path fill-rule="evenodd" clip-rule="evenodd" d="M22.4362 23.1912C22.8041 22.533 23.0333 21.8065 23.1099 21.0565C22.8822 21.4234 22.489 21.6554 22.0577 21.6772C21.7546 21.6837 21.462 21.5661 21.2477 21.3517C21.0333 21.1374 20.9158 20.8448 20.9222 20.5417C20.9222 19.0277 22.4362 16.7568 22.4362 16.7568C22.9625 16.1205 23.2325 15.3106 23.1932 14.4858C23.1932 12.5933 22.0577 11.8363 22.0577 11.8363L22.4362 9.94386H20.767C20.222 10.5987 18.2993 11.0793 16.0018 11.0793C13.6211 11.0793 11.6378 10.5608 11.1798 9.86816L11.0814 9.94386H9.56738L9.94588 11.8363C9.94588 11.8363 8.8104 12.5933 8.8104 14.4858C8.77112 15.3106 9.04106 16.1205 9.56738 16.7568C9.56738 16.7568 11.0814 19.0277 11.0814 20.5417C11.0878 20.8448 10.9703 21.1374 10.7559 21.3517C10.5416 21.5661 10.249 21.6837 9.94588 21.6772C9.51455 21.6554 9.12135 21.4234 8.89366 21.0565C8.97025 21.8065 9.19953 22.533 9.56738 23.1912H22.4362ZM16.7588 14.4858C16.7588 15.9491 17.945 17.1353 19.4082 17.1353C20.8715 17.1353 22.0577 15.9491 22.0577 14.4858C22.0577 13.0225 20.8715 11.8363 19.4082 11.8363C18.7054 11.8358 18.0312 12.1148 17.5342 12.6118C17.0373 13.1088 16.7583 13.783 16.7588 14.4858ZM12.5953 11.8363C14.0586 11.8363 15.2448 13.0225 15.2448 14.4858C15.2453 15.1886 14.9663 15.8628 14.4693 16.3598C13.9724 16.8568 13.2982 17.1358 12.5953 17.1353C11.1321 17.1353 9.94588 15.9491 9.94588 14.4858C9.94588 13.0225 11.1321 11.8363 12.5953 11.8363ZM16.7588 15.6213L16.0018 17.5138L15.2448 15.6213H16.7588Z" fill="#405B73"/>
<path d="M17.1298 15.8882C17.1298 16.4748 16.0669 18.3462 16.0669 18.3462C16.0669 18.3462 15.0039 16.4748 15.0039 15.8882C15.0039 15.3017 15.4798 14.8262 16.0669 14.8262C16.6539 14.8262 17.1298 15.3017 17.1298 15.8882Z" fill="#F4CC54"/>
<path d="M22.436 9.56563C22.2269 9.56563 22.0575 9.39617 22.0575 9.18714V6.91617H16.0015C15.7925 6.91617 15.623 6.74671 15.623 6.53767C15.623 6.32864 15.7925 6.15918 16.0015 6.15918H22.436C22.645 6.15918 22.8144 6.32864 22.8144 6.53767V9.18714C22.8144 9.39617 22.645 9.56563 22.436 9.56563Z" fill="#F4CC54"/>
<path d="M25.4072 25.0274L27.735 24.3271H24.707L25.4072 25.0274Z" fill="#222430"/>
<path d="M23.1914 24.3271L23.9484 25.4626L25.4056 25.0274L24.7054 24.3271H23.1914Z" fill="#FFD6BD"/>
<circle cx="18.65" cy="14.4859" r="0.378495" fill="#405B73"/>
<circle cx="13.3512" cy="14.4859" r="0.378495" fill="#405B73"/>
<path fill-rule="evenodd" clip-rule="evenodd" d="M19.4067 11.6475C17.9136 11.6491 16.677 12.8072 16.5775 14.297H15.4231C15.321 12.7694 14.0261 11.598 12.496 11.6491C10.9659 11.7001 9.75195 12.9553 9.75195 14.4862C9.75195 16.0171 10.9659 17.2723 12.496 17.3233C14.0261 17.3744 15.321 16.203 15.4231 14.6754H16.5775C16.6804 16.2156 17.9951 17.3913 19.5371 17.3221C21.0792 17.2529 22.2833 15.9642 22.2478 14.421C22.2124 12.8778 20.9503 11.6458 19.4067 11.6475ZM12.5938 16.9464C11.2351 16.9464 10.1336 15.8449 10.1336 14.4862C10.1336 13.1275 11.2351 12.026 12.5938 12.026C13.9525 12.026 15.054 13.1275 15.054 14.4862C15.0524 15.8442 13.9519 16.9447 12.5938 16.9464ZM16.9465 14.4862C16.9465 15.8449 18.048 16.9464 19.4067 16.9464C20.7648 16.9447 21.8653 15.8442 21.8669 14.4862C21.8669 13.1275 20.7655 12.026 19.4067 12.026C18.048 12.026 16.9465 13.1275 16.9465 14.4862Z" fill="#F4CC54"/>
</g>
</svg>
