
<svg width="32" height="32" viewBox="0 0 32 32" fill="none" xmlns="http://www.w3.org/2000/svg">
<mask id="mask0_215_16624" style="mask-type:luminance" maskUnits="userSpaceOnUse" x="0" y="0" width="32" height="32">
<circle cx="16" cy="16" r="16" fill="white"/>
</mask>
<g mask="url(#mask0_215_16624)">
<circle cx="15.9993" cy="16.0003" r="21.3333" fill="white"/>
<path d="M14.4178 13.0211L8.79688 10.6542C8.84322 7.81722 9.19412 6.40039 10.1144 6.40039C11.1075 6.40039 11.1075 8.71763 16.073 8.71763C21.0385 8.71763 21.0385 6.40039 22.0316 6.40039C22.9519 6.40039 23.3028 7.81722 23.3492 10.6542L17.7282 13.0211H14.4178Z" fill="#405B73"/>
<path d="M23.4955 15.2394C23.7188 15.6121 23.9125 16.0017 24.0748 16.4047C24.1638 16.6147 24.2423 16.829 24.3098 17.0469C24.5506 17.7777 24.6757 18.5417 24.6806 19.3111C24.6806 21.5589 23.5319 23.224 21.7145 24.2767C20.205 25.1539 18.232 25.6008 16.0737 25.6008C13.9153 25.6008 11.9424 25.1539 10.4329 24.2767C8.61549 23.224 7.4668 21.5589 7.4668 19.3111C7.47168 18.5417 7.59677 17.7777 7.83756 17.0469C7.9051 16.829 7.98354 16.6147 8.07259 16.4047C8.23489 16.0017 8.42859 15.6121 8.6519 15.2394L14.4185 13.0215H17.7289L23.4955 15.2394Z" fill="#405B73"/>
<ellipse cx="16.074" cy="21.6277" rx="3.31034" ry="3.97241" fill="#F4CC54"/>
<path d="M16.0738 25.6005H10.1152C9.75 25.5994 9.45422 25.3036 9.45312 24.9384C9.45583 24.5739 9.75067 24.2791 10.1152 24.2764H10.433C11.9425 25.1536 13.9155 25.6005 16.0738 25.6005Z" fill="#F4CC54"/>
<path d="M22.6949 24.9384C22.6938 25.3036 22.398 25.5994 22.0328 25.6005H16.0742C18.2326 25.6005 20.2055 25.1536 21.715 24.2764H22.0328C22.3974 24.2791 22.6922 24.5739 22.6949 24.9384Z" fill="#F4CC54"/>
<path d="M14.4181 13.0213C14.4167 14.8474 12.9356 16.3268 11.1095 16.3263C9.28345 16.3258 7.80322 14.8456 7.80273 13.0195C7.80225 11.1934 9.28168 9.7124 11.1078 9.71094C12.936 9.71094 14.4181 11.193 14.4181 13.0213Z" fill="#E7E8E8"/>
<path d="M24.3504 13.0213C24.3534 14.6005 23.2426 15.9627 21.6952 16.2776C20.1478 16.5925 18.5929 15.7728 17.9785 14.3181C17.3641 12.8634 17.8605 11.1772 19.1651 10.2875C20.4697 9.3978 22.2207 9.55129 23.3507 10.6544C23.9902 11.2758 24.3509 12.1296 24.3504 13.0213V13.0213Z" fill="#E7E8E8"/>
<path d="M17.3311 13.933C17.3311 14.6533 16.0259 16.9511 16.0259 16.9511C16.0259 16.9511 14.7207 14.6533 14.7207 13.933C14.7207 13.2128 15.3051 12.6289 16.0259 12.6289C16.7468 12.6289 17.3311 13.2128 17.3311 13.933Z" fill="#F4CC54"/>
<circle cx="11.4384" cy="13.0214" r="0.993103" fill="#405B73"/>
<circle cx="20.7079" cy="13.0214" r="0.993103" fill="#405B73"/>
</g>
</svg>
