<svg width="48" height="48" viewBox="0 0 22 22" fill="none" xmlns="http://www.w3.org/2000/svg">
<mask id="mask0_344_1727" style="mask-type:luminance" maskUnits="userSpaceOnUse" x="1" y="1" width="20" height="20">
<circle cx="11" cy="11" r="10" fill="white"/>
</mask>
<g mask="url(#mask0_344_1727)">
<circle cx="10.9993" cy="10.9998" r="13.3333" fill="white"/>
<path fill-rule="evenodd" clip-rule="evenodd" d="M8.87076 8.39746C7.95622 8.39746 7.21484 9.13884 7.21484 10.0534C7.21453 10.4926 7.38889 10.914 7.6995 11.2246C8.01012 11.5352 8.43149 11.7096 8.87076 11.7093C9.7853 11.7093 10.5267 10.9679 10.5267 10.0534C10.5267 9.13884 9.7853 8.39746 8.87076 8.39746ZM7.92452 10.0534C7.92452 9.53078 8.34817 9.10714 8.87076 9.10714C9.39335 9.10714 9.817 9.53078 9.817 10.0534C9.817 10.576 9.39335 10.9996 8.87076 10.9996C8.34817 10.9996 7.92452 10.576 7.92452 10.0534Z" fill="#E7E8E8"/>
<path fill-rule="evenodd" clip-rule="evenodd" d="M14.7845 10.0534C14.7845 9.13884 14.0431 8.39746 13.1286 8.39746C12.6893 8.39715 12.2679 8.57151 11.9573 8.88212C11.6467 9.19273 11.4723 9.6141 11.4727 10.0534C11.4727 10.9679 12.214 11.7093 13.1286 11.7093C14.0431 11.7093 14.7845 10.9679 14.7845 10.0534ZM13.1286 9.10714C13.6512 9.10714 14.0748 9.53078 14.0748 10.0534C14.0748 10.576 13.6512 10.9996 13.1286 10.9996C12.606 10.9996 12.1823 10.576 12.1823 10.0534C12.1823 9.53078 12.606 9.10714 13.1286 9.10714Z" fill="#E7E8E8"/>
<circle cx="8.87006" cy="10.0537" r="0.946237" fill="#E7E8E8"/>
<ellipse cx="13.1279" cy="10.0537" rx="0.946236" ry="0.946237" fill="#E7E8E8"/>
<path d="M11.7126 16.9136L11.9491 17.8598L11.0029 18.3329L10.0566 17.8598L10.2932 16.9136H11.7126Z" fill="#405B73"/>
<path d="M10.2904 16.9136L10.0539 17.8598L8.87109 18.0964L9.58077 16.9136H10.2904Z" fill="#405B73"/>
<path d="M12.4226 16.9136L13.1322 18.0964L11.9494 17.8598L11.7129 16.9136H12.4226Z" fill="#405B73"/>
<path d="M5.79561 16.2043V16.914H5.08594V15.4946H5.79561V16.2043Z" fill="#405B73"/>
<path d="M5.08537 15.4946V16.914H4.37569C3.98375 16.914 3.66602 16.5963 3.66602 16.2043C3.66602 15.8124 3.98375 15.4946 4.37569 15.4946H5.08537Z" fill="#405B73"/>
<path d="M18.3319 16.2042L16.8771 16.6419L16.4395 16.2042L16.8771 15.7666L18.3319 16.2042Z" fill="#393D48"/>
<path d="M16.878 15.7667L16.4404 16.2043L16.878 16.6419L15.9673 16.914L15.4941 16.2043L15.9673 15.4946L16.878 15.7667Z" fill="#FFD6BD"/>
<path d="M15.4938 16.2041L15.967 16.9138H12.4186H11.7089H10.2895H9.57987H5.79492V16.2041H15.4938Z" fill="#F4CC54"/>
<path d="M15.967 15.4946L15.4938 16.2043H5.79492V15.4946H6.97772H15.0207H15.967Z" fill="#F4CC54"/>
<path d="M15.0215 5.08586L14.0753 5.41941L11 6.50521L7.92475 5.41941L6.97852 5.08586L11 3.6665L15.0215 5.08586Z" fill="#405B73"/>
<path d="M14.0744 5.41943V6.97836C14.0713 7.06627 14.0369 7.15019 13.9774 7.21492C13.6367 7.62416 12.435 7.92459 10.9991 7.92459C9.51114 7.92459 8.27157 7.60051 7.98533 7.16761C7.94639 7.11208 7.92497 7.04617 7.92383 6.97836V5.41943L10.9991 6.50524L14.0744 5.41943Z" fill="#F4CC54"/>
<path d="M6.97702 11.4731C6.97702 11.4731 7.92326 12.8925 7.92326 13.8387C7.9273 14.0282 7.85383 14.211 7.71986 14.345C7.58588 14.479 7.40301 14.5525 7.21358 14.5484C6.944 14.5348 6.69825 14.3898 6.55595 14.1605C6.52125 13.8969 6.50387 13.6314 6.50391 13.3656C6.50391 11.9463 6.97702 11.4731 6.97702 11.4731V11.4731Z" fill="#F4CC54"/>
<path d="M15.4937 13.3656C15.4938 13.6314 15.4764 13.8969 15.4417 14.1605C15.2994 14.3898 15.0536 14.5348 14.7841 14.5484C14.5946 14.5525 14.4118 14.479 14.2778 14.345C14.1438 14.211 14.0703 14.0282 14.0744 13.8387C14.0744 12.8925 15.0206 11.4731 15.0206 11.4731C15.0206 11.4731 15.4937 11.9463 15.4937 13.3656Z" fill="#F4CC54"/>
<path fill-rule="evenodd" clip-rule="evenodd" d="M15.0204 15.4944C15.2503 15.083 15.3936 14.629 15.4415 14.1602C15.2992 14.3895 15.0534 14.5345 14.7839 14.5481C14.5944 14.5522 14.4116 14.4787 14.2776 14.3447C14.1436 14.2107 14.0702 14.0279 14.0742 13.8384C14.0742 12.8922 15.0204 11.4729 15.0204 11.4729C15.3494 11.0752 15.5181 10.569 15.4935 10.0535C15.4935 8.87071 14.7839 8.39759 14.7839 8.39759L15.0204 7.21479H13.9772C13.6366 7.62404 12.4348 7.92447 10.9989 7.92447C9.51097 7.92447 8.2714 7.60038 7.98516 7.16748L7.92365 7.21479H6.97742L7.21398 8.39759C7.21398 8.39759 6.5043 8.87071 6.5043 10.0535C6.47975 10.569 6.64846 11.0752 6.97742 11.4729C6.97742 11.4729 7.92365 12.8922 7.92365 13.8384C7.9277 14.0279 7.85423 14.2107 7.72025 14.3447C7.58627 14.4787 7.40341 14.5522 7.21398 14.5481C6.9444 14.5345 6.69864 14.3895 6.55634 14.1602C6.60421 14.629 6.74751 15.083 6.97742 15.4944H15.0204ZM11.472 10.0535C11.472 10.968 12.2134 11.7094 13.128 11.7094C14.0425 11.7094 14.7839 10.968 14.7839 10.0535C14.7839 9.13897 14.0425 8.39759 13.128 8.39759C12.6887 8.39727 12.2673 8.57164 11.9567 8.88225C11.6461 9.19286 11.4717 9.61423 11.472 10.0535ZM8.86989 8.39759C9.78443 8.39759 10.5258 9.13897 10.5258 10.0535C10.5261 10.4928 10.3518 10.9141 10.0411 11.2248C9.73053 11.5354 9.30916 11.7097 8.86989 11.7094C7.95536 11.7094 7.21398 10.968 7.21398 10.0535C7.21398 9.13897 7.95536 8.39759 8.86989 8.39759ZM11.472 10.7632L10.9989 11.946L10.5258 10.7632H11.472Z" fill="#405B73"/>
<path d="M11.7037 10.9304C11.7037 11.297 11.0394 12.4666 11.0394 12.4666C11.0394 12.4666 10.375 11.297 10.375 10.9304C10.375 10.5638 10.6724 10.2666 11.0394 10.2666C11.4063 10.2666 11.7037 10.5638 11.7037 10.9304Z" fill="#F4CC54"/>
<path d="M15.0217 6.97815C14.8911 6.97815 14.7852 6.87224 14.7852 6.74159V5.32224H11.0002C10.8696 5.32224 10.7637 5.21633 10.7637 5.08568C10.7637 4.95503 10.8696 4.84912 11.0002 4.84912H15.0217C15.1524 4.84912 15.2583 4.95503 15.2583 5.08568V6.74159C15.2583 6.87224 15.1524 6.97815 15.0217 6.97815Z" fill="#F4CC54"/>
<path d="M16.8771 16.6417L18.3319 16.2041H16.4395L16.8771 16.6417Z" fill="#222430"/>
<path d="M15.4941 16.2041L15.9673 16.9138L16.878 16.6417L16.4404 16.2041H15.4941Z" fill="#FFD6BD"/>
<ellipse cx="12.6545" cy="10.0535" rx="0.236559" ry="0.236559" fill="#405B73"/>
<circle cx="9.34398" cy="10.0535" r="0.236559" fill="#405B73"/>
<path fill-rule="evenodd" clip-rule="evenodd" d="M13.128 8.27931C12.1948 8.28035 11.4219 9.00411 11.3597 9.93523H10.6382C10.5744 8.98053 9.76506 8.24839 8.80877 8.2803C7.85248 8.31221 7.09375 9.09668 7.09375 10.0535C7.09375 11.0103 7.85248 11.7948 8.80877 11.8267C9.76506 11.8586 10.5744 11.1265 10.6382 10.1718H11.3597C11.424 11.1344 12.2457 11.8692 13.2095 11.8259C14.1733 11.7827 14.9258 10.9772 14.9037 10.0127C14.8815 9.04826 14.0927 8.27824 13.128 8.27931ZM8.86991 11.5911C8.0207 11.5911 7.33228 10.9027 7.33228 10.0535C7.33228 9.2043 8.0207 8.51587 8.86991 8.51587C9.71912 8.51587 10.4075 9.2043 10.4075 10.0535C10.4065 10.9023 9.71869 11.5901 8.86991 11.5911ZM11.5903 10.0535C11.5903 10.9027 12.2788 11.5911 13.128 11.5911C13.9768 11.5901 14.6646 10.9023 14.6656 10.0535C14.6656 9.2043 13.9772 8.51587 13.128 8.51587C12.2788 8.51587 11.5903 9.2043 11.5903 10.0535Z" fill="#F4CC54"/>
</g>
<circle cx="11" cy="11" r="10" stroke="#EDF4F3"/>
</svg>
