<svg width="16" height="16" viewBox="0 0 16 16" fill="none" xmlns="http://www.w3.org/2000/svg">
<g clip-path="url(#clip0_599_11679)">
<path d="M8.00065 1.33301C4.31398 1.33301 1.33398 4.31301 1.33398 7.99967C1.33398 11.6863 4.31398 14.6663 8.00065 14.6663C11.6873 14.6663 14.6673 11.6863 14.6673 7.99967C14.6673 4.31301 11.6873 1.33301 8.00065 1.33301ZM10.8673 10.8663C10.6073 11.1263 10.1873 11.1263 9.92732 10.8663L8.00065 8.93967L6.07398 10.8663C5.81398 11.1263 5.39398 11.1263 5.13398 10.8663C4.87398 10.6063 4.87398 10.1863 5.13398 9.92634L7.06065 7.99967L5.13398 6.07301C4.87398 5.81301 4.87398 5.39301 5.13398 5.13301C5.39398 4.87301 5.81398 4.87301 6.07398 5.13301L8.00065 7.05967L9.92732 5.13301C10.1873 4.87301 10.6073 4.87301 10.8673 5.13301C11.1273 5.39301 11.1273 5.81301 10.8673 6.07301L8.94065 7.99967L10.8673 9.92634C11.1207 10.1797 11.1207 10.6063 10.8673 10.8663Z" fill="#D45D3A"/>
</g>
<defs>
<clipPath id="clip0_599_11679">
<rect width="16" height="16" fill="white"/>
</clipPath>
</defs>
</svg>
