<svg width="138" height="138" viewBox="0 0 138 138" fill="none" xmlns="http://www.w3.org/2000/svg">
<circle cx="69" cy="68.9997" r="68.9997" fill="white"/>
<rect x="37.0003" y="39" width="64" height="64" rx="5" fill="#405B73"/>
<path d="M37.0003 44C37.0003 41.2386 39.2389 39 42.0003 39H96.0003C98.7617 39 101 41.2386 101 44V55H37.0003V44Z" fill="#F4CC54"/>
<path d="M58.0003 49.5C58.8287 49.5 59.5003 48.8284 59.5003 48C59.5003 47.1716 58.8287 46.5 58.0003 46.5V49.5ZM59.5003 39V37.5H56.5003V39H59.5003ZM51.5003 37.5V43H54.5003V37.5H51.5003ZM51.5003 43C51.5003 46.5899 54.4105 49.5 58.0003 49.5V46.5C56.0673 46.5 54.5003 44.933 54.5003 43H51.5003ZM55.5003 33.5C53.2912 33.5 51.5003 35.2909 51.5003 37.5H54.5003C54.5003 36.9477 54.948 36.5 55.5003 36.5V33.5ZM59.5003 37.5C59.5003 35.2909 57.7094 33.5 55.5003 33.5V36.5C56.0526 36.5 56.5003 36.9477 56.5003 37.5H59.5003Z" fill="#405B73"/>
<path d="M81.0003 49.5C81.8287 49.5 82.5003 48.8284 82.5003 48C82.5003 47.1716 81.8287 46.5 81.0003 46.5V49.5ZM82.5003 39V37.5H79.5003V39H82.5003ZM74.5003 37.5V43H77.5003V37.5H74.5003ZM74.5003 43C74.5003 46.5899 77.4105 49.5 81.0003 49.5V46.5C79.0673 46.5 77.5003 44.933 77.5003 43H74.5003ZM78.5003 33.5C76.2912 33.5 74.5003 35.2909 74.5003 37.5H77.5003C77.5003 36.9477 77.948 36.5 78.5003 36.5V33.5ZM82.5003 37.5C82.5003 35.2909 80.7094 33.5 78.5003 33.5V36.5C79.0526 36.5 79.5003 36.9477 79.5003 37.5H82.5003Z" fill="#405B73"/>
<path d="M86.5317 65.4687C85.9069 64.8438 84.8939 64.8438 84.2689 65.4687L65.0999 84.6378L57.7317 77.2696C57.1069 76.6447 56.0939 76.6448 55.469 77.2696C54.8441 77.8944 54.8441 78.9074 55.469 79.5323L63.9686 88.0318C64.5932 88.6566 65.6069 88.6561 66.2313 88.0318L86.5317 67.7314C87.1565 67.1066 87.1565 66.0935 86.5317 65.4687Z" fill="#F4CC54"/>
<path d="M23.511 28.148C23.6464 28.0666 23.8087 28.0424 23.962 28.0807L25.1885 28.3864C25.3983 28.4349 25.5656 28.5928 25.6262 28.7995C25.6867 29.0061 25.6311 29.2294 25.4806 29.3834C25.3301 29.5375 25.1082 29.5983 24.9002 29.5426L23.6737 29.2368C23.4399 29.1785 23.2643 28.9851 23.2286 28.7468C23.193 28.5084 23.3044 28.2721 23.511 28.148Z" fill="#F4CC54"/>
<path d="M27.1902 29.0651C27.3257 28.9837 27.488 28.9595 27.6413 28.9978L28.8677 29.3036C29.1817 29.3877 29.3704 29.7079 29.2917 30.0233C29.2131 30.3387 28.8962 30.5329 28.5795 30.4597L27.353 30.1539C27.1192 30.0956 26.9436 29.9022 26.9079 29.6639C26.8723 29.4256 26.9837 29.1892 27.1902 29.0651Z" fill="#F4CC54"/>
<path d="M26.5755 26.3068C26.782 26.1828 27.043 26.1954 27.2367 26.3387C27.4304 26.482 27.5187 26.7279 27.4604 26.9617L27.1546 28.1882C27.1062 28.398 26.9483 28.5654 26.7416 28.6259C26.535 28.6865 26.3117 28.6308 26.1577 28.4803C26.0036 28.3299 25.9428 28.108 25.9985 27.8999L26.3043 26.6735C26.3425 26.5201 26.44 26.3883 26.5755 26.3068Z" fill="#F4CC54"/>
<path d="M25.6585 29.9856C25.865 29.8615 26.126 29.8741 26.3197 30.0174C26.5134 30.1607 26.6017 30.4066 26.5434 30.6404L26.2376 31.8669C26.1892 32.0767 26.0313 32.2441 25.8246 32.3047C25.618 32.3652 25.3947 32.3095 25.2407 32.1591C25.0866 32.0086 25.0258 31.7867 25.0815 31.5787L25.3873 30.3522C25.4255 30.1988 25.523 30.067 25.6585 29.9856Z" fill="#F4CC54"/>
<path d="M27.5812 47.5145C28.5734 46.2565 28.9753 44.6318 28.6841 43.0563C28.6626 42.9327 28.7208 42.8089 28.8296 42.7466C28.9385 42.6843 29.0747 42.6969 29.1703 42.778C30.4269 43.7653 32.0453 44.1688 33.6183 43.887C33.7429 43.8573 33.8724 43.9117 33.9384 44.0215C34.0043 44.1312 33.9916 44.2711 33.9068 44.3671C32.9142 45.6211 32.51 47.242 32.7978 48.8152C32.8275 48.9397 32.7732 49.0692 32.6634 49.1352C32.5536 49.2011 32.4137 49.1884 32.3177 49.1036C31.0616 48.1075 29.4351 47.7052 27.8595 48.0008C27.7359 48.0223 27.6121 47.9641 27.5498 47.8552C27.4875 47.7464 27.5001 47.6102 27.5812 47.5145Z" fill="#F4CC54"/>
<circle cx="31.8624" cy="35.8625" r="2.08604" transform="rotate(149 31.8624 35.8625)" fill="#405B73"/>
<path d="M38.2179 33.086C38.7154 32.3179 38.9427 31.4059 38.8642 30.4941C38.8474 30.3782 38.9018 30.2635 39.0022 30.2032C39.1026 30.1428 39.2294 30.1486 39.3238 30.2179C40.0914 30.7168 41.0039 30.9443 41.9158 30.8641C42.0317 30.8473 42.1464 30.9017 42.2067 31.0021C42.267 31.1025 42.2612 31.2293 42.192 31.3238C41.6931 32.0914 41.4656 33.0038 41.5457 33.9158C41.5625 34.0317 41.5081 34.1464 41.4077 34.2067C41.3073 34.267 41.1805 34.2612 41.0861 34.192C40.3179 33.6945 39.4059 33.4671 38.4941 33.5457C38.3782 33.5625 38.2635 33.5081 38.2032 33.4077C38.1429 33.3073 38.1487 33.1805 38.2179 33.086Z" fill="#F4CC54"/>
<path d="M96.7874 109.048C96.6965 109.127 96.5779 109.167 96.4578 109.159L95.4966 109.091C95.3326 109.083 95.1861 108.986 95.1133 108.839C95.0405 108.692 95.0527 108.517 95.1453 108.382C95.2379 108.246 95.3964 108.171 95.5599 108.185L96.5211 108.253C96.7044 108.265 96.8618 108.387 96.9201 108.562C96.9784 108.736 96.926 108.928 96.7874 109.048Z" fill="#405B73"/>
<path d="M93.9039 108.847C93.8129 108.926 93.6944 108.965 93.5742 108.957L92.613 108.89C92.3662 108.868 92.1822 108.653 92.1995 108.406C92.2167 108.158 92.4289 107.971 92.6764 107.984L93.6376 108.051C93.8208 108.064 93.9783 108.186 94.0365 108.36C94.0948 108.534 94.0425 108.726 93.9039 108.847Z" fill="#405B73"/>
<path d="M94.7307 110.836C94.592 110.957 94.3944 110.982 94.2301 110.9C94.0657 110.818 93.9668 110.645 93.9796 110.462L94.0468 109.501C94.0554 109.337 94.1518 109.19 94.2989 109.117C94.4461 109.045 94.621 109.057 94.7566 109.149C94.8922 109.242 94.9672 109.401 94.9529 109.564L94.8857 110.525C94.8773 110.645 94.8215 110.757 94.7307 110.836Z" fill="#405B73"/>
<path d="M94.9323 107.953C94.7936 108.073 94.5961 108.098 94.4317 108.016C94.2673 107.934 94.1685 107.762 94.1813 107.578L94.2485 106.617C94.2571 106.453 94.3535 106.307 94.5006 106.234C94.6477 106.161 94.8227 106.173 94.9582 106.266C95.0938 106.358 95.1688 106.517 95.1545 106.681L95.0873 107.642C95.0789 107.762 95.0232 107.874 94.9323 107.953Z" fill="#405B73"/>
<path d="M113.787 107.048C113.697 107.127 113.578 107.167 113.458 107.159L112.497 107.091C112.333 107.083 112.186 106.986 112.113 106.839C112.04 106.692 112.053 106.517 112.145 106.382C112.238 106.246 112.396 106.171 112.56 106.185L113.521 106.253C113.704 106.265 113.862 106.387 113.92 106.562C113.978 106.736 113.926 106.928 113.787 107.048Z" fill="#F4CC54"/>
<path d="M110.904 106.847C110.813 106.926 110.694 106.965 110.574 106.957L109.613 106.89C109.366 106.868 109.182 106.653 109.199 106.406C109.217 106.158 109.429 105.971 109.676 105.984L110.638 106.051C110.821 106.064 110.978 106.186 111.037 106.36C111.095 106.534 111.042 106.726 110.904 106.847Z" fill="#F4CC54"/>
<path d="M111.731 108.836C111.592 108.957 111.394 108.982 111.23 108.9C111.066 108.818 110.967 108.645 110.98 108.462L111.047 107.501C111.055 107.337 111.152 107.19 111.299 107.117C111.446 107.045 111.621 107.057 111.757 107.149C111.892 107.242 111.967 107.401 111.953 107.564L111.886 108.525C111.877 108.645 111.822 108.757 111.731 108.836Z" fill="#F4CC54"/>
<path d="M111.932 105.953C111.794 106.073 111.596 106.098 111.432 106.016C111.267 105.934 111.168 105.762 111.181 105.578L111.248 104.617C111.257 104.453 111.353 104.307 111.501 104.234C111.648 104.161 111.823 104.173 111.958 104.266C112.094 104.358 112.169 104.517 112.155 104.681L112.087 105.642C112.079 105.762 112.023 105.874 111.932 105.953Z" fill="#F4CC54"/>
<path d="M104.344 105.695C103.766 106.771 103.679 108.043 104.106 109.188C104.139 109.278 104.111 109.378 104.038 109.439C103.964 109.501 103.86 109.509 103.778 109.461C102.704 108.886 101.435 108.797 100.292 109.217C100.202 109.256 100.098 109.232 100.034 109.159C99.9699 109.085 99.9609 108.978 100.012 108.895C100.591 107.822 100.68 106.552 100.256 105.409C100.217 105.319 100.24 105.215 100.314 105.151C100.388 105.087 100.495 105.078 100.578 105.129C101.653 105.71 102.927 105.797 104.071 105.367C104.161 105.334 104.261 105.361 104.322 105.435C104.383 105.508 104.392 105.612 104.344 105.695Z" fill="#F4CC54"/>
<circle cx="111.244" cy="91.2438" r="1.59014" transform="rotate(-41 111.244 91.2438)" fill="#F4CF5F"/>
<circle cx="108.244" cy="99.2438" r="1.59014" transform="rotate(-41 108.244 99.2438)" fill="#405B73"/>
<path d="M105.887 92.5871C105.615 93.2296 105.565 93.9443 105.745 94.6184C105.773 94.7032 105.747 94.7965 105.68 94.8551C105.612 94.9136 105.516 94.9261 105.436 94.8866C104.794 94.6137 104.079 94.5637 103.405 94.7445C103.32 94.7725 103.227 94.7468 103.168 94.6794C103.11 94.6121 103.097 94.5161 103.137 94.436C103.41 93.7938 103.46 93.0787 103.279 92.4047C103.251 92.3199 103.276 92.2266 103.344 92.168C103.411 92.1095 103.507 92.097 103.587 92.1365C104.23 92.4083 104.944 92.4582 105.619 92.2786C105.703 92.2506 105.797 92.2763 105.855 92.3437C105.914 92.411 105.926 92.507 105.887 92.5871Z" fill="#F4CC54"/>
</svg>
