<svg width="138" height="138" viewBox="0 0 138 138" fill="none" xmlns="http://www.w3.org/2000/svg">
<path d="M110.64 69.0871C110.621 69.2244 110.548 69.3486 110.438 69.4325L109.556 70.1034C109.408 70.2203 109.208 70.2482 109.034 70.1762C108.859 70.1043 108.737 69.9438 108.714 69.7564C108.692 69.569 108.772 69.3839 108.924 69.2722L109.806 68.6012C109.974 68.4733 110.202 68.4593 110.385 68.5656C110.567 68.672 110.668 68.8778 110.64 69.0871Z" fill="#405B73"/>
<path d="M107.994 71.1001C107.976 71.2373 107.903 71.3616 107.793 71.4454L106.911 72.1164C106.681 72.285 106.359 72.2383 106.186 72.0116C106.014 71.7848 106.055 71.4616 106.279 71.2851L107.16 70.6142C107.329 70.4863 107.557 70.4722 107.74 70.5786C107.922 70.6849 108.023 70.8908 107.994 71.1001Z" fill="#405B73"/>
<path d="M110.218 72.1927C110.189 72.402 110.038 72.5736 109.833 72.6274C109.629 72.6813 109.413 72.6068 109.285 72.4387L108.614 71.5569C108.497 71.4087 108.469 71.2089 108.541 71.0344C108.613 70.8598 108.773 70.7377 108.961 70.7149C109.148 70.6921 109.333 70.7722 109.445 70.9244L110.116 71.8062C110.2 71.9164 110.236 72.0555 110.218 72.1927Z" fill="#405B73"/>
<path d="M108.205 69.5472C108.176 69.7565 108.024 69.9281 107.82 69.9819C107.616 70.0358 107.399 69.9613 107.271 69.7932L106.6 68.9114C106.484 68.7631 106.456 68.5634 106.528 68.3888C106.6 68.2143 106.76 68.0922 106.947 68.0694C107.135 68.0466 107.32 68.1267 107.432 68.2789L108.103 69.1607C108.187 69.2709 108.223 69.41 108.205 69.5472Z" fill="#405B73"/>
<circle cx="98.5803" cy="44.5798" r="1.82866" transform="rotate(-41 98.5803 44.5798)" fill="#405B73"/>
<path d="M107.47 46.825C107.157 47.5639 107.1 48.3858 107.307 49.161C107.339 49.2585 107.309 49.3658 107.232 49.4331C107.154 49.5005 107.044 49.5148 106.952 49.4694C106.213 49.1555 105.391 49.098 104.616 49.306C104.518 49.3382 104.411 49.3087 104.344 49.2312C104.276 49.1537 104.262 49.0433 104.307 48.9513C104.621 48.2127 104.679 47.3903 104.471 46.6152C104.439 46.5177 104.468 46.4104 104.546 46.3431C104.623 46.2757 104.733 46.2614 104.825 46.3068C105.564 46.6193 106.386 46.6768 107.161 46.4702C107.259 46.438 107.366 46.4675 107.434 46.545C107.501 46.6225 107.515 46.7329 107.47 46.825Z" fill="#F4CC54"/>
<path d="M21.588 42.4701C21.7438 42.3766 21.9303 42.3487 22.1067 42.3927L23.5171 42.7444C23.7584 42.8001 23.9509 42.9817 24.0205 43.2193C24.0901 43.457 24.0261 43.7137 23.8531 43.8909C23.68 44.068 23.4248 44.138 23.1856 44.0739L21.7752 43.7223C21.5063 43.6552 21.3043 43.4328 21.2633 43.1587C21.2223 42.8847 21.3505 42.6129 21.588 42.4701Z" fill="#F4CC54"/>
<path d="M25.8191 43.5248C25.9749 43.4313 26.1615 43.4034 26.3378 43.4474L27.7482 43.7991C28.1093 43.8958 28.3263 44.2641 28.2358 44.6268C28.1454 44.9895 27.781 45.2128 27.4167 45.1287L26.0063 44.777C25.7374 44.7099 25.5354 44.4875 25.4945 44.2134C25.4535 43.9394 25.5816 43.6676 25.8191 43.5248Z" fill="#F4CC54"/>
<path d="M25.1121 40.3528C25.3497 40.2102 25.6498 40.2246 25.8725 40.3894C26.0953 40.5543 26.1968 40.8371 26.1298 41.1059L25.7782 42.5164C25.7224 42.7577 25.5408 42.9501 25.3032 43.0198C25.0655 43.0894 24.8088 43.0254 24.6316 42.8524C24.4545 42.6793 24.3845 42.4241 24.4486 42.1849L24.8002 40.7744C24.8442 40.5981 24.9564 40.4465 25.1121 40.3528Z" fill="#F4CC54"/>
<path d="M24.0574 44.5834C24.295 44.4407 24.5951 44.4552 24.8178 44.62C25.0406 44.7849 25.1421 45.0676 25.0751 45.3365L24.7235 46.747C24.6678 46.9883 24.4862 47.1807 24.2485 47.2504C24.0108 47.32 23.7541 47.256 23.5769 47.0829C23.3998 46.9099 23.3298 46.6547 23.3939 46.4155L23.7456 45.005C23.7895 44.8287 23.9017 44.677 24.0574 44.5834Z" fill="#F4CC54"/>
<path d="M24.2403 58.688C25.3814 57.2412 25.8436 55.3729 25.5086 53.561C25.4839 53.4189 25.5508 53.2766 25.676 53.2049C25.8012 53.1333 25.9578 53.1477 26.0678 53.241C27.5129 54.3764 29.3741 54.8404 31.183 54.5164C31.3263 54.4822 31.4752 54.5447 31.551 54.671C31.6269 54.7972 31.6122 54.9581 31.5147 55.0685C30.3732 56.5105 29.9085 58.3746 30.2394 60.1837C30.2736 60.327 30.211 60.4759 30.0848 60.5518C29.9585 60.6276 29.7977 60.6129 29.6873 60.5155C28.2427 59.3699 26.3723 58.9072 24.5603 59.2472C24.4182 59.2719 24.2758 59.205 24.2042 59.0798C24.1326 58.9546 24.147 58.798 24.2403 58.688Z" fill="#F4CC54"/>
<circle cx="35.2926" cy="47.2918" r="2.39895" transform="rotate(149 35.2926 47.2918)" fill="#405B73"/>
<path d="M33.4003 38.6985C33.9724 37.8151 34.2338 36.7663 34.1435 35.7177C34.1242 35.5844 34.1867 35.4525 34.3022 35.3832C34.4177 35.3138 34.5635 35.3205 34.6721 35.4001C35.5548 35.9738 36.6042 36.2354 37.6529 36.1433C37.7862 36.124 37.918 36.1865 37.9874 36.302C38.0568 36.4174 38.0501 36.5633 37.9705 36.6719C37.3968 37.5546 37.1351 38.6039 37.2273 39.6526C37.2466 39.7859 37.184 39.9178 37.0686 39.9872C36.9531 40.0566 36.8073 40.0499 36.6987 39.9703C35.8153 39.3982 34.7665 39.1367 33.7179 39.2271C33.5846 39.2464 33.4527 39.1838 33.3834 39.0684C33.314 38.9529 33.3207 38.8071 33.4003 38.6985Z" fill="#F4CC54"/>
<path d="M34.0239 58.7601C34.165 58.0124 34.6424 57.3725 35.3008 56.9918L51.2927 41L65.9507 26.3421C67.5181 24.7746 70.0614 24.7808 71.6212 26.3558L79.9995 34.8159L102.175 56.9918C102.834 57.3725 103.311 58.0125 103.452 58.7601L102.532 59.5005L103 59.9999L69.9999 86.9999L42.9201 65.9158L34.0239 58.7601Z" fill="#E3BC44"/>
<g clip-path="url(#clip0_1206_9465)">
<circle cx="62.9999" cy="73.9999" r="15" transform="rotate(-8.47452 62.9999 73.9999)" fill="#E7E8E8"/>
<mask id="mask0_1206_9465" style="mask-type:luminance" maskUnits="userSpaceOnUse" x="47" y="58" width="32" height="32">
<circle cx="62.9999" cy="73.9999" r="15" transform="rotate(-8.47452 62.9999 73.9999)" fill="white"/>
</mask>
<g mask="url(#mask0_1206_9465)">
<path d="M61.1215 71.4559L55.5823 70.0378C55.2334 67.4008 55.363 66.0385 56.2163 65.9114C57.1372 65.7742 57.4573 67.9228 62.0617 67.2368C66.666 66.5508 66.3459 64.4021 67.2667 64.2649C68.1201 64.1377 68.6412 65.403 69.0761 68.0272L64.191 70.9986L61.1215 71.4559Z" fill="#405B73"/>
<path d="M69.8445 72.2585C70.1031 72.5732 70.3365 72.9077 70.5427 73.2589C70.6543 73.4414 70.7566 73.6293 70.8494 73.822C71.1736 74.4664 71.3952 75.1575 71.506 75.8703C71.8165 77.9545 70.9814 79.6572 69.4417 80.8844C68.1632 81.9064 66.3955 82.5934 64.3941 82.8916C62.3927 83.1898 60.5015 83.048 58.9806 82.4431C57.15 81.7181 55.8548 80.3328 55.5443 78.2486C55.4425 77.5344 55.4529 76.8087 55.5752 76.0977C55.6078 75.8864 55.6509 75.6768 55.7044 75.4698C55.7993 75.0737 55.925 74.6857 56.0806 74.3093L61.1214 71.4559L64.1909 70.9986L69.8445 72.2585Z" fill="#405B73"/>
<ellipse cx="63.8454" cy="79.2081" rx="3.10345" ry="3.72414" transform="rotate(-8.47452 63.8454 79.2081)" fill="#F4CC54"/>
<path d="M64.3943 82.8916L58.8691 83.7148C58.5303 83.7643 58.2152 83.5309 58.1637 83.1924C58.1159 82.854 58.3485 82.5399 58.6862 82.487L58.9809 82.4431C60.5018 83.048 62.393 83.1898 64.3943 82.8916Z" fill="#F4CC54"/>
<path d="M70.442 81.3629C70.4915 81.7017 70.2581 82.0168 69.9196 82.0683L64.3944 82.8915C66.3957 82.5933 68.1634 81.9064 69.442 80.8844L69.7366 80.8405C70.075 80.7926 70.3892 81.0253 70.442 81.3629Z" fill="#F4CC54"/>
<path d="M61.1214 71.4559C61.3723 73.1494 60.2034 74.7258 58.5101 74.9776C56.8167 75.2295 55.2396 74.0614 54.9869 72.3682C54.7342 70.675 55.9014 69.0973 57.5944 68.8437C59.2897 68.5911 60.8688 69.7606 61.1214 71.4559Z" fill="#E7E8E8"/>
<path d="M70.3301 70.0839C70.5511 71.5478 69.7093 72.9644 68.3179 73.4702C66.9266 73.976 65.3716 73.4307 64.6009 72.1667C63.8301 70.9027 64.0575 69.2706 65.1443 68.2653C66.2311 67.2601 67.876 67.1605 69.0761 68.0273C69.755 68.5151 70.2074 69.257 70.3301 70.0839Z" fill="#E7E8E8"/>
<path d="M63.9479 71.8988C64.0474 72.5666 63.1546 74.8777 63.1546 74.8777C63.1546 74.8777 61.6269 72.9273 61.5273 72.2594C61.4278 71.5915 61.889 70.9694 62.5574 70.8698C63.2259 70.7703 63.8484 71.2309 63.9479 71.8988Z" fill="#F4CC54"/>
<circle cx="58.3589" cy="71.8675" r="0.931035" transform="rotate(-8.47452 58.3589 71.8675)" fill="#405B73"/>
<circle cx="66.9536" cy="70.5869" r="0.931035" transform="rotate(-8.47452 66.9536 70.5869)" fill="#405B73"/>
</g>
</g>
<path d="M103.454 58.7585L70.2173 84.6096C69.3226 85.306 68.0692 85.3049 67.1751 84.6074L34.0673 58.7763C34.0439 58.8324 34.0178 58.9451 34.0245 59.0623V102.222C34.0245 103.651 35.2507 104.821 36.7496 104.821H100.776C102.274 104.821 103.5 103.651 103.5 102.222C103.5 101.383 103.5 60.0114 103.5 59.0623C103.5 58.9596 103.486 58.8435 103.454 58.7585Z" fill="#F4CC54"/>
<path d="M115.1 60.7672C114.435 62.0043 114.335 63.468 114.826 64.7838C114.864 64.8872 114.832 65.003 114.748 65.0733C114.663 65.1437 114.544 65.1536 114.449 65.0981C113.214 64.4371 111.755 64.3351 110.44 64.8178C110.337 64.8624 110.217 64.8352 110.143 64.7504C110.07 64.6657 110.059 64.543 110.118 64.4472C110.784 63.2136 110.886 61.7527 110.398 60.4384C110.354 60.3354 110.381 60.2153 110.466 60.1417C110.55 60.068 110.673 60.0577 110.769 60.1163C112.005 60.785 113.47 60.8848 114.785 60.3898C114.889 60.3524 115.005 60.3838 115.075 60.4683C115.145 60.5528 115.155 60.6723 115.1 60.7672Z" fill="#F4CC54"/>
<path d="M75.4305 80.5551L70.2174 84.6097C69.3228 85.3061 68.0693 85.305 67.1752 84.6075L62.0599 80.6167L34.0513 102.564V102.564C34.2356 103.878 35.4258 104.819 36.7475 104.821H36.7492H100.775H100.778C102.111 104.819 103.291 103.868 103.474 102.565C103.474 102.564 103.474 102.564 103.474 102.564L75.4305 80.5551Z" fill="#E3BC44"/>
<g clip-path="url(#clip1_1206_9465)">
<circle cx="97.0003" cy="60" r="10" transform="rotate(11.0914 97.0003 60)" fill="#E7E8E8"/>
<mask id="mask1_1206_9465" style="mask-type:luminance" maskUnits="userSpaceOnUse" x="86" y="49" width="22" height="22">
<circle cx="97.0003" cy="60" r="10" transform="rotate(11.0914 97.0003 60)" fill="white"/>
</mask>
<g mask="url(#mask1_1206_9465)">
<path fill-rule="evenodd" clip-rule="evenodd" d="M95.4116 57.0369C94.5142 56.861 93.644 57.4459 93.4681 58.3434C93.3833 58.7744 93.4733 59.2214 93.7184 59.586C93.9634 59.9505 94.3434 60.2027 94.7745 60.2869C95.6719 60.4628 96.5421 59.8779 96.718 58.9805C96.894 58.083 96.3091 57.2129 95.4116 57.0369ZM94.1645 58.4799C94.265 57.9671 94.7623 57.6328 95.2751 57.7334C95.7879 57.8339 96.1221 58.3311 96.0216 58.844C95.9211 59.3568 95.4238 59.691 94.911 59.5905C94.3982 59.49 94.064 58.9927 94.1645 58.4799Z" fill="#E7E8E8"/>
<path fill-rule="evenodd" clip-rule="evenodd" d="M100.897 59.7996C101.073 58.9021 100.488 58.032 99.5903 57.856C99.1593 57.7712 98.7123 57.8613 98.3477 58.1063C97.9831 58.3514 97.731 58.7313 97.6468 59.1625C97.4708 60.0599 98.0557 60.9301 98.9532 61.106C99.8507 61.2819 100.721 60.697 100.897 59.7996ZM99.4538 58.5525C99.9666 58.653 100.301 59.1502 100.2 59.6631C100.1 60.1759 99.6026 60.5101 99.0897 60.4096C98.5769 60.309 98.2427 59.8118 98.3432 59.299C98.4437 58.7862 98.941 58.4519 99.4538 58.5525Z" fill="#E7E8E8"/>
<circle cx="95.0932" cy="58.6619" r="0.946237" transform="rotate(11.0914 95.0932 58.6619)" fill="#E7E8E8"/>
<circle cx="99.2719" cy="59.4811" r="0.946237" transform="rotate(11.0914 99.2719 59.4811)" fill="#E7E8E8"/>
<path d="M96.561 65.9405L96.6111 66.9146L95.5915 67.1968L94.754 66.5505L95.1682 65.6675L96.561 65.9405Z" fill="#405B73"/>
<path d="M95.1663 65.6671L94.7521 66.5501L93.5459 66.5547L94.4699 65.5306L95.1663 65.6671Z" fill="#405B73"/>
<path d="M97.2594 66.0774L97.7283 67.3747L96.6131 66.915L96.563 65.9409L97.2594 66.0774Z" fill="#405B73"/>
<path d="M90.8924 64.106L90.7559 64.8024L90.0595 64.6659L90.3325 63.2731L91.0289 63.4096L90.8924 64.106Z" fill="#405B73"/>
<path d="M90.3323 63.273L90.0592 64.6659L89.3628 64.5294C88.9782 64.454 88.7275 64.081 88.8029 63.6964C88.8783 63.3118 89.2513 63.0611 89.6359 63.1365L90.3323 63.273Z" fill="#405B73"/>
<path d="M103.196 66.5179L101.684 66.6675L101.339 66.1538L101.852 65.8086L103.196 66.5179Z" fill="#393D48"/>
<path d="M101.852 65.8086L101.338 66.1538L101.684 66.6675L100.738 66.7593L100.41 65.9718L101.011 65.3664L101.852 65.8086Z" fill="#FFD6BD"/>
<path d="M100.41 65.9718L100.738 66.7592L97.2555 66.0766L96.5591 65.9401L95.1662 65.667L94.4698 65.5305L90.7556 64.8024L90.8921 64.106L100.41 65.9718Z" fill="#F4CC54"/>
<path d="M101.011 65.3664L100.41 65.9718L90.8923 64.106L91.0288 63.4095L92.1895 63.6371L100.082 65.1844L101.011 65.3664Z" fill="#F4CC54"/>
<path d="M102.085 54.9702L101.092 55.1154L97.8651 55.5894L95.0562 53.9322L94.1918 53.4229L98.4112 52.8037L102.085 54.9702Z" fill="#405B73"/>
<path d="M101.092 55.1155L100.792 56.6453C100.772 56.731 100.722 56.8067 100.651 56.8588C100.238 57.1948 99.0011 57.2585 97.592 56.9822C96.1319 56.696 94.9778 56.1395 94.7802 55.6596C94.7527 55.5976 94.7443 55.5288 94.7563 55.4621L95.0562 53.9323L97.8651 55.5894L101.092 55.1155Z" fill="#F4CC54"/>
<path d="M92.9628 59.6907C92.9628 59.6907 93.6183 61.2656 93.4363 62.1942C93.4038 62.3809 93.2965 62.5462 93.1393 62.6519C92.982 62.7576 92.7885 62.7945 92.6034 62.7541C92.3414 62.6889 92.1282 62.4993 92.0326 62.2469C92.0493 61.9816 92.0833 61.7177 92.1345 61.4569C92.4075 60.064 92.9628 59.6907 92.9628 59.6907V59.6907Z" fill="#F4CC54"/>
<path d="M100.956 63.1861C100.905 63.447 100.837 63.7042 100.752 63.9561C100.568 64.1538 100.299 64.2488 100.032 64.2103C99.8455 64.1778 99.6802 64.0705 99.5745 63.9133C99.4688 63.756 99.4319 63.5625 99.4723 63.3773C99.6544 62.4488 100.856 61.238 100.856 61.238C100.856 61.238 101.229 61.7933 100.956 63.1861Z" fill="#F4CC54"/>
<path fill-rule="evenodd" clip-rule="evenodd" d="M100.082 65.1844C100.387 64.8249 100.615 64.4069 100.752 63.9561C100.568 64.1538 100.299 64.2488 100.032 64.2103C99.8454 64.1778 99.6801 64.0705 99.5744 63.9133C99.4687 63.756 99.4318 63.5625 99.4722 63.3773C99.6542 62.4488 100.856 61.238 100.856 61.238C101.255 60.911 101.518 60.4468 101.593 59.9361C101.821 58.7754 101.215 58.1746 101.215 58.1746L101.675 57.0594L100.651 56.8588C100.238 57.1948 99.0011 57.2585 97.5921 56.9822C96.1319 56.696 94.9778 56.1395 94.7802 55.6596L94.7108 55.6942L93.7822 55.5122L93.7868 56.7184C93.7868 56.7184 92.9994 57.0461 92.7718 58.2068C92.6485 58.708 92.7167 59.2371 92.963 59.6907C92.963 59.6907 93.6186 61.2656 93.4365 62.1941C93.404 62.3808 93.2968 62.5461 93.1395 62.6518C92.9823 62.7575 92.7887 62.7944 92.6036 62.754C92.3417 62.6888 92.1284 62.4993 92.0329 62.2468C91.9896 62.7161 92.0429 63.1892 92.1894 63.6371L100.082 65.1844ZM97.6468 59.1625C97.4708 60.06 98.0557 60.9301 98.9532 61.106C99.8506 61.282 100.721 60.6971 100.897 59.7996C101.073 58.9022 100.488 58.032 99.5903 57.8561C99.1593 57.7713 98.7123 57.8613 98.3477 58.1064C97.9831 58.3514 97.731 58.7314 97.6468 59.1625ZM95.4118 57.0369C96.3092 57.2129 96.8941 58.083 96.7182 58.9805C96.634 59.4116 96.3818 59.7916 96.0173 60.0366C95.6527 60.2817 95.2057 60.3717 94.7747 60.2869C93.8772 60.111 93.2923 59.2408 93.4682 58.3434C93.6442 57.4459 94.5143 56.861 95.4118 57.0369ZM97.5102 59.8589L96.8184 60.9286L96.5817 59.6769L97.5102 59.8589Z" fill="#405B73"/>
<path d="M97.706 60.0675C97.6354 60.4273 96.7585 61.4472 96.7585 61.4472C96.7585 61.4472 96.3316 60.1717 96.4021 59.8119C96.4726 59.4521 96.8217 59.2177 97.1817 59.2883C97.5418 59.3589 97.7765 59.7078 97.706 60.0675Z" fill="#F4CC54"/>
<path d="M101.721 56.8274C101.592 56.8022 101.509 56.6779 101.534 56.5497L101.807 55.1569L98.0928 54.4287C97.9646 54.4036 97.881 54.2793 97.9062 54.1511C97.9313 54.0229 98.0556 53.9393 98.1838 53.9645L102.13 54.7381C102.258 54.7632 102.342 54.8875 102.317 55.0157L101.998 56.6407C101.973 56.7689 101.849 56.8525 101.721 56.8274Z" fill="#F4CC54"/>
<path d="M101.684 66.6675L103.196 66.5179L101.338 66.1538L101.684 66.6675Z" fill="#222430"/>
<path d="M100.41 65.9718L100.738 66.7592L101.684 66.6675L101.339 66.1538L100.41 65.9718Z" fill="#FFD6BD"/>
<circle cx="98.8072" cy="59.3901" r="0.236559" transform="rotate(11.0914 98.8072 59.3901)" fill="#405B73"/>
<circle cx="95.5577" cy="58.753" r="0.236559" transform="rotate(11.0914 95.5577 58.753)" fill="#405B73"/>
<path fill-rule="evenodd" clip-rule="evenodd" d="M99.6129 57.74C98.697 57.5614 97.7993 58.123 97.5591 59.0248L96.8511 58.886C96.9721 57.9368 96.3188 57.0627 95.3742 56.91C94.4296 56.7574 93.5342 57.3812 93.3501 58.3202C93.166 59.2591 93.7597 60.1749 94.692 60.3902C95.6242 60.6055 96.5593 60.0427 96.8056 59.1181L97.5136 59.2569C97.3915 60.2139 98.0565 61.093 99.0106 61.236C99.9647 61.379 100.858 60.7333 101.022 59.7826C101.186 58.8319 100.56 57.9245 99.6129 57.74ZM94.7973 60.1708C93.9639 60.0074 93.4208 59.1994 93.5842 58.3661C93.7475 57.5327 94.5555 56.9896 95.3889 57.1529C96.2222 57.3163 96.7654 58.1243 96.602 58.9577C96.4377 59.7904 95.6304 60.333 94.7973 60.1708ZM97.7627 59.1852C97.5993 60.0186 98.1425 60.8266 98.9758 60.9899C99.8089 61.1522 100.616 60.6095 100.781 59.7768C100.944 58.9435 100.401 58.1355 99.5674 57.9721C98.7341 57.8087 97.9261 58.3519 97.7627 59.1852Z" fill="#F4CC54"/>
</g>
</g>
<circle cx="51.8214" cy="40.8208" r="10" transform="rotate(7.4611 51.8214 40.8208)" fill="#E7E8E8"/>
<mask id="mask2_1206_9465" style="mask-type:luminance" maskUnits="userSpaceOnUse" x="41" y="30" width="21" height="21">
<circle cx="51.8214" cy="40.8208" r="10" transform="rotate(7.4611 51.8214 40.8208)" fill="white"/>
</mask>
<g mask="url(#mask2_1206_9465)">
<path d="M50.0667 35.3716C50.5611 34.9359 51.3524 34.7081 52.2041 34.8197C53.0749 34.9337 53.7935 35.3742 54.1514 35.9405L54.4342 36.3594L51.7971 38.2084L49.7146 35.6521L50.0667 35.3716Z" fill="#405B73"/>
<path d="M53.6671 45.9167L52.1609 45.7194L52.3434 44.3253C52.3553 44.2346 52.2914 44.1514 52.2007 44.1395C52.1099 44.1277 52.0268 44.1916 52.0149 44.2823L51.8323 45.6764L50.4743 45.4986L50.6569 44.1045C50.6688 44.0137 50.6049 43.9306 50.5141 43.9187C50.4234 43.9068 50.3402 43.9707 50.3283 44.0614L50.1458 45.4555L50.1423 45.4551L48.4558 45.2342C48.2439 45.2065 48.2009 45.535 48.4128 45.5628L53.6241 46.2453C53.836 46.273 53.879 45.9445 53.6671 45.9167Z" fill="#F4CC54"/>
<path d="M54.813 40.9651L55.4352 36.2143L51.8177 38.0553L48.7524 35.3391L47.9802 41.2356C47.771 42.8331 48.8976 44.2979 50.4964 44.5073L54.2842 45.0033" fill="#405B73"/>
<path d="M51.8079 38.0603C51.8079 38.0603 51.8887 36.6402 53.0433 36.2255C54.19 35.8137 54.9952 36.271 55.7715 35.532C55.7715 35.532 55.2216 37.3838 53.3604 37.1401L53.1147 39.016L50.3085 38.604L50.5183 36.7678C48.6571 36.5241 48.6025 34.5931 48.6025 34.5931C49.1624 35.5071 50.0581 35.2726 51.0602 35.9658C52.069 36.6638 51.7814 38.0569 51.7814 38.0569" fill="#F4CC54"/>
<ellipse cx="50.3709" cy="38.1631" rx="1.40379" ry="1.40259" transform="rotate(7.4611 50.3709 38.1631)" fill="#E7E8E8"/>
<path d="M50.3491 38.3274C50.5605 38.355 50.6038 38.0265 50.3921 37.9988C50.1807 37.9711 50.1373 38.2996 50.3491 38.3274Z" fill="#405B73"/>
<ellipse cx="53.1707" cy="38.5298" rx="1.40379" ry="1.40259" transform="rotate(7.4611 53.1707 38.5298)" fill="#E7E8E8"/>
<path d="M53.1489 38.6941C53.3603 38.7217 53.4037 38.3932 53.1919 38.3655C52.9805 38.3378 52.9371 38.6663 53.1489 38.6941Z" fill="#405B73"/>
<path d="M52.3247 39.3659C52.2758 39.739 51.4439 40.8406 51.4439 40.8406C51.4439 40.8406 50.9237 39.5619 50.9726 39.1888C51.0214 38.8157 51.3637 38.5529 51.7371 38.6018C52.1105 38.6507 52.3736 38.9928 52.3247 39.3659Z" fill="#F4CC54"/>
<path d="M55.1813 45.1207L53.9611 44.9609C52.8084 44.8099 51.9963 43.7531 52.1473 42.6003L52.1528 42.5583C52.2933 41.4852 53.2771 40.7293 54.3502 40.8698C55.1642 40.9764 55.7377 41.7227 55.6311 42.5368L55.3052 45.0255C55.2972 45.086 55.2418 45.1286 55.1813 45.1207Z" fill="#F4CC54"/>
</g>
<defs>
<clipPath id="clip0_1206_9465">
<rect width="30" height="30" fill="white" transform="translate(45.9531 61.3743) rotate(-8.47452)"/>
</clipPath>
<clipPath id="clip1_1206_9465">
<rect width="20" height="20" fill="white" transform="translate(89.1108 48.2631) rotate(11.0914)"/>
</clipPath>
</defs>
</svg>
