<?xml version="1.0" encoding="UTF-8"?>
<svg width="100px" height="100px" viewBox="0 0 100 100" version="1.1" xmlns="http://www.w3.org/2000/svg" xmlns:xlink="http://www.w3.org/1999/xlink">
    <title>Group 18 Copy 2</title>
    <g id="Registrierung" stroke="none" stroke-width="1" fill="none" fill-rule="evenodd">
        <g id="Group-18-Copy-2">
            <circle id="Oval-Copy-3" fill="#FFFFFF" cx="50" cy="50" r="50"></circle>
            <g id="email-(1)-copy" transform="translate(21.000000, 26.000000)" fill-rule="nonzero">
                <path d="M36.0523958,34.4386079 L29.230216,27.6050222 C28.7867743,27.160408 28.0668211,27.1595552 27.6222069,27.6029969 C27.4083742,27.8162966 27.2882399,28.1058129 27.2881333,28.4078009 L27.2881333,44.3375908 C27.2884531,44.8267624 27.6017403,45.2609302 28.0658618,45.4154952 C28.1816256,45.4546161 28.3029325,45.4746563 28.4251988,45.4746563 C28.7830434,45.4746563 29.1201017,45.3061271 29.3347872,45.0198087 L36.156967,35.9236045 C36.4960507,35.4713153 36.4514933,34.8387713 36.0523958,34.4386079 Z" id="Path" fill="#405B73"></path>
                <path d="M31.0585602,31.8893511 L24.2363804,29.6153267 C23.6408254,29.4162044 22.9965558,29.737593 22.7974334,30.333148 C22.7194047,30.5665944 22.7191915,30.8190151 22.7969004,31.0525681 L27.3450558,44.6969278 C27.4999406,45.161902 27.9351744,45.4752958 28.4251988,45.4746572 L28.4956591,45.4746572 C29.0093479,45.4426773 29.4375463,45.0695893 29.5394526,44.5650678 L31.813477,33.1947326 C31.9280683,32.6312632 31.6040148,32.0709917 31.0585602,31.8893511 Z" id="Path" fill="#F4CC54"></path>
                <path d="M54.0902392,0.209386629 C53.7279175,-0.0439933925 53.2516441,-0.0643533353 52.869069,0.157047719 L9.66196576,25.1717426 C9.11874969,25.4867354 8.93369807,26.1824911 9.2486909,26.7257072 C9.38790601,26.9658692 9.61015983,27.1467636 9.87345333,27.2342794 L30.294476,34.0428148 L46.1674499,40.8467666 C46.7448835,41.0936443 47.4130307,40.8257671 47.6599083,40.2483335 C47.6941258,40.1681729 47.7190694,40.084388 47.7342061,39.9985778 L54.556386,1.33952335 C54.6339883,0.904289601 54.4521345,0.463406231 54.0902392,0.209386629 Z" id="Path" fill="#405B73"></path>
                <g id="Group" fill="#F4CC54">
                    <path d="M54.3653649,1.80129965 C54.7321637,1.2916615 54.6163998,0.581088833 54.1067617,0.214183475 C53.6527669,-0.11253498 53.0285375,-0.0606224558 52.6348764,0.336769518 L22.9833378,31.6096418 L31.5405898,34.5658841 L54.3653649,1.80129965 Z" id="Path"></path>
                    <path d="M2.77838633,42.5069022 C2.49281415,42.5072212 2.21768843,42.3999851 2.00748001,42.2067255 C1.44049291,41.6852552 0.882566521,41.1492877 0.333807433,40.5989296 C-0.110806817,40.154955 -0.1113398,39.434682 0.332634871,38.9900678 C0.776609541,38.5454535 1.49688249,38.5449205 1.94149674,38.9888952 C2.46904312,39.5164416 3.00575679,40.0326887 3.54929265,40.5329464 C4.01149533,40.9580534 4.04155556,41.677367 3.61644848,42.1395697 C3.40080364,42.3739755 3.09679026,42.5072212 2.77838633,42.5069022 Z" id="Path"></path>
                    <path d="M18.2692116,50 C17.1736121,49.9964823 16.081104,49.882957 15.0082096,49.6611295 C14.3884572,49.5598628 13.968147,48.9752873 14.0695203,48.3555349 C14.170787,47.7357825 14.7553626,47.3154722 15.375115,47.4168456 C15.4046422,47.4216424 15.4340629,47.4277184 15.4630571,47.4348604 C16.3886351,47.6258814 17.3310552,47.7234173 18.2760337,47.7259756 L18.2828559,47.7259756 L18.7945194,47.7259756 C19.3870897,47.6693728 19.9134635,48.1038604 19.9700663,48.6964307 C19.9740103,48.7374703 19.9755364,48.7786166 19.9747565,48.8197629 C19.9977814,49.446977 19.5081834,49.9743102 18.8809692,49.9977615 L18.2874396,49.9977615 L18.2692116,50 Z M10.1212903,47.8237246 C9.93922341,47.8237246 9.759928,47.7801266 9.59822102,47.6963418 C8.48044949,47.1114464 7.40115933,46.4559842 6.36674632,45.7337925 C5.86286438,45.3591056 5.75818656,44.6468274 6.13287346,44.1428388 C6.49050492,43.6619818 7.15982472,43.5412079 7.66296048,43.8667538 C8.61561393,44.5368197 9.61069281,45.1445267 10.6420145,45.6860372 C11.1996211,45.9748073 11.4176111,46.6609694 11.128841,47.218576 C10.9334495,47.5959278 10.5439457,47.8327853 10.1189452,47.8327853 L10.1212903,47.8237246 Z" id="Shape"></path>
                    <path d="M24.1158197,48.7810683 C23.4878593,48.786185 22.9747035,48.2813437 22.9695491,47.6533833 C22.965856,47.194272 23.2386366,46.7779058 23.6610787,46.5979708 C24.3156882,46.3179416 24.9514301,45.9959134 25.5644669,45.6338049 C26.1130128,45.3281926 26.805464,45.525183 27.1110764,46.0737289 C27.4060291,46.603194 27.2338756,47.2709149 26.7196538,47.5917705 C26.0222991,48.0039794 25.2992547,48.3708848 24.5547843,48.6901415 C24.415889,48.749196 24.2667604,48.7802156 24.1158197,48.7810683 Z" id="Path"></path>
                </g>
            </g>
        </g>
    </g>
</svg>