<?xml version="1.0" encoding="UTF-8"?><svg version="1.1" width="94px" height="94px" viewBox="0 0 94.0 94.0" xmlns="http://www.w3.org/2000/svg" xmlns:xlink="http://www.w3.org/1999/xlink"><defs><clipPath id="i0"><path d="M2655,0 L2655,1581 L0,1581 L0,0 L2655,0 Z"></path></clipPath><clipPath id="i1"><path d="M47,0 C72.9573832,0 94,21.0426168 94,47 C94,72.9573832 72.9573832,94 47,94 C21.0426168,94 0,72.9573832 0,47 C0,21.0426168 21.0426168,0 47,0 Z"></path></clipPath><clipPath id="i2"><path d="M19.4197542,0 L26.4943587,7.07460445 L28.4275869,13.676642 L30.1952904,10.7755361 L46.1248382,26.705084 C47.0965065,27.6767523 46.7427131,29.3359169 45.4501036,29.8211193 L39.915764,31.8958649 L36.772057,31.1137288 L35.9785489,33.3729523 L28.4275869,36.2045631 L24.3526451,34.8197146 L24.3526451,37.7321925 L16.5653996,40.6522516 L12.9857685,39.7905119 L12.6003865,42.1394474 L2.56402583,45.9022929 C1.80210647,46.1891183 1.05029549,45.957889 0.560038925,45.4663689 C0.0685188092,44.9748488 -0.160183353,44.2205107 0.124114915,43.462382 L4.8813726,30.7776251 L7.16334003,30.2292453 L6.98265268,25.1750539 L13.1891998,8.61865993 L15.4180982,9.84430135 L19.4197542,0 Z"></path></clipPath><clipPath id="i3"><path d="M0.0943906525,0 L3.79532233,3.70093167 C3.85091843,5.23487877 4.02276094,6.75366329 4.30705921,8.24464977 C5.51122031,14.5661797 8.71936832,20.3886082 13.5145324,24.8211341 L9.57858087,26.2982215 C5.56049868,22.1474668 2.6593928,17.0023 1.16082504,11.3908839 C0.186629646,7.74302127 -0.194961807,3.89678159 0.0943906525,0 Z"></path></clipPath><clipPath id="i4"><path d="M6.33402813,0.555241317 L6.43258486,0.653798049 C2.61199521,9.27220527 3.06952589,18.7675147 7.05172331,26.6411868 C9.05444667,30.6062 11.9138555,34.0962455 15.4404175,36.8582348 L11.3654757,38.3858641 C8.5010127,35.820862 6.09648113,32.7984555 4.24664707,29.4462631 C0.851746688,23.2974601 -0.561784299,16.2079458 0.20203038,9.27245798 L3.21811911,1.22997587 C3.70205794,-0.057579394 5.35856918,-0.420217629 6.33402813,0.555241317 Z"></path></clipPath><clipPath id="i5"><path d="M2.10128009,0 C2.96681037,3.45959403 4.42494459,6.68922235 6.39355216,9.57642921 C7.87695734,11.7546594 9.65224208,13.7371659 11.684027,15.4771977 L7.71901386,16.9643935 C6.24066286,15.5302667 4.89372085,13.9622038 3.69587748,12.2741039 C2.33642634,10.3842154 1.01930406,8.06168804 0,5.6025712 L2.10128009,0 Z"></path></clipPath><clipPath id="i6"><path d="M9.05426805,1.29656201 L9.06606763,1.33290809 C9.29609798,2.05633041 11.8136478,10.7403984 3.23550382,19.3184187 C2.49557019,20.0586051 1.29532609,20.0587314 0.555139751,19.3185451 C-0.185046584,18.5783588 -0.185046584,17.3783674 0.555139751,16.638181 C7.41820102,9.77511976 5.63329217,3.08565233 5.46926757,2.53173968 L5.45994696,2.50110018 C5.12716132,1.5022676 5.66379009,0.428883698 6.65681235,0.0978341596 C7.6495819,-0.233341734 8.72321852,0.303539751 9.05426805,1.29656201 Z"></path></clipPath><clipPath id="i7"><path d="M0.555202932,6.34973224 C9.32384599,-2.41903718 18.2033022,0.406508538 18.5770597,0.530968002 C19.5700819,0.86201754 20.1069634,1.93565415 19.7757875,2.92842371 C19.444738,3.92144597 18.3713541,4.45807474 17.3783318,4.12715156 L17.3603454,4.12151642 C16.9616925,3.99976374 10.1876326,2.07790437 3.23544065,9.03009631 C2.49525431,9.77028264 1.29526291,9.77028264 0.555076578,9.03009631 C-0.185109757,8.29003633 -0.184983402,7.08979222 0.555202932,6.34973224 Z"></path></clipPath><clipPath id="i8"><path d="M1.89532179,0 C2.9420791,0 3.79064357,0.848564467 3.79064357,1.89532179 C3.79064357,2.9420791 2.9420791,3.79064357 1.89532179,3.79064357 C0.848564467,3.79064357 0,2.9420791 0,1.89532179 C0,0.848564467 0.848564467,0 1.89532179,0 Z"></path></clipPath><clipPath id="i9"><path d="M1.89532179,0 C2.9420791,0 3.79064357,0.848564467 3.79064357,1.89532179 C3.79064357,2.9420791 2.9420791,3.79064357 1.89532179,3.79064357 C0.848564467,3.79064357 0,2.9420791 0,1.89532179 C0,0.848564467 0.848564467,0 1.89532179,0 Z"></path></clipPath><clipPath id="i10"><path d="M1.89532179,0 C2.9420791,0 3.79064357,0.848564467 3.79064357,1.89532179 C3.79064357,2.9420791 2.9420791,3.79064357 1.89532179,3.79064357 C0.848564467,3.79064357 0,2.9420791 0,1.89532179 C0,0.848564467 0.848564467,0 1.89532179,0 Z"></path></clipPath><clipPath id="i11"><path d="M1.89532179,0 C2.9420791,0 3.79064357,0.848564467 3.79064357,1.89532179 C3.79064357,2.9420791 2.9420791,3.79064357 1.89532179,3.79064357 C0.848564467,3.79064357 0,2.9420791 0,1.89532179 C0,0.848564467 0.848564467,0 1.89532179,0 Z"></path></clipPath><clipPath id="i12"><path d="M1.89532179,0 C2.9420791,0 3.79064357,0.848564467 3.79064357,1.89532179 C3.79064357,2.9420791 2.9420791,3.79064357 1.89532179,3.79064357 C0.848564467,3.79064357 0,2.9420791 0,1.89532179 C0,0.848564467 0.848564467,0 1.89532179,0 Z"></path></clipPath></defs><g transform="translate(-69.0 -1236.0)"><g clip-path="url(#i0)"><g transform="translate(69.0 1236.0)"><g clip-path="url(#i1)"><polygon points="0,0 94,0 94,94 0,94 0,0" stroke="none" fill="#FFFFFF"></polygon></g><g transform="translate(18.799999999999958 13.903850558595877)"><g transform="translate(0.0 15.382616132335897)"><g clip-path="url(#i2)"><polygon points="-2.77555756e-17,0 46.6798247,0 46.6798247,46.0275217 -2.77555756e-17,46.0275217 -2.77555756e-17,0" stroke="none" fill="#3F5B73"></polygon></g></g><g transform="translate(26.39996803392467 22.457220582595262)"><g clip-path="url(#i3)"><polygon points="1.33226763e-15,0 13.5145324,0 13.5145324,26.2982215 1.33226763e-15,26.2982215 1.33226763e-15,0" stroke="none" fill="#FFFFFF"></polygon></g></g><g transform="translate(12.987169373798572 14.728818082909129)"><g clip-path="url(#i4)"><polygon points="-8.8817842e-16,-2.22044605e-16 15.4404175,-2.22044605e-16 15.4404175,38.3858641 -8.8817842e-16,38.3858641 -8.8817842e-16,-2.22044605e-16" stroke="none" fill="#FFFFFF"></polygon></g></g><g transform="translate(4.881372595767857 40.55766998613763)"><g clip-path="url(#i5)"><polygon points="0,0 11.684027,0 11.684027,16.9643935 0,16.9643935 0,0" stroke="none" fill="#FFFFFF"></polygon></g></g><g transform="translate(32.7225063142356 2.0333808886298357)"><g clip-path="url(#i6)"><polygon points="1.77635684e-15,1.38777878e-17 9.58523606,1.38777878e-17 9.58523606,19.8736217 1.77635684e-15,19.8736217 1.77635684e-15,1.38777878e-17" stroke="none" fill="#F3CC53"></polygon></g></g><g transform="translate(40.49736388643498 19.10115521864282)"><g clip-path="url(#i7)"><polygon points="1.11022302e-15,0 19.8736217,0 19.8736217,9.58523606 1.11022302e-15,9.58523606 1.11022302e-15,0" stroke="none" fill="#F3CC53"></polygon></g></g><g transform="translate(46.82873389668987 4.700000000000728)"><g clip-path="url(#i8)"><polygon points="0,0 3.79064357,0 3.79064357,3.79064357 0,3.79064357 0,0" stroke="none" fill="#F3CC53"></polygon></g></g><g transform="translate(24.89540056335647 0.0)"><g clip-path="url(#i9)"><polygon points="0,0 3.79064357,0 3.79064357,3.79064357 0,3.79064357 0,0" stroke="none" fill="#F3CC53"></polygon></g></g><g transform="translate(44.77602309624706 14.77450334603782)"><g clip-path="url(#i10)"><polygon points="0,0 3.79064357,0 3.79064357,3.79064357 0,3.79064357 0,0" stroke="none" fill="#3F5B73"></polygon></g></g><g transform="translate(46.24210765729117 32.24722402242696)"><g clip-path="url(#i11)"><polygon points="0,0 3.79064357,0 3.79064357,3.79064357 0,3.79064357 0,0" stroke="none" fill="#F3CC53"></polygon></g></g><g transform="translate(26.85858103683995 11.50903990353072)"><g clip-path="url(#i12)"><polygon points="0,0 3.79064357,0 3.79064357,3.79064357 0,3.79064357 0,0" stroke="none" fill="#3F5B73"></polygon></g></g></g></g></g></g></svg>