<?xml version="1.0" encoding="UTF-8"?><svg version="1.1" width="30px" height="30px" viewBox="0 0 30.0 30.0" xmlns="http://www.w3.org/2000/svg" xmlns:xlink="http://www.w3.org/1999/xlink"><defs><clipPath id="i0"><path d="M2655,0 L2655,1581 L0,1581 L0,0 L2655,0 Z"></path></clipPath><clipPath id="i1"><path d="M15,0 C23.2842712,0 30,6.71572875 30,15 C30,23.2842712 23.2842712,30 15,30 C6.71572875,30 0,23.2842712 0,15 C0,6.71572875 6.71572875,0 15,0 Z"></path></clipPath><clipPath id="i2"><path d="M4.23587711,0 C5.81193261,0 7.19318137,0.616372646 7.96218038,1.54069376 L8.5629336,2.22001982 L4.3012884,6.12487611 L0,2.06144698 L0.561070367,1.4802775 C1.33930624,0.589613479 2.69439049,0 4.23587711,0 Z"></path></clipPath><clipPath id="i3"><path d="M6.69619425,0 C6.86039643,0 6.99351833,0.133121903 6.99351833,0.297324083 L6.99351833,2.82057483 L9.71974232,2.82057483 C10.1032507,2.82057483 10.1032507,3.41522299 9.71974232,3.41522299 L0.287631318,3.41522299 C-0.095877106,3.41522299 -0.095877106,2.82057483 0.287631318,2.82057483 L3.34634291,2.82057483 L3.34634291,0.297324083 C3.34634291,0.133121903 3.47946482,0 3.643667,0 C3.80786918,0 3.94099108,0.133121903 3.94099108,0.297324083 L3.94099108,2.82057483 L6.39887017,2.82057483 L6.39887017,0.297324083 C6.39887017,0.133121903 6.53199207,0 6.69619425,0 Z"></path></clipPath><clipPath id="i4"><path d="M12.0953023,0 L12.0953023,15.907552 L5.2397225,15.907552 C2.34592666,15.907552 0,13.5636472 0,10.6722696 L0,0 L6.08729435,4.11888999 L12.0953023,0 Z"></path></clipPath><clipPath id="i5"><path d="M12.9753816,0 C12.9753816,0 12.4283449,3.42327056 9.05974232,3.42327056 L9.05974232,6.81863231 L3.97034688,6.73934589 L3.91563925,3.42327056 C0.54703667,3.42327056 0,0 0,0 C1.20923687,1.49589693 2.74846383,0.869851338 4.69300297,1.86985134 C6.6508226,2.87670961 6.463667,5.42259663 6.463667,5.42259663 L6.51171457,5.42259663 C6.51171457,5.42259663 6.32455897,2.87670961 8.28237859,1.86985134 C10.2269177,0.869851338 11.7661447,1.49589693 12.9753816,0 Z"></path></clipPath><clipPath id="i6"><path d="M2.51924678,0 C3.91058836,0 5.03849356,1.12694676 5.03849356,2.51710605 C5.03849356,3.90726533 3.91058836,5.03421209 2.51924678,5.03421209 C1.1279052,5.03421209 0,3.90726533 0,2.51710605 C0,1.12694676 1.1279052,0 2.51924678,0 Z"></path></clipPath><clipPath id="i7"><path d="M0.287215114,0 C0.670485679,0 0.669851387,0.594648167 0.287215114,0.594648167 C-0.0960554512,0.594648167 -0.0954211599,0 0.287215114,0 Z"></path></clipPath><clipPath id="i8"><path d="M2.51924678,0 C3.91058836,0 5.03849356,1.12694676 5.03849356,2.51710605 C5.03849356,3.90726533 3.91058836,5.03421209 2.51924678,5.03421209 C1.1279052,5.03421209 0,3.90726533 0,2.51710605 C0,1.12694676 1.1279052,0 2.51924678,0 Z"></path></clipPath><clipPath id="i9"><path d="M0.287215114,0 C0.670485679,0 0.669851387,0.594648167 0.287215114,0.594648167 C-0.0960554512,0.594648167 -0.0954211599,0 0.287215114,0 Z"></path></clipPath><clipPath id="i10"><path d="M1.22362735,0 C1.89942517,0 2.44725471,0.547393459 2.44725471,1.22259663 C2.44725471,1.89783944 1.22362735,4.05205154 1.22362735,4.05205154 C1.22362735,4.05205154 0,1.89783944 0,1.22259663 C0,0.547353816 0.547829534,0 1.22362735,0 Z"></path></clipPath><clipPath id="i11"><path d="M3.51663033,0 C4.98997027,0 6.18434093,1.19437066 6.18434093,2.6677106 L6.18434093,7.17217047 C6.18434093,7.28166501 6.09557978,7.37038652 5.98612488,7.37038652 L3.77772052,7.37038652 C1.69133796,7.37038652 0,5.67904856 0,3.59266601 L0,3.51663033 C0,1.57443013 1.57443013,0 3.51663033,0 Z"></path></clipPath></defs><g transform="translate(-293.0 -99.0)"><g clip-path="url(#i0)"><g transform="translate(293.0 99.00000000000011)"><g clip-path="url(#i1)"><polygon points="0,0 30,0 30,30 0,30 0,0" stroke="none" fill="#FFFFFF"></polygon><g transform="translate(8.0 5.0)"><g transform="translate(2.226045589692766 0.0)"><g clip-path="url(#i2)"><polygon points="0,0 8.5629336,0 8.5629336,6.12487611 0,6.12487611 0,0" stroke="none" fill="#3F5B73"></polygon></g></g><g transform="translate(1.9304459861248748 16.58477700693756)"><g clip-path="url(#i3)"><polygon points="2.77555756e-16,0 10.0073736,0 10.0073736,3.41522299 2.77555756e-16,3.41522299 2.77555756e-16,0" stroke="none" fill="#F3CC53"></polygon></g></g><g transform="translate(0.4400396432111009 1.7284836471754215)"><g clip-path="url(#i4)"><polygon points="0,0 12.0953023,0 12.0953023,15.907552 0,15.907552 0,0" stroke="none" fill="#3F5B73"></polygon></g></g><g transform="translate(0.0 0.43607532210080535)"><g clip-path="url(#i5)"><polygon points="0,0 12.9753816,0 12.9753816,6.81863231 0,6.81863231 0,0" stroke="none" fill="#F3CC53"></polygon></g></g><g transform="translate(1.4587908820615207 3.8593855302278834)"><g clip-path="url(#i6)"><polygon points="0,0 5.03849356,0 5.03849356,5.03421209 0,5.03421209 0,0" stroke="none" fill="#E7E8E8"></polygon></g></g><g transform="translate(3.690822547384187 6.079167492567649)"><g clip-path="url(#i7)"><polygon points="-3.88578059e-16,0 0.574430227,0 0.574430227,0.594648167 -3.88578059e-16,0.594648167 -3.88578059e-16,0" stroke="none" fill="#3F5B73"></polygon></g></g><g transform="translate(6.526105054509415 3.8593855302279474)"><g clip-path="url(#i8)"><polygon points="0,0 5.03849356,0 5.03849356,5.03421209 0,5.03421209 0,0" stroke="none" fill="#E7E8E8"></polygon></g></g><g transform="translate(8.75813671983201 6.079167492567649)"><g clip-path="url(#i9)"><polygon points="8.32667268e-16,0 0.574430227,0 0.574430227,0.594648167 8.32667268e-16,0.594648167 8.32667268e-16,0" stroke="none" fill="#3F5B73"></polygon></g></g><g transform="translate(5.288087215064479 6.83881070366624)"><g clip-path="url(#i10)"><polygon points="0,0 2.44725471,0 2.44725471,4.05205154 0,4.05205154 0,0" stroke="none" fill="#F3CC53"></polygon></g></g><g transform="translate(8.172527254707624 10.26564915758177)"><g clip-path="url(#i11)"><polygon points="0,0 6.18434093,0 6.18434093,7.37038652 0,7.37038652 0,0" stroke="none" fill="#F3CC53"></polygon></g></g></g></g></g></g></g></svg>