<?xml version="1.0" encoding="UTF-8"?><svg version="1.1" width="30px" height="30px" viewBox="0 0 30.0 30.0" xmlns="http://www.w3.org/2000/svg" xmlns:xlink="http://www.w3.org/1999/xlink"><defs><clipPath id="i0"><path d="M2655,0 L2655,1581 L0,1581 L0,0 L2655,0 Z"></path></clipPath><clipPath id="i1"><path d="M15,0 C23.2842712,0 30,6.71572875 30,15 C30,23.2842712 23.2842712,30 15,30 C6.71572875,30 0,23.2842712 0,15 C0,6.71572875 6.71572875,0 15,0 Z"></path></clipPath><clipPath id="i2"><path d="M12.4075862,0 C13.2703448,0 13.5993103,1.32827586 13.6427586,3.98793103 L8.37310345,6.20689655 L5.26965517,6.20689655 L0,3.98793103 C0.0434482759,1.32827586 0.372413793,0 1.23517241,0 C2.1662069,0 2.1662069,2.17241379 6.82137931,2.17241379 C11.4765517,2.17241379 11.4765517,0 12.4075862,0 Z"></path></clipPath><clipPath id="i3"><path d="M9.62068966,0 L15.0268966,2.07931034 C15.2362481,2.42867002 15.4178408,2.7939308 15.57,3.17172414 C15.653482,3.36859814 15.7270229,3.56954093 15.7903448,3.7737931 C16.0160792,4.45895243 16.1333561,5.17517916 16.137931,5.89655172 C16.137931,8.0037931 15.0610345,9.56482759 13.3572414,10.5517241 C11.942069,11.3741379 10.0924138,11.7931034 8.06896552,11.7931034 C6.04551724,11.7931034 4.19586207,11.3741379 2.78068966,10.5517241 C1.07689655,9.56482759 0,8.0037931 0,5.89655172 C0.00457495448,5.17517916 0.12185185,4.45895243 0.347586207,3.7737931 C0.410908112,3.56954093 0.484449033,3.36859814 0.567931034,3.17172414 C0.720090248,2.7939308 0.901682963,2.42867002 1.11103448,2.07931034 L6.51724138,0 L9.62068966,0 Z"></path></clipPath><clipPath id="i4"><path d="M3.10344828,0 C4.81743543,0 6.20689655,1.66735335 6.20689655,3.72413793 C6.20689655,5.78092252 4.81743543,7.44827586 3.10344828,7.44827586 C1.38946112,7.44827586 0,5.78092252 0,3.72413793 C0,1.66735335 1.38946112,0 3.10344828,0 Z"></path></clipPath><clipPath id="i5"><path d="M0.91862069,0 C2.3337931,0.822413793 4.18344828,1.24137931 6.20689655,1.24137931 L0.620689655,1.24137931 C0.278316661,1.24035679 0.00102252414,0.963062659 0,0.620689655 C0.00253465448,0.278947614 0.27894762,0.00253464828 0.620689655,0 L0.91862069,0 Z"></path></clipPath><clipPath id="i6"><path d="M5.5862069,0 C5.92794894,0.00253464828 6.2043619,0.278947614 6.20689655,0.620689655 C6.20587403,0.963062659 5.9285799,1.24035679 5.5862069,1.24137931 L0,1.24137931 C2.02344828,1.24137931 3.87310345,0.822413793 5.28827586,0 L5.5862069,0 Z"></path></clipPath><clipPath id="i7"><path d="M3.09848177,0 C4.81246892,0 6.20193004,1.38946112 6.20193004,3.10344828 C6.20055882,4.81541707 4.8121069,6.20238699 3.10013761,6.20193003 C1.38816831,6.20147284 0.000457185697,4.81376172 0,3.10179243 C-0.000456959821,1.38982314 1.38651296,0.00137122759 3.09848177,0 Z"></path></clipPath><clipPath id="i8"><path d="M5.28174937,0.884523034 C5.88133629,1.4670305 6.21945127,2.26753448 6.21899642,3.10348855 C6.22179878,4.58392208 5.18043408,5.86103595 3.72973556,6.15627331 C2.27903704,6.45151071 0.821356634,5.6829874 0.245328485,4.31921215 C-0.330699663,2.95543694 0.134686148,1.37465348 1.35777643,0.54054232 C2.58086672,-0.293568854 4.22243683,-0.149666622 5.28174937,0.884523034 Z"></path></clipPath><clipPath id="i9"><path d="M1.22362735,0 C1.89942517,0 2.44725471,0.547393459 2.44725471,1.22259663 C2.44725471,1.89783944 1.22362735,4.05205154 1.22362735,4.05205154 C1.22362735,4.05205154 0,1.89783944 0,1.22259663 C0,0.547353816 0.547829534,0 1.22362735,0 Z"></path></clipPath><clipPath id="i10"><path d="M0.931034483,0 C1.44523063,0 1.86206897,0.416838336 1.86206897,0.931034483 C1.86206897,1.44523063 1.44523063,1.86206897 0.931034483,1.86206897 C0.416838336,1.86206897 0,1.44523063 0,0.931034483 C0,0.416838336 0.416838336,0 0.931034483,0 Z"></path></clipPath><clipPath id="i11"><path d="M0.931034483,0 C1.44523063,0 1.86206897,0.416838336 1.86206897,0.931034483 C1.86206897,1.44523063 1.44523063,1.86206897 0.931034483,1.86206897 C0.416838336,1.86206897 0,1.44523063 0,0.931034483 C0,0.416838336 0.416838336,0 0.931034483,0 Z"></path></clipPath></defs><g transform="translate(-293.0 -143.0)"><g clip-path="url(#i0)"><g transform="translate(293.0 143.0000000000001)"><g clip-path="url(#i1)"><polygon points="0,0 30,0 30,30 0,30 0,0" stroke="none" fill="#FFFFFF"></polygon><g transform="translate(7.000000000000014 6.0)"><g transform="translate(1.2475862068966306 0.0)"><g clip-path="url(#i2)"><polygon points="0,0 13.6427586,0 13.6427586,6.20689655 0,6.20689655 0,0" stroke="none" fill="#3F5B73"></polygon></g></g><g transform="translate(0.0 6.20689655172464)"><g clip-path="url(#i3)"><polygon points="0,0 16.137931,0 16.137931,11.7931034 0,11.7931034 0,0" stroke="none" fill="#3F5B73"></polygon></g></g><g transform="translate(4.96551724137931 10.551724137931028)"><g clip-path="url(#i4)"><polygon points="0,0 6.20689655,0 6.20689655,7.44827586 0,7.44827586 0,0" stroke="none" fill="#F3CC53"></polygon></g></g><g transform="translate(1.8620689655172415 16.75862068965517)"><g clip-path="url(#i5)"><polygon points="0,0 6.20689655,0 6.20689655,1.24137931 0,1.24137931 0,0" stroke="none" fill="#F3CC53"></polygon></g></g><g transform="translate(8.068965517241383 16.75862068965517)"><g clip-path="url(#i6)"><polygon points="0,0 6.20689655,0 6.20689655,1.24137931 0,1.24137931 0,0" stroke="none" fill="#F3CC53"></polygon></g></g><g transform="translate(0.3153113367172864 3.10344827586232)"><g clip-path="url(#i7)"><polygon points="-1.12882195e-07,0 6.20193004,0 6.20193004,6.20193014 -1.12882195e-07,6.20193014 -1.12882195e-07,0" stroke="none" fill="#E7E8E8"></polygon></g></g><g transform="translate(9.608595455928707 3.103408000672061)"><g clip-path="url(#i8)"><polygon points="-8.32667268e-17,1.11022302e-16 6.21900206,1.11022302e-16 6.21900206,6.2190419 -8.32667268e-17,6.2190419 -8.32667268e-17,1.11022302e-16" stroke="none" fill="#E7E8E8"></polygon></g></g><g transform="translate(6.799999999999728 5.83881070366624)"><g clip-path="url(#i9)"><polygon points="0,0 2.44725471,0 2.44725471,4.05205154 0,4.05205154 0,0" stroke="none" fill="#F3CC53"></polygon></g></g><g transform="translate(2.793103448275815 5.27586206896558)"><g clip-path="url(#i10)"><polygon points="0,0 1.86206897,0 1.86206897,1.86206897 0,1.86206897 0,0" stroke="none" fill="#3F5B73"></polygon></g><g transform="translate(8.689655172413799 0.0)"><g clip-path="url(#i11)"><polygon points="0,0 1.86206897,0 1.86206897,1.86206897 0,1.86206897 0,0" stroke="none" fill="#3F5B73"></polygon></g></g></g></g></g></g></g></g></svg>