<?xml version="1.0" encoding="UTF-8"?><svg version="1.1" width="30px" height="30px" viewBox="0 0 30.0 30.0" xmlns="http://www.w3.org/2000/svg" xmlns:xlink="http://www.w3.org/1999/xlink"><defs><clipPath id="i0"><path d="M2655,0 L2655,1581 L0,1581 L0,0 L2655,0 Z"></path></clipPath><clipPath id="i1"><path d="M15,0 C23.2842712,0 30,6.71572875 30,15 C30,23.2842712 23.2842712,30 15,30 C6.71572875,30 0,23.2842712 0,15 C0,6.71572875 6.71572875,0 15,0 Z"></path></clipPath><clipPath id="i2"><path d="M2.48387224,0 C3.85567629,0 4.9677432,1.11206691 4.9677432,2.48387097 C4.9677432,3.85567502 3.85567629,4.96774257 2.48387224,4.96774257 C1.82496437,4.96821309 1.19290829,4.70667159 0.726989948,4.24075326 C0.26107161,3.77483492 -0.000469884242,3.14277883 6.33754615e-07,2.48387097 C6.33754615e-07,1.11206691 1.11206818,0 2.48387224,0 Z M2.48387224,1.06451613 C1.6999842,1.06451613 1.0645174,1.69998294 1.0645174,2.48387097 C1.0645174,3.267759 1.6999842,3.90322581 2.48387224,3.90322581 C3.26776027,3.90322581 3.90322708,3.267759 3.90322708,2.48387097 C3.90322708,1.69998294 3.26776027,1.06451613 2.48387224,1.06451613 Z"></path></clipPath><clipPath id="i3"><path d="M2.48387224,6.33754615e-07 C3.85567629,6.33754615e-07 4.9677432,1.11206818 4.9677432,2.48387224 C4.9677432,3.85567629 3.85567629,4.9677432 2.48387224,4.9677432 C1.11206818,4.9677432 6.33754612e-07,3.85567629 6.33754612e-07,2.48387224 C-0.000469884242,1.82496437 0.26107161,1.19290829 0.726989948,0.726989948 C1.19290829,0.26107161 1.82496437,-0.000469884242 2.48387224,6.33754615e-07 Z M2.48387224,1.0645174 C1.6999842,1.0645174 1.0645174,1.6999842 1.0645174,2.48387224 C1.0645174,3.26776027 1.6999842,3.90322708 2.48387224,3.90322708 C3.26776027,3.90322708 3.90322708,3.26776027 3.90322708,2.48387224 C3.90322708,1.6999842 3.26776027,1.0645174 2.48387224,1.0645174 Z"></path></clipPath><clipPath id="i4"><path d="M1.41935484,0 C2.20324287,0 2.83870968,0.635466807 2.83870968,1.41935484 C2.83870968,2.20324287 2.20324287,2.83870968 1.41935484,2.83870968 C0.635466807,2.83870968 0,2.20324287 0,1.41935484 C0,0.635466807 0.635466807,0 1.41935484,0 Z"></path></clipPath><clipPath id="i5"><path d="M1.41935484,0 C2.20324287,0 2.83870968,0.635466807 2.83870968,1.41935484 C2.83870968,2.20324287 2.20324287,2.83870968 1.41935484,2.83870968 C0.635466807,2.83870968 0,2.20324287 0,1.41935484 C0,0.635466807 0.635466807,0 1.41935484,0 Z"></path></clipPath><clipPath id="i6"><path d="M2.48387097,0 L2.83870968,1.41935484 L1.41935484,2.12903226 L0,1.41935484 L0.35483871,0 L2.48387097,0 Z"></path></clipPath><clipPath id="i7"><path d="M2.12903226,0 L1.77419355,1.41935484 L0,1.77419355 L1.06451613,0 L2.12903226,0 Z"></path></clipPath><clipPath id="i8"><path d="M1.06451613,0 L2.12903226,1.77419355 L0.35483871,1.41935484 L0,0 L1.06451613,0 Z"></path></clipPath><clipPath id="i9"><path d="M1.06451613,0 L1.06451613,2.12903226 L0,2.12903226 L0,0 L1.06451613,0 Z"></path></clipPath><clipPath id="i10"><path d="M2.12903226,0 L2.12903226,2.12903226 L1.06451613,2.12903226 C0.476600105,2.12903226 0,1.65243215 0,1.06451613 C0,0.476600105 0.476600105,0 1.06451613,0 L2.12903226,0 Z"></path></clipPath><clipPath id="i11"><path d="M0.656451613,0 L2.83870968,0.656451613 L0.656451613,1.31290323 L0,0.656451613 L0.656451613,0 Z"></path></clipPath><clipPath id="i12"><path d="M0.709677419,0 L2.07580645,0.408064516 L1.41935484,1.06451613 L2.07580645,1.72096774 L0.709677419,2.12903226 L0,1.06451613 L0.709677419,0 Z"></path></clipPath><clipPath id="i13"><path d="M14.5483871,0 L15.2580645,1.06451613 L0,1.06451613 L0,0 L14.5483871,0 Z"></path></clipPath><clipPath id="i14"><path d="M15.2580645,0 L14.5483871,1.06451613 L0,1.06451613 L0,0 L15.2580645,0 Z"></path></clipPath><clipPath id="i15"><path d="M6.03225806,0 L12.0645161,2.12903226 L10.6451613,2.62935484 L6.03225806,4.25806452 L1.41935484,2.62935484 L0,2.12903226 L6.03225806,0 Z"></path></clipPath><clipPath id="i16"><path d="M9.22580645,0 L9.22580645,2.3383871 C9.22126717,2.4702503 9.16965705,2.59612863 9.08032258,2.69322581 C8.56935484,3.30709677 6.76677419,3.75774194 4.61290323,3.75774194 C2.38096774,3.75774194 0.521612903,3.2716129 0.0922580645,2.62225806 C0.0338392015,2.53897478 0.00170561172,2.44010219 0,2.3383871 L0,0 L4.61290323,1.62870968 L9.22580645,0 Z"></path></clipPath><clipPath id="i17"><path d="M0.709677527,0 L0.73358109,0.0365013875 C0.91964126,0.32334415 2.12903237,2.2382134 2.12903237,3.5483871 C2.13509459,3.83252942 2.02488834,4.10682982 1.82392365,4.30779451 C1.62295896,4.5087592 1.34865856,4.61896545 1.06451624,4.61290323 C0.660148061,4.5924824 0.29151592,4.37501596 0.0780646233,4.03096774 C0.0260164215,3.63568138 -6.10049052e-05,3.23740796 0,2.83870968 C0,0.88 0.600671058,0.122632258 0.696778428,0.0139891613 L0.709677527,0 Z"></path></clipPath><clipPath id="i18"><path d="M1.41959236,0 L1.43249145,0.0139891613 C1.52859882,0.122632258 2.12926988,0.88 2.12926988,2.83870968 C2.12933089,3.23740796 2.10325346,3.63568138 2.05120526,4.03096774 C1.83775396,4.37501596 1.46912182,4.5924824 1.06475365,4.61290323 C0.780611321,4.61896545 0.506310918,4.5087592 0.305346231,4.30779451 C0.104381544,4.10682982 -0.00582470598,3.83252942 0.000237516542,3.5483871 C0.000237516542,2.2382134 1.20962862,0.32334415 1.39568879,0.0365013875 L1.41959236,0 Z"></path></clipPath><clipPath id="i19"><path d="M2.22481071,0 C2.65416555,0.649354839 4.51352039,1.13548387 6.74545588,1.13548387 C8.89932684,1.13548387 10.7019075,0.68483871 11.2128752,0.0709677419 L12.7777139,0.0709677419 L12.4228752,1.84516129 C12.4228752,1.84516129 13.4873914,2.55483871 13.4873914,4.32903226 C13.5242118,5.10232308 13.2711448,5.86152414 12.7777139,6.45806452 L12.7538104,6.4945659 C12.5677502,6.78140867 11.3583591,8.69627792 11.3583591,10.0064516 C11.3522969,10.2905939 11.4625031,10.5648943 11.6634678,10.765859 C11.8644325,10.9668237 12.1387329,11.07703 12.4228752,11.0709677 C12.8272434,11.0505469 13.1958755,10.8330805 13.4093268,10.4890323 C13.3375238,11.1922326 13.1225767,11.8733007 12.7777139,12.4903226 L0.713197811,12.4903226 C0.368335008,11.8733007 0.153387996,11.1922326 0.0815849075,10.4890323 C0.295036204,10.8330805 0.663668345,11.0505469 1.06803652,11.0709677 C1.35217884,11.07703 1.62647925,10.9668237 1.82744393,10.765859 C2.02840862,10.5648943 2.13861487,10.2905939 2.13255265,10.0064516 C2.13255265,8.69627792 0.923161544,6.78140867 0.737101374,6.4945659 L0.713197811,6.45806452 C0.219766949,5.86152414 -0.0333000705,5.10232308 0.00352039135,4.32903226 C0.00352039135,2.55483871 1.06803652,1.84516129 1.06803652,1.84516129 L0.713197811,0.0709677419 L2.13255265,0.0709677419 L2.22481071,0 Z M7.45513329,5.39354839 L6.03577846,5.39354839 L6.74545588,7.16774194 L7.45513329,5.39354839 Z M3.55190749,1.84516129 C2.18010343,1.84516129 1.06803652,2.9572282 1.06803652,4.32903226 C1.06803652,5.70083631 2.18010343,6.81290386 3.55190749,6.81290386 C4.21081535,6.81337438 4.84287144,6.55183288 5.30878978,6.08591455 C5.77470812,5.61999621 6.03624961,4.98794012 6.03577909,4.32903226 C6.03577909,2.9572282 4.92371154,1.84516129 3.55190749,1.84516129 Z M9.93900426,1.84516065 C9.2800964,1.84469014 8.64804031,2.10623163 8.18212197,2.57214997 C7.71620364,3.03806831 7.45466214,3.67012439 7.45513266,4.32903226 C7.45513266,5.70083631 8.56720021,6.81290323 9.93900426,6.81290323 C11.3108083,6.81290323 12.4228752,5.70083631 12.4228752,4.32903226 C12.4228752,2.9572282 11.3108083,1.84516065 9.93900426,1.84516065 Z"></path></clipPath><clipPath id="i20"><path d="M0.996524904,0 C1.54689619,0 1.99304981,0.44579848 1.99304981,0.99568548 C1.99304981,1.54560477 0.996524904,3.3 0.996524904,3.3 C0.996524904,3.3 0,1.54560477 0,0.99568548 C0,0.445766194 0.44615362,0 0.996524904,0 Z"></path></clipPath><clipPath id="i21"><path d="M6.38709677,0 C6.58306878,0 6.74193548,0.158866702 6.74193548,0.35483871 L6.74193548,2.83870968 C6.74193548,3.03468169 6.58306878,3.19354839 6.38709677,3.19354839 C6.19112477,3.19354839 6.03225806,3.03468169 6.03225806,2.83870968 L6.03225806,0.709677419 L0.35483871,0.709677419 C0.158866702,0.709677419 0,0.550810718 0,0.35483871 C0,0.158866702 0.158866702,0 0.35483871,0 L6.38709677,0 Z"></path></clipPath><clipPath id="i22"><path d="M2.83870968,0 L0.656451613,0.656451613 L0,0 L2.83870968,0 Z"></path></clipPath><clipPath id="i23"><path d="M1.41935484,0 L2.07580645,0.656451613 L0.709677419,1.06451613 L0,0 L1.41935484,0 Z"></path></clipPath><clipPath id="i24"><path d="M0.35483871,0 C0.550810718,0 0.709677419,0.158866702 0.709677419,0.35483871 C0.709677419,0.550810718 0.550810718,0.709677419 0.35483871,0.709677419 C0.158866702,0.709677419 0,0.550810718 0,0.35483871 C0,0.158866702 0.158866702,0 0.35483871,0 Z"></path></clipPath><clipPath id="i25"><path d="M0.35483871,0 C0.550810718,0 0.709677419,0.158866702 0.709677419,0.35483871 C0.709677419,0.550810718 0.550810718,0.709677419 0.35483871,0.709677419 C0.158866702,0.709677419 0,0.550810718 0,0.35483871 C0,0.158866702 0.158866702,0 0.35483871,0 Z"></path></clipPath><clipPath id="i26"><path d="M9.0513375,1.61471647e-06 C10.498449,-0.00157625516 11.6816268,1.15344063 11.7148756,2.60017099 C11.7481244,4.04690134 10.619257,5.25505372 9.17359967,5.31993116 C7.72794234,5.38480859 6.49539319,4.28263061 6.39891815,2.83873768 L5.31666008,2.83873768 C5.22097744,4.27078432 4.00697241,5.36899605 2.57253127,5.3211281 C1.13809012,5.27326015 0,4.09655794 0,2.66131833 C0,1.22607872 1.13809012,0.0493765106 2.57253127,0.00150855987 C4.00697241,-0.0463593908 5.22097744,1.05185234 5.31666008,2.48389897 L6.39891815,2.48389897 C6.49223631,1.08722759 7.65155294,0.00157991763 9.0513375,1.61471647e-06 Z M2.66424073,0.354866717 C1.39042267,0.354866717 0.357789113,1.38750028 0.357789113,2.66131833 C0.357789113,3.93513638 1.39042267,4.96776994 2.66424073,4.96776994 C3.93741035,4.96620585 4.96912825,3.93448795 4.97069234,2.66131833 C4.97069234,1.38750028 3.93805878,0.354866717 2.66424073,0.354866717 Z M9.0513375,0.354866717 C7.77751945,0.354866717 6.74488589,1.38750028 6.74488589,2.66131833 C6.74488589,3.93513638 7.77751945,4.96776994 9.0513375,4.96776994 C10.3245071,4.96620585 11.356225,3.93448795 11.3577891,2.66131833 C11.3577891,1.38750028 10.3251556,0.354866717 9.0513375,0.354866717 Z"></path></clipPath></defs><g transform="translate(-293.0 -187.0)"><g clip-path="url(#i0)"><g transform="translate(293.0 187.0)"><g clip-path="url(#i1)"><polygon points="0,0 30,0 30,30 0,30 0,0" stroke="none" fill="#FFFFFF"></polygon><g transform="translate(3.9999999999999254 4.0)"><g transform="translate(5.322579375940714 7.096774193547956)"><g clip-path="url(#i2)"><polygon points="0,0 4.9677432,0 4.9677432,4.9677432 0,4.9677432 0,0" stroke="none" fill="#E7E8E8"></polygon></g></g><g transform="translate(11.709676150134232 7.096772924328456)"><g clip-path="url(#i3)"><polygon points="-2.54068369e-15,1.11022302e-16 4.9677432,1.11022302e-16 4.9677432,4.9677432 -2.54068369e-15,4.9677432 -2.54068369e-15,1.11022302e-16" stroke="none" fill="#E7E8E8"></polygon></g></g><g transform="translate(6.387096774193762 8.16129032258125)"><g clip-path="url(#i4)"><polygon points="0,0 2.83870968,0 2.83870968,2.83870968 0,2.83870968 0,0" stroke="none" fill="#E7E8E8"></polygon></g></g><g transform="translate(12.77419354838728 8.16129032258125)"><g clip-path="url(#i5)"><polygon points="0,0 2.83870968,0 2.83870968,2.83870968 0,2.83870968 0,0" stroke="none" fill="#E7E8E8"></polygon></g></g><g transform="translate(7.806451612903401 19.87096774193548)"><g transform="translate(1.7770322580646558 0.0)"><g clip-path="url(#i6)"><polygon points="0,0 2.83870968,0 2.83870968,2.12903226 0,2.12903226 0,0" stroke="none" fill="#3F5B73"></polygon></g></g><g clip-path="url(#i7)"><polygon points="0,0 2.12903226,0 2.12903226,1.77419355 0,1.77419355 0,0" stroke="none" fill="#3F5B73"></polygon></g><g transform="translate(4.263741935483758 0.0)"><g clip-path="url(#i8)"><polygon points="0,0 2.12903226,0 2.12903226,1.77419355 0,1.77419355 0,0" stroke="none" fill="#3F5B73"></polygon></g></g></g><g transform="translate(2.129032258064588 17.74193548387089)"><g clip-path="url(#i9)"><polygon points="0,0 1.06451613,0 1.06451613,2.12903226 0,2.12903226 0,0" stroke="none" fill="#3F5B73"></polygon></g></g><g transform="translate(0.0 17.74193548387089)"><g clip-path="url(#i10)"><polygon points="0,0 2.12903226,0 2.12903226,2.12903226 0,2.12903226 0,0" stroke="none" fill="#3F5B73"></polygon></g></g><g transform="translate(19.161290322580783 18.15000000000006)"><g clip-path="url(#i11)"><polygon points="0,0 2.83870968,0 2.83870968,1.31290323 0,1.31290323 0,0" stroke="none" fill="#393C48"></polygon></g></g><g transform="translate(17.741935483871146 17.74193548387089)"><g clip-path="url(#i12)"><polygon points="0,0 2.07580645,0 2.07580645,2.12903226 0,2.12903226 0,0" stroke="none" fill="#FFD6BD"></polygon></g></g><g transform="translate(3.1935483870968815 18.80645161290418)"><g clip-path="url(#i13)"><polygon points="0,0 15.2580645,0 15.2580645,1.06451613 0,1.06451613 0,0" stroke="none" fill="#F3CC53"></polygon></g></g><g transform="translate(3.1935483870968815 17.74193548387089)"><g clip-path="url(#i14)"><polygon points="0,0 15.2580645,0 15.2580645,1.06451613 0,1.06451613 0,0" stroke="none" fill="#F3CC53"></polygon></g></g><g transform="translate(4.967741935483871 0.0)"><g clip-path="url(#i15)"><polygon points="0,0 12.0645161,0 12.0645161,4.25806452 0,4.25806452 0,0" stroke="none" fill="#3F5B73"></polygon></g></g><g transform="translate(6.387096774193761 2.6293548387087946)"><g clip-path="url(#i16)"><polygon points="0,0 9.22580645,0 9.22580645,3.75774194 0,3.75774194 0,0" stroke="none" fill="#F3CC53"></polygon></g></g><g transform="translate(4.258064408968599 11.70967741935422)"><g clip-path="url(#i17)"><polygon points="-1.06785513e-07,0 2.12926988,0 2.12926988,4.61314074 -1.06785513e-07,4.61314074 -1.06785513e-07,0" stroke="none" fill="#F3CC53"></polygon></g></g><g transform="translate(15.612665709264208 11.70967741935422)"><g clip-path="url(#i18)"><polygon points="1.16573418e-15,0 2.12926999,0 2.12926999,4.61314074 1.16573418e-15,4.61314074 1.16573418e-15,0" stroke="none" fill="#F3CC53"></polygon></g></g><g transform="translate(4.254544124782559 5.251612903225047)"><g clip-path="url(#i19)"><polygon points="0,0 13.4909118,0 13.4909118,12.4903226 0,12.4903226 0,0" stroke="none" fill="#3F5B73"></polygon></g></g><g transform="translate(10.06493427552784 9.900000000000029)"><g clip-path="url(#i20)"><polygon points="0,0 1.99304981,0 1.99304981,3.3 0,3.3 0,0" stroke="none" fill="#F3CC53"></polygon></g></g><g transform="translate(10.64516129032268 1.77419354838749)"><g clip-path="url(#i21)"><polygon points="0,0 6.74193548,0 6.74193548,3.19354839 0,3.19354839 0,0" stroke="none" fill="#F3CC53"></polygon></g></g><g transform="translate(19.161290322580783 18.806451612904176)"><g clip-path="url(#i22)"><polygon points="0,0 2.83870968,0 2.83870968,0.656451613 0,0.656451613 0,0" stroke="none" fill="#212430"></polygon></g></g><g transform="translate(17.741935483871146 18.80645161290418)"><g clip-path="url(#i23)"><polygon points="0,0 2.07580645,0 2.07580645,1.06451613 0,1.06451613 0,0" stroke="none" fill="#FFD6BD"></polygon></g></g><g transform="translate(13.12903225806462 9.225806451612543)"><g clip-path="url(#i24)"><polygon points="0,0 0.709677419,0 0.709677419,0.709677419 0,0.709677419 0,0" stroke="none" fill="#3F5B73"></polygon></g></g><g transform="translate(8.16129032258075 9.225806451612543)"><g clip-path="url(#i25)"><polygon points="0,0 0.709677419,0 0.709677419,0.709677419 0,0.709677419 0,0" stroke="none" fill="#3F5B73"></polygon></g></g><g transform="translate(5.142210886805758 6.919326831732016)"><g clip-path="url(#i26)"><polygon points="0,4.4408921e-16 11.7155915,4.4408921e-16 11.7155915,5.32265408 0,5.32265408 0,4.4408921e-16" stroke="none" fill="#F3CC53"></polygon></g></g></g></g></g></g></g></svg>