<?xml version="1.0" encoding="UTF-8"?><svg version="1.1" width="100px" height="100px" viewBox="0 0 100.0 100.0" xmlns="http://www.w3.org/2000/svg" xmlns:xlink="http://www.w3.org/1999/xlink"><defs><clipPath id="i0"><path d="M2655,0 L2655,1581 L0,1581 L0,0 L2655,0 Z"></path></clipPath><clipPath id="i1"><path d="M50,0 C77.6142375,0 100,22.3857625 100,50 C100,77.6142375 77.6142375,100 50,100 C22.3857625,100 0,77.6142375 0,50 C0,22.3857625 22.3857625,0 50,0 Z"></path></clipPath><clipPath id="i2"><path d="M28.1264026,0 C29.8407328,0 31.4248452,0.914564363 32.282043,2.39919886 L55.6069677,42.8005627 C56.4645869,44.2854861 56.4647562,46.1151711 55.6074119,47.6002531 C54.7500676,49.0853352 53.1654922,50 51.4507013,50 L4.79959984,50 C3.08480892,50 1.50023356,49.0853352 0.642889242,47.6002531 C-0.214455072,46.1151711 -0.214285754,44.2854861 0.643333401,42.8005627 L23.9707622,2.39919886 C24.8279601,0.914564363 26.4120725,0 28.1264026,0 Z"></path></clipPath><clipPath id="i3"><path d="M3.01687724,0 C4.68305253,-3.06071435e-16 6.03375447,1.35070195 6.03375447,3.01687724 L6.03375447,15.3742418 C6.03375447,17.0404171 4.68305253,18.391119 3.01687724,18.391119 C1.35070195,18.391119 2.04047624e-16,17.0404171 0,15.3742418 L0,3.01687724 C-2.04047624e-16,1.35070195 1.35070195,3.06071435e-16 3.01687724,0 Z"></path></clipPath><clipPath id="i4"><path d="M3.01687724,0 C4.68305253,0 6.03375447,1.35070195 6.03375447,3.01687724 C6.03375447,4.68305253 4.68305253,6.03375447 3.01687724,6.03375447 C1.35070195,6.03375447 0,4.68305253 0,3.01687724 C0,1.35070195 1.35070195,0 3.01687724,0 Z"></path></clipPath></defs><g transform="translate(-69.0 -235.0)"><g clip-path="url(#i0)"><g transform="translate(69.0 235.0)"><g clip-path="url(#i1)"><polygon points="0,0 100,0 100,100 0,100 0,0" stroke="none" fill="#FFFFFF"></polygon></g><g transform="translate(22.000000000000004 25.0)"><g clip-path="url(#i2)"><polygon points="6.66133815e-16,0 56.2503011,0 56.2503011,50 6.66133815e-16,50 6.66133815e-16,0" stroke="none" fill="#3F5B73"></polygon></g><g transform="translate(25.10952540730014 14.859859688733971)"><g clip-path="url(#i3)"><polygon points="0,0 6.03375447,0 6.03375447,18.391119 0,18.391119 0,0" stroke="none" fill="#F3CC53"></polygon></g><g transform="translate(0.0 22.64066512901861)"><g clip-path="url(#i4)"><polygon points="0,0 6.03375447,0 6.03375447,6.03375447 0,6.03375447 0,0" stroke="none" fill="#F3CC53"></polygon></g></g></g></g></g></g></g></svg>