<svg width="24" height="24" viewBox="0 0 24 24" fill="none" xmlns="http://www.w3.org/2000/svg">
<path d="M11.9978 15.5294C10.0566 15.5294 8.46839 13.9412 8.46839 12C8.46839 10.0588 10.0566 8.47059 11.9978 8.47059C13.939 8.47059 15.5272 10.0588 15.5272 12C15.5272 13.9412 13.939 15.5294 11.9978 15.5294ZM19.939 9.79412C19.7625 9.14706 19.4978 8.52941 19.1743 7.97059L19.9096 5.76471L18.2331 4.08824L16.0272 4.82353C15.439 4.5 14.8213 4.23529 14.1743 4.05882L13.1743 2H10.8213L9.79192 4.05882C9.14486 4.23529 8.52721 4.5 7.96839 4.82353L5.76251 4.08824L4.08604 5.76471L4.82133 7.97059C4.4978 8.55882 4.2331 9.17647 4.05663 9.82353L1.9978 10.8235V13.1765L4.05663 14.2059C4.2331 14.8529 4.4978 15.4706 4.82133 16.0294L4.08604 18.2353L5.76251 19.9118L7.96839 19.1765C8.55663 19.5 9.17427 19.7647 9.82133 19.9412L10.8507 22H13.2037L14.2331 19.9412C14.8802 19.7647 15.4978 19.5 16.0566 19.1765L18.2625 19.9118L19.939 18.2353L19.2037 16.0294C19.5272 15.4412 19.7919 14.8235 19.9684 14.1765L22.0272 13.1471V10.7941L19.939 9.79412Z" fill="#2B4B51"/>
</svg>
