<svg width="18" height="18" viewBox="0 0 18 18" fill="none" xmlns="http://www.w3.org/2000/svg">
<circle cx="9" cy="9" r="9" fill="white"/>
<path d="M5.49983 4.12769H12.4998C12.4919 6.61921 11.6808 7.6485 9.99984 9.37769C11.4671 11.2102 12.5139 12.1383 12.4998 14.6277H5.49983C5.49983 12.1277 6.85845 11.1206 7.99983 9.37769C6.31972 7.62813 5.4926 6.59811 5.49983 4.12769Z" fill="white"/>
<path fill-rule="evenodd" clip-rule="evenodd" d="M12.6968 3.62769H5.30316C5.13337 3.62769 5 3.76305 5 3.93538V4.55076C5 4.72305 5.13337 4.85845 5.30316 4.85845H5.52497C5.53199 4.95028 5.54047 5.03997 5.55043 5.12769C5.75329 6.91542 6.56588 7.88449 7.9998 9.37769C7.72872 9.79163 7.44538 10.1641 7.1709 10.5249C6.45725 11.4629 5.80348 12.3223 5.58067 13.6277H5.30316C5.13337 13.6277 5 13.7611 5 13.9308V14.5372C5 14.7069 5.13337 14.8403 5.30316 14.8403H12.6968C12.8666 14.8403 13 14.7069 13 14.5372V13.9308C13 13.7611 12.8666 13.6277 12.6968 13.6277H12.4399C12.2328 12.0999 11.5067 11.2165 10.5132 10.008C10.349 9.80821 10.1775 9.59958 9.9998 9.37769C11.4365 7.89973 12.2378 6.93307 12.4453 5.12769C12.4554 5.03997 12.464 4.95028 12.4713 4.85845H12.6968C12.8666 4.85845 13 4.72305 13 4.55076V3.93538C13 3.76305 12.8666 3.62769 12.6968 3.62769ZM11.4288 13.6277C11.3385 13.0795 11.1666 12.6522 10.9381 12.2542C10.6471 11.7474 10.277 11.2968 9.78261 10.695C9.6105 10.4855 9.42332 10.2576 9.2192 10.0027L8.98081 9.70499L8.83637 9.92554C8.48632 10.4601 8.15765 10.8938 7.86362 11.2818C7.24701 12.0954 6.78277 12.708 6.59329 13.6277H11.4288ZM8.99809 8.9735L9.28276 8.68066C10.1272 7.81196 10.6538 7.21472 10.9926 6.57212C11.2062 6.16709 11.3586 5.71621 11.4377 5.12769H6.55792C6.63513 5.70586 6.78704 6.15158 7.0007 6.55486C7.34261 7.20023 7.87419 7.80315 8.72108 8.68504L8.99809 8.9735Z" fill="#405B73"/>
<path d="M7.86116 12.9168C8.5463 12.4421 9.45399 12.4421 10.1391 12.9168L11.1652 13.6277H6.83508L7.86116 12.9168Z" fill="#F4CC54"/>
<path d="M8.99999 8.55561C8.58859 8.21471 8.35511 7.96977 8.05711 7.64981C7.75352 7.32384 7.98387 6.77783 8.42932 6.77783L9.57066 6.77783C10.0161 6.77783 10.2445 7.32198 9.93818 7.6454C9.59529 8.00744 9.3421 8.27304 8.99999 8.55561Z" fill="#F4CC54"/>
</svg>
