<svg width="54" height="54" viewBox="0 0 54 54" fill="none" xmlns="http://www.w3.org/2000/svg">
<circle cx="27" cy="27" r="27" fill="white"/>
<path d="M40.5 25.875C40.5 27.739 38.989 29.25 37.125 29.25C35.261 29.25 33.75 27.739 33.75 25.875C33.75 24.011 35.261 22.5 37.125 22.5C38.989 22.5 40.5 24.011 40.5 25.875Z" fill="#F4CC54"/>
<path fill-rule="evenodd" clip-rule="evenodd" d="M46.1693 17.3093C46.5507 17.7998 46.4624 18.5066 45.9719 18.888L43.4407 20.8568C42.9502 21.2382 42.2434 21.1499 41.862 20.6594C41.4805 20.169 41.5689 19.4622 42.0593 19.0807L44.5906 17.112C45.081 16.7305 45.7878 16.8189 46.1693 17.3093Z" fill="#F4CC54"/>
<path fill-rule="evenodd" clip-rule="evenodd" d="M46.1693 34.1594C46.5507 33.669 46.4624 32.9622 45.9719 32.5807L43.4407 30.612C42.9502 30.2305 42.2434 30.3189 41.862 30.8093C41.4805 31.2998 41.5689 32.0066 42.0593 32.388L44.5906 34.3568C45.081 34.7382 45.7878 34.6499 46.1693 34.1594Z" fill="#F4CC54"/>
<path fill-rule="evenodd" clip-rule="evenodd" d="M43.875 25.875C43.875 25.2537 44.3787 24.75 45 24.75H48.0938C48.7151 24.75 49.2188 25.2537 49.2188 25.875C49.2188 26.4963 48.7151 27 48.0938 27H45C44.3787 27 43.875 26.4963 43.875 25.875Z" fill="#F4CC54"/>
<path d="M22.1779 42.9261C20.401 43.4918 18.5018 42.5099 17.9361 40.7329L13.5 26.7987L19.9351 24.75L24.3712 38.6843C24.9369 40.4613 23.9549 42.3604 22.1779 42.9261Z" fill="#405B73"/>
<path d="M9 25.875C9 22.7684 11.5184 20.25 14.625 20.25H27V31.5H14.625C11.5184 31.5 9 28.9816 9 25.875Z" fill="#405B73"/>
<path d="M20.25 20.25C22.4735 20.25 24.6705 19.7675 26.6894 18.8357L36.9604 14.0952C37.5626 13.8173 38.25 14.2571 38.25 14.9203V36.8297C38.25 37.4929 37.5626 37.9327 36.9604 37.6548L26.6894 32.9143C24.6705 31.9825 22.4735 31.5 20.25 31.5V20.25Z" fill="#405B73"/>
</svg>
