<svg viewBox="0 0 54 54" fill="none" xmlns="http://www.w3.org/2000/svg">
<circle cx="27" cy="27" r="27" fill="white"/>
<path d="M15.8935 11.5865H38.1054C38.0804 19.4925 35.5064 22.7586 30.1726 28.2455C34.8284 34.0602 38.1501 37.0052 38.1054 44.9045H15.8935C15.8935 36.9716 20.2045 33.7759 23.8263 28.2455C18.4951 22.6939 15.8705 19.4255 15.8935 11.5865Z" fill="white"/>
<path fill-rule="evenodd" clip-rule="evenodd" d="M38.7306 10H15.2694C14.7306 10 14.3074 10.4295 14.3074 10.9763V12.929C14.3074 13.4757 14.7306 13.9054 15.2694 13.9054H15.9733L15.9758 13.937C16.4583 20.1453 19.0611 23.2834 23.8263 28.2455C22.9661 29.559 22.067 30.7409 21.196 31.8857C18.9315 34.8623 16.8571 37.5891 16.1501 41.7314H15.2694C14.7306 41.7314 14.3074 42.1546 14.3074 42.6933V44.6173C14.3074 45.1559 14.7306 45.5792 15.2694 45.5792H38.7306C39.2693 45.5792 39.6925 45.1559 39.6925 44.6173V42.6933C39.6925 42.1546 39.2693 41.7314 38.7306 41.7314H37.9153C37.2583 36.8834 34.954 34.0803 31.8016 30.2455C31.2806 29.6116 30.7363 28.9496 30.1726 28.2455C34.9449 23.3362 37.5079 20.2047 38.0125 13.937L38.0151 13.9054H38.7306C39.2693 13.9054 39.6925 13.4757 39.6925 12.929V10.9763C39.6925 10.4295 39.2693 10 38.7306 10ZM35.5402 41.7314C35.2447 39.8342 34.6579 38.3476 33.8633 36.9635C32.9032 35.2913 31.6699 33.7902 30.0832 31.8589C29.5435 31.202 28.9624 30.4948 28.3378 29.7146L27.0409 28.095L28.4872 26.6072C31.1635 23.8541 32.9137 21.8829 34.0507 19.7268C34.892 18.1313 35.4399 16.3457 35.6538 13.937H18.334C18.5384 16.3118 19.0855 18.0812 19.9291 19.6735C21.0749 21.8362 22.84 23.825 25.5216 26.6175L26.818 27.9675L25.7926 29.5333C24.7519 31.1224 23.7468 32.448 22.8278 33.6599C20.7789 36.3619 19.1586 38.4988 18.5285 41.7314H35.5402Z" fill="#405B73"/>
<path d="M24.8587 38.4555C26.147 37.5629 27.8538 37.5629 29.1421 38.4555L33.8705 41.7314H20.1304L24.8587 38.4555Z" fill="#F4CC54"/>
<path d="M26.9999 25.6369C24.9836 23.9661 24.3142 23.0218 22.1569 20.8046C21.8648 20.5045 22.0749 19.9958 22.4937 19.9958L31.5062 19.9958C31.925 19.9958 32.1351 20.504 31.8422 20.8032C29.6068 23.0866 28.616 24.3021 26.9999 25.6369Z" fill="#F4CC54"/>
</svg>
