<svg width="54" height="54" viewBox="0 0 54 54" fill="none" xmlns="http://www.w3.org/2000/svg">
<g id="icon_fertig">
<circle id="Oval Copy 3" cx="27" cy="27" r="27" fill="white"/>
<g id="thumbs-up copy">
<g id="Group 8">
<path id="Shape" d="M29.3501 39.6787C29.301 39.7213 29.2369 39.7427 29.172 39.7382L28.653 39.7019C28.5645 39.6972 28.4854 39.6452 28.446 39.5657C28.4067 39.4863 28.4133 39.3918 28.4633 39.3186C28.5133 39.2454 28.5989 39.2049 28.6872 39.2126L29.2063 39.2489C29.3052 39.2558 29.3902 39.3217 29.4217 39.4157C29.4532 39.5098 29.4249 39.6136 29.3501 39.6787Z" fill="#F4CC54"/>
<path id="Shape_2" d="M27.7932 39.5698C27.7441 39.6124 27.6801 39.6339 27.6152 39.6293L27.0962 39.593C26.9629 39.5814 26.8635 39.465 26.8728 39.3316C26.8822 39.1981 26.9967 39.0967 27.1304 39.1037L27.6494 39.14C27.7484 39.147 27.8334 39.2128 27.8649 39.3069C27.8963 39.4009 27.8681 39.5047 27.7932 39.5698Z" fill="#F4CC54"/>
<path id="Shape_3" d="M28.2395 40.6441C28.1646 40.7092 28.058 40.7227 27.9692 40.6785C27.8804 40.6342 27.8271 40.5408 27.834 40.4419L27.8703 39.9228C27.8749 39.8343 27.927 39.7552 28.0064 39.7159C28.0858 39.6766 28.1803 39.6832 28.2535 39.7332C28.3267 39.7831 28.3673 39.8688 28.3595 39.9571L28.3232 40.4761C28.3187 40.541 28.2886 40.6014 28.2395 40.6441Z" fill="#F4CC54"/>
<path id="Shape_4" d="M28.3484 39.087C28.2735 39.152 28.1668 39.1656 28.0781 39.1213C27.9893 39.0771 27.9359 38.9837 27.9429 38.8848L27.9791 38.3657C27.9838 38.2772 28.0358 38.1981 28.1153 38.1588C28.1947 38.1194 28.2892 38.126 28.3624 38.176C28.4356 38.226 28.4761 38.3116 28.4684 38.3999L28.4321 38.919C28.4276 38.9839 28.3975 39.0443 28.3484 39.087Z" fill="#F4CC54"/>
</g>
<g id="Group 8 Copy">
<path id="Shape_5" d="M38.5298 38.5987C38.4807 38.6414 38.4166 38.6628 38.3517 38.6583L37.8327 38.622C37.7442 38.6173 37.665 38.5653 37.6257 38.4858C37.5864 38.4064 37.593 38.3119 37.643 38.2387C37.693 38.1655 37.7786 38.125 37.8669 38.1327L38.3859 38.169C38.4849 38.1759 38.5699 38.2418 38.6014 38.3358C38.6329 38.4299 38.6046 38.5336 38.5298 38.5987Z" fill="#F4CC54"/>
<path id="Shape_6" d="M36.9729 38.4899C36.9238 38.5325 36.8598 38.554 36.7949 38.5494L36.2758 38.5131C36.1425 38.5015 36.0432 38.3851 36.0525 38.2517C36.0619 38.1182 36.1764 38.0168 36.3101 38.0238L36.8291 38.0601C36.928 38.0671 37.0131 38.1329 37.0445 38.227C37.076 38.321 37.0477 38.4248 36.9729 38.4899Z" fill="#F4CC54"/>
<path id="Shape_7" d="M37.4192 39.5642C37.3443 39.6292 37.2376 39.6428 37.1489 39.5985C37.0601 39.5543 37.0067 39.4609 37.0137 39.362L37.0499 38.8429C37.0546 38.7544 37.1066 38.6753 37.1861 38.636C37.2655 38.5966 37.36 38.6032 37.4332 38.6532C37.5064 38.7032 37.5469 38.7888 37.5392 38.8771L37.5029 39.3962C37.4984 39.4611 37.4683 39.5215 37.4192 39.5642Z" fill="#F4CC54"/>
<path id="Shape_8" d="M37.5281 38.0071C37.4532 38.0721 37.3465 38.0857 37.2578 38.0414C37.169 37.9972 37.1156 37.9038 37.1225 37.8049L37.1588 37.2858C37.1635 37.1973 37.2155 37.1182 37.295 37.0788C37.3744 37.0395 37.4689 37.0461 37.5421 37.0961C37.6153 37.1461 37.6558 37.2317 37.6481 37.32L37.6118 37.8391C37.6073 37.904 37.5772 37.9644 37.5281 38.0071Z" fill="#F4CC54"/>
</g>
<path id="Shape_9" d="M33.3845 36.407C33.0722 36.9879 33.0254 37.6752 33.2561 38.2931C33.2737 38.3417 33.2589 38.396 33.2193 38.429C33.1796 38.4621 33.1235 38.4667 33.0789 38.4407C32.4989 38.1303 31.814 38.0824 31.1965 38.309C31.1481 38.33 31.0918 38.3172 31.0572 38.2774C31.0226 38.2376 31.0178 38.18 31.0453 38.135C31.358 37.5558 31.406 36.8698 31.1769 36.2526C31.1559 36.2043 31.1687 36.1479 31.2085 36.1133C31.2483 36.0787 31.3059 36.0739 31.3509 36.1014C31.9313 36.4154 32.6194 36.4622 33.237 36.2298C33.2855 36.2122 33.3399 36.227 33.3729 36.2667C33.4059 36.3063 33.4106 36.3624 33.3845 36.407Z" fill="#F4CC54"/>
<circle id="Oval Copy 5" cx="33.0976" cy="41.9809" r="0.858676" transform="rotate(-41 33.0976 41.9809)" fill="#405B73"/>
<circle id="Oval Copy 6" cx="35.7973" cy="33.3409" r="0.858676" transform="rotate(-41 35.7973 33.3409)" fill="#F4CC54"/>
<path id="Shape_10" d="M29.3174 42.804C29.1707 43.151 29.1437 43.5369 29.2407 43.9009C29.2558 43.9467 29.2419 43.9971 29.2056 44.0287C29.1692 44.0604 29.1174 44.0671 29.0741 44.0457C28.7273 43.8984 28.3411 43.8714 27.9772 43.969C27.9314 43.9841 27.881 43.9703 27.8494 43.9339C27.8178 43.8975 27.8111 43.8457 27.8324 43.8024C27.9798 43.4556 28.0068 43.0695 27.9091 42.7055C27.894 42.6597 27.9079 42.6094 27.9442 42.5777C27.9806 42.5461 28.0324 42.5394 28.0757 42.5607C28.4226 42.7075 28.8086 42.7344 29.1726 42.6374C29.2184 42.6223 29.2688 42.6362 29.3004 42.6726C29.332 42.709 29.3387 42.7608 29.3174 42.804Z" fill="#F4CC54"/>
</g>
<g id="thumbs-up">
<path id="Shape_11" d="M23.2978 19.6056C23.3709 19.5617 23.4585 19.5486 23.5413 19.5693L24.2036 19.7344C24.3169 19.7605 24.4073 19.8458 24.44 19.9574C24.4727 20.069 24.4426 20.1896 24.3614 20.2728C24.2801 20.3559 24.1603 20.3888 24.048 20.3587L23.3857 20.1936C23.2594 20.1621 23.1646 20.0576 23.1453 19.9289C23.1261 19.8003 23.1862 19.6726 23.2978 19.6056Z" fill="#F4CC54"/>
<path id="Shape_12" d="M25.2847 20.101C25.3579 20.0571 25.4455 20.044 25.5283 20.0646L26.1906 20.2298C26.3601 20.2752 26.462 20.4481 26.4195 20.6184C26.377 20.7887 26.2059 20.8936 26.0349 20.8541L25.3726 20.689C25.2463 20.6575 25.1515 20.553 25.1323 20.4243C25.113 20.2956 25.1732 20.168 25.2847 20.101Z" fill="#F4CC54"/>
<path id="Shape_13" d="M24.9522 18.6113C25.0638 18.5443 25.2047 18.5511 25.3093 18.6285C25.4139 18.7059 25.4616 18.8386 25.4301 18.9649L25.265 19.6272C25.2388 19.7405 25.1536 19.8309 25.042 19.8636C24.9304 19.8963 24.8098 19.8662 24.7266 19.785C24.6434 19.7037 24.6106 19.5839 24.6407 19.4715L24.8058 18.8092C24.8264 18.7264 24.8791 18.6552 24.9522 18.6113Z" fill="#F4CC54"/>
<path id="Shape_14" d="M24.4571 20.5982C24.5687 20.5312 24.7096 20.538 24.8142 20.6154C24.9188 20.6928 24.9665 20.8255 24.935 20.9518L24.7699 21.6141C24.7437 21.7274 24.6584 21.8178 24.5468 21.8505C24.4352 21.8832 24.3147 21.8531 24.2315 21.7719C24.1483 21.6906 24.1155 21.5708 24.1455 21.4584L24.3107 20.7961C24.3313 20.7133 24.384 20.6421 24.4571 20.5982Z" fill="#F4CC54"/>
<path id="Shape_15" d="M17.3398 22.9132C17.8756 22.2338 18.0926 21.3565 17.9353 20.5057C17.9237 20.439 17.9551 20.3721 18.0139 20.3385C18.0727 20.3049 18.1462 20.3116 18.1979 20.3554C18.8764 20.8886 19.7504 21.1065 20.5998 20.9543C20.6671 20.9382 20.737 20.9676 20.7726 21.0269C20.8082 21.0862 20.8014 21.1617 20.7556 21.2136C20.2196 21.8907 20.0013 22.766 20.1567 23.6155C20.1728 23.6828 20.1434 23.7527 20.0841 23.7883C20.0248 23.8239 19.9493 23.817 19.8975 23.7713C19.2191 23.2334 18.3409 23.0161 17.49 23.1757C17.4233 23.1873 17.3564 23.1559 17.3228 23.0971C17.2892 23.0383 17.2959 22.9648 17.3398 22.9132Z" fill="#F4CC54"/>
<circle id="Oval" cx="18.9059" cy="15.8565" r="1.12646" transform="rotate(149 18.9059 15.8565)" fill="#405B73"/>
<path id="Shape_16" d="M24.0515 15.5752C24.3201 15.1603 24.4429 14.6679 24.4005 14.1755C24.3914 14.1129 24.4208 14.051 24.475 14.0184C24.5292 13.9858 24.5977 13.989 24.6487 14.0264C25.0632 14.2958 25.5559 14.4186 26.0484 14.3753C26.111 14.3663 26.1729 14.3956 26.2055 14.4499C26.2381 14.5041 26.2349 14.5725 26.1975 14.6236C25.9281 15.038 25.8053 15.5308 25.8486 16.0232C25.8576 16.0858 25.8282 16.1477 25.774 16.1803C25.7198 16.2129 25.6513 16.2098 25.6003 16.1724C25.1855 15.9037 24.693 15.781 24.2007 15.8234C24.1381 15.8325 24.0762 15.8031 24.0436 15.7489C24.011 15.6946 24.0141 15.6262 24.0515 15.5752Z" fill="#F4CC54"/>
</g>
<g id="Group 4">
<path id="Path" d="M36.9306 20.5632C36.4913 20.1238 35.7791 20.1238 35.3396 20.5632L21.8615 34.0414L16.6808 28.8607C16.2414 28.4213 15.5292 28.4213 15.0898 28.8607C14.6504 29.3 14.6504 30.0122 15.0898 30.4516L21.066 36.4278C21.5052 36.8671 22.218 36.8668 22.657 36.4278L36.9306 22.1542C37.37 21.7148 37.3699 21.0025 36.9306 20.5632Z" fill="#405B73"/>
</g>
</g>
</svg>
