<?xml version="1.0" encoding="UTF-8"?>
<svg width="18px" height="12px" viewBox="0 0 16 12" version="1.1" xmlns="http://www.w3.org/2000/svg" xmlns:xlink="http://www.w3.org/1999/xlink">
    <path d="M3.55650777,12 C3.34511694,12 3.17086235,11.9328691 3.03374397,11.7986074 C2.8966256,11.6643457 2.82806642,11.5000893 2.82806642,11.3058382 L2.82806642,1.55329405 L3.03374397,1.79325121 L1.04552758,2.98446706 C0.942688806,3.04731298 0.828423496,3.07873594 0.702731655,3.07873594 C0.502767363,3.07873594 0.335654347,3.00160686 0.201392608,2.84734869 C0.0671308695,2.69309052 0,2.53311909 0,2.36743439 C0,2.12176397 0.119978575,1.92465631 0.359935726,1.77611141 L3.15372255,0.104981253 C3.29084092,0.0249955365 3.46223889,-0.00928405642 3.66791644,0.00214247456 C3.8564542,0.00785574005 4.00928406,0.0764149259 4.126406,0.207820032 C4.24352794,0.339225138 4.30208891,0.502053205 4.30208891,0.696304231 L4.30208891,11.3058382 C4.30208891,11.5000893 4.23210141,11.6643457 4.09212641,11.7986074 C3.9521514,11.9328691 3.77361186,12 3.55650777,12 Z" id="Path"></path>
                <path d="M8.52800095,5.00696304 C8.2880438,5.00696304 8.10379099,4.93697554 7.97524252,4.79700054 C7.84669404,4.65702553 7.78241981,4.46705945 7.78241981,4.2271023 L7.78241981,3.88430637 C7.78241981,3.63863596 7.84669404,3.44724156 7.97524252,3.31012319 C8.10379099,3.17300482 8.2880438,3.10444563 8.52800095,3.10444563 L8.67368922,3.10444563 C8.91935964,3.10444563 9.10504077,3.17300482 9.23073261,3.31012319 C9.35642445,3.44724156 9.41927037,3.63863596 9.41927037,3.88430637 L9.41927037,4.2271023 C9.41927037,4.46705945 9.35642445,4.65702553 9.23073261,4.79700054 C9.10504077,4.93697554 8.91935964,5.00696304 8.67368922,5.00696304 L8.52800095,5.00696304 Z M8.52800095,12 C8.2880438,12 8.10379099,11.9300125 7.97524252,11.7900375 C7.84669404,11.6500625 7.78241981,11.4600964 7.78241981,11.2201393 L7.78241981,10.8773433 C7.78241981,10.6316729 7.84669404,10.4402785 7.97524252,10.3031601 C8.10379099,10.1660418 8.2880438,10.0974826 8.52800095,10.0974826 L8.67368922,10.0974826 C8.91935964,10.0974826 9.10504077,10.1660418 9.23073261,10.3031601 C9.35642445,10.4402785 9.41927037,10.6316729 9.41927037,10.8773433 L9.41927037,11.2201393 C9.41927037,11.4600964 9.35642445,11.6500625 9.23073261,11.7900375 C9.10504077,11.9300125 8.91935964,12 8.67368922,12 L8.52800095,12 Z" id="Shape"></path>
                <path d="M15.0420758,12 C14.830685,12 14.6564304,11.9328691 14.519312,11.7986074 C14.3821937,11.6643457 14.3136345,11.5000893 14.3136345,11.3058382 L14.3136345,1.55329405 L14.519312,1.79325121 L12.5310956,2.98446706 C12.4282569,3.04731298 12.3139915,3.07873594 12.1882997,3.07873594 C11.9883354,3.07873594 11.8212224,3.00160686 11.6869607,2.84734869 C11.5526989,2.69309052 11.4855681,2.53311909 11.4855681,2.36743439 C11.4855681,2.12176397 11.6055466,1.92465631 11.8455038,1.77611141 L14.6392906,0.104981253 C14.776409,0.0249955365 14.9478069,-0.00928405642 15.1534845,0.00214247456 C15.3420223,0.00785574005 15.4948521,0.0764149259 15.6119741,0.207820032 C15.729096,0.339225138 15.787657,0.502053205 15.787657,0.696304231 L15.787657,11.3058382 C15.787657,11.5000893 15.7176695,11.6643457 15.5776945,11.7986074 C15.4377195,11.9328691 15.2591799,12 15.0420758,12 Z" id="Path"></path>
</svg>