<?xml version="1.0" encoding="UTF-8"?>
<svg height="auto" width="auto" viewBox="0 0 53 53" version="1.1" xmlns="http://www.w3.org/2000/svg" xmlns:xlink="http://www.w3.org/1999/xlink">
    <title>Group 3</title>
    <g id="Symbols" stroke="none" stroke-width="1" fill="none" fill-rule="evenodd">
        <g id="Infobox---Ueberschrift-Icon-Titel-Beschreibung-Button" transform="translate(-20.000000, -24.000000)">
            <g id="Group-47" transform="translate(0.000000, 24.000000)">
                <g id="Group-3" transform="translate(20.000000, 0.000000)">
                    <circle id="Oval" fill="#FFFFFF" cx="26.5" cy="26.5" r="26.5"></circle>
                    <g id="book-(2)" transform="translate(11.000000, 12.000000)" fill-rule="nonzero">
                        <path d="M23.8869161,9.22876861 L23.8869161,0.519391291 C23.8869161,0.363439483 23.8168881,0.215730563 23.6960984,0.117085653 C23.5753087,0.0184407387 23.4165801,-0.0206942449 23.2637792,0.0104961218 C16.1553445,1.61818943 15.1806545,6.76945482 15.0747212,7.5670701 C15.0643356,7.6345766 15.0591428,7.67092626 15.0591428,7.67092626 C15.0591428,7.67092626 15.0539499,7.6345766 15.0435643,7.5670701 C14.9397082,6.76945482 13.962941,1.61818943 6.85554492,0.0104961218 C6.70274395,-0.0206942449 6.54401539,0.0184407387 6.4232257,0.117085653 C6.302436,0.215730563 6.23240797,0.363439483 6.23240797,0.519391291 L6.23240797,9.22876861 L23.8869161,9.22876861 Z" id="Shape" fill="#EDF4F3"></path>
                        <path d="M1.23588827,4.30598677 L2.73297477,2.43657595 C2.96862979,2.14057413 3.34661141,1.99614536 3.71960826,2.0595781 C10.1742684,3.21393928 15.0591428,6.66352154 15.0591428,7.67092626 C15.0591428,6.66352154 19.9440171,3.21393928 26.3976387,2.0595781 C26.7706355,1.99614536 27.1486172,2.14057413 27.3842722,2.43657595 L28.8813587,4.30598677 L28.8813587,13.3830149 L1.23588827,13.3830149 L1.23588827,4.30598677 Z" id="Shape" fill="#EDF4F3"></path>
                        <path d="M29.3912924,4.08061891 L17.4478344,9.33574045 C17.258856,9.41821709 17.1365784,9.60469046 17.1362659,9.81088237 L17.1362659,9.7480494 C17.1362659,9.46125856 16.9037759,9.22876861 16.6169851,9.22876861 L13.5013004,9.22876861 C13.2145096,9.22876861 12.9820196,9.46125856 12.9820196,9.7480494 L12.9820196,9.81088237 C12.9817071,9.60469046 12.8594295,9.41821709 12.6704511,9.33574045 L0.726993099,4.08061891 C0.566666034,4.01064579 0.381882999,4.02609818 0.235404385,4.12172779 C0.0889257699,4.2173574 0.000439737354,4.38031067 0,4.55524155 L0,24.1923637 C0.000312513562,24.3985556 0.122590151,24.585029 0.311568471,24.6675056 L12.2550265,29.9226272 C12.4154379,29.9926367 12.6003243,29.9771288 12.7468318,29.8813757 C12.8933394,29.7856225 12.9817545,29.6225083 12.9820196,29.4474852 L12.9820196,29.4807192 C12.9820196,29.76751 13.2145096,30 13.5013004,30 L16.6169851,30 C16.9037759,30 17.1362659,29.76751 17.1362659,29.4807192 L17.1362659,29.4474852 C17.136531,29.6225083 17.2249461,29.7856225 17.3714537,29.8813757 C17.5179612,29.9771288 17.7028477,29.9926367 17.863259,29.9226272 L29.806717,24.6675056 C29.9956954,24.585029 30.117973,24.3985556 30.1182855,24.1923637 L30.1182855,4.55524155 C30.1178458,4.38031067 30.0293597,4.2173574 29.8828811,4.12172779 C29.7364025,4.02609818 29.5516195,4.01064579 29.3912924,4.08061891 Z" id="Shape" fill="#405B73"></path>
                        <rect id="Rectangle-path" fill="#405B73" x="12.9820196" y="9.22876861" width="4.15424628" height="20.7712314" rx="2.07712314"></rect>
                        <rect id="Rectangle-path" fill="#F0C419" x="12.9820196" y="12.3444533" width="4.15424628" height="2.07712314" rx="1.03856157"></rect>
                        <rect id="Rectangle-path" fill="#F0C419" x="12.9820196" y="24.8071922" width="4.15424628" height="2.07712314" rx="1.03856157"></rect>
                        <path d="M27.7430952,14.0425015 L19.9538834,17.7081045 C19.7930059,17.7838557 19.6045545,17.7720208 19.454418,17.6767379 C19.3042816,17.5814549 19.213389,17.415975 19.213389,17.2381554 L19.213389,13.1934774 C19.213389,12.9923179 19.3294625,12.8092222 19.5114562,12.7235283 L27.300668,9.05792523 C27.4615455,8.98217411 27.6499969,8.99400894 27.8001334,9.08929187 C27.9502699,9.18457486 28.0411624,9.35005479 28.0411624,9.52787434 L28.0411624,13.5725524 C28.0411624,13.7737119 27.9250889,13.9568075 27.7430952,14.0425015 L27.7430952,14.0425015 Z" id="Shape" fill="#F4CC54"></path>
                        <path d="M2.37519031,14.0425015 L10.1644021,17.7081045 C10.3252796,17.7838557 10.513731,17.7720208 10.6638675,17.6767379 C10.814004,17.5814549 10.9048965,17.415975 10.9048965,17.2381554 L10.9048965,13.1934774 C10.9048965,12.9923179 10.788823,12.8092222 10.6068293,12.7235283 L2.81761754,9.05792523 C2.65674005,8.98217411 2.4682886,8.99400894 2.31815214,9.08929187 C2.16801567,9.18457486 2.07712312,9.35005479 2.07712312,9.52787434 L2.07712312,13.5725524 C2.07712312,13.7737119 2.19319662,13.9568075 2.37519031,14.0425015 L2.37519031,14.0425015 Z" id="Shape" fill="#F4CC54"></path>
                        <rect id="Rectangle-path" fill="#F4CC54" x="12.9820196" y="12.3444533" width="4.15424628" height="2.07712314" rx="1.03856157"></rect>
                        <rect id="Rectangle-path" fill="#F4CC54" x="12.9820196" y="24.8071922" width="4.15424628" height="2.07712314" rx="1.03856157"></rect>
                        <g id="Group" transform="translate(1.557707, 15.979166)" fill="#F4CC54">
                            <path d="M9.34718917,5.19306183 C9.27070524,5.19322617 9.1951423,5.1763753 9.12597556,5.14372895 L0.298202217,0.989482668 C0.130305571,0.910450677 0.017325749,0.747850258 0.00182115685,0.562931514 C-0.0136834354,0.378012719 0.0706427167,0.198869157 0.223034771,0.0929824042 C0.375426826,-0.0129043484 0.572732799,-0.0294475437 0.740629446,0.0495844473 L9.56840279,4.20383072 C9.78853624,4.30730833 9.90734249,4.54972516 9.85425943,4.78710362 C9.80117637,5.02448214 9.59043052,5.19320384 9.34718917,5.19306183 L9.34718917,5.19306183 Z" id="Shape"></path>
                            <path d="M8.29668414,7.29511044 C8.22020021,7.29527478 8.14463728,7.27842391 8.07547053,7.24577756 L1.35026509,4.07972262 C1.17691642,4.00419338 1.05832519,3.84040682 1.04067287,3.65214417 C1.02302055,3.46388157 1.10909771,3.28090437 1.26538441,3.17446712 C1.42167112,3.06802988 1.62346079,3.05495865 1.79217303,3.14034368 L8.5194556,6.30795646 C8.73647156,6.41303262 8.85260979,6.65366692 8.79985866,6.88894172 C8.74710757,7.12421658 8.53934644,7.2922292 8.29824199,7.29458996 L8.29668414,7.29511044 Z" id="Shape"></path>
                            <path d="M17.6556817,5.19306071 C17.4124404,5.19320384 17.2016945,5.02448214 17.1486115,4.78710362 C17.0955284,4.54972516 17.2143347,4.30730833 17.4344681,4.20383072 L26.2622415,0.0495844473 C26.5217872,-0.0725884566 26.8312313,0.0387742157 26.9534042,0.298319943 C27.0755771,0.557865671 26.9642144,0.867309764 26.7046687,0.989482668 L17.8768953,5.14372895 C17.8076893,5.17626054 17.7321525,5.19306071 17.6556817,5.19306071 L17.6556817,5.19306071 Z" id="Shape"></path>
                            <path d="M18.7061868,7.2951308 C18.4650823,7.29274848 18.2573212,7.12473586 18.2045701,6.889461 C18.1518189,6.6541862 18.2679572,6.4135519 18.4849731,6.30847575 L25.2122557,3.14086296 C25.380968,3.05547793 25.5827576,3.06854916 25.7390443,3.1749864 C25.895331,3.28142365 25.9814082,3.46440085 25.9637559,3.65266345 C25.9461036,3.8409261 25.8275123,4.00471266 25.6541637,4.0802419 L18.9274004,7.24785468 C18.8580308,7.27967045 18.7825012,7.29580476 18.7061868,7.2951308 L18.7061868,7.2951308 Z" id="Shape"></path>
                        </g>
                    </g>
                </g>
            </g>
        </g>
    </g>
</svg>