<?xml version="1.0" encoding="UTF-8"?>
<svg width="21px" height="25px" viewBox="0 0 21 25" version="1.1" xmlns="http://www.w3.org/2000/svg" xmlns:xlink="http://www.w3.org/1999/xlink">
    <title>Shape</title>
    <g id="Symbols" stroke="none" stroke-width="1" fill="none" fill-rule="evenodd">
        <g id="Dashboard-/-Schüler:innen" transform="translate(-53.000000, -128.000000)" fill="#FFFFFF" fill-rule="nonzero">
            <g id="Group-36" transform="translate(53.749215, 128.000000)">
                <path d="M16.3936982,12.1003459 L16.3936982,10.1277567 C16.3936982,6.98988349 14.235358,4.35653542 11.3224406,3.63017528 L11.3224406,1.6254031 C11.3224406,0.727725476 10.5947151,0 9.69703748,0 C8.79935985,0 8.07163438,0.727725476 8.07163438,1.6254031 L8.07163438,3.63011027 C5.15871697,4.3564704 3.0003767,6.98988349 3.0003767,10.1276917 L3.0003767,12.1002809 C3.0003767,14.2092089 2.16257893,16.2317955 0.67136911,17.7230703 C0.0158765482,18.3785629 -0.180212082,19.3643374 0.174515891,20.2207948 C0.529243863,21.0772522 1.36496112,21.6356106 2.29196102,21.6356106 L6.33258309,21.6356106 C6.33258309,23.4937064 7.83887665,25 9.69697246,25 C11.5550683,25 13.0613618,23.4937064 13.0613618,21.6356106 L17.1019839,21.6356106 C18.0289838,21.6356106 18.8647011,21.0771871 19.219429,20.2207948 C19.574157,19.3643374 19.3780684,18.3785629 18.7225758,17.7230703 C17.231431,16.2318605 16.3936982,14.2092739 16.3936982,12.1003459 Z M9.69703748,23.0495163 C8.91736412,23.0495163 8.28313183,22.415219 8.28313183,21.6356106 L11.1110081,21.6356106 C11.1109431,22.415284 10.4766458,23.0495163 9.69703748,23.0495163 Z M17.4175072,19.4743446 C17.364454,19.6023614 17.2406633,19.6851269 17.1020489,19.6851269 L2.29196102,19.6851269 C2.15334664,19.6851269 2.02955594,19.6024264 1.97650278,19.4744097 C1.92344963,19.3463929 1.95251183,19.2003017 2.05049113,19.1023224 C3.92080997,17.2320686 4.95079541,14.7453969 4.95079541,12.1003459 L4.95079541,10.1277567 C4.95079541,7.51072766 7.07994344,5.38157963 9.69697246,5.38157963 C12.3140015,5.38157963 14.4431495,7.51072766 14.4431495,10.1277567 L14.4431495,12.1003459 C14.4431495,14.7453318 15.4731349,17.2320035 17.3434538,19.1023224 C17.4414981,19.2003017 17.4705603,19.3463279 17.4175072,19.4743446 Z" id="Shape"></path>
            </g>
        </g>
    </g>
</svg>