<?xml version="1.0" encoding="UTF-8"?>
<svg width="22px" height="20px" viewBox="0 0 22 20" version="1.1" xmlns="http://www.w3.org/2000/svg" xmlns:xlink="http://www.w3.org/1999/xlink">
    <title>002-geplanter-termin</title>
    <g id="Symbols" stroke="none" stroke-width="1" fill="none" fill-rule="evenodd">
        <g id="Navi-/-Eltern-Dashboard" transform="translate(-212.000000, -13.000000)" fill="#2B4B51" fill-rule="nonzero">
            <g id="002-geplanter-termin" transform="translate(212.000000, 13.000000)">
                <path d="M19.3333333,1.33333333 L16.5,1.33333333 L16.5,0.666666667 C16.5,0.298476833 16.2015232,-1.61486985e-15 15.8333333,-1.61486985e-15 C15.4651435,-1.61486985e-15 15.1666667,0.298476833 15.1666667,0.666666667 L15.1666667,1.33333333 L6.16666667,1.33333333 L6.16666667,0.666666667 C6.16666667,0.298476833 5.86818983,-1.61486985e-15 5.5,-1.61486985e-15 C5.13181017,-1.61486985e-15 4.83333333,0.298476833 4.83333333,0.666666667 L4.83333333,1.33333333 L2,1.33333333 C0.8954305,1.33333333 0,2.22876383 0,3.33333333 L0,18 C0,19.1045695 0.8954305,20 2,20 L19.3333333,20 C20.4379028,20 21.3333333,19.1045695 21.3333333,18 L21.3333333,3.33333333 C21.3333333,2.22876383 20.4379028,1.33333333 19.3333333,1.33333333 Z M2,2.66666667 L4.83333333,2.66666667 L4.83333333,3.33333333 C4.83333333,3.70152317 5.13181017,4 5.5,4 C5.86818983,4 6.16666667,3.70152317 6.16666667,3.33333333 L6.16666667,2.66666667 L15.1666667,2.66666667 L15.1666667,3.33333333 C15.1666667,3.70152317 15.4651435,4 15.8333333,4 C16.2015232,4 16.5,3.70152317 16.5,3.33333333 L16.5,2.66666667 L19.3333333,2.66666667 C19.7015232,2.66666667 20,2.9651435 20,3.33333333 L20,5 L1.33333333,5 L1.33333333,3.33333333 C1.33333333,2.9651435 1.63181017,2.66666667 2,2.66666667 Z M19.3333333,18.6666667 L2,18.6666667 C1.63181017,18.6666667 1.33333333,18.3681898 1.33333333,18 L1.33333333,6.33333333 L20,6.33333333 L20,18 C20,18.3681898 19.7015232,18.6666667 19.3333333,18.6666667 Z" id="Shape"></path>
                <path d="M15,8.47 C14.7071902,8.24762042 14.2896168,8.3042911 14.0666667,8.59666667 L9.19666667,14.97 L7.23666667,12.8766667 C7.07351538,12.7027974 6.82999923,12.6291758 6.5978484,12.6835343 C6.36569757,12.7378928 6.18018128,12.9119732 6.11118173,13.140201 C6.04218218,13.3684288 6.10018205,13.6161307 6.26333333,13.79 L8.76333333,16.4566667 C8.88956068,16.5909182 9.06572642,16.666935 9.25,16.6666674 L9.28333333,16.6666674 C9.47961269,16.6563947 9.66135709,16.5600336 9.78,16.4033333 L15.1133333,9.40333333 C15.3387085,9.11400916 15.2880689,8.6969774 15,8.47 L15,8.47 Z" id="Path"></path>
            </g>
        </g>
    </g>
</svg>