<?xml version="1.0" encoding="UTF-8"?>
<svg width="53px" height="53px" viewBox="0 0 53 53" version="1.1" xmlns="http://www.w3.org/2000/svg" xmlns:xlink="http://www.w3.org/1999/xlink">
    <title>Icon-1-1-Bescheinigung</title>
    <g id="Symbols" stroke="none" stroke-width="1" fill="none" fill-rule="evenodd">
        <g id="Profil-/-Helfer:in" transform="translate(-63.000000, -1297.000000)">
            <g id="Group-35" transform="translate(44.000000, 1274.000000)">
                <g id="Icon-1-1-Bescheinigung" transform="translate(19.000000, 23.000000)">
                    <circle id="Oval-Copy-3" fill="#FFFFFF" cx="26.5" cy="26.5" r="26.5"></circle>
                    <g id="video-call" transform="translate(11.000000, 12.000000)" fill-rule="nonzero">
                        <path d="M25.8629191,0 C26.4589108,0.0279533224 26.9207865,0.531397759 26.8974019,1.12758621 L26.8974019,13.1172414 L24.6577467,18.6206897 L0.000850150695,18.6206897 L0.000850150695,1.12758621 C-0.0225344303,0.531397759 0.439341199,0.0279533224 1.03533291,0 L25.8629191,0 Z" id="Combined-Shape" fill="#EDF4F3"></path>
                        <path d="M24.6577467,18.6206897 L23.6025743,21.2068966 L1.03533291,21.2068966 C0.439341199,21.1789432 -0.0225344303,20.6754988 0.000850150695,20.0793103 L0.000850150695,18.6206897 L24.6577467,18.6206897 Z M8.27671222,23.7931034 L9.82843636,21.2068966 L19.1387812,21.2068966 L17.587057,23.7931034 L16.6818846,23.7931034 L16.5525743,25.862069 L6.72498808,25.862069 C6.15541801,25.8578446 5.69472974,25.3971563 5.69050532,24.8275862 C5.69220953,24.2569645 6.15436641,23.7948077 6.72498808,23.7931034 L8.27671222,23.7931034 Z" id="Combined-Shape" fill="#405B73"></path>
                        <circle id="Oval" fill="#FDD7AD" cx="23.2767122" cy="16.0344828" r="4.65517241"></circle>
                        <path d="M16.5525743,28.4482759 L16.5525743,24.8275862 C16.5525743,22.54227 18.4051891,20.6896552 20.6905053,20.6896552 L25.8629191,20.6896552 C28.1482353,20.6896552 30.0008502,22.54227 30.0008502,24.8275862 L30.0008502,28.4482759 C30.0008502,29.3052694 29.3061196,30 28.449126,30 L18.1042984,30 C17.2473049,30 16.5525743,29.3052694 16.5525743,28.4482759 Z" id="Shape" fill="#F4CC54"></path>
                        <circle id="Oval" fill="#FDD7AD" cx="8.27671222" cy="9.31034483" r="4.13793103"></circle>
                        <path d="M2.06981171,18.6206897 L2.06981171,17.5862069 C2.0677169,16.0675807 2.90031054,14.6706515 4.23705705,13.95 C4.84117791,13.6193625 5.51906613,13.4467768 6.2077467,13.4482662 L10.3456777,13.4482662 C10.9482732,13.446963 11.5426058,13.578936 12.0864872,13.8334509 L12.3163674,13.95 C13.6531139,14.6706515 14.4857075,16.0675807 14.4836128,17.5862069 L14.4836128,18.6206897 L2.06981171,18.6206897 Z" id="Combined-Shape" fill="#405B73"></path>
                        <path d="M24.8284364,3.10344828 L24.8284364,8.27586207 C24.8267322,8.84648374 24.3645753,9.30864062 23.7939536,9.31034483 L20.1732639,9.31034483 L17.4060226,11.2810345 C17.2411537,11.3971902 17.0253965,11.4121084 16.8461102,11.3197488 C16.6668239,11.2273891 16.5537125,11.0430538 16.5525743,10.8413793 L16.5525743,9.31034483 L15.5180915,9.31034483 C14.9474699,9.30864062 14.485313,8.84648374 14.4836088,8.27586207 L14.4836088,3.10344828 C14.485313,2.53282662 14.9474699,2.07066972 15.5180915,2.06896552 L23.7939536,2.06896552 C24.3645753,2.07066972 24.8267322,2.53282662 24.8284364,3.10344828 Z" id="Shape" fill="#405B73"></path>
                        <g id="Group" transform="translate(16.035333, 3.620690)" fill="#F4CC54">
                            <path d="M3.10344828,1.03448276 L0.517241379,1.03448276 C0.231576879,1.03448276 0,0.802905905 0,0.517241379 C0,0.231576853 0.231576879,0 0.517241379,0 L3.10344828,0 C3.38911278,0 3.62068966,0.231576853 3.62068966,0.517241379 C3.62068966,0.802905905 3.38911278,1.03448276 3.10344828,1.03448276 Z" id="Shape"></path>
                            <path d="M6.72413793,3.10344828 L0.517241379,3.10344828 C0.231576879,3.10344828 0,2.8718714 0,2.5862069 C0,2.3005424 0.231576879,2.06896552 0.517241379,2.06896552 L6.72413793,2.06896552 C7.00980243,2.06896552 7.24137931,2.3005424 7.24137931,2.5862069 C7.24137931,2.8718714 7.00980243,3.10344828 6.72413793,3.10344828 Z" id="Shape"></path>
                        </g>
                    </g>
                    <g id="Group-2-Copy-3" transform="translate(0.000000, -0.000000)" fill-rule="nonzero">
                        <path d="M6.58982378,0 C2.95600666,0 0,2.95600666 0,6.58982378 C0,8.28428713 0.677810445,9.92232904 1.88280679,11.1650443 L1.88280679,14.1210509 C1.88280679,14.4976123 2.10874361,14.8365175 2.4664769,14.9870793 C2.80538212,15.1377666 3.21966238,15.0624543 3.48312981,14.7799706 L5.25296819,13.0289602 C5.72366989,13.1231006 6.15677821,13.1796476 6.58982378,13.1796476 C10.2236409,13.1796476 13.2424078,10.2236409 13.2424078,6.58982378 C13.2424078,2.95600666 10.2236409,0 6.58982378,0 Z" id="Path" fill="#D45D3A" transform="translate(6.621204, 7.531573) scale(-1, 1) translate(-6.621204, -7.531573) "></path>
                        <g id="Icon-/-Tooltip" transform="translate(6.000000, 3.000000)" fill="#FFFFFF">
                            <path d="M1,1.01960784 L0,1.01960784 L0,0 L1,0 L1,1.01960784 Z M0,1.93137255 L1,1.93137255 L1,7 L0,7 L0,1.93137255 Z" id="i"></path>
                        </g>
                    </g>
                </g>
            </g>
        </g>
    </g>
</svg>