<?xml version="1.0" encoding="UTF-8"?>
<svg width="53px" height="53px" viewBox="0 0 53 53" version="1.1" xmlns="http://www.w3.org/2000/svg" xmlns:xlink="http://www.w3.org/1999/xlink">
    <title>Icon-Gruppe-Bescheinigung</title>
    <g id="Symbols" stroke="none" stroke-width="1" fill="none" fill-rule="evenodd">
        <g id="Profil-/-Helfer:in" transform="translate(-61.000000, -1535.000000)">
            <g id="Group-40" transform="translate(44.000000, 1509.000000)">
                <g id="Icon-Gruppe-Bescheinigung" transform="translate(17.000000, 26.000000)">
                    <circle id="Oval-Copy-3" fill="#FFFFFF" cx="26.5" cy="26.5" r="26.5"></circle>
                    <g id="Group-3" transform="translate(0.000000, 0.000000)" fill-rule="nonzero">
                        <path d="M6.58982378,0 C2.95600666,0 0,2.95600666 0,6.58982378 C0,8.28428713 0.677810445,9.92232904 1.88280679,11.1650443 L1.88280679,14.1210509 C1.88280679,14.4976123 2.10874361,14.8365175 2.4664769,14.9870793 C2.80538212,15.1377666 3.21966238,15.0624543 3.48312981,14.7799706 L5.25296819,13.0289602 C5.72366989,13.1231006 6.15677821,13.1796476 6.58982378,13.1796476 C10.2236409,13.1796476 13.2424078,10.2236409 13.2424078,6.58982378 C13.2424078,2.95600666 10.2236409,0 6.58982378,0 Z" id="Path" fill="#D45D3A" transform="translate(6.621204, 7.531573) scale(-1, 1) translate(-6.621204, -7.531573) "></path>
                        <path d="M7,4.01960784 L6,4.01960784 L6,3 L7,3 L7,4.01960784 Z M6,4.93137255 L7,4.93137255 L7,10 L6,10 L6,4.93137255 Z" id="i" fill="#FFFFFF"></path>
                    </g>
                    <g id="video-call-(1)" transform="translate(12.000000, 13.000000)" fill-rule="nonzero">
                        <rect id="Rectangle" fill="#EDF4F3" x="0" y="4.39979204" width="30" height="18.5"></rect>
                        <path d="M1.5,4.39979204 C0.671572875,4.39979204 0,5.07136492 0,5.89979204 L0,18.899792 L26.5,18.899792 C27.3284271,18.899792 28,18.2282192 28,17.399792 L28,4.39979204 L1.5,4.39979204 Z" id="Path" fill="#EDF4F3"></path>
                        <path d="M1.5,22.899792 C0.671572875,22.899792 0,22.2282192 0,21.399792 L0,20.399792 L30,20.399792 L30,21.399792 C30,22.2282192 29.3284271,22.899792 28.5,22.899792 L17.5,22.899792 L18,24.899792 L19.5,24.899792 C20.0522847,24.899792 20.5,25.3475073 20.5,25.899792 L20.5,27.399792 L9.5,27.399792 L9.5,25.899792 C9.5,25.3475073 9.94771525,24.899792 10.5,24.899792 L12,24.899792 L12.168,24.228792 L12.5,22.899792 L1.5,22.899792 Z" id="Combined-Shape" fill="#405B73"></path>
                        <circle id="Oval" fill="#FBE1CA" cx="15" cy="7.89979204" r="1.5"></circle>
                        <path d="M12.5,12.399792 L12.5,11.899792 C12.5,10.5190802 13.6192881,9.39979204 15,9.39979204 C16.3807119,9.39979204 17.5,10.5190802 17.5,11.899792 L17.5,12.399792" id="Path" fill="#405B73"></path>
                        <circle id="Oval" fill="#FBE1CA" cx="15" cy="15.899792" r="1.5"></circle>
                        <path d="M12.5,20.399792 L12.5,19.899792 C12.5,18.5190802 13.6192881,17.399792 15,17.399792 C16.3807119,17.399792 17.5,18.5190802 17.5,19.899792 L17.5,20.399792" id="Path" fill="#405B73"></path>
                        <circle id="Oval" fill="#FBE1CA" cx="25" cy="15.899792" r="1.5"></circle>
                        <path d="M22.5,20.399792 L22.5,19.899792 C22.5,18.5190802 23.6192881,17.399792 25,17.399792 C26.3807119,17.399792 27.5,18.5190802 27.5,19.899792 L27.5,20.399792" id="Path" fill="#405B73"></path>
                        <circle id="Oval" fill="#FBE1CA" cx="5" cy="15.899792" r="1.5"></circle>
                        <path d="M2.5,20.399792 L2.5,19.899792 C2.5,18.5190802 3.61928813,17.399792 5,17.399792 C6.38071187,17.399792 7.5,18.5190802 7.5,19.899792 L7.5,20.399792" id="Path" fill="#405B73"></path>
                        <circle id="Oval" fill="#FBE1CA" cx="5" cy="7.89979204" r="1.5"></circle>
                        <path d="M2.5,12.399792 L2.5,11.899792 C2.5,10.5190802 3.61928813,9.39979204 5,9.39979204 C6.38071187,9.39979204 7.5,10.5190802 7.5,11.899792 L7.5,12.399792" id="Path" fill="#405B73"></path>
                        <polygon id="Path" fill="#E7E8E8" points="30 11.899792 20.5 11.899792 20.5 6.91379204 19.5 6.91379204 19.5 11.899792 10.5 11.899792 10.5 4.39979204 9.5 4.39979204 9.5 11.899792 0 11.899792 0 12.899792 9.5 12.899792 9.5 20.399792 10.5 20.399792 10.5 12.899792 19.5 12.899792 19.5 20.399792 20.5 20.399792 20.5 12.899792 30 12.899792"></polygon>
                        <path d="M27.307472,0 L20.3940583,0 C19.4875381,0 18.75,0.737538114 18.75,1.64405828 L18.75,6.45251476 C18.75,7.3597828 19.5164556,8.12623839 20.4236524,8.12623839 L23.8655444,8.12705748 L25.0284045,10.2964737 C25.0963534,10.4232191 25.2263752,10.5 25.3675438,10.5 C25.381682,10.5 25.3959983,10.4992165 25.4103146,10.4976496 C25.5675801,10.480413 25.6968184,10.3707973 25.739518,10.2185532 L26.3266639,8.12709309 L27.3074008,8.12709309 C28.213921,8.12709309 28.9514591,7.38955498 28.9514591,6.4829992 L28.9514591,1.64405828 C28.9514591,0.737538114 28.2139922,0 27.307472,0 L27.307472,0 Z" id="Path" fill="#F4CC54"></path>
                    </g>
                </g>
            </g>
        </g>
    </g>
</svg>