<?xml version="1.0" encoding="UTF-8"?>
<svg width="23px" height="17px" viewBox="0 0 23 17" version="1.1" xmlns="http://www.w3.org/2000/svg" xmlns:xlink="http://www.w3.org/1999/xlink">
    <path d="M21.549,10.966 L17.661,10.966 C16.946,9.537 15.664,8.422 14.052,7.963 C14.66,7.229 15.574,6.758 16.599,6.757 L18.234,6.757 C20.06,6.759 21.548,8.248 21.549,10.074 L21.549,10.966 Z M17.083,14.947 L5.66,14.947 L5.66,13.559 C5.661,11.006 7.73,8.937 10.283,8.935 L12.462,8.935 C15.014,8.939 17.081,11.007 17.083,13.559 L17.083,14.947 Z M1.201,10.966 L1.201,10.074 C1.203,8.247 2.691,6.758 4.519,6.757 L6.153,6.757 C7.176,6.758 8.086,7.229 8.693,7.96 C7.08,8.419 5.795,9.535 5.08,10.966 L1.201,10.966 Z M3.323,3.133 C3.36,2.042 4.242,1.188 5.334,1.188 C6.426,1.188 7.31,2.044 7.345,3.131 L7.345,3.538 C7.31,4.63 6.426,5.486 5.334,5.486 C4.241,5.486 3.358,4.63 3.323,3.543 L3.323,3.133 Z M11.37,1.51 C12.926,1.51 14.201,2.745 14.251,4.3 L14.251,4.85 C14.201,6.405 12.926,7.64 11.37,7.64 C9.814,7.64 8.539,6.405 8.489,4.85 L8.489,4.3 C8.539,2.745 9.814,1.51 11.37,1.51 L11.37,1.51 Z M15.403,3.133 C15.44,2.042 16.322,1.188 17.414,1.188 C18.507,1.188 19.39,2.044 19.425,3.131 L19.425,3.538 C19.39,4.63 18.507,5.486 17.414,5.486 C16.321,5.486 15.438,4.63 15.403,3.543 L15.403,3.133 Z M19.696,5.804 C20.292,5.206 20.629,4.397 20.629,3.546 L20.629,3.127 C20.582,1.373 19.171,0 17.416,0 C16.129,0 15.032,0.743 14.518,1.831 C13.768,0.918 12.643,0.326 11.373,0.326 C10.105,0.326 8.983,0.915 8.233,1.825 C7.717,0.741 6.622,0 5.336,0 C3.582,0 2.171,1.373 2.124,3.131 L2.124,3.543 C2.124,4.395 2.461,5.204 3.056,5.801 C1.246,6.422 0.002,8.143 0,10.074 L0,11.567 C0,11.898 0.269,12.168 0.601,12.168 L4.646,12.168 C4.535,12.618 4.458,13.08 4.457,13.559 L4.457,15.549 C4.457,15.881 4.727,16.15 5.059,16.15 L17.684,16.15 C18.016,16.15 18.285,15.881 18.285,15.549 L18.285,13.559 C18.284,13.08 18.207,12.618 18.096,12.168 L22.15,12.168 C22.481,12.168 22.751,11.898 22.751,11.567 L22.751,10.074 C22.748,8.145 21.505,6.425 19.696,5.804 L19.696,5.804 Z" id="Fill-1"></path>
</svg>