<?xml version="1.0" encoding="UTF-8"?>
<svg width="15px" height="15px" viewBox="0 0 15 15" version="1.1" xmlns="http://www.w3.org/2000/svg" xmlns:xlink="http://www.w3.org/1999/xlink">
    <title>Icon / Close Copy 3</title>
    <g id="Onboarding" stroke="none" stroke-width="1" fill="none" fill-rule="evenodd">
        <g id="Onboarding-Schüler:innen-allgemein" transform="translate(-387.000000, -1066.000000)" fill="#FFFFFF">
            <g id="Group-7" transform="translate(111.763846, 1014.527693)">
                <g id="Group-45" transform="translate(17.250785, 29.527693)">
                    <g id="Shape-Copy" transform="translate(258.749215, 22.472307)">
                        <path d="M13.2920226,2.11797736 C13.6830277,1.72697226 13.6870753,1.0970753 13.295,0.705 L13.295,0.705 C12.9056393,0.315639251 12.2734409,0.31655912 11.8820226,0.707977363 L7,5.59 L2.11797736,0.707977363 C1.72697226,0.316972262 1.0970753,0.3129247 0.705,0.705 L0.705,0.705 C0.315639251,1.09436075 0.31655912,1.72655912 0.707977363,2.11797736 L5.59,7 L0.707977363,11.8820226 C0.316972262,12.2730277 0.3129247,12.9029247 0.705,13.295 L0.705,13.295 C1.09436075,13.6843607 1.72655912,13.6834409 2.11797736,13.2920226 L7,8.41 L11.8820226,13.2920226 C12.2730277,13.6830277 12.9029247,13.6870753 13.295,13.295 L13.295,13.295 C13.6843607,12.9056393 13.6834409,12.2734409 13.2920226,11.8820226 L8.41,7 L13.2920226,2.11797736 Z"></path>
                    </g>
                </g>
            </g>
        </g>
    </g>
</svg>