<?xml version="1.0" encoding="UTF-8"?>
<svg width="24px" height="24px" viewBox="0 0 24 24" version="1.1" xmlns="http://www.w3.org/2000/svg" xmlns:xlink="http://www.w3.org/1999/xlink">
    <title>kalender</title>
    <g id="Symbols" stroke="none" stroke-width="1" fill="none" fill-rule="evenodd">
        <g id="Navi-/-Schueler:in" transform="translate(-102.000000, -12.000000)" fill="" fill-rule="nonzero" stroke="" stroke-width="0.25">
            <g id="kalender" transform="translate(103.000000, 13.000000)">
                <path d="M18.9881242,9.74162447 L18.9881242,3.53392638 C18.9881242,2.46278685 18.0387389,1.7081246 16.9675994,1.7081246 L15.3365672,1.7081246 L15.3365672,0.393616285 C15.365736,0.207653267 15.2386233,0.0332925523 15.0526602,0.00412371012 C15.0176669,-0.00137457004 14.9820213,-0.00137457004 14.9470746,0.00412371012 L12.6343955,0.00412371012 C12.3666106,0.00412371012 12.171841,0.125831403 12.171841,0.393616285 L12.171841,1.7081712 L6.81623655,1.7081712 L6.81623655,0.393616285 C6.81623655,0.125831403 6.49975928,0.00412371012 6.23197439,0.00412371012 L3.91929525,0.00412371012 C3.65151037,0.00412371012 3.40809498,0.125831403 3.40809498,0.393616285 L3.40809498,1.7081712 L1.92313998,1.7081712 C0.852000447,1.7081712 0,2.46283345 0,3.53397298 L0,17.65337 C0,18.7245096 0.852047043,19.4791718 1.92313998,19.4791718 L10.053978,19.4791718 C12.3592019,22.3698227 16.5713039,22.8444455 19.4619548,20.5392216 C21.0450401,19.2767606 21.9716867,17.3655491 21.9824503,15.3407375 C21.9429838,13.1013532 20.8286967,11.017738 18.9881242,9.74162447 Z M13.1456423,0.97783185 L14.3628125,0.97783185 L14.3628125,3.16875671 L13.1456423,3.16875671 L13.1456423,0.97783185 Z M4.38184971,0.97783185 L5.84248182,0.97783185 L5.84248182,3.16875671 L4.38184971,3.16875671 L4.38184971,0.97783185 Z M0.97370814,3.53392638 C0.97370814,2.99835662 1.38757021,2.68187934 1.92313998,2.68187934 L3.40809498,2.68187934 L3.40809498,3.60694168 C3.41932452,3.88875184 3.63837041,4.11818854 3.91929525,4.14251144 L6.23197439,4.14251144 C6.52822918,4.12312768 6.77117861,3.90040073 6.81623655,3.60694168 L6.81623655,2.68192594 L12.1718876,2.68192594 L12.1718876,3.60698827 C12.1576293,3.88059761 12.3616249,4.11683727 12.6344421,4.14255804 L14.9471212,4.14255804 C15.2149061,4.14255804 15.3366138,3.87477316 15.3366138,3.60698827 L15.3366138,2.68192594 L16.967646,2.68192594 C17.5032157,2.68192594 18.014416,2.99840321 18.014416,3.53397298 L18.014416,6.57694488 L0.97370814,6.57694488 L0.97370814,3.53392638 Z M1.92313998,18.5054171 C1.38757021,18.5054171 0.97370814,18.1889398 0.97370814,17.65337 L0.97370814,7.55065302 L18.0143694,7.55065302 L18.0143694,9.23037761 C17.1590607,8.86534772 16.2419196,8.66708346 15.3121977,8.64611545 C11.6148839,8.65058862 8.6212567,11.6514381 8.62572987,15.3487519 C8.62708115,16.450365 8.90022452,17.5345979 9.42097689,18.5054171 L1.92313998,18.5054171 L1.92313998,18.5054171 Z M15.2635519,21.0371948 C12.104091,21.0505617 9.531921,18.5001518 9.51844875,15.3406909 C9.50508194,12.18123 12.0554918,9.60906 15.2149527,9.59558776 C18.3744136,9.58222094 20.9465836,12.1326308 20.9600381,15.2920917 C20.9600381,15.308307 20.9600381,15.3244756 20.9600381,15.3406909 C20.9600381,18.4867789 18.4095933,21.0371948 15.2635519,21.0371948 Z" id="Shape"></path>
                <path d="M17.5518615,15.3406909 L15.3365672,15.3406909 L15.3365672,12.4194267 C15.3365672,12.1505235 15.118593,11.9325493 14.8496898,11.9325493 C14.5807866,11.9325493 14.3628125,12.1505235 14.3628125,12.4194267 L14.3628125,15.8275683 C14.4108059,16.1117548 14.6588809,16.3184529 14.9470746,16.3144456 L17.5518615,16.3144456 C17.8207647,16.3144456 18.0387389,16.0964714 18.0387389,15.8275683 C18.0387389,15.5586651 17.8207647,15.3406909 17.5518615,15.3406909 Z" id="Path"></path>
            </g>
        </g>
    </g>
</svg>