<?xml version="1.0" encoding="UTF-8"?>
<svg width="22px" height="22px" viewBox="0 0 22 22" version="1.1" xmlns="http://www.w3.org/2000/svg" xmlns:xlink="http://www.w3.org/1999/xlink">
    <title>kompass</title>
    <g id="Symbols" stroke="none" stroke-width="1" fill="none" fill-rule="evenodd">
        <g id="Navi-/-Schueler:in" transform="translate(-186.000000, -11.000000)" fill="" fill-rule="nonzero">
            <g id="kompass" transform="translate(186.000000, 11.000000)">
                <path d="M18.7782031,3.22183984 C16.7005352,1.14421484 13.9382031,0 11,0 C8.06179688,0 5.29946484,1.14421484 3.22179688,3.22183984 C1.14421484,5.29946484 0,8.06179688 0,11 C0,13.9382031 1.14421484,16.7005352 3.22179688,18.7781602 C5.29946484,20.8557852 8.06179688,22 11,22 C13.9382031,22 16.7005352,20.8557852 18.7782031,18.7781602 C20.8557852,16.7005352 22,13.9382031 22,11 C22,8.06179688 20.8557852,5.29946484 18.7782031,3.22183984 Z M11,20.7109375 C5.64536328,20.7109375 1.2890625,16.3546367 1.2890625,11 C1.2890625,5.64536328 5.64536328,1.2890625 11,1.2890625 C16.3546367,1.2890625 20.7109375,5.64536328 20.7109375,11 C20.7109375,16.3546367 16.3546367,20.7109375 11,20.7109375 Z" id="Shape"></path>
                <path d="M16.3065547,5.03950391 L8.35888281,8.35883984 L5.03954687,16.3065117 L5.69348828,16.9604531 L13.6411602,13.6411172 L16.9604961,5.69344531 L16.3065547,5.03950391 Z M12.6557148,12.6557578 L6.96940234,15.0306406 L9.34428516,9.34428516 L15.0305977,6.96940234 L12.6557148,12.6557578 Z" id="Shape"></path>
                <path d="M11,10.140625 C10.5261406,10.140625 10.140625,10.5261406 10.140625,11 C10.140625,11.4738594 10.5261406,11.859375 11,11.859375 C11.4738594,11.859375 11.859375,11.4738594 11.859375,11 C11.859375,10.5261406 11.4738594,10.140625 11,10.140625 Z" id="Path"></path>
            </g>
        </g>
    </g>
</svg>