<?xml version="1.0" encoding="UTF-8"?>
<svg width="15px" height="15px" viewBox="0 0 15 15" version="1.1" xmlns="http://www.w3.org/2000/svg" xmlns:xlink="http://www.w3.org/1999/xlink">
    <title>Shape</title>
    <g id="Symbols" stroke="none" stroke-width="1" fill="none" fill-rule="evenodd">
        <g id="Profil-/-Schüler_innen" transform="translate(-91.000000, -593.000000)" fill="#ffffff" fill-rule="nonzero" stroke="#ffffff" stroke-width="0.5">
            <g id="Group-2-Copy" transform="translate(83.749215, 103.000000)">
                <path d="M19.9693053,491.593865 C19.1774854,490.802045 17.8937479,490.802045 17.1019279,491.593865 L9.063697,499.632096 C9.00860929,499.687184 8.96883347,499.755471 8.9480656,499.830447 L7.89101503,503.646635 C7.84754324,503.803099 7.89171898,503.97065 8.00647044,504.085577 C8.12139784,504.200329 8.28894898,504.244504 8.44541217,504.201209 L12.2616007,503.143982 C12.3365763,503.123214 12.4048639,503.083438 12.4599517,503.02835 L20.4980066,494.989944 C21.2885945,494.197596 21.2885945,492.914914 20.4980066,492.122566 L19.9693053,491.593865 Z M10.04542,499.924958 L16.6240904,493.346112 L18.7457595,495.467781 L12.1669131,502.046628 L10.04542,499.924958 Z M9.62161417,500.775386 L11.3166615,502.470609 L8.97200148,503.120222 L9.62161417,500.775386 Z M19.8608898,494.352827 L19.3830523,494.830664 L17.2612071,492.708819 L17.7392207,492.230982 C18.1790424,491.79116 18.8921908,491.79116 19.3320125,492.230982 L19.8608898,492.759683 C20.3000076,493.200033 20.3000076,493.912653 19.8608898,494.352827 L19.8608898,494.352827 Z" id="Shape"></path>
            </g>
        </g>
    </g>
</svg>