
<?xml version="1.0" encoding="UTF-8"?>
<svg width="30px" height="30px" viewBox="0 0 30 30" version="1.1" xmlns="http://www.w3.org/2000/svg" xmlns:xlink="http://www.w3.org/1999/xlink">
    <title>PW verbergen</title>
    <defs>
        <circle id="path-1" cx="15" cy="15" r="15"></circle>
    </defs>
    <g id="Icons" stroke="none" stroke-width="1" fill="none" fill-rule="evenodd">
        <g transform="translate(-278.000000, -1429.000000)" id="PW-verbergen">
            <g transform="translate(278.000000, 1429.000000)">
                <g id="Group-Copy-7">
                    <mask id="mask-2" fill="white">
                        <use xlink:href="#path-1"></use>
                    </mask>
                    <use id="Oval" fill="#FFFFFF" xlink:href="#path-1"></use>
                </g>
                <g id="Group-7" transform="translate(14.892305, 14.866025) scale(-1, 1) translate(-14.892305, -14.866025) translate(4.000000, 8.000000)" fill-rule="nonzero">
                    <g id="Group-6">
                        <g id="aussicht-copy" transform="translate(1.700000, 1.000000)">
                            <path d="M9.32068966,3 C7.66551724,3 6.32068966,4.34482759 6.32068966,6 C6.32068966,7.65517241 7.66551724,9 9.32068966,9 C10.9758621,9 12.3206897,7.65517241 12.3206897,6 C12.3206897,4.34482759 10.9758621,3 9.32068966,3 Z M9.09310345,5.11034483 C8.72068966,5.11034483 8.41034483,5.42068966 8.41034483,5.79310345 L7.41724138,5.79310345 C7.43793103,4.86206897 8.18275862,4.11724138 9.09310345,4.11724138 L9.09310345,5.11034483 Z" id="Shape" fill="#F4CC54"></path>
                            <path d="M18.4241379,5.37931034 C17.4103448,4.11724138 13.7896552,0 9.32068966,0 C4.85172414,0 1.23103448,4.11724138 0.217241379,5.37931034 C-0.0724137931,5.73103448 -0.0724137931,6.24827586 0.217241379,6.62068966 C1.23103448,7.88275862 4.85172414,12 9.32068966,12 C13.7896552,12 17.4103448,7.88275862 18.4241379,6.62068966 C18.7137931,6.26896552 18.7137931,5.75172414 18.4241379,5.37931034 Z M9.32068966,10.3448276 C6.92068966,10.3448276 4.97586207,8.4 4.97586207,6 C4.97586207,3.6 6.92068966,1.65517241 9.32068966,1.65517241 C11.7206897,1.65517241 13.6655172,3.6 13.6655172,6 C13.6655172,8.4 11.7206897,10.3448276 9.32068966,10.3448276 Z" id="Shape" fill="#405B73"></path>
                        </g>
                        <path d="M21.8923048,5.8660254 C22.4445896,5.8660254 22.8923048,6.31374065 22.8923048,6.8660254 C22.8923048,7.41831015 22.4445896,7.8660254 21.8923048,7.8660254 L-0.107695155,7.8660254 C-0.659979904,7.8660254 -1.10769515,7.41831015 -1.10769515,6.8660254 C-1.10769515,6.31374065 -0.659979904,5.8660254 -0.107695155,5.8660254 L21.8923048,5.8660254 Z" id="Line" fill="#405B73" transform="translate(10.892305, 6.866025) rotate(30.000000) translate(-10.892305, -6.866025) "></path>
                        <path d="M21.8923048,4.6660254 L-0.107695155,4.6660254 C-1.3227216,4.6660254 -2.30769515,5.65099895 -2.30769515,6.8660254 C-2.30769515,8.08105185 -1.3227216,9.0660254 -0.107695155,9.0660254 L21.8923048,9.0660254 C23.1073313,9.0660254 24.0923048,8.08105185 24.0923048,6.8660254 C24.0923048,5.65099895 23.1073313,4.6660254 21.8923048,4.6660254 Z M21.8923048,5.8660254 C22.4445896,5.8660254 22.8923048,6.31374065 22.8923048,6.8660254 C22.8923048,7.41831015 22.4445896,7.8660254 21.8923048,7.8660254 L-0.107695155,7.8660254 C-0.659979904,7.8660254 -1.10769515,7.41831015 -1.10769515,6.8660254 C-1.10769515,6.31374065 -0.659979904,5.8660254 -0.107695155,5.8660254 L21.8923048,5.8660254 Z" id="Line" fill="#FFFFFF" transform="translate(10.892305, 6.866025) rotate(30.000000) translate(-10.892305, -6.866025) "></path>
                    </g>
                </g>
            </g>
        </g>
    </g>
</svg>