<?xml version="1.0" encoding="UTF-8"?>
<svg width="18px" height="20px" viewBox="0 0 18 20" version="1.1" xmlns="http://www.w3.org/2000/svg" xmlns:xlink="http://www.w3.org/1999/xlink">
    <g id="Symbols" stroke="none" stroke-width="1" fill="none" fill-rule="evenodd">
        <g transform="translate(-45.000000, -4.000000)" fill="" fill-rule="nonzero">
            <path d="M62.3676434,11.8213097 L54.0343105,4.18239193 C53.7627867,3.93399312 53.3452079,3.94004782 53.0813013,4.19606383 L45.2108988,11.8349426 C45.076172,11.965724 45,12.1456071 45,12.3333027 L45,23.3055458 C45,23.6891011 45.3108598,24 45.6944542,24 L51.4814942,24 C51.8650494,24 52.1759483,23.6891011 52.1759483,23.3055458 L52.1759483,18.21296 L55.4166954,18.21296 L55.4166954,23.3055458 C55.4166954,23.6891011 55.7275553,24 56.1111496,24 L61.8981896,24 C62.2817449,24 62.5926438,23.6893355 62.5926438,23.3055458 L62.5926438,12.3333417 C62.5926438,12.138654 62.5111593,11.9530287 62.3676434,11.8213097 Z M61.2037745,22.6111307 L56.8056038,22.6111307 L56.8056038,17.5185449 C56.8056038,17.1349896 56.4947049,16.8240907 56.1111496,16.8240907 L51.4815332,16.8240907 C51.097978,16.8240907 50.7870791,17.1349896 50.7870791,17.5185449 L50.7870791,22.6111307 L46.3889083,22.6111307 L46.3889083,12.6270922 L53.5785286,5.64907384 L61.2037745,12.6388891 L61.2037745,22.6111307 L61.2037745,22.6111307 Z" id="Shape-Copy"></path>
        </g>
    </g>
</svg>