<?xml version="1.0" encoding="UTF-8"?>
<svg width="97px" height="97px" viewBox="0 0 97 97" version="1.1" xmlns="http://www.w3.org/2000/svg" xmlns:xlink="http://www.w3.org/1999/xlink">
    <title>Group</title>
    <g id="Symbols" stroke="none" stroke-width="1" fill="none" fill-rule="evenodd">
        <g id="Registrierung-Header-groß-zweizeilig" transform="translate(-97.000000, -33.000000)">
            <g id="Group" transform="translate(97.000000, 33.000000)">
                <circle id="Oval" fill="#FFFFFF" cx="48.5" cy="48.5" r="48.5"></circle>
                <g id="symbol-lern-fair-copy-2" transform="translate(10.000000, 9.000000)" fill-rule="nonzero">
                    <polygon id="Path" fill="#F4CC54" points="12.7918845 39.1317063 16.6226018 39.1317063 16.6226018 35.3013089 12.7918845 35.3013089"></polygon>
                    <polygon id="Path" fill="#F4CC54" points="14.3139634 53.0863633 10.089913 53.0863633 10.089913 57.3103604 14.3139634 57.3103604"></polygon>
                    <polygon id="Path" fill="#F4CC54" points="34.1173098 58.6447595 27.0886213 58.6447595 27.0886213 51.6159643 34.1173098 51.6159643"></polygon>
                    <polygon id="Path" fill="#F4CC54" points="21.291132 63.7236893 25.4981157 63.7236893 25.4981157 59.5167589 21.291132 59.5167589"></polygon>
                    <polyline id="Path" fill="#405B73" points="8.07188775 29.6234462 12.1078316 29.6234462 12.1078316 25.5877156 8.07188775 25.5877156 8.07188775 29.6234462"></polyline>
                    <polygon id="Path" fill="#405B73" points="5.88292927 37.5925074 10.0898597 37.5925074 10.0898597 33.3855769 5.88292927 33.3855769"></polygon>
                    <polyline id="Path" fill="#405B73" points="7.45626151 48.5034331 13.7495905 48.5034331 13.7495905 42.2101042 7.45626151 42.2101042 7.45626151 48.5034331"></polyline>
                    <polygon id="Path" fill="#405B73" points="0 53.9930294 5.88287593 53.9930294 5.88287593 59.875692 0 59.875692"></polygon>
                    <polygon id="Path" fill="#405B73" points="22.5224378 44.330636 17.4946546 44.330636 17.4946546 49.3583659 22.5224378 49.3583659"></polygon>
                    <polygon id="Path" fill="#405B73" points="10.089913 60.833558 15.8018024 60.833558 15.8018024 66.545554 10.089913 66.545554"></polygon>
                    <polygon id="Path" fill="#405B73" points="22.3173179 53.6164963 18.6234005 53.6164963 18.6234005 57.3103604 22.3173179 57.3103604"></polygon>
                    <path d="M78.5135457,43.3882367 L78.5135457,43.39997 C78.5018124,43.41117 78.5018124,43.41117 78.4906124,43.4229033 C77.8223462,46.0597015 76.1759474,48.2821 73.8036823,49.7098323 C69.8196851,52.116764 64.7759552,51.7482309 63.2100896,51.1263647 C61.7935573,50.5738317 60.6767581,49.6639657 59.8015587,48.6047664 C59.7903587,48.5930331 59.7903587,48.5930331 59.7786254,48.5930331 C59.0831592,47.676767 58.5108929,46.6783677 58.0975598,45.6106351 C58.0122266,45.373302 57.9322266,45.1285021 57.8602267,44.8885023 C58.4127596,45.866635 59.2207591,46.6735677 60.2388917,47.2111674 C61.1140911,47.6719671 62.0468905,47.9023669 62.9914231,47.9023669 C63.6362227,47.9023669 64.2692889,47.798367 64.8911552,47.5914338 L65.0063551,47.5450338 C65.9503544,47.2229007 66.7679539,46.6933011 67.4127534,46.0138349 L69.0938189,47.4186339 L70.9711509,48.9844995 L71.5124839,46.6010345 L71.9844836,44.4938359 C72.2724834,44.5514359 72.5828832,44.5743692 72.8826163,44.5743692 C73.5156825,44.5743692 74.1492821,44.4709026 74.7711483,44.2634361 C76.9935468,43.5226366 78.4730124,41.5765046 78.7167456,39.3802394 C78.8820788,40.6058386 78.8516788,41.8586377 78.5823457,43.0890369 C78.5594124,43.1925035 78.5364791,43.2847701 78.5135457,43.3882367 L78.5135457,43.3882367 Z M57.5450269,39.0010397 L61.6783574,37.607974 C62.8298232,37.2277076 64.0735557,37.3199742 65.1562216,37.8954405 C66.0079544,38.3445068 66.6762206,39.0357064 67.0906203,39.9338391 C67.2058202,40.1759722 67.2980868,40.4287721 67.3786201,40.6938385 C67.5167533,41.1546382 67.56262,41.6266379 67.55142,42.0757043 C67.5279533,42.6975705 67.3786201,43.2847701 67.1135536,43.826103 C66.9060871,44.2751694 66.6186206,44.6895691 66.2612875,45.0463689 C65.7892879,45.5301019 65.2020883,45.8986349 64.5226221,46.1290348 L64.4191555,46.1637014 C63.2559563,46.5551678 62.0239571,46.4629012 60.9418245,45.8869016 C59.8591586,45.3226353 59.0762258,44.3557027 58.7423594,43.1813035 L57.5450269,39.0010397 Z M59.329559,35.3050423 C59.7903587,34.8671759 60.3311583,34.5450428 60.9876912,34.3605096 C63.9124892,33.5546435 66.2383542,35.1093091 66.4570207,35.2703756 C66.4687541,35.2703756 66.4687541,35.2815756 66.4799541,35.2815756 C66.4799541,35.2815756 67.4591534,32.4837109 70.5562179,31.6661114 C70.9364843,31.5626449 71.3167507,31.4933116 71.6735505,31.4586449 C72.7172831,31.364245 73.6799491,31.5503782 74.5423485,32.0159779 L71.0404842,33.1978437 C69.013819,33.8655766 67.5855533,35.5583754 67.1828869,37.5274407 C66.7908872,37.1471743 66.3423541,36.8362412 65.8468878,36.5717081 C64.3962222,35.7999753 62.74929,35.6735753 61.1951577,36.1914417 L58.0458265,37.2479743 C58.3578263,36.4997081 58.770626,35.8245086 59.329559,35.3050423 L59.329559,35.3050423 Z M70.5562179,44.0794362 L70.0500849,46.267168 L68.2996861,44.804769 C68.5988859,44.2517027 68.8180858,43.6533032 68.9327524,43.0197036 C69.3012854,43.3653034 69.7156852,43.6645032 70.1764848,43.9066363 C70.3028847,43.9754363 70.429818,44.0330362 70.5562179,44.0794362 L70.5562179,44.0794362 Z M69.2554188,41.1199716 C69.025019,40.7631718 68.8404858,40.3599721 68.7258192,39.9338391 C68.6682192,39.7263725 68.6218192,39.5194394 68.5988859,39.3119728 C68.3108861,37.2741076 69.508752,35.2815756 71.5124839,34.6138427 L75.8303476,33.1631771 L77.0858134,37.5274407 C77.7300796,39.7727725 76.4980805,42.1103709 74.275682,42.858637 C73.6308824,43.0773036 72.9748829,43.1349035 72.31835,43.0426369 C71.823417,42.9855703 71.339684,42.8239704 70.8906177,42.5935706 C70.8906177,42.5823706 70.8788843,42.5823706 70.8788843,42.5823706 C70.2111515,42.2250375 69.6586185,41.7301045 69.2554188,41.1199716 L69.2554188,41.1199716 Z M77.9722128,34.1418431 C77.8111462,33.8767766 77.6383463,33.6234434 77.4543465,33.3818436 C76.9700801,32.7141107 76.4292805,32.1034445 75.8186143,31.5855782 C75.5076811,31.3093117 75.185548,31.0559785 74.8404816,30.8255787 C71.1210175,27.3594478 65.4671548,25.8047822 65.4671548,25.8047822 C66.2042209,28.5338469 64.5226221,29.7087795 64.5226221,29.7087795 C62.254357,27.0831813 59.2260924,26.092782 59.2260924,26.092782 C59.5370255,27.543981 59.4559589,28.7413135 59.1914258,29.7317128 C49.0004995,20.6346524 44.1183695,0 44.1183695,0 C44.1183695,0 42.9781036,3.05173122 41.907171,7.63466139 C41.6079712,8.88959386 41.6543712,10.2021263 42.0799709,11.4229254 C42.6325039,13.035191 43.4965033,14.8773231 44.8090357,16.7082551 C44.6479691,16.6277218 42.7594371,15.5914559 40.8826384,12.7354579 C40.6981052,13.9098571 40.4565054,15.9482556 40.3183721,17.2842547 C40.2149055,18.2511874 40.3183721,19.2186534 40.6175719,20.1514527 C41.2047715,21.9935848 42.4138374,24.9301161 44.7514357,27.9695807 C44.5215692,27.8661141 42.1375709,26.6917149 40.065039,23.8933168 C40.1919722,27.7626475 40.8021051,31.6661114 42.2298375,35.1898423 C42.506104,35.8922419 42.9205037,36.5023748 43.42717,37.0549077 C44.2335694,37.9071738 45.5807685,39.2085062 47.2965006,40.3135721 C47.5151672,40.4522387 47.7338337,40.6015719 47.9759668,40.7397052 C44.9935689,40.0949056 42.1146376,38.5061067 40.8943717,37.8266405 C24.1857433,28.5914469 13.8914571,9.85705985 13.8914571,9.85705985 C13.8914571,9.85705985 11.542392,15.4533227 10.9205258,22.7077176 L14.9855896,22.7077176 L14.9855896,32.4261109 L19.4993465,32.4261109 L19.4993465,41.453838 L25.4063824,41.453838 L25.4063824,48.7428996 L36.9904811,48.7428996 L36.9904811,54.062896 C37.589254,54.1663626 39.512186,54.6266289 41.0554383,54.983962 C41.0207716,55.052762 40.986105,55.1103619 40.9631717,55.1796952 C35.7237086,68.7210192 18.5666005,72.4980832 18.5666005,72.4980832 C52.638897,79.4298118 71.3279507,54.7188955 71.3279507,54.7188955 C65.2020883,55.8474281 62.4847568,53.3946298 62.4847568,53.3946298 C62.4847568,53.3946298 69.0596856,53.9706294 74.4026152,50.7695649 C80.540211,47.0847675 81.472477,39.3119728 77.9722128,34.1418431 Z" id="Shape" fill="#405B73"></path>
                    <path d="M63.601556,43.5263699 C62.6228901,43.7797031 61.6324907,43.2042368 61.3674243,42.2250375 C61.1140911,41.2463715 61.7012907,40.2447722 62.68049,39.991439 C62.8532899,39.9455724 63.0372898,39.9221057 63.2100896,39.9338391 C62.9450232,40.1525056 62.8186233,40.5210387 62.9108899,40.8778384 C63.0372898,41.3615714 63.5327561,41.6495712 64.0276891,41.522638 C64.3732888,41.4309047 64.626622,41.1546382 64.684222,40.8090385 C64.7876886,40.958905 64.8564885,41.1199716 64.9028885,41.2927715 C65.1674216,42.2714375 64.580222,43.2730368 63.601556,43.5263699" id="Path" fill="#3D5572"></path>
                    <path d="M73.5044825,40.475172 C72.5252832,40.7285052 71.5236839,40.1413056 71.2703507,39.1738396 C71.0058176,38.1951736 71.5930172,37.193041 72.5716832,36.9402411 C72.7562164,36.8938412 72.9402163,36.8709079 73.1242161,36.8826412 C72.8479497,37.0895744 72.7098164,37.4581074 72.802083,37.8149072 C72.9284829,38.3103735 73.4351492,38.5983733 73.9188822,38.4714401 C74.264482,38.3791735 74.5295485,38.102907 74.5983484,37.7573072 C74.690615,37.9071738 74.759415,38.0682404 74.8052816,38.2410402 C75.0591481,39.2197062 74.4714152,40.2218389 73.5044825,40.475172" id="Path" fill="#3D5572"></path>
                </g>
            </g>
        </g>
    </g>
</svg>