<?xml version="1.0" encoding="UTF-8"?>
<svg width="200px" height="200px" viewBox="0 0 200 200" version="1.1" xmlns="http://www.w3.org/2000/svg" xmlns:xlink="http://www.w3.org/1999/xlink">
    <title>Group</title>
    <g id="Onboarding" stroke="none" stroke-width="1" fill="none" fill-rule="evenodd">
        <g id="Onboarding-Schüler:innen-allgemein" transform="translate(-2712.000000, -403.000000)">
            <g id="Group-10" transform="translate(2629.000000, 84.000000)">
                <g id="Group" transform="translate(83.000000, 319.000000)">
                    <circle id="Oval" fill="#FFFFFF" cx="100" cy="100" r="100"></circle>
                    <g id="symbol-lern-fair-copy-2" transform="translate(29.556701, 34.556701)" fill-rule="nonzero">
                        <polygon id="Path" fill="#F4CC54" points="22.5561773 69.0016943 29.3109552 69.0016943 29.3109552 62.2474806 22.5561773 62.2474806"></polygon>
                        <polygon id="Path" fill="#F4CC54" points="25.2400885 93.6082109 17.7917387 93.6082109 17.7917387 101.056467 25.2400885 101.056467"></polygon>
                        <polygon id="Path" fill="#F4CC54" points="60.159712 103.409438 47.7658897 103.409438 47.7658897 91.0154279 60.159712 91.0154279"></polygon>
                        <polygon id="Path" fill="#F4CC54" points="37.5430646 112.365213 44.9613204 112.365213 44.9613204 104.947052 37.5430646 104.947052"></polygon>
                        <polyline id="Path" fill="#405B73" points="14.2333157 52.2355954 21.3499736 52.2355954 21.3499736 45.1193137 14.2333157 45.1193137 14.2333157 52.2355954"></polyline>
                        <polygon id="Path" fill="#405B73" points="10.3734829 66.2875951 17.7916447 66.2875951 17.7916447 58.8694333 10.3734829 58.8694333"></polygon>
                        <polyline id="Path" fill="#405B73" points="13.1477701 85.5270415 24.2449188 85.5270415 24.2449188 74.4298928 13.1477701 74.4298928 13.1477701 85.5270415"></polyline>
                        <polygon id="Path" fill="#405B73" points="0 95.2069526 10.3733889 95.2069526 10.3733889 105.579965 0 105.579965"></polygon>
                        <polygon id="Path" fill="#405B73" points="39.71425 78.1690676 30.8486627 78.1690676 30.8486627 87.0345609 39.71425 87.0345609"></polygon>
                        <polygon id="Path" fill="#405B73" points="17.7917387 107.268989 27.8636237 107.268989 27.8636237 117.341062 17.7917387 117.341062"></polygon>
                        <polygon id="Path" fill="#405B73" points="39.3525582 94.5430046 32.8390021 94.5430046 32.8390021 101.056467 39.3525582 101.056467"></polygon>
                        <path d="M77.794774,0 C77.794774,0 77.8989399,0.440264327 78.1082731,1.24528543 L78.2328907,1.72010824 C80.1912527,9.11640385 88.7396096,38.4708145 104.373386,52.426504 C104.839842,50.6801138 104.982788,48.5688342 104.434514,46.0099069 C104.434514,46.0099069 109.774311,47.7562972 113.773987,52.3860653 L113.773987,52.3860653 L113.789538,52.3747592 C114.018621,52.2047811 116.683877,50.109509 115.4395,45.5020713 C115.4395,45.5020713 125.409065,48.2434432 131.967668,54.3553389 C132.576131,54.7616074 133.144154,55.2083147 133.692428,55.6954607 C134.769228,56.6086244 135.722831,57.685424 136.576747,58.8628503 C136.901197,59.2888679 137.205899,59.7355752 137.48991,60.202972 C143.661994,69.3195618 142.018111,83.0254808 131.19557,89.5229554 C124.373256,93.6103512 116.411783,94.2053152 112.538424,94.222521 L112.18206,94.222506 C110.921939,94.2167302 110.18058,94.1517831 110.18058,94.1517831 C110.18058,94.1517831 114.972103,98.4768497 125.773955,96.4868865 C125.773955,96.4868865 92.8191848,140.060123 32.7388457,127.837272 L32.7388457,127.837272 L32.7747397,127.829195 C33.9405782,127.563978 63.1770831,120.699548 72.2311527,97.2994234 C72.2715914,97.1771667 72.3327198,97.0755996 72.3938482,96.9542833 C69.6726016,96.324191 66.2818584,95.5125944 65.2260305,95.3301498 L65.2260305,95.3301498 L65.2260305,85.9492974 L44.7995654,85.9492974 L44.7995654,73.0963541 L34.3835747,73.0963541 L34.3835747,57.1775884 L26.42438,57.1775884 L26.42438,40.0409576 L19.2563743,40.0409576 C20.352923,27.2491426 24.4950748,17.3811442 24.4950748,17.3811442 C24.4950748,17.3811442 42.6471888,50.4158511 72.1098364,66.7004466 C74.2615547,67.8985625 79.33803,70.7001223 84.59695,71.8371098 C84.1699919,71.5935368 83.784413,71.3302147 83.3988341,71.0857012 C80.3734504,69.1371171 77.9979082,66.8424525 76.5759685,65.3396352 C75.682554,64.3653432 74.951835,63.2894841 74.4646889,62.0509294 C71.9471409,55.8374666 70.8712817,48.9544131 70.6474579,42.1315475 C74.3019935,47.0660169 78.5057439,49.1368577 78.9110719,49.3193024 C74.7891395,43.9597558 72.6571703,38.7817133 71.6217499,35.5334462 C71.0941651,33.8886231 70.9117205,32.1826716 71.0941651,30.4776605 C71.3377382,28.1218675 71.7637558,24.5275199 72.0891468,22.4566791 C75.3985422,27.4927156 78.7286273,29.3199834 79.012639,29.4619893 C76.6982252,26.2334714 75.1747184,22.9852043 74.2004263,20.1422653 C73.4499581,17.9896065 73.3681402,15.6751927 73.895725,13.462346 C75.7841211,5.38117667 77.794774,0 77.794774,0 Z M138.80276,69.4399376 C138.37298,73.3126544 135.76421,76.7443066 131.845412,78.0505727 C130.748863,78.4164024 129.631624,78.598847 128.515327,78.598847 C127.986801,78.598847 127.439467,78.5584083 126.931632,78.4568412 L126.931632,78.4568412 L126.099346,82.1725051 L125.144803,86.3753151 L121.834467,83.614194 L118.870212,81.1370847 C117.733224,82.3352006 116.291535,83.2690539 114.626963,83.8370774 L114.626963,83.8370774 L114.423829,83.9188954 C113.32728,84.2837847 112.210982,84.4671697 111.073994,84.4671697 C109.408482,84.4671697 107.763658,84.0609012 106.220402,83.2483643 C104.42511,82.3004044 103.000348,80.8775243 102.026056,79.152764 C102.153015,79.5759604 102.294081,80.0076207 102.444551,80.4261148 C103.173389,82.3088684 104.182477,84.0693652 105.408806,85.6850348 C105.429496,85.6850348 105.429496,85.6850348 105.449245,85.7057244 C106.992501,87.5734309 108.961774,89.1778153 111.459573,90.1521073 C114.220694,91.2486561 123.114401,91.8984976 130.13946,87.6543085 C134.322521,85.1367604 137.225648,81.2179622 138.404015,76.568445 C138.423764,76.5477554 138.423764,76.5477554 138.444453,76.5280063 L138.444453,76.5280063 L138.444453,76.5073167 C138.484892,76.324872 138.525331,76.1621765 138.56577,75.9797319 C139.04069,73.8101453 139.094295,71.6010603 138.80276,69.4399376 Z M114.891225,66.8217629 C112.98214,65.8070321 110.789042,65.6443366 108.75864,66.3148677 L108.75864,66.3148677 L101.470259,68.7712874 L103.581538,76.1424274 C104.170251,78.2132682 105.550812,79.9182792 107.459898,80.9132609 C109.368043,81.9289321 111.540451,82.0916276 113.591542,81.4013473 L113.591542,81.4013473 L113.773987,81.3402189 C114.972103,80.9339505 116.007523,80.284109 116.839809,79.4311332 C117.469902,78.8019813 117.976797,78.0712623 118.342627,77.2794149 C118.810024,76.324872 119.073346,75.2894516 119.114725,74.1929028 C119.134474,73.4010555 119.053597,72.5687693 118.810024,71.7562323 C118.668018,71.2888355 118.505322,70.8430686 118.302188,70.4161106 C117.571469,68.8324158 116.393102,67.6136103 114.891225,66.8217629 Z M121.550455,75.8574752 C121.348261,76.9747135 120.961742,78.0298831 120.434157,79.0051155 L120.434157,79.0051155 L123.520669,81.583792 L124.413143,77.7261221 C124.19026,77.6443042 123.966436,77.5427371 123.743553,77.4214208 C122.931016,76.9944627 122.200297,76.4668779 121.550455,75.8574752 Z M111.459573,70.4161106 C110.992176,70.8016894 110.769293,71.451531 110.931988,72.0806829 C111.154872,72.9336586 112.028537,73.4414942 112.901262,73.2176704 C113.510665,73.0559153 113.957372,72.5687693 114.058939,71.9593666 C114.241384,72.2236292 114.3627,72.5076409 114.444518,72.8123423 C114.910975,74.538043 113.875554,76.3041824 112.149854,76.7508897 C110.424153,77.1975969 108.677763,76.1828661 108.210366,74.456225 C107.763658,72.7305244 108.799079,70.9643849 110.52572,70.5176777 C110.830421,70.4368002 111.154872,70.395421 111.459573,70.4161106 Z M133.713118,58.4772714 L126.099346,61.0352582 C122.566126,62.2126845 120.453906,65.7261546 120.961742,69.3195618 C121.002181,69.6853915 121.083999,70.0502808 121.185566,70.4161106 C121.38776,71.1675192 121.713151,71.878489 122.119419,72.5076409 C122.830389,73.5835001 123.804681,74.456225 124.982107,75.0863174 C124.982107,75.0863174 125.002797,75.0863174 125.002797,75.1060665 C125.794644,75.512335 126.64762,75.7972872 127.520345,75.8979139 C128.678022,76.0606094 129.834759,75.9590423 130.971746,75.5734634 C134.890544,74.2540312 137.062952,70.1320988 135.926905,66.1728618 L135.926905,66.1728618 L133.713118,58.4772714 Z M128.941344,65.0358743 C128.454198,65.4007636 128.210625,66.0506051 128.373321,66.679757 C128.596204,67.5534224 129.489619,68.061258 130.342594,67.8374341 C130.951997,67.6747387 131.419394,67.1875926 131.54071,66.5781899 C131.703406,66.8424525 131.824722,67.1264643 131.905599,67.4311656 C132.353247,69.1568663 131.316886,70.9239462 129.611875,71.3706534 C127.885234,71.8173607 126.119095,70.7819403 125.672387,69.0759888 C125.205931,67.3502881 126.241351,65.5832083 127.967052,65.1374414 C128.292443,65.0556235 128.616894,65.0151847 128.941344,65.0358743 Z M131.441964,56.4543928 C129.921279,55.6333919 128.223791,55.3051796 126.383357,55.4716369 C125.754205,55.5327652 125.083674,55.6550219 124.413143,55.8374666 C118.952029,57.2791555 117.225388,62.2126845 117.225388,62.2126845 C117.205639,62.2126845 117.205639,62.1929353 117.18495,62.1929353 C116.799371,61.9089235 112.698128,59.1675516 107.540775,60.5885509 C106.383098,60.9139419 105.429496,61.4819654 104.616959,62.2540637 C103.631381,63.1700486 102.903484,64.360641 102.353328,65.6800732 L102.353328,65.6800732 L107.906605,63.8170688 C110.647036,62.9039052 113.551104,63.1267886 116.10909,64.4875999 C116.982756,64.9540564 117.773663,65.5023307 118.464883,66.1728618 C119.174913,62.7007709 121.693401,59.715826 125.267059,58.5383997 L125.267059,58.5383997 Z" id="Combined-Shape" fill="#405B73"></path>
                    </g>
                </g>
            </g>
        </g>
    </g>
</svg>