<?xml version="1.0" encoding="UTF-8"?>
<svg width="100px" height="100px" viewBox="0 0 100 100" version="1.1" xmlns="http://www.w3.org/2000/svg" xmlns:xlink="http://www.w3.org/1999/xlink">
    <title>Group 18</title>
    <g id="Onboarding" stroke="none" stroke-width="1" fill="none" fill-rule="evenodd">
        <g id="Onboarding-Helfer:innen-1:1-Matching" transform="translate(-2718.000000, -237.000000)">
            <g id="Group-5" transform="translate(2583.000000, 84.000000)">
                <g id="Group-16" transform="translate(0.000000, 0.000000)">
                    <g id="Group-2-Copy-9" transform="translate(25.749215, 90.000000)">
                        <g transform="translate(0.250785, 24.000000)" id="Group-18">
                            <g transform="translate(109.000000, 39.000000)">
                                <circle id="Oval-Copy-3" fill="#FFFFFF" cx="50" cy="50" r="50"></circle>
                                <g id="thumbs-up-copy" transform="translate(60.484909, 72.125022) scale(-1, -1) rotate(-221.000000) translate(-60.484909, -72.125022) translate(47.700873, 65.483578)">
                                    <g id="Group-8" transform="translate(4.087647, 0.000000)" fill="#F4CC54" fill-rule="nonzero">
                                        <path d="M3.17941311,3.6393034 C3.05895797,3.63927768 2.94344571,3.59140627 2.85828393,3.50621875 L2.17696318,2.824898 C2.0588873,2.7108565 2.01153278,2.54197824 2.05310034,2.38317172 C2.09466795,2.22436519 2.21868872,2.10034439 2.37749527,2.05877682 C2.53630178,2.01720924 2.70518003,2.06456376 2.81922154,2.18263964 L3.50054229,2.86396039 C3.63040562,2.99386293 3.66924726,3.18919413 3.59896044,3.35889656 C3.52867362,3.528599 3.36309532,3.63926418 3.17941311,3.6393034 L3.17941311,3.6393034 Z" id="Shape"></path>
                                        <path d="M1.13545086,1.59534115 C1.01499571,1.59531542 0.899483458,1.54744402 0.81432168,1.4622565 L0.133000929,0.780935747 C-0.0391334863,0.602711827 -0.0366717382,0.319415984 0.13853389,0.144210356 C0.313739518,-0.0309952679 0.597035366,-0.0334570342 0.77525929,0.138677386 L1.45658004,0.819998137 C1.58644336,0.949900681 1.62528501,1.14523187 1.55499819,1.31493431 C1.48471137,1.48463675 1.31913307,1.59530193 1.13545086,1.59534115 Z" id="Shape"></path>
                                        <path d="M0.45413011,3.6393034 C0.270447898,3.63926418 0.104869604,3.528599 0.0345827844,3.35889656 C-0.0357040356,3.18919413 0.00313760613,2.99386293 0.133000929,2.86396039 L0.81432168,2.18263964 C0.928363191,2.06456376 1.09724144,2.01720924 1.25604795,2.05877682 C1.4148545,2.10034439 1.53887528,2.22436519 1.58044288,2.38317172 C1.62201044,2.54197824 1.57465592,2.7108565 1.45658004,2.824898 L0.77525929,3.50621875 C0.690097512,3.59140627 0.574585257,3.63927768 0.45413011,3.6393034 L0.45413011,3.6393034 Z" id="Shape"></path>
                                        <path d="M2.49809236,1.59534115 C2.31441015,1.59530193 2.14883186,1.48463675 2.07854504,1.31493431 C2.00825822,1.14523187 2.04709986,0.949900681 2.17696318,0.819998137 L2.85828393,0.138677386 C2.97232544,0.0206015113 3.14120369,-0.0267530152 3.3000102,0.0148145636 C3.45881676,0.0563821425 3.58283753,0.180402941 3.62440513,0.339209469 C3.66597269,0.498015993 3.61861818,0.666894249 3.50054229,0.780935747 L2.81922154,1.4622565 C2.73405976,1.54744402 2.61854751,1.59531542 2.49809236,1.59534115 L2.49809236,1.59534115 Z" id="Shape"></path>
                                    </g>
                                    <g id="Group-8-Copy" transform="translate(18.229828, 9.643584)" fill="#F4CC54" fill-rule="nonzero">
                                        <path d="M3.17941311,3.6393034 C3.05895797,3.63927768 2.94344571,3.59140627 2.85828393,3.50621875 L2.17696318,2.824898 C2.0588873,2.7108565 2.01153278,2.54197824 2.05310034,2.38317172 C2.09466795,2.22436519 2.21868872,2.10034439 2.37749527,2.05877682 C2.53630178,2.01720924 2.70518003,2.06456376 2.81922154,2.18263964 L3.50054229,2.86396039 C3.63040562,2.99386293 3.66924726,3.18919413 3.59896044,3.35889656 C3.52867362,3.528599 3.36309532,3.63926418 3.17941311,3.6393034 L3.17941311,3.6393034 Z" id="Shape"></path>
                                        <path d="M1.13545086,1.59534115 C1.01499571,1.59531542 0.899483458,1.54744402 0.81432168,1.4622565 L0.133000929,0.780935747 C-0.0391334863,0.602711827 -0.0366717382,0.319415984 0.13853389,0.144210356 C0.313739518,-0.0309952679 0.597035366,-0.0334570342 0.77525929,0.138677386 L1.45658004,0.819998137 C1.58644336,0.949900681 1.62528501,1.14523187 1.55499819,1.31493431 C1.48471137,1.48463675 1.31913307,1.59530193 1.13545086,1.59534115 Z" id="Shape"></path>
                                        <path d="M0.45413011,3.6393034 C0.270447898,3.63926418 0.104869604,3.528599 0.0345827844,3.35889656 C-0.0357040356,3.18919413 0.00313760613,2.99386293 0.133000929,2.86396039 L0.81432168,2.18263964 C0.928363191,2.06456376 1.09724144,2.01720924 1.25604795,2.05877682 C1.4148545,2.10034439 1.53887528,2.22436519 1.58044288,2.38317172 C1.62201044,2.54197824 1.57465592,2.7108565 1.45658004,2.824898 L0.77525929,3.50621875 C0.690097512,3.59140627 0.574585257,3.63927768 0.45413011,3.6393034 L0.45413011,3.6393034 Z" id="Shape"></path>
                                        <path d="M2.49809236,1.59534115 C2.31441015,1.59530193 2.14883186,1.48463675 2.07854504,1.31493431 C2.00825822,1.14523187 2.04709986,0.949900681 2.17696318,0.819998137 L2.85828393,0.138677386 C2.97232544,0.0206015113 3.14120369,-0.0267530152 3.3000102,0.0148145636 C3.45881676,0.0563821425 3.58283753,0.180402941 3.62440513,0.339209469 C3.66597269,0.498015993 3.61861818,0.666894249 3.50054229,0.780935747 L2.81922154,1.4622565 C2.73405976,1.54744402 2.61854751,1.59531542 2.49809236,1.59534115 L2.49809236,1.59534115 Z" id="Shape"></path>
                                    </g>
                                    <path d="M16.8804955,3.96860843 C15.7382634,4.40105361 14.8378228,5.30480465 14.4095722,6.44861596 C14.3751066,6.53778945 14.2884867,6.59583066 14.1929061,6.59384879 C14.0973255,6.59176341 14.0132528,6.53009043 13.9826112,6.43953169 C13.549164,5.30112016 12.6500995,4.40205565 11.511688,3.96860843 C11.4186123,3.93913605 11.3553591,3.85275833 11.3553591,3.75512793 C11.3553591,3.65749753 11.4186123,3.57111981 11.511688,3.54164743 C12.6525745,3.11203044 13.5529943,2.21161071 13.9826112,1.07072417 C14.0120836,0.977648541 14.0984613,0.914395308 14.1960917,0.914395308 C14.2937221,0.914395308 14.3800998,0.977648541 14.4095722,1.07072417 C14.8392507,2.21474498 15.7439899,3.11617014 16.8895798,3.54164743 C16.9787533,3.57611305 17.0367945,3.66273293 17.0348126,3.75831353 C17.0327272,3.85389413 16.9710542,3.9379669 16.8804955,3.96860843 L16.8804955,3.96860843 Z" id="Shape" fill="#F4CC54" fill-rule="nonzero"></path>
                                    <circle id="Oval-Copy-5" fill="#405B73" cx="9.70744002" cy="11.40986" r="1.59014"></circle>
                                    <circle id="Oval-Copy-6" fill="#F4CC54" cx="23.9779324" cy="2.61480186" r="1.59014"></circle>
                                    <path d="M3.42441067,7.96796124 C2.79779811,8.27458678 2.29117835,8.78120653 1.98455281,9.40781909 C1.9500104,9.49015171 1.86944172,9.5437216 1.78015659,9.5437216 C1.69087146,9.5437216 1.61030278,9.49015171 1.57576036,9.40781909 C1.27011118,8.78050977 0.76321183,8.2736104 0.13590251,7.96796124 C0.0535699069,7.93341882 0,7.85285014 0,7.76356501 C0,7.67427988 0.0535699069,7.5937112 0.13590251,7.55916879 C0.76321183,7.25351962 1.27011118,6.74662025 1.57576036,6.11931093 C1.61030278,6.03697832 1.69087146,5.98340843 1.78015659,5.98340843 C1.86944172,5.98340843 1.9500104,6.03697832 1.98455281,6.11931093 C2.29117835,6.74592349 2.79779811,7.25254324 3.42441067,7.55916879 C3.50674328,7.5937112 3.56031317,7.67427988 3.56031317,7.76356501 C3.56031317,7.85285014 3.50674328,7.93341882 3.42441067,7.96796124 Z" id="Shape" fill="#F4CC54" fill-rule="nonzero"></path>
                                </g>
                                <g id="thumbs-up" transform="translate(39.818813, 33.958060) rotate(-211.000000) translate(-39.818813, -33.958060) translate(28.645161, 25.458060)">
                                    <path d="M9.5333707,4.77425945 C9.37535032,4.7742257 9.22381432,4.71142508 9.11209392,4.59967091 L8.21829594,3.70587293 C8.06339682,3.55626636 8.00127428,3.3347216 8.05580514,3.12638954 C8.11033605,2.91805749 8.27303404,2.75535946 8.48136613,2.70082859 C8.68969816,2.64629771 8.91124292,2.70842026 9.0608495,2.86331937 L9.95464748,3.75711735 C10.1250101,3.9275314 10.1759649,4.18377874 10.0837584,4.40640471 C9.99155187,4.62903068 9.77433619,4.774208 9.5333707,4.77425945 L9.5333707,4.77425945 Z" id="Shape" fill="#F4CC54" fill-rule="nonzero"></path>
                                    <path d="M6.85197676,2.09286551 C6.69395638,2.09283176 6.54242038,2.03003113 6.43069998,1.91827697 L5.536902,1.02447899 C5.31108561,0.790674016 5.31431508,0.419029306 5.54416047,0.189183912 C5.77400587,-0.0406614768 6.14565058,-0.0438909715 6.37945556,0.181925426 L7.27325354,1.07572341 C7.44361614,1.24613746 7.49457097,1.5023848 7.40236445,1.72501077 C7.31015792,1.94763674 7.09294225,2.09281405 6.85197676,2.09286551 Z" id="Shape" fill="#F4CC54" fill-rule="nonzero"></path>
                                    <path d="M5.95817878,4.77425945 C5.71721329,4.774208 5.49999762,4.62903068 5.40779109,4.40640471 C5.31558457,4.18377874 5.3665394,3.9275314 5.536902,3.75711735 L6.43069998,2.86331937 C6.58030657,2.70842026 6.80185132,2.64629771 7.01018335,2.70082859 C7.21851545,2.75535946 7.38121343,2.91805749 7.43574435,3.12638954 C7.4902752,3.3347216 7.42815267,3.55626636 7.27325354,3.70587293 L6.37945556,4.59967091 C6.26773516,4.71142508 6.11619916,4.7742257 5.95817878,4.77425945 L5.95817878,4.77425945 Z" id="Shape" fill="#F4CC54" fill-rule="nonzero"></path>
                                    <path d="M8.63957272,2.09286551 C8.39860723,2.09281405 8.18139156,1.94763674 8.08918503,1.72501077 C7.99697851,1.5023848 8.04793334,1.24613746 8.21829594,1.07572341 L9.11209392,0.181925426 C9.26170051,0.027026315 9.48324526,-0.0350962317 9.69157729,0.0194346452 C9.89990939,0.0739655222 10.0626074,0.236663545 10.1171383,0.444995603 C10.1716691,0.653327655 10.1095466,0.874872419 9.95464748,1.02447899 L9.0608495,1.91827697 C8.94912911,2.03003113 8.79759311,2.09283176 8.63957272,2.09286551 L8.63957272,2.09286551 Z" id="Shape" fill="#F4CC54" fill-rule="nonzero"></path>
                                    <path d="M22.1448602,5.20626181 C20.6464108,5.77356969 19.465158,6.95916524 18.9033529,8.45968645 C18.8581388,8.57666965 18.7445055,8.65281165 18.6191171,8.6502117 C18.4937286,8.64747597 18.3834369,8.56656962 18.3432395,8.44776915 C17.774617,6.9543317 16.5951696,5.77488422 15.1017321,5.20626181 C14.9796298,5.16759815 14.8966504,5.0542826 14.8966504,4.92620511 C14.8966504,4.79812761 14.9796298,4.68481206 15.1017321,4.64614841 C16.5984164,4.08255072 17.7796418,2.90132539 18.3432395,1.40464106 C18.3819031,1.28253879 18.4952187,1.19955935 18.6232962,1.19955935 C18.7513737,1.19955935 18.8646892,1.28253879 18.9033529,1.40464106 C19.4670311,2.90543711 20.6539231,4.08798143 22.1567775,4.64614841 C22.2737607,4.6913625 22.3499027,4.80499573 22.3473028,4.93038417 C22.344567,5.05577261 22.2636607,5.16606438 22.1448602,5.20626181 L22.1448602,5.20626181 Z" id="Shape" fill="#F4CC54" fill-rule="nonzero"></path>
                                    <circle id="Oval" fill="#405B73" cx="12.9286995" cy="14.9139577" r="2.08604232"></circle>
                                    <path d="M4.49235009,10.452856 C3.67032165,10.855106 3.00570705,11.5197206 2.60345703,12.341749 C2.55814218,12.4497579 2.4524473,12.5200342 2.33531763,12.5200342 C2.21818797,12.5200342 2.11249308,12.4497579 2.06717824,12.341749 C1.66620907,11.5188065 1.00122768,10.8538251 0.178285174,10.452856 C0.0702762605,10.4075411 0,10.3018462 0,10.1847166 C0,10.0675869 0.0702762605,9.96189201 0.178285174,9.91657716 C1.00122768,9.51560801 1.66620907,8.8506266 2.06717824,8.0276841 C2.11249308,7.91967517 2.21818797,7.84939893 2.33531763,7.84939893 C2.4524473,7.84939893 2.55814218,7.91967517 2.60345703,8.0276841 C3.00570705,8.84971254 3.67032165,9.51432714 4.49235009,9.91657716 C4.60035902,9.96189201 4.67063526,10.0675869 4.67063526,10.1847166 C4.67063526,10.3018462 4.60035902,10.4075411 4.49235009,10.452856 Z" id="Shape" fill="#F4CC54" fill-rule="nonzero"></path>
                                </g>
                                <g id="Group-4" transform="translate(27.333333, 37.469797)" fill="#405B73" fill-rule="nonzero">
                                    <path d="M41.0562524,0.610225537 C40.2426998,-0.203408512 38.9236979,-0.203408512 38.1099825,0.610225537 L13.1505088,25.5699433 L3.5564955,15.97593 C2.74294283,15.1622959 1.42394097,15.1623773 0.610225537,15.97593 C-0.203408512,16.7894827 -0.203408512,18.1084845 0.610225537,18.9221186 L11.6773739,29.9891041 C12.4906824,30.8026568 13.8106608,30.8020871 14.6236438,29.9891041 L41.0562524,3.5564955 C41.8698865,2.74294283 41.8698051,1.42385959 41.0562524,0.610225537 Z" id="Path"></path>
                                </g>
                            </g>
                        </g>
                    </g>
                </g>
            </g>
        </g>
    </g>
</svg>