<?xml version="1.0" encoding="UTF-8"?>
<svg width="17px" height="13px" viewBox="0 0 17 13" version="1.1" xmlns="http://www.w3.org/2000/svg" xmlns:xlink="http://www.w3.org/1999/xlink">
    <title>1:1</title>
    <g id="Symbols" stroke="none" stroke-width="1" fill="none" fill-rule="evenodd">
        <g id="Navi-/-Helfer:innen" transform="translate(-193.000000, -16.000000)" fill="#2B4B51" fill-rule="nonzero">
            <g id="1:1" transform="translate(193.090000, 16.397750)">
                <path d="M3.735,12.60225 C3.513,12.60225 3.33,12.53175 3.186,12.39075 C3.042,12.24975 2.97,12.07725 2.97,11.87325 L2.97,1.63125 L3.186,1.88325 L1.098,3.13425 C0.99,3.20025 0.87,3.23325 0.738,3.23325 C0.528,3.23325 0.3525,3.15225 0.2115,2.99025 C0.0705,2.82825 0,2.66025 0,2.48625 C0,2.22825 0.126,2.02125 0.378,1.86525 L3.312,0.11025 C3.456,0.02625 3.636,-0.00975 3.852,0.00225 C4.05,0.00825 4.2105,0.08025 4.3335,0.21825 C4.4565,0.35625 4.518,0.52725 4.518,0.73125 L4.518,11.87325 C4.518,12.07725 4.4445,12.24975 4.2975,12.39075 C4.1505,12.53175 3.963,12.60225 3.735,12.60225 Z" id="Path"></path>
                <path d="M8.956,5.25825 C8.704,5.25825 8.5105,5.18475 8.3755,5.03775 C8.2405,4.89075 8.173,4.69125 8.173,4.43925 L8.173,4.07925 C8.173,3.82125 8.2405,3.62025 8.3755,3.47625 C8.5105,3.33225 8.704,3.26025 8.956,3.26025 L9.109,3.26025 C9.367,3.26025 9.562,3.33225 9.694,3.47625 C9.826,3.62025 9.892,3.82125 9.892,4.07925 L9.892,4.43925 C9.892,4.69125 9.826,4.89075 9.694,5.03775 C9.562,5.18475 9.367,5.25825 9.109,5.25825 L8.956,5.25825 Z M8.956,12.60225 C8.704,12.60225 8.5105,12.52875 8.3755,12.38175 C8.2405,12.23475 8.173,12.03525 8.173,11.78325 L8.173,11.42325 C8.173,11.16525 8.2405,10.96425 8.3755,10.82025 C8.5105,10.67625 8.704,10.60425 8.956,10.60425 L9.109,10.60425 C9.367,10.60425 9.562,10.67625 9.694,10.82025 C9.826,10.96425 9.892,11.16525 9.892,11.42325 L9.892,11.78325 C9.892,12.03525 9.826,12.23475 9.694,12.38175 C9.562,12.52875 9.367,12.60225 9.109,12.60225 L8.956,12.60225 Z" id="Shape"></path>
                <path d="M15.797,12.60225 C15.575,12.60225 15.392,12.53175 15.248,12.39075 C15.104,12.24975 15.032,12.07725 15.032,11.87325 L15.032,1.63125 L15.248,1.88325 L13.16,3.13425 C13.052,3.20025 12.932,3.23325 12.8,3.23325 C12.59,3.23325 12.4145,3.15225 12.2735,2.99025 C12.1325,2.82825 12.062,2.66025 12.062,2.48625 C12.062,2.22825 12.188,2.02125 12.44,1.86525 L15.374,0.11025 C15.518,0.02625 15.698,-0.00975 15.914,0.00225 C16.112,0.00825 16.2725,0.08025 16.3955,0.21825 C16.5185,0.35625 16.58,0.52725 16.58,0.73125 L16.58,11.87325 C16.58,12.07725 16.5065,12.24975 16.3595,12.39075 C16.2125,12.53175 16.025,12.60225 15.797,12.60225 Z" id="Path"></path>
            </g>
        </g>
    </g>
</svg>