<?xml version="1.0" encoding="UTF-8"?>
<svg width="100px" height="100px" viewBox="0 0 100 100" version="1.1" xmlns="http://www.w3.org/2000/svg" xmlns:xlink="http://www.w3.org/1999/xlink">
    <title>Group 18 Copy 2</title>
    <g id="Onboarding" stroke="none" stroke-width="1" fill="none" fill-rule="evenodd">
        <g id="Onboarding-Helfer:innen-1:1-Matching" transform="translate(-244.000000, -234.000000)">
            <g id="Group-5-Copy-21" transform="translate(86.000000, 84.000000)">
                <g id="Group-2-Copy-9" transform="translate(25.749215, 90.000000)">
                    <g id="Group-18-Copy-2" transform="translate(132.250785, 60.000000)">
                        <circle id="Oval-Copy-3" fill="#FFFFFF" cx="50" cy="50" r="50"></circle>
                        <g id="video-call" transform="translate(20.754717, 22.641509)" fill-rule="nonzero">
                            <path d="M48.7979606,0 C49.9224732,0.0527421178 50.7939367,1.00263728 50.7498149,2.12752115 L50.7498149,24.749512 L46.5240504,35.1333767 L0.00160405792,35.1333767 L0.00160405792,2.12752115 C-0.0425177931,1.00263728 0.828945658,0.0527421178 1.95345832,0 L48.7979606,0 Z" id="Combined-Shape" fill="#EDF4F3"></path>
                            <path d="M46.5240504,35.1333767 L44.533159,40.0130124 L1.95345832,40.0130124 C0.828945658,39.9602702 -0.0425177931,39.0103751 0.00160405792,37.8854912 L0.00160405792,35.1333767 L46.5240504,35.1333767 Z M36.1109079,40.0130124 L33.1831265,44.892648 L15.6164382,44.892648 L18.5442195,40.0130124 L36.1109079,40.0130124 Z M31.2312722,48.7963565 L12.6886568,48.7963565 C11.6139963,48.7883859 10.7447731,47.9191628 10.7368025,46.8445023 C10.740018,45.7678576 11.6120121,44.8958635 12.6886568,44.892648 L31.475254,44.892648 L31.2312722,48.7963565 Z" id="Combined-Shape" fill="#405B73"></path>
                            <circle id="Oval" fill="#FDD7AD" cx="43.9183249" cy="30.2537411" r="8.78334418"></circle>
                            <path d="M31.2312722,53.6759922 L31.2312722,46.8445023 C31.2312722,42.5325849 34.7267719,39.0370852 39.0386893,39.0370852 L48.7979606,39.0370852 C53.109878,39.0370852 56.6053776,42.5325849 56.6053776,46.8445023 L56.6053776,53.6759922 C56.6053776,55.2929612 55.2945652,56.6037736 53.6775963,56.6037736 L34.1590536,56.6037736 C32.5420847,56.6037736 31.2312722,55.2929612 31.2312722,53.6759922 Z" id="Shape" fill="#F4CC54"></path>
                            <circle id="Oval" fill="#FDD7AD" cx="15.6164382" cy="17.5666884" r="7.80741705"></circle>
                            <path d="M3.90530511,35.1333767 L3.90530511,33.1815224 C3.90135265,30.31619 5.47228404,27.6804746 7.99444726,26.3207547 C9.13429794,25.6969104 10.4133323,25.371277 11.7127296,25.3740871 L19.5201467,25.3740871 C20.7112609,25.3715111 21.8852646,25.644919 22.9506355,26.1710239 L23.238429,26.3207547 C25.7605923,27.6804746 27.3315236,30.31619 27.3275712,33.1815224 L27.3275712,35.1333767 L3.90530511,35.1333767 Z" id="Combined-Shape" fill="#405B73"></path>
                            <path d="M46.8461063,5.85556278 L46.8461063,15.6148341 C46.8428909,16.6914788 45.9708967,17.5634729 44.8942521,17.5666884 L38.0627622,17.5666884 L32.841552,21.2849707 C32.5304787,21.5041324 32.1233897,21.5322799 31.7851136,21.3580165 C31.4468375,21.183753 31.2334198,20.8359506 31.2312722,20.4554327 L31.2312722,17.5666884 L29.279418,17.5666884 C28.2027733,17.5634729 27.3307792,16.6914788 27.3275637,15.6148341 L27.3275637,5.85556278 C27.3307792,4.77891815 28.2027733,3.90692401 29.279418,3.90370852 L44.8942521,3.90370852 C45.9708967,3.90692401 46.8428909,4.77891815 46.8461063,5.85556278 Z" id="Shape" fill="#405B73"></path>
                            <g id="Group" transform="translate(30.255345, 6.831490)" fill="#F4CC54">
                                <path d="M5.85556278,1.95185426 L0.975927131,1.95185426 C0.436937508,1.95185426 0,1.5149168 0,0.975927131 C0,0.436937459 0.436937508,0 0.975927131,0 L5.85556278,0 C6.39455241,0 6.83148992,0.436937459 6.83148992,0.975927131 C6.83148992,1.5149168 6.39455241,1.95185426 5.85556278,1.95185426 Z" id="Shape"></path>
                                <path d="M12.6870527,5.85556278 L0.975927131,5.85556278 C0.436937508,5.85556278 0,5.41862528 0,4.87963565 C0,4.34064603 0.436937508,3.90370852 0.975927131,3.90370852 L12.6870527,3.90370852 C13.2260423,3.90370852 13.6629798,4.34064603 13.6629798,4.87963565 C13.6629798,5.41862528 13.2260423,5.85556278 12.6870527,5.85556278 Z" id="Shape"></path>
                            </g>
                        </g>
                    </g>
                </g>
            </g>
        </g>
    </g>
</svg>