<?xml version="1.0" encoding="UTF-8"?>
<svg width="30px" height="30px" viewBox="0 0 30 30" version="1.1" xmlns="http://www.w3.org/2000/svg" xmlns:xlink="http://www.w3.org/1999/xlink">
    <title>nein aktiv</title>
    <g id="Symbols" stroke="none" stroke-width="1" fill="none" fill-rule="evenodd">
        <g id="Kachel-Registrierung-Nein-aktiv-auf-hell" transform="translate(-50.000000, -13.000000)">
            <g id="nein-aktiv" transform="translate(50.000000, 13.000000)">
                <circle id="Oval" fill="#82B1B0" cx="15" cy="15" r="15"></circle>
                <g id="Group" transform="translate(2.000000, 2.000000)" fill="#FFFFFF" fill-rule="nonzero">
                    <path d="M1.26978357,26 C0.756241284,26 0.293223164,25.6907841 0.0966860815,25.2163333 C-0.099851001,24.7418825 0.00880918678,24.1957543 0.371986309,23.8326691 L23.8325257,0.371883704 C24.3283654,-0.123961235 25.1322805,-0.123961235 25.6281202,0.371883704 C26.1239599,0.867728642 26.1239599,1.67165213 25.6281202,2.16749707 L2.16758084,25.6282825 C1.92967521,25.866682 1.60658026,26.0004535 1.26978357,26 L1.26978357,26 Z" id="Path"></path>
                    <path d="M24.7302164,26 C24.3934197,26.0004535 24.0703248,25.866682 23.8324192,25.6282825 L0.371879803,2.16749707 C-0.123959934,1.67165213 -0.123959934,0.867728642 0.371879803,0.371883704 C0.86771954,-0.123961235 1.67163459,-0.123961235 2.16747433,0.371883704 L25.6280137,23.8326691 C25.9911908,24.1957543 26.099851,24.7418825 25.9033139,25.2163333 C25.7067768,25.6907841 25.2437587,26 24.7302164,26 L24.7302164,26 Z" id="Path"></path>
                </g>
            </g>
        </g>
    </g>
</svg>