<?xml version="1.0" encoding="UTF-8"?>
<svg width="100px" height="100px" viewBox="0 0 100 100" version="1.1" xmlns="http://www.w3.org/2000/svg" xmlns:xlink="http://www.w3.org/1999/xlink">
    <title>Group 36</title>
    <g id="Registrierung" stroke="none" stroke-width="1" fill="none" fill-rule="evenodd">
        <g id="Registrierung_Schüler:innen" transform="translate(-227.000000, -274.000000)">
            <g id="Group-5-Copy-21" transform="translate(127.000000, 137.000000)">
                <g id="Group-36" transform="translate(100.000000, 137.000000)">
                    <circle id="Oval-Copy-3" fill="#FFFFFF" cx="50" cy="50" r="50"></circle>
                    <g id="party-2" transform="translate(20.000000, 14.791330)" fill-rule="nonzero">
                        <g id="party">
                            <path d="M49.0689768,44.774149 L32.1226493,27.8278215 L30.2421137,30.9141044 L28.185488,23.8906602 L20.659313,16.3644852 L16.4022321,26.8371463 L14.0310636,25.5332724 L7.42835392,43.1451132 L7.42835392,43.1464574 L7.62057449,48.5232568 L5.19294957,49.1052954 L5.19294957,49.1066396 L0.132037144,62.6010618 C-0.170407822,63.4075817 0.0728923502,64.210069 0.595786091,64.7329628 C1.11733563,65.2558565 1.91713454,65.5018451 2.72768705,65.1967117 L13.4046664,61.1936846 L13.8146474,58.6948171 L17.6227656,59.6115614 L25.9070692,56.5051155 L25.9070692,53.4067349 L30.2421137,54.8799779 L38.275052,51.867626 L39.1192095,49.4641967 L42.4622345,50.2962564 L42.4635787,50.2962564 L48.3511741,48.0890803 C49.7262905,47.5729075 50.1026665,45.8078387 49.0689768,44.774149 L49.0689768,44.774149 Z" id="Path" fill="#405B73"></path>
                            <path d="M42.4622345,50.296122 L38.275052,51.8674916 C34.0004965,47.4517951 30.9142137,41.9782133 29.3199926,36.0086218 C28.2836146,32.1279169 27.8776662,28.0361725 28.185488,23.8906602 L32.1226493,27.8278215 C32.1817941,29.4596802 32.3646053,31.0754084 32.6670503,32.6615642 C33.9480727,39.386596 37.3609961,45.5806689 42.4622345,50.296122 L42.4622345,50.296122 Z" id="Path" fill="#FFFFFF"></path>
                            <path d="M30.2421137,54.8798435 L25.9070692,56.5049811 C22.8597682,53.7762554 20.3017559,50.5609294 18.3338473,46.9947672 C14.7222511,40.4534875 13.2184948,32.911451 14.0310636,25.5332724 L17.2396686,16.9774404 C17.7544971,15.6077007 19.5167431,15.2219154 20.5544654,16.2596377 L20.659313,16.3644852 C16.5948559,25.5330036 17.0815907,35.6343966 21.3179709,44.0106435 C23.4485277,48.2287426 26.490452,51.941557 30.2421137,54.8798435 L30.2421137,54.8798435 Z" id="Path" fill="#FFFFFF"></path>
                            <path d="M17.6227656,59.6115614 L13.4046664,61.1936846 C11.8319526,59.6680178 10.3990356,57.9998657 9.12473412,56.2040148 C7.67850951,54.193495 6.27731559,51.7227213 5.19294957,49.1066396 L5.19294957,49.1052954 L7.42835392,43.1464574 C8.34913081,46.8268766 9.90033744,50.2626514 11.9946008,53.3341481 C13.5726914,55.6514142 15.4612922,57.7604638 17.6227656,59.6115614 Z" id="Path" fill="#FFFFFF"></path>
                            <path d="M35.4017511,22.7148149 C34.6143189,21.9273826 34.6143189,20.650796 35.4017511,19.8633637 C42.9873397,12.2777752 40.6421142,4.89153141 40.6176498,4.81773484 C40.2656039,3.76132818 40.8364855,2.61943041 41.8928922,2.26725005 C42.94903,1.91493527 44.0911966,2.48608579 44.443377,3.54249245 C44.5757807,3.94010676 47.5816804,13.3863368 38.2532023,22.7146805 C37.4660388,23.5021127 36.1891834,23.5022471 35.4017511,22.7148149 L35.4017511,22.7148149 Z" id="Path" fill="#F4CC54"></path>
                            <path d="M43.672809,29.9268633 C44.4602413,30.7142956 45.7368279,30.7142956 46.5242601,29.9268633 C54.1098487,22.3412747 61.4960925,24.6865002 61.569889,24.7109647 C62.6262957,25.0630106 63.7681935,24.4921289 64.1203738,23.4357223 C64.4726886,22.3795844 63.9015381,21.2374178 62.8451314,20.8852375 C62.4475171,20.7528338 53.0012871,17.7469341 43.6729434,27.0754122 C42.8855112,27.86271 42.8853767,29.1395655 43.672809,29.9268633 L43.672809,29.9268633 Z" id="Path" fill="#F4CC54"></path>
                            <circle id="Oval" fill="#F4CC54" cx="51.8341018" cy="7.01629977" r="2.01629977"></circle>
                            <circle id="Oval-Copy" fill="#F4CC54" cx="28.5007685" cy="2.01629977" r="2.01629977"></circle>
                            <circle id="Oval" fill="#405B73" cx="49.6503669" cy="17.7338565" r="2.01629977"></circle>
                            <circle id="Oval" fill="#F4CC54" cx="51.2100313" cy="36.3218572" r="2.01629977"></circle>
                            <circle id="Oval" fill="#405B73" cx="30.5892583" cy="14.2599592" r="2.01629977"></circle>
                        </g>
                    </g>
                </g>
            </g>
        </g>
    </g>
</svg>