<?xml version="1.0" encoding="UTF-8"?>
<svg width="23px" height="23px" viewBox="0 0 23 23" version="1.1" xmlns="http://www.w3.org/2000/svg" xmlns:xlink="http://www.w3.org/1999/xlink">
    <title>006-question copy</title>
    <g id="Symbols" stroke="none" stroke-width="1" fill="none" fill-rule="evenodd">
        <g id="Navi-/-Schueler:in" transform="translate(-274.000000, -12.000000)" fill="" fill-rule="nonzero" stroke="" stroke-width="0.5">
            <g id="006-question-copy" transform="translate(275.000000, 13.000000)">
                <path d="M16.274968,1.71815533 C14.5628732,0.595424119 12.5597422,-0.00180273985 10.5123388,4.08761693e-06 C4.71282372,0.00558396324 0.011211033,4.70262166 5.90299724e-06,10.5021367 C-0.00218034482,12.5436308 0.602957435,14.5396133 1.73850815,16.2361246 L0.0406625331,20.3027667 C-0.063656777,20.5633982 0.0630609231,20.8592476 0.323692402,20.9636145 C0.444929645,21.0121285 0.580225452,21.0121285 0.701510351,20.9636145 L4.76815251,19.2657689 C9.61378208,22.4432903 16.1178456,21.0909994 19.295367,16.2453698 C22.4728884,11.3997403 21.1205975,4.89567672 16.274968,1.71815533 Z M10.5225372,19.9876166 C10.5191536,19.9876166 10.51577,19.9876166 10.5123864,19.9876166 L10.5123864,19.9977674 L10.5123388,19.9977674 C8.58073974,19.982565 6.69889373,19.3836702 5.11385021,18.2796202 C5.03026133,18.2212891 4.93108888,18.1894071 4.82920004,18.1881204 C4.76543611,18.1755392 4.69981359,18.1755392 4.63604967,18.1881204 L1.45385797,19.5504667 L2.78570437,16.3784735 C2.85356673,16.2178722 2.83440895,16.0336336 2.73485526,15.8904745 C1.61555529,14.3168208 1.01494484,12.4332592 1.01670254,10.5021367 C1.01108469,5.2578158 5.2578671,1.00193107 10.502188,0.996302066 C15.7464613,0.990684218 20.0023936,5.23746662 20.0080227,10.4817875 C20.0136405,15.7261084 15.7668581,19.9819932 10.5225372,19.9876166 Z" id="Shape"></path>
                <path d="M13.749478,7.74937458 C13.5286871,6.14069361 12.1356025,4.95400785 10.5123388,4.99179917 C8.75883077,4.98617575 7.33119551,6.40013369 7.31999632,8.15364169 C7.31999632,8.43438406 7.54760209,8.66198983 7.82834446,8.66198983 C8.10908683,8.66198983 8.3366926,8.43438406 8.3366926,8.15364169 C8.35913865,6.95227783 9.35124436,5.99658142 10.5526559,6.01902746 C11.7540674,6.04147351 12.7097161,7.03357922 12.6872701,8.23499073 C12.66511,9.42038978 11.6979761,10.3697956 10.5123864,10.3699862 C10.2316441,10.3699862 10.0040383,10.597592 10.0040383,10.8783343 L10.0040383,13.1556787 C10.0040383,13.4364211 10.2316441,13.6640269 10.5123864,13.6640269 C10.7931288,13.6640269 11.0207346,13.4364211 11.0207346,13.1556787 L11.0207346,11.3460318 C12.7674277,11.106369 13.9891408,9.49606775 13.749478,7.74937458 Z" id="Path"></path>
                <circle id="Oval" cx="10.4699248" cy="15.487923" r="1"></circle>
            </g>
        </g>
    </g>
</svg>