<?xml version="1.0" encoding="UTF-8"?>
<svg width="22px" height="23px" viewBox="0 0 22 23" version="1.1" xmlns="http://www.w3.org/2000/svg" xmlns:xlink="http://www.w3.org/1999/xlink">
    <title>diagramm-nach-oben</title>
    <g id="Symbols" stroke="none" stroke-width="1" fill="none" fill-rule="evenodd">
        <g id="Navi-/-Eltern-Dashboard" transform="translate(-148.000000, -11.000000)" fill="#2B4B51" fill-rule="nonzero" stroke="#FFFFFF" stroke-width="0.5">
            <g id="diagramm-nach-oben" transform="translate(149.000000, 12.000000)">
                <path d="M1.14082164,20.9956895 C0.530495324,20.9956895 0.0355584817,20.5007526 0.0355584817,19.8904263 L0.0355584817,18.7857158 C0.0355584817,18.1753895 0.530495324,17.6804526 1.14082164,17.6804526 C1.75114796,17.6804526 2.2460848,18.1753895 2.2460848,18.7857158 L2.2460848,19.8904263 C2.2460848,20.5007526 1.75114796,20.9956895 1.14082164,20.9956895 Z" id="Path"></path>
                <path d="M5.56187427,20.9956895 C4.95154796,20.9956895 4.45661111,20.5007526 4.45661111,19.8904263 L4.45661111,16.5751895 C4.45661111,15.9648632 4.95154796,15.4699263 5.56187427,15.4699263 C6.17220059,15.4699263 6.66713743,15.9648632 6.66713743,16.5751895 L6.66713743,19.8904263 C6.66713743,20.5007526 6.17220059,20.9956895 5.56187427,20.9956895 Z" id="Path"></path>
                <path d="M9.9829269,21 C9.37260059,21 8.87766374,20.5050632 8.87766374,19.8947368 L8.87766374,14.4029053 C8.87766374,13.7925789 9.37260059,13.2976421 9.9829269,13.2976421 C10.5932532,13.2976421 11.0881901,13.7925789 11.0881901,14.4029053 L11.0881901,19.8947368 C11.0881901,20.5050632 10.5932532,21 9.9829269,21 Z" id="Path"></path>
                <path d="M14.4039795,21 C13.7936532,21 13.2987164,20.5050632 13.2987164,19.8947368 L13.2987164,12.1233 C13.2987164,11.5129737 13.7936532,11.0180368 14.4039795,11.0180368 C15.0143059,11.0180368 15.5092427,11.5129737 15.5092427,12.1233 L15.5092427,19.8947368 C15.5092427,20.5050632 15.0143059,21 14.4039795,21 Z" id="Path"></path>
                <path d="M18.7904374,21 C18.1801111,21 17.6851743,20.5050632 17.6851743,19.8947368 L17.6851743,9.94736842 C17.6851743,9.33704211 18.1801111,8.84210526 18.7904374,8.84210526 C19.4007637,8.84210526 19.8957006,9.33704211 19.8957006,9.94736842 L19.8957006,19.8947368 C19.8957006,20.5050632 19.4007637,21 18.7904374,21 Z" id="Path"></path>
                <path d="M19.8957006,1.11631579 L19.8957006,4.78578947 C19.8957006,5.39368421 19.3983322,5.89105263 18.7904374,5.89105263 C18.1825427,5.89105263 17.6851743,5.39368421 17.6851743,4.78578947 L17.6851743,3.85736842 C10.7109637,12.6110526 1.66991111,14.1252632 1.28306901,14.1805263 C1.21675322,14.1915789 1.16149006,14.2026316 1.1062269,14.2026316 C0.575700587,14.2026316 0.100437429,13.8157895 0.0120163764,13.2631579 C-0.0764046762,12.6663158 0.332542692,12.1026316 0.929384797,12.0031579 C1.02885848,11.9921053 9.70517427,10.5 16.1820164,2.21052632 L15.1209637,2.21052632 C14.513069,2.21052632 14.0157006,1.71315789 14.0157006,1.10526316 C14.0157006,0.497368421 14.513069,0 15.1209637,0 L18.7793848,0 C18.9341216,0 19.0888585,0.0331578947 19.2214901,0.0994736842 C19.4757006,0.21 19.6857006,0.42 19.7962269,0.674210526 C19.8625427,0.806842105 19.8957006,0.961578947 19.8957006,1.11631579 L19.8957006,1.11631579 Z" id="Path"></path>
            </g>
        </g>
    </g>
</svg>