<?xml version="1.0" encoding="UTF-8"?>
<svg width="30px" height="30px" viewBox="0 0 30 30" version="1.1" xmlns="http://www.w3.org/2000/svg" xmlns:xlink="http://www.w3.org/1999/xlink">
    <title>PW anzeigen</title>
    <defs>
        <circle id="path-1" cx="15" cy="15" r="15"></circle>
    </defs>
    <g id="Icons" stroke="none" stroke-width="1" fill="none" fill-rule="evenodd">
        <g transform="translate(-278.000000, -1388.000000)" id="PW-anzeigen">
            <g transform="translate(278.000000, 1388.000000)">
                <g id="Group-Copy-7">
                    <mask id="mask-2" fill="white">
                        <use xlink:href="#path-1"></use>
                    </mask>
                    <use id="Oval" fill="#FFFFFF" xlink:href="#path-1"></use>
                </g>
                <g id="aussicht" transform="translate(6.000000, 9.000000)" fill-rule="nonzero">
                    <path d="M9.32068966,3 C7.66551724,3 6.32068966,4.34482759 6.32068966,6 C6.32068966,7.65517241 7.66551724,9 9.32068966,9 C10.9758621,9 12.3206897,7.65517241 12.3206897,6 C12.3206897,4.34482759 10.9758621,3 9.32068966,3 Z M9.09310345,5.11034483 C8.72068966,5.11034483 8.41034483,5.42068966 8.41034483,5.79310345 L7.41724138,5.79310345 C7.43793103,4.86206897 8.18275862,4.11724138 9.09310345,4.11724138 L9.09310345,5.11034483 Z" id="Shape" fill="#F4CC54"></path>
                    <path d="M18.4241379,5.37931034 C17.4103448,4.11724138 13.7896552,0 9.32068966,0 C4.85172414,0 1.23103448,4.11724138 0.217241379,5.37931034 C-0.0724137931,5.73103448 -0.0724137931,6.24827586 0.217241379,6.62068966 C1.23103448,7.88275862 4.85172414,12 9.32068966,12 C13.7896552,12 17.4103448,7.88275862 18.4241379,6.62068966 C18.7137931,6.26896552 18.7137931,5.75172414 18.4241379,5.37931034 Z M9.32068966,10.3448276 C6.92068966,10.3448276 4.97586207,8.4 4.97586207,6 C4.97586207,3.6 6.92068966,1.65517241 9.32068966,1.65517241 C11.7206897,1.65517241 13.6655172,3.6 13.6655172,6 C13.6655172,8.4 11.7206897,10.3448276 9.32068966,10.3448276 Z" id="Shape" fill="#405B73"></path>
                </g>
            </g>
        </g>
    </g>
</svg>