<?xml version="1.0" encoding="UTF-8"?>
<svg width="auto" height="auto" viewBox="0 0 28 28" version="1.1" xmlns="http://www.w3.org/2000/svg" xmlns:xlink="http://www.w3.org/1999/xlink">
    <title>Group 11</title>
    <g id="Dashboard-*-Desktop-*" stroke="none" stroke-width="1" fill="none" fill-rule="evenodd">
        <g id="Desktop-Dashboard" transform="translate(-672.000000, -189.000000)">
            <g id="Anstehender-Termin-mit-Countdown-Copy" transform="translate(353.000000, 120.000000)">
                <g id="Group-25" transform="translate(0.000000, 40.000000)">
                    <g id="Group-11" transform="translate(319.000000, 29.000000)">
                        <circle id="Oval" fill="#FFFFFF" cx="14" cy="14" r="14"></circle>
                        <g id="stoppuhr" transform="translate(6.086957, 3.043478)" fill-rule="nonzero">
                            <path d="M2.74675161,8.05695482 L1.0349544,6.34515761 C0.798126613,6.10832982 0.798126613,5.72461141 1.0349544,5.48778363 C1.27178218,5.25095584 1.65550059,5.25095584 1.89232838,5.48778363 L3.60412559,7.19958084 C3.84095338,7.43640863 3.84095338,7.82012704 3.60412559,8.05695482 C3.36729781,8.29378261 2.98361982,8.29382303 2.74675161,8.05695482 L2.74675161,8.05695482 Z" id="Path" fill="#405B73"></path>
                            <path d="M13.0364116,8.05695482 C12.7995838,7.82012704 12.7995838,7.43640863 13.0364116,7.19958084 L14.7482088,5.48778363 C14.9850366,5.25095584 15.3687146,5.25095584 15.6055828,5.48778363 C15.8424106,5.72461141 15.8424106,6.10832982 15.6055828,6.34515761 L13.8937856,8.05695482 C13.6569578,8.29378261 13.2732394,8.29382303 13.0364116,8.05695482 Z" id="Path" fill="#405B73"></path>
                            <path d="M8.92658653,1.8189538 L8.92658653,5.49728261 C8.92658653,5.83678023 8.65984706,6.10360054 8.3202686,6.10360054 C7.98069013,6.10360054 7.71395066,5.83678023 7.71395066,5.49728261 L7.71395066,1.8189538 C7.71395066,1.47937534 7.98069013,1.21263587 8.3202686,1.21263587 C8.65984706,1.21263587 8.92658653,1.47937534 8.92658653,1.8189538 Z" id="Path" fill="#405B73"></path>
                            <path d="M8.3202686,4.89096467 C3.97899176,4.89096467 0.438135445,8.43182099 0.438135445,12.7730978 C0.438135445,17.1142938 3.97899176,20.6956522 8.3202686,20.6956522 C12.6615454,20.6956522 16.2024017,17.1142938 16.2024017,12.7730978 C16.2024017,8.43182099 12.6615454,4.89096467 8.3202686,4.89096467 Z" id="Path" fill="#F4CC54"></path>
                            <path d="M8.3202686,7.31623641 C5.31297206,7.31623641 2.86340718,9.76572045 2.86340718,12.7730978 C2.86340718,15.7803944 5.31297206,18.2703804 8.3202686,18.2703804 C11.3275651,18.2703804 13.77713,15.7803944 13.77713,12.7730978 C13.77713,9.76572045 11.3275651,7.31623641 8.3202686,7.31623641 Z" id="Path" fill="#F3F5F9"></path>
                            <path d="M0.177620839,7.20257201 C-0.0592069463,6.96574423 -0.0592069463,6.58202582 0.177620839,6.34519803 L1.8923688,4.63045007 C2.12919659,4.39362228 2.512915,4.39362228 2.74974278,4.63045007 C2.98657057,4.86727785 2.98657057,5.25099626 2.74974278,5.48782405 L1.03499482,7.20257201 C0.798126613,7.4393998 0.414448624,7.4393998 0.177620839,7.20257201 L0.177620839,7.20257201 Z" id="Path" fill="#F4CC54"></path>
                            <path d="M10.4631174,10.630249 C10.2262897,10.3934212 9.84257125,10.3934212 9.60574346,10.630249 L7.89160182,12.3443906 C7.65477403,12.5812184 7.65477403,12.9649368 7.89160182,13.2017646 C8.1284296,13.4385924 8.51214801,13.4385924 8.7489758,13.2017646 L10.4631174,11.487623 C10.6999452,11.2507952 10.6999452,10.8671172 10.4631174,10.630249 Z" id="Path" fill="#405B73"></path>
                            <path d="M10.7455403,0 L5.89499686,0 C5.55541839,0 5.28867892,0.26673947 5.28867892,0.606317935 L5.28867892,1.8189538 C5.28867892,2.15845143 5.55541839,2.42527174 5.89499686,2.42527174 L10.7455403,2.42527174 C11.0851188,2.42527174 11.3518583,2.15845143 11.3518583,1.8189538 L11.3518583,0.606317935 C11.3518583,0.26673947 11.0851188,0 10.7455403,0 Z" id="Path" fill="#F4CC54"></path>
                            <path d="M15.6055424,7.20257201 L13.8907944,5.48782405 C13.6539666,5.25099626 13.6539666,4.86727785 13.8907944,4.63045007 C14.1276222,4.39362228 14.5113406,4.39362228 14.7481684,4.63045007 L16.4629164,6.34519803 C16.6997441,6.58202582 16.6997441,6.96574423 16.4629164,7.20257201 C16.2260886,7.4393998 15.8424106,7.4393998 15.6055424,7.20257201 L15.6055424,7.20257201 Z" id="Path" fill="#F4CC54"></path>
                        </g>
                    </g>
                </g>
            </g>
        </g>
    </g>
</svg>