<?xml version="1.0" encoding="UTF-8"?>
<svg width="22px" height="16px" viewBox="0 0 22 16" version="1.1" xmlns="http://www.w3.org/2000/svg" xmlns:xlink="http://www.w3.org/1999/xlink">
    <title>Combined Shape Copy</title>
    <g id="Symbols" stroke="none" stroke-width="1" fill="none" fill-rule="evenodd">
        <g id="Profil-/-Schüler_innen" transform="translate(-304.000000, -129.000000)" fill="#FFFFFF" fill-rule="nonzero">
            <path d="M325.11132,135.737359 L304.88868,135.737359 C304.397891,135.737359 304,136.185043 304,136.737359 C304,137.289675 304.397891,137.737359 304.88868,137.737359 L325.11132,137.737359 C325.602152,137.737359 326,137.289675 326,136.737359 C326,136.185092 325.602152,135.737359 325.11132,135.737359 Z M325.11132,129 L304.88868,129 C304.397891,129 304,129.447732 304,130 C304,130.552268 304.397891,131 304.88868,131 L325.11132,131 C325.602152,131 326,130.552268 326,130 C326,129.447732 325.602152,129 325.11132,129 Z M325.11132,142.474719 L304.88868,142.474719 C304.397891,142.474719 304,142.922403 304,143.474719 C304,144.027035 304.397891,144.474719 304.88868,144.474719 L325.11132,144.474719 C325.602152,144.474719 326,144.027035 326,143.474719 C326,142.922403 325.602152,142.474719 325.11132,142.474719 Z" id="Combined-Shape-Copy"></path>
        </g>
    </g>
</svg>