<?xml version="1.0" encoding="UTF-8"?>
<svg width="18px" height="20px" viewBox="0 0 18 20" version="1.1" xmlns="http://www.w3.org/2000/svg" xmlns:xlink="http://www.w3.org/1999/xlink">
    <title>001-profil</title>
    <g id="Symbols" stroke="none" stroke-width="1" fill="none" fill-rule="evenodd">
        <g id="Navi-/-Eltern-Dashboard" transform="translate(-85.000000, -13.000000)" fill="#2B4B51" fill-rule="nonzero">
            <g id="001-profil" transform="translate(85.000000, 13.000000)">
                <path d="M12.0893469,9.63933089 C13.238023,8.66212026 13.9004327,7.23037094 13.9016092,5.7222609 L13.9016092,5.02319118 C13.8257431,2.2271887 11.5373027,0 8.7402711,0 C5.94323954,0 3.65479909,2.2271887 3.578933,5.02319118 L3.578933,5.71846161 C3.58010948,7.22657164 4.24251921,8.65832097 5.39119526,9.6355316 C2.20732173,10.521846 0.00336239266,13.4200758 0,16.7250104 L0,19.2401416 C0,19.6597998 0.340200188,20 0.759858387,20 L16.7168845,20 C17.1365427,20 17.4767429,19.6597998 17.4767429,19.2401416 L17.4767429,16.7250104 C17.4721541,13.4225566 15.2703577,10.526682 12.0893469,9.63933089 Z M5.09485049,5.02319118 C5.15834264,3.05775253 6.77000789,1.49731031 8.73647181,1.49731031 C10.7029357,1.49731031 12.314601,3.05775253 12.3780931,5.02319118 L12.3780931,5.71846161 C12.314601,7.68390026 10.7029357,9.24434248 8.73647181,9.24434248 C6.77000789,9.24434248 5.15834264,7.68390026 5.09485049,5.71846161 L5.09485049,5.02319118 Z M15.9570261,18.4802832 L1.51971677,18.4802832 L1.51971677,16.7250104 C1.52181246,13.4987073 4.13672468,10.883795 7.36302777,10.8816994 L10.1175144,10.8816994 C13.3423337,10.8858895 15.9549335,13.500189 15.9570261,16.7250104 L15.9570261,18.4802832 Z" id="Shape"></path>
            </g>
        </g>
    </g>
</svg>