<?xml version="1.0" encoding="UTF-8"?>
<svg width="27px" height="20px" viewBox="0 0 27 20" version="1.1" xmlns="http://www.w3.org/2000/svg" xmlns:xlink="http://www.w3.org/1999/xlink">
    <title>Group Copy 2</title>
    <g id="Symbols" stroke="none" stroke-width="1" fill="none" fill-rule="evenodd">
        <g id="Navi-/-Helfer:innen" transform="translate(-104.000000, -12.000000)">
            <g id="Group-2" transform="translate(105.000000, 13.000000)">
                <path d="M21.9014857,6.50654835 C22.676842,5.84693118 23.1239686,4.88050038 23.1247627,3.86252611 L23.1247627,3.39065405 C23.0735531,1.50335237 21.5288558,0 19.6408595,0 C17.7528632,0 16.2081659,1.50335237 16.1569562,3.39065405 L16.1569562,3.85996159 C16.1577504,4.87793586 16.6048769,5.84436666 17.3802333,6.50398383 C15.2311186,7.10224602 13.7434461,9.05855116 13.7411765,11.289382 L13.7411765,12.9870956 C13.7411765,13.2703649 13.9708116,13.5 14.2540809,13.5 L25.0250735,13.5 C25.3083428,13.5 25.5379779,13.2703649 25.5379779,12.9870956 L25.5379779,11.289382 C25.5348805,9.06022571 24.0486679,7.10551037 21.9014857,6.50654835 Z M17.1802005,3.39065405 C17.2230578,2.06398296 18.3109318,1.01068446 19.6382949,1.01068446 C20.9656581,1.01068446 22.0535321,2.06398296 22.0963893,3.39065405 L22.0963893,3.85996159 C22.0535321,5.18663268 20.9656581,6.23993118 19.6382949,6.23993118 C18.3109318,6.23993118 17.2230578,5.18663268 17.1802005,3.85996159 L17.1802005,3.39065405 Z M24.5121691,12.4741912 L14.7669853,12.4741912 L14.7669853,11.289382 C14.7683999,9.1116274 16.5334656,7.34656165 18.7112202,7.34514706 L20.5704987,7.34514706 C22.7472517,7.34797539 24.5107566,9.11262759 24.5121691,11.289382 L24.5121691,12.4741912 Z" id="Shape-Copy-2" stroke="#2B4B51" stroke-width="0.3" fill="#2B4B51" fill-rule="nonzero"></path>
                <path d="M8.16030919,6.50654835 C8.93566552,5.84693118 9.38279209,4.88050038 9.38358621,3.86252611 L9.38358621,3.39065405 C9.3323766,1.50335237 7.7876793,0 5.89968299,0 C4.01168669,0 2.46698939,1.50335237 2.41577978,3.39065405 L2.41577978,3.85996159 C2.4165739,4.87793586 2.86370047,5.84436666 3.6390568,6.50398383 C1.48994217,7.10224602 0.00226961504,9.05855116 0,11.289382 L0,12.9870956 C0,13.2703649 0.229635127,13.5 0.512904412,13.5 L11.2838971,13.5 C11.5671663,13.5 11.7968015,13.2703649 11.7968015,12.9870956 L11.7968015,11.289382 C11.793704,9.06022571 10.3074915,7.10551037 8.16030919,6.50654835 Z M3.43902408,3.39065405 C3.48188128,2.06398296 4.56975533,1.01068446 5.89711847,1.01068446 C7.22448162,1.01068446 8.31235566,2.06398296 8.35521286,3.39065405 L8.35521286,3.85996159 C8.31235566,5.18663268 7.22448162,6.23993118 5.89711847,6.23993118 C4.56975533,6.23993118 3.48188128,5.18663268 3.43902408,3.85996159 L3.43902408,3.39065405 Z M10.7709926,12.4741912 L1.02580882,12.4741912 L1.02580882,11.289382 C1.02722341,9.1116274 2.79228916,7.34656165 4.97004375,7.34514706 L6.82932224,7.34514706 C9.00607525,7.34797539 10.7695801,9.11262759 10.7709926,11.289382 L10.7709926,12.4741912 Z" id="Shape-Copy-3" stroke="#2B4B51" stroke-width="0.3" fill="#2B4B51" fill-rule="nonzero"></path>
                <polygon id="Path-3" fill="#FFFFFF" points="13 9.2 8.5 10.1 6.7 12.8 5.8 14.6 6.7 17.3 20.2 16.4 19.3 12.8 16.6 10.1"></polygon>
                <path d="M15.7804123,8.8753978 C16.8142207,7.99590824 17.4103894,6.70733384 17.4114483,5.35003481 L17.4114483,4.72087206 C17.3431688,2.20446983 15.2835724,0.2 12.766244,0.2 C10.2489156,0.2 8.18931918,2.20446983 8.1210397,4.72087206 L8.1210397,5.34661545 C8.12209853,6.70391448 8.71826729,7.99248888 9.75207573,8.87197844 C6.88658956,9.66966136 4.90302615,12.2780682 4.9,15.2525093 L4.9,17.5161275 C4.9,17.8938198 5.20618017,18.2 5.58387255,18.2 L19.9451961,18.2 C20.3228885,18.2 20.6290686,17.8938198 20.6290686,17.5161275 L20.6290686,15.2525093 C20.6249387,12.2803009 18.643322,9.67401383 15.7804123,8.8753978 Z M9.48536544,4.72087206 C9.54250838,2.95197728 10.9930071,1.54757928 12.7628246,1.54757928 C14.5326422,1.54757928 15.9831409,2.95197728 16.0402838,4.72087206 L16.0402838,5.34661545 C15.9831409,7.11551023 14.5326422,8.51990824 12.7628246,8.51990824 C10.9930071,8.51990824 9.54250838,7.11551023 9.48536544,5.34661545 L9.48536544,4.72087206 Z M19.2613235,16.8322549 L6.2677451,16.8322549 L6.2677451,15.2525093 C6.26963121,12.3488365 8.62305221,9.99541553 11.526725,9.99352942 L14.005763,9.99352942 C16.9081003,9.99730053 19.2594401,12.3501701 19.2613235,15.2525093 L19.2613235,16.8322549 Z" id="Shape" fill="#2B4B51" fill-rule="nonzero"></path>
            </g>
        </g>
    </g>
</svg>