<?xml version="1.0" encoding="UTF-8"?>
<svg width="96px" height="96px" viewBox="0 0 96 96" version="1.1" xmlns="http://www.w3.org/2000/svg" xmlns:xlink="http://www.w3.org/1999/xlink">
    <title>Group 19</title>
    <g id="Onboarding" stroke="none" stroke-width="1" fill="none" fill-rule="evenodd">
        <g id="Onboarding-Helfer:innen-allgemein" transform="translate(-224.000000, -1066.000000)">
            <g id="Group-7" transform="translate(111.763846, 1014.527693)">
                <g id="Group-45" transform="translate(17.250785, 29.527693)">
                    <g id="Group-19" transform="translate(95.000000, 22.000000)">
                        <g id="Group-15">
                            <circle id="Oval-Copy-3" fill="#FFFFFF" cx="47.5" cy="47.5" r="47.5"></circle>
                            <path d="M42.9658893,20.7990653 L15.7505556,67.9339898 C14.75,69.6664004 14.7498024,71.8010329 15.7500374,73.5336286 C16.7502725,75.2662243 18.5989437,76.3333333 20.5995331,76.3333333 L75.0258182,76.3333333 C77.0264076,76.3333333 78.8750788,75.2662243 79.8753139,73.5336286 C80.8755489,71.8010329 80.8753514,69.6664004 79.8747957,67.9339898 L52.6623836,20.7990653 C51.6623194,19.0669918 49.8141882,18 47.8141364,18 C45.8140846,18 43.9659535,19.0669918 42.9658893,20.7990653 L42.9658893,20.7990653 Z" id="Path" fill="#405B73" fill-rule="nonzero"></path>
                        </g>
                        <g id="Group" transform="translate(44.294446, 35.336503)" fill="#F4CC54" fill-rule="nonzero">
                            <rect id="Rectangle" x="0" y="0" width="7.03938022" height="21.4563055" rx="3.51969011"></rect>
                            <circle id="Oval" cx="3.51969011" cy="29.9337994" r="3.51969011"></circle>
                        </g>
                    </g>
                </g>
            </g>
        </g>
    </g>
</svg>