<?xml version="1.0" encoding="UTF-8"?><svg version="1.1" width="30px" height="30px" viewBox="0 0 30.0 30.0" xmlns="http://www.w3.org/2000/svg" xmlns:xlink="http://www.w3.org/1999/xlink"><defs><clipPath id="i0"><path d="M2655,0 L2655,1581 L0,1581 L0,0 L2655,0 Z"></path></clipPath><clipPath id="i1"><path d="M15,0 C23.2842712,0 30,6.71572875 30,15 C30,23.2842712 23.2842712,30 15,30 C6.71572875,30 0,23.2842712 0,15 C0,6.71572875 6.71572875,0 15,0 Z"></path></clipPath><clipPath id="i2"><path d="M1.81887914,0 L1.81887914,3.39742917 C1.81887914,3.47934211 1.88528958,3.54575256 1.96720253,3.54579293 L3.78608166,3.54579293 C4.17582418,3.54579293 4.49180871,3.86173709 4.49180871,4.25151997 L4.49180871,4.41938297 C4.49180871,4.88700132 4.11272416,5.26608586 3.64510581,5.26608586 L1.82622668,5.26608586 C1.04593423,5.26608586 0,4.63351124 0,3.85321879 L0,0 L1.81887914,0 Z"></path></clipPath><clipPath id="i3"><path d="M1.81887914,0 L1.81887914,3.39742917 C1.81887914,3.47934211 1.88528958,3.54575256 1.96720253,3.54579293 L3.78608166,3.54579293 C4.17582418,3.54579293 4.49180871,3.86173709 4.49180871,4.25151997 L4.49180871,4.41938297 C4.49180871,4.88700132 4.11272416,5.26608586 3.64510581,5.26608586 L1.41286707,5.26608586 C0.632574626,5.26608586 0,4.63351124 0,3.85321879 L0,0 L1.81887914,0 Z"></path></clipPath><clipPath id="i4"><path d="M10.8734466,0 C14.0887618,0 16.4903976,2.69598146 16.4903976,5.28477768 C16.4903976,7.17361991 15.0522582,8.48333885 13.1421404,9.05354014 C12.7054867,9.18389839 12.4253113,9.61381014 12.4798123,10.066249 C12.4978582,10.2159046 12.5073857,10.3672154 12.5092832,10.5198182 C10.6428065,12.155897 5.87021689,15.6421022 3.2922805,16.8224318 C2.23411383,16.7458075 1.35236883,16.6094743 0.523752185,16.411333 C-0.0370426411,16.2772202 -0.18908017,15.5482394 0.272442143,15.2025014 C1.08095398,14.5968543 1.63480498,13.6879799 1.80206241,12.3855681 C1.97711146,10.9028591 2.68324222,9.33734891 3.80010845,8.22044231 C4.36853341,7.65201734 5.00429736,7.20559382 5.66638325,6.88520884 C5.8928247,6.7756417 6.00029254,6.50975769 5.90566271,6.27669538 C5.70413022,5.78045393 5.59419974,5.24533512 5.59419974,4.68740664 C5.59419974,2.09861043 7.95780601,0 10.8734466,0 Z"></path></clipPath><clipPath id="i5"><path d="M5.15227976,0 C6.17169018,0.00177632801 7.09590556,0.365519859 7.75528659,1.02494126 C9.31159216,2.58124682 9.12406844,5.5109769 6.96401321,7.67103213 C5.16326069,9.4717039 1.86308548,10.9480747 0,9.38078821 C0.661480327,8.78208492 1.11226393,7.93849061 1.26018361,6.78654189 C1.43523266,5.30383283 2.14132304,3.73832266 3.25822965,2.62141606 C3.82665461,2.05299109 4.46241855,1.60660794 5.12450444,1.28618259 C5.35094589,1.17661545 5.45841374,0.910731443 5.3637839,0.677669135 C5.27492713,0.458857821 5.20395475,0.232497113 5.15227976,0 Z"></path></clipPath><clipPath id="i6"><path d="M6.14601416,0 C7.34737709,0.344365407 8.51612018,0.818241274 9.36916133,0.72005878 C9.38446197,1.94487731 8.87820849,3.25487885 7.8063964,4.5075938 C6.35311786,6.20620746 4.28963028,7.1177867 2.45407788,7.09671299 C1.59086321,7.09671299 0.834874163,7.07212699 0.152158642,7.02271278 C0.0510694302,6.61859815 0.00351228492,6.20705525 0,5.79539124 C0.748681884,4.67594125 3.86722756,1.21900509 6.14601416,0 Z"></path></clipPath><clipPath id="i7"><path d="M2.28666378,0.742341537 C3.32569455,-0.288937984 4.75777827,-0.0639095224 6.14622083,0.334109064 C6.00653686,1.50789854 5.42224605,2.7481792 4.36597683,3.80444842 C3.25254214,4.91784274 1.56595906,5.9068941 0.000206668082,6.1295003 C-0.0178392096,4.00230714 1.14900644,1.87152095 2.28666378,0.742341537 Z"></path></clipPath><clipPath id="i8"><path d="M7.10094669,1.50713488 L6.88669731,6.29030175 C3.03509337,6.23644671 0.946898684,3.94026016 0.0949071779,2.33910232 C-0.0848652906,2.00123666 -0.00355791317,1.58363809 0.290626227,1.3388278 C2.63659033,-0.613558538 4.97359205,-0.321110355 7.10094669,1.50713488 Z"></path></clipPath><clipPath id="i9"><path d="M0.302783183,0 C0.470000242,0 0.605566366,0.135566124 0.605566366,0.302783183 L0.605566366,0.801850611 C0.605566366,0.96906767 0.470000242,1.10463379 0.302783183,1.10463379 C0.135566124,1.10463379 0,0.96906767 0,0.801850611 L0,0.302783183 C0,0.135566124 0.135566124,0 0.302783183,0 Z"></path></clipPath><clipPath id="i10"><path d="M0.252053616,0 C1.03501056,0.181346941 1.96721942,0.508675747 2.94771211,0.880695352 C3.24593336,1.79397017 3.19417762,2.72238416 2.84847997,3.72532317 C2.03940293,3.89391285 1.2842213,3.99080347 0.761738641,3.97231351 C0.478979519,3.96230148 0.234249965,3.76747059 0.169292879,3.49209938 C-0.109267649,2.31152756 -0.0175445303,1.08622458 0.252053616,0 Z"></path></clipPath><clipPath id="i11"><path d="M0.24651397,0 C1.5111384,0.479850788 2.8561013,1.03406513 4.06485213,1.44556766 C3.33155164,1.97358116 1.64674489,2.53227669 0.147281828,2.84462782 C-0.0972458702,1.85246788 -0.0187644691,0.870965919 0.24651397,0 Z"></path></clipPath><clipPath id="i12"><path d="M1.74999758,0.000142466128 L1.84576628,0.00537211137 C2.94684742,0.149496906 3.87409064,0.572141859 4.6338342,1.13713528 C4.53855843,2.40785574 3.88188226,3.47215881 2.61120217,4.24841415 C1.58270825,3.83311674 0.649247887,3.39585745 0,3.05940478 C0.292811524,1.87980187 0.795431607,0.864267074 1.26167734,0.248486822 C1.39813163,0.0683106423 1.62162599,-0.0239776718 1.84576628,0.00537211137 Z"></path></clipPath><clipPath id="i13"><path d="M2.02259166,0 C3.4153943,1.03576071 4.24465689,2.55044368 4.54574448,3.70812509 C4.63766946,4.06153362 4.33197956,4.39209211 3.97190979,4.33129325 C2.74943279,4.1249566 1.29885911,3.63569935 0,3.11127888 C0.348321774,1.69421321 1.20330074,0.52506641 2.02259166,0 Z"></path></clipPath><clipPath id="i14"><path d="M6.82394349,0.684003975 C7.98594461,1.84600509 7.63168828,4.08425912 6.03267011,5.6832773 C4.43365193,7.28229547 1.70121538,8.3933079 0.539214263,7.23130678 C-0.622786852,6.06930567 0.225611627,3.07429554 1.82467017,1.47527736 C3.42368835,-0.123740815 5.66194238,-0.477997139 6.82394349,0.684003975 Z"></path></clipPath></defs><g transform="translate(-293.0 -657.0)"><g clip-path="url(#i0)"><g transform="translate(293.0 657.0000000000019)"><g clip-path="url(#i1)"><polygon points="0,0 30,0 30,30 0,30 0,0" stroke="none" fill="#FFFFFF"></polygon><g transform="translate(5.000000000000101 5.0)"><g transform="translate(6.990441997713361 14.73391413876351)"><g clip-path="url(#i2)"><polygon points="0,0 4.49180871,0 4.49180871,5.26608586 0,5.26608586 0,0" stroke="none" fill="#F3CC53"></polygon></g></g><g transform="translate(3.171562860685783 14.73391413876351)"><g clip-path="url(#i3)"><polygon points="0,0 4.49180871,0 4.49180871,5.26608586 0,5.26608586 0,0" stroke="none" fill="#F3CC53"></polygon></g></g><g clip-path="url(#i4)"><polygon points="0,0 16.4903976,0 16.4903976,16.8224318 0,16.8224318 0,0" stroke="none" fill="#3F5B73"></polygon></g><g transform="translate(0.5418788048446004 5.599066620374288)"><g clip-path="url(#i5)"><polygon points="0,0 8.77751877,0 8.77751877,10.0430487 0,10.0430487 0,0" stroke="none" fill="#3F5B73"></polygon></g></g><g transform="translate(3.140162226052248 9.799719017206158)"><g clip-path="url(#i6)"><polygon points="0,0 9.36949784,0 9.36949784,7.09707032 0,7.09707032 0,0" stroke="none" fill="#3F5B73"></polygon></g></g><g transform="translate(3.139955557970779 9.46560995280197)"><g clip-path="url(#i7)"><polygon points="4.4408921e-16,-2.77555756e-16 6.14622083,-2.77555756e-16 6.14622083,6.1295003 4.4408921e-16,6.1295003 4.4408921e-16,-2.77555756e-16" stroke="none" fill="#2B4A51" opacity="10%"></polygon></g></g><g transform="translate(7.386721810586096 1.755777817856142)"><g clip-path="url(#i8)"><polygon points="2.22044605e-16,-2.22044605e-16 7.10094669,-2.22044605e-16 7.10094669,6.29030175 2.22044605e-16,6.29030175 2.22044605e-16,-2.22044605e-16" stroke="none" fill="#EDF3F3"></polygon></g></g><g transform="translate(10.80848949026489 3.043092102607166)"><g clip-path="url(#i9)"><polygon points="0,0 0.605566366,0 0.605566366,1.10463379 0,1.10463379 0,0" stroke="none" fill="#3F5B73"></polygon></g></g><g transform="translate(13.244464231031213 4.985587520488329)"><g clip-path="url(#i10)"><polygon points="-2.22044605e-16,0 3.14287355,0 3.14287355,3.97455879 -2.22044605e-16,3.97455879 -2.22044605e-16,0" stroke="none" fill="#F3CC53"></polygon></g></g><g transform="translate(15.945702740580602 5.866282872160809)"><g clip-path="url(#i11)"><polygon points="-8.04911693e-16,0 4.06485213,0 4.06485213,2.84462782 -8.04911693e-16,2.84462782 -8.04911693e-16,0" stroke="none" fill="#F3CC53"></polygon></g></g><g transform="translate(13.496517846919229 1.9261423697389555)"><g clip-path="url(#i12)"><polygon points="0,-4.33680869e-18 4.6338342,-4.33680869e-18 4.6338342,4.24841415 0,4.24841415 0,-4.33680869e-18" stroke="none" fill="#F3CC53"></polygon></g></g><g transform="translate(16.107760388360134 3.0632776481415935)"><g clip-path="url(#i13)"><polygon points="0,0 4.56225799,0 4.56225799,4.33856019 0,4.33856019 0,0" stroke="none" fill="#F3CC53"></polygon></g></g><g transform="translate(0.6498131319820004 6.763372307719692)"><g clip-path="url(#i14)"><polygon points="0,8.8817842e-16 7.50794747,8.8817842e-16 7.50794747,7.71231755 0,7.71231755 0,8.8817842e-16" stroke="none" fill="#3F5B73"></polygon></g></g></g></g></g></g></g></svg>