<?xml version="1.0" encoding="UTF-8"?>
<svg width="30px" height="30px" viewBox="0 0 30 30" version="1.1" xmlns="http://www.w3.org/2000/svg" xmlns:xlink="http://www.w3.org/1999/xlink">
    <title>Berufsschule</title>
    <defs>
        <circle id="path-1" cx="15" cy="15" r="15"></circle>
    </defs>
    <g id="Icons" stroke="none" stroke-width="1" fill="none" fill-rule="evenodd">
        <g transform="translate(-293.000000, -828.000000)" id="Berufsschule">
            <g transform="translate(293.000000, 828.000000)">
                <g id="icon_gesamtschule-copy">
                    <mask id="mask-2" fill="white">
                        <use xlink:href="#path-1"></use>
                    </mask>
                    <use id="Oval" fill="#FFFFFF" xlink:href="#path-1"></use>
                </g>
                <g id="parrot" transform="translate(6.001767, 4.000000)" fill-rule="nonzero">
                    <path d="M10.4921125,15.459963 C10.6011377,15.4252329 11.4668701,15.1684686 12.2088681,15.8651813 C12.4890241,16.1282447 12.6626745,16.4437777 12.7700314,16.7166472 C12.8809293,16.9984716 12.663015,17.3018491 12.3601483,17.3018491 L9.13304265,17.3018491 C8.83732621,17.3018491 8.62744755,17.0135894 8.71829055,16.7321736 L8.98618888,15.9020565 C9.48814071,15.7546579 9.9901266,15.6072934 10.4921125,15.459963 Z" id="Path" fill="#F4CC54"></path>
                    <path d="M10.8566081,17.2998742 L7.63464388,17.2998742 C7.33896149,17.2998742 7.13024051,17.0129084 7.22156019,16.7302668 L7.29983908,16.4824234 L7.48680269,15.9041335 C7.99120606,15.7562923 8.4912171,15.6084511 8.99126219,15.4606099 C9.09998097,15.4258117 9.96523671,15.1692858 10.7044086,15.864977 C10.8913722,16.0432581 11.0305309,16.2389043 11.1305331,16.4302261 C11.1870546,16.5302624 11.2305353,16.6259063 11.2653335,16.717226 C11.3870931,17.0346658 11.1957712,17.2998742 10.8566081,17.2998742 L10.8566081,17.2998742 Z" id="Path" fill="#FEDA50"></path>
                    <path d="M5.1130063,13.9606061 C2.31226349,17.531846 -0.214384066,19.9414327 0.178406358,20.48043 C1.15061032,21.8145759 7.06013816,17.6070264 9.38320613,13.6825611 C8.21242781,13.7964213 6.28378462,13.84678 5.1130063,13.9606061 Z" id="Path" fill="#405B73"></path>
                    <path d="M5.12826029,13.3906923 C1.52310748,16.6336648 -0.441253222,17.1475679 0.0841924965,17.7177541 C0.943115105,18.6497801 6.15225294,16.6523577 8.78748307,13.5282847 C7.95310987,13.4968914 7.11873666,13.4655662 6.2843975,13.434173 C5.89902978,13.419668 5.51362801,13.4051972 5.12826029,13.3906923 Z" id="Path" fill="#405B73"></path>
                    <path d="M16.9088017,5.89502587 C16.5072266,6.39108721 15.6096242,6.91074459 14.7555706,6.9801707 C13.5293263,6.55976646 12.4758471,5.56488579 12.6653304,4.7506356 C12.835678,4.01864804 13.6418926,3.67703341 13.8569808,3.59677968 C14.5778343,3.32792799 15.5819423,3.41301669 16.1835899,4.11694779 C16.7165264,4.74052302 16.9272903,5.73135184 16.9088017,5.89502587 Z" id="Path" fill="#F4CC54"></path>
                    <path d="M17.4168143,6.65775977 C16.979726,6.70978679 16.6630012,5.15830548 14.3054415,4.31633933 C14.1089782,4.24616413 15.1537067,2.54990604 16.017941,2.49021797 C18.8694851,3.7533034 17.9625192,6.59279409 17.4168143,6.65775977 L17.4168143,6.65775977 Z" id="Path" fill="#FEDA50"></path>
                    <path d="M11.0995825,0.462083297 C13.431367,-0.791230043 15.3543921,0.790759264 15.8294792,1.82414946 C15.9752775,2.14131683 16.017941,2.49021797 16.017941,2.49021797 C15.3620191,2.97497501 13.7909596,4.8870363 14.7556047,6.98020475 C15.0640895,7.78056291 15.8987351,11.0284385 14.2980528,13.6617959 C11.6441979,17.5016832 6.49583767,15.6192787 5.2681633,15.5579903 C8.41392564,11.3854093 6.67207581,11.4467317 8.11150153,7.0939628 C8.64501689,5.48051212 8.76085193,1.71910799 11.0995825,0.462083297 Z" id="Path" fill="#405B73"></path>
                    <path d="M14.7562175,6.97965997 C14.0137769,5.37104426 14.7714034,3.86661881 15.4595698,3.03953211 C15.3367888,1.20336626 13.0692889,0.655039549 12.1682135,1.83950561 C11.2528715,3.04280082 11.9080443,5.97670966 14.7562175,6.97965997 Z" id="Path" fill="#EDF4F3"></path>
                    <path d="M13.8079199,3.43502375 C13.648571,3.43502375 13.5193837,3.30583646 13.5193837,3.14648752 L13.5193837,2.67090288 C13.5193837,2.51155394 13.648571,2.38236666 13.8079199,2.38236666 C13.9672688,2.38236666 14.0964561,2.51155394 14.0964561,2.67090288 L14.0964561,3.14648752 C14.0964561,3.30583646 13.9672688,3.43502375 13.8079199,3.43502375 Z" id="Path" fill="#405B73"></path>
                    <path d="M8.26887648,6.51274465 C5.94785144,6.23071595 1.52538403,14.7044134 2.10135861,15.8452967 C2.71706849,17.0649014 4.66947796,15.5033415 4.94016831,15.1890002 C4.85589679,15.6653131 4.80982836,16.2975709 5.51076314,16.3907973 C7.53685486,16.6602278 12.0979362,13.415689 12.5679159,8.23215613" id="Path" fill="#405B73"></path>
                    <path d="M2.10292487,15.8444454 C2.71703444,17.0647652 4.66876293,15.5041587 4.93860205,15.1873659 C4.85647562,15.66453 4.80955596,16.2981497 5.50963952,16.3920571 C7.41056675,16.6462677 11.5370113,13.8066749 12.4326729,9.1796064 C10.7899059,11.6045833 8.40977165,12.9633808 7.11883406,12.5847888 C6.54527696,12.4165863 6.36624679,12.0504904 6.44840727,11.5772419 C6.01380455,12.3253347 3.65668747,12.8745126 3.61273008,11.4950814 C2.55274753,13.4507596 1.84874833,15.3477031 2.10292487,15.8444454 Z" id="Path" fill="#405B73"></path>
                    <path d="M2.10292487,15.8444454 C2.71703444,17.0647652 4.66876293,15.5041587 4.93860205,15.1873659 C4.85647562,15.66453 4.80955596,16.2981497 5.50963952,16.3920571 C7.26973967,16.6267235 10.9424799,14.2056282 12.1862595,10.1691754 C10.5787334,13.0830974 8.08324078,14.6948797 6.61259203,14.4993017 C5.91250848,14.4054283 5.64266935,13.8223374 5.72479578,13.3451393 C5.20278903,13.9136571 2.68513044,14.78385 3.12773469,12.4377308 C2.34933821,14.0295943 1.8917183,15.4298636 2.10292487,15.8444454 Z" id="Path" fill="#405B73"></path>
                    <path d="M10.2981688,13.6280873 C8.70739484,15.5239412 6.68511661,16.5481382 5.51273799,16.3912399 C4.81105412,16.2997159 4.85467102,15.6633723 4.94180267,15.1883533 C4.67158901,15.5021498 2.71907739,17.0667741 2.10023499,15.8464543 C1.61643132,14.8876317 4.65418992,8.76859971 7.01198798,6.99041948 C4.96795238,9.46592528 2.95010054,13.8024187 3.3510287,14.5956266 C3.77303325,15.433643 4.82603573,14.9582835 5.53190763,14.4765909 C5.76575685,14.3170028 6.1026046,14.4186734 6.18289238,14.6901809 C6.24990101,14.9168117 6.41350694,15.0950247 6.75924151,15.1404122 C7.639581,15.2580859 9.00372416,14.708976 10.2981688,13.6280873 L10.2981688,13.6280873 Z" id="Path" fill="#82B1B0"></path>
                </g>
            </g>
        </g>
    </g>
</svg>