<?xml version="1.0" encoding="UTF-8"?><svg version="1.1" width="30px" height="30px" viewBox="0 0 30.0 30.0" xmlns="http://www.w3.org/2000/svg" xmlns:xlink="http://www.w3.org/1999/xlink"><defs><clipPath id="i0"><path d="M2655,0 L2655,1581 L0,1581 L0,0 L2655,0 Z"></path></clipPath><clipPath id="i1"><path d="M15,0 C23.2842712,0 30,6.71572875 30,15 C30,23.2842712 23.2842712,30 15,30 C6.71572875,30 0,23.2842712 0,15 C0,6.71572875 6.71572875,0 15,0 Z"></path></clipPath><clipPath id="i2"><path d="M1.29887324,0 L3.2265996,5.45690141 L3.92917505,5.45690141 C4.64732394,5.45690141 5.22945674,6.03903421 5.22945674,6.7571831 L0.505392354,6.7571831 C0.348933602,6.7571831 0.222092555,6.63034205 0.222092555,6.4738833 L0.222092555,6.28100604 C0.222092555,5.82583501 0.591066398,5.45690141 1.04619718,5.45690141 L1.7656338,5.45690141 L0,0.458832998 L1.29887324,0 Z"></path></clipPath><clipPath id="i3"><path d="M1.29887324,0 L3.2265996,5.45690141 L3.92917505,5.45690141 C4.6472837,5.45690141 5.22945674,6.03903421 5.22945674,6.7571831 L0.505392354,6.7571831 C0.348933602,6.7571831 0.222092555,6.63034205 0.222092555,6.4738833 L0.222092555,6.28100604 C0.222092555,5.82583501 0.591066398,5.45690141 1.04619718,5.45690141 L1.7656338,5.45690141 L0,0.458832998 L1.29887324,0 Z"></path></clipPath><clipPath id="i4"><path d="M8.99886429,0 C9.32494075,0 9.58924659,0.264346076 9.58924659,0.590382294 C9.58924659,0.916418511 9.32490051,1.18076459 8.99886429,1.18076459 L4.6362486,1.18076459 C3.32047395,1.18076459 2.03049407,1.41975855 0.802043368,1.8910664 C0.732506144,1.91774648 0.660956849,1.93042254 0.590655038,1.93042254 C0.353270732,1.93042254 0.129447794,1.78623742 0.0393471908,1.55138833 C-0.0774737348,1.24696177 0.0746389413,0.905472837 0.379065501,0.788692153 C1.74300916,0.265311871 3.17532305,0 4.6362486,0 L8.99886429,0 Z"></path></clipPath><clipPath id="i5"><path d="M7.14727762,0.00185602312 C7.47166393,-0.0237777797 7.75653315,0.219119605 7.78208647,0.544190027 C7.80759955,0.86926045 7.56482289,1.1534858 7.23975246,1.17899888 L4.41786112,1.40072926 C3.14220719,1.50097071 1.92663375,2.03936105 0.995164939,2.91674536 C0.881160915,3.02414979 0.735647836,3.07738922 0.590496931,3.07738922 C0.433474798,3.07738922 0.276814838,3.0151357 0.160637776,2.8918359 C-0.0629437128,2.6544516 -0.0517565901,2.28080975 0.185587474,2.0572685 C1.31218707,0.996061255 2.7824084,0.34483389 4.32538627,0.223586405 L7.14727762,0.00185602312 Z"></path></clipPath><clipPath id="i6"><path d="M0,0 C2.53275654,0 5.11199195,0.53054326 6.13255533,1.29843058 L2.8437827,1.84575453 L0,1.29843058 L0,0 Z"></path></clipPath><clipPath id="i7"><path d="M6.13251509,0 C5.11195171,0.767887324 2.5327163,1.298833 0,1.298833 L0,0 L6.13251509,0 Z"></path></clipPath><clipPath id="i8"><path d="M4.49750503,0.00185629387 C4.82189135,-0.0237775089 5.10676056,0.219079634 5.13231388,0.544190298 C5.15782696,0.86926072 4.9150503,1.15348607 4.58997988,1.17899915 L1.76808853,1.40072953 C1.15665996,1.44877782 0.55915493,1.59775167 0,1.83618225 C0.0626156942,1.37614201 0.184305835,0.922781847 0.365432596,0.485518266 C0.369818913,0.474975006 0.37472837,0.464673195 0.37915493,0.454129936 C0.801207243,0.336061525 1.23541247,0.258154081 1.67561368,0.223586676 Z"></path></clipPath><clipPath id="i9"><path d="M3.79480885,0 C4.12084507,0 4.38519115,0.264305835 4.38519115,0.590382294 C4.38519115,0.916458753 4.12084507,1.18080483 3.79480885,1.18076459 L0,1.18076459 C0.296820926,0.740402414 0.652957746,0.344064386 1.05448692,0 Z"></path></clipPath><clipPath id="i10"><path d="M1.29887324,0 L2.29561368,2.82148893 L0.834647887,2.82148893 L0,0.458832998 L1.29887324,0 Z"></path></clipPath><clipPath id="i11"><path d="M1.29887324,0 L2.28084507,2.77975855 C2.06921529,2.80720322 1.85368209,2.82148893 1.63513078,2.82144878 L0.834647887,2.82144878 L0,0.458832998 L1.29887324,0 Z"></path></clipPath><clipPath id="i12"><path d="M7.28024145,0 C8.58704225,0 9.64639839,1.05935614 9.64639839,2.3661167 C9.64639839,3.67287726 8.58704225,4.7322334 7.28028169,4.7322334 C6.47323944,4.7322334 5.75794769,5.15774648 5.85034205,6.0444668 C5.98869215,7.37243461 7.32885312,7.88969819 8.12301811,8.78040241 C8.80317907,9.54325956 9.21577465,10.5235412 9.11734406,11.5569416 C9.10812877,11.6537626 9.09496982,11.7496579 9.07810865,11.8445473 C8.76696177,13.5969014 7.21533199,14.8570624 5.43557344,14.8570624 L0,14.8570624 L4.17126761,8.03380282 C0.622092555,4.48462777 3.48342052,0 7.28024145,0 Z"></path></clipPath><clipPath id="i13"><path d="M0.301810865,0 C0.468531187,0 0.60362173,0.135130785 0.60362173,0.301810865 L0.60362173,0.892193159 C0.60362173,1.05887324 0.468490946,1.19400402 0.301810865,1.19400402 C0.135090543,1.19400402 0,1.05887324 0,0.892193159 L0,0.301810865 C0,0.135130785 0.135090543,0 0.301810865,0 Z"></path></clipPath><clipPath id="i14"><path d="M4.76772636,0.916539235 C5.98949698,2.13830986 5.98949698,4.11935614 4.76744467,5.34140845 C4.64305835,5.46579477 4.5105835,5.57657948 4.37195171,5.67565392 L4.36193159,5.6839839 L0,1.32205231 L0.00832997988,1.31203219 C0.107404427,1.17344064 0.218189135,1.04096579 0.342575453,0.916539235 C1.56462777,-0.305513078 3.5456338,-0.305513078 4.76772636,0.916539235 Z"></path></clipPath><clipPath id="i15"><path d="M0.867203219,0 L3.47275654,1.46362173 L4.93637827,4.06917505 C4.52724346,4.34579477 4.04603622,4.64498994 3.50752515,4.93637827 L0,1.42885312 C0.29138833,0.890301811 0.59054326,0.409134809 0.867203219,0 Z"></path></clipPath><clipPath id="i16"><path d="M0.902255805,0 L2.85561597,0.899114688 L3.75469041,2.85243461 C2.73549524,3.2865996 1.5872055,3.63448692 0.37432824,3.75303823 C0.160847355,3.7738833 -0.0192331282,3.59384306 0.0016521837,3.38036217 C0.120203492,2.16748491 0.468090815,1.01915493 0.902255805,0 Z"></path></clipPath><clipPath id="i17"><path d="M1.09070423,0.361832961 C1.67939638,0.0495593188 2.36973843,-0.0649678442 3.02820926,0.0353540874 C3.06269618,0.0405854757 3.09714286,0.0463802443 3.13150905,0.0527786347 C3.14060362,0.0544687755 3.14969819,0.0559174677 3.15875252,0.0576880914 C2.56929577,0.173020083 2.00651911,0.458935576 1.54981891,0.915635778 C1.4254326,1.04006234 1.31464789,1.17253719 1.21557344,1.31112874 C1.21279678,1.31446878 0.8861167,1.72875449 0.685915493,2.00702411 L0,1.32114886 L0.00832997988,1.31112874 C0.107404427,1.17249694 0.218189135,1.0400221 0.342575453,0.915635778 C0.562253521,0.695957709 0.818672032,0.506138796 1.09070423,0.361832961 Z"></path></clipPath><clipPath id="i18"><path d="M0.867203219,0 L1.75118712,0.496579477 C1.57171026,0.782977867 1.38796781,1.09480885 1.20724346,1.42885312 C1.06945674,1.68390342 0.93360161,1.95219316 0.802816901,2.23167002 L0,1.42885312 C0.29138833,0.890301811 0.59054326,0.409134809 0.867203219,0 Z"></path></clipPath><clipPath id="i19"><path d="M0.816297787,0 C1.61782696,0.566076459 2.41738431,1.24261569 3.17661972,2.00185111 C3.93557344,2.76080483 4.61243461,3.5606841 5.17822938,4.36193159 C4.91855131,4.57094567 4.54173038,4.85927565 4.06917505,5.17822938 C3.54708249,4.43569416 2.91557344,3.68897384 2.20253521,2.97597586 C1.48921529,2.26265594 0.742535211,1.63118712 0,1.10905433 C0.318953722,0.636498994 0.607283702,0.259637827 0.816297787,0 Z"></path></clipPath><clipPath id="i20"><path d="M0.902255091,0 C0.902255091,0 1.9203235,0.46861167 1.9203235,0.46861167 C1.57621887,1.36627767 1.30961928,2.34985915 1.20889493,3.38036217 C1.20000157,3.47126761 1.22776817,3.55589537 1.27879433,3.62173038 C1.06136978,3.66334004 0.841168572,3.69822938 0.61863336,3.72579477 C0.615422093,3.72618109 0.555595936,3.7332169 0.491751107,3.74040048 L0.374287284,3.75303823 C0.194166559,3.77062374 0.0383516701,3.64503018 0.00644020132,3.4771831 C0.00289895384,3.45855131 0.00036374257,3.43955734 4.18109806e-05,3.42 C-0.000159396263,3.40696177 0.00036374257,3.39376258 0.00165146893,3.38036217 C0.0811685715,2.56696177 0.265514648,1.76571429 0.524870785,0.991348089 C0.639317465,0.649577465 0.766560926,0.318511066 0.902255091,0 Z"></path></clipPath><clipPath id="i21"><path d="M0.612555332,0 C1.24764588,0.484828974 1.8771831,1.03645875 2.48056338,1.63983903 C3.08394366,2.24321932 3.63529175,2.87247485 4.12008048,3.50756539 C3.72655936,3.72020121 3.30185111,3.92837022 2.85239437,4.12012072 C2.44828974,3.61026157 1.99657948,3.10402414 1.50647887,2.61392354 C1.01609658,2.12354125 0.509859155,1.67183099 0,1.26772636 C0.191750503,0.818269618 0.399919517,0.393561368 0.612555332,0 Z"></path></clipPath><clipPath id="i22"><path d="M0.612555332,0 C0.898873239,0.218551308 1.18390342,0.45138833 1.4661167,0.695734406 C1.37742455,0.881448692 1.29070423,1.07207243 1.20724346,1.26768612 C1.10080483,1.51758551 0.999597586,1.77537223 0.905633803,2.03987928 C0.606720322,1.76692153 0.304064386,1.50865191 0,1.26768612 C0.191750503,0.818229376 0.399919517,0.393521127 0.612555332,0 Z"></path></clipPath><clipPath id="i23"><path d="M0.816297787,0 C1.07227364,0.180804829 1.32808853,0.372997988 1.58241449,0.575412475 C1.46478873,0.736136821 1.33867203,0.914366197 1.20724346,1.10909457 C1.07923541,1.2983501 0.946358149,1.50370221 0.811710262,1.72237425 C0.541810865,1.50434608 0.270623742,1.29939638 0,1.10909457 C0.119597586,0.931871227 0.234929577,0.768128773 0.34334004,0.618953722 C0.524064386,0.370342052 0.685674044,0.162293763 0.816297787,0 Z"></path></clipPath></defs><g transform="translate(-293.0 -701.0)"><g clip-path="url(#i0)"><g transform="translate(293.0 701.0000000000018)"><g clip-path="url(#i1)"><polygon points="0,0 30,0 30,30 0,30 0,0" stroke="none" fill="#FFFFFF"></polygon><g transform="translate(6.000000000000094 5.0)"><g transform="translate(7.028452988526968 13.24281690140845)"><g clip-path="url(#i2)"><polygon points="0,0 5.22945674,0 5.22945674,6.7571831 0,6.7571831 0,0" stroke="none" fill="#F3CC53"></polygon></g></g><g transform="translate(2.987205503617508 13.24281690140845)"><g clip-path="url(#i3)"><polygon points="0,0 5.22945674,0 5.22945674,6.7571831 0,6.7571831 0,0" stroke="none" fill="#F3CC53"></polygon></g></g><g transform="translate(0.32407561668575635 0.2541247484914494)"><g clip-path="url(#i4)"><polygon points="-9.02056208e-17,0 9.58924659,0 9.58924659,1.93042254 -9.02056208e-17,1.93042254 -9.02056208e-17,0" stroke="none" fill="#3F5B73"></polygon></g></g><g transform="translate(1.975018431723432 1.9483250634026872)"><g clip-path="url(#i5)"><polygon points="2.49800181e-16,-1.95156391e-17 7.7839266,-1.95156391e-17 7.7839266,3.07738922 2.49800181e-16,3.07738922 2.49800181e-16,-1.95156391e-17" stroke="none" fill="#3F5B73"></polygon></g></g><g transform="translate(11.167809125347961 1.987726358148696)"><g clip-path="url(#i6)"><polygon points="0,0 6.13255533,0 6.13255533,1.84575453 0,1.84575453 0,0" stroke="none" fill="#F3CC53"></polygon></g></g><g transform="translate(11.16784936679657 3.286156941650309)"><g clip-path="url(#i7)"><polygon points="0,0 6.13251509,0 6.13251509,1.298833 0,1.298833 0,0" stroke="none" fill="#F3CC53"></polygon></g></g><g transform="translate(4.624791016695932 1.9483247926485388)"><g clip-path="url(#i8)"><polygon points="0,1.11022302e-16 5.13415402,1.11022302e-16 5.13415402,1.83618225 0,1.83618225 0,1.11022302e-16" stroke="none" fill="#3F5B73"></polygon></g></g><g transform="translate(5.528131056937431 0.2540845070422316)"><g clip-path="url(#i9)"><polygon points="0,0 4.38519115,0 4.38519115,1.18076459 0,1.18076459 0,0" stroke="none" fill="#3F5B73"></polygon></g></g><g transform="translate(2.9871652621688165 13.24281690140845)"><g clip-path="url(#i10)"><polygon points="0,0 2.29561368,0 2.29561368,2.82148893 0,2.82148893 0,0" stroke="none" fill="#F3CC53"></polygon></g></g><g transform="translate(7.028452988526968 13.24281690140845)"><g clip-path="url(#i11)"><polygon points="0,0 2.28084507,0 2.28084507,2.82144886 0,2.82144886 0,0" stroke="none" fill="#F3CC53"></polygon></g></g><g transform="translate(3.228010332591354 0.0)"><g clip-path="url(#i12)"><polygon points="0,0 9.64639839,0 9.64639839,14.8570624 0,14.8570624 0,0" stroke="none" fill="#3F5B73"></polygon></g></g><g transform="translate(10.812114960357878 1.6857545271632262)"><g clip-path="url(#i13)"><polygon points="0,0 0.60362173,0 0.60362173,1.19400402 0,1.19400402 0,0" stroke="none" fill="#EDF3F3"></polygon></g></g><g transform="translate(0.0 7.092877263581487)"><g transform="translate(3.1983523849052347 0.0)"><g clip-path="url(#i14)"><polygon points="0,5.55111512e-16 5.68401912,5.55111512e-16 5.68401912,5.6839839 0,5.6839839 0,5.55111512e-16" stroke="none" fill="#3F5B73"></polygon></g></g><g transform="translate(1.5148513788690252 2.431146881287228)"><g clip-path="url(#i15)"><polygon points="0,0 4.93637827,0 4.93637827,4.93637827 0,4.93637827 0,0" stroke="none" fill="#3F5B73"></polygon></g></g><g transform="translate(0.0 5.127686116700109)"><g clip-path="url(#i16)"><polygon points="1.23599048e-17,0 3.75469041,0 3.75469041,3.75468467 1.23599048e-17,3.75468467 1.23599048e-17,0" stroke="none" fill="#3F5B73"></polygon></g></g></g><g transform="translate(3.1983523849052355 7.093780721480712)"><g clip-path="url(#i17)"><polygon points="0,4.51028104e-16 3.15875252,4.51028104e-16 3.15875252,2.00702411 0,2.00702411 0,4.51028104e-16" stroke="none" fill="#3F5B73"></polygon></g></g><g transform="translate(1.5148513788690248 9.52402414486884)"><g clip-path="url(#i18)"><polygon points="0,0 1.75118712,0 1.75118712,2.23167002 0,2.23167002 0,0" stroke="none" fill="#3F5B73"></polygon></g></g><g transform="translate(2.3820545981849746 8.41496981891396)"><g clip-path="url(#i19)"><polygon points="0,0 5.17822938,0 5.17822938,5.17822938 0,5.17822938 0,0" stroke="none" fill="#3F5B73"></polygon></g></g><g transform="translate(7.147696123865899e-07 12.22052313883251)"><g clip-path="url(#i20)"><polygon points="1.67834496e-16,0 1.9203235,0 1.9203235,3.75468231 1.67834496e-16,3.75468231 1.67834496e-16,0" stroke="none" fill="#3F5B73"></polygon></g></g><g transform="translate(0.9022960468770784 10.95283702213298)"><g clip-path="url(#i21)"><polygon points="0,0 4.12008048,0 4.12008048,4.12012072 0,4.12012072 0,0" stroke="none" fill="#3F5B73"></polygon></g></g><g transform="translate(0.9022960468770653 10.95287726358149)"><g clip-path="url(#i22)"><polygon points="0,0 1.4661167,0 1.4661167,2.03987928 0,2.03987928 0,0" stroke="none" fill="#3F5B73"></polygon></g></g><g transform="translate(2.382054598184913 8.414929577464786)"><g clip-path="url(#i23)"><polygon points="0,0 1.58241449,0 1.58241449,1.72237425 0,1.72237425 0,0" stroke="none" fill="#3F5B73"></polygon></g></g></g></g></g></g></g></svg>