<?xml version="1.0" encoding="UTF-8"?>
<svg width="30px" height="30px" viewBox="0 0 30 30" version="1.1" xmlns="http://www.w3.org/2000/svg" xmlns:xlink="http://www.w3.org/1999/xlink">
    <title>Hauptschule</title>
    <defs>
        <circle id="path-1" cx="15" cy="15" r="15"></circle>
    </defs>
    <g id="Icons" stroke="none" stroke-width="1" fill="none" fill-rule="evenodd">
        <g transform="translate(-293.000000, -590.000000)" id="Hauptschule">
            <g transform="translate(293.000000, 590.000000)">
                <mask id="mask-2" fill="white">
                    <use xlink:href="#path-1"></use>
                </mask>
                <use id="Oval" fill="#FFFFFF" xlink:href="#path-1"></use>
                <g id="chicken" mask="url(#mask-2)">
                    <g transform="translate(14.438419, 15.000000) scale(-1, 1) translate(-14.438419, -15.000000) translate(4.000000, 5.000000)">
                        <g id="Group" stroke-width="1" fill="none" fill-rule="evenodd" transform="translate(3.222215, 15.783638)">
                            <path d="M4.97397266,0.151459766 C4.86738676,-0.00597257365 4.6525432,-0.0475630907 4.49494776,0.0593490031 L2.13191322,1.66021693 L0.513838227,0.751545687 C0.347843134,0.658089349 0.137688698,0.717376223 0.0442323596,0.883371316 C-0.0490608787,1.04936641 0.0100628956,1.25968395 0.176057989,1.35297718 L2.88196965,2.87253973 C2.93534415,2.90250937 2.99344854,2.9166583 3.05049279,2.9166583 C3.17106452,2.9166583 3.28825192,2.8533347 3.35153474,2.7407141 C3.44482798,2.57471901 3.38570421,2.36440147 3.21970911,2.27110824 L2.80441557,2.03787514 L4.88190267,0.630484662 C5.03945733,0.523572569 5.08068088,0.309218306 4.97397266,0.151459766 Z" id="Path" fill="#F4CC54" fill-rule="nonzero"></path>
                            <path d="M9.30970251,3.52648945 L8.91977103,3.52653023 L8.51870796,0.719088774 C8.49191877,0.530504321 8.31768713,0.400717443 8.1285726,0.426609579 C7.94015125,0.453561865 7.80918189,0.628160486 7.83609341,0.816744939 L8.22321141,3.526571 L6.55106875,3.52669333 C6.36064943,3.52669333 6.20623444,3.68110831 6.20623444,3.87152764 C6.20623444,4.06194697 6.36064943,4.21636196 6.55106875,4.21636196 L9.30966174,4.21619886 C9.50008106,4.21619886 9.65449605,4.06178387 9.65449605,3.87136454 C9.65449605,3.68086366 9.50012184,3.52648945 9.30970251,3.52648945 Z" id="Path" fill="#F4CC54" fill-rule="nonzero"></path>
                        </g>
                        <path d="M18.0605616,10.8456418 C15.0697141,10.4606848 10.946626,8.6022819 10.8095404,4.85917614 C10.7156355,2.29499844 8.75370479,0.112678768 6.19009794,0.00442109828 C4.08268197,-0.0845499882 2.25836695,1.17812995 1.51242879,2.99714423 C1.23601496,3.6712368 1.15528042,4.40971313 1.25444526,5.13151248 L1.34810548,5.81335231 C1.44527234,6.52079885 1.71781255,7.19501375 2.15312663,7.76101175 C2.15687793,7.76590476 2.16067001,7.77079776 2.16446209,7.77569076 C2.30448349,7.95632408 2.3771038,8.18091288 2.37323017,8.40945685 C2.29836724,12.8201312 5.45198859,17.2464223 11.2471378,17.2464223 C15.6917778,17.2464223 19.4704801,14.6171677 20.8503067,10.9720443 C20.9740181,10.6452326 20.6425172,10.3334668 20.3231265,10.4752415 C19.7588003,10.7257224 18.9543092,10.9606681 18.0605616,10.8456418 Z" id="Path" fill="#405B73" fill-rule="nonzero"></path>
                        <path d="M4.04794887,4.37874632 C3.86631447,4.37874632 3.71905992,4.23149177 3.71905992,4.04985737 L3.71905992,3.32888895 C3.71905992,3.14725454 3.86631447,3 4.04794887,3 C4.22958327,3 4.37683782,3.14725454 4.37683782,3.32888895 L4.37683782,4.04985737 C4.37683782,4.23149177 4.22958327,4.37874632 4.04794887,4.37874632 Z" id="Path-Copy" fill="#EDF4F3" fill-rule="nonzero"></path>
                        <g id="Group" stroke-width="1" fill="none" fill-rule="evenodd" transform="translate(1.216904, 0.030843)">
                            <path d="M12.443993,16.7845871 C6.65867048,16.7845871 1.32643999,11.7034084 2.68963035,2.58403513 C2.84559479,1.54068401 3.4786677,0.606446824 4.22721546,0 C2.42508204,0.199471382 0.921625626,1.3897349 0.275871686,3.01502706 C0.00765362577,3.69017979 -0.0545690498,4.43000169 0.0442695908,5.14976229 L0.121782898,5.71388464 C0.222537964,6.44759029 0.491408424,7.15515916 0.944541185,7.74093305 C0.948333262,7.74582605 0.952125338,7.75071905 0.955917415,7.75557128 C1.09850765,7.93844723 1.15934397,8.1691115 1.15595965,8.40099902 C1.09214675,12.8042523 4.24491181,17.2155383 10.0302343,17.2155383 C11.1223116,17.2155383 12.1705965,17.0494616 13.1565364,16.755963 C12.9205713,16.7711314 12.6840763,16.7845871 12.443993,16.7845871 Z" id="Path" fill="#405B73" fill-rule="nonzero"></path>
                            <path d="M10.9349504,7.09293648 C9.72234214,6.13476437 8.01297188,6.21248155 6.8329429,7.21049086 C2.34206411,11.0085613 10.6258757,18.62089 17.1252503,10.1822556 C17.3141609,9.93695313 17.1822945,9.57849995 16.8801109,9.51130273 C15.5902748,9.22453203 12.66165,8.45735009 10.9349504,7.09293648 Z" id="Path" fill="#405B73" fill-rule="nonzero"></path>
                        </g>
                        <path d="M1.05534086,4.71886931 L0.0976580396,5.53265709 C-0.0587956996,5.66562442 -0.0212419092,5.91663542 0.167260993,5.99802236 L1.31891057,6.49498826 C1.46643458,6.55863806 1.63508005,6.48438676 1.69012632,6.33343764 C1.8225228,5.97025457 1.95312518,5.304317 1.44351902,4.74427214 C1.34264163,4.63332332 1.16959245,4.62174322 1.05534086,4.71886931 Z" id="Path" fill="#F4CC54" fill-rule="nonzero"></path>
                        <path d="M18.0972183,9.54198294 C17.7851671,9.47254308 17.3772539,9.37500924 16.9138458,9.24783196 C14.1626331,13.3818886 8.79252261,14.2811816 6.96849301,10.9050917 C8.07463766,14.0497018 13.6694185,16.2808699 18.3427247,10.2123242 C18.5314723,9.96726636 18.3991981,9.60918016 18.0972183,9.54198294 Z" id="Path" fill="#82B1B0" fill-rule="nonzero"></path>
                    </g>
                </g>
            </g>
        </g>
    </g>
</svg>