<?xml version="1.0" encoding="UTF-8"?><svg version="1.1" width="30px" height="30px" viewBox="0 0 30.0 30.0" xmlns="http://www.w3.org/2000/svg" xmlns:xlink="http://www.w3.org/1999/xlink"><defs><clipPath id="i0"><path d="M2655,0 L2655,1581 L0,1581 L0,0 L2655,0 Z"></path></clipPath><clipPath id="i1"><path d="M15,0 C23.2842712,0 30,6.71572875 30,15 C30,23.2842712 23.2842712,30 15,30 C6.71572875,30 0,23.2842712 0,15 C0,6.71572875 6.71572875,0 15,0 Z"></path></clipPath><clipPath id="i2"><path d="M3.69537239,0.207154733 C3.78577346,0.0236065712 4.00750452,-0.0523669376 4.19122703,0.0382520669 C4.37477519,0.128653132 4.45035641,0.350558544 4.36012969,0.534106706 L3.18766187,2.91692013 L5.55552469,2.91692013 C5.76008216,2.91692013 5.9258901,3.08277166 5.9258901,3.28728554 C5.9258901,3.49179943 5.76003858,3.65765095 5.55552469,3.65765095 L0.370365407,3.65765095 C0.165851521,3.65765095 0,3.49179943 0,3.28728554 C0,3.08277166 0.165851521,2.91692013 0.370365407,2.91692013 L2.36197847,2.91692013 Z"></path></clipPath><clipPath id="i3"><path d="M3.69537239,0.207154733 C3.78577346,0.0236065712 4.00693788,-0.0523669376 4.19122703,0.0382520669 C4.37477519,0.128653132 4.45035641,0.350558544 4.36012969,0.534106706 L3.18766187,2.91692013 L4.07401948,2.91692013 C4.27857695,2.91692013 4.44442847,3.08277166 4.44442847,3.28728554 C4.44442847,3.49179943 4.27857695,3.65765095 4.07406306,3.65765095 L0.370365407,3.65765095 C0.165851521,3.65765095 0,3.49179943 0,3.28728554 C0,3.08277166 0.165851521,2.91692013 0.370365407,2.91692013 L2.36197847,2.91692013 Z"></path></clipPath><clipPath id="i4"><path d="M2.21692559,0 L1.9517811,2.9313657 L0.150559481,1.50635025 C-0.0860350149,1.31918431 -0.0352116579,0.946857448 0.242878409,0.829955009 L2.21692559,0 Z"></path></clipPath><clipPath id="i5"><path d="M0.066463033,5.98995281 C1.1292204,-1.1705177 6.78516355,0.0845594593 6.78516355,0.0845594593 C8.52527509,0.424108302 9.74286407,1.6491761 10.6198939,3.16590024 C11.9316247,5.43438291 14.122957,9.19980087 17.1591949,9.48530086 C18.5038344,9.61174902 19.5923958,9.30990361 20.2872287,9.02183195 C20.6181035,8.8846176 20.9571293,9.20420324 20.8324683,9.54000353 C19.3633856,13.4971642 15.1951293,16.3602714 10.3883992,16.3602714 C4.4638167,16.3602714 -0.645281904,12.2862519 0.066463033,5.98995281 Z"></path></clipPath><clipPath id="i6"><path d="M0.328888947,0 C0.51052335,0 0.657777895,0.147254545 0.657777895,0.328888947 L0.657777895,1.04985737 C0.657777895,1.23149177 0.51052335,1.37874632 0.328888947,1.37874632 C0.147254545,1.37874632 0,1.23149177 0,1.04985737 L0,0.328888947 C0,0.147254545 0.147254545,0 0.328888947,0 Z"></path></clipPath><clipPath id="i7"><path d="M1.946665,0.245542058 C2.83350207,-0.236451665 3.9317399,0.011301303 4.54610972,0.81218326 C6.82479193,3.78260361 8.951963,4.36432619 10.2683577,4.36454413 C10.6758599,4.3646313 10.8654232,4.87142648 10.559219,5.14031952 C2.30739751,12.3863093 -3.07756818,2.98115502 1.93428607,0.252298165 Z"></path></clipPath><clipPath id="i8"><path d="M0.027157133,0 C0.422280402,5.16114241 6.83186415,3.75609017 9.42629627,1.31892278 C9.73171588,1.37393056 10.012334,1.39537575 10.2635304,1.39563728 C10.6721223,1.39611675 10.8712749,1.89694039 10.5643733,2.16670519 C4.24122416,7.72523744 -0.399131402,3.5062014 0.027157133,0 Z"></path></clipPath></defs><g transform="translate(-293.0 -569.0)"><g clip-path="url(#i0)"><g transform="translate(293.0 569.0000000000018)"><g clip-path="url(#i1)"><polygon points="0,0 30,0 30,30 0,30 0,0" stroke="none" fill="#FFFFFF"></polygon><g transform="translate(26.316957853898344 6.047170768576942) scale(-1.0 1.0)"><g transform="translate(7.402041288034753 15.29517828350981)"><g clip-path="url(#i2)"><polygon points="0,-4.30211422e-16 5.9258901,-4.30211422e-16 5.9258901,3.65765095 0,3.65765095 0,-4.30211422e-16" stroke="none" fill="#F3CC53"></polygon></g></g><g transform="translate(0.0 4.449081036422285)"><g transform="translate(8.883546503392381 10.84609724708616)"><g clip-path="url(#i3)"><polygon points="0,-4.16333634e-16 4.44442847,-4.16333634e-16 4.44442847,3.65765095 0,3.65765095 0,-4.16333634e-16" stroke="none" fill="#F3CC53"></polygon></g></g><g clip-path="url(#i4)"><polygon points="0,0 2.21692559,0 2.21692559,2.9313657 0,2.9313657 0,0" stroke="none" fill="#F3CC53"></polygon></g></g><g transform="translate(1.458070597977894 0.0)"><g clip-path="url(#i5)"><polygon points="1.38777878e-17,2.7991498e-13 20.8588873,2.7991498e-13 20.8588873,16.3602714 1.38777878e-17,16.3602714 1.38777878e-17,2.7991498e-13" stroke="none" fill="#3F5B73"></polygon></g></g><g transform="translate(4.891855940802202 3.474703635311556)"><g clip-path="url(#i6)"><polygon points="0,0 0.657777895,0 0.657777895,1.37874632 0,1.37874632 0,0" stroke="none" fill="#EDF3F3"></polygon></g></g><g transform="translate(8.506869919016708 3.764043344743186)"><g clip-path="url(#i7)"><polygon points="6.66133815e-16,-6.66133815e-16 10.7105376,-6.66133815e-16 10.7105376,7.82726689 6.66133815e-16,7.82726689 6.66133815e-16,-6.66133815e-16" stroke="none" fill="#3F5B73"></polygon></g></g><g transform="translate(8.508428084894831 6.731686147424624)"><g clip-path="url(#i8)"><polygon points="1.45716772e-16,0 10.7135874,0 10.7135874,4.85968379 1.45716772e-16,4.85968379 1.45716772e-16,0" stroke="none" fill="#82B1B0"></polygon></g></g></g></g></g></g></g></svg>