<?xml version="1.0" encoding="UTF-8"?>
<svg width="30px" height="30px" viewBox="0 0 30 30" version="1.1" xmlns="http://www.w3.org/2000/svg" xmlns:xlink="http://www.w3.org/1999/xlink">
    <title>Foerderschule</title>
    <defs>
        <circle id="path-1" cx="15" cy="15" r="15"></circle>
    </defs>
    <g id="Icons" stroke="none" stroke-width="1" fill="none" fill-rule="evenodd">
        <g transform="translate(-293.000000, -876.000000)" id="Foerderschule">
            <g transform="translate(293.000000, 876.000000)">
                <g id="icon_gesamtschule-copy-2">
                    <mask id="mask-2" fill="white">
                        <use xlink:href="#path-1"></use>
                    </mask>
                    <use id="Oval" fill="#FFFFFF" xlink:href="#path-1"></use>
                </g>
                <g id="Group-12" transform="translate(6.000000, 5.000000)" fill-rule="nonzero">
                    <path d="M14.1415314,3.12087339 L15.7447325,4.38922722 L15.9807279,1.78012644 L14.2237011,2.51883886 C13.9761834,2.62288942 13.9309474,2.95428386 14.1415314,3.12087339 Z" id="Path" fill="#F4CC54" transform="translate(14.994126, 3.084677) scale(-1, 1) rotate(10.000000) translate(-14.994126, -3.084677) "></path>
                    <g id="pigeon">
                        <path d="M7.09578019,19.7278886 C6.77709002,19.7278886 6.5184312,19.46896 6.5184312,19.1499231 C6.5184312,18.8308861 6.77709002,18.5719576 7.09578019,18.5719576 L8.25968708,18.5719576 L8.25968708,16.4415768 C8.25968708,16.1225399 8.51834591,15.8636113 8.83703607,15.8636113 C9.15611155,15.8636113 9.41438506,16.1225399 9.41438506,16.4415768 L9.41438506,18.5719576 L11.3484502,18.5719576 C11.6671404,18.5719576 11.9257607,18.8308861 11.9257607,19.1499231 C11.9257607,19.46896 11.6671019,19.7278886 11.3484117,19.7278886 L7.09578019,19.7278886 Z" id="Combined-Shape" fill="#F4CC54"></path>
                        <path d="M8.13387601,14.1848215 L4.55364954,16.6307714 C4.55133768,16.632698 4.54864051,16.6342392 4.54632865,16.6357805 C3.95206453,17.028797 3.2615499,17.2364793 2.54953496,17.2364793 C1.69083237,17.2364793 0.857945574,16.9305429 0.203650113,16.3749254 C0.0724134171,16.2631854 -0.00225972364,16.0986579 0,15.9260389 C0.00236400024,15.7538051 0.0816608648,15.5912042 0.215980044,15.4833173 L4.76113915,11.832502 C4.94088642,11.6883959 5.18914186,11.6645067 5.39273983,11.7727789 L8.07889222,13.1968858 C8.25748356,13.2916722 8.37373168,13.4731533 8.38486715,13.675056 C8.3963494,13.8773439 8.30090803,14.0707697 8.13387601,14.1848215 Z" id="Path" fill="#405B73"></path>
                        <path d="M8.83703607,2.08491416 L12.0423941,8.49998427 L8.83703607,16.835364 C8.60534898,16.8604091 8.37285273,16.8731244 8.14078032,16.8731244 C7.93756765,16.8731244 7.73508708,16.8634916 7.53303035,16.8438408 C5.87492443,16.6816251 4.91003032,15.9418293 4.39232737,15.3496074 C3.82653769,14.702286 3.65680849,14.0904132 3.63946953,14.0225986 C3.6036742,13.8842722 3.62024254,13.737469 3.68643886,13.6107019 L3.69992472,13.5848861 L3.70031003,13.5845008 C3.70031003,13.5841155 3.70031003,13.5841155 3.70069534,13.5837301 L7.88751584,5.59509121 L8.83703607,2.08491416 Z" id="Path" fill="#405B73"></path>
                        <path d="M14.7516266,12.2775281 C14.1227231,13.7347718 13.0823467,14.9558202 11.7429309,15.8081266 C10.8522861,16.3745328 9.85236731,16.7243946 8.83699754,16.835364 L8.83699754,2.08491416 L8.88778144,1.89726803 C9.04791641,1.30543138 9.38467764,0.813004783 9.86115238,0.473546388 C10.2903881,0.167995301 10.8246208,0 11.366136,0 L11.3699891,0 C11.9111574,0.000770620647 12.4450049,0.169921853 12.8725837,0.47624356 C13.3467852,0.816087265 13.6808492,1.30774324 13.8390576,1.89880927 C13.8398283,1.90227707 13.8409842,1.90574486 13.8417548,1.90921265 L15.1311187,7.12053478 C15.5860932,8.82553296 15.4513501,10.6569129 14.7516266,12.2775281 L14.7516266,12.2775281 Z" id="Path" fill="#405B73"></path>
                        <g id="Group-10" transform="translate(0.000000, 5.340379)">
                            <path d="M5.17472521,0.92355217 C4.47611123,0.0128509703 3.22727987,-0.268874599 2.21883714,0.279211493 L2.20476078,0.286894016 C-3.49433338,3.38993959 2.62903433,14.0847557 12.0123693,5.84517495 C12.3605611,5.53941052 12.1450044,4.96312213 11.6816243,4.963023 C10.1847218,4.96277518 7.7658669,4.30128513 5.17472521,0.92355217 Z" id="Path" fill="#405B73" transform="translate(6.094838, 4.450282) scale(-1, 1) translate(-6.094838, -4.450282) "></path>
                            <path d="M10.7188572,4.87435181 C7.76866905,7.64571062 0.480184708,9.24342768 0.0308809973,3.37457454 C-0.45386145,7.36155639 4.82279304,12.1591188 12.0129907,5.83838459 C12.3619755,5.53162886 12.1355145,4.96213084 11.6708953,4.96158562 C11.3852541,4.96128824 11.0661568,4.93690242 10.7188572,4.87435181 Z" id="Path" fill="#82B1B0" transform="translate(6.091333, 6.137603) scale(-1, 1) translate(-6.091333, -6.137603) "></path>
                        </g>
                        <path d="M12.2889236,2.92487298 C12.1381161,2.92487298 12.0158534,2.80261037 12.0158534,2.65180282 L12.0158534,2.0531966 C12.0158534,1.90238905 12.1381161,1.78012644 12.2889236,1.78012644 C12.4397312,1.78012644 12.5619938,1.90238905 12.5619938,2.0531966 L12.5619938,2.65180282 C12.5619938,2.80261037 12.4397312,2.92487298 12.2889236,2.92487298 Z" id="Path" fill="#EDF4F3"></path>
                    </g>
                </g>
            </g>
        </g>
    </g>
</svg>