<?xml version="1.0" encoding="UTF-8"?><svg version="1.1" width="30px" height="30px" viewBox="0 0 30.0 30.0" xmlns="http://www.w3.org/2000/svg" xmlns:xlink="http://www.w3.org/1999/xlink"><defs><clipPath id="i0"><path d="M2655,0 L2655,1581 L0,1581 L0,0 L2655,0 Z"></path></clipPath><clipPath id="i1"><path d="M15,0 C23.2842712,0 30,6.71572875 30,15 C30,23.2842712 23.2842712,30 15,30 C6.71572875,30 0,23.2842712 0,15 C0,6.71572875 6.71572875,0 15,0 Z"></path></clipPath><clipPath id="i2"><path d="M3.18991583,0 L3.18991583,2.5384526 C3.18991583,2.84181976 3.43583706,3.08774099 3.73920422,3.08774099 L4.29086061,3.08774099 C5.21385456,3.08774099 5.96209884,3.83598527 5.96209884,4.75897922 L0,4.75897922 L0,4.60646245 C0,3.76766408 0.679923084,3.08774099 1.5186776,3.08774099 L1.5186776,0 L3.18991583,0 Z"></path></clipPath><clipPath id="i3"><path d="M2.21964958,0 L2.91535933,0.925932016 C2.91535933,0.925932016 2.69662626,2.63760165 0.832352148,2.63760165 L0,1.78174491 L0.0778809027,0 L2.21964958,0 Z"></path></clipPath><clipPath id="i4"><path d="M3.76200719,2.11201939 C3.79265964,2.34298714 3.55809604,2.51699132 3.34344119,2.42639337 C2.81213206,2.20213496 1.86203766,1.96546648 0.754471245,2.43248878 L0,1.33307881 L0.570074175,0.0502365065 C0.570074175,0.0502365065 3.41408653,-0.510102556 3.76200719,2.11201939 Z"></path></clipPath><clipPath id="i5"><path d="M3.56571948,0 L5.13118702,1.45175967 C2.9190361,3.42373394 1.28748381,3.12400648 0.347036833,2.58432164 C-0.144630218,2.30217878 -0.106391396,1.58156117 0.414261733,1.35730276 L3.56571948,0 Z"></path></clipPath><clipPath id="i6"><path d="M1.67123822,0 L1.67123822,2.5384526 C1.67123822,2.62269202 1.6907523,2.70215159 1.72464979,2.77349857 C1.41992322,2.80586124 1.1106799,2.82287576 0.79748992,2.82287576 L0.319636205,2.82287576 C0.212856927,2.82287576 0.10634076,2.82112169 0,2.81809591 L0,0 L1.67123822,0 Z"></path></clipPath><clipPath id="i7"><path d="M10.7769892,0 C13.4868148,0 15.6835738,2.19675891 15.6835738,4.90658458 L15.6835738,9.35518033 C15.6835738,13.4383147 12.3735477,16.7483408 8.29041333,16.7483408 L7.81255961,16.7483408 C4.99376207,16.7483408 2.30559922,15.5328988 0.465180527,13.3978394 C0.156638843,13.0399205 0,12.8055324 0,12.8055324 L5.8704046,9.88092028 L5.8704046,4.90658458 C5.8704046,2.19675891 8.06716351,0 10.7769892,0 Z"></path></clipPath><clipPath id="i8"><path d="M4.90658458,0 C5.12965899,0 5.3491814,0.0151727434 5.56436247,0.0440272671 C3.1656219,0.365461398 1.31555579,2.41983332 1.31555579,4.90658458 L1.31555579,9.88092028 L0,9.88092028 L0,4.90658458 C0,2.19675891 2.19675891,0 4.90658458,0 Z"></path></clipPath><clipPath id="i9"><path d="M8.12543501,0.000267849131 C10.0895598,-0.0236752662 11.725278,1.56064857 11.7059832,3.52486107 C11.6871708,5.43627593 10.1318768,6.97994909 8.21603295,6.97994909 C3.53318056,6.97994909 1.44157842,6.74529779 0.508586249,6.52805568 C0.0783118024,6.42785418 -0.132703346,5.94052846 0.0894501747,5.55866647 C0.988369446,4.01359004 3.71941941,0.0539863772 8.12543501,0.000267849131 Z"></path></clipPath><clipPath id="i10"><path d="M8.12543501,0.000255025947 C8.40143862,-0.00307771539 8.67060133,0.0263468824 8.92994123,0.0830911888 C4.84592984,0.685440333 2.29550568,4.40083299 1.41083826,5.92135237 C1.2620489,6.17705257 1.29572713,6.47708699 1.45504094,6.69117177 C1.05116531,6.63833028 0.743193698,6.58263842 0.508586249,6.527999 C0.0783118024,6.42784135 -0.132703346,5.94051564 0.0894501747,5.55865364 C0.988413298,4.01357722 3.71941941,0.053973554 8.12543501,0.000255025947 Z"></path></clipPath><clipPath id="i11"><path d="M0.328888947,0 C0.51052335,0 0.657777895,0.147254545 0.657777895,0.328888947 L0.657777895,1.04985737 C0.657777895,1.23149177 0.51052335,1.37874632 0.328888947,1.37874632 C0.147254545,1.37874632 0,1.23149177 0,1.04985737 L0,0.328888947 C0,0.147254545 0.147254545,0 0.328888947,0 Z"></path></clipPath></defs><g transform="translate(-293.0 -613.0)"><g clip-path="url(#i0)"><g transform="translate(293.0 613.0000000000019)"><g clip-path="url(#i1)"><polygon points="0,0 30,0 30,30 0,30 0,0" stroke="none" fill="#FFFFFF"></polygon><g transform="translate(4.0000000000000835 5.0)"><g transform="translate(9.074784754521087 15.24102078358888)"><g clip-path="url(#i2)"><polygon points="0,0 5.96209884,0 5.96209884,4.75897922 0,4.75897922 0,0" stroke="none" fill="#F3CC53"></polygon></g></g><g transform="translate(17.95180440673198 4.852471381180098)"><g clip-path="url(#i3)"><polygon points="0,0 2.91535933,0 2.91535933,2.63760165 0,2.63760165 0,0" stroke="none" fill="#F3CC53"></polygon></g></g><g transform="translate(18.02964145760676 3.519436424399828)"><g clip-path="url(#i4)"><polygon points="0,-1.45716772e-16 3.76472195,-1.45716772e-16 3.76472195,2.45082203 0,2.45082203 0,-1.45716772e-16" stroke="none" fill="#F3CC53"></polygon></g></g><g transform="translate(0.0 13.39783941887617)"><g clip-path="url(#i5)"><polygon points="0,0 5.13118702,0 5.13118702,2.98709497 0,2.98709497 0,0" stroke="none" fill="#3F5B73"></polygon></g></g><g transform="translate(10.59346235784155 15.24102078358888)"><g clip-path="url(#i6)"><polygon points="0,0 1.72464979,0 1.72464979,2.82287576 0,2.82287576 0,0" stroke="none" fill="#F3CC53"></polygon></g></g><g transform="translate(3.1005389516922053 0.0)"><g clip-path="url(#i7)"><polygon points="0,0 15.6835738,0 15.6835738,16.7483408 0,16.7483408 0,0" stroke="none" fill="#3F5B73"></polygon></g></g><g transform="translate(8.97094355087529 0.0)"><g clip-path="url(#i8)"><polygon points="0,0 5.56436247,0 5.56436247,9.88092028 0,9.88092028 0,0" stroke="none" fill="#3F5B73"></polygon></g></g><g transform="translate(1.2514013530092143 6.814618103144312)"><g clip-path="url(#i9)"><polygon points="-3.33066907e-16,-5.37710067e-16 11.7061522,-5.37710067e-16 11.7061522,6.97994909 -3.33066907e-16,6.97994909 -3.33066907e-16,-5.37710067e-16" stroke="none" fill="#3F5B73"></polygon></g></g><g transform="translate(1.2514013530092143 6.814587074468363)"><g clip-path="url(#i10)"><polygon points="8.32667268e-17,-2.77555756e-16 8.92994123,-2.77555756e-16 8.92994123,6.69117177 8.32667268e-17,6.69117177 8.32667268e-17,-2.77555756e-16" stroke="none" fill="#82B1B0"></polygon></g></g><g transform="translate(15.76732401837989 3.5218744038884324)"><g clip-path="url(#i11)"><polygon points="0,0 0.657777895,0 0.657777895,1.37874632 0,1.37874632 0,0" stroke="none" fill="#EDF3F3"></polygon></g></g></g></g></g></g></g></svg>