<?xml version="1.0" encoding="UTF-8"?><svg version="1.1" width="30px" height="30px" viewBox="0 0 30.0 30.0" xmlns="http://www.w3.org/2000/svg" xmlns:xlink="http://www.w3.org/1999/xlink"><defs><clipPath id="i0"><path d="M2655,0 L2655,1581 L0,1581 L0,0 L2655,0 Z"></path></clipPath><clipPath id="i1"><path d="M15,0 C23.2842712,0 30,6.71572875 30,15 C30,23.2842712 23.2842712,30 15,30 C6.71572875,30 0,23.2842712 0,15 C0,6.71572875 6.71572875,0 15,0 Z"></path></clipPath><clipPath id="i2"><path d="M1.42467428,0.127529682 C1.51607459,0.261044323 1.48189484,0.443387133 1.3483802,0.534787445 C0.837209917,0.884366906 0.580709208,1.32534668 0.585897224,1.8453671 L0.586049803,1.8679501 C0.586049803,2.02969358 0.454976572,2.16091935 0.293080554,2.16091935 C0.131337115,2.16091935 0.00011130613,2.02969358 0.00011130613,1.8679501 L0.00011130613,1.85116543 C-0.00904398288,0.945096971 0.548360559,0.372128496 1.01741651,0.0512356068 C1.15093115,-0.0401647049 1.333274,-0.00598495924 1.42467428,0.127529682 Z"></path></clipPath><clipPath id="i3"><path d="M1.3792443,0 L1.40081336,0.0216611589 C1.55848557,0.177280935 2.57509035,1.13553555 4.26880609,1.72439867 C4.65149717,1.85745554 4.77982379,2.33337795 4.51111607,2.63672323 L4.14734592,3.04733792 C3.48938582,3.79013703 2.37854408,3.92487238 1.56387598,3.35831259 C0.440369421,2.57690868 0,1.55685687 0,1.55685687 L1.3792443,0 Z"></path></clipPath><clipPath id="i4"><path d="M1.0210174,0.621975636 C1.0242585,0.648373416 1.18997275,1.99526899 1.52694249,2.81695617 C1.67279195,3.17263915 1.59343729,3.63360795 1.34972756,3.84646842 C1.26702728,3.91879523 1.17596285,3.95312755 1.08615304,3.95312755 C0.911133708,3.95312755 0.740714622,3.82281725 0.644318081,3.58798412 C0.206665161,2.52078258 0.0155448765,0.94576771 0.00770352824,0.879239277 C-0.0410175205,0.47076077 0.146443452,0.0821187807 0.42632802,0.0111653007 C0.706003498,-0.059635601 0.972296375,0.213649747 1.0210174,0.621975636 Z"></path></clipPath><clipPath id="i5"><path d="M1.02112197,0.621975636 C1.02436305,0.648678572 1.18997275,1.99542157 1.52694249,2.81695617 C1.67279195,3.17263915 1.59343729,3.63360795 1.34972756,3.84646842 C1.26702728,3.91879523 1.17596285,3.95312755 1.08615304,3.95312755 C0.911238253,3.95312755 0.740714622,3.82281725 0.644318081,3.58798412 C0.206665161,2.52078258 0.0155448765,0.94576771 0.00770352824,0.879239277 C-0.0410175205,0.47076077 0.146443452,0.0821187807 0.42632802,0.0111653007 C0.705898954,-0.059635601 0.972400919,0.213649747 1.02112197,0.621975636 Z"></path></clipPath><clipPath id="i6"><path d="M1.84341743,0 C3.11142498,0 4.5416337,0.355682988 4.66797669,1.107027 C4.83475553,2.09885001 3.32810011,3.04764311 2.0600926,3.04764311 C0.792085097,3.04764311 0,2.36542148 0,1.52389786 C0,0.68222159 0.575562502,0 1.84341743,0 Z"></path></clipPath><clipPath id="i7"><path d="M2.83727158,0 C4.10527913,0 4.68084163,0.68222159 4.68084163,1.52389786 C4.68084163,2.36542148 3.88875654,3.04764311 2.62074903,3.04764311 C1.35274148,3.04764311 -0.154066472,2.09885001 0.0127123664,1.107027 C0.139055355,0.355682988 1.56926408,0 2.83727158,0 Z"></path></clipPath><clipPath id="i8"><path d="M8.54707262,0 C8.49488749,4.63364433 7.10923447,6.51688729 4.27353629,6.51688729 C1.43799073,6.51688729 0.0521851278,4.63364433 0,0 L8.54707262,0 Z"></path></clipPath><clipPath id="i9"><path d="M7.79313458,0 C12.0971885,0 15.5864218,2.68372038 15.5864218,6.79825984 C15.5864218,10.9126468 12.0971885,12.355978 7.79313458,12.355978 C3.48908066,12.355978 0,10.9126468 0,6.79825984 C0,2.68372038 3.48908066,0 7.79313458,0 Z"></path></clipPath><clipPath id="i10"><path d="M3.47336407,0 C0.467224896,3.28507027 -1.02935968,11.3099863 11.3470652,10.8944888 C10.2815421,11.18227 9.07334918,11.3099863 7.79313458,11.3099863 C3.48908066,11.3099863 0,9.86665498 0,5.75226806 C0,3.16528859 1.37939688,1.14441113 3.47336407,0 Z"></path></clipPath><clipPath id="i11"><path d="M1.04309256,0 C1.6183499,0 2.08633777,0.467835249 2.08633777,1.04324517 C2.08633777,1.20498861 1.95526454,1.33621442 1.79336852,1.33621442 C1.63162508,1.33621442 1.50039927,1.20498861 1.50039927,1.04324517 C1.50039927,0.79101697 1.2953208,0.585938496 1.04309256,0.585938496 C0.79101697,0.585938496 0.585938496,0.79101697 0.585938496,1.04324517 C0.585938496,1.20498861 0.454712648,1.33621442 0.292969248,1.33621442 C0.131073192,1.33621442 0,1.20498861 0,1.04324517 C0,0.467987827 0.467987827,0 1.04309256,0 Z"></path></clipPath><clipPath id="i12"><path d="M1.04324517,0 C1.61850252,0 2.08649038,0.467835249 2.08649038,1.04324517 C2.08649038,1.20498861 1.95541715,1.33621442 1.79352114,1.33621442 C1.63162508,1.33621442 1.50055189,1.20498861 1.50055189,1.04324517 C1.50055189,0.79101697 1.29547341,0.585938496 1.04324517,0.585938496 C0.791169549,0.585938496 0.585938496,0.79101697 0.585938496,1.04324517 C0.585938496,1.20498861 0.454865266,1.33621442 0.292969248,1.33621442 C0.131225809,1.33621442 0,1.20498861 0,1.04324517 C0,0.467987827 0.467987866,0 1.04324517,0 Z"></path></clipPath><clipPath id="i13"><path d="M0.773095241,0.254517034 C1.05248415,-0.0848390115 1.57204679,-0.0848390115 1.85158829,0.254517034 L2.37206648,0.88668975 C2.79244684,1.39724968 2.67419101,2.16003785 2.11892272,2.51938296 L1.68099471,2.80273914 C1.45669015,2.94785048 1.16799337,2.94785048 0.943536194,2.80273914 L0.505608223,2.51938296 C-0.0496600649,2.16003785 -0.167915891,1.39724968 0.252464472,0.88668975 Z"></path></clipPath></defs><g transform="translate(-293.0 -525.0)"><g clip-path="url(#i0)"><g transform="translate(293.0 525.0000000000018)"><g clip-path="url(#i1)"><polygon points="0,0 30,0 30,30 0,30 0,0" stroke="none" fill="#FFFFFF"></polygon><g transform="translate(22.846375653853016 5.0) scale(-1.0 1.0)"><g transform="translate(7.630106670713214 0.0)"><g clip-path="url(#i2)"><polygon points="3.68845579e-16,6.9388939e-18 1.47590988,6.9388939e-18 1.47590988,2.16091935 3.68845579e-16,2.16091935 3.68845579e-16,6.9388939e-18" stroke="none" fill="#3F5B73"></polygon></g></g><g transform="translate(9.450289431392068 15.465995727072219)"><g clip-path="url(#i3)"><polygon points="0,0 4.65361372,0 4.65361372,3.70800175 0,3.70800175 0,0" stroke="none" fill="#3F5B73"></polygon></g></g><g transform="translate(6.25450964791071 16.04687244884976)"><g clip-path="url(#i4)"><polygon points="4.16333634e-17,4.23272528e-16 1.6,4.23272528e-16 1.6,3.95312755 4.16333634e-17,3.95312755 4.16333634e-17,4.23272528e-16" stroke="none" fill="#F3CC53"></polygon></g></g><g transform="translate(8.374436488473926 16.04687244884976)"><g clip-path="url(#i5)"><polygon points="4.07660017e-17,4.23272528e-16 1.6,4.23272528e-16 1.6,3.95312755 4.07660017e-17,3.95312755 4.07660017e-17,4.23272528e-16" stroke="none" fill="#F3CC53"></polygon></g></g><g transform="translate(11.16568543449423 12.60542566713728)"><g clip-path="url(#i6)"><polygon points="0,0 4.68069022,0 4.68069022,3.04764311 0,3.04764311 0,0" stroke="none" fill="#3F5B73"></polygon></g></g><g transform="translate(0.0 12.60542566713703)"><g clip-path="url(#i7)"><polygon points="-1.73472348e-18,0 4.68084163,0 4.68084163,3.04764311 -1.73472348e-18,3.04764311 -1.73472348e-18,0" stroke="none" fill="#3F5B73"></polygon></g></g><g transform="translate(3.649650934141528 11.504349575921538)"><g clip-path="url(#i8)"><polygon points="0,0 8.54707262,0 8.54707262,6.51688729 0,6.51688729 0,0" stroke="none" fill="#3F5B73"></polygon></g></g><g transform="translate(0.1300526441026708 1.3160387733420071)"><g clip-path="url(#i9)"><polygon points="0,0 15.5864218,0 15.5864218,12.355978 0,12.355978 0,0" stroke="none" fill="#3F5B73"></polygon></g></g><g transform="translate(0.1300526441026708 2.3620305521326364)"><g clip-path="url(#i10)"><polygon points="0,0 11.3470652,0 11.3470652,11.3099863 0,11.3099863 0,0" stroke="none" fill="#3F5B73"></polygon></g></g><g transform="translate(2.017568080532419 6.103339414520454)"><g clip-path="url(#i11)"><polygon points="0,0 2.08633777,0 2.08633777,1.33621442 0,1.33621442 0,0" stroke="none" fill="#EDF3F3"></polygon></g></g><g transform="translate(8.723817258469534 6.103339414520454)"><g clip-path="url(#i12)"><polygon points="0,0 2.08649038,0 2.08649038,1.33621442 0,1.33621442 0,0" stroke="none" fill="#EDF3F3"></polygon></g></g><g transform="translate(5.101596079051584 6.491218472576226)"><g clip-path="url(#i13)"><polygon points="-2.22044605e-16,0 2.62453095,0 2.62453095,2.91157265 -2.22044605e-16,2.91157265 -2.22044605e-16,0" stroke="none" fill="#F3CC53"></polygon></g></g></g></g></g></g></g></svg>